999
dxflib 3.26.4.0
  0
SECTION
  2
HEADER
  9
$ACADVER
  1
AC1015
  9
$HANDSEED
  5
FFFF
  9
$DIMADEC
 70
0
  9
$DIMASZ
 40
0.125
  9
$DIMATFIT
 70
0
  9
$DIMAUNIT
 70
0
  9
$DIMAZIN
 70
2
  9
$DIMBLK
  1

  9
$DIMDEC
 70
4
  9
$DIMDLI
 40
0.25
  9
$DIMDSEP
 70
46
  9
$DIMEXE
 40
0.0625
  9
$DIMEXO
 40
0.03125
  9
$DIMGAP
 40
0.03125
  9
$DIMLFAC
 40
1.0
  9
$DIMLUNIT
 70
3
  9
$DIMSCALE
 40
1.0
  9
$DIMTAD
 70
1
  9
$DIMTIH
 70
0
  9
$DIMTSZ
 40
0.0
  9
$DIMTXT
 40
0.125
  9
$DIMZIN
 70
8
  9
$DWGCODEPAGE
  3
ANSI_1252
  9
$INSUNITS
 70
1
  9
$LTSCALE
 40
1.0
  9
$MAXACTVP
 70
64
  9
$MEASUREMENT
 70
0
  9
$MIRRTEXT
 70
0
  9
$PDMODE
 70
0
  9
$PDSIZE
 40
0.0
  0
ENDSEC
  0
SECTION
  2
TABLES
  0
TABLE
  2
VPORT
  5
8
100
AcDbSymbolTable
 70
1
  0
VPORT
  5
30
100
AcDbSymbolTableRecord
100
AcDbViewportTableRecord
  2
*Active
 70
0
 10
0.0
 20
0.0
 11
1.0
 21
1.0
 12
286.3055555555554861
 22
148.5
 13
0.0
 23
0.0
 14
10.0
 24
10.0
 15
10.0
 25
10.0
 16
0.0
 26
0.0
 36
1.0
 17
0.0
 27
0.0
 37
0.0
 40
297.0
 41
1.92798353909465
 42
50.0
 43
0.0
 44
0.0
 50
0.0
 51
0.0
 71
0
 72
100
 73
1
 74
3
 75
1
 76
1
 77
0
 78
0
281
0
 65
1
110
0.0
120
0.0
130
0.0
111
1.0
121
0.0
131
0.0
112
0.0
122
1.0
132
0.0
 79
0
146
0.0
  0
ENDTAB
  0
TABLE
  2
LTYPE
  5
5
100
AcDbSymbolTable
 70
41
  0
LTYPE
  5
16
100
AcDbSymbolTableRecord
100
AcDbLinetypeTableRecord
  2
Continuous
 70
0
  3
Solid line
 72
65
 73
0
 40
0.0
  0
LTYPE
  5
31
100
AcDbSymbolTableRecord
100
AcDbLinetypeTableRecord
  2
PHANTOM
 70
0
  3
Phantom ______  __  __  ______  __  __  ______ 
 72
65
 73
6
 40
63.5000000000000071
 49
31.75
 74
0
 49
-6.3499999999999996
 74
0
 49
6.3499999999999996
 74
0
 49
-6.3499999999999996
 74
0
 49
6.3499999999999996
 74
0
 49
-6.3499999999999996
 74
0
  0
LTYPE
  5
32
100
AcDbSymbolTableRecord
100
AcDbLinetypeTableRecord
  2
ACAD_ISO05W100
 70
0
  3
ISO long-dash double-dot ____ .. ____ .. ____ . 
 72
65
 73
6
 40
33.0
 49
24.0
 74
0
 49
-3.0
 74
0
 49
0.0
 74
0
 49
-3.0
 74
0
 49
0.0
 74
0
 49
-3.0
 74
0
  0
LTYPE
  5
33
100
AcDbSymbolTableRecord
100
AcDbLinetypeTableRecord
  2
HIDDEN
 70
0
  3
Hidden __ __ __ __ __ __ __ __ __ __ __ __ __ __
 72
65
 73
2
 40
9.5249999999999986
 49
6.3499999999999996
 74
0
 49
-3.1749999999999998
 74
0
  0
LTYPE
  5
34
100
AcDbSymbolTableRecord
100
AcDbLinetypeTableRecord
  2
DASHEDX2
 70
0
  3
Dashed (2x) ____  ____  ____  ____  ____  ___
 72
65
 73
2
 40
38.0999999999999943
 49
25.3999999999999986
 74
0
 49
-12.6999999999999993
 74
0
  0
LTYPE
  5
35
100
AcDbSymbolTableRecord
100
AcDbLinetypeTableRecord
  2
ACAD_ISO02W100
 70
0
  3
ISO dash __ __ __ __ __ __ __ __ __ __ __ __ __
 72
65
 73
2
 40
15.0
 49
12.0
 74
0
 49
-3.0
 74
0
  0
LTYPE
  5
36
100
AcDbSymbolTableRecord
100
AcDbLinetypeTableRecord
  2
CENTER2
 70
0
  3
Center (.5x) ___ _ ___ _ ___ _ ___ _ ___ _ ___
 72
65
 73
4
 40
28.5750000000000028
 49
19.0500000000000007
 74
0
 49
-3.1749999999999998
 74
0
 49
3.1749999999999998
 74
0
 49
-3.1749999999999998
 74
0
  0
LTYPE
  5
37
100
AcDbSymbolTableRecord
100
AcDbLinetypeTableRecord
  2
ACAD_ISO09W100
 70
0
  3
ISO long-dash double-short-dash ____ __ __ ____
 72
65
 73
6
 40
45.0
 49
24.0
 74
0
 49
-3.0
 74
0
 49
6.0
 74
0
 49
-3.0
 74
0
 49
6.0
 74
0
 49
-3.0
 74
0
  0
LTYPE
  5
38
100
AcDbSymbolTableRecord
100
AcDbLinetypeTableRecord
  2
DASHED2
 70
0
  3
Dashed (.5x) _ _ _ _ _ _ _ _ _ _ _ _ _ _ _ _ _ 
 72
65
 73
2
 40
9.5249999999999986
 49
6.3499999999999996
 74
0
 49
-3.1749999999999998
 74
0
  0
LTYPE
  5
39
100
AcDbSymbolTableRecord
100
AcDbLinetypeTableRecord
  2
ACAD_ISO11W100
 70
0
  3
ISO double-dash dot __ __ . __ __ . __ __ . __ _
 72
65
 73
6
 40
33.0
 49
12.0
 74
0
 49
-3.0
 74
0
 49
12.0
 74
0
 49
-3.0
 74
0
 49
0.0
 74
0
 49
-3.0
 74
0
  0
LTYPE
  5
3A
100
AcDbSymbolTableRecord
100
AcDbLinetypeTableRecord
  2
DOT2
 70
0
  3
Dot (.5x) ........................................
 72
65
 73
2
 40
3.1749999999999998
 49
0.0
 74
0
 49
-3.1749999999999998
 74
0
  0
LTYPE
  5
3B
100
AcDbSymbolTableRecord
100
AcDbLinetypeTableRecord
  2
PHANTOM2
 70
0
  3
Phantom (.5x) ___ _ _ ___ _ _ ___ _ _ ___ _ _
 72
65
 73
6
 40
31.7500000000000036
 49
15.875
 74
0
 49
-3.1749999999999998
 74
0
 49
3.1749999999999998
 74
0
 49
-3.1749999999999998
 74
0
 49
3.1749999999999998
 74
0
 49
-3.1749999999999998
 74
0
  0
LTYPE
  5
3C
100
AcDbSymbolTableRecord
100
AcDbLinetypeTableRecord
  2
ACAD_ISO04W100
 70
0
  3
ISO long-dash dot ____ . ____ . ____ . ____ . _
 72
65
 73
4
 40
30.0
 49
24.0
 74
0
 49
-3.0
 74
0
 49
0.0
 74
0
 49
-3.0
 74
0
  0
LTYPE
  5
3D
100
AcDbSymbolTableRecord
100
AcDbLinetypeTableRecord
  2
PHANTOMX2
 70
0
  3
Phantom (2x) ____________    ____    ____   _
 72
65
 73
6
 40
127.0000000000000142
 49
63.5
 74
0
 49
-12.6999999999999993
 74
0
 49
12.6999999999999993
 74
0
 49
-12.6999999999999993
 74
0
 49
12.6999999999999993
 74
0
 49
-12.6999999999999993
 74
0
  0
LTYPE
  5
3E
100
AcDbSymbolTableRecord
100
AcDbLinetypeTableRecord
  2
ACAD_ISO15W100
 70
0
  3
ISO double-dash triple-dot __ __ . . . __ __ . .
 72
65
 73
10
 40
39.0
 49
12.0
 74
0
 49
-3.0
 74
0
 49
12.0
 74
0
 49
-3.0
 74
0
 49
0.0
 74
0
 49
-3.0
 74
0
 49
0.0
 74
0
 49
-3.0
 74
0
 49
0.0
 74
0
 49
-3.0
 74
0
  0
LTYPE
  5
3F
100
AcDbSymbolTableRecord
100
AcDbLinetypeTableRecord
  2
DOT
 70
0
  3
Dot . . . . . . . . . . . . . . . . . . . . . . . .
 72
65
 73
2
 40
6.3499999999999996
 49
0.0
 74
0
 49
-6.3499999999999996
 74
0
  0
LTYPE
  5
40
100
AcDbSymbolTableRecord
100
AcDbLinetypeTableRecord
  2
BORDER2
 70
0
  3
Border (.5x) __.__.__.__.__.__.__.__.__.__.__.
 72
65
 73
6
 40
22.2249999999999979
 49
6.3499999999999996
 74
0
 49
-3.1749999999999998
 74
0
 49
6.3499999999999996
 74
0
 49
-3.1749999999999998
 74
0
 49
0.0
 74
0
 49
-3.1749999999999998
 74
0
  0
LTYPE
  5
41
100
AcDbSymbolTableRecord
100
AcDbLinetypeTableRecord
  2
DASHED
 70
0
  3
Dashed __ __ __ __ __ __ __ __ __ __ __ __ __ _
 72
65
 73
2
 40
19.0499999999999972
 49
12.6999999999999993
 74
0
 49
-6.3499999999999996
 74
0
  0
LTYPE
  5
42
100
AcDbSymbolTableRecord
100
AcDbLinetypeTableRecord
  2
ACAD_ISO07W100
 70
0
  3
ISO dot . . . . . . . . . . . . . . . . . . . . 
 72
65
 73
2
 40
3.0
 49
0.0
 74
0
 49
-3.0
 74
0
  0
LTYPE
  5
43
100
AcDbSymbolTableRecord
100
AcDbLinetypeTableRecord
  2
DIVIDEX2
 70
0
  3
Divide (2x) ________  .  .  ________  .  .  _
 72
65
 73
6
 40
63.5
 49
25.3999999999999986
 74
0
 49
-12.6999999999999993
 74
0
 49
0.0
 74
0
 49
-12.6999999999999993
 74
0
 49
0.0
 74
0
 49
-12.6999999999999993
 74
0
  0
LTYPE
  5
44
100
AcDbSymbolTableRecord
100
AcDbLinetypeTableRecord
  2
BORDER
 70
0
  3
Border __ __ . __ __ . __ __ . __ __ . __ __ .
 72
65
 73
6
 40
44.4499999999999957
 49
12.6999999999999993
 74
0
 49
-6.3499999999999996
 74
0
 49
12.6999999999999993
 74
0
 49
-6.3499999999999996
 74
0
 49
0.0
 74
0
 49
-6.3499999999999996
 74
0
  0
LTYPE
  5
15
100
AcDbSymbolTableRecord
100
AcDbLinetypeTableRecord
  2
BYLAYER
 70
0
  3

 72
65
 73
0
 40
0.0
  0
LTYPE
  5
45
100
AcDbSymbolTableRecord
100
AcDbLinetypeTableRecord
  2
CENTER
 70
0
  3
Center ____ _ ____ _ ____ _ ____ _ ____ _ ____
 72
65
 73
4
 40
50.8000000000000043
 49
31.75
 74
0
 49
-6.3499999999999996
 74
0
 49
6.3499999999999996
 74
0
 49
-6.3499999999999996
 74
0
  0
LTYPE
  5
46
100
AcDbSymbolTableRecord
100
AcDbLinetypeTableRecord
  2
DASHDOT
 70
0
  3
Dash dot __ . __ . __ . __ . __ . __ . __ . __
 72
65
 73
4
 40
25.3999999999999986
 49
12.6999999999999993
 74
0
 49
-6.3499999999999996
 74
0
 49
0.0
 74
0
 49
-6.3499999999999996
 74
0
  0
LTYPE
  5
47
100
AcDbSymbolTableRecord
100
AcDbLinetypeTableRecord
  2
DIVIDE2
 70
0
  3
Divide (.5x) __..__..__..__..__..__..__..__.._
 72
65
 73
6
 40
15.875
 49
6.3499999999999996
 74
0
 49
-3.1749999999999998
 74
0
 49
0.0
 74
0
 49
-3.1749999999999998
 74
0
 49
0.0
 74
0
 49
-3.1749999999999998
 74
0
  0
LTYPE
  5
48
100
AcDbSymbolTableRecord
100
AcDbLinetypeTableRecord
  2
DASHDOTX2
 70
0
  3
Dash dot (2x) ____  .  ____  .  ____  .  ___
 72
65
 73
4
 40
50.7999999999999972
 49
25.3999999999999986
 74
0
 49
-12.6999999999999993
 74
0
 49
0.0
 74
0
 49
-12.6999999999999993
 74
0
  0
LTYPE
  5
49
100
AcDbSymbolTableRecord
100
AcDbLinetypeTableRecord
  2
ACAD_ISO03W100
 70
0
  3
ISO dash space __    __    __    __    __    __
 72
65
 73
2
 40
30.0
 49
12.0
 74
0
 49
-18.0
 74
0
  0
LTYPE
  5
4A
100
AcDbSymbolTableRecord
100
AcDbLinetypeTableRecord
  2
CENTERX2
 70
0
  3
Center (2x) ________  __  ________  __  _____
 72
65
 73
4
 40
101.6000000000000085
 49
63.5
 74
0
 49
-12.6999999999999993
 74
0
 49
12.6999999999999993
 74
0
 49
-12.6999999999999993
 74
0
  0
LTYPE
  5
4B
100
AcDbSymbolTableRecord
100
AcDbLinetypeTableRecord
  2
DIVIDE
 70
0
  3
Divide ____ . . ____ . . ____ . . ____ . . ____
 72
65
 73
6
 40
31.75
 49
12.6999999999999993
 74
0
 49
-6.3499999999999996
 74
0
 49
0.0
 74
0
 49
-6.3499999999999996
 74
0
 49
0.0
 74
0
 49
-6.3499999999999996
 74
0
  0
LTYPE
  5
4C
100
AcDbSymbolTableRecord
100
AcDbLinetypeTableRecord
  2
BORDERX2
 70
0
  3
Border (2x) ____  ____  .  ____  ____  .  ___
 72
65
 73
6
 40
88.8999999999999915
 49
25.3999999999999986
 74
0
 49
-12.6999999999999993
 74
0
 49
25.3999999999999986
 74
0
 49
-12.6999999999999993
 74
0
 49
0.0
 74
0
 49
-12.6999999999999993
 74
0
  0
LTYPE
  5
4D
100
AcDbSymbolTableRecord
100
AcDbLinetypeTableRecord
  2
HIDDENX2
 70
0
  3
Hidden (2x) ____ ____ ____ ____ ____ ____ ____ 
 72
65
 73
2
 40
19.0499999999999972
 49
12.6999999999999993
 74
0
 49
-6.3499999999999996
 74
0
  0
LTYPE
  5
4E
100
AcDbSymbolTableRecord
100
AcDbLinetypeTableRecord
  2
ACAD_ISO13W100
 70
0
  3
ISO double-dash double-dot __ __ . . __ __ . . _
 72
65
 73
8
 40
36.0
 49
12.0
 74
0
 49
-3.0
 74
0
 49
12.0
 74
0
 49
-3.0
 74
0
 49
0.0
 74
0
 49
-3.0
 74
0
 49
0.0
 74
0
 49
-3.0
 74
0
  0
LTYPE
  5
14
100
AcDbSymbolTableRecord
100
AcDbLinetypeTableRecord
  2
BYBLOCK
 70
0
  3

 72
65
 73
0
 40
0.0
  0
LTYPE
  5
4F
100
AcDbSymbolTableRecord
100
AcDbLinetypeTableRecord
  2
DOTX2
 70
0
  3
Dot (2x) .  .  .  .  .  .  .  .  .  .  .  .  .  .
 72
65
 73
2
 40
12.6999999999999993
 49
0.0
 74
0
 49
-12.6999999999999993
 74
0
  0
LTYPE
  5
50
100
AcDbSymbolTableRecord
100
AcDbLinetypeTableRecord
  2
HIDDEN2
 70
0
  3
Hidden (.5x) _ _ _ _ _ _ _ _ _ _ _ _ _ _ _ _ _ 
 72
65
 73
2
 40
4.7624999999999993
 49
3.1749999999999998
 74
0
 49
-1.5874999999999999
 74
0
  0
LTYPE
  5
51
100
AcDbSymbolTableRecord
100
AcDbLinetypeTableRecord
  2
ACAD_ISO08W100
 70
0
  3
ISO long-dash short-dash ____ __ ____ __ ____ _
 72
65
 73
4
 40
36.0
 49
24.0
 74
0
 49
-3.0
 74
0
 49
6.0
 74
0
 49
-3.0
 74
0
  0
LTYPE
  5
52
100
AcDbSymbolTableRecord
100
AcDbLinetypeTableRecord
  2
ACAD_ISO12W100
 70
0
  3
ISO dash double-dot __ . . __ . . __ . . __ . . 
 72
65
 73
6
 40
21.0
 49
12.0
 74
0
 49
-3.0
 74
0
 49
0.0
 74
0
 49
-3.0
 74
0
 49
0.0
 74
0
 49
-3.0
 74
0
  0
LTYPE
  5
53
100
AcDbSymbolTableRecord
100
AcDbLinetypeTableRecord
  2
ACAD_ISO06W100
 70
0
  3
ISO long-dash triple-dot ____ ... ____ ... ____
 72
65
 73
8
 40
36.0
 49
24.0
 74
0
 49
-3.0
 74
0
 49
0.0
 74
0
 49
-3.0
 74
0
 49
0.0
 74
0
 49
-3.0
 74
0
 49
0.0
 74
0
 49
-3.0
 74
0
  0
LTYPE
  5
54
100
AcDbSymbolTableRecord
100
AcDbLinetypeTableRecord
  2
DASHDOT2
 70
0
  3
Dash dot (.5x) _._._._._._._._._._._._._._._.
 72
65
 73
4
 40
12.6999999999999993
 49
6.3499999999999996
 74
0
 49
-3.1749999999999998
 74
0
 49
0.0
 74
0
 49
-3.1749999999999998
 74
0
  0
LTYPE
  5
55
100
AcDbSymbolTableRecord
100
AcDbLinetypeTableRecord
  2
ACAD_ISO14W100
 70
0
  3
ISO dash triple-dot __ . . . __ . . . __ . . . _
 72
65
 73
8
 40
24.0
 49
12.0
 74
0
 49
-3.0
 74
0
 49
0.0
 74
0
 49
-3.0
 74
0
 49
0.0
 74
0
 49
-3.0
 74
0
 49
0.0
 74
0
 49
-3.0
 74
0
  0
LTYPE
  5
56
100
AcDbSymbolTableRecord
100
AcDbLinetypeTableRecord
  2
ACAD_ISO10W100
 70
0
  3
ISO dash dot __ . __ . __ . __ . __ . __ . __ . 
 72
65
 73
4
 40
18.0
 49
12.0
 74
0
 49
-3.0
 74
0
 49
0.0
 74
0
 49
-3.0
 74
0
  0
ENDTAB
  0
TABLE
  2
LAYER
  5
2
100
AcDbSymbolTable
 70
1
  0
LAYER
  5
10
100
AcDbSymbolTableRecord
100
AcDbLayerTableRecord
  2
0
 70
0
 62
7
420
16777215
  6
Continuous
370
25
390
F
  0
ENDTAB
  0
TABLE
  2
STYLE
  5
3
100
AcDbSymbolTable
 70
1
  0
STYLE
  5
57
100
AcDbSymbolTableRecord
100
AcDbTextStyleTableRecord
  2
Standard
 70
0
 40
0.0
 41
1.0
 50
0.0
 71
0
 42
2.5
  3

  4

1001
ACAD
1000
txt
1071
0
  0
ENDTAB
  0
TABLE
  2
VIEW
  5
6
100
AcDbSymbolTable
 70
0
  0
ENDTAB
  0
TABLE
  2
UCS
  5
7
100
AcDbSymbolTable
 70
0
  0
ENDTAB
  0
TABLE
  2
APPID
  5
9
100
AcDbSymbolTable
 70
1
  0
APPID
  5
12
100
AcDbSymbolTableRecord
100
AcDbRegAppTableRecord
  2
ACAD
 70
0
  0
APPID
  5
58
100
AcDbSymbolTableRecord
100
AcDbRegAppTableRecord
  2
QCAD
 70
0
  0
ENDTAB
  0
TABLE
  2
DIMSTYLE
  5
A
100
AcDbSymbolTable
 70
1
100
AcDbDimStyleTable
 71
0
  0
DIMSTYLE
105
27
100
AcDbSymbolTableRecord
100
AcDbDimStyleTableRecord
  2
Standard
 41
0.125
 42
0.03125
 43
3.75
 44
0.0625
 70
0
 73
0
 74
0
 77
1
 78
8
140
0.125
141
2.5
143
0.03937007874016
147
0.03125
171
3
172
1
271
2
272
2
274
3
278
44
283
0
284
8
340
57
  0
ENDTAB
  0
TABLE
  2
BLOCK_RECORD
  5
1
100
AcDbSymbolTable
 70
1
  0
BLOCK_RECORD
  5
1F
100
AcDbSymbolTableRecord
100
AcDbBlockTableRecord
  2
*Model_Space
340
22
  0
BLOCK_RECORD
  5
1B
100
AcDbSymbolTableRecord
100
AcDbBlockTableRecord
  2
*Paper_Space
340
1E
  0
BLOCK_RECORD
  5
23
100
AcDbSymbolTableRecord
100
AcDbBlockTableRecord
  2
*Paper_Space0
340
26
  0
ENDTAB
  0
ENDSEC
  0
SECTION
  2
BLOCKS
  0
BLOCK
  5
20
100
AcDbEntity
  8
0
100
AcDbBlockBegin
  2
*Model_Space
 70
0
 10
0.0
 20
0.0
 30
0.0
  3
*Model_Space
  1

  0
ENDBLK
  5
21
100
AcDbEntity
  8
0
100
AcDbBlockEnd
  0
BLOCK
  5
1C
100
AcDbEntity
 67
1
  8
0
100
AcDbBlockBegin
  2
*Paper_Space
 70
0
 10
0.0
 20
0.0
 30
0.0
  3
*Paper_Space
  1

  0
ENDBLK
  5
1D
100
AcDbEntity
 67
1
  8
0
100
AcDbBlockEnd
  0
BLOCK
  5
24
100
AcDbEntity
  8
0
100
AcDbBlockBegin
  2
*Paper_Space0
 70
0
 10
0.0
 20
0.0
 30
0.0
  3
*Paper_Space0
  1

  0
ENDBLK
  5
25
100
AcDbEntity
  8
0
100
AcDbBlockEnd
  0
ENDSEC
  0
SECTION
  2
ENTITIES
  0
LINE
  5
59
100
AcDbEntity
  8
0
 62
0
370
-1
 48
1.0
  6
BYLAYER
100
AcDbLine
 10
326.3250199999997676
 20
112.250831000000062
 30
0.0
 11
326.7180199999997967
 21
112.2358309999999619
 31
0.0
  0
LINE
  5
5A
100
AcDbEntity
  8
0
 62
0
370
-1
 48
1.0
  6
BYLAYER
100
AcDbLine
 10
326.7180199999997967
 20
112.2358309999999619
 30
0.0
 11
327.1080200000001241
 21
112.1888309999999365
 31
0.0
  0
LINE
  5
5B
100
AcDbEntity
  8
0
 62
0
370
-1
 48
1.0
  6
BYLAYER
100
AcDbLine
 10
327.1080200000001241
 20
112.1888309999999365
 30
0.0
 11
327.4930199999998877
 21
112.1128309999999146
 31
0.0
  0
LINE
  5
5C
100
AcDbEntity
  8
0
 62
0
370
-1
 48
1.0
  6
BYLAYER
100
AcDbLine
 10
327.4930199999998877
 20
112.1128309999999146
 30
0.0
 11
327.8700199999998404
 21
112.0068310000001475
 31
0.0
  0
LINE
  5
5D
100
AcDbEntity
  8
0
 62
0
370
-1
 48
1.0
  6
BYLAYER
100
AcDbLine
 10
327.8700199999998404
 20
112.0068310000001475
 30
0.0
 11
328.2380199999997785
 21
111.8708309999999528
 31
0.0
  0
LINE
  5
5E
100
AcDbEntity
  8
0
 62
0
370
-1
 48
1.0
  6
BYLAYER
100
AcDbLine
 10
328.2380199999997785
 20
111.8708309999999528
 30
0.0
 11
328.5950199999997494
 21
111.7068309999999656
 31
0.0
  0
LINE
  5
5F
100
AcDbEntity
  8
0
 62
0
370
-1
 48
1.0
  6
BYLAYER
100
AcDbLine
 10
328.5950199999997494
 20
111.7068309999999656
 30
0.0
 11
328.9380200000000514
 21
111.5148309999999583
 31
0.0
  0
LINE
  5
60
100
AcDbEntity
  8
0
 62
0
370
-1
 48
1.0
  6
BYLAYER
100
AcDbLine
 10
328.9380200000000514
 20
111.5148309999999583
 30
0.0
 11
329.2630199999998695
 21
111.2958310000001347
 31
0.0
  0
LINE
  5
61
100
AcDbEntity
  8
0
 62
0
370
-1
 48
1.0
  6
BYLAYER
100
AcDbLine
 10
329.2630199999998695
 20
111.2958310000001347
 30
0.0
 11
329.5720200000000659
 21
111.0538309999999456
 31
0.0
  0
LINE
  5
62
100
AcDbEntity
  8
0
 62
0
370
-1
 48
1.0
  6
BYLAYER
100
AcDbLine
 10
329.5720200000000659
 20
111.0538309999999456
 30
0.0
 11
329.8600200000000768
 21
110.7858310000001438
 31
0.0
  0
LINE
  5
63
100
AcDbEntity
  8
0
 62
0
370
-1
 48
1.0
  6
BYLAYER
100
AcDbLine
 10
329.8600200000000768
 20
110.7858310000001438
 30
0.0
 11
330.1270199999999022
 21
110.4978310000001329
 31
0.0
  0
LINE
  5
64
100
AcDbEntity
  8
0
 62
0
370
-1
 48
1.0
  6
BYLAYER
100
AcDbLine
 10
330.1270199999999022
 20
110.4978310000001329
 30
0.0
 11
330.3700199999998404
 21
110.1898310000001402
 31
0.0
  0
LINE
  5
65
100
AcDbEntity
  8
0
 62
0
370
-1
 48
1.0
  6
BYLAYER
100
AcDbLine
 10
330.3700199999998404
 20
110.1898310000001402
 30
0.0
 11
330.5890199999998913
 21
109.8638310000001184
 31
0.0
  0
LINE
  5
66
100
AcDbEntity
  8
0
 62
0
370
-1
 48
1.0
  6
BYLAYER
100
AcDbLine
 10
330.5890199999998913
 20
109.8638310000001184
 30
0.0
 11
330.7810199999998986
 21
109.5208310000000438
 31
0.0
  0
LINE
  5
67
100
AcDbEntity
  8
0
 62
0
370
-1
 48
1.0
  6
BYLAYER
100
AcDbLine
 10
330.7810199999998986
 20
109.5208310000000438
 30
0.0
 11
330.9450200000001132
 21
109.1638310000000729
 31
0.0
  0
LINE
  5
68
100
AcDbEntity
  8
0
 62
0
370
-1
 48
1.0
  6
BYLAYER
100
AcDbLine
 10
330.9450200000001132
 20
109.1638310000000729
 30
0.0
 11
331.0810200000000805
 21
108.7958310000001347
 31
0.0
  0
LINE
  5
69
100
AcDbEntity
  8
0
 62
0
370
-1
 48
1.0
  6
BYLAYER
100
AcDbLine
 10
331.0810200000000805
 20
108.7958310000001347
 30
0.0
 11
331.1870199999998476
 21
108.4188309999999547
 31
0.0
  0
LINE
  5
6A
100
AcDbEntity
  8
0
 62
0
370
-1
 48
1.0
  6
BYLAYER
100
AcDbLine
 10
331.1870199999998476
 20
108.4188309999999547
 30
0.0
 11
331.2630199999998695
 21
108.0338309999999638
 31
0.0
  0
LINE
  5
6B
100
AcDbEntity
  8
0
 62
0
370
-1
 48
1.0
  6
BYLAYER
100
AcDbLine
 10
331.2630199999998695
 20
108.0338309999999638
 30
0.0
 11
331.3100199999998949
 21
107.6438310000000911
 31
0.0
  0
LINE
  5
6C
100
AcDbEntity
  8
0
 62
0
370
-1
 48
1.0
  6
BYLAYER
100
AcDbLine
 10
331.3100199999998949
 20
107.6438310000000911
 30
0.0
 11
331.3250199999997676
 21
107.2498310000000856
 31
0.0
  0
LINE
  5
6D
100
AcDbEntity
  8
0
 62
0
370
-1
 48
1.0
  6
BYLAYER
100
AcDbLine
 10
331.3250199999997676
 20
107.2498310000000856
 30
0.0
 11
331.3250199999997676
 21
5.0008810000000494
 31
0.0
  0
LINE
  5
6E
100
AcDbEntity
  8
0
 62
0
370
-1
 48
1.0
  6
BYLAYER
100
AcDbLine
 10
331.3250199999997676
 20
5.0008810000000494
 30
0.0
 11
331.3100199999998949
 21
4.6068010000000186
 31
0.0
  0
LINE
  5
6F
100
AcDbEntity
  8
0
 62
0
370
-1
 48
1.0
  6
BYLAYER
100
AcDbLine
 10
331.3100199999998949
 20
4.6068010000000186
 30
0.0
 11
331.2630199999998695
 21
4.2168010000000322
 31
0.0
  0
LINE
  5
70
100
AcDbEntity
  8
0
 62
0
370
-1
 48
1.0
  6
BYLAYER
100
AcDbLine
 10
331.2630199999998695
 20
4.2168010000000322
 30
0.0
 11
331.1870199999998476
 21
3.8323110000000042
 31
0.0
  0
LINE
  5
71
100
AcDbEntity
  8
0
 62
0
370
-1
 48
1.0
  6
BYLAYER
100
AcDbLine
 10
331.1870199999998476
 20
3.8323110000000042
 30
0.0
 11
331.0810200000000805
 21
3.454731000000038
 31
0.0
  0
LINE
  5
72
100
AcDbEntity
  8
0
 62
0
370
-1
 48
1.0
  6
BYLAYER
100
AcDbLine
 10
331.0810200000000805
 20
3.454731000000038
 30
0.0
 11
330.9450200000001132
 21
3.0868010000000368
 31
0.0
  0
LINE
  5
73
100
AcDbEntity
  8
0
 62
0
370
-1
 48
1.0
  6
BYLAYER
100
AcDbLine
 10
330.9450200000001132
 20
3.0868010000000368
 30
0.0
 11
330.7810199999998986
 21
2.729891000000066
 31
0.0
  0
LINE
  5
74
100
AcDbEntity
  8
0
 62
0
370
-1
 48
1.0
  6
BYLAYER
100
AcDbLine
 10
330.7810199999998986
 20
2.729891000000066
 30
0.0
 11
330.5890199999998913
 21
2.3881410000000187
 31
0.0
  0
LINE
  5
75
100
AcDbEntity
  8
0
 62
0
370
-1
 48
1.0
  6
BYLAYER
100
AcDbLine
 10
330.5890199999998913
 20
2.3881410000000187
 30
0.0
 11
330.3700199999998404
 21
2.0615410000000338
 31
0.0
  0
LINE
  5
76
100
AcDbEntity
  8
0
 62
0
370
-1
 48
1.0
  6
BYLAYER
100
AcDbLine
 10
330.3700199999998404
 20
2.0615410000000338
 30
0.0
 11
330.1270199999999022
 21
1.7528610000000526
 31
0.0
  0
LINE
  5
77
100
AcDbEntity
  8
0
 62
0
370
-1
 48
1.0
  6
BYLAYER
100
AcDbLine
 10
330.1270199999999022
 20
1.7528610000000526
 30
0.0
 11
329.8600200000000768
 21
1.4648610000000417
 31
0.0
  0
LINE
  5
78
100
AcDbEntity
  8
0
 62
0
370
-1
 48
1.0
  6
BYLAYER
100
AcDbLine
 10
329.8600200000000768
 20
1.4648610000000417
 30
0.0
 11
329.5720200000000659
 21
1.1975110000000768
 31
0.0
  0
LINE
  5
79
100
AcDbEntity
  8
0
 62
0
370
-1
 48
1.0
  6
BYLAYER
100
AcDbLine
 10
329.5720200000000659
 20
1.1975110000000768
 30
0.0
 11
329.2630199999998695
 21
0.9549809999999752
 31
0.0
  0
LINE
  5
7A
100
AcDbEntity
  8
0
 62
0
370
-1
 48
1.0
  6
BYLAYER
100
AcDbLine
 10
329.2630199999998695
 20
0.9549809999999752
 30
0.0
 11
328.9380200000000514
 21
0.7358730000000833
 31
0.0
  0
LINE
  5
7B
100
AcDbEntity
  8
0
 62
0
370
-1
 48
1.0
  6
BYLAYER
100
AcDbLine
 10
328.9380200000000514
 20
0.7358730000000833
 30
0.0
 11
328.5950199999997494
 21
0.5443250000000717
 31
0.0
  0
LINE
  5
7C
100
AcDbEntity
  8
0
 62
0
370
-1
 48
1.0
  6
BYLAYER
100
AcDbLine
 10
328.5950199999997494
 20
0.5443250000000717
 30
0.0
 11
328.2380199999997785
 21
0.3803400000000465
 31
0.0
  0
LINE
  5
7D
100
AcDbEntity
  8
0
 62
0
370
-1
 48
1.0
  6
BYLAYER
100
AcDbLine
 10
328.2380199999997785
 20
0.3803400000000465
 30
0.0
 11
327.8700199999998404
 21
0.2439130000000205
 31
0.0
  0
LINE
  5
7E
100
AcDbEntity
  8
0
 62
0
370
-1
 48
1.0
  6
BYLAYER
100
AcDbLine
 10
327.8700199999998404
 20
0.2439130000000205
 30
0.0
 11
327.4930199999998877
 21
0.1378040000000738
 31
0.0
  0
LINE
  5
7F
100
AcDbEntity
  8
0
 62
0
370
-1
 48
1.0
  6
BYLAYER
100
AcDbLine
 10
327.4930199999998877
 20
0.1378040000000738
 30
0.0
 11
327.1080200000001241
 21
0.0620119999999815
 31
0.0
  0
LINE
  5
80
100
AcDbEntity
  8
0
 62
0
370
-1
 48
1.0
  6
BYLAYER
100
AcDbLine
 10
327.1080200000001241
 20
0.0620119999999815
 30
0.0
 11
326.7180199999997967
 21
0.0151590000000397
 31
0.0
  0
LINE
  5
81
100
AcDbEntity
  8
0
 62
0
370
-1
 48
1.0
  6
BYLAYER
100
AcDbLine
 10
326.7180199999997967
 20
0.0151590000000397
 30
0.0
 11
326.3250199999997676
 21
0.0
 31
0.0
  0
LINE
  5
82
100
AcDbEntity
  8
0
 62
0
370
-1
 48
1.0
  6
BYLAYER
100
AcDbLine
 10
326.3250199999997676
 20
0.0
 30
0.0
 11
5.0
 21
0.0
 31
0.0
  0
LINE
  5
83
100
AcDbEntity
  8
0
 62
0
370
-1
 48
1.0
  6
BYLAYER
100
AcDbLine
 10
5.0
 20
0.0
 30
0.0
 11
4.6058800000000701
 21
0.0151590000000397
 31
0.0
  0
LINE
  5
84
100
AcDbEntity
  8
0
 62
0
370
-1
 48
1.0
  6
BYLAYER
100
AcDbLine
 10
4.6058800000000701
 20
0.0151590000000397
 30
0.0
 11
4.2159200000000965
 21
0.0620119999999815
 31
0.0
  0
LINE
  5
85
100
AcDbEntity
  8
0
 62
0
370
-1
 48
1.0
  6
BYLAYER
100
AcDbLine
 10
4.2159200000000965
 20
0.0620119999999815
 30
0.0
 11
3.8314199999999801
 21
0.1378040000000738
 31
0.0
  0
LINE
  5
86
100
AcDbEntity
  8
0
 62
0
370
-1
 48
1.0
  6
BYLAYER
100
AcDbLine
 10
3.8314199999999801
 20
0.1378040000000738
 30
0.0
 11
3.4538499999998749
 21
0.2439130000000205
 31
0.0
  0
LINE
  5
87
100
AcDbEntity
  8
0
 62
0
370
-1
 48
1.0
  6
BYLAYER
100
AcDbLine
 10
3.4538499999998749
 20
0.2439130000000205
 30
0.0
 11
3.0859099999997852
 21
0.3803400000000465
 31
0.0
  0
LINE
  5
88
100
AcDbEntity
  8
0
 62
0
370
-1
 48
1.0
  6
BYLAYER
100
AcDbLine
 10
3.0859099999997852
 20
0.3803400000000465
 30
0.0
 11
2.7289999999998145
 21
0.5443250000000717
 31
0.0
  0
LINE
  5
89
100
AcDbEntity
  8
0
 62
0
370
-1
 48
1.0
  6
BYLAYER
100
AcDbLine
 10
2.7289999999998145
 20
0.5443250000000717
 30
0.0
 11
2.3858700000000681
 21
0.7358730000000833
 31
0.0
  0
LINE
  5
8A
100
AcDbEntity
  8
0
 62
0
370
-1
 48
1.0
  6
BYLAYER
100
AcDbLine
 10
2.3858700000000681
 20
0.7358730000000833
 30
0.0
 11
2.060649999999896
 21
0.9549809999999752
 31
0.0
  0
LINE
  5
8B
100
AcDbEntity
  8
0
 62
0
370
-1
 48
1.0
  6
BYLAYER
100
AcDbLine
 10
2.060649999999896
 20
0.9549809999999752
 30
0.0
 11
1.7519699999998011
 21
1.1975110000000768
 31
0.0
  0
LINE
  5
8C
100
AcDbEntity
  8
0
 62
0
370
-1
 48
1.0
  6
BYLAYER
100
AcDbLine
 10
1.7519699999998011
 20
1.1975110000000768
 30
0.0
 11
1.4639600000000428
 21
1.4648610000000417
 31
0.0
  0
LINE
  5
8D
100
AcDbEntity
  8
0
 62
0
370
-1
 48
1.0
  6
BYLAYER
100
AcDbLine
 10
1.4639600000000428
 20
1.4648610000000417
 30
0.0
 11
1.1966200000001663
 21
1.7528610000000526
 31
0.0
  0
LINE
  5
8E
100
AcDbEntity
  8
0
 62
0
370
-1
 48
1.0
  6
BYLAYER
100
AcDbLine
 10
1.1966200000001663
 20
1.7528610000000526
 30
0.0
 11
0.9540799999999763
 21
2.0615410000000338
 31
0.0
  0
LINE
  5
8F
100
AcDbEntity
  8
0
 62
0
370
-1
 48
1.0
  6
BYLAYER
100
AcDbLine
 10
0.9540799999999763
 20
2.0615410000000338
 30
0.0
 11
0.7349770000000717
 21
2.3881410000000187
 31
0.0
  0
LINE
  5
90
100
AcDbEntity
  8
0
 62
0
370
-1
 48
1.0
  6
BYLAYER
100
AcDbLine
 10
0.7349770000000717
 20
2.3881410000000187
 30
0.0
 11
0.5434300000001713
 21
2.729891000000066
 31
0.0
  0
LINE
  5
91
100
AcDbEntity
  8
0
 62
0
370
-1
 48
1.0
  6
BYLAYER
100
AcDbLine
 10
0.5434300000001713
 20
2.729891000000066
 30
0.0
 11
0.3794440000001487
 21
3.0868010000000368
 31
0.0
  0
LINE
  5
92
100
AcDbEntity
  8
0
 62
0
370
-1
 48
1.0
  6
BYLAYER
100
AcDbLine
 10
0.3794440000001487
 20
3.0868010000000368
 30
0.0
 11
0.2430180000001201
 21
3.454731000000038
 31
0.0
  0
LINE
  5
93
100
AcDbEntity
  8
0
 62
0
370
-1
 48
1.0
  6
BYLAYER
100
AcDbLine
 10
0.2430180000001201
 20
3.454731000000038
 30
0.0
 11
0.1369079999999485
 21
3.8323110000000042
 31
0.0
  0
LINE
  5
94
100
AcDbEntity
  8
0
 62
0
370
-1
 48
1.0
  6
BYLAYER
100
AcDbLine
 10
0.1369079999999485
 20
3.8323110000000042
 30
0.0
 11
0.0611169999997401
 21
4.2168010000000322
 31
0.0
  0
LINE
  5
95
100
AcDbEntity
  8
0
 62
0
370
-1
 48
1.0
  6
BYLAYER
100
AcDbLine
 10
0.0611169999997401
 20
4.2168010000000322
 30
0.0
 11
0.0142630000000281
 21
4.6068010000000186
 31
0.0
  0
LINE
  5
96
100
AcDbEntity
  8
0
 62
0
370
-1
 48
1.0
  6
BYLAYER
100
AcDbLine
 10
0.0142630000000281
 20
4.6068010000000186
 30
0.0
 11
-0.0008953999999903
 21
5.0008810000000494
 31
0.0
  0
LINE
  5
97
100
AcDbEntity
  8
0
 62
0
370
-1
 48
1.0
  6
BYLAYER
100
AcDbLine
 10
-0.0008953999999903
 20
5.0008810000000494
 30
0.0
 11
-0.0008953999999903
 21
107.2498310000000856
 31
0.0
  0
LINE
  5
98
100
AcDbEntity
  8
0
 62
0
370
-1
 48
1.0
  6
BYLAYER
100
AcDbLine
 10
-0.0008953999999903
 20
107.2498310000000856
 30
0.0
 11
0.0142630000000281
 21
107.6438310000000911
 31
0.0
  0
LINE
  5
99
100
AcDbEntity
  8
0
 62
0
370
-1
 48
1.0
  6
BYLAYER
100
AcDbLine
 10
0.0142630000000281
 20
107.6438310000000911
 30
0.0
 11
0.0611169999997401
 21
108.0338309999999638
 31
0.0
  0
LINE
  5
9A
100
AcDbEntity
  8
0
 62
0
370
-1
 48
1.0
  6
BYLAYER
100
AcDbLine
 10
0.0611169999997401
 20
108.0338309999999638
 30
0.0
 11
0.1369079999999485
 21
108.4188309999999547
 31
0.0
  0
LINE
  5
9B
100
AcDbEntity
  8
0
 62
0
370
-1
 48
1.0
  6
BYLAYER
100
AcDbLine
 10
0.1369079999999485
 20
108.4188309999999547
 30
0.0
 11
0.2430180000001201
 21
108.7958310000001347
 31
0.0
  0
LINE
  5
9C
100
AcDbEntity
  8
0
 62
0
370
-1
 48
1.0
  6
BYLAYER
100
AcDbLine
 10
0.2430180000001201
 20
108.7958310000001347
 30
0.0
 11
0.3794440000001487
 21
109.1638310000000729
 31
0.0
  0
LINE
  5
9D
100
AcDbEntity
  8
0
 62
0
370
-1
 48
1.0
  6
BYLAYER
100
AcDbLine
 10
0.3794440000001487
 20
109.1638310000000729
 30
0.0
 11
0.5434300000001713
 21
109.5208310000000438
 31
0.0
  0
LINE
  5
9E
100
AcDbEntity
  8
0
 62
0
370
-1
 48
1.0
  6
BYLAYER
100
AcDbLine
 10
0.5434300000001713
 20
109.5208310000000438
 30
0.0
 11
0.7349770000000717
 21
109.8638310000001184
 31
0.0
  0
LINE
  5
9F
100
AcDbEntity
  8
0
 62
0
370
-1
 48
1.0
  6
BYLAYER
100
AcDbLine
 10
0.7349770000000717
 20
109.8638310000001184
 30
0.0
 11
0.9540799999999763
 21
110.1898310000001402
 31
0.0
  0
LINE
  5
A0
100
AcDbEntity
  8
0
 62
0
370
-1
 48
1.0
  6
BYLAYER
100
AcDbLine
 10
0.9540799999999763
 20
110.1898310000001402
 30
0.0
 11
1.1966200000001663
 21
110.4978310000001329
 31
0.0
  0
LINE
  5
A1
100
AcDbEntity
  8
0
 62
0
370
-1
 48
1.0
  6
BYLAYER
100
AcDbLine
 10
1.1966200000001663
 20
110.4978310000001329
 30
0.0
 11
1.4639600000000428
 21
110.7858310000001438
 31
0.0
  0
LINE
  5
A2
100
AcDbEntity
  8
0
 62
0
370
-1
 48
1.0
  6
BYLAYER
100
AcDbLine
 10
1.4639600000000428
 20
110.7858310000001438
 30
0.0
 11
1.7519699999998011
 21
111.0538309999999456
 31
0.0
  0
LINE
  5
A3
100
AcDbEntity
  8
0
 62
0
370
-1
 48
1.0
  6
BYLAYER
100
AcDbLine
 10
1.7519699999998011
 20
111.0538309999999456
 30
0.0
 11
2.060649999999896
 21
111.2958310000001347
 31
0.0
  0
LINE
  5
A4
100
AcDbEntity
  8
0
 62
0
370
-1
 48
1.0
  6
BYLAYER
100
AcDbLine
 10
2.060649999999896
 20
111.2958310000001347
 30
0.0
 11
2.3858700000000681
 21
111.5148309999999583
 31
0.0
  0
LINE
  5
A5
100
AcDbEntity
  8
0
 62
0
370
-1
 48
1.0
  6
BYLAYER
100
AcDbLine
 10
2.3858700000000681
 20
111.5148309999999583
 30
0.0
 11
2.7289999999998145
 21
111.7068309999999656
 31
0.0
  0
LINE
  5
A6
100
AcDbEntity
  8
0
 62
0
370
-1
 48
1.0
  6
BYLAYER
100
AcDbLine
 10
2.7289999999998145
 20
111.7068309999999656
 30
0.0
 11
3.0859099999997852
 21
111.8708309999999528
 31
0.0
  0
LINE
  5
A7
100
AcDbEntity
  8
0
 62
0
370
-1
 48
1.0
  6
BYLAYER
100
AcDbLine
 10
3.0859099999997852
 20
111.8708309999999528
 30
0.0
 11
3.4538499999998749
 21
112.0068310000001475
 31
0.0
  0
LINE
  5
A8
100
AcDbEntity
  8
0
 62
0
370
-1
 48
1.0
  6
BYLAYER
100
AcDbLine
 10
3.4538499999998749
 20
112.0068310000001475
 30
0.0
 11
3.8314199999999801
 21
112.1128309999999146
 31
0.0
  0
LINE
  5
A9
100
AcDbEntity
  8
0
 62
0
370
-1
 48
1.0
  6
BYLAYER
100
AcDbLine
 10
3.8314199999999801
 20
112.1128309999999146
 30
0.0
 11
4.2159200000000965
 21
112.1888309999999365
 31
0.0
  0
LINE
  5
AA
100
AcDbEntity
  8
0
 62
0
370
-1
 48
1.0
  6
BYLAYER
100
AcDbLine
 10
4.2159200000000965
 20
112.1888309999999365
 30
0.0
 11
4.6058800000000701
 21
112.2358309999999619
 31
0.0
  0
LINE
  5
AB
100
AcDbEntity
  8
0
 62
0
370
-1
 48
1.0
  6
BYLAYER
100
AcDbLine
 10
4.6058800000000701
 20
112.2358309999999619
 30
0.0
 11
5.0
 21
112.250831000000062
 31
0.0
  0
LINE
  5
AC
100
AcDbEntity
  8
0
 62
0
370
-1
 48
1.0
  6
BYLAYER
100
AcDbLine
 10
5.0
 20
112.250831000000062
 30
0.0
 11
326.3250199999997676
 21
112.250831000000062
 31
0.0
  0
LINE
  5
AD
100
AcDbEntity
  8
0
 62
0
370
-1
 48
1.0
  6
BYLAYER
100
AcDbLine
 10
165.3442647932308773
 20
105.8718509813964488
 30
0.0
 11
165.0659147932308315
 21
105.7298909813965224
 31
0.0
  0
LINE
  5
AE
100
AcDbEntity
  8
0
 62
0
370
-1
 48
1.0
  6
BYLAYER
100
AcDbLine
 10
7.6440162684727966
 20
105.8607832098004451
 30
0.0
 11
7.3656662684726939
 21
105.7188232098005187
 31
0.0
  0
LINE
  5
AF
100
AcDbEntity
  8
0
 62
0
370
-1
 48
1.0
  6
BYLAYER
100
AcDbLine
 10
322.6926931415130184
 20
105.8652120301180162
 30
0.0
 11
322.4143431415129726
 21
105.7232520301180898
 31
0.0
  0
LINE
  5
B0
100
AcDbEntity
  8
0
 62
0
370
-1
 48
1.0
  6
BYLAYER
100
AcDbLine
 10
165.0659147932307178
 20
105.7298909813964087
 30
0.0
 11
164.8440547932306117
 21
105.5080309813963026
 31
0.0
  0
LINE
  5
B1
100
AcDbEntity
  8
0
 62
0
370
-1
 48
1.0
  6
BYLAYER
100
AcDbLine
 10
7.3656662684726939
 20
105.7188232098005187
 30
0.0
 11
7.1438062684725878
 21
105.4969632098004126
 31
0.0
  0
LINE
  5
B2
100
AcDbEntity
  8
0
 62
0
370
-1
 48
1.0
  6
BYLAYER
100
AcDbLine
 10
322.4143431415129726
 20
105.7232520301182035
 30
0.0
 11
322.1924831415128665
 21
105.5013920301180974
 31
0.0
  0
LINE
  5
B3
100
AcDbEntity
  8
0
 62
0
370
-1
 48
1.0
  6
BYLAYER
100
AcDbLine
 10
164.8440547932307254
 20
105.5080309813964163
 30
0.0
 11
164.7021147932307485
 21
105.2296509813964462
 31
0.0
  0
LINE
  5
B4
100
AcDbEntity
  8
0
 62
0
370
-1
 48
1.0
  6
BYLAYER
100
AcDbLine
 10
322.1924831415128665
 20
105.5013920301179837
 30
0.0
 11
322.0505431415128896
 21
105.2230120301180136
 31
0.0
  0
LINE
  5
B5
100
AcDbEntity
  8
0
 62
0
370
-1
 48
1.0
  6
BYLAYER
100
AcDbLine
 10
7.1438062684726447
 20
105.49696320980064
 30
0.0
 11
7.0018662684726678
 21
105.2185832098006699
 31
0.0
  0
LINE
  5
B6
100
AcDbEntity
  8
0
 62
0
370
-1
 48
1.0
  6
BYLAYER
100
AcDbLine
 10
164.7021147932306349
 20
105.2296509813963326
 30
0.0
 11
164.6525047932306052
 21
104.920970981396465
 31
0.0
  0
LINE
  5
B7
100
AcDbEntity
  8
0
 62
0
370
-1
 48
1.0
  6
BYLAYER
100
AcDbLine
 10
322.0505431415128896
 20
105.2230120301180136
 30
0.0
 11
322.0009331415128599
 21
104.9143320301181461
 31
0.0
  0
LINE
  5
B8
100
AcDbEntity
  8
0
 62
0
370
-1
 48
1.0
  6
BYLAYER
100
AcDbLine
 10
7.0018662684726678
 20
105.2185832098006699
 30
0.0
 11
6.9522562684726381
 21
104.9099032098008024
 31
0.0
  0
LINE
  5
B9
100
AcDbEntity
  8
0
 62
0
370
-1
 48
1.0
  6
BYLAYER
100
AcDbLine
 10
164.6525047932306052
 20
104.920970981396465
 30
0.0
 11
164.7021147932306349
 21
104.6109109813964437
 31
0.0
  0
LINE
  5
BA
100
AcDbEntity
  8
0
 62
0
370
-1
 48
1.0
  6
BYLAYER
100
AcDbLine
 10
6.9522562684725813
 20
104.9099032098006319
 30
0.0
 11
7.001866268472611
 21
104.5998432098006106
 31
0.0
  0
LINE
  5
BB
100
AcDbEntity
  8
0
 62
0
370
-1
 48
1.0
  6
BYLAYER
100
AcDbLine
 10
322.0009331415128599
 20
104.9143320301182598
 30
0.0
 11
322.0505431415128896
 21
104.6042720301182385
 31
0.0
  0
LINE
  5
BC
100
AcDbEntity
  8
0
 62
0
370
-1
 48
1.0
  6
BYLAYER
100
AcDbLine
 10
164.7021147932307485
 20
104.6109109813965574
 30
0.0
 11
164.8440547932307254
 21
104.3325709813964863
 31
0.0
  0
LINE
  5
BD
100
AcDbEntity
  8
0
 62
0
370
-1
 48
1.0
  6
BYLAYER
100
AcDbLine
 10
7.001866268472611
 20
104.5998432098005537
 30
0.0
 11
7.1438062684725878
 21
104.3215032098004826
 31
0.0
  0
LINE
  5
BE
100
AcDbEntity
  8
0
 62
0
370
-1
 48
1.0
  6
BYLAYER
100
AcDbLine
 10
322.0505431415128896
 20
104.6042720301182385
 30
0.0
 11
322.1924831415128665
 21
104.3259320301181674
 31
0.0
  0
LINE
  5
BF
100
AcDbEntity
  8
0
 62
0
370
-1
 48
1.0
  6
BYLAYER
100
AcDbLine
 10
164.8440547932307254
 20
104.3325709813964863
 30
0.0
 11
165.0659147932308315
 21
104.1107009813966329
 31
0.0
  0
LINE
  5
C0
100
AcDbEntity
  8
0
 62
0
370
-1
 48
1.0
  6
BYLAYER
100
AcDbLine
 10
7.1438062684725878
 20
104.3215032098004826
 30
0.0
 11
7.3656662684726939
 21
104.0996332098006292
 31
0.0
  0
LINE
  5
C1
100
AcDbEntity
  8
0
 62
0
370
-1
 48
1.0
  6
BYLAYER
100
AcDbLine
 10
322.1924831415128665
 20
104.3259320301181674
 30
0.0
 11
322.4143431415129726
 21
104.1040620301183139
 31
0.0
  0
LINE
  5
C2
100
AcDbEntity
  8
0
 62
0
370
-1
 48
1.0
  6
BYLAYER
100
AcDbLine
 10
165.0659147932308315
 20
104.1107009813966329
 30
0.0
 11
165.3442647932308773
 21
103.9687609813964286
 31
0.0
  0
LINE
  5
C3
100
AcDbEntity
  8
0
 62
0
370
-1
 48
1.0
  6
BYLAYER
100
AcDbLine
 10
7.3656662684726939
 20
104.0996332098006292
 30
0.0
 11
7.6440162684727966
 21
103.9576932098004249
 31
0.0
  0
LINE
  5
C4
100
AcDbEntity
  8
0
 62
0
370
-1
 48
1.0
  6
BYLAYER
100
AcDbLine
 10
322.4143431415129726
 20
104.1040620301183139
 30
0.0
 11
322.6926931415130184
 21
103.9621220301181097
 31
0.0
  0
LINE
  5
C5
100
AcDbEntity
  8
0
 62
0
370
-1
 48
1.0
  6
BYLAYER
100
AcDbLine
 10
165.3442647932308773
 20
103.9687609813964286
 30
0.0
 11
165.6529447932307448
 21
103.9205309813965528
 31
0.0
  0
LINE
  5
C6
100
AcDbEntity
  8
0
 62
0
370
-1
 48
1.0
  6
BYLAYER
100
AcDbLine
 10
7.6440162684726829
 20
103.9576932098006523
 30
0.0
 11
7.9526962684726641
 21
103.9094632098007764
 31
0.0
  0
LINE
  5
C7
100
AcDbEntity
  8
0
 62
0
370
-1
 48
1.0
  6
BYLAYER
100
AcDbLine
 10
322.6926931415130184
 20
103.9621220301181097
 30
0.0
 11
323.0013731415128859
 21
103.9138920301182338
 31
0.0
  0
LINE
  5
C8
100
AcDbEntity
  8
0
 62
0
370
-1
 48
1.0
  6
BYLAYER
100
AcDbLine
 10
165.6529447932307448
 20
103.9205309813965528
 30
0.0
 11
165.9630047932307662
 21
103.9687609813964286
 31
0.0
  0
LINE
  5
C9
100
AcDbEntity
  8
0
 62
0
370
-1
 48
1.0
  6
BYLAYER
100
AcDbLine
 10
7.9526962684726641
 20
103.9094632098007764
 30
0.0
 11
8.2627562684726854
 21
103.9576932098006523
 31
0.0
  0
LINE
  5
CA
100
AcDbEntity
  8
0
 62
0
370
-1
 48
1.0
  6
BYLAYER
100
AcDbLine
 10
323.0013731415128859
 20
103.9138920301182338
 30
0.0
 11
323.3114331415129072
 21
103.9621220301181097
 31
0.0
  0
LINE
  5
CB
100
AcDbEntity
  8
0
 62
0
370
-1
 48
1.0
  6
BYLAYER
100
AcDbLine
 10
165.9630047932306525
 20
103.9687609813963149
 30
0.0
 11
166.2413847932306226
 21
104.1107009813965192
 31
0.0
  0
LINE
  5
CC
100
AcDbEntity
  8
0
 62
0
370
-1
 48
1.0
  6
BYLAYER
100
AcDbLine
 10
8.2627562684726854
 20
103.9576932098004249
 30
0.0
 11
8.5411362684726555
 21
104.0996332098006292
 31
0.0
  0
LINE
  5
CD
100
AcDbEntity
  8
0
 62
0
370
-1
 48
1.0
  6
BYLAYER
100
AcDbLine
 10
323.3114331415129072
 20
103.962122030117996
 30
0.0
 11
323.5898131415128773
 21
104.1040620301182003
 31
0.0
  0
LINE
  5
CE
100
AcDbEntity
  8
0
 62
0
370
-1
 48
1.0
  6
BYLAYER
100
AcDbLine
 10
166.2413847932306226
 20
104.1107009813965192
 30
0.0
 11
166.4632447932307286
 21
104.3325709813963726
 31
0.0
  0
LINE
  5
CF
100
AcDbEntity
  8
0
 62
0
370
-1
 48
1.0
  6
BYLAYER
100
AcDbLine
 10
323.5898131415128773
 20
104.1040620301182003
 30
0.0
 11
323.8116731415129834
 21
104.3259320301180537
 31
0.0
  0
LINE
  5
D0
100
AcDbEntity
  8
0
 62
0
370
-1
 48
1.0
  6
BYLAYER
100
AcDbLine
 10
8.5411362684726555
 20
104.0996332098008565
 30
0.0
 11
8.7629962684726479
 21
104.32150320980071
 31
0.0
  0
LINE
  5
D1
100
AcDbEntity
  8
0
 62
0
370
-1
 48
1.0
  6
BYLAYER
100
AcDbLine
 10
166.4632447932307286
 20
104.3325709813963726
 30
0.0
 11
166.605204793230655
 21
104.6109109813964437
 31
0.0
  0
LINE
  5
D2
100
AcDbEntity
  8
0
 62
0
370
-1
 48
1.0
  6
BYLAYER
100
AcDbLine
 10
8.7629962684727616
 20
104.3215032098004826
 30
0.0
 11
8.904956268472688
 21
104.5998432098005537
 31
0.0
  0
LINE
  5
D3
100
AcDbEntity
  8
0
 62
0
370
-1
 48
1.0
  6
BYLAYER
100
AcDbLine
 10
323.8116731415129834
 20
104.3259320301181674
 30
0.0
 11
323.9536331415129098
 21
104.6042720301182385
 31
0.0
  0
LINE
  5
D4
100
AcDbEntity
  8
0
 62
0
370
-1
 48
1.0
  6
BYLAYER
100
AcDbLine
 10
166.605204793230655
 20
104.6109109813964437
 30
0.0
 11
166.6534247932307835
 21
104.920970981396465
 31
0.0
  0
LINE
  5
D5
100
AcDbEntity
  8
0
 62
0
370
-1
 48
1.0
  6
BYLAYER
100
AcDbLine
 10
8.904956268472688
 20
104.5998432098005537
 30
0.0
 11
8.9531762684728164
 21
104.909903209800575
 31
0.0
  0
LINE
  5
D6
100
AcDbEntity
  8
0
 62
0
370
-1
 48
1.0
  6
BYLAYER
100
AcDbLine
 10
323.9536331415129098
 20
104.6042720301182385
 30
0.0
 11
324.0018531415130383
 21
104.9143320301182598
 31
0.0
  0
LINE
  5
D7
100
AcDbEntity
  8
0
 62
0
370
-1
 48
1.0
  6
BYLAYER
100
AcDbLine
 10
166.6534247932307835
 20
104.920970981396465
 30
0.0
 11
166.605204793230655
 21
105.2296509813963326
 31
0.0
  0
LINE
  5
D8
100
AcDbEntity
  8
0
 62
0
370
-1
 48
1.0
  6
BYLAYER
100
AcDbLine
 10
8.9531762684727028
 20
104.9099032098008024
 30
0.0
 11
8.904956268472688
 21
105.2185832098006699
 31
0.0
  0
LINE
  5
D9
100
AcDbEntity
  8
0
 62
0
370
-1
 48
1.0
  6
BYLAYER
100
AcDbLine
 10
324.0018531415130383
 20
104.9143320301182598
 30
0.0
 11
323.9536331415129098
 21
105.2230120301181273
 31
0.0
  0
LINE
  5
DA
100
AcDbEntity
  8
0
 62
0
370
-1
 48
1.0
  6
BYLAYER
100
AcDbLine
 10
166.6052047932307687
 20
105.2296509813964462
 30
0.0
 11
166.4632447932308423
 21
105.5080309813964163
 31
0.0
  0
LINE
  5
DB
100
AcDbEntity
  8
0
 62
0
370
-1
 48
1.0
  6
BYLAYER
100
AcDbLine
 10
323.9536331415129098
 20
105.2230120301180136
 30
0.0
 11
323.8116731415129834
 21
105.5013920301179837
 31
0.0
  0
LINE
  5
DC
100
AcDbEntity
  8
0
 62
0
370
-1
 48
1.0
  6
BYLAYER
100
AcDbLine
 10
8.904956268472688
 20
105.2185832098006699
 30
0.0
 11
8.7629962684726479
 21
105.49696320980064
 31
0.0
  0
LINE
  5
DD
100
AcDbEntity
  8
0
 62
0
370
-1
 48
1.0
  6
BYLAYER
100
AcDbLine
 10
166.4632447932307286
 20
105.5080309813963026
 30
0.0
 11
166.2413847932306226
 21
105.7298909813964087
 31
0.0
  0
LINE
  5
DE
100
AcDbEntity
  8
0
 62
0
370
-1
 48
1.0
  6
BYLAYER
100
AcDbLine
 10
323.8116731415129834
 20
105.5013920301179837
 30
0.0
 11
323.5898131415128773
 21
105.7232520301180898
 31
0.0
  0
LINE
  5
DF
100
AcDbEntity
  8
0
 62
0
370
-1
 48
1.0
  6
BYLAYER
100
AcDbLine
 10
8.7629962684726479
 20
105.49696320980064
 30
0.0
 11
8.5411362684726555
 21
105.7188232098007461
 31
0.0
  0
LINE
  5
E0
100
AcDbEntity
  8
0
 62
0
370
-1
 48
1.0
  6
BYLAYER
100
AcDbLine
 10
166.2413847932306226
 20
105.7298909813964087
 30
0.0
 11
165.9630047932306525
 21
105.8718509813963351
 31
0.0
  0
LINE
  5
E1
100
AcDbEntity
  8
0
 62
0
370
-1
 48
1.0
  6
BYLAYER
100
AcDbLine
 10
323.5898131415128773
 20
105.7232520301180898
 30
0.0
 11
323.3114331415129072
 21
105.8652120301180162
 31
0.0
  0
LINE
  5
E2
100
AcDbEntity
  8
0
 62
0
370
-1
 48
1.0
  6
BYLAYER
100
AcDbLine
 10
8.5411362684726555
 20
105.7188232098007461
 30
0.0
 11
8.2627562684726854
 21
105.8607832098006725
 31
0.0
  0
LINE
  5
E3
100
AcDbEntity
  8
0
 62
0
370
-1
 48
1.0
  6
BYLAYER
100
AcDbLine
 10
165.9630047932306525
 20
105.8718509813963351
 30
0.0
 11
165.654324793230785
 21
105.92145098139639
 31
0.0
  0
LINE
  5
E4
100
AcDbEntity
  8
0
 62
0
370
-1
 48
1.0
  6
BYLAYER
100
AcDbLine
 10
8.2627562684726854
 20
105.8607832098006725
 30
0.0
 11
7.9540762684727042
 21
105.9103832098007274
 31
0.0
  0
LINE
  5
E5
100
AcDbEntity
  8
0
 62
0
370
-1
 48
1.0
  6
BYLAYER
100
AcDbLine
 10
323.3114331415129072
 20
105.8652120301181299
 30
0.0
 11
323.0027531415130397
 21
105.9148120301181848
 31
0.0
  0
LINE
  5
E6
100
AcDbEntity
  8
0
 62
0
370
-1
 48
1.0
  6
BYLAYER
100
AcDbLine
 10
165.654324793230785
 20
105.92145098139639
 30
0.0
 11
165.3442647932307636
 21
105.8718509813963351
 31
0.0
  0
LINE
  5
E7
100
AcDbEntity
  8
0
 62
0
370
-1
 48
1.0
  6
BYLAYER
100
AcDbLine
 10
7.9540762684728179
 20
105.9103832098005
 30
0.0
 11
7.6440162684727966
 21
105.8607832098004451
 31
0.0
  0
LINE
  5
E8
100
AcDbEntity
  8
0
 62
0
370
-1
 48
1.0
  6
BYLAYER
100
AcDbLine
 10
323.0027531415130397
 20
105.9148120301181848
 30
0.0
 11
322.6926931415130184
 21
105.8652120301181299
 31
0.0
  0
CIRCLE
  5
E9
100
AcDbEntity
  8
0
 62
256
370
-1
 48
1.0
  6
BYLAYER
100
AcDbCircle
 10
4.7412159597763548
 20
107.5012445343464833
 30
0.0
 40
0.8916095560874293
  0
CIRCLE
  5
EA
100
AcDbEntity
  8
0
 62
256
370
-1
 48
1.0
  6
BYLAYER
100
AcDbCircle
 10
165.6560412441754124
 20
107.5012445343464833
 30
0.0
 40
0.8916095560874293
  0
CIRCLE
  5
EB
100
AcDbEntity
  8
0
 62
256
370
-1
 48
1.0
  6
BYLAYER
100
AcDbCircle
 10
326.5681126411147943
 20
107.5012445343464833
 30
0.0
 40
0.8916095560874293
  0
CIRCLE
  5
EC
100
AcDbEntity
  8
0
 62
256
370
-1
 48
1.0
  6
BYLAYER
100
AcDbCircle
 10
326.5680126411147057
 20
4.7514702811235452
 30
0.0
 40
0.8916095560874293
  0
CIRCLE
  5
ED
100
AcDbEntity
  8
0
 62
256
370
-1
 48
1.0
  6
BYLAYER
100
AcDbCircle
 10
165.6560244766878895
 20
4.7514702811235452
 30
0.0
 40
0.8916095560874293
  0
CIRCLE
  5
EE
100
AcDbEntity
  8
0
 62
256
370
-1
 48
1.0
  6
BYLAYER
100
AcDbCircle
 10
4.7413423077730954
 20
4.7514702811235452
 30
0.0
 40
0.8916095560874293
  0
ENDSEC
  0
SECTION
  2
OBJECTS
  0
DICTIONARY
  5
C
100
AcDbDictionary
280
0
281
1
  3
ACAD_GROUP
350
D
  3
ACAD_LAYOUT
350
1A
  3
ACAD_MLINESTYLE
350
17
  3
ACAD_PLOTSETTINGS
350
19
  3
ACAD_PLOTSTYLENAME
350
E
  3
AcDbVariableDictionary
350
EF
  3
QCAD_OBJECTS
350
F0
  0
DICTIONARY
  5
D
100
AcDbDictionary
280
0
281
1
  0
ACDBDICTIONARYWDFLT
  5
E
100
AcDbDictionary
281
1
  3
Normal
350
F
100
AcDbDictionaryWithDefault
340
F
  0
ACDBPLACEHOLDER
  5
F
  0
DICTIONARY
  5
17
100
AcDbDictionary
280
0
281
1
  3
Standard
350
18
  0
MLINESTYLE
  5
18
100
AcDbMlineStyle
  2
STANDARD
 70
0
  3

 62
256
 51
90.0
 52
90.0
 71
2
 49
0.5
 62
256
  6
BYLAYER
 49
-0.5
 62
256
  6
BYLAYER
  0
DICTIONARY
  5
19
100
AcDbDictionary
280
0
281
1
  0
DICTIONARY
  5
1A
100
AcDbDictionary
281
1
  3
Layout1
350
1E
  3
Layout2
350
26
  3
Model
350
22
  0
LAYOUT
  5
1E
100
AcDbPlotSettings
  1

  2
none_device
  4

  6

 40
0.0
 41
0.0
 42
0.0
 43
0.0
 44
0.0
 45
0.0
 46
0.0
 47
0.0
 48
0.0
 49
0.0
140
0.0
141
0.0
142
1.0
143
1.0
 70
688
 72
0
 73
0
 74
5
  7

 75
16
147
1.0
148
0.0
149
0.0
100
AcDbLayout
  1
Layout1
 70
1
 71
1
 10
0.0
 20
0.0
 11
420.0
 21
297.0
 12
0.0
 22
0.0
 32
0.0
 14
100000000000000000000.0
 24
100000000000000000000.0
 34
100000000000000000000.0
 15
-100000000000000000000.0
 25
-100000000000000000000.0
 35
-100000000000000000000.0
146
0.0
 13
0.0
 23
0.0
 33
0.0
 16
1.0
 26
0.0
 36
0.0
 17
0.0
 27
1.0
 37
0.0
 76
0
330
1B
  0
LAYOUT
  5
22
100
AcDbPlotSettings
  1

  2
none_device
  4

  6

 40
0.0
 41
0.0
 42
0.0
 43
0.0
 44
0.0
 45
0.0
 46
0.0
 47
0.0
 48
0.0
 49
0.0
140
0.0
141
0.0
142
1.0
143
1.0
 70
1712
 72
0
 73
0
 74
0
  7

 75
0
147
1.0
148
0.0
149
0.0
100
AcDbLayout
  1
Model
 70
1
 71
0
 10
0.0
 20
0.0
 11
12.0
 21
9.0
 12
0.0
 22
0.0
 32
0.0
 14
0.0
 24
0.0
 34
0.0
 15
0.0
 25
0.0
 35
0.0
146
0.0
 13
0.0
 23
0.0
 33
0.0
 16
1.0
 26
0.0
 36
0.0
 17
0.0
 27
1.0
 37
0.0
 76
0
330
1F
  0
LAYOUT
  5
26
100
AcDbPlotSettings
  1

  2
none_device
  4

  6

 40
0.0
 41
0.0
 42
0.0
 43
0.0
 44
0.0
 45
0.0
 46
0.0
 47
0.0
 48
0.0
 49
0.0
140
0.0
141
0.0
142
1.0
143
1.0
 70
688
 72
0
 73
0
 74
5
  7

 75
16
147
1.0
148
0.0
149
0.0
100
AcDbLayout
  1
Layout2
 70
1
 71
2
 10
0.0
 20
0.0
 11
12.0
 21
9.0
 12
0.0
 22
0.0
 32
0.0
 14
0.0
 24
0.0
 34
0.0
 15
0.0
 25
0.0
 35
0.0
146
0.0
 13
0.0
 23
0.0
 33
0.0
 16
1.0
 26
0.0
 36
0.0
 17
0.0
 27
1.0
 37
0.0
 76
0
330
23
  0
DICTIONARY
  5
EF
100
AcDbDictionary
281
1
  3
DIMASSOC
350
F2
  3
HIDETEXT
350
F1
  0
DICTIONARYVAR
  5
F1
100
DictionaryVariables
280
0
  1
2
  0
DICTIONARYVAR
  5
F2
100
DictionaryVariables
280
0
  1
1
  0
DICTIONARY
  5
F0
100
AcDbDictionary
281
1
  3
ColorSettings/BackgroundColor
350
F3
  3
ColorSettings/ColorMode
350
F4
  3
Grid/DisplayGrid00
350
F5
  3
Grid/DisplayGrid01
350
F6
  3
Grid/DisplayGrid02
350
F7
  3
Grid/DisplayGrid03
350
F8
  3
Grid/GridSpacingX00
350
F9
  3
Grid/GridSpacingX01
350
FA
  3
Grid/GridSpacingX02
350
FB
  3
Grid/GridSpacingX03
350
FC
  3
Grid/GridSpacingY00
350
FD
  3
Grid/GridSpacingY01
350
FE
  3
Grid/GridSpacingY02
350
FF
  3
Grid/GridSpacingY03
350
100
  3
Grid/IsometricGrid00
350
101
  3
Grid/IsometricGrid01
350
102
  3
Grid/IsometricGrid02
350
103
  3
Grid/IsometricGrid03
350
104
  3
Grid/IsometricProjection00
350
105
  3
Grid/IsometricProjection01
350
106
  3
Grid/IsometricProjection02
350
107
  3
Grid/IsometricProjection03
350
108
  3
Grid/MetaGridSpacingX00
350
109
  3
Grid/MetaGridSpacingX01
350
10A
  3
Grid/MetaGridSpacingX02
350
10B
  3
Grid/MetaGridSpacingX03
350
10C
  3
Grid/MetaGridSpacingY00
350
10D
  3
Grid/MetaGridSpacingY01
350
10E
  3
Grid/MetaGridSpacingY02
350
10F
  3
Grid/MetaGridSpacingY03
350
110
  3
MultiPageSettings/Columns
350
111
  3
MultiPageSettings/GlueMarginsBottom
350
112
  3
MultiPageSettings/GlueMarginsLeft
350
113
  3
MultiPageSettings/GlueMarginsRight
350
114
  3
MultiPageSettings/GlueMarginsTop
350
115
  3
MultiPageSettings/PrintCropMarks
350
116
  3
MultiPageSettings/Rows
350
117
  3
PageSettings/OffsetX
350
118
  3
PageSettings/OffsetY
350
119
  3
PageSettings/PageOrientation
350
11A
  3
PageSettings/PaperHeight
350
11B
  3
PageSettings/PaperWidth
350
11C
  3
PageSettings/Scale
350
11D
  3
PageSettings/ShowPaperBorders
350
11E
  3
PageTagSettings/EnablePageTags
350
11F
  3
PageTagSettings/TagAlignment
350
120
  3
PageTagSettings/TagFont
350
121
  3
PageTagSettings/TagPosition
350
122
  3
QCADVersion
350
123
  3
UnitSettings/PaperUnit
350
124
  3
ViewportCenter
350
125
  3
ViewportHeight
350
126
  3
ViewportWidth
350
127
  0
XRECORD
  5
F3
330
F0
100
AcDbXrecord
280
1
1000
White
  0
XRECORD
  5
F4
330
F0
100
AcDbXrecord
280
1
1000
FullColor
  0
XRECORD
  5
F5
330
F0
100
AcDbXrecord
280
1
290
1
  0
XRECORD
  5
F6
330
F0
100
AcDbXrecord
280
1
290
1
  0
XRECORD
  5
F7
330
F0
100
AcDbXrecord
280
1
290
1
  0
XRECORD
  5
F8
330
F0
100
AcDbXrecord
280
1
290
1
  0
XRECORD
  5
F9
330
F0
100
AcDbXrecord
280
1
1000
auto
  0
XRECORD
  5
FA
330
F0
100
AcDbXrecord
280
1
1000
auto
  0
XRECORD
  5
FB
330
F0
100
AcDbXrecord
280
1
1000
auto
  0
XRECORD
  5
FC
330
F0
100
AcDbXrecord
280
1
1000
auto
  0
XRECORD
  5
FD
330
F0
100
AcDbXrecord
280
1
1000
auto
  0
XRECORD
  5
FE
330
F0
100
AcDbXrecord
280
1
1000
auto
  0
XRECORD
  5
FF
330
F0
100
AcDbXrecord
280
1
1000
auto
  0
XRECORD
  5
100
330
F0
100
AcDbXrecord
280
1
1000
auto
  0
XRECORD
  5
101
330
F0
100
AcDbXrecord
280
1
290
0
  0
XRECORD
  5
102
330
F0
100
AcDbXrecord
280
1
290
0
  0
XRECORD
  5
103
330
F0
100
AcDbXrecord
280
1
290
0
  0
XRECORD
  5
104
330
F0
100
AcDbXrecord
280
1
290
0
  0
XRECORD
  5
105
330
F0
100
AcDbXrecord
280
1
 90
65537
  0
XRECORD
  5
106
330
F0
100
AcDbXrecord
280
1
 90
65537
  0
XRECORD
  5
107
330
F0
100
AcDbXrecord
280
1
 90
65537
  0
XRECORD
  5
108
330
F0
100
AcDbXrecord
280
1
 90
65537
  0
XRECORD
  5
109
330
F0
100
AcDbXrecord
280
1
1000
auto
  0
XRECORD
  5
10A
330
F0
100
AcDbXrecord
280
1
1000
auto
  0
XRECORD
  5
10B
330
F0
100
AcDbXrecord
280
1
1000
auto
  0
XRECORD
  5
10C
330
F0
100
AcDbXrecord
280
1
1000
auto
  0
XRECORD
  5
10D
330
F0
100
AcDbXrecord
280
1
1000
auto
  0
XRECORD
  5
10E
330
F0
100
AcDbXrecord
280
1
1000
auto
  0
XRECORD
  5
10F
330
F0
100
AcDbXrecord
280
1
1000
auto
  0
XRECORD
  5
110
330
F0
100
AcDbXrecord
280
1
1000
auto
  0
XRECORD
  5
111
330
F0
100
AcDbXrecord
280
1
 90
1
  0
XRECORD
  5
112
330
F0
100
AcDbXrecord
280
1
 40
0.5
  0
XRECORD
  5
113
330
F0
100
AcDbXrecord
280
1
 40
0.5
  0
XRECORD
  5
114
330
F0
100
AcDbXrecord
280
1
 40
0.5
  0
XRECORD
  5
115
330
F0
100
AcDbXrecord
280
1
 40
0.5
  0
XRECORD
  5
116
330
F0
100
AcDbXrecord
280
1
290
0
  0
XRECORD
  5
117
330
F0
100
AcDbXrecord
280
1
 90
1
  0
XRECORD
  5
118
330
F0
100
AcDbXrecord
280
1
 40
0.0
  0
XRECORD
  5
119
330
F0
100
AcDbXrecord
280
1
 40
0.0
  0
XRECORD
  5
11A
330
F0
100
AcDbXrecord
280
1
1000
Portrait
  0
XRECORD
  5
11B
330
F0
100
AcDbXrecord
280
1
 40
11.6929133858267722
  0
XRECORD
  5
11C
330
F0
100
AcDbXrecord
280
1
 40
8.2677165354330704
  0
XRECORD
  5
11D
330
F0
100
AcDbXrecord
280
1
1000
1:1
  0
XRECORD
  5
11E
330
F0
100
AcDbXrecord
280
1
290
1
  0
XRECORD
  5
11F
330
F0
100
AcDbXrecord
280
1
290
0
  0
XRECORD
  5
120
330
F0
100
AcDbXrecord
280
1
1000
Inside
  0
XRECORD
  5
121
330
F0
100
AcDbXrecord
280
1
1000
Arial,10,-1,5,50,0,0,0,0,0
  0
XRECORD
  5
122
330
F0
100
AcDbXrecord
280
1
1000
TopLeft
  0
XRECORD
  5
123
330
F0
100
AcDbXrecord
280
1
1000
3.28.1.3
  0
XRECORD
  5
124
330
F0
100
AcDbXrecord
280
1
 90
1
  0
XRECORD
  5
126
330
F0
100
AcDbXrecord
280
1
 40
595.8927132917744984
  0
XRECORD
  5
127
330
F0
100
AcDbXrecord
280
1
 40
1111.5405225492452246
  0
ENDSEC
  0
EOF
