999
dxflib 3.26.4.0
  0
SECTION
  2
HEADER
  9
$ACADVER
  1
AC1015
  9
$HANDSEED
  5
FFFF
  9
$DIMADEC
 70
0
  9
$DIMASZ
 40
0.125
  9
$DIMATFIT
 70
0
  9
$DIMAUNIT
 70
0
  9
$DIMAZIN
 70
2
  9
$DIMBLK
  1

  9
$DIMDEC
 70
4
  9
$DIMDLI
 40
0.25
  9
$DIMDSEP
 70
46
  9
$DIMEXE
 40
0.0625
  9
$DIMEXO
 40
0.03125
  9
$DIMGAP
 40
0.03125
  9
$DIMLFAC
 40
1.0
  9
$DIMLUNIT
 70
3
  9
$DIMSCALE
 40
1.0
  9
$DIMTAD
 70
1
  9
$DIMTIH
 70
0
  9
$DIMTSZ
 40
0.0
  9
$DIMTXT
 40
0.125
  9
$DIMZIN
 70
8
  9
$DWGCODEPAGE
  3
ANSI_1252
  9
$INSUNITS
 70
1
  9
$LTSCALE
 40
1.0
  9
$MAXACTVP
 70
64
  9
$MEASUREMENT
 70
0
  9
$MIRRTEXT
 70
0
  9
$PDMODE
 70
0
  9
$PDSIZE
 40
0.0
  0
ENDSEC
  0
SECTION
  2
TABLES
  0
TABLE
  2
VPORT
  5
8
100
AcDbSymbolTable
 70
1
  0
VPORT
  5
30
100
AcDbSymbolTableRecord
100
AcDbViewportTableRecord
  2
*Active
 70
0
 10
0.0
 20
0.0
 11
1.0
 21
1.0
 12
286.3055555555554861
 22
148.5
 13
0.0
 23
0.0
 14
10.0
 24
10.0
 15
10.0
 25
10.0
 16
0.0
 26
0.0
 36
1.0
 17
0.0
 27
0.0
 37
0.0
 40
297.0
 41
1.92798353909465
 42
50.0
 43
0.0
 44
0.0
 50
0.0
 51
0.0
 71
0
 72
100
 73
1
 74
3
 75
1
 76
1
 77
0
 78
0
281
0
 65
1
110
0.0
120
0.0
130
0.0
111
1.0
121
0.0
131
0.0
112
0.0
122
1.0
132
0.0
 79
0
146
0.0
  0
ENDTAB
  0
TABLE
  2
LTYPE
  5
5
100
AcDbSymbolTable
 70
41
  0
LTYPE
  5
16
100
AcDbSymbolTableRecord
100
AcDbLinetypeTableRecord
  2
Continuous
 70
0
  3
Solid line
 72
65
 73
0
 40
0.0
  0
LTYPE
  5
31
100
AcDbSymbolTableRecord
100
AcDbLinetypeTableRecord
  2
PHANTOM
 70
0
  3
Phantom ______  __  __  ______  __  __  ______ 
 72
65
 73
6
 40
63.5000000000000071
 49
31.75
 74
0
 49
-6.3499999999999996
 74
0
 49
6.3499999999999996
 74
0
 49
-6.3499999999999996
 74
0
 49
6.3499999999999996
 74
0
 49
-6.3499999999999996
 74
0
  0
LTYPE
  5
32
100
AcDbSymbolTableRecord
100
AcDbLinetypeTableRecord
  2
ACAD_ISO05W100
 70
0
  3
ISO long-dash double-dot ____ .. ____ .. ____ . 
 72
65
 73
6
 40
33.0
 49
24.0
 74
0
 49
-3.0
 74
0
 49
0.0
 74
0
 49
-3.0
 74
0
 49
0.0
 74
0
 49
-3.0
 74
0
  0
LTYPE
  5
33
100
AcDbSymbolTableRecord
100
AcDbLinetypeTableRecord
  2
HIDDEN
 70
0
  3
Hidden __ __ __ __ __ __ __ __ __ __ __ __ __ __
 72
65
 73
2
 40
9.5249999999999986
 49
6.3499999999999996
 74
0
 49
-3.1749999999999998
 74
0
  0
LTYPE
  5
34
100
AcDbSymbolTableRecord
100
AcDbLinetypeTableRecord
  2
DASHEDX2
 70
0
  3
Dashed (2x) ____  ____  ____  ____  ____  ___
 72
65
 73
2
 40
38.0999999999999943
 49
25.3999999999999986
 74
0
 49
-12.6999999999999993
 74
0
  0
LTYPE
  5
35
100
AcDbSymbolTableRecord
100
AcDbLinetypeTableRecord
  2
ACAD_ISO02W100
 70
0
  3
ISO dash __ __ __ __ __ __ __ __ __ __ __ __ __
 72
65
 73
2
 40
15.0
 49
12.0
 74
0
 49
-3.0
 74
0
  0
LTYPE
  5
36
100
AcDbSymbolTableRecord
100
AcDbLinetypeTableRecord
  2
CENTER2
 70
0
  3
Center (.5x) ___ _ ___ _ ___ _ ___ _ ___ _ ___
 72
65
 73
4
 40
28.5750000000000028
 49
19.0500000000000007
 74
0
 49
-3.1749999999999998
 74
0
 49
3.1749999999999998
 74
0
 49
-3.1749999999999998
 74
0
  0
LTYPE
  5
37
100
AcDbSymbolTableRecord
100
AcDbLinetypeTableRecord
  2
ACAD_ISO09W100
 70
0
  3
ISO long-dash double-short-dash ____ __ __ ____
 72
65
 73
6
 40
45.0
 49
24.0
 74
0
 49
-3.0
 74
0
 49
6.0
 74
0
 49
-3.0
 74
0
 49
6.0
 74
0
 49
-3.0
 74
0
  0
LTYPE
  5
38
100
AcDbSymbolTableRecord
100
AcDbLinetypeTableRecord
  2
DASHED2
 70
0
  3
Dashed (.5x) _ _ _ _ _ _ _ _ _ _ _ _ _ _ _ _ _ 
 72
65
 73
2
 40
9.5249999999999986
 49
6.3499999999999996
 74
0
 49
-3.1749999999999998
 74
0
  0
LTYPE
  5
39
100
AcDbSymbolTableRecord
100
AcDbLinetypeTableRecord
  2
ACAD_ISO11W100
 70
0
  3
ISO double-dash dot __ __ . __ __ . __ __ . __ _
 72
65
 73
6
 40
33.0
 49
12.0
 74
0
 49
-3.0
 74
0
 49
12.0
 74
0
 49
-3.0
 74
0
 49
0.0
 74
0
 49
-3.0
 74
0
  0
LTYPE
  5
3A
100
AcDbSymbolTableRecord
100
AcDbLinetypeTableRecord
  2
DOT2
 70
0
  3
Dot (.5x) ........................................
 72
65
 73
2
 40
3.1749999999999998
 49
0.0
 74
0
 49
-3.1749999999999998
 74
0
  0
LTYPE
  5
3B
100
AcDbSymbolTableRecord
100
AcDbLinetypeTableRecord
  2
PHANTOM2
 70
0
  3
Phantom (.5x) ___ _ _ ___ _ _ ___ _ _ ___ _ _
 72
65
 73
6
 40
31.7500000000000036
 49
15.875
 74
0
 49
-3.1749999999999998
 74
0
 49
3.1749999999999998
 74
0
 49
-3.1749999999999998
 74
0
 49
3.1749999999999998
 74
0
 49
-3.1749999999999998
 74
0
  0
LTYPE
  5
3C
100
AcDbSymbolTableRecord
100
AcDbLinetypeTableRecord
  2
ACAD_ISO04W100
 70
0
  3
ISO long-dash dot ____ . ____ . ____ . ____ . _
 72
65
 73
4
 40
30.0
 49
24.0
 74
0
 49
-3.0
 74
0
 49
0.0
 74
0
 49
-3.0
 74
0
  0
LTYPE
  5
3D
100
AcDbSymbolTableRecord
100
AcDbLinetypeTableRecord
  2
PHANTOMX2
 70
0
  3
Phantom (2x) ____________    ____    ____   _
 72
65
 73
6
 40
127.0000000000000142
 49
63.5
 74
0
 49
-12.6999999999999993
 74
0
 49
12.6999999999999993
 74
0
 49
-12.6999999999999993
 74
0
 49
12.6999999999999993
 74
0
 49
-12.6999999999999993
 74
0
  0
LTYPE
  5
3E
100
AcDbSymbolTableRecord
100
AcDbLinetypeTableRecord
  2
ACAD_ISO15W100
 70
0
  3
ISO double-dash triple-dot __ __ . . . __ __ . .
 72
65
 73
10
 40
39.0
 49
12.0
 74
0
 49
-3.0
 74
0
 49
12.0
 74
0
 49
-3.0
 74
0
 49
0.0
 74
0
 49
-3.0
 74
0
 49
0.0
 74
0
 49
-3.0
 74
0
 49
0.0
 74
0
 49
-3.0
 74
0
  0
LTYPE
  5
3F
100
AcDbSymbolTableRecord
100
AcDbLinetypeTableRecord
  2
DOT
 70
0
  3
Dot . . . . . . . . . . . . . . . . . . . . . . . .
 72
65
 73
2
 40
6.3499999999999996
 49
0.0
 74
0
 49
-6.3499999999999996
 74
0
  0
LTYPE
  5
40
100
AcDbSymbolTableRecord
100
AcDbLinetypeTableRecord
  2
BORDER2
 70
0
  3
Border (.5x) __.__.__.__.__.__.__.__.__.__.__.
 72
65
 73
6
 40
22.2249999999999979
 49
6.3499999999999996
 74
0
 49
-3.1749999999999998
 74
0
 49
6.3499999999999996
 74
0
 49
-3.1749999999999998
 74
0
 49
0.0
 74
0
 49
-3.1749999999999998
 74
0
  0
LTYPE
  5
41
100
AcDbSymbolTableRecord
100
AcDbLinetypeTableRecord
  2
DASHED
 70
0
  3
Dashed __ __ __ __ __ __ __ __ __ __ __ __ __ _
 72
65
 73
2
 40
19.0499999999999972
 49
12.6999999999999993
 74
0
 49
-6.3499999999999996
 74
0
  0
LTYPE
  5
42
100
AcDbSymbolTableRecord
100
AcDbLinetypeTableRecord
  2
ACAD_ISO07W100
 70
0
  3
ISO dot . . . . . . . . . . . . . . . . . . . . 
 72
65
 73
2
 40
3.0
 49
0.0
 74
0
 49
-3.0
 74
0
  0
LTYPE
  5
43
100
AcDbSymbolTableRecord
100
AcDbLinetypeTableRecord
  2
DIVIDEX2
 70
0
  3
Divide (2x) ________  .  .  ________  .  .  _
 72
65
 73
6
 40
63.5
 49
25.3999999999999986
 74
0
 49
-12.6999999999999993
 74
0
 49
0.0
 74
0
 49
-12.6999999999999993
 74
0
 49
0.0
 74
0
 49
-12.6999999999999993
 74
0
  0
LTYPE
  5
44
100
AcDbSymbolTableRecord
100
AcDbLinetypeTableRecord
  2
BORDER
 70
0
  3
Border __ __ . __ __ . __ __ . __ __ . __ __ .
 72
65
 73
6
 40
44.4499999999999957
 49
12.6999999999999993
 74
0
 49
-6.3499999999999996
 74
0
 49
12.6999999999999993
 74
0
 49
-6.3499999999999996
 74
0
 49
0.0
 74
0
 49
-6.3499999999999996
 74
0
  0
LTYPE
  5
15
100
AcDbSymbolTableRecord
100
AcDbLinetypeTableRecord
  2
BYLAYER
 70
0
  3

 72
65
 73
0
 40
0.0
  0
LTYPE
  5
45
100
AcDbSymbolTableRecord
100
AcDbLinetypeTableRecord
  2
CENTER
 70
0
  3
Center ____ _ ____ _ ____ _ ____ _ ____ _ ____
 72
65
 73
4
 40
50.8000000000000043
 49
31.75
 74
0
 49
-6.3499999999999996
 74
0
 49
6.3499999999999996
 74
0
 49
-6.3499999999999996
 74
0
  0
LTYPE
  5
46
100
AcDbSymbolTableRecord
100
AcDbLinetypeTableRecord
  2
DASHDOT
 70
0
  3
Dash dot __ . __ . __ . __ . __ . __ . __ . __
 72
65
 73
4
 40
25.3999999999999986
 49
12.6999999999999993
 74
0
 49
-6.3499999999999996
 74
0
 49
0.0
 74
0
 49
-6.3499999999999996
 74
0
  0
LTYPE
  5
47
100
AcDbSymbolTableRecord
100
AcDbLinetypeTableRecord
  2
DIVIDE2
 70
0
  3
Divide (.5x) __..__..__..__..__..__..__..__.._
 72
65
 73
6
 40
15.875
 49
6.3499999999999996
 74
0
 49
-3.1749999999999998
 74
0
 49
0.0
 74
0
 49
-3.1749999999999998
 74
0
 49
0.0
 74
0
 49
-3.1749999999999998
 74
0
  0
LTYPE
  5
48
100
AcDbSymbolTableRecord
100
AcDbLinetypeTableRecord
  2
DASHDOTX2
 70
0
  3
Dash dot (2x) ____  .  ____  .  ____  .  ___
 72
65
 73
4
 40
50.7999999999999972
 49
25.3999999999999986
 74
0
 49
-12.6999999999999993
 74
0
 49
0.0
 74
0
 49
-12.6999999999999993
 74
0
  0
LTYPE
  5
49
100
AcDbSymbolTableRecord
100
AcDbLinetypeTableRecord
  2
ACAD_ISO03W100
 70
0
  3
ISO dash space __    __    __    __    __    __
 72
65
 73
2
 40
30.0
 49
12.0
 74
0
 49
-18.0
 74
0
  0
LTYPE
  5
4A
100
AcDbSymbolTableRecord
100
AcDbLinetypeTableRecord
  2
CENTERX2
 70
0
  3
Center (2x) ________  __  ________  __  _____
 72
65
 73
4
 40
101.6000000000000085
 49
63.5
 74
0
 49
-12.6999999999999993
 74
0
 49
12.6999999999999993
 74
0
 49
-12.6999999999999993
 74
0
  0
LTYPE
  5
4B
100
AcDbSymbolTableRecord
100
AcDbLinetypeTableRecord
  2
DIVIDE
 70
0
  3
Divide ____ . . ____ . . ____ . . ____ . . ____
 72
65
 73
6
 40
31.75
 49
12.6999999999999993
 74
0
 49
-6.3499999999999996
 74
0
 49
0.0
 74
0
 49
-6.3499999999999996
 74
0
 49
0.0
 74
0
 49
-6.3499999999999996
 74
0
  0
LTYPE
  5
4C
100
AcDbSymbolTableRecord
100
AcDbLinetypeTableRecord
  2
BORDERX2
 70
0
  3
Border (2x) ____  ____  .  ____  ____  .  ___
 72
65
 73
6
 40
88.8999999999999915
 49
25.3999999999999986
 74
0
 49
-12.6999999999999993
 74
0
 49
25.3999999999999986
 74
0
 49
-12.6999999999999993
 74
0
 49
0.0
 74
0
 49
-12.6999999999999993
 74
0
  0
LTYPE
  5
4D
100
AcDbSymbolTableRecord
100
AcDbLinetypeTableRecord
  2
HIDDENX2
 70
0
  3
Hidden (2x) ____ ____ ____ ____ ____ ____ ____ 
 72
65
 73
2
 40
19.0499999999999972
 49
12.6999999999999993
 74
0
 49
-6.3499999999999996
 74
0
  0
LTYPE
  5
4E
100
AcDbSymbolTableRecord
100
AcDbLinetypeTableRecord
  2
ACAD_ISO13W100
 70
0
  3
ISO double-dash double-dot __ __ . . __ __ . . _
 72
65
 73
8
 40
36.0
 49
12.0
 74
0
 49
-3.0
 74
0
 49
12.0
 74
0
 49
-3.0
 74
0
 49
0.0
 74
0
 49
-3.0
 74
0
 49
0.0
 74
0
 49
-3.0
 74
0
  0
LTYPE
  5
14
100
AcDbSymbolTableRecord
100
AcDbLinetypeTableRecord
  2
BYBLOCK
 70
0
  3

 72
65
 73
0
 40
0.0
  0
LTYPE
  5
4F
100
AcDbSymbolTableRecord
100
AcDbLinetypeTableRecord
  2
DOTX2
 70
0
  3
Dot (2x) .  .  .  .  .  .  .  .  .  .  .  .  .  .
 72
65
 73
2
 40
12.6999999999999993
 49
0.0
 74
0
 49
-12.6999999999999993
 74
0
  0
LTYPE
  5
50
100
AcDbSymbolTableRecord
100
AcDbLinetypeTableRecord
  2
HIDDEN2
 70
0
  3
Hidden (.5x) _ _ _ _ _ _ _ _ _ _ _ _ _ _ _ _ _ 
 72
65
 73
2
 40
4.7624999999999993
 49
3.1749999999999998
 74
0
 49
-1.5874999999999999
 74
0
  0
LTYPE
  5
51
100
AcDbSymbolTableRecord
100
AcDbLinetypeTableRecord
  2
ACAD_ISO08W100
 70
0
  3
ISO long-dash short-dash ____ __ ____ __ ____ _
 72
65
 73
4
 40
36.0
 49
24.0
 74
0
 49
-3.0
 74
0
 49
6.0
 74
0
 49
-3.0
 74
0
  0
LTYPE
  5
52
100
AcDbSymbolTableRecord
100
AcDbLinetypeTableRecord
  2
ACAD_ISO12W100
 70
0
  3
ISO dash double-dot __ . . __ . . __ . . __ . . 
 72
65
 73
6
 40
21.0
 49
12.0
 74
0
 49
-3.0
 74
0
 49
0.0
 74
0
 49
-3.0
 74
0
 49
0.0
 74
0
 49
-3.0
 74
0
  0
LTYPE
  5
53
100
AcDbSymbolTableRecord
100
AcDbLinetypeTableRecord
  2
ACAD_ISO06W100
 70
0
  3
ISO long-dash triple-dot ____ ... ____ ... ____
 72
65
 73
8
 40
36.0
 49
24.0
 74
0
 49
-3.0
 74
0
 49
0.0
 74
0
 49
-3.0
 74
0
 49
0.0
 74
0
 49
-3.0
 74
0
 49
0.0
 74
0
 49
-3.0
 74
0
  0
LTYPE
  5
54
100
AcDbSymbolTableRecord
100
AcDbLinetypeTableRecord
  2
DASHDOT2
 70
0
  3
Dash dot (.5x) _._._._._._._._._._._._._._._.
 72
65
 73
4
 40
12.6999999999999993
 49
6.3499999999999996
 74
0
 49
-3.1749999999999998
 74
0
 49
0.0
 74
0
 49
-3.1749999999999998
 74
0
  0
LTYPE
  5
55
100
AcDbSymbolTableRecord
100
AcDbLinetypeTableRecord
  2
ACAD_ISO14W100
 70
0
  3
ISO dash triple-dot __ . . . __ . . . __ . . . _
 72
65
 73
8
 40
24.0
 49
12.0
 74
0
 49
-3.0
 74
0
 49
0.0
 74
0
 49
-3.0
 74
0
 49
0.0
 74
0
 49
-3.0
 74
0
 49
0.0
 74
0
 49
-3.0
 74
0
  0
LTYPE
  5
56
100
AcDbSymbolTableRecord
100
AcDbLinetypeTableRecord
  2
ACAD_ISO10W100
 70
0
  3
ISO dash dot __ . __ . __ . __ . __ . __ . __ . 
 72
65
 73
4
 40
18.0
 49
12.0
 74
0
 49
-3.0
 74
0
 49
0.0
 74
0
 49
-3.0
 74
0
  0
ENDTAB
  0
TABLE
  2
LAYER
  5
2
100
AcDbSymbolTable
 70
1
  0
LAYER
  5
10
100
AcDbSymbolTableRecord
100
AcDbLayerTableRecord
  2
0
 70
0
 62
7
420
16777215
  6
Continuous
370
25
390
F
  0
ENDTAB
  0
TABLE
  2
STYLE
  5
3
100
AcDbSymbolTable
 70
1
  0
STYLE
  5
57
100
AcDbSymbolTableRecord
100
AcDbTextStyleTableRecord
  2
Standard
 70
0
 40
0.0
 41
1.0
 50
0.0
 71
0
 42
2.5
  3

  4

1001
ACAD
1000
txt
1071
0
  0
ENDTAB
  0
TABLE
  2
VIEW
  5
6
100
AcDbSymbolTable
 70
0
  0
ENDTAB
  0
TABLE
  2
UCS
  5
7
100
AcDbSymbolTable
 70
0
  0
ENDTAB
  0
TABLE
  2
APPID
  5
9
100
AcDbSymbolTable
 70
1
  0
APPID
  5
12
100
AcDbSymbolTableRecord
100
AcDbRegAppTableRecord
  2
ACAD
 70
0
  0
APPID
  5
58
100
AcDbSymbolTableRecord
100
AcDbRegAppTableRecord
  2
QCAD
 70
0
  0
ENDTAB
  0
TABLE
  2
DIMSTYLE
  5
A
100
AcDbSymbolTable
 70
1
100
AcDbDimStyleTable
 71
0
  0
DIMSTYLE
105
27
100
AcDbSymbolTableRecord
100
AcDbDimStyleTableRecord
  2
Standard
 41
0.125
 42
0.03125
 43
3.75
 44
0.0625
 70
0
 73
0
 74
0
 77
1
 78
8
140
0.125
141
2.5
143
0.03937007874016
147
0.03125
171
3
172
1
271
2
272
2
274
3
278
44
283
0
284
8
340
57
  0
ENDTAB
  0
TABLE
  2
BLOCK_RECORD
  5
1
100
AcDbSymbolTable
 70
1
  0
BLOCK_RECORD
  5
1F
100
AcDbSymbolTableRecord
100
AcDbBlockTableRecord
  2
*Model_Space
340
22
  0
BLOCK_RECORD
  5
1B
100
AcDbSymbolTableRecord
100
AcDbBlockTableRecord
  2
*Paper_Space
340
1E
  0
BLOCK_RECORD
  5
23
100
AcDbSymbolTableRecord
100
AcDbBlockTableRecord
  2
*Paper_Space0
340
26
  0
ENDTAB
  0
ENDSEC
  0
SECTION
  2
BLOCKS
  0
BLOCK
  5
20
100
AcDbEntity
  8
0
100
AcDbBlockBegin
  2
*Model_Space
 70
0
 10
0.0
 20
0.0
 30
0.0
  3
*Model_Space
  1

  0
ENDBLK
  5
21
100
AcDbEntity
  8
0
100
AcDbBlockEnd
  0
BLOCK
  5
1C
100
AcDbEntity
 67
1
  8
0
100
AcDbBlockBegin
  2
*Paper_Space
 70
0
 10
0.0
 20
0.0
 30
0.0
  3
*Paper_Space
  1

  0
ENDBLK
  5
1D
100
AcDbEntity
 67
1
  8
0
100
AcDbBlockEnd
  0
BLOCK
  5
24
100
AcDbEntity
  8
0
100
AcDbBlockBegin
  2
*Paper_Space0
 70
0
 10
0.0
 20
0.0
 30
0.0
  3
*Paper_Space0
  1

  0
ENDBLK
  5
25
100
AcDbEntity
  8
0
100
AcDbBlockEnd
  0
ENDSEC
  0
SECTION
  2
ENTITIES
  0
LINE
  5
59
100
AcDbEntity
  8
0
 62
0
370
-1
 48
1.0
  6
BYLAYER
100
AcDbLine
 10
8.4988500000000613
 20
103.7508310000000051
 30
0.0
 11
8.4988500000000613
 21
8.5011109999999803
 31
0.0
  0
LINE
  5
5A
100
AcDbEntity
  8
0
 62
0
370
-1
 48
1.0
  6
BYLAYER
100
AcDbLine
 10
8.4988500000000613
 20
8.5011109999999803
 30
0.0
 11
322.825019999999995
 21
8.5011109999999803
 31
0.0
  0
LINE
  5
5B
100
AcDbEntity
  8
0
 62
0
370
-1
 48
1.0
  6
BYLAYER
100
AcDbLine
 10
322.825019999999995
 20
8.5011109999999803
 30
0.0
 11
322.825019999999995
 21
103.7508310000000051
 31
0.0
  0
LINE
  5
5C
100
AcDbEntity
  8
0
 62
0
370
-1
 48
1.0
  6
BYLAYER
100
AcDbLine
 10
29.661420000000021
 20
112.2508310000000051
 30
0.0
 11
326.325019999999995
 21
112.2508310000000051
 31
0.0
  0
LINE
  5
5D
100
AcDbEntity
  8
0
 62
0
370
-1
 48
1.0
  6
BYLAYER
100
AcDbLine
 10
326.325019999999995
 20
112.2508310000000051
 30
0.0
 11
326.7180200000000241
 21
112.2358310000000188
 31
0.0
  0
LINE
  5
5E
100
AcDbEntity
  8
0
 62
0
370
-1
 48
1.0
  6
BYLAYER
100
AcDbLine
 10
326.7180200000000241
 20
112.2358310000000188
 30
0.0
 11
327.1080199999998968
 21
112.1888309999999933
 31
0.0
  0
LINE
  5
5F
100
AcDbEntity
  8
0
 62
0
370
-1
 48
1.0
  6
BYLAYER
100
AcDbLine
 10
327.1080199999998968
 20
112.1888309999999933
 30
0.0
 11
327.4930199999998877
 21
112.1128309999999715
 31
0.0
  0
LINE
  5
60
100
AcDbEntity
  8
0
 62
0
370
-1
 48
1.0
  6
BYLAYER
100
AcDbLine
 10
327.4930199999998877
 20
112.1128309999999715
 30
0.0
 11
327.8700200000000677
 21
112.0068309999999769
 31
0.0
  0
LINE
  5
61
100
AcDbEntity
  8
0
 62
0
370
-1
 48
1.0
  6
BYLAYER
100
AcDbLine
 10
327.8700200000000677
 20
112.0068309999999769
 30
0.0
 11
328.2380200000000059
 21
111.8708310000000097
 31
0.0
  0
LINE
  5
62
100
AcDbEntity
  8
0
 62
0
370
-1
 48
1.0
  6
BYLAYER
100
AcDbLine
 10
328.2380200000000059
 20
111.8708310000000097
 30
0.0
 11
328.5950199999999768
 21
111.7068310000000224
 31
0.0
  0
LINE
  5
63
100
AcDbEntity
  8
0
 62
0
370
-1
 48
1.0
  6
BYLAYER
100
AcDbLine
 10
328.5950199999999768
 20
111.7068310000000224
 30
0.0
 11
328.9380200000000514
 21
111.5148310000000151
 31
0.0
  0
LINE
  5
64
100
AcDbEntity
  8
0
 62
0
370
-1
 48
1.0
  6
BYLAYER
100
AcDbLine
 10
328.9380200000000514
 20
111.5148310000000151
 30
0.0
 11
329.2630199999998695
 21
111.295831000000021
 31
0.0
  0
LINE
  5
65
100
AcDbEntity
  8
0
 62
0
370
-1
 48
1.0
  6
BYLAYER
100
AcDbLine
 10
329.2630199999998695
 20
111.295831000000021
 30
0.0
 11
329.5720200000000659
 21
111.0538310000000024
 31
0.0
  0
LINE
  5
66
100
AcDbEntity
  8
0
 62
0
370
-1
 48
1.0
  6
BYLAYER
100
AcDbLine
 10
329.5720200000000659
 20
111.0538310000000024
 30
0.0
 11
329.8600200000000768
 21
110.7858309999999733
 31
0.0
  0
LINE
  5
67
100
AcDbEntity
  8
0
 62
0
370
-1
 48
1.0
  6
BYLAYER
100
AcDbLine
 10
329.8600200000000768
 20
110.7858309999999733
 30
0.0
 11
330.1270199999999022
 21
110.4978310000000192
 31
0.0
  0
LINE
  5
68
100
AcDbEntity
  8
0
 62
0
370
-1
 48
1.0
  6
BYLAYER
100
AcDbLine
 10
330.1270199999999022
 20
110.4978310000000192
 30
0.0
 11
330.3700200000000677
 21
110.1898309999999697
 31
0.0
  0
LINE
  5
69
100
AcDbEntity
  8
0
 62
0
370
-1
 48
1.0
  6
BYLAYER
100
AcDbLine
 10
330.3700200000000677
 20
110.1898309999999697
 30
0.0
 11
330.5890199999998913
 21
109.8638310000000047
 31
0.0
  0
LINE
  5
6A
100
AcDbEntity
  8
0
 62
0
370
-1
 48
1.0
  6
BYLAYER
100
AcDbLine
 10
330.5890199999998913
 20
109.8638310000000047
 30
0.0
 11
330.7810199999998986
 21
109.5208309999999869
 31
0.0
  0
LINE
  5
6B
100
AcDbEntity
  8
0
 62
0
370
-1
 48
1.0
  6
BYLAYER
100
AcDbLine
 10
330.7810199999998986
 20
109.5208309999999869
 30
0.0
 11
330.9450199999998858
 21
109.163831000000016
 31
0.0
  0
LINE
  5
6C
100
AcDbEntity
  8
0
 62
0
370
-1
 48
1.0
  6
BYLAYER
100
AcDbLine
 10
330.9450199999998858
 20
109.163831000000016
 30
0.0
 11
331.0810200000000805
 21
108.795831000000021
 31
0.0
  0
LINE
  5
6D
100
AcDbEntity
  8
0
 62
0
370
-1
 48
1.0
  6
BYLAYER
100
AcDbLine
 10
331.0810200000000805
 20
108.795831000000021
 30
0.0
 11
331.187020000000075
 21
108.4188310000000115
 31
0.0
  0
LINE
  5
6E
100
AcDbEntity
  8
0
 62
0
370
-1
 48
1.0
  6
BYLAYER
100
AcDbLine
 10
331.187020000000075
 20
108.4188310000000115
 30
0.0
 11
331.2630199999998695
 21
108.0338310000000206
 31
0.0
  0
LINE
  5
6F
100
AcDbEntity
  8
0
 62
0
370
-1
 48
1.0
  6
BYLAYER
100
AcDbLine
 10
331.2630199999998695
 20
108.0338310000000206
 30
0.0
 11
331.3100199999998949
 21
107.6438310000000342
 31
0.0
  0
LINE
  5
70
100
AcDbEntity
  8
0
 62
0
370
-1
 48
1.0
  6
BYLAYER
100
AcDbLine
 10
331.3100199999998949
 20
107.6438310000000342
 30
0.0
 11
331.325019999999995
 21
107.2498310000000288
 31
0.0
  0
LINE
  5
71
100
AcDbEntity
  8
0
 62
0
370
-1
 48
1.0
  6
BYLAYER
100
AcDbLine
 10
331.325019999999995
 20
107.2498310000000288
 30
0.0
 11
331.325019999999995
 21
5.0008809999999926
 31
0.0
  0
LINE
  5
72
100
AcDbEntity
  8
0
 62
0
370
-1
 48
1.0
  6
BYLAYER
100
AcDbLine
 10
331.325019999999995
 20
5.0008809999999926
 30
0.0
 11
331.3100199999998949
 21
4.6068010000000186
 31
0.0
  0
LINE
  5
73
100
AcDbEntity
  8
0
 62
0
370
-1
 48
1.0
  6
BYLAYER
100
AcDbLine
 10
331.3100199999998949
 20
4.6068010000000186
 30
0.0
 11
331.2630199999998695
 21
4.2168009999999754
 31
0.0
  0
LINE
  5
74
100
AcDbEntity
  8
0
 62
0
370
-1
 48
1.0
  6
BYLAYER
100
AcDbLine
 10
331.2630199999998695
 20
4.2168009999999754
 30
0.0
 11
331.187020000000075
 21
3.8323110000000042
 31
0.0
  0
LINE
  5
75
100
AcDbEntity
  8
0
 62
0
370
-1
 48
1.0
  6
BYLAYER
100
AcDbLine
 10
331.187020000000075
 20
3.8323110000000042
 30
0.0
 11
331.0810200000000805
 21
3.4547309999999811
 31
0.0
  0
LINE
  5
76
100
AcDbEntity
  8
0
 62
0
370
-1
 48
1.0
  6
BYLAYER
100
AcDbLine
 10
331.0810200000000805
 20
3.4547309999999811
 30
0.0
 11
330.9450199999998858
 21
3.0868009999999799
 31
0.0
  0
LINE
  5
77
100
AcDbEntity
  8
0
 62
0
370
-1
 48
1.0
  6
BYLAYER
100
AcDbLine
 10
330.9450199999998858
 20
3.0868009999999799
 30
0.0
 11
330.7810199999998986
 21
2.7298910000000092
 31
0.0
  0
LINE
  5
78
100
AcDbEntity
  8
0
 62
0
370
-1
 48
1.0
  6
BYLAYER
100
AcDbLine
 10
330.7810199999998986
 20
2.7298910000000092
 30
0.0
 11
330.5890199999998913
 21
2.3881410000000187
 31
0.0
  0
LINE
  5
79
100
AcDbEntity
  8
0
 62
0
370
-1
 48
1.0
  6
BYLAYER
100
AcDbLine
 10
330.5890199999998913
 20
2.3881410000000187
 30
0.0
 11
330.3700200000000677
 21
2.061540999999977
 31
0.0
  0
LINE
  5
7A
100
AcDbEntity
  8
0
 62
0
370
-1
 48
1.0
  6
BYLAYER
100
AcDbLine
 10
330.3700200000000677
 20
2.061540999999977
 30
0.0
 11
330.1270199999999022
 21
1.7528609999999958
 31
0.0
  0
LINE
  5
7B
100
AcDbEntity
  8
0
 62
0
370
-1
 48
1.0
  6
BYLAYER
100
AcDbLine
 10
330.1270199999999022
 20
1.7528609999999958
 30
0.0
 11
329.8600200000000768
 21
1.4648609999999849
 31
0.0
  0
LINE
  5
7C
100
AcDbEntity
  8
0
 62
0
370
-1
 48
1.0
  6
BYLAYER
100
AcDbLine
 10
329.8600200000000768
 20
1.4648609999999849
 30
0.0
 11
329.5720200000000659
 21
1.19751100000002
 31
0.0
  0
LINE
  5
7D
100
AcDbEntity
  8
0
 62
0
370
-1
 48
1.0
  6
BYLAYER
100
AcDbLine
 10
329.5720200000000659
 20
1.19751100000002
 30
0.0
 11
329.2630199999998695
 21
0.9549809999999752
 31
0.0
  0
LINE
  5
7E
100
AcDbEntity
  8
0
 62
0
370
-1
 48
1.0
  6
BYLAYER
100
AcDbLine
 10
329.2630199999998695
 20
0.9549809999999752
 30
0.0
 11
328.9380200000000514
 21
0.7358730000000264
 31
0.0
  0
LINE
  5
7F
100
AcDbEntity
  8
0
 62
0
370
-1
 48
1.0
  6
BYLAYER
100
AcDbLine
 10
328.9380200000000514
 20
0.7358730000000264
 30
0.0
 11
328.5950199999999768
 21
0.5443250000000148
 31
0.0
  0
LINE
  5
80
100
AcDbEntity
  8
0
 62
0
370
-1
 48
1.0
  6
BYLAYER
100
AcDbLine
 10
328.5950199999999768
 20
0.5443250000000148
 30
0.0
 11
328.2380200000000059
 21
0.3803399999999897
 31
0.0
  0
LINE
  5
81
100
AcDbEntity
  8
0
 62
0
370
-1
 48
1.0
  6
BYLAYER
100
AcDbLine
 10
328.2380200000000059
 20
0.3803399999999897
 30
0.0
 11
327.8700200000000677
 21
0.2439130000000205
 31
0.0
  0
LINE
  5
82
100
AcDbEntity
  8
0
 62
0
370
-1
 48
1.0
  6
BYLAYER
100
AcDbLine
 10
327.8700200000000677
 20
0.2439130000000205
 30
0.0
 11
327.4930199999998877
 21
0.1378040000000169
 31
0.0
  0
LINE
  5
83
100
AcDbEntity
  8
0
 62
0
370
-1
 48
1.0
  6
BYLAYER
100
AcDbLine
 10
327.4930199999998877
 20
0.1378040000000169
 30
0.0
 11
327.1080199999998968
 21
0.0620119999999815
 31
0.0
  0
LINE
  5
84
100
AcDbEntity
  8
0
 62
0
370
-1
 48
1.0
  6
BYLAYER
100
AcDbLine
 10
327.1080199999998968
 20
0.0620119999999815
 30
0.0
 11
326.7180200000000241
 21
0.0151589999999828
 31
0.0
  0
LINE
  5
85
100
AcDbEntity
  8
0
 62
0
370
-1
 48
1.0
  6
BYLAYER
100
AcDbLine
 10
326.7180200000000241
 20
0.0151589999999828
 30
0.0
 11
326.325019999999995
 21
0.0
 31
0.0
  0
LINE
  5
86
100
AcDbEntity
  8
0
 62
0
370
-1
 48
1.0
  6
BYLAYER
100
AcDbLine
 10
326.325019999999995
 20
0.0
 30
0.0
 11
5.0
 21
0.0
 31
0.0
  0
LINE
  5
87
100
AcDbEntity
  8
0
 62
0
370
-1
 48
1.0
  6
BYLAYER
100
AcDbLine
 10
5.0
 20
0.0
 30
0.0
 11
4.6058799999999565
 21
0.0151589999999828
 31
0.0
  0
LINE
  5
88
100
AcDbEntity
  8
0
 62
0
370
-1
 48
1.0
  6
BYLAYER
100
AcDbLine
 10
4.6058799999999565
 20
0.0151589999999828
 30
0.0
 11
4.2159199999999828
 21
0.0620119999999815
 31
0.0
  0
LINE
  5
89
100
AcDbEntity
  8
0
 62
0
370
-1
 48
1.0
  6
BYLAYER
100
AcDbLine
 10
4.2159199999999828
 20
0.0620119999999815
 30
0.0
 11
3.8314199999999801
 21
0.1378040000000169
 31
0.0
  0
LINE
  5
8A
100
AcDbEntity
  8
0
 62
0
370
-1
 48
1.0
  6
BYLAYER
100
AcDbLine
 10
3.8314199999999801
 20
0.1378040000000169
 30
0.0
 11
3.4538499999999885
 21
0.2439130000000205
 31
0.0
  0
LINE
  5
8B
100
AcDbEntity
  8
0
 62
0
370
-1
 48
1.0
  6
BYLAYER
100
AcDbLine
 10
3.4538499999999885
 20
0.2439130000000205
 30
0.0
 11
3.0859100000000126
 21
0.3803399999999897
 31
0.0
  0
LINE
  5
8C
100
AcDbEntity
  8
0
 62
0
370
-1
 48
1.0
  6
BYLAYER
100
AcDbLine
 10
3.0859100000000126
 20
0.3803399999999897
 30
0.0
 11
2.7289999999999281
 21
0.5443250000000148
 31
0.0
  0
LINE
  5
8D
100
AcDbEntity
  8
0
 62
0
370
-1
 48
1.0
  6
BYLAYER
100
AcDbLine
 10
2.7289999999999281
 20
0.5443250000000148
 30
0.0
 11
2.3858699999999544
 21
0.7358730000000264
 31
0.0
  0
LINE
  5
8E
100
AcDbEntity
  8
0
 62
0
370
-1
 48
1.0
  6
BYLAYER
100
AcDbLine
 10
2.3858699999999544
 20
0.7358730000000264
 30
0.0
 11
2.0606500000000096
 21
0.9549809999999752
 31
0.0
  0
LINE
  5
8F
100
AcDbEntity
  8
0
 62
0
370
-1
 48
1.0
  6
BYLAYER
100
AcDbLine
 10
2.0606500000000096
 20
0.9549809999999752
 30
0.0
 11
1.7519700000000284
 21
1.19751100000002
 31
0.0
  0
LINE
  5
90
100
AcDbEntity
  8
0
 62
0
370
-1
 48
1.0
  6
BYLAYER
100
AcDbLine
 10
1.7519700000000284
 20
1.19751100000002
 30
0.0
 11
1.4639599999999291
 21
1.4648609999999849
 31
0.0
  0
LINE
  5
91
100
AcDbEntity
  8
0
 62
0
370
-1
 48
1.0
  6
BYLAYER
100
AcDbLine
 10
1.4639599999999291
 20
1.4648609999999849
 30
0.0
 11
1.1966200000000526
 21
1.7528609999999958
 31
0.0
  0
LINE
  5
92
100
AcDbEntity
  8
0
 62
0
370
-1
 48
1.0
  6
BYLAYER
100
AcDbLine
 10
1.1966200000000526
 20
1.7528609999999958
 30
0.0
 11
0.9540799999999763
 21
2.061540999999977
 31
0.0
  0
LINE
  5
93
100
AcDbEntity
  8
0
 62
0
370
-1
 48
1.0
  6
BYLAYER
100
AcDbLine
 10
0.9540799999999763
 20
2.061540999999977
 30
0.0
 11
0.734976999999958
 21
2.3881410000000187
 31
0.0
  0
LINE
  5
94
100
AcDbEntity
  8
0
 62
0
370
-1
 48
1.0
  6
BYLAYER
100
AcDbLine
 10
0.734976999999958
 20
2.3881410000000187
 30
0.0
 11
0.5434300000000576
 21
2.7298910000000092
 31
0.0
  0
LINE
  5
95
100
AcDbEntity
  8
0
 62
0
370
-1
 48
1.0
  6
BYLAYER
100
AcDbLine
 10
0.5434300000000576
 20
2.7298910000000092
 30
0.0
 11
0.379444000000035
 21
3.0868009999999799
 31
0.0
  0
LINE
  5
96
100
AcDbEntity
  8
0
 62
0
370
-1
 48
1.0
  6
BYLAYER
100
AcDbLine
 10
0.379444000000035
 20
3.0868009999999799
 30
0.0
 11
0.2430180000000064
 21
3.4547309999999811
 31
0.0
  0
LINE
  5
97
100
AcDbEntity
  8
0
 62
0
370
-1
 48
1.0
  6
BYLAYER
100
AcDbLine
 10
0.2430180000000064
 20
3.4547309999999811
 30
0.0
 11
0.1369080000000622
 21
3.8323110000000042
 31
0.0
  0
LINE
  5
98
100
AcDbEntity
  8
0
 62
0
370
-1
 48
1.0
  6
BYLAYER
100
AcDbLine
 10
0.1369080000000622
 20
3.8323110000000042
 30
0.0
 11
0.0611170000000811
 21
4.2168009999999754
 31
0.0
  0
LINE
  5
99
100
AcDbEntity
  8
0
 62
0
370
-1
 48
1.0
  6
BYLAYER
100
AcDbLine
 10
0.0611170000000811
 20
4.2168009999999754
 30
0.0
 11
0.0142630000000281
 21
4.6068010000000186
 31
0.0
  0
LINE
  5
9A
100
AcDbEntity
  8
0
 62
0
370
-1
 48
1.0
  6
BYLAYER
100
AcDbLine
 10
0.0142630000000281
 20
4.6068010000000186
 30
0.0
 11
-0.0008953999999903
 21
5.0008809999999926
 31
0.0
  0
LINE
  5
9B
100
AcDbEntity
  8
0
 62
0
370
-1
 48
1.0
  6
BYLAYER
100
AcDbLine
 10
-0.0008953999999903
 20
5.0008809999999926
 30
0.0
 11
-0.0008953999999903
 21
107.2498310000000288
 31
0.0
  0
LINE
  5
9C
100
AcDbEntity
  8
0
 62
0
370
-1
 48
1.0
  6
BYLAYER
100
AcDbLine
 10
-0.0008953999999903
 20
107.2498310000000288
 30
0.0
 11
0.0142630000000281
 21
107.6438310000000342
 31
0.0
  0
LINE
  5
9D
100
AcDbEntity
  8
0
 62
0
370
-1
 48
1.0
  6
BYLAYER
100
AcDbLine
 10
0.0142630000000281
 20
107.6438310000000342
 30
0.0
 11
0.0611170000000811
 21
108.0338310000000206
 31
0.0
  0
LINE
  5
9E
100
AcDbEntity
  8
0
 62
0
370
-1
 48
1.0
  6
BYLAYER
100
AcDbLine
 10
0.0611170000000811
 20
108.0338310000000206
 30
0.0
 11
0.1369080000000622
 21
108.4188310000000115
 31
0.0
  0
LINE
  5
9F
100
AcDbEntity
  8
0
 62
0
370
-1
 48
1.0
  6
BYLAYER
100
AcDbLine
 10
0.1369080000000622
 20
108.4188310000000115
 30
0.0
 11
0.2430180000000064
 21
108.795831000000021
 31
0.0
  0
LINE
  5
A0
100
AcDbEntity
  8
0
 62
0
370
-1
 48
1.0
  6
BYLAYER
100
AcDbLine
 10
0.2430180000000064
 20
108.795831000000021
 30
0.0
 11
0.379444000000035
 21
109.163831000000016
 31
0.0
  0
LINE
  5
A1
100
AcDbEntity
  8
0
 62
0
370
-1
 48
1.0
  6
BYLAYER
100
AcDbLine
 10
0.379444000000035
 20
109.163831000000016
 30
0.0
 11
0.5434300000000576
 21
109.5208309999999869
 31
0.0
  0
LINE
  5
A2
100
AcDbEntity
  8
0
 62
0
370
-1
 48
1.0
  6
BYLAYER
100
AcDbLine
 10
0.5434300000000576
 20
109.5208309999999869
 30
0.0
 11
0.734976999999958
 21
109.8638310000000047
 31
0.0
  0
LINE
  5
A3
100
AcDbEntity
  8
0
 62
0
370
-1
 48
1.0
  6
BYLAYER
100
AcDbLine
 10
0.734976999999958
 20
109.8638310000000047
 30
0.0
 11
0.9540799999999763
 21
110.1898309999999697
 31
0.0
  0
LINE
  5
A4
100
AcDbEntity
  8
0
 62
0
370
-1
 48
1.0
  6
BYLAYER
100
AcDbLine
 10
0.9540799999999763
 20
110.1898309999999697
 30
0.0
 11
1.1966200000000526
 21
110.4978310000000192
 31
0.0
  0
LINE
  5
A5
100
AcDbEntity
  8
0
 62
0
370
-1
 48
1.0
  6
BYLAYER
100
AcDbLine
 10
1.1966200000000526
 20
110.4978310000000192
 30
0.0
 11
1.4639599999999291
 21
110.7858309999999733
 31
0.0
  0
LINE
  5
A6
100
AcDbEntity
  8
0
 62
0
370
-1
 48
1.0
  6
BYLAYER
100
AcDbLine
 10
1.4639599999999291
 20
110.7858309999999733
 30
0.0
 11
1.7519700000000284
 21
111.0538310000000024
 31
0.0
  0
LINE
  5
A7
100
AcDbEntity
  8
0
 62
0
370
-1
 48
1.0
  6
BYLAYER
100
AcDbLine
 10
1.7519700000000284
 20
111.0538310000000024
 30
0.0
 11
2.0606500000000096
 21
111.295831000000021
 31
0.0
  0
LINE
  5
A8
100
AcDbEntity
  8
0
 62
0
370
-1
 48
1.0
  6
BYLAYER
100
AcDbLine
 10
2.0606500000000096
 20
111.295831000000021
 30
0.0
 11
2.3858699999999544
 21
111.5148310000000151
 31
0.0
  0
LINE
  5
A9
100
AcDbEntity
  8
0
 62
0
370
-1
 48
1.0
  6
BYLAYER
100
AcDbLine
 10
2.3858699999999544
 20
111.5148310000000151
 30
0.0
 11
2.7289999999999281
 21
111.7068310000000224
 31
0.0
  0
LINE
  5
AA
100
AcDbEntity
  8
0
 62
0
370
-1
 48
1.0
  6
BYLAYER
100
AcDbLine
 10
2.7289999999999281
 20
111.7068310000000224
 30
0.0
 11
3.0859100000000126
 21
111.8708310000000097
 31
0.0
  0
LINE
  5
AB
100
AcDbEntity
  8
0
 62
0
370
-1
 48
1.0
  6
BYLAYER
100
AcDbLine
 10
3.0859100000000126
 20
111.8708310000000097
 30
0.0
 11
3.4538499999999885
 21
112.0068309999999769
 31
0.0
  0
LINE
  5
AC
100
AcDbEntity
  8
0
 62
0
370
-1
 48
1.0
  6
BYLAYER
100
AcDbLine
 10
3.4538499999999885
 20
112.0068309999999769
 30
0.0
 11
3.8314199999999801
 21
112.1128309999999715
 31
0.0
  0
LINE
  5
AD
100
AcDbEntity
  8
0
 62
0
370
-1
 48
1.0
  6
BYLAYER
100
AcDbLine
 10
3.8314199999999801
 20
112.1128309999999715
 30
0.0
 11
4.2159199999999828
 21
112.1888309999999933
 31
0.0
  0
LINE
  5
AE
100
AcDbEntity
  8
0
 62
0
370
-1
 48
1.0
  6
BYLAYER
100
AcDbLine
 10
4.2159199999999828
 20
112.1888309999999933
 30
0.0
 11
4.6058799999999565
 21
112.2358310000000188
 31
0.0
  0
LINE
  5
AF
100
AcDbEntity
  8
0
 62
0
370
-1
 48
1.0
  6
BYLAYER
100
AcDbLine
 10
4.6058799999999565
 20
112.2358310000000188
 30
0.0
 11
5.0
 21
112.2508310000000051
 31
0.0
  0
LINE
  5
B0
100
AcDbEntity
  8
0
 62
0
370
-1
 48
1.0
  6
BYLAYER
100
AcDbLine
 10
5.0
 20
112.2508310000000051
 30
0.0
 11
21.6619200000000092
 21
112.2508310000000051
 31
0.0
  0
LINE
  5
B1
100
AcDbEntity
  8
0
 62
0
370
-1
 48
1.0
  6
BYLAYER
100
AcDbLine
 10
4.4402160870764646
 20
108.4499052532228234
 30
0.0
 11
4.1612160870764683
 21
108.3089052532228607
 31
0.0
  0
LINE
  5
B2
100
AcDbEntity
  8
0
 62
0
370
-1
 48
1.0
  6
BYLAYER
100
AcDbLine
 10
165.3549110848758801
 20
108.4499052532228234
 30
0.0
 11
165.0759110848758837
 21
108.3089052532228607
 31
0.0
  0
LINE
  5
B3
100
AcDbEntity
  8
0
 62
0
370
-1
 48
1.0
  6
BYLAYER
100
AcDbLine
 10
326.2669391595336492
 20
108.4499052532228234
 30
0.0
 11
325.9879391595336529
 21
108.3089052532228607
 31
0.0
  0
LINE
  5
B4
100
AcDbEntity
  8
0
 62
0
370
-1
 48
1.0
  6
BYLAYER
100
AcDbLine
 10
165.3549673382050287
 20
5.7001309999998844
 30
0.0
 11
165.0759673382050323
 21
5.5591309999999217
 31
0.0
  0
LINE
  5
B5
100
AcDbEntity
  8
0
 62
0
370
-1
 48
1.0
  6
BYLAYER
100
AcDbLine
 10
326.266929535647364
 20
5.7001309999998844
 30
0.0
 11
325.9879295356473676
 21
5.5591309999999217
 31
0.0
  0
LINE
  5
B6
100
AcDbEntity
  8
0
 62
0
370
-1
 48
1.0
  6
BYLAYER
100
AcDbLine
 10
4.4402476175558832
 20
5.7001309999998835
 30
0.0
 11
4.1612476175558868
 21
5.5591309999999208
 31
0.0
  0
LINE
  5
B7
100
AcDbEntity
  8
0
 62
0
370
-1
 48
1.0
  6
BYLAYER
100
AcDbLine
 10
4.1612160870764683
 20
108.3089052532228607
 30
0.0
 11
3.9392160870764883
 21
108.0869052532228807
 31
0.0
  0
LINE
  5
B8
100
AcDbEntity
  8
0
 62
0
370
-1
 48
1.0
  6
BYLAYER
100
AcDbLine
 10
165.0759110848758837
 20
108.3089052532228607
 30
0.0
 11
164.8539110848759037
 21
108.0869052532228807
 31
0.0
  0
LINE
  5
B9
100
AcDbEntity
  8
0
 62
0
370
-1
 48
1.0
  6
BYLAYER
100
AcDbLine
 10
325.9879391595336529
 20
108.3089052532228607
 30
0.0
 11
325.7659391595336729
 21
108.0869052532228807
 31
0.0
  0
LINE
  5
BA
100
AcDbEntity
  8
0
 62
0
370
-1
 48
1.0
  6
BYLAYER
100
AcDbLine
 10
165.0759673382050323
 20
5.5591309999999217
 30
0.0
 11
164.8539673382050523
 21
5.3371309999999417
 31
0.0
  0
LINE
  5
BB
100
AcDbEntity
  8
0
 62
0
370
-1
 48
1.0
  6
BYLAYER
100
AcDbLine
 10
325.9879295356473676
 20
5.5591309999999217
 30
0.0
 11
325.7659295356473876
 21
5.3371309999999417
 31
0.0
  0
LINE
  5
BC
100
AcDbEntity
  8
0
 62
0
370
-1
 48
1.0
  6
BYLAYER
100
AcDbLine
 10
4.1612476175558868
 20
5.5591309999999208
 30
0.0
 11
3.9392476175559068
 21
5.3371309999999408
 31
0.0
  0
LINE
  5
BD
100
AcDbEntity
  8
0
 62
0
370
-1
 48
1.0
  6
BYLAYER
100
AcDbLine
 10
3.9392160870764883
 20
108.0869052532228807
 30
0.0
 11
3.7982160870765256
 21
107.8079052532228843
 31
0.0
  0
LINE
  5
BE
100
AcDbEntity
  8
0
 62
0
370
-1
 48
1.0
  6
BYLAYER
100
AcDbLine
 10
164.8539110848759037
 20
108.0869052532228807
 30
0.0
 11
164.712911084875941
 21
107.8079052532228843
 31
0.0
  0
LINE
  5
BF
100
AcDbEntity
  8
0
 62
0
370
-1
 48
1.0
  6
BYLAYER
100
AcDbLine
 10
325.7659391595336729
 20
108.0869052532228807
 30
0.0
 11
325.6249391595338238
 21
107.8079052532228843
 31
0.0
  0
LINE
  5
C0
100
AcDbEntity
  8
0
 62
0
370
-1
 48
1.0
  6
BYLAYER
100
AcDbLine
 10
164.8539673382050523
 20
5.3371309999999417
 30
0.0
 11
164.7129673382050896
 21
5.0581309999999453
 31
0.0
  0
LINE
  5
C1
100
AcDbEntity
  8
0
 62
0
370
-1
 48
1.0
  6
BYLAYER
100
AcDbLine
 10
325.7659295356473876
 20
5.3371309999999417
 30
0.0
 11
325.6249295356474249
 21
5.0581309999999453
 31
0.0
  0
LINE
  5
C2
100
AcDbEntity
  8
0
 62
0
370
-1
 48
1.0
  6
BYLAYER
100
AcDbLine
 10
3.9392476175559068
 20
5.3371309999999408
 30
0.0
 11
3.7982476175559441
 21
5.0581309999999444
 31
0.0
  0
LINE
  5
C3
100
AcDbEntity
  8
0
 62
0
370
-1
 48
1.0
  6
BYLAYER
100
AcDbLine
 10
3.7982160870765256
 20
107.8079052532228843
 30
0.0
 11
3.7492160870764337
 21
107.4999052532228916
 31
0.0
  0
LINE
  5
C4
100
AcDbEntity
  8
0
 62
0
370
-1
 48
1.0
  6
BYLAYER
100
AcDbLine
 10
164.712911084875941
 20
107.8079052532228843
 30
0.0
 11
164.6639110848758492
 21
107.4999052532228916
 31
0.0
  0
LINE
  5
C5
100
AcDbEntity
  8
0
 62
0
370
-1
 48
1.0
  6
BYLAYER
100
AcDbLine
 10
325.6249391595338238
 20
107.8079052532228843
 30
0.0
 11
325.5759391595336183
 21
107.4999052532228916
 31
0.0
  0
LINE
  5
C6
100
AcDbEntity
  8
0
 62
0
370
-1
 48
1.0
  6
BYLAYER
100
AcDbLine
 10
164.7129673382050896
 20
5.0581309999999453
 30
0.0
 11
164.6639673382049978
 21
4.7501309999999526
 31
0.0
  0
LINE
  5
C7
100
AcDbEntity
  8
0
 62
0
370
-1
 48
1.0
  6
BYLAYER
100
AcDbLine
 10
325.6249295356474249
 20
5.0581309999999453
 30
0.0
 11
325.5759295356473331
 21
4.7501309999999526
 31
0.0
  0
LINE
  5
C8
100
AcDbEntity
  8
0
 62
0
370
-1
 48
1.0
  6
BYLAYER
100
AcDbLine
 10
3.7982476175559441
 20
5.0581309999999444
 30
0.0
 11
3.7492476175558522
 21
4.7501309999999517
 31
0.0
  0
LINE
  5
C9
100
AcDbEntity
  8
0
 62
0
370
-1
 48
1.0
  6
BYLAYER
100
AcDbLine
 10
3.7492160870764337
 20
107.4999052532228916
 30
0.0
 11
3.7982160870765256
 21
107.1899052532228325
 31
0.0
  0
LINE
  5
CA
100
AcDbEntity
  8
0
 62
0
370
-1
 48
1.0
  6
BYLAYER
100
AcDbLine
 10
164.6639110848758492
 20
107.4999052532228916
 30
0.0
 11
164.712911084875941
 21
107.1899052532228325
 31
0.0
  0
LINE
  5
CB
100
AcDbEntity
  8
0
 62
0
370
-1
 48
1.0
  6
BYLAYER
100
AcDbLine
 10
325.5759391595336183
 20
107.4999052532228916
 30
0.0
 11
325.6249391595338238
 21
107.1899052532228325
 31
0.0
  0
LINE
  5
CC
100
AcDbEntity
  8
0
 62
0
370
-1
 48
1.0
  6
BYLAYER
100
AcDbLine
 10
164.6639673382049978
 20
4.7501309999999526
 30
0.0
 11
164.7129673382050896
 21
4.4401309999998935
 31
0.0
  0
LINE
  5
CD
100
AcDbEntity
  8
0
 62
0
370
-1
 48
1.0
  6
BYLAYER
100
AcDbLine
 10
325.5759295356473331
 20
4.7501309999999526
 30
0.0
 11
325.6249295356474249
 21
4.4401309999998935
 31
0.0
  0
LINE
  5
CE
100
AcDbEntity
  8
0
 62
0
370
-1
 48
1.0
  6
BYLAYER
100
AcDbLine
 10
3.7492476175558522
 20
4.7501309999999517
 30
0.0
 11
3.7982476175559441
 21
4.4401309999998926
 31
0.0
  0
LINE
  5
CF
100
AcDbEntity
  8
0
 62
0
370
-1
 48
1.0
  6
BYLAYER
100
AcDbLine
 10
3.7982160870765256
 20
107.1899052532228325
 30
0.0
 11
3.9392160870764883
 21
106.9109052532228361
 31
0.0
  0
LINE
  5
D0
100
AcDbEntity
  8
0
 62
0
370
-1
 48
1.0
  6
BYLAYER
100
AcDbLine
 10
164.712911084875941
 20
107.1899052532228325
 30
0.0
 11
164.8539110848759037
 21
106.9109052532228361
 31
0.0
  0
LINE
  5
D1
100
AcDbEntity
  8
0
 62
0
370
-1
 48
1.0
  6
BYLAYER
100
AcDbLine
 10
325.6249391595338238
 20
107.1899052532228325
 30
0.0
 11
325.7659391595336729
 21
106.9109052532228361
 31
0.0
  0
LINE
  5
D2
100
AcDbEntity
  8
0
 62
0
370
-1
 48
1.0
  6
BYLAYER
100
AcDbLine
 10
164.7129673382050896
 20
4.4401309999998935
 30
0.0
 11
164.8539673382050523
 21
4.1611309999998971
 31
0.0
  0
LINE
  5
D3
100
AcDbEntity
  8
0
 62
0
370
-1
 48
1.0
  6
BYLAYER
100
AcDbLine
 10
325.6249295356474249
 20
4.4401309999998935
 30
0.0
 11
325.7659295356473876
 21
4.1611309999998971
 31
0.0
  0
LINE
  5
D4
100
AcDbEntity
  8
0
 62
0
370
-1
 48
1.0
  6
BYLAYER
100
AcDbLine
 10
3.7982476175559441
 20
4.4401309999998926
 30
0.0
 11
3.9392476175559068
 21
4.1611309999998962
 31
0.0
  0
LINE
  5
D5
100
AcDbEntity
  8
0
 62
0
370
-1
 48
1.0
  6
BYLAYER
100
AcDbLine
 10
3.9392160870764883
 20
106.9109052532228361
 30
0.0
 11
4.1612160870764683
 21
106.6889052532228561
 31
0.0
  0
LINE
  5
D6
100
AcDbEntity
  8
0
 62
0
370
-1
 48
1.0
  6
BYLAYER
100
AcDbLine
 10
164.8539110848759037
 20
106.9109052532228361
 30
0.0
 11
165.0759110848758837
 21
106.6889052532228561
 31
0.0
  0
LINE
  5
D7
100
AcDbEntity
  8
0
 62
0
370
-1
 48
1.0
  6
BYLAYER
100
AcDbLine
 10
325.7659391595336729
 20
106.9109052532228361
 30
0.0
 11
325.9879391595336529
 21
106.6889052532228561
 31
0.0
  0
LINE
  5
D8
100
AcDbEntity
  8
0
 62
0
370
-1
 48
1.0
  6
BYLAYER
100
AcDbLine
 10
164.8539673382050523
 20
4.1611309999998971
 30
0.0
 11
165.0759673382050323
 21
3.9391309999999171
 31
0.0
  0
LINE
  5
D9
100
AcDbEntity
  8
0
 62
0
370
-1
 48
1.0
  6
BYLAYER
100
AcDbLine
 10
325.7659295356473876
 20
4.1611309999998971
 30
0.0
 11
325.9879295356473676
 21
3.9391309999999171
 31
0.0
  0
LINE
  5
DA
100
AcDbEntity
  8
0
 62
0
370
-1
 48
1.0
  6
BYLAYER
100
AcDbLine
 10
3.9392476175559068
 20
4.1611309999998962
 30
0.0
 11
4.1612476175558868
 21
3.9391309999999162
 31
0.0
  0
LINE
  5
DB
100
AcDbEntity
  8
0
 62
0
370
-1
 48
1.0
  6
BYLAYER
100
AcDbLine
 10
4.1612160870764683
 20
106.6889052532228561
 30
0.0
 11
4.4402160870764646
 21
106.5469052532229171
 31
0.0
  0
LINE
  5
DC
100
AcDbEntity
  8
0
 62
0
370
-1
 48
1.0
  6
BYLAYER
100
AcDbLine
 10
165.0759110848758837
 20
106.6889052532228561
 30
0.0
 11
165.3549110848758801
 21
106.5469052532229171
 31
0.0
  0
LINE
  5
DD
100
AcDbEntity
  8
0
 62
0
370
-1
 48
1.0
  6
BYLAYER
100
AcDbLine
 10
325.9879391595336529
 20
106.6889052532228561
 30
0.0
 11
326.2669391595336492
 21
106.5469052532229171
 31
0.0
  0
LINE
  5
DE
100
AcDbEntity
  8
0
 62
0
370
-1
 48
1.0
  6
BYLAYER
100
AcDbLine
 10
165.0759673382050323
 20
3.9391309999999171
 30
0.0
 11
165.3549673382050287
 21
3.7971309999999781
 31
0.0
  0
LINE
  5
DF
100
AcDbEntity
  8
0
 62
0
370
-1
 48
1.0
  6
BYLAYER
100
AcDbLine
 10
325.9879295356473676
 20
3.9391309999999171
 30
0.0
 11
326.266929535647364
 21
3.7971309999999781
 31
0.0
  0
LINE
  5
E0
100
AcDbEntity
  8
0
 62
0
370
-1
 48
1.0
  6
BYLAYER
100
AcDbLine
 10
4.1612476175558868
 20
3.9391309999999162
 30
0.0
 11
4.4402476175558832
 21
3.7971309999999772
 31
0.0
  0
LINE
  5
E1
100
AcDbEntity
  8
0
 62
0
370
-1
 48
1.0
  6
BYLAYER
100
AcDbLine
 10
4.4402160870764646
 20
106.5469052532229171
 30
0.0
 11
4.7502160870765238
 21
106.4989052532229152
 31
0.0
  0
LINE
  5
E2
100
AcDbEntity
  8
0
 62
0
370
-1
 48
1.0
  6
BYLAYER
100
AcDbLine
 10
165.3549110848758801
 20
106.5469052532229171
 30
0.0
 11
165.6649110848759392
 21
106.4989052532229152
 31
0.0
  0
LINE
  5
E3
100
AcDbEntity
  8
0
 62
0
370
-1
 48
1.0
  6
BYLAYER
100
AcDbLine
 10
326.2669391595336492
 20
106.5469052532229171
 30
0.0
 11
326.576939159533822
 21
106.4989052532229152
 31
0.0
  0
LINE
  5
E4
100
AcDbEntity
  8
0
 62
0
370
-1
 48
1.0
  6
BYLAYER
100
AcDbLine
 10
165.3549673382050287
 20
3.7971309999999781
 30
0.0
 11
165.6649673382050878
 21
3.7491309999999762
 31
0.0
  0
LINE
  5
E5
100
AcDbEntity
  8
0
 62
0
370
-1
 48
1.0
  6
BYLAYER
100
AcDbLine
 10
326.266929535647364
 20
3.7971309999999781
 30
0.0
 11
326.5769295356474231
 21
3.7491309999999762
 31
0.0
  0
LINE
  5
E6
100
AcDbEntity
  8
0
 62
0
370
-1
 48
1.0
  6
BYLAYER
100
AcDbLine
 10
4.4402476175558832
 20
3.7971309999999772
 30
0.0
 11
4.7502476175559423
 21
3.7491309999999753
 31
0.0
  0
LINE
  5
E7
100
AcDbEntity
  8
0
 62
0
370
-1
 48
1.0
  6
BYLAYER
100
AcDbLine
 10
4.7502160870765238
 20
106.4989052532229152
 30
0.0
 11
5.0582160870765165
 21
106.5469052532229171
 31
0.0
  0
LINE
  5
E8
100
AcDbEntity
  8
0
 62
0
370
-1
 48
1.0
  6
BYLAYER
100
AcDbLine
 10
165.6649110848759392
 20
106.4989052532229152
 30
0.0
 11
165.9729110848759319
 21
106.5469052532229171
 31
0.0
  0
LINE
  5
E9
100
AcDbEntity
  8
0
 62
0
370
-1
 48
1.0
  6
BYLAYER
100
AcDbLine
 10
326.576939159533822
 20
106.4989052532229152
 30
0.0
 11
326.8849391595338147
 21
106.5469052532229171
 31
0.0
  0
LINE
  5
EA
100
AcDbEntity
  8
0
 62
0
370
-1
 48
1.0
  6
BYLAYER
100
AcDbLine
 10
165.6649673382050878
 20
3.7491309999999762
 30
0.0
 11
165.9729673382050805
 21
3.7971309999999781
 31
0.0
  0
LINE
  5
EB
100
AcDbEntity
  8
0
 62
0
370
-1
 48
1.0
  6
BYLAYER
100
AcDbLine
 10
326.5769295356474231
 20
3.7491309999999762
 30
0.0
 11
326.8849295356474158
 21
3.7971309999999781
 31
0.0
  0
LINE
  5
EC
100
AcDbEntity
  8
0
 62
0
370
-1
 48
1.0
  6
BYLAYER
100
AcDbLine
 10
4.7502476175559423
 20
3.7491309999999753
 30
0.0
 11
5.058247617555935
 21
3.7971309999999772
 31
0.0
  0
LINE
  5
ED
100
AcDbEntity
  8
0
 62
0
370
-1
 48
1.0
  6
BYLAYER
100
AcDbLine
 10
5.0582160870765165
 20
106.5469052532229171
 30
0.0
 11
5.3372160870765128
 21
106.6889052532228561
 31
0.0
  0
LINE
  5
EE
100
AcDbEntity
  8
0
 62
0
370
-1
 48
1.0
  6
BYLAYER
100
AcDbLine
 10
165.9729110848759319
 20
106.5469052532229171
 30
0.0
 11
166.2519110848759283
 21
106.6889052532228561
 31
0.0
  0
LINE
  5
EF
100
AcDbEntity
  8
0
 62
0
370
-1
 48
1.0
  6
BYLAYER
100
AcDbLine
 10
326.8849391595338147
 20
106.5469052532229171
 30
0.0
 11
327.1639391595338111
 21
106.6889052532228561
 31
0.0
  0
LINE
  5
F0
100
AcDbEntity
  8
0
 62
0
370
-1
 48
1.0
  6
BYLAYER
100
AcDbLine
 10
165.9729673382050805
 20
3.7971309999999781
 30
0.0
 11
166.2519673382050769
 21
3.9391309999999171
 31
0.0
  0
LINE
  5
F1
100
AcDbEntity
  8
0
 62
0
370
-1
 48
1.0
  6
BYLAYER
100
AcDbLine
 10
326.8849295356474158
 20
3.7971309999999781
 30
0.0
 11
327.1639295356474122
 21
3.9391309999999171
 31
0.0
  0
LINE
  5
F2
100
AcDbEntity
  8
0
 62
0
370
-1
 48
1.0
  6
BYLAYER
100
AcDbLine
 10
5.058247617555935
 20
3.7971309999999772
 30
0.0
 11
5.3372476175559314
 21
3.9391309999999162
 31
0.0
  0
LINE
  5
F3
100
AcDbEntity
  8
0
 62
0
370
-1
 48
1.0
  6
BYLAYER
100
AcDbLine
 10
5.3372160870765128
 20
106.6889052532228561
 30
0.0
 11
5.5592160870764928
 21
106.9109052532228361
 31
0.0
  0
LINE
  5
F4
100
AcDbEntity
  8
0
 62
0
370
-1
 48
1.0
  6
BYLAYER
100
AcDbLine
 10
166.2519110848759283
 20
106.6889052532228561
 30
0.0
 11
166.4739110848759083
 21
106.9109052532228361
 31
0.0
  0
LINE
  5
F5
100
AcDbEntity
  8
0
 62
0
370
-1
 48
1.0
  6
BYLAYER
100
AcDbLine
 10
327.1639391595338111
 20
106.6889052532228561
 30
0.0
 11
327.3859391595337911
 21
106.9109052532228361
 31
0.0
  0
LINE
  5
F6
100
AcDbEntity
  8
0
 62
0
370
-1
 48
1.0
  6
BYLAYER
100
AcDbLine
 10
166.2519673382050769
 20
3.9391309999999171
 30
0.0
 11
166.4739673382050569
 21
4.1611309999998971
 31
0.0
  0
LINE
  5
F7
100
AcDbEntity
  8
0
 62
0
370
-1
 48
1.0
  6
BYLAYER
100
AcDbLine
 10
327.1639295356474122
 20
3.9391309999999171
 30
0.0
 11
327.3859295356473922
 21
4.1611309999998971
 31
0.0
  0
LINE
  5
F8
100
AcDbEntity
  8
0
 62
0
370
-1
 48
1.0
  6
BYLAYER
100
AcDbLine
 10
5.3372476175559314
 20
3.9391309999999162
 30
0.0
 11
5.5592476175559113
 21
4.1611309999998962
 31
0.0
  0
LINE
  5
F9
100
AcDbEntity
  8
0
 62
0
370
-1
 48
1.0
  6
BYLAYER
100
AcDbLine
 10
5.5592160870764928
 20
106.9109052532228361
 30
0.0
 11
5.7002160870764556
 21
107.1899052532228325
 31
0.0
  0
LINE
  5
FA
100
AcDbEntity
  8
0
 62
0
370
-1
 48
1.0
  6
BYLAYER
100
AcDbLine
 10
166.4739110848759083
 20
106.9109052532228361
 30
0.0
 11
166.614911084875871
 21
107.1899052532228325
 31
0.0
  0
LINE
  5
FB
100
AcDbEntity
  8
0
 62
0
370
-1
 48
1.0
  6
BYLAYER
100
AcDbLine
 10
327.3859391595337911
 20
106.9109052532228361
 30
0.0
 11
327.5269391595336401
 21
107.1899052532228325
 31
0.0
  0
LINE
  5
FC
100
AcDbEntity
  8
0
 62
0
370
-1
 48
1.0
  6
BYLAYER
100
AcDbLine
 10
166.4739673382050569
 20
4.1611309999998971
 30
0.0
 11
166.6149673382050196
 21
4.4401309999998935
 31
0.0
  0
LINE
  5
FD
100
AcDbEntity
  8
0
 62
0
370
-1
 48
1.0
  6
BYLAYER
100
AcDbLine
 10
327.3859295356473922
 20
4.1611309999998971
 30
0.0
 11
327.5269295356473549
 21
4.4401309999998935
 31
0.0
  0
LINE
  5
FE
100
AcDbEntity
  8
0
 62
0
370
-1
 48
1.0
  6
BYLAYER
100
AcDbLine
 10
5.5592476175559113
 20
4.1611309999998962
 30
0.0
 11
5.7002476175558741
 21
4.4401309999998926
 31
0.0
  0
LINE
  5
FF
100
AcDbEntity
  8
0
 62
0
370
-1
 48
1.0
  6
BYLAYER
100
AcDbLine
 10
5.7002160870764556
 20
107.1899052532228325
 30
0.0
 11
5.7492160870764337
 21
107.4979052532228252
 31
0.0
  0
LINE
  5
100
100
AcDbEntity
  8
0
 62
0
370
-1
 48
1.0
  6
BYLAYER
100
AcDbLine
 10
166.614911084875871
 20
107.1899052532228325
 30
0.0
 11
166.6639110848758492
 21
107.4979052532228252
 31
0.0
  0
LINE
  5
101
100
AcDbEntity
  8
0
 62
0
370
-1
 48
1.0
  6
BYLAYER
100
AcDbLine
 10
327.5269391595336401
 20
107.1899052532228325
 30
0.0
 11
327.5759391595336183
 21
107.4979052532228252
 31
0.0
  0
LINE
  5
102
100
AcDbEntity
  8
0
 62
0
370
-1
 48
1.0
  6
BYLAYER
100
AcDbLine
 10
166.6149673382050196
 20
4.4401309999998935
 30
0.0
 11
166.6639673382049978
 21
4.7481309999998862
 31
0.0
  0
LINE
  5
103
100
AcDbEntity
  8
0
 62
0
370
-1
 48
1.0
  6
BYLAYER
100
AcDbLine
 10
327.5269295356473549
 20
4.4401309999998935
 30
0.0
 11
327.5759295356473331
 21
4.7481309999998862
 31
0.0
  0
LINE
  5
104
100
AcDbEntity
  8
0
 62
0
370
-1
 48
1.0
  6
BYLAYER
100
AcDbLine
 10
5.7002476175558741
 20
4.4401309999998926
 30
0.0
 11
5.7492476175558522
 21
4.7481309999998853
 31
0.0
  0
LINE
  5
105
100
AcDbEntity
  8
0
 62
0
370
-1
 48
1.0
  6
BYLAYER
100
AcDbLine
 10
5.7492160870764337
 20
107.4979052532228252
 30
0.0
 11
5.7002160870764556
 21
107.8079052532228843
 31
0.0
  0
LINE
  5
106
100
AcDbEntity
  8
0
 62
0
370
-1
 48
1.0
  6
BYLAYER
100
AcDbLine
 10
166.6639110848758492
 20
107.4979052532228252
 30
0.0
 11
166.614911084875871
 21
107.8079052532228843
 31
0.0
  0
LINE
  5
107
100
AcDbEntity
  8
0
 62
0
370
-1
 48
1.0
  6
BYLAYER
100
AcDbLine
 10
327.5759391595336183
 20
107.4979052532228252
 30
0.0
 11
327.5269391595336401
 21
107.8079052532228843
 31
0.0
  0
LINE
  5
108
100
AcDbEntity
  8
0
 62
0
370
-1
 48
1.0
  6
BYLAYER
100
AcDbLine
 10
166.6639673382049978
 20
4.7481309999998862
 30
0.0
 11
166.6149673382050196
 21
5.0581309999999453
 31
0.0
  0
LINE
  5
109
100
AcDbEntity
  8
0
 62
0
370
-1
 48
1.0
  6
BYLAYER
100
AcDbLine
 10
327.5759295356473331
 20
4.7481309999998862
 30
0.0
 11
327.5269295356473549
 21
5.0581309999999453
 31
0.0
  0
LINE
  5
10A
100
AcDbEntity
  8
0
 62
0
370
-1
 48
1.0
  6
BYLAYER
100
AcDbLine
 10
5.7492476175558522
 20
4.7481309999998853
 30
0.0
 11
5.7002476175558741
 21
5.0581309999999444
 31
0.0
  0
LINE
  5
10B
100
AcDbEntity
  8
0
 62
0
370
-1
 48
1.0
  6
BYLAYER
100
AcDbLine
 10
5.7002160870764556
 20
107.8079052532228843
 30
0.0
 11
5.5592160870764928
 21
108.0869052532228807
 31
0.0
  0
LINE
  5
10C
100
AcDbEntity
  8
0
 62
0
370
-1
 48
1.0
  6
BYLAYER
100
AcDbLine
 10
166.614911084875871
 20
107.8079052532228843
 30
0.0
 11
166.4739110848759083
 21
108.0869052532228807
 31
0.0
  0
LINE
  5
10D
100
AcDbEntity
  8
0
 62
0
370
-1
 48
1.0
  6
BYLAYER
100
AcDbLine
 10
327.5269391595336401
 20
107.8079052532228843
 30
0.0
 11
327.3859391595337911
 21
108.0869052532228807
 31
0.0
  0
LINE
  5
10E
100
AcDbEntity
  8
0
 62
0
370
-1
 48
1.0
  6
BYLAYER
100
AcDbLine
 10
166.6149673382050196
 20
5.0581309999999453
 30
0.0
 11
166.4739673382050569
 21
5.3371309999999417
 31
0.0
  0
LINE
  5
10F
100
AcDbEntity
  8
0
 62
0
370
-1
 48
1.0
  6
BYLAYER
100
AcDbLine
 10
327.5269295356473549
 20
5.0581309999999453
 30
0.0
 11
327.3859295356473922
 21
5.3371309999999417
 31
0.0
  0
LINE
  5
110
100
AcDbEntity
  8
0
 62
0
370
-1
 48
1.0
  6
BYLAYER
100
AcDbLine
 10
5.7002476175558741
 20
5.0581309999999444
 30
0.0
 11
5.5592476175559113
 21
5.3371309999999408
 31
0.0
  0
LINE
  5
111
100
AcDbEntity
  8
0
 62
0
370
-1
 48
1.0
  6
BYLAYER
100
AcDbLine
 10
5.5592160870764928
 20
108.0869052532228807
 30
0.0
 11
5.3372160870765128
 21
108.3089052532228607
 31
0.0
  0
LINE
  5
112
100
AcDbEntity
  8
0
 62
0
370
-1
 48
1.0
  6
BYLAYER
100
AcDbLine
 10
166.4739110848759083
 20
108.0869052532228807
 30
0.0
 11
166.2519110848759283
 21
108.3089052532228607
 31
0.0
  0
LINE
  5
113
100
AcDbEntity
  8
0
 62
0
370
-1
 48
1.0
  6
BYLAYER
100
AcDbLine
 10
327.3859391595337911
 20
108.0869052532228807
 30
0.0
 11
327.1639391595338111
 21
108.3089052532228607
 31
0.0
  0
LINE
  5
114
100
AcDbEntity
  8
0
 62
0
370
-1
 48
1.0
  6
BYLAYER
100
AcDbLine
 10
166.4739673382050569
 20
5.3371309999999417
 30
0.0
 11
166.2519673382050769
 21
5.5591309999999217
 31
0.0
  0
LINE
  5
115
100
AcDbEntity
  8
0
 62
0
370
-1
 48
1.0
  6
BYLAYER
100
AcDbLine
 10
327.3859295356473922
 20
5.3371309999999417
 30
0.0
 11
327.1639295356474122
 21
5.5591309999999217
 31
0.0
  0
LINE
  5
116
100
AcDbEntity
  8
0
 62
0
370
-1
 48
1.0
  6
BYLAYER
100
AcDbLine
 10
5.5592476175559113
 20
5.3371309999999408
 30
0.0
 11
5.3372476175559314
 21
5.5591309999999208
 31
0.0
  0
LINE
  5
117
100
AcDbEntity
  8
0
 62
0
370
-1
 48
1.0
  6
BYLAYER
100
AcDbLine
 10
5.3372160870765128
 20
108.3089052532228607
 30
0.0
 11
5.0582160870765165
 21
108.4499052532228234
 31
0.0
  0
LINE
  5
118
100
AcDbEntity
  8
0
 62
0
370
-1
 48
1.0
  6
BYLAYER
100
AcDbLine
 10
166.2519110848759283
 20
108.3089052532228607
 30
0.0
 11
165.9729110848759319
 21
108.4499052532228234
 31
0.0
  0
LINE
  5
119
100
AcDbEntity
  8
0
 62
0
370
-1
 48
1.0
  6
BYLAYER
100
AcDbLine
 10
327.1639391595338111
 20
108.3089052532228607
 30
0.0
 11
326.8849391595338147
 21
108.4499052532228234
 31
0.0
  0
LINE
  5
11A
100
AcDbEntity
  8
0
 62
0
370
-1
 48
1.0
  6
BYLAYER
100
AcDbLine
 10
166.2519673382050769
 20
5.5591309999999217
 30
0.0
 11
165.9729673382050805
 21
5.7001309999998844
 31
0.0
  0
LINE
  5
11B
100
AcDbEntity
  8
0
 62
0
370
-1
 48
1.0
  6
BYLAYER
100
AcDbLine
 10
327.1639295356474122
 20
5.5591309999999217
 30
0.0
 11
326.8849295356474158
 21
5.7001309999998844
 31
0.0
  0
LINE
  5
11C
100
AcDbEntity
  8
0
 62
0
370
-1
 48
1.0
  6
BYLAYER
100
AcDbLine
 10
5.3372476175559314
 20
5.5591309999999208
 30
0.0
 11
5.058247617555935
 21
5.7001309999998835
 31
0.0
  0
LINE
  5
11D
100
AcDbEntity
  8
0
 62
0
370
-1
 48
1.0
  6
BYLAYER
100
AcDbLine
 10
5.0582160870765165
 20
108.4499052532228234
 30
0.0
 11
4.7502160870765238
 21
108.4989052532229152
 31
0.0
  0
LINE
  5
11E
100
AcDbEntity
  8
0
 62
0
370
-1
 48
1.0
  6
BYLAYER
100
AcDbLine
 10
165.9729110848759319
 20
108.4499052532228234
 30
0.0
 11
165.6649110848759392
 21
108.4989052532229152
 31
0.0
  0
LINE
  5
11F
100
AcDbEntity
  8
0
 62
0
370
-1
 48
1.0
  6
BYLAYER
100
AcDbLine
 10
326.8849391595338147
 20
108.4499052532228234
 30
0.0
 11
326.576939159533822
 21
108.4989052532229152
 31
0.0
  0
LINE
  5
120
100
AcDbEntity
  8
0
 62
0
370
-1
 48
1.0
  6
BYLAYER
100
AcDbLine
 10
165.9729673382050805
 20
5.7001309999998844
 30
0.0
 11
165.6649673382050878
 21
5.7491309999999762
 31
0.0
  0
LINE
  5
121
100
AcDbEntity
  8
0
 62
0
370
-1
 48
1.0
  6
BYLAYER
100
AcDbLine
 10
326.8849295356474158
 20
5.7001309999998844
 30
0.0
 11
326.5769295356474231
 21
5.7491309999999762
 31
0.0
  0
LINE
  5
122
100
AcDbEntity
  8
0
 62
0
370
-1
 48
1.0
  6
BYLAYER
100
AcDbLine
 10
5.058247617555935
 20
5.7001309999998835
 30
0.0
 11
4.7502476175559423
 21
5.7491309999999753
 31
0.0
  0
LINE
  5
123
100
AcDbEntity
  8
0
 62
0
370
-1
 48
1.0
  6
BYLAYER
100
AcDbLine
 10
4.7502160870765238
 20
108.4989052532229152
 30
0.0
 11
4.4402160870764646
 21
108.4499052532228234
 31
0.0
  0
LINE
  5
124
100
AcDbEntity
  8
0
 62
0
370
-1
 48
1.0
  6
BYLAYER
100
AcDbLine
 10
165.6649110848759392
 20
108.4989052532229152
 30
0.0
 11
165.3549110848758801
 21
108.4499052532228234
 31
0.0
  0
LINE
  5
125
100
AcDbEntity
  8
0
 62
0
370
-1
 48
1.0
  6
BYLAYER
100
AcDbLine
 10
326.576939159533822
 20
108.4989052532229152
 30
0.0
 11
326.2669391595336492
 21
108.4499052532228234
 31
0.0
  0
LINE
  5
126
100
AcDbEntity
  8
0
 62
0
370
-1
 48
1.0
  6
BYLAYER
100
AcDbLine
 10
165.6649673382050878
 20
5.7491309999999762
 30
0.0
 11
165.3549673382050287
 21
5.7001309999998844
 31
0.0
  0
LINE
  5
127
100
AcDbEntity
  8
0
 62
0
370
-1
 48
1.0
  6
BYLAYER
100
AcDbLine
 10
326.5769295356474231
 20
5.7491309999999762
 30
0.0
 11
326.266929535647364
 21
5.7001309999998844
 31
0.0
  0
LINE
  5
128
100
AcDbEntity
  8
0
 62
0
370
-1
 48
1.0
  6
BYLAYER
100
AcDbLine
 10
4.7502476175559423
 20
5.7491309999999753
 30
0.0
 11
4.4402476175558832
 21
5.7001309999998835
 31
0.0
  0
LINE
  5
129
100
AcDbEntity
  8
0
 62
256
370
-1
 48
1.0
  6
BYLAYER
100
AcDbLine
 10
325.5759456731200316
 20
108.4989052532229152
 30
0.0
 11
325.5759456731201453
 21
108.4989052532229152
 31
0.0
  0
LINE
  5
12A
100
AcDbEntity
  8
0
 62
256
370
-1
 48
1.0
  6
BYLAYER
100
AcDbLine
 10
29.661420000000021
 20
112.2508310000000051
 30
0.0
 11
29.661420000000021
 21
110.0
 31
0.0
  0
LINE
  5
12B
100
AcDbEntity
  8
0
 62
256
370
-1
 48
1.0
  6
BYLAYER
100
AcDbLine
 10
21.6599999999999682
 20
110.0
 30
0.0
 11
21.6619200000000092
 21
112.2508310000000051
 31
0.0
  0
LINE
  5
12C
100
AcDbEntity
  8
0
 62
256
370
-1
 48
1.0
  6
BYLAYER
100
AcDbLine
 10
21.6599999999999682
 20
110.0
 30
0.0
 11
16.9261660641843719
 21
110.0
 31
0.0
  0
LINE
  5
12D
100
AcDbEntity
  8
0
 62
256
370
-1
 48
1.0
  6
BYLAYER
100
AcDbLine
 10
34.3952539358156173
 20
109.9999999999999858
 30
0.0
 11
29.661420000000021
 21
109.9999999999999858
 31
0.0
  0
LINE
  5
12E
100
AcDbEntity
  8
0
 62
256
370
-1
 48
1.0
  6
BYLAYER
100
AcDbLine
 10
34.3952539358156173
 20
109.9999999999999858
 30
0.0
 11
34.3952539358156173
 21
103.7508309999999909
 31
0.0
  0
LINE
  5
12F
100
AcDbEntity
  8
0
 62
256
370
-1
 48
1.0
  6
BYLAYER
100
AcDbLine
 10
34.3952539358156173
 20
103.7508309999999909
 30
0.0
 11
322.825019999999995
 21
103.7508310000000051
 31
0.0
  0
LINE
  5
130
100
AcDbEntity
  8
0
 62
256
370
-1
 48
1.0
  6
BYLAYER
100
AcDbLine
 10
16.9261660641843719
 20
110.0
 30
0.0
 11
16.9261660641843719
 21
103.7508310000000051
 31
0.0
  0
LINE
  5
131
100
AcDbEntity
  8
0
 62
256
370
-1
 48
1.0
  6
BYLAYER
100
AcDbLine
 10
16.9261660641843719
 20
103.7508310000000051
 30
0.0
 11
8.4988500000000613
 21
103.7508310000000051
 31
0.0
  0
ENDSEC
  0
SECTION
  2
OBJECTS
  0
DICTIONARY
  5
C
100
AcDbDictionary
280
0
281
1
  3
ACAD_GROUP
350
D
  3
ACAD_LAYOUT
350
1A
  3
ACAD_MLINESTYLE
350
17
  3
ACAD_PLOTSETTINGS
350
19
  3
ACAD_PLOTSTYLENAME
350
E
  3
AcDbVariableDictionary
350
132
  3
QCAD_OBJECTS
350
133
  0
DICTIONARY
  5
D
100
AcDbDictionary
280
0
281
1
  0
ACDBDICTIONARYWDFLT
  5
E
100
AcDbDictionary
281
1
  3
Normal
350
F
100
AcDbDictionaryWithDefault
340
F
  0
ACDBPLACEHOLDER
  5
F
  0
DICTIONARY
  5
17
100
AcDbDictionary
280
0
281
1
  3
Standard
350
18
  0
MLINESTYLE
  5
18
100
AcDbMlineStyle
  2
STANDARD
 70
0
  3

 62
256
 51
90.0
 52
90.0
 71
2
 49
0.5
 62
256
  6
BYLAYER
 49
-0.5
 62
256
  6
BYLAYER
  0
DICTIONARY
  5
19
100
AcDbDictionary
280
0
281
1
  0
DICTIONARY
  5
1A
100
AcDbDictionary
281
1
  3
Layout1
350
1E
  3
Layout2
350
26
  3
Model
350
22
  0
LAYOUT
  5
1E
100
AcDbPlotSettings
  1

  2
none_device
  4

  6

 40
0.0
 41
0.0
 42
0.0
 43
0.0
 44
0.0
 45
0.0
 46
0.0
 47
0.0
 48
0.0
 49
0.0
140
0.0
141
0.0
142
1.0
143
1.0
 70
688
 72
0
 73
0
 74
5
  7

 75
16
147
1.0
148
0.0
149
0.0
100
AcDbLayout
  1
Layout1
 70
1
 71
1
 10
0.0
 20
0.0
 11
420.0
 21
297.0
 12
0.0
 22
0.0
 32
0.0
 14
100000000000000000000.0
 24
100000000000000000000.0
 34
100000000000000000000.0
 15
-100000000000000000000.0
 25
-100000000000000000000.0
 35
-100000000000000000000.0
146
0.0
 13
0.0
 23
0.0
 33
0.0
 16
1.0
 26
0.0
 36
0.0
 17
0.0
 27
1.0
 37
0.0
 76
0
330
1B
  0
LAYOUT
  5
22
100
AcDbPlotSettings
  1

  2
none_device
  4

  6

 40
0.0
 41
0.0
 42
0.0
 43
0.0
 44
0.0
 45
0.0
 46
0.0
 47
0.0
 48
0.0
 49
0.0
140
0.0
141
0.0
142
1.0
143
1.0
 70
1712
 72
0
 73
0
 74
0
  7

 75
0
147
1.0
148
0.0
149
0.0
100
AcDbLayout
  1
Model
 70
1
 71
0
 10
0.0
 20
0.0
 11
12.0
 21
9.0
 12
0.0
 22
0.0
 32
0.0
 14
0.0
 24
0.0
 34
0.0
 15
0.0
 25
0.0
 35
0.0
146
0.0
 13
0.0
 23
0.0
 33
0.0
 16
1.0
 26
0.0
 36
0.0
 17
0.0
 27
1.0
 37
0.0
 76
0
330
1F
  0
LAYOUT
  5
26
100
AcDbPlotSettings
  1

  2
none_device
  4

  6

 40
0.0
 41
0.0
 42
0.0
 43
0.0
 44
0.0
 45
0.0
 46
0.0
 47
0.0
 48
0.0
 49
0.0
140
0.0
141
0.0
142
1.0
143
1.0
 70
688
 72
0
 73
0
 74
5
  7

 75
16
147
1.0
148
0.0
149
0.0
100
AcDbLayout
  1
Layout2
 70
1
 71
2
 10
0.0
 20
0.0
 11
12.0
 21
9.0
 12
0.0
 22
0.0
 32
0.0
 14
0.0
 24
0.0
 34
0.0
 15
0.0
 25
0.0
 35
0.0
146
0.0
 13
0.0
 23
0.0
 33
0.0
 16
1.0
 26
0.0
 36
0.0
 17
0.0
 27
1.0
 37
0.0
 76
0
330
23
  0
DICTIONARY
  5
132
100
AcDbDictionary
281
1
  3
DIMASSOC
350
135
  3
HIDETEXT
350
134
  0
DICTIONARYVAR
  5
134
100
DictionaryVariables
280
0
  1
2
  0
DICTIONARYVAR
  5
135
100
DictionaryVariables
280
0
  1
1
  0
DICTIONARY
  5
133
100
AcDbDictionary
281
1
  3
ColorSettings/BackgroundColor
350
136
  3
ColorSettings/ColorMode
350
137
  3
Grid/DisplayGrid00
350
138
  3
Grid/DisplayGrid01
350
139
  3
Grid/DisplayGrid02
350
13A
  3
Grid/DisplayGrid03
350
13B
  3
Grid/GridSpacingX00
350
13C
  3
Grid/GridSpacingX01
350
13D
  3
Grid/GridSpacingX02
350
13E
  3
Grid/GridSpacingX03
350
13F
  3
Grid/GridSpacingY00
350
140
  3
Grid/GridSpacingY01
350
141
  3
Grid/GridSpacingY02
350
142
  3
Grid/GridSpacingY03
350
143
  3
Grid/IsometricGrid00
350
144
  3
Grid/IsometricGrid01
350
145
  3
Grid/IsometricGrid02
350
146
  3
Grid/IsometricGrid03
350
147
  3
Grid/IsometricProjection00
350
148
  3
Grid/IsometricProjection01
350
149
  3
Grid/IsometricProjection02
350
14A
  3
Grid/IsometricProjection03
350
14B
  3
Grid/MetaGridSpacingX00
350
14C
  3
Grid/MetaGridSpacingX01
350
14D
  3
Grid/MetaGridSpacingX02
350
14E
  3
Grid/MetaGridSpacingX03
350
14F
  3
Grid/MetaGridSpacingY00
350
150
  3
Grid/MetaGridSpacingY01
350
151
  3
Grid/MetaGridSpacingY02
350
152
  3
Grid/MetaGridSpacingY03
350
153
  3
MultiPageSettings/Columns
350
154
  3
MultiPageSettings/GlueMarginsBottom
350
155
  3
MultiPageSettings/GlueMarginsLeft
350
156
  3
MultiPageSettings/GlueMarginsRight
350
157
  3
MultiPageSettings/GlueMarginsTop
350
158
  3
MultiPageSettings/PrintCropMarks
350
159
  3
MultiPageSettings/Rows
350
15A
  3
PageSettings/OffsetX
350
15B
  3
PageSettings/OffsetY
350
15C
  3
PageSettings/PageOrientation
350
15D
  3
PageSettings/PaperHeight
350
15E
  3
PageSettings/PaperWidth
350
15F
  3
PageSettings/Scale
350
160
  3
PageSettings/ShowPaperBorders
350
161
  3
PageTagSettings/EnablePageTags
350
162
  3
PageTagSettings/TagAlignment
350
163
  3
PageTagSettings/TagFont
350
164
  3
PageTagSettings/TagPosition
350
165
  3
QCADVersion
350
166
  3
UnitSettings/PaperUnit
350
167
  3
ViewportCenter
350
168
  3
ViewportHeight
350
169
  3
ViewportWidth
350
16A
  0
XRECORD
  5
136
330
133
100
AcDbXrecord
280
1
1000
White
  0
XRECORD
  5
137
330
133
100
AcDbXrecord
280
1
1000
FullColor
  0
XRECORD
  5
138
330
133
100
AcDbXrecord
280
1
290
1
  0
XRECORD
  5
139
330
133
100
AcDbXrecord
280
1
290
1
  0
XRECORD
  5
13A
330
133
100
AcDbXrecord
280
1
290
1
  0
XRECORD
  5
13B
330
133
100
AcDbXrecord
280
1
290
1
  0
XRECORD
  5
13C
330
133
100
AcDbXrecord
280
1
1000
auto
  0
XRECORD
  5
13D
330
133
100
AcDbXrecord
280
1
1000
auto
  0
XRECORD
  5
13E
330
133
100
AcDbXrecord
280
1
1000
auto
  0
XRECORD
  5
13F
330
133
100
AcDbXrecord
280
1
1000
auto
  0
XRECORD
  5
140
330
133
100
AcDbXrecord
280
1
1000
auto
  0
XRECORD
  5
141
330
133
100
AcDbXrecord
280
1
1000
auto
  0
XRECORD
  5
142
330
133
100
AcDbXrecord
280
1
1000
auto
  0
XRECORD
  5
143
330
133
100
AcDbXrecord
280
1
1000
auto
  0
XRECORD
  5
144
330
133
100
AcDbXrecord
280
1
290
0
  0
XRECORD
  5
145
330
133
100
AcDbXrecord
280
1
290
0
  0
XRECORD
  5
146
330
133
100
AcDbXrecord
280
1
290
0
  0
XRECORD
  5
147
330
133
100
AcDbXrecord
280
1
290
0
  0
XRECORD
  5
148
330
133
100
AcDbXrecord
280
1
 90
65537
  0
XRECORD
  5
149
330
133
100
AcDbXrecord
280
1
 90
65537
  0
XRECORD
  5
14A
330
133
100
AcDbXrecord
280
1
 90
65537
  0
XRECORD
  5
14B
330
133
100
AcDbXrecord
280
1
 90
65537
  0
XRECORD
  5
14C
330
133
100
AcDbXrecord
280
1
1000
auto
  0
XRECORD
  5
14D
330
133
100
AcDbXrecord
280
1
1000
auto
  0
XRECORD
  5
14E
330
133
100
AcDbXrecord
280
1
1000
auto
  0
XRECORD
  5
14F
330
133
100
AcDbXrecord
280
1
1000
auto
  0
XRECORD
  5
150
330
133
100
AcDbXrecord
280
1
1000
auto
  0
XRECORD
  5
151
330
133
100
AcDbXrecord
280
1
1000
auto
  0
XRECORD
  5
152
330
133
100
AcDbXrecord
280
1
1000
auto
  0
XRECORD
  5
153
330
133
100
AcDbXrecord
280
1
1000
auto
  0
XRECORD
  5
154
330
133
100
AcDbXrecord
280
1
 90
1
  0
XRECORD
  5
155
330
133
100
AcDbXrecord
280
1
 40
0.5
  0
XRECORD
  5
156
330
133
100
AcDbXrecord
280
1
 40
0.5
  0
XRECORD
  5
157
330
133
100
AcDbXrecord
280
1
 40
0.5
  0
XRECORD
  5
158
330
133
100
AcDbXrecord
280
1
 40
0.5
  0
XRECORD
  5
159
330
133
100
AcDbXrecord
280
1
290
0
  0
XRECORD
  5
15A
330
133
100
AcDbXrecord
280
1
 90
1
  0
XRECORD
  5
15B
330
133
100
AcDbXrecord
280
1
 40
0.0
  0
XRECORD
  5
15C
330
133
100
AcDbXrecord
280
1
 40
0.0
  0
XRECORD
  5
15D
330
133
100
AcDbXrecord
280
1
1000
Portrait
  0
XRECORD
  5
15E
330
133
100
AcDbXrecord
280
1
 40
11.6929133858267722
  0
XRECORD
  5
15F
330
133
100
AcDbXrecord
280
1
 40
8.2677165354330704
  0
XRECORD
  5
160
330
133
100
AcDbXrecord
280
1
1000
1:1
  0
XRECORD
  5
161
330
133
100
AcDbXrecord
280
1
290
1
  0
XRECORD
  5
162
330
133
100
AcDbXrecord
280
1
290
0
  0
XRECORD
  5
163
330
133
100
AcDbXrecord
280
1
1000
Inside
  0
XRECORD
  5
164
330
133
100
AcDbXrecord
280
1
1000
Arial,10,-1,5,50,0,0,0,0,0
  0
XRECORD
  5
165
330
133
100
AcDbXrecord
280
1
1000
TopLeft
  0
XRECORD
  5
166
330
133
100
AcDbXrecord
280
1
1000
3.28.1.3
  0
XRECORD
  5
167
330
133
100
AcDbXrecord
280
1
 90
1
  0
XRECORD
  5
169
330
133
100
AcDbXrecord
280
1
 40
413.8143842303989004
  0
XRECORD
  5
16A
330
133
100
AcDbXrecord
280
1
 40
771.9031406591979021
  0
ENDSEC
  0
EOF
