  0
SECTION
  2
HEADER
  9
$ACADVER
  1
AC1009
  9
$FILLMODE
 70
 0
  9
$SPLFRAME
 70
 1
  9
$EXTMIN
 10
0
 20
0
 30
0.0
  9
$EXTMAX
 10
1058.33
 20
1058.33
 30
0.0
  0
ENDSEC
  0
SECTION
  2
TABLES
  0
TABLE
  2
LAYER
 70
1
  0
LAYER
  2
0
 70
     0
 62
     7
  6
CONTINUOUS
  0
ENDTAB
  0
ENDSEC
  0
SECTION
  2
ENTITIES
  0
LINE
  8
0
 62
     0
 10
20.2572
 20
108.56
 30
0.0
 11
20.2572
 21
100.56
 31
0.0
  0
LINE
  8
0
 62
     0
 10
20.2572
 20
100.56
 30
0.0
 11
8.09597
 21
100.56
 31
0.0
  0
LINE
  8
0
 62
     0
 10
8.09597
 20
100.56
 30
0.0
 11
8.09597
 21
8.30958
 31
0.0
  0
LINE
  8
0
 62
     0
 10
8.09597
 20
8.30958
 30
0.0
 11
319.421
 21
8.30958
 31
0.0
  0
LINE
  8
0
 62
     0
 10
319.421
 20
8.30958
 30
0.0
 11
319.421
 21
100.56
 31
0.0
  0
LINE
  8
0
 62
     0
 10
319.421
 20
100.56
 30
0.0
 11
27.2576
 21
100.56
 31
0.0
  0
LINE
  8
0
 62
     0
 10
27.2576
 20
100.56
 30
0.0
 11
27.2576
 21
108.56
 31
0.0
  0
LINE
  8
0
 62
     0
 10
27.2576
 20
108.56
 30
0.0
 11
322.421
 21
108.56
 31
0.0
  0
LINE
  8
0
 62
     0
 10
322.421
 20
108.56
 30
0.0
 11
322.814
 21
108.545
 31
0.0
  0
LINE
  8
0
 62
     0
 10
322.814
 20
108.545
 30
0.0
 11
323.204
 21
108.499
 31
0.0
  0
LINE
  8
0
 62
     0
 10
323.204
 20
108.499
 30
0.0
 11
323.588
 21
108.423
 31
0.0
  0
LINE
  8
0
 62
     0
 10
323.588
 20
108.423
 30
0.0
 11
323.967
 21
108.317
 31
0.0
  0
LINE
  8
0
 62
     0
 10
323.967
 20
108.317
 30
0.0
 11
324.335
 21
108.18
 31
0.0
  0
LINE
  8
0
 62
     0
 10
324.335
 20
108.18
 30
0.0
 11
324.691
 21
108.016
 31
0.0
  0
LINE
  8
0
 62
     0
 10
324.691
 20
108.016
 30
0.0
 11
325.034
 21
107.825
 31
0.0
  0
LINE
  8
0
 62
     0
 10
325.034
 20
107.825
 30
0.0
 11
325.359
 21
107.605
 31
0.0
  0
LINE
  8
0
 62
     0
 10
325.359
 20
107.605
 30
0.0
 11
325.669
 21
107.363
 31
0.0
  0
LINE
  8
0
 62
     0
 10
325.669
 20
107.363
 30
0.0
 11
325.957
 21
107.096
 31
0.0
  0
LINE
  8
0
 62
     0
 10
325.957
 20
107.096
 30
0.0
 11
326.223
 21
106.808
 31
0.0
  0
LINE
  8
0
 62
     0
 10
326.223
 20
106.808
 30
0.0
 11
326.467
 21
106.499
 31
0.0
  0
LINE
  8
0
 62
     0
 10
326.467
 20
106.499
 30
0.0
 11
326.685
 21
106.174
 31
0.0
  0
LINE
  8
0
 62
     0
 10
326.685
 20
106.174
 30
0.0
 11
326.876
 21
105.831
 31
0.0
  0
LINE
  8
0
 62
     0
 10
326.876
 20
105.831
 30
0.0
 11
327.04
 21
105.474
 31
0.0
  0
LINE
  8
0
 62
     0
 10
327.04
 20
105.474
 30
0.0
 11
327.177
 21
105.106
 31
0.0
  0
LINE
  8
0
 62
     0
 10
327.177
 20
105.106
 30
0.0
 11
327.283
 21
104.728
 31
0.0
  0
LINE
  8
0
 62
     0
 10
327.283
 20
104.728
 30
0.0
 11
327.36
 21
104.344
 31
0.0
  0
LINE
  8
0
 62
     0
 10
327.36
 20
104.344
 30
0.0
 11
327.405
 21
103.954
 31
0.0
  0
LINE
  8
0
 62
     0
 10
327.405
 20
103.954
 30
0.0
 11
327.42
 21
103.56
 31
0.0
  0
LINE
  8
0
 62
     0
 10
327.42
 20
103.56
 30
0.0
 11
327.422
 21
5.30959
 31
0.0
  0
LINE
  8
0
 62
     0
 10
327.422
 20
5.30959
 30
0.0
 11
327.405
 21
4.91684
 31
0.0
  0
LINE
  8
0
 62
     0
 10
327.405
 20
4.91684
 30
0.0
 11
327.36
 21
4.52684
 31
0.0
  0
LINE
  8
0
 62
     0
 10
327.36
 20
4.52684
 30
0.0
 11
327.283
 21
4.14239
 31
0.0
  0
LINE
  8
0
 62
     0
 10
327.283
 20
4.14239
 30
0.0
 11
327.177
 21
3.76343
 31
0.0
  0
LINE
  8
0
 62
     0
 10
327.177
 20
3.76343
 30
0.0
 11
327.04
 21
3.39549
 31
0.0
  0
LINE
  8
0
 62
     0
 10
327.04
 20
3.39549
 30
0.0
 11
326.876
 21
3.03995
 31
0.0
  0
LINE
  8
0
 62
     0
 10
326.876
 20
3.03995
 30
0.0
 11
326.685
 21
2.69682
 31
0.0
  0
LINE
  8
0
 62
     0
 10
326.685
 20
2.69682
 30
0.0
 11
326.467
 21
2.37161
 31
0.0
  0
LINE
  8
0
 62
     0
 10
326.467
 20
2.37161
 30
0.0
 11
326.223
 21
2.06155
 31
0.0
  0
LINE
  8
0
 62
     0
 10
326.223
 20
2.06155
 30
0.0
 11
325.957
 21
1.77353
 31
0.0
  0
LINE
  8
0
 62
     0
 10
325.957
 20
1.77353
 30
0.0
 11
325.669
 21
1.50757
 31
0.0
  0
LINE
  8
0
 62
     0
 10
325.669
 20
1.50757
 30
0.0
 11
325.359
 21
1.26366
 31
0.0
  0
LINE
  8
0
 62
     0
 10
325.359
 20
1.26366
 30
0.0
 11
325.034
 21
1.04593
 31
0.0
  0
LINE
  8
0
 62
     0
 10
325.034
 20
1.04593
 30
0.0
 11
324.691
 21
0.854385
 31
0.0
  0
LINE
  8
0
 62
     0
 10
324.691
 20
0.854385
 30
0.0
 11
324.335
 21
0.690397
 31
0.0
  0
LINE
  8
0
 62
     0
 10
324.335
 20
0.690397
 30
0.0
 11
323.967
 21
0.55397
 31
0.0
  0
LINE
  8
0
 62
     0
 10
323.967
 20
0.55397
 30
0.0
 11
323.588
 21
0.447862
 31
0.0
  0
LINE
  8
0
 62
     0
 10
323.588
 20
0.447862
 30
0.0
 11
323.204
 21
0.370692
 31
0.0
  0
LINE
  8
0
 62
     0
 10
323.204
 20
0.370692
 30
0.0
 11
322.814
 21
0.325217
 31
0.0
  0
LINE
  8
0
 62
     0
 10
322.814
 20
0.325217
 30
0.0
 11
322.421
 21
0.308681
 31
0.0
  0
LINE
  8
0
 62
     0
 10
322.421
 20
0.308681
 30
0.0
 11
5.09598
 21
0.310059
 31
0.0
  0
LINE
  8
0
 62
     0
 10
5.09598
 20
0.310059
 30
0.0
 11
4.70186
 21
0.325217
 31
0.0
  0
LINE
  8
0
 62
     0
 10
4.70186
 20
0.325217
 30
0.0
 11
4.3119
 21
0.370692
 31
0.0
  0
LINE
  8
0
 62
     0
 10
4.3119
 20
0.370692
 30
0.0
 11
3.9274
 21
0.447862
 31
0.0
  0
LINE
  8
0
 62
     0
 10
3.9274
 20
0.447862
 30
0.0
 11
3.54983
 21
0.55397
 31
0.0
  0
LINE
  8
0
 62
     0
 10
3.54983
 20
0.55397
 30
0.0
 11
3.18189
 21
0.690397
 31
0.0
  0
LINE
  8
0
 62
     0
 10
3.18189
 20
0.690397
 30
0.0
 11
2.82498
 21
0.854385
 31
0.0
  0
LINE
  8
0
 62
     0
 10
2.82498
 20
0.854385
 30
0.0
 11
2.48185
 21
1.04593
 31
0.0
  0
LINE
  8
0
 62
     0
 10
2.48185
 20
1.04593
 30
0.0
 11
2.15663
 21
1.26366
 31
0.0
  0
LINE
  8
0
 62
     0
 10
2.15663
 20
1.26366
 30
0.0
 11
1.84795
 21
1.50757
 31
0.0
  0
LINE
  8
0
 62
     0
 10
1.84795
 20
1.50757
 30
0.0
 11
1.55994
 21
1.77353
 31
0.0
  0
LINE
  8
0
 62
     0
 10
1.55994
 20
1.77353
 30
0.0
 11
1.2926
 21
2.06155
 31
0.0
  0
LINE
  8
0
 62
     0
 10
1.2926
 20
2.06155
 30
0.0
 11
1.05006
 21
2.37161
 31
0.0
  0
LINE
  8
0
 62
     0
 10
1.05006
 20
2.37161
 30
0.0
 11
0.830957
 21
2.69682
 31
0.0
  0
LINE
  8
0
 62
     0
 10
0.830957
 20
2.69682
 30
0.0
 11
0.63941
 21
3.03995
 31
0.0
  0
LINE
  8
0
 62
     0
 10
0.63941
 20
3.03995
 30
0.0
 11
0.475424
 21
3.39549
 31
0.0
  0
LINE
  8
0
 62
     0
 10
0.475424
 20
3.39549
 30
0.0
 11
0.338998
 21
3.76343
 31
0.0
  0
LINE
  8
0
 62
     0
 10
0.338998
 20
3.76343
 30
0.0
 11
0.232888
 21
4.14239
 31
0.0
  0
LINE
  8
0
 62
     0
 10
0.232888
 20
4.14239
 30
0.0
 11
0.157097
 21
4.52684
 31
0.0
  0
LINE
  8
0
 62
     0
 10
0.157097
 20
4.52684
 30
0.0
 11
0.110243
 21
4.91684
 31
0.0
  0
LINE
  8
0
 62
     0
 10
0.110243
 20
4.91684
 30
0.0
 11
0.0950846
 21
5.30959
 31
0.0
  0
LINE
  8
0
 62
     0
 10
0.0950846
 20
5.30959
 30
0.0
 11
0.0950846
 21
103.56
 31
0.0
  0
LINE
  8
0
 62
     0
 10
0.0950846
 20
103.56
 30
0.0
 11
0.110243
 21
103.954
 31
0.0
  0
LINE
  8
0
 62
     0
 10
0.110243
 20
103.954
 30
0.0
 11
0.157097
 21
104.344
 31
0.0
  0
LINE
  8
0
 62
     0
 10
0.157097
 20
104.344
 30
0.0
 11
0.232888
 21
104.728
 31
0.0
  0
LINE
  8
0
 62
     0
 10
0.232888
 20
104.728
 30
0.0
 11
0.338998
 21
105.106
 31
0.0
  0
LINE
  8
0
 62
     0
 10
0.338998
 20
105.106
 30
0.0
 11
0.475424
 21
105.474
 31
0.0
  0
LINE
  8
0
 62
     0
 10
0.475424
 20
105.474
 30
0.0
 11
0.63941
 21
105.831
 31
0.0
  0
LINE
  8
0
 62
     0
 10
0.63941
 20
105.831
 30
0.0
 11
0.830957
 21
106.174
 31
0.0
  0
LINE
  8
0
 62
     0
 10
0.830957
 20
106.174
 30
0.0
 11
1.05006
 21
106.499
 31
0.0
  0
LINE
  8
0
 62
     0
 10
1.05006
 20
106.499
 30
0.0
 11
1.2926
 21
106.808
 31
0.0
  0
LINE
  8
0
 62
     0
 10
1.2926
 20
106.808
 30
0.0
 11
1.55994
 21
107.096
 31
0.0
  0
LINE
  8
0
 62
     0
 10
1.55994
 20
107.096
 30
0.0
 11
1.84795
 21
107.363
 31
0.0
  0
LINE
  8
0
 62
     0
 10
1.84795
 20
107.363
 30
0.0
 11
2.15663
 21
107.605
 31
0.0
  0
LINE
  8
0
 62
     0
 10
2.15663
 20
107.605
 30
0.0
 11
2.48185
 21
107.825
 31
0.0
  0
LINE
  8
0
 62
     0
 10
2.48185
 20
107.825
 30
0.0
 11
2.82498
 21
108.016
 31
0.0
  0
LINE
  8
0
 62
     0
 10
2.82498
 20
108.016
 30
0.0
 11
3.18189
 21
108.18
 31
0.0
  0
LINE
  8
0
 62
     0
 10
3.18189
 20
108.18
 30
0.0
 11
3.54983
 21
108.317
 31
0.0
  0
LINE
  8
0
 62
     0
 10
3.54983
 20
108.317
 30
0.0
 11
3.9274
 21
108.423
 31
0.0
  0
LINE
  8
0
 62
     0
 10
3.9274
 20
108.423
 30
0.0
 11
4.3119
 21
108.499
 31
0.0
  0
LINE
  8
0
 62
     0
 10
4.3119
 20
108.499
 30
0.0
 11
4.70186
 21
108.545
 31
0.0
  0
LINE
  8
0
 62
     0
 10
4.70186
 20
108.545
 30
0.0
 11
5.09598
 21
108.56
 31
0.0
  0
LINE
  8
0
 62
     0
 10
5.09598
 20
108.56
 30
0.0
 11
20.2572
 21
108.56
 31
0.0
  0
LINE
  8
0
 62
     0
 10
322.957
 20
5.73539
 30
0.0
 11
322.539
 21
5.52319
 31
0.0
  0
LINE
  8
0
 62
     0
 10
322.539
 20
5.52319
 30
0.0
 11
322.207
 21
5.19105
 31
0.0
  0
LINE
  8
0
 62
     0
 10
322.207
 20
5.19105
 30
0.0
 11
321.995
 21
4.77354
 31
0.0
  0
LINE
  8
0
 62
     0
 10
321.995
 20
4.77354
 30
0.0
 11
321.922
 21
4.31052
 31
0.0
  0
LINE
  8
0
 62
     0
 10
321.922
 20
4.31052
 30
0.0
 11
321.995
 21
3.84609
 31
0.0
  0
LINE
  8
0
 62
     0
 10
321.995
 20
3.84609
 30
0.0
 11
322.207
 21
3.42856
 31
0.0
  0
LINE
  8
0
 62
     0
 10
322.207
 20
3.42856
 30
0.0
 11
322.539
 21
3.09645
 31
0.0
  0
LINE
  8
0
 62
     0
 10
322.539
 20
3.09645
 30
0.0
 11
322.957
 21
2.88286
 31
0.0
  0
LINE
  8
0
 62
     0
 10
322.957
 20
2.88286
 30
0.0
 11
323.421
 21
2.80982
 31
0.0
  0
LINE
  8
0
 62
     0
 10
323.421
 20
2.80982
 30
0.0
 11
323.885
 21
2.88286
 31
0.0
  0
LINE
  8
0
 62
     0
 10
323.885
 20
2.88286
 30
0.0
 11
324.302
 21
3.09645
 31
0.0
  0
LINE
  8
0
 62
     0
 10
324.302
 20
3.09645
 30
0.0
 11
324.634
 21
3.42856
 31
0.0
  0
LINE
  8
0
 62
     0
 10
324.634
 20
3.42856
 30
0.0
 11
324.848
 21
3.84609
 31
0.0
  0
LINE
  8
0
 62
     0
 10
324.848
 20
3.84609
 30
0.0
 11
324.922
 21
4.31052
 31
0.0
  0
LINE
  8
0
 62
     0
 10
324.922
 20
4.31052
 30
0.0
 11
324.848
 21
4.77354
 31
0.0
  0
LINE
  8
0
 62
     0
 10
324.848
 20
4.77354
 30
0.0
 11
324.634
 21
5.19105
 31
0.0
  0
LINE
  8
0
 62
     0
 10
324.634
 20
5.19105
 30
0.0
 11
324.302
 21
5.52319
 31
0.0
  0
LINE
  8
0
 62
     0
 10
324.302
 20
5.52319
 30
0.0
 11
323.885
 21
5.73539
 31
0.0
  0
LINE
  8
0
 62
     0
 10
323.885
 20
5.73539
 30
0.0
 11
323.421
 21
5.80983
 31
0.0
  0
LINE
  8
0
 62
     0
 10
323.421
 20
5.80983
 30
0.0
 11
322.957
 21
5.73539
 31
0.0
  0
LINE
  8
0
 62
     0
 10
3.63114
 20
5.73539
 30
0.0
 11
3.21359
 21
5.52319
 31
0.0
  0
LINE
  8
0
 62
     0
 10
3.21359
 20
5.52319
 30
0.0
 11
2.88148
 21
5.19105
 31
0.0
  0
LINE
  8
0
 62
     0
 10
2.88148
 20
5.19105
 30
0.0
 11
2.66788
 21
4.77354
 31
0.0
  0
LINE
  8
0
 62
     0
 10
2.66788
 20
4.77354
 30
0.0
 11
2.59485
 21
4.31052
 31
0.0
  0
LINE
  8
0
 62
     0
 10
2.59485
 20
4.31052
 30
0.0
 11
2.66788
 21
3.84609
 31
0.0
  0
LINE
  8
0
 62
     0
 10
2.66788
 20
3.84609
 30
0.0
 11
2.88148
 21
3.42856
 31
0.0
  0
LINE
  8
0
 62
     0
 10
2.88148
 20
3.42856
 30
0.0
 11
3.21359
 21
3.09645
 31
0.0
  0
LINE
  8
0
 62
     0
 10
3.21359
 20
3.09645
 30
0.0
 11
3.63114
 21
2.88286
 31
0.0
  0
LINE
  8
0
 62
     0
 10
3.63114
 20
2.88286
 30
0.0
 11
4.09554
 21
2.80982
 31
0.0
  0
LINE
  8
0
 62
     0
 10
4.09554
 20
2.80982
 30
0.0
 11
4.55856
 21
2.88286
 31
0.0
  0
LINE
  8
0
 62
     0
 10
4.55856
 20
2.88286
 30
0.0
 11
4.97611
 21
3.09645
 31
0.0
  0
LINE
  8
0
 62
     0
 10
4.97611
 20
3.09645
 30
0.0
 11
5.30821
 21
3.42856
 31
0.0
  0
LINE
  8
0
 62
     0
 10
5.30821
 20
3.42856
 30
0.0
 11
5.52178
 21
3.84609
 31
0.0
  0
LINE
  8
0
 62
     0
 10
5.52178
 20
3.84609
 30
0.0
 11
5.59484
 21
4.31052
 31
0.0
  0
LINE
  8
0
 62
     0
 10
5.59484
 20
4.31052
 30
0.0
 11
5.52178
 21
4.77354
 31
0.0
  0
LINE
  8
0
 62
     0
 10
5.52178
 20
4.77354
 30
0.0
 11
5.30821
 21
5.19105
 31
0.0
  0
LINE
  8
0
 62
     0
 10
5.30821
 20
5.19105
 30
0.0
 11
4.97611
 21
5.52319
 31
0.0
  0
LINE
  8
0
 62
     0
 10
4.97611
 20
5.52319
 30
0.0
 11
4.55856
 21
5.73539
 31
0.0
  0
LINE
  8
0
 62
     0
 10
4.55856
 20
5.73539
 30
0.0
 11
4.09554
 21
5.80983
 31
0.0
  0
LINE
  8
0
 62
     0
 10
4.09554
 20
5.80983
 30
0.0
 11
3.63114
 21
5.73539
 31
0.0
  0
LINE
  8
0
 62
     0
 10
322.957
 20
105.988
 30
0.0
 11
322.539
 21
105.774
 31
0.0
  0
LINE
  8
0
 62
     0
 10
322.539
 20
105.774
 30
0.0
 11
322.207
 21
105.442
 31
0.0
  0
LINE
  8
0
 62
     0
 10
322.207
 20
105.442
 30
0.0
 11
321.995
 21
105.024
 31
0.0
  0
LINE
  8
0
 62
     0
 10
321.995
 20
105.024
 30
0.0
 11
321.922
 21
104.56
 31
0.0
  0
LINE
  8
0
 62
     0
 10
321.922
 20
104.56
 30
0.0
 11
321.995
 21
104.097
 31
0.0
  0
LINE
  8
0
 62
     0
 10
321.995
 20
104.097
 30
0.0
 11
322.207
 21
103.68
 31
0.0
  0
LINE
  8
0
 62
     0
 10
322.207
 20
103.68
 30
0.0
 11
322.539
 21
103.347
 31
0.0
  0
LINE
  8
0
 62
     0
 10
322.539
 20
103.347
 30
0.0
 11
322.957
 21
103.134
 31
0.0
  0
LINE
  8
0
 62
     0
 10
322.957
 20
103.134
 30
0.0
 11
323.421
 21
103.061
 31
0.0
  0
LINE
  8
0
 62
     0
 10
323.421
 20
103.061
 30
0.0
 11
323.885
 21
103.134
 31
0.0
  0
LINE
  8
0
 62
     0
 10
323.885
 20
103.134
 30
0.0
 11
324.302
 21
103.347
 31
0.0
  0
LINE
  8
0
 62
     0
 10
324.302
 20
103.347
 30
0.0
 11
324.634
 21
103.68
 31
0.0
  0
LINE
  8
0
 62
     0
 10
324.634
 20
103.68
 30
0.0
 11
324.848
 21
104.097
 31
0.0
  0
LINE
  8
0
 62
     0
 10
324.848
 20
104.097
 30
0.0
 11
324.922
 21
104.56
 31
0.0
  0
LINE
  8
0
 62
     0
 10
324.922
 20
104.56
 30
0.0
 11
324.848
 21
105.024
 31
0.0
  0
LINE
  8
0
 62
     0
 10
324.848
 20
105.024
 30
0.0
 11
324.634
 21
105.442
 31
0.0
  0
LINE
  8
0
 62
     0
 10
324.634
 20
105.442
 30
0.0
 11
324.302
 21
105.774
 31
0.0
  0
LINE
  8
0
 62
     0
 10
324.302
 20
105.774
 30
0.0
 11
323.885
 21
105.988
 31
0.0
  0
LINE
  8
0
 62
     0
 10
323.885
 20
105.988
 30
0.0
 11
323.421
 21
106.061
 31
0.0
  0
LINE
  8
0
 62
     0
 10
323.421
 20
106.061
 30
0.0
 11
322.957
 21
105.988
 31
0.0
  0
LINE
  8
0
 62
     0
 10
3.63114
 20
105.988
 30
0.0
 11
3.21359
 21
105.774
 31
0.0
  0
LINE
  8
0
 62
     0
 10
3.21359
 20
105.774
 30
0.0
 11
2.88148
 21
105.442
 31
0.0
  0
LINE
  8
0
 62
     0
 10
2.88148
 20
105.442
 30
0.0
 11
2.66788
 21
105.024
 31
0.0
  0
LINE
  8
0
 62
     0
 10
2.66788
 20
105.024
 30
0.0
 11
2.59485
 21
104.56
 31
0.0
  0
LINE
  8
0
 62
     0
 10
2.59485
 20
104.56
 30
0.0
 11
2.66788
 21
104.097
 31
0.0
  0
LINE
  8
0
 62
     0
 10
2.66788
 20
104.097
 30
0.0
 11
2.88148
 21
103.68
 31
0.0
  0
LINE
  8
0
 62
     0
 10
2.88148
 20
103.68
 30
0.0
 11
3.21359
 21
103.347
 31
0.0
  0
LINE
  8
0
 62
     0
 10
3.21359
 20
103.347
 30
0.0
 11
3.63114
 21
103.134
 31
0.0
  0
LINE
  8
0
 62
     0
 10
3.63114
 20
103.134
 30
0.0
 11
4.09554
 21
103.061
 31
0.0
  0
LINE
  8
0
 62
     0
 10
4.09554
 20
103.061
 30
0.0
 11
4.55856
 21
103.134
 31
0.0
  0
LINE
  8
0
 62
     0
 10
4.55856
 20
103.134
 30
0.0
 11
4.97611
 21
103.347
 31
0.0
  0
LINE
  8
0
 62
     0
 10
4.97611
 20
103.347
 30
0.0
 11
5.30821
 21
103.68
 31
0.0
  0
LINE
  8
0
 62
     0
 10
5.30821
 20
103.68
 30
0.0
 11
5.52178
 21
104.097
 31
0.0
  0
LINE
  8
0
 62
     0
 10
5.52178
 20
104.097
 30
0.0
 11
5.59484
 21
104.56
 31
0.0
  0
LINE
  8
0
 62
     0
 10
5.59484
 20
104.56
 30
0.0
 11
5.52178
 21
105.024
 31
0.0
  0
LINE
  8
0
 62
     0
 10
5.52178
 20
105.024
 30
0.0
 11
5.30821
 21
105.442
 31
0.0
  0
LINE
  8
0
 62
     0
 10
5.30821
 20
105.442
 30
0.0
 11
4.97611
 21
105.774
 31
0.0
  0
LINE
  8
0
 62
     0
 10
4.97611
 20
105.774
 30
0.0
 11
4.55856
 21
105.988
 31
0.0
  0
LINE
  8
0
 62
     0
 10
4.55856
 20
105.988
 30
0.0
 11
4.09554
 21
106.061
 31
0.0
  0
LINE
  8
0
 62
     0
 10
4.09554
 20
106.061
 30
0.0
 11
3.63114
 21
105.988
 31
0.0
  0
ENDSEC
  0
EOF
