  0
SECTION
  2
HEADER
  9
$ACADVER
  1
AC1009
  9
$FILLMODE
 70
 0
  9
$SPLFRAME
 70
 1
  9
$EXTMIN
 10
0
 20
0
 30
0.0
  9
$EXTMAX
 10
1058.33
 20
1058.33
 30
0.0
  0
ENDSEC
  0
SECTION
  2
TABLES
  0
TABLE
  2
LAYER
 70
1
  0
LAYER
  2
0
 70
     0
 62
     7
  6
CONTINUOUS
  0
ENDTAB
  0
ENDSEC
  0
SECTION
  2
ENTITIES
  0
LINE
  8
0
 62
     0
 10
322.421
 20
108.56
 30
0.0
 11
322.814
 21
108.545
 31
0.0
  0
LINE
  8
0
 62
     0
 10
322.814
 20
108.545
 30
0.0
 11
323.204
 21
108.499
 31
0.0
  0
LINE
  8
0
 62
     0
 10
323.204
 20
108.499
 30
0.0
 11
323.588
 21
108.423
 31
0.0
  0
LINE
  8
0
 62
     0
 10
323.588
 20
108.423
 30
0.0
 11
323.967
 21
108.317
 31
0.0
  0
LINE
  8
0
 62
     0
 10
323.967
 20
108.317
 30
0.0
 11
324.335
 21
108.18
 31
0.0
  0
LINE
  8
0
 62
     0
 10
324.335
 20
108.18
 30
0.0
 11
324.691
 21
108.016
 31
0.0
  0
LINE
  8
0
 62
     0
 10
324.691
 20
108.016
 30
0.0
 11
325.034
 21
107.825
 31
0.0
  0
LINE
  8
0
 62
     0
 10
325.034
 20
107.825
 30
0.0
 11
325.359
 21
107.605
 31
0.0
  0
LINE
  8
0
 62
     0
 10
325.359
 20
107.605
 30
0.0
 11
325.669
 21
107.363
 31
0.0
  0
LINE
  8
0
 62
     0
 10
325.669
 20
107.363
 30
0.0
 11
325.957
 21
107.096
 31
0.0
  0
LINE
  8
0
 62
     0
 10
325.957
 20
107.096
 30
0.0
 11
326.223
 21
106.808
 31
0.0
  0
LINE
  8
0
 62
     0
 10
326.223
 20
106.808
 30
0.0
 11
326.467
 21
106.499
 31
0.0
  0
LINE
  8
0
 62
     0
 10
326.467
 20
106.499
 30
0.0
 11
326.685
 21
106.174
 31
0.0
  0
LINE
  8
0
 62
     0
 10
326.685
 20
106.174
 30
0.0
 11
326.876
 21
105.831
 31
0.0
  0
LINE
  8
0
 62
     0
 10
326.876
 20
105.831
 30
0.0
 11
327.04
 21
105.474
 31
0.0
  0
LINE
  8
0
 62
     0
 10
327.04
 20
105.474
 30
0.0
 11
327.177
 21
105.106
 31
0.0
  0
LINE
  8
0
 62
     0
 10
327.177
 20
105.106
 30
0.0
 11
327.283
 21
104.728
 31
0.0
  0
LINE
  8
0
 62
     0
 10
327.283
 20
104.728
 30
0.0
 11
327.36
 21
104.344
 31
0.0
  0
LINE
  8
0
 62
     0
 10
327.36
 20
104.344
 30
0.0
 11
327.405
 21
103.954
 31
0.0
  0
LINE
  8
0
 62
     0
 10
327.405
 20
103.954
 30
0.0
 11
327.42
 21
103.56
 31
0.0
  0
LINE
  8
0
 62
     0
 10
327.42
 20
103.56
 30
0.0
 11
327.422
 21
5.30959
 31
0.0
  0
LINE
  8
0
 62
     0
 10
327.422
 20
5.30959
 30
0.0
 11
327.405
 21
4.91684
 31
0.0
  0
LINE
  8
0
 62
     0
 10
327.405
 20
4.91684
 30
0.0
 11
327.36
 21
4.52684
 31
0.0
  0
LINE
  8
0
 62
     0
 10
327.36
 20
4.52684
 30
0.0
 11
327.283
 21
4.14239
 31
0.0
  0
LINE
  8
0
 62
     0
 10
327.283
 20
4.14239
 30
0.0
 11
327.177
 21
3.76343
 31
0.0
  0
LINE
  8
0
 62
     0
 10
327.177
 20
3.76343
 30
0.0
 11
327.04
 21
3.39549
 31
0.0
  0
LINE
  8
0
 62
     0
 10
327.04
 20
3.39549
 30
0.0
 11
326.876
 21
3.03995
 31
0.0
  0
LINE
  8
0
 62
     0
 10
326.876
 20
3.03995
 30
0.0
 11
326.685
 21
2.69682
 31
0.0
  0
LINE
  8
0
 62
     0
 10
326.685
 20
2.69682
 30
0.0
 11
326.467
 21
2.37161
 31
0.0
  0
LINE
  8
0
 62
     0
 10
326.467
 20
2.37161
 30
0.0
 11
326.223
 21
2.06155
 31
0.0
  0
LINE
  8
0
 62
     0
 10
326.223
 20
2.06155
 30
0.0
 11
325.957
 21
1.77353
 31
0.0
  0
LINE
  8
0
 62
     0
 10
325.957
 20
1.77353
 30
0.0
 11
325.669
 21
1.50757
 31
0.0
  0
LINE
  8
0
 62
     0
 10
325.669
 20
1.50757
 30
0.0
 11
325.359
 21
1.26366
 31
0.0
  0
LINE
  8
0
 62
     0
 10
325.359
 20
1.26366
 30
0.0
 11
325.034
 21
1.04593
 31
0.0
  0
LINE
  8
0
 62
     0
 10
325.034
 20
1.04593
 30
0.0
 11
324.691
 21
0.854385
 31
0.0
  0
LINE
  8
0
 62
     0
 10
324.691
 20
0.854385
 30
0.0
 11
324.335
 21
0.690397
 31
0.0
  0
LINE
  8
0
 62
     0
 10
324.335
 20
0.690397
 30
0.0
 11
323.967
 21
0.55397
 31
0.0
  0
LINE
  8
0
 62
     0
 10
323.967
 20
0.55397
 30
0.0
 11
323.588
 21
0.447862
 31
0.0
  0
LINE
  8
0
 62
     0
 10
323.588
 20
0.447862
 30
0.0
 11
323.204
 21
0.370692
 31
0.0
  0
LINE
  8
0
 62
     0
 10
323.204
 20
0.370692
 30
0.0
 11
322.814
 21
0.325217
 31
0.0
  0
LINE
  8
0
 62
     0
 10
322.814
 20
0.325217
 30
0.0
 11
322.421
 21
0.308681
 31
0.0
  0
LINE
  8
0
 62
     0
 10
322.421
 20
0.308681
 30
0.0
 11
5.09598
 21
0.310059
 31
0.0
  0
LINE
  8
0
 62
     0
 10
5.09598
 20
0.310059
 30
0.0
 11
4.70186
 21
0.325217
 31
0.0
  0
LINE
  8
0
 62
     0
 10
4.70186
 20
0.325217
 30
0.0
 11
4.3119
 21
0.370692
 31
0.0
  0
LINE
  8
0
 62
     0
 10
4.3119
 20
0.370692
 30
0.0
 11
3.9274
 21
0.447862
 31
0.0
  0
LINE
  8
0
 62
     0
 10
3.9274
 20
0.447862
 30
0.0
 11
3.54983
 21
0.55397
 31
0.0
  0
LINE
  8
0
 62
     0
 10
3.54983
 20
0.55397
 30
0.0
 11
3.18189
 21
0.690397
 31
0.0
  0
LINE
  8
0
 62
     0
 10
3.18189
 20
0.690397
 30
0.0
 11
2.82498
 21
0.854385
 31
0.0
  0
LINE
  8
0
 62
     0
 10
2.82498
 20
0.854385
 30
0.0
 11
2.48185
 21
1.04593
 31
0.0
  0
LINE
  8
0
 62
     0
 10
2.48185
 20
1.04593
 30
0.0
 11
2.15663
 21
1.26366
 31
0.0
  0
LINE
  8
0
 62
     0
 10
2.15663
 20
1.26366
 30
0.0
 11
1.84795
 21
1.50757
 31
0.0
  0
LINE
  8
0
 62
     0
 10
1.84795
 20
1.50757
 30
0.0
 11
1.55994
 21
1.77353
 31
0.0
  0
LINE
  8
0
 62
     0
 10
1.55994
 20
1.77353
 30
0.0
 11
1.2926
 21
2.06155
 31
0.0
  0
LINE
  8
0
 62
     0
 10
1.2926
 20
2.06155
 30
0.0
 11
1.05006
 21
2.37161
 31
0.0
  0
LINE
  8
0
 62
     0
 10
1.05006
 20
2.37161
 30
0.0
 11
0.830957
 21
2.69682
 31
0.0
  0
LINE
  8
0
 62
     0
 10
0.830957
 20
2.69682
 30
0.0
 11
0.63941
 21
3.03995
 31
0.0
  0
LINE
  8
0
 62
     0
 10
0.63941
 20
3.03995
 30
0.0
 11
0.475424
 21
3.39549
 31
0.0
  0
LINE
  8
0
 62
     0
 10
0.475424
 20
3.39549
 30
0.0
 11
0.338998
 21
3.76343
 31
0.0
  0
LINE
  8
0
 62
     0
 10
0.338998
 20
3.76343
 30
0.0
 11
0.232888
 21
4.14239
 31
0.0
  0
LINE
  8
0
 62
     0
 10
0.232888
 20
4.14239
 30
0.0
 11
0.157097
 21
4.52684
 31
0.0
  0
LINE
  8
0
 62
     0
 10
0.157097
 20
4.52684
 30
0.0
 11
0.110243
 21
4.91684
 31
0.0
  0
LINE
  8
0
 62
     0
 10
0.110243
 20
4.91684
 30
0.0
 11
0.0950846
 21
5.30959
 31
0.0
  0
LINE
  8
0
 62
     0
 10
0.0950846
 20
5.30959
 30
0.0
 11
0.0950846
 21
103.56
 31
0.0
  0
LINE
  8
0
 62
     0
 10
0.0950846
 20
103.56
 30
0.0
 11
0.110243
 21
103.954
 31
0.0
  0
LINE
  8
0
 62
     0
 10
0.110243
 20
103.954
 30
0.0
 11
0.157097
 21
104.344
 31
0.0
  0
LINE
  8
0
 62
     0
 10
0.157097
 20
104.344
 30
0.0
 11
0.232888
 21
104.728
 31
0.0
  0
LINE
  8
0
 62
     0
 10
0.232888
 20
104.728
 30
0.0
 11
0.338998
 21
105.106
 31
0.0
  0
LINE
  8
0
 62
     0
 10
0.338998
 20
105.106
 30
0.0
 11
0.475424
 21
105.474
 31
0.0
  0
LINE
  8
0
 62
     0
 10
0.475424
 20
105.474
 30
0.0
 11
0.63941
 21
105.831
 31
0.0
  0
LINE
  8
0
 62
     0
 10
0.63941
 20
105.831
 30
0.0
 11
0.830957
 21
106.174
 31
0.0
  0
LINE
  8
0
 62
     0
 10
0.830957
 20
106.174
 30
0.0
 11
1.05006
 21
106.499
 31
0.0
  0
LINE
  8
0
 62
     0
 10
1.05006
 20
106.499
 30
0.0
 11
1.2926
 21
106.808
 31
0.0
  0
LINE
  8
0
 62
     0
 10
1.2926
 20
106.808
 30
0.0
 11
1.55994
 21
107.096
 31
0.0
  0
LINE
  8
0
 62
     0
 10
1.55994
 20
107.096
 30
0.0
 11
1.84795
 21
107.363
 31
0.0
  0
LINE
  8
0
 62
     0
 10
1.84795
 20
107.363
 30
0.0
 11
2.15663
 21
107.605
 31
0.0
  0
LINE
  8
0
 62
     0
 10
2.15663
 20
107.605
 30
0.0
 11
2.48185
 21
107.825
 31
0.0
  0
LINE
  8
0
 62
     0
 10
2.48185
 20
107.825
 30
0.0
 11
2.82498
 21
108.016
 31
0.0
  0
LINE
  8
0
 62
     0
 10
2.82498
 20
108.016
 30
0.0
 11
3.18189
 21
108.18
 31
0.0
  0
LINE
  8
0
 62
     0
 10
3.18189
 20
108.18
 30
0.0
 11
3.54983
 21
108.317
 31
0.0
  0
LINE
  8
0
 62
     0
 10
3.54983
 20
108.317
 30
0.0
 11
3.9274
 21
108.423
 31
0.0
  0
LINE
  8
0
 62
     0
 10
3.9274
 20
108.423
 30
0.0
 11
4.3119
 21
108.499
 31
0.0
  0
LINE
  8
0
 62
     0
 10
4.3119
 20
108.499
 30
0.0
 11
4.70186
 21
108.545
 31
0.0
  0
LINE
  8
0
 62
     0
 10
4.70186
 20
108.545
 30
0.0
 11
5.09598
 21
108.56
 31
0.0
  0
LINE
  8
0
 62
     0
 10
5.09598
 20
108.56
 30
0.0
 11
322.421
 21
108.56
 31
0.0
  0
LINE
  8
0
 62
     0
 10
322.957
 20
5.73539
 30
0.0
 11
322.539
 21
5.52319
 31
0.0
  0
LINE
  8
0
 62
     0
 10
322.539
 20
5.52319
 30
0.0
 11
322.207
 21
5.19105
 31
0.0
  0
LINE
  8
0
 62
     0
 10
322.207
 20
5.19105
 30
0.0
 11
321.995
 21
4.77354
 31
0.0
  0
LINE
  8
0
 62
     0
 10
321.995
 20
4.77354
 30
0.0
 11
321.922
 21
4.31052
 31
0.0
  0
LINE
  8
0
 62
     0
 10
321.922
 20
4.31052
 30
0.0
 11
321.995
 21
3.84609
 31
0.0
  0
LINE
  8
0
 62
     0
 10
321.995
 20
3.84609
 30
0.0
 11
322.207
 21
3.42856
 31
0.0
  0
LINE
  8
0
 62
     0
 10
322.207
 20
3.42856
 30
0.0
 11
322.539
 21
3.09645
 31
0.0
  0
LINE
  8
0
 62
     0
 10
322.539
 20
3.09645
 30
0.0
 11
322.957
 21
2.88286
 31
0.0
  0
LINE
  8
0
 62
     0
 10
322.957
 20
2.88286
 30
0.0
 11
323.421
 21
2.80982
 31
0.0
  0
LINE
  8
0
 62
     0
 10
323.421
 20
2.80982
 30
0.0
 11
323.885
 21
2.88286
 31
0.0
  0
LINE
  8
0
 62
     0
 10
323.885
 20
2.88286
 30
0.0
 11
324.302
 21
3.09645
 31
0.0
  0
LINE
  8
0
 62
     0
 10
324.302
 20
3.09645
 30
0.0
 11
324.634
 21
3.42856
 31
0.0
  0
LINE
  8
0
 62
     0
 10
324.634
 20
3.42856
 30
0.0
 11
324.848
 21
3.84609
 31
0.0
  0
LINE
  8
0
 62
     0
 10
324.848
 20
3.84609
 30
0.0
 11
324.922
 21
4.31052
 31
0.0
  0
LINE
  8
0
 62
     0
 10
324.922
 20
4.31052
 30
0.0
 11
324.848
 21
4.77354
 31
0.0
  0
LINE
  8
0
 62
     0
 10
324.848
 20
4.77354
 30
0.0
 11
324.634
 21
5.19105
 31
0.0
  0
LINE
  8
0
 62
     0
 10
324.634
 20
5.19105
 30
0.0
 11
324.302
 21
5.52319
 31
0.0
  0
LINE
  8
0
 62
     0
 10
324.302
 20
5.52319
 30
0.0
 11
323.885
 21
5.73539
 31
0.0
  0
LINE
  8
0
 62
     0
 10
323.885
 20
5.73539
 30
0.0
 11
323.421
 21
5.80983
 31
0.0
  0
LINE
  8
0
 62
     0
 10
323.421
 20
5.80983
 30
0.0
 11
322.957
 21
5.73539
 31
0.0
  0
LINE
  8
0
 62
     0
 10
3.63114
 20
5.73539
 30
0.0
 11
3.21359
 21
5.52319
 31
0.0
  0
LINE
  8
0
 62
     0
 10
3.21359
 20
5.52319
 30
0.0
 11
2.88148
 21
5.19105
 31
0.0
  0
LINE
  8
0
 62
     0
 10
2.88148
 20
5.19105
 30
0.0
 11
2.66788
 21
4.77354
 31
0.0
  0
LINE
  8
0
 62
     0
 10
2.66788
 20
4.77354
 30
0.0
 11
2.59485
 21
4.31052
 31
0.0
  0
LINE
  8
0
 62
     0
 10
2.59485
 20
4.31052
 30
0.0
 11
2.66788
 21
3.84609
 31
0.0
  0
LINE
  8
0
 62
     0
 10
2.66788
 20
3.84609
 30
0.0
 11
2.88148
 21
3.42856
 31
0.0
  0
LINE
  8
0
 62
     0
 10
2.88148
 20
3.42856
 30
0.0
 11
3.21359
 21
3.09645
 31
0.0
  0
LINE
  8
0
 62
     0
 10
3.21359
 20
3.09645
 30
0.0
 11
3.63114
 21
2.88286
 31
0.0
  0
LINE
  8
0
 62
     0
 10
3.63114
 20
2.88286
 30
0.0
 11
4.09554
 21
2.80982
 31
0.0
  0
LINE
  8
0
 62
     0
 10
4.09554
 20
2.80982
 30
0.0
 11
4.55856
 21
2.88286
 31
0.0
  0
LINE
  8
0
 62
     0
 10
4.55856
 20
2.88286
 30
0.0
 11
4.97611
 21
3.09645
 31
0.0
  0
LINE
  8
0
 62
     0
 10
4.97611
 20
3.09645
 30
0.0
 11
5.30821
 21
3.42856
 31
0.0
  0
LINE
  8
0
 62
     0
 10
5.30821
 20
3.42856
 30
0.0
 11
5.52178
 21
3.84609
 31
0.0
  0
LINE
  8
0
 62
     0
 10
5.52178
 20
3.84609
 30
0.0
 11
5.59484
 21
4.31052
 31
0.0
  0
LINE
  8
0
 62
     0
 10
5.59484
 20
4.31052
 30
0.0
 11
5.52178
 21
4.77354
 31
0.0
  0
LINE
  8
0
 62
     0
 10
5.52178
 20
4.77354
 30
0.0
 11
5.30821
 21
5.19105
 31
0.0
  0
LINE
  8
0
 62
     0
 10
5.30821
 20
5.19105
 30
0.0
 11
4.97611
 21
5.52319
 31
0.0
  0
LINE
  8
0
 62
     0
 10
4.97611
 20
5.52319
 30
0.0
 11
4.55856
 21
5.73539
 31
0.0
  0
LINE
  8
0
 62
     0
 10
4.55856
 20
5.73539
 30
0.0
 11
4.09554
 21
5.80983
 31
0.0
  0
LINE
  8
0
 62
     0
 10
4.09554
 20
5.80983
 30
0.0
 11
3.63114
 21
5.73539
 31
0.0
  0
LINE
  8
0
 62
     0
 10
132.063
 20
21.835
 30
0.0
 11
132.063
 21
20.8346
 31
0.0
  0
LINE
  8
0
 62
     0
 10
132.063
 20
20.8346
 30
0.0
 11
131.264
 21
20.8346
 31
0.0
  0
LINE
  8
0
 62
     0
 10
131.264
 20
20.8346
 30
0.0
 11
131.264
 21
20.7367
 31
0.0
  0
LINE
  8
0
 62
     0
 10
131.264
 20
20.7367
 30
0.0
 11
132.063
 21
20.7367
 31
0.0
  0
LINE
  8
0
 62
     0
 10
132.063
 20
20.7367
 30
0.0
 11
132.063
 21
17.1345
 31
0.0
  0
LINE
  8
0
 62
     0
 10
132.063
 20
17.1345
 30
0.0
 11
89.4387
 21
17.1345
 31
0.0
  0
LINE
  8
0
 62
     0
 10
89.4387
 20
17.1345
 30
0.0
 11
89.4387
 21
20.3647
 31
0.0
  0
LINE
  8
0
 62
     0
 10
89.4387
 20
20.3647
 30
0.0
 11
87.7136
 21
20.3647
 31
0.0
  0
LINE
  8
0
 62
     0
 10
87.7136
 20
20.3647
 30
0.0
 11
87.7136
 21
21.2865
 31
0.0
  0
LINE
  8
0
 62
     0
 10
87.7136
 20
21.2865
 30
0.0
 11
87.413
 21
21.2865
 31
0.0
  0
LINE
  8
0
 62
     0
 10
87.413
 20
21.2865
 30
0.0
 11
87.413
 21
20.3647
 31
0.0
  0
LINE
  8
0
 62
     0
 10
87.413
 20
20.3647
 30
0.0
 11
85.689
 21
20.3647
 31
0.0
  0
LINE
  8
0
 62
     0
 10
85.689
 20
20.3647
 30
0.0
 11
85.689
 21
17.3357
 31
0.0
  0
LINE
  8
0
 62
     0
 10
85.689
 20
17.3357
 30
0.0
 11
84.8639
 21
17.3357
 31
0.0
  0
LINE
  8
0
 62
     0
 10
84.8639
 20
17.3357
 30
0.0
 11
84.8639
 21
17.1345
 31
0.0
  0
LINE
  8
0
 62
     0
 10
84.8639
 20
17.1345
 30
0.0
 11
85.689
 21
17.1345
 31
0.0
  0
LINE
  8
0
 62
     0
 10
85.689
 20
17.1345
 30
0.0
 11
85.689
 21
11.0657
 31
0.0
  0
LINE
  8
0
 62
     0
 10
85.689
 20
11.0657
 30
0.0
 11
87.413
 21
11.0657
 31
0.0
  0
LINE
  8
0
 62
     0
 10
87.413
 20
11.0657
 30
0.0
 11
87.413
 21
10.0845
 31
0.0
  0
LINE
  8
0
 62
     0
 10
87.413
 20
10.0845
 30
0.0
 11
87.7136
 21
10.0845
 31
0.0
  0
LINE
  8
0
 62
     0
 10
87.7136
 20
10.0845
 30
0.0
 11
87.7136
 21
11.0657
 31
0.0
  0
LINE
  8
0
 62
     0
 10
87.7136
 20
11.0657
 30
0.0
 11
89.4387
 21
11.0657
 31
0.0
  0
LINE
  8
0
 62
     0
 10
89.4387
 20
11.0657
 30
0.0
 11
89.4387
 21
15.536
 31
0.0
  0
LINE
  8
0
 62
     0
 10
89.4387
 20
15.536
 30
0.0
 11
132.063
 21
15.536
 31
0.0
  0
LINE
  8
0
 62
     0
 10
132.063
 20
15.536
 30
0.0
 11
132.063
 21
11.9352
 31
0.0
  0
LINE
  8
0
 62
     0
 10
132.063
 20
11.9352
 30
0.0
 11
131.264
 21
11.9352
 31
0.0
  0
LINE
  8
0
 62
     0
 10
131.264
 20
11.9352
 30
0.0
 11
131.264
 21
11.8346
 31
0.0
  0
LINE
  8
0
 62
     0
 10
131.264
 20
11.8346
 30
0.0
 11
132.063
 21
11.8346
 31
0.0
  0
LINE
  8
0
 62
     0
 10
132.063
 20
11.8346
 30
0.0
 11
132.063
 21
10.8355
 31
0.0
  0
LINE
  8
0
 62
     0
 10
132.063
 20
10.8355
 30
0.0
 11
143.064
 21
10.8355
 31
0.0
  0
LINE
  8
0
 62
     0
 10
143.064
 20
10.8355
 30
0.0
 11
143.064
 21
11.8346
 31
0.0
  0
LINE
  8
0
 62
     0
 10
143.064
 20
11.8346
 30
0.0
 11
143.863
 21
11.8346
 31
0.0
  0
LINE
  8
0
 62
     0
 10
143.863
 20
11.8346
 30
0.0
 11
143.863
 21
11.9352
 31
0.0
  0
LINE
  8
0
 62
     0
 10
143.863
 20
11.9352
 30
0.0
 11
143.064
 21
11.9352
 31
0.0
  0
LINE
  8
0
 62
     0
 10
143.064
 20
11.9352
 30
0.0
 11
143.064
 21
15.536
 31
0.0
  0
LINE
  8
0
 62
     0
 10
143.064
 20
15.536
 30
0.0
 11
185.688
 21
15.536
 31
0.0
  0
LINE
  8
0
 62
     0
 10
185.688
 20
15.536
 30
0.0
 11
185.688
 21
11.0657
 31
0.0
  0
LINE
  8
0
 62
     0
 10
185.688
 20
11.0657
 30
0.0
 11
187.413
 21
11.0657
 31
0.0
  0
LINE
  8
0
 62
     0
 10
187.413
 20
11.0657
 30
0.0
 11
187.413
 21
10.0845
 31
0.0
  0
LINE
  8
0
 62
     0
 10
187.413
 20
10.0845
 30
0.0
 11
187.714
 21
10.0845
 31
0.0
  0
LINE
  8
0
 62
     0
 10
187.714
 20
10.0845
 30
0.0
 11
187.714
 21
11.0657
 31
0.0
  0
LINE
  8
0
 62
     0
 10
187.714
 20
11.0657
 30
0.0
 11
189.439
 21
11.0657
 31
0.0
  0
LINE
  8
0
 62
     0
 10
189.439
 20
11.0657
 30
0.0
 11
189.439
 21
17.1345
 31
0.0
  0
LINE
  8
0
 62
     0
 10
189.439
 20
17.1345
 30
0.0
 11
190.263
 21
17.1345
 31
0.0
  0
LINE
  8
0
 62
     0
 10
190.263
 20
17.1345
 30
0.0
 11
190.263
 21
17.3357
 31
0.0
  0
LINE
  8
0
 62
     0
 10
190.263
 20
17.3357
 30
0.0
 11
189.439
 21
17.3357
 31
0.0
  0
LINE
  8
0
 62
     0
 10
189.439
 20
17.3357
 30
0.0
 11
189.439
 21
20.3647
 31
0.0
  0
LINE
  8
0
 62
     0
 10
189.439
 20
20.3647
 30
0.0
 11
187.714
 21
20.3647
 31
0.0
  0
LINE
  8
0
 62
     0
 10
187.714
 20
20.3647
 30
0.0
 11
187.714
 21
21.2865
 31
0.0
  0
LINE
  8
0
 62
     0
 10
187.714
 20
21.2865
 30
0.0
 11
187.413
 21
21.2865
 31
0.0
  0
LINE
  8
0
 62
     0
 10
187.413
 20
21.2865
 30
0.0
 11
187.413
 21
20.3647
 31
0.0
  0
LINE
  8
0
 62
     0
 10
187.413
 20
20.3647
 30
0.0
 11
185.688
 21
20.3647
 31
0.0
  0
LINE
  8
0
 62
     0
 10
185.688
 20
20.3647
 30
0.0
 11
185.688
 21
17.1345
 31
0.0
  0
LINE
  8
0
 62
     0
 10
185.688
 20
17.1345
 30
0.0
 11
143.064
 21
17.1345
 31
0.0
  0
LINE
  8
0
 62
     0
 10
143.064
 20
17.1345
 30
0.0
 11
143.064
 21
20.7367
 31
0.0
  0
LINE
  8
0
 62
     0
 10
143.064
 20
20.7367
 30
0.0
 11
143.863
 21
20.7367
 31
0.0
  0
LINE
  8
0
 62
     0
 10
143.863
 20
20.7367
 30
0.0
 11
143.863
 21
20.8346
 31
0.0
  0
LINE
  8
0
 62
     0
 10
143.863
 20
20.8346
 30
0.0
 11
143.064
 21
20.8346
 31
0.0
  0
LINE
  8
0
 62
     0
 10
143.064
 20
20.8346
 30
0.0
 11
143.064
 21
21.835
 31
0.0
  0
LINE
  8
0
 62
     0
 10
143.064
 20
21.835
 30
0.0
 11
132.063
 21
21.835
 31
0.0
  0
LINE
  8
0
 62
     0
 10
13.0018
 20
21.835
 30
0.0
 11
13.0018
 21
20.8346
 31
0.0
  0
LINE
  8
0
 62
     0
 10
13.0018
 20
20.8346
 30
0.0
 11
12.2011
 21
20.8346
 31
0.0
  0
LINE
  8
0
 62
     0
 10
12.2011
 20
20.8346
 30
0.0
 11
12.2011
 21
20.7367
 31
0.0
  0
LINE
  8
0
 62
     0
 10
12.2011
 20
20.7367
 30
0.0
 11
13.0018
 21
20.7367
 31
0.0
  0
LINE
  8
0
 62
     0
 10
13.0018
 20
20.7367
 30
0.0
 11
13.0018
 21
11.9352
 31
0.0
  0
LINE
  8
0
 62
     0
 10
13.0018
 20
11.9352
 30
0.0
 11
12.2011
 21
11.9352
 31
0.0
  0
LINE
  8
0
 62
     0
 10
12.2011
 20
11.9352
 30
0.0
 11
12.2011
 21
11.8346
 31
0.0
  0
LINE
  8
0
 62
     0
 10
12.2011
 20
11.8346
 30
0.0
 11
13.0018
 21
11.8346
 31
0.0
  0
LINE
  8
0
 62
     0
 10
13.0018
 20
11.8346
 30
0.0
 11
13.0018
 21
10.8355
 31
0.0
  0
LINE
  8
0
 62
     0
 10
13.0018
 20
10.8355
 30
0.0
 11
24.0013
 21
10.8355
 31
0.0
  0
LINE
  8
0
 62
     0
 10
24.0013
 20
10.8355
 30
0.0
 11
24.0013
 21
11.8346
 31
0.0
  0
LINE
  8
0
 62
     0
 10
24.0013
 20
11.8346
 30
0.0
 11
24.8019
 21
11.8346
 31
0.0
  0
LINE
  8
0
 62
     0
 10
24.8019
 20
11.8346
 30
0.0
 11
24.8019
 21
11.9352
 31
0.0
  0
LINE
  8
0
 62
     0
 10
24.8019
 20
11.9352
 30
0.0
 11
24.0013
 21
11.9352
 31
0.0
  0
LINE
  8
0
 62
     0
 10
24.0013
 20
11.9352
 30
0.0
 11
24.0013
 21
20.7367
 31
0.0
  0
LINE
  8
0
 62
     0
 10
24.0013
 20
20.7367
 30
0.0
 11
24.8019
 21
20.7367
 31
0.0
  0
LINE
  8
0
 62
     0
 10
24.8019
 20
20.7367
 30
0.0
 11
24.8019
 21
20.8346
 31
0.0
  0
LINE
  8
0
 62
     0
 10
24.8019
 20
20.8346
 30
0.0
 11
24.0013
 21
20.8346
 31
0.0
  0
LINE
  8
0
 62
     0
 10
24.0013
 20
20.8346
 30
0.0
 11
24.0013
 21
21.835
 31
0.0
  0
LINE
  8
0
 62
     0
 10
24.0013
 20
21.835
 30
0.0
 11
13.0018
 21
21.835
 31
0.0
  0
LINE
  8
0
 62
     0
 10
36.8131
 20
21.835
 30
0.0
 11
36.8131
 21
20.8346
 31
0.0
  0
LINE
  8
0
 62
     0
 10
36.8131
 20
20.8346
 30
0.0
 11
36.0137
 21
20.8346
 31
0.0
  0
LINE
  8
0
 62
     0
 10
36.0137
 20
20.8346
 30
0.0
 11
36.0137
 21
20.7367
 31
0.0
  0
LINE
  8
0
 62
     0
 10
36.0137
 20
20.7367
 30
0.0
 11
36.8131
 21
20.7367
 31
0.0
  0
LINE
  8
0
 62
     0
 10
36.8131
 20
20.7367
 30
0.0
 11
36.8131
 21
11.9352
 31
0.0
  0
LINE
  8
0
 62
     0
 10
36.8131
 20
11.9352
 30
0.0
 11
36.0137
 21
11.9352
 31
0.0
  0
LINE
  8
0
 62
     0
 10
36.0137
 20
11.9352
 30
0.0
 11
36.0137
 21
11.8346
 31
0.0
  0
LINE
  8
0
 62
     0
 10
36.0137
 20
11.8346
 30
0.0
 11
36.8131
 21
11.8346
 31
0.0
  0
LINE
  8
0
 62
     0
 10
36.8131
 20
11.8346
 30
0.0
 11
36.8131
 21
10.8355
 31
0.0
  0
LINE
  8
0
 62
     0
 10
36.8131
 20
10.8355
 30
0.0
 11
47.8137
 21
10.8355
 31
0.0
  0
LINE
  8
0
 62
     0
 10
47.8137
 20
10.8355
 30
0.0
 11
47.8137
 21
11.8346
 31
0.0
  0
LINE
  8
0
 62
     0
 10
47.8137
 20
11.8346
 30
0.0
 11
48.6131
 21
11.8346
 31
0.0
  0
LINE
  8
0
 62
     0
 10
48.6131
 20
11.8346
 30
0.0
 11
48.6131
 21
11.9352
 31
0.0
  0
LINE
  8
0
 62
     0
 10
48.6131
 20
11.9352
 30
0.0
 11
47.8137
 21
11.9352
 31
0.0
  0
LINE
  8
0
 62
     0
 10
47.8137
 20
11.9352
 30
0.0
 11
47.8137
 21
20.7367
 31
0.0
  0
LINE
  8
0
 62
     0
 10
47.8137
 20
20.7367
 30
0.0
 11
48.6131
 21
20.7367
 31
0.0
  0
LINE
  8
0
 62
     0
 10
48.6131
 20
20.7367
 30
0.0
 11
48.6131
 21
20.8346
 31
0.0
  0
LINE
  8
0
 62
     0
 10
48.6131
 20
20.8346
 30
0.0
 11
47.8137
 21
20.8346
 31
0.0
  0
LINE
  8
0
 62
     0
 10
47.8137
 20
20.8346
 30
0.0
 11
47.8137
 21
21.835
 31
0.0
  0
LINE
  8
0
 62
     0
 10
47.8137
 20
21.835
 30
0.0
 11
36.8131
 21
21.835
 31
0.0
  0
LINE
  8
0
 62
     0
 10
60.6266
 20
21.835
 30
0.0
 11
60.6266
 21
20.8346
 31
0.0
  0
LINE
  8
0
 62
     0
 10
60.6266
 20
20.8346
 30
0.0
 11
59.8262
 21
20.8346
 31
0.0
  0
LINE
  8
0
 62
     0
 10
59.8262
 20
20.8346
 30
0.0
 11
59.8262
 21
20.7367
 31
0.0
  0
LINE
  8
0
 62
     0
 10
59.8262
 20
20.7367
 30
0.0
 11
60.6266
 21
20.7367
 31
0.0
  0
LINE
  8
0
 62
     0
 10
60.6266
 20
20.7367
 30
0.0
 11
60.6266
 21
11.9352
 31
0.0
  0
LINE
  8
0
 62
     0
 10
60.6266
 20
11.9352
 30
0.0
 11
59.8262
 21
11.9352
 31
0.0
  0
LINE
  8
0
 62
     0
 10
59.8262
 20
11.9352
 30
0.0
 11
59.8262
 21
11.8346
 31
0.0
  0
LINE
  8
0
 62
     0
 10
59.8262
 20
11.8346
 30
0.0
 11
60.6266
 21
11.8346
 31
0.0
  0
LINE
  8
0
 62
     0
 10
60.6266
 20
11.8346
 30
0.0
 11
60.6266
 21
10.8355
 31
0.0
  0
LINE
  8
0
 62
     0
 10
60.6266
 20
10.8355
 30
0.0
 11
71.6262
 21
10.8355
 31
0.0
  0
LINE
  8
0
 62
     0
 10
71.6262
 20
10.8355
 30
0.0
 11
71.6262
 21
11.8346
 31
0.0
  0
LINE
  8
0
 62
     0
 10
71.6262
 20
11.8346
 30
0.0
 11
72.427
 21
11.8346
 31
0.0
  0
LINE
  8
0
 62
     0
 10
72.427
 20
11.8346
 30
0.0
 11
72.427
 21
11.9352
 31
0.0
  0
LINE
  8
0
 62
     0
 10
72.427
 20
11.9352
 30
0.0
 11
71.6262
 21
11.9352
 31
0.0
  0
LINE
  8
0
 62
     0
 10
71.6262
 20
11.9352
 30
0.0
 11
71.6262
 21
20.7367
 31
0.0
  0
LINE
  8
0
 62
     0
 10
71.6262
 20
20.7367
 30
0.0
 11
72.427
 21
20.7367
 31
0.0
  0
LINE
  8
0
 62
     0
 10
72.427
 20
20.7367
 30
0.0
 11
72.427
 21
20.8346
 31
0.0
  0
LINE
  8
0
 62
     0
 10
72.427
 20
20.8346
 30
0.0
 11
71.6262
 21
20.8346
 31
0.0
  0
LINE
  8
0
 62
     0
 10
71.6262
 20
20.8346
 30
0.0
 11
71.6262
 21
21.835
 31
0.0
  0
LINE
  8
0
 62
     0
 10
71.6262
 20
21.835
 30
0.0
 11
60.6266
 21
21.835
 31
0.0
  0
LINE
  8
0
 62
     0
 10
203.502
 20
21.835
 30
0.0
 11
203.502
 21
20.8346
 31
0.0
  0
LINE
  8
0
 62
     0
 10
203.502
 20
20.8346
 30
0.0
 11
202.701
 21
20.8346
 31
0.0
  0
LINE
  8
0
 62
     0
 10
202.701
 20
20.8346
 30
0.0
 11
202.701
 21
20.7367
 31
0.0
  0
LINE
  8
0
 62
     0
 10
202.701
 20
20.7367
 30
0.0
 11
203.502
 21
20.7367
 31
0.0
  0
LINE
  8
0
 62
     0
 10
203.502
 20
20.7367
 30
0.0
 11
203.502
 21
11.9352
 31
0.0
  0
LINE
  8
0
 62
     0
 10
203.502
 20
11.9352
 30
0.0
 11
202.701
 21
11.9352
 31
0.0
  0
LINE
  8
0
 62
     0
 10
202.701
 20
11.9352
 30
0.0
 11
202.701
 21
11.8346
 31
0.0
  0
LINE
  8
0
 62
     0
 10
202.701
 20
11.8346
 30
0.0
 11
203.502
 21
11.8346
 31
0.0
  0
LINE
  8
0
 62
     0
 10
203.502
 20
11.8346
 30
0.0
 11
203.502
 21
10.8355
 31
0.0
  0
LINE
  8
0
 62
     0
 10
203.502
 20
10.8355
 30
0.0
 11
214.501
 21
10.8355
 31
0.0
  0
LINE
  8
0
 62
     0
 10
214.501
 20
10.8355
 30
0.0
 11
214.501
 21
11.8346
 31
0.0
  0
LINE
  8
0
 62
     0
 10
214.501
 20
11.8346
 30
0.0
 11
215.302
 21
11.8346
 31
0.0
  0
LINE
  8
0
 62
     0
 10
215.302
 20
11.8346
 30
0.0
 11
215.302
 21
11.9352
 31
0.0
  0
LINE
  8
0
 62
     0
 10
215.302
 20
11.9352
 30
0.0
 11
214.501
 21
11.9352
 31
0.0
  0
LINE
  8
0
 62
     0
 10
214.501
 20
11.9352
 30
0.0
 11
214.501
 21
20.7367
 31
0.0
  0
LINE
  8
0
 62
     0
 10
214.501
 20
20.7367
 30
0.0
 11
215.302
 21
20.7367
 31
0.0
  0
LINE
  8
0
 62
     0
 10
215.302
 20
20.7367
 30
0.0
 11
215.302
 21
20.8346
 31
0.0
  0
LINE
  8
0
 62
     0
 10
215.302
 20
20.8346
 30
0.0
 11
214.501
 21
20.8346
 31
0.0
  0
LINE
  8
0
 62
     0
 10
214.501
 20
20.8346
 30
0.0
 11
214.501
 21
21.835
 31
0.0
  0
LINE
  8
0
 62
     0
 10
214.501
 20
21.835
 30
0.0
 11
203.502
 21
21.835
 31
0.0
  0
LINE
  8
0
 62
     0
 10
227.313
 20
21.835
 30
0.0
 11
227.313
 21
20.8346
 31
0.0
  0
LINE
  8
0
 62
     0
 10
227.313
 20
20.8346
 30
0.0
 11
226.514
 21
20.8346
 31
0.0
  0
LINE
  8
0
 62
     0
 10
226.514
 20
20.8346
 30
0.0
 11
226.514
 21
20.7367
 31
0.0
  0
LINE
  8
0
 62
     0
 10
226.514
 20
20.7367
 30
0.0
 11
227.313
 21
20.7367
 31
0.0
  0
LINE
  8
0
 62
     0
 10
227.313
 20
20.7367
 30
0.0
 11
227.313
 21
11.9352
 31
0.0
  0
LINE
  8
0
 62
     0
 10
227.313
 20
11.9352
 30
0.0
 11
226.514
 21
11.9352
 31
0.0
  0
LINE
  8
0
 62
     0
 10
226.514
 20
11.9352
 30
0.0
 11
226.514
 21
11.8346
 31
0.0
  0
LINE
  8
0
 62
     0
 10
226.514
 20
11.8346
 30
0.0
 11
227.313
 21
11.8346
 31
0.0
  0
LINE
  8
0
 62
     0
 10
227.313
 20
11.8346
 30
0.0
 11
227.313
 21
10.8355
 31
0.0
  0
LINE
  8
0
 62
     0
 10
227.313
 20
10.8355
 30
0.0
 11
238.314
 21
10.8355
 31
0.0
  0
LINE
  8
0
 62
     0
 10
238.314
 20
10.8355
 30
0.0
 11
238.314
 21
11.8346
 31
0.0
  0
LINE
  8
0
 62
     0
 10
238.314
 20
11.8346
 30
0.0
 11
239.113
 21
11.8346
 31
0.0
  0
LINE
  8
0
 62
     0
 10
239.113
 20
11.8346
 30
0.0
 11
239.113
 21
11.9352
 31
0.0
  0
LINE
  8
0
 62
     0
 10
239.113
 20
11.9352
 30
0.0
 11
238.314
 21
11.9352
 31
0.0
  0
LINE
  8
0
 62
     0
 10
238.314
 20
11.9352
 30
0.0
 11
238.314
 21
20.7367
 31
0.0
  0
LINE
  8
0
 62
     0
 10
238.314
 20
20.7367
 30
0.0
 11
239.113
 21
20.7367
 31
0.0
  0
LINE
  8
0
 62
     0
 10
239.113
 20
20.7367
 30
0.0
 11
239.113
 21
20.8346
 31
0.0
  0
LINE
  8
0
 62
     0
 10
239.113
 20
20.8346
 30
0.0
 11
238.314
 21
20.8346
 31
0.0
  0
LINE
  8
0
 62
     0
 10
238.314
 20
20.8346
 30
0.0
 11
238.314
 21
21.835
 31
0.0
  0
LINE
  8
0
 62
     0
 10
238.314
 20
21.835
 30
0.0
 11
227.313
 21
21.835
 31
0.0
  0
LINE
  8
0
 62
     0
 10
248.744
 20
21.835
 30
0.0
 11
248.744
 21
20.8346
 31
0.0
  0
LINE
  8
0
 62
     0
 10
248.744
 20
20.8346
 30
0.0
 11
247.945
 21
20.8346
 31
0.0
  0
LINE
  8
0
 62
     0
 10
247.945
 20
20.8346
 30
0.0
 11
247.945
 21
20.7367
 31
0.0
  0
LINE
  8
0
 62
     0
 10
247.945
 20
20.7367
 30
0.0
 11
248.744
 21
20.7367
 31
0.0
  0
LINE
  8
0
 62
     0
 10
248.744
 20
20.7367
 30
0.0
 11
248.744
 21
11.9352
 31
0.0
  0
LINE
  8
0
 62
     0
 10
248.744
 20
11.9352
 30
0.0
 11
247.945
 21
11.9352
 31
0.0
  0
LINE
  8
0
 62
     0
 10
247.945
 20
11.9352
 30
0.0
 11
247.945
 21
11.8346
 31
0.0
  0
LINE
  8
0
 62
     0
 10
247.945
 20
11.8346
 30
0.0
 11
248.744
 21
11.8346
 31
0.0
  0
LINE
  8
0
 62
     0
 10
248.744
 20
11.8346
 30
0.0
 11
248.744
 21
10.8355
 31
0.0
  0
LINE
  8
0
 62
     0
 10
248.744
 20
10.8355
 30
0.0
 11
259.745
 21
10.8355
 31
0.0
  0
LINE
  8
0
 62
     0
 10
259.745
 20
10.8355
 30
0.0
 11
259.745
 21
11.8346
 31
0.0
  0
LINE
  8
0
 62
     0
 10
259.745
 20
11.8346
 30
0.0
 11
260.546
 21
11.8346
 31
0.0
  0
LINE
  8
0
 62
     0
 10
260.546
 20
11.8346
 30
0.0
 11
260.546
 21
11.9352
 31
0.0
  0
LINE
  8
0
 62
     0
 10
260.546
 20
11.9352
 30
0.0
 11
259.745
 21
11.9352
 31
0.0
  0
LINE
  8
0
 62
     0
 10
259.745
 20
11.9352
 30
0.0
 11
259.745
 21
20.7367
 31
0.0
  0
LINE
  8
0
 62
     0
 10
259.745
 20
20.7367
 30
0.0
 11
260.546
 21
20.7367
 31
0.0
  0
LINE
  8
0
 62
     0
 10
260.546
 20
20.7367
 30
0.0
 11
260.546
 21
20.8346
 31
0.0
  0
LINE
  8
0
 62
     0
 10
260.546
 20
20.8346
 30
0.0
 11
259.745
 21
20.8346
 31
0.0
  0
LINE
  8
0
 62
     0
 10
259.745
 20
20.8346
 30
0.0
 11
259.745
 21
21.835
 31
0.0
  0
LINE
  8
0
 62
     0
 10
259.745
 20
21.835
 30
0.0
 11
248.744
 21
21.835
 31
0.0
  0
LINE
  8
0
 62
     0
 10
267.795
 20
21.835
 30
0.0
 11
267.795
 21
20.8346
 31
0.0
  0
LINE
  8
0
 62
     0
 10
267.795
 20
20.8346
 30
0.0
 11
266.995
 21
20.8346
 31
0.0
  0
LINE
  8
0
 62
     0
 10
266.995
 20
20.8346
 30
0.0
 11
266.995
 21
20.7367
 31
0.0
  0
LINE
  8
0
 62
     0
 10
266.995
 20
20.7367
 30
0.0
 11
267.795
 21
20.7367
 31
0.0
  0
LINE
  8
0
 62
     0
 10
267.795
 20
20.7367
 30
0.0
 11
267.795
 21
11.9352
 31
0.0
  0
LINE
  8
0
 62
     0
 10
267.795
 20
11.9352
 30
0.0
 11
266.995
 21
11.9352
 31
0.0
  0
LINE
  8
0
 62
     0
 10
266.995
 20
11.9352
 30
0.0
 11
266.995
 21
11.8346
 31
0.0
  0
LINE
  8
0
 62
     0
 10
266.995
 20
11.8346
 30
0.0
 11
267.795
 21
11.8346
 31
0.0
  0
LINE
  8
0
 62
     0
 10
267.795
 20
11.8346
 30
0.0
 11
267.795
 21
10.8355
 31
0.0
  0
LINE
  8
0
 62
     0
 10
267.795
 20
10.8355
 30
0.0
 11
278.795
 21
10.8355
 31
0.0
  0
LINE
  8
0
 62
     0
 10
278.795
 20
10.8355
 30
0.0
 11
278.795
 21
11.8346
 31
0.0
  0
LINE
  8
0
 62
     0
 10
278.795
 20
11.8346
 30
0.0
 11
279.596
 21
11.8346
 31
0.0
  0
LINE
  8
0
 62
     0
 10
279.596
 20
11.8346
 30
0.0
 11
279.596
 21
11.9352
 31
0.0
  0
LINE
  8
0
 62
     0
 10
279.596
 20
11.9352
 30
0.0
 11
278.795
 21
11.9352
 31
0.0
  0
LINE
  8
0
 62
     0
 10
278.795
 20
11.9352
 30
0.0
 11
278.795
 21
20.7367
 31
0.0
  0
LINE
  8
0
 62
     0
 10
278.795
 20
20.7367
 30
0.0
 11
279.596
 21
20.7367
 31
0.0
  0
LINE
  8
0
 62
     0
 10
279.596
 20
20.7367
 30
0.0
 11
279.596
 21
20.8346
 31
0.0
  0
LINE
  8
0
 62
     0
 10
279.596
 20
20.8346
 30
0.0
 11
278.795
 21
20.8346
 31
0.0
  0
LINE
  8
0
 62
     0
 10
278.795
 20
20.8346
 30
0.0
 11
278.795
 21
21.835
 31
0.0
  0
LINE
  8
0
 62
     0
 10
278.795
 20
21.835
 30
0.0
 11
267.795
 21
21.835
 31
0.0
  0
LINE
  8
0
 62
     0
 10
286.845
 20
21.835
 30
0.0
 11
286.845
 21
20.8346
 31
0.0
  0
LINE
  8
0
 62
     0
 10
286.845
 20
20.8346
 30
0.0
 11
286.045
 21
20.8346
 31
0.0
  0
LINE
  8
0
 62
     0
 10
286.045
 20
20.8346
 30
0.0
 11
286.045
 21
20.7367
 31
0.0
  0
LINE
  8
0
 62
     0
 10
286.045
 20
20.7367
 30
0.0
 11
286.845
 21
20.7367
 31
0.0
  0
LINE
  8
0
 62
     0
 10
286.845
 20
20.7367
 30
0.0
 11
286.845
 21
11.9352
 31
0.0
  0
LINE
  8
0
 62
     0
 10
286.845
 20
11.9352
 30
0.0
 11
286.045
 21
11.9352
 31
0.0
  0
LINE
  8
0
 62
     0
 10
286.045
 20
11.9352
 30
0.0
 11
286.045
 21
11.8346
 31
0.0
  0
LINE
  8
0
 62
     0
 10
286.045
 20
11.8346
 30
0.0
 11
286.845
 21
11.8346
 31
0.0
  0
LINE
  8
0
 62
     0
 10
286.845
 20
11.8346
 30
0.0
 11
286.845
 21
10.8355
 31
0.0
  0
LINE
  8
0
 62
     0
 10
286.845
 20
10.8355
 30
0.0
 11
297.845
 21
10.8355
 31
0.0
  0
LINE
  8
0
 62
     0
 10
297.845
 20
10.8355
 30
0.0
 11
297.845
 21
11.8346
 31
0.0
  0
LINE
  8
0
 62
     0
 10
297.845
 20
11.8346
 30
0.0
 11
298.646
 21
11.8346
 31
0.0
  0
LINE
  8
0
 62
     0
 10
298.646
 20
11.8346
 30
0.0
 11
298.646
 21
11.9352
 31
0.0
  0
LINE
  8
0
 62
     0
 10
298.646
 20
11.9352
 30
0.0
 11
297.845
 21
11.9352
 31
0.0
  0
LINE
  8
0
 62
     0
 10
297.845
 20
11.9352
 30
0.0
 11
297.845
 21
20.7367
 31
0.0
  0
LINE
  8
0
 62
     0
 10
297.845
 20
20.7367
 30
0.0
 11
298.646
 21
20.7367
 31
0.0
  0
LINE
  8
0
 62
     0
 10
298.646
 20
20.7367
 30
0.0
 11
298.646
 21
20.8346
 31
0.0
  0
LINE
  8
0
 62
     0
 10
298.646
 20
20.8346
 30
0.0
 11
297.845
 21
20.8346
 31
0.0
  0
LINE
  8
0
 62
     0
 10
297.845
 20
20.8346
 30
0.0
 11
297.845
 21
21.835
 31
0.0
  0
LINE
  8
0
 62
     0
 10
297.845
 20
21.835
 30
0.0
 11
286.845
 21
21.835
 31
0.0
  0
LINE
  8
0
 62
     0
 10
305.895
 20
21.835
 30
0.0
 11
305.895
 21
20.8346
 31
0.0
  0
LINE
  8
0
 62
     0
 10
305.895
 20
20.8346
 30
0.0
 11
305.095
 21
20.8346
 31
0.0
  0
LINE
  8
0
 62
     0
 10
305.095
 20
20.8346
 30
0.0
 11
305.095
 21
20.7367
 31
0.0
  0
LINE
  8
0
 62
     0
 10
305.095
 20
20.7367
 30
0.0
 11
305.895
 21
20.7367
 31
0.0
  0
LINE
  8
0
 62
     0
 10
305.895
 20
20.7367
 30
0.0
 11
305.895
 21
11.9352
 31
0.0
  0
LINE
  8
0
 62
     0
 10
305.895
 20
11.9352
 30
0.0
 11
305.095
 21
11.9352
 31
0.0
  0
LINE
  8
0
 62
     0
 10
305.095
 20
11.9352
 30
0.0
 11
305.095
 21
11.8346
 31
0.0
  0
LINE
  8
0
 62
     0
 10
305.095
 20
11.8346
 30
0.0
 11
305.895
 21
11.8346
 31
0.0
  0
LINE
  8
0
 62
     0
 10
305.895
 20
11.8346
 30
0.0
 11
305.895
 21
10.8355
 31
0.0
  0
LINE
  8
0
 62
     0
 10
305.895
 20
10.8355
 30
0.0
 11
316.895
 21
10.8355
 31
0.0
  0
LINE
  8
0
 62
     0
 10
316.895
 20
10.8355
 30
0.0
 11
316.895
 21
11.8346
 31
0.0
  0
LINE
  8
0
 62
     0
 10
316.895
 20
11.8346
 30
0.0
 11
317.696
 21
11.8346
 31
0.0
  0
LINE
  8
0
 62
     0
 10
317.696
 20
11.8346
 30
0.0
 11
317.696
 21
11.9352
 31
0.0
  0
LINE
  8
0
 62
     0
 10
317.696
 20
11.9352
 30
0.0
 11
316.895
 21
11.9352
 31
0.0
  0
LINE
  8
0
 62
     0
 10
316.895
 20
11.9352
 30
0.0
 11
316.895
 21
20.7367
 31
0.0
  0
LINE
  8
0
 62
     0
 10
316.895
 20
20.7367
 30
0.0
 11
317.696
 21
20.7367
 31
0.0
  0
LINE
  8
0
 62
     0
 10
317.696
 20
20.7367
 30
0.0
 11
317.696
 21
20.8346
 31
0.0
  0
LINE
  8
0
 62
     0
 10
317.696
 20
20.8346
 30
0.0
 11
316.895
 21
20.8346
 31
0.0
  0
LINE
  8
0
 62
     0
 10
316.895
 20
20.8346
 30
0.0
 11
316.895
 21
21.835
 31
0.0
  0
LINE
  8
0
 62
     0
 10
316.895
 20
21.835
 30
0.0
 11
305.895
 21
21.835
 31
0.0
  0
LINE
  8
0
 62
     0
 10
22.5268
 20
40.8852
 30
0.0
 11
22.5268
 21
39.8847
 31
0.0
  0
LINE
  8
0
 62
     0
 10
22.5268
 20
39.8847
 30
0.0
 11
21.7261
 21
39.8847
 31
0.0
  0
LINE
  8
0
 62
     0
 10
21.7261
 20
39.8847
 30
0.0
 11
21.7261
 21
39.7866
 31
0.0
  0
LINE
  8
0
 62
     0
 10
21.7261
 20
39.7866
 30
0.0
 11
22.5268
 21
39.7866
 31
0.0
  0
LINE
  8
0
 62
     0
 10
22.5268
 20
39.7866
 30
0.0
 11
22.5268
 21
36.1844
 31
0.0
  0
LINE
  8
0
 62
     0
 10
22.5268
 20
36.1844
 30
0.0
 11
18.0013
 21
36.1844
 31
0.0
  0
LINE
  8
0
 62
     0
 10
18.0013
 20
36.1844
 30
0.0
 11
18.0013
 21
39.4148
 31
0.0
  0
LINE
  8
0
 62
     0
 10
18.0013
 20
39.4148
 30
0.0
 11
16.276
 21
39.4148
 31
0.0
  0
LINE
  8
0
 62
     0
 10
16.276
 20
39.4148
 30
0.0
 11
16.276
 21
40.3352
 31
0.0
  0
LINE
  8
0
 62
     0
 10
16.276
 20
40.3352
 30
0.0
 11
15.977
 21
40.3352
 31
0.0
  0
LINE
  8
0
 62
     0
 10
15.977
 20
40.3352
 30
0.0
 11
15.977
 21
39.4148
 31
0.0
  0
LINE
  8
0
 62
     0
 10
15.977
 20
39.4148
 30
0.0
 11
14.2517
 21
39.4148
 31
0.0
  0
LINE
  8
0
 62
     0
 10
14.2517
 20
39.4148
 30
0.0
 11
14.2517
 21
36.3859
 31
0.0
  0
LINE
  8
0
 62
     0
 10
14.2517
 20
36.3859
 30
0.0
 11
13.4262
 21
36.3859
 31
0.0
  0
LINE
  8
0
 62
     0
 10
13.4262
 20
36.3859
 30
0.0
 11
13.4262
 21
36.1844
 31
0.0
  0
LINE
  8
0
 62
     0
 10
13.4262
 20
36.1844
 30
0.0
 11
14.2517
 21
36.1844
 31
0.0
  0
LINE
  8
0
 62
     0
 10
14.2517
 20
36.1844
 30
0.0
 11
14.2517
 21
30.1157
 31
0.0
  0
LINE
  8
0
 62
     0
 10
14.2517
 20
30.1157
 30
0.0
 11
15.977
 21
30.1157
 31
0.0
  0
LINE
  8
0
 62
     0
 10
15.977
 20
30.1157
 30
0.0
 11
15.977
 21
29.1345
 31
0.0
  0
LINE
  8
0
 62
     0
 10
15.977
 20
29.1345
 30
0.0
 11
16.276
 21
29.1345
 31
0.0
  0
LINE
  8
0
 62
     0
 10
16.276
 20
29.1345
 30
0.0
 11
16.276
 21
30.1157
 31
0.0
  0
LINE
  8
0
 62
     0
 10
16.276
 20
30.1157
 30
0.0
 11
18.0013
 21
30.1157
 31
0.0
  0
LINE
  8
0
 62
     0
 10
18.0013
 20
30.1157
 30
0.0
 11
18.0013
 21
34.5846
 31
0.0
  0
LINE
  8
0
 62
     0
 10
18.0013
 20
34.5846
 30
0.0
 11
22.5268
 21
34.5846
 31
0.0
  0
LINE
  8
0
 62
     0
 10
22.5268
 20
34.5846
 30
0.0
 11
22.5268
 21
30.9852
 31
0.0
  0
LINE
  8
0
 62
     0
 10
22.5268
 20
30.9852
 30
0.0
 11
21.7261
 21
30.9852
 31
0.0
  0
LINE
  8
0
 62
     0
 10
21.7261
 20
30.9852
 30
0.0
 11
21.7261
 21
30.8846
 31
0.0
  0
LINE
  8
0
 62
     0
 10
21.7261
 20
30.8846
 30
0.0
 11
22.5268
 21
30.8846
 31
0.0
  0
LINE
  8
0
 62
     0
 10
22.5268
 20
30.8846
 30
0.0
 11
22.5268
 21
29.8855
 31
0.0
  0
LINE
  8
0
 62
     0
 10
22.5268
 20
29.8855
 30
0.0
 11
33.5263
 21
29.8855
 31
0.0
  0
LINE
  8
0
 62
     0
 10
33.5263
 20
29.8855
 30
0.0
 11
33.5263
 21
30.8846
 31
0.0
  0
LINE
  8
0
 62
     0
 10
33.5263
 20
30.8846
 30
0.0
 11
34.3269
 21
30.8846
 31
0.0
  0
LINE
  8
0
 62
     0
 10
34.3269
 20
30.8846
 30
0.0
 11
34.3269
 21
30.9852
 31
0.0
  0
LINE
  8
0
 62
     0
 10
34.3269
 20
30.9852
 30
0.0
 11
33.5263
 21
30.9852
 31
0.0
  0
LINE
  8
0
 62
     0
 10
33.5263
 20
30.9852
 30
0.0
 11
33.5263
 21
34.5846
 31
0.0
  0
LINE
  8
0
 62
     0
 10
33.5263
 20
34.5846
 30
0.0
 11
38.0517
 21
34.5846
 31
0.0
  0
LINE
  8
0
 62
     0
 10
38.0517
 20
34.5846
 30
0.0
 11
38.0517
 21
30.1157
 31
0.0
  0
LINE
  8
0
 62
     0
 10
38.0517
 20
30.1157
 30
0.0
 11
39.7771
 21
30.1157
 31
0.0
  0
LINE
  8
0
 62
     0
 10
39.7771
 20
30.1157
 30
0.0
 11
39.7771
 21
29.1345
 31
0.0
  0
LINE
  8
0
 62
     0
 10
39.7771
 20
29.1345
 30
0.0
 11
40.0763
 21
29.1345
 31
0.0
  0
LINE
  8
0
 62
     0
 10
40.0763
 20
29.1345
 30
0.0
 11
40.0763
 21
30.1157
 31
0.0
  0
LINE
  8
0
 62
     0
 10
40.0763
 20
30.1157
 30
0.0
 11
41.8013
 21
30.1157
 31
0.0
  0
LINE
  8
0
 62
     0
 10
41.8013
 20
30.1157
 30
0.0
 11
41.8013
 21
36.1844
 31
0.0
  0
LINE
  8
0
 62
     0
 10
41.8013
 20
36.1844
 30
0.0
 11
42.6268
 21
36.1844
 31
0.0
  0
LINE
  8
0
 62
     0
 10
42.6268
 20
36.1844
 30
0.0
 11
42.6268
 21
36.3859
 31
0.0
  0
LINE
  8
0
 62
     0
 10
42.6268
 20
36.3859
 30
0.0
 11
41.8013
 21
36.3859
 31
0.0
  0
LINE
  8
0
 62
     0
 10
41.8013
 20
36.3859
 30
0.0
 11
41.8013
 21
39.4148
 31
0.0
  0
LINE
  8
0
 62
     0
 10
41.8013
 20
39.4148
 30
0.0
 11
40.0763
 21
39.4148
 31
0.0
  0
LINE
  8
0
 62
     0
 10
40.0763
 20
39.4148
 30
0.0
 11
40.0763
 21
40.3352
 31
0.0
  0
LINE
  8
0
 62
     0
 10
40.0763
 20
40.3352
 30
0.0
 11
39.7771
 21
40.3352
 31
0.0
  0
LINE
  8
0
 62
     0
 10
39.7771
 20
40.3352
 30
0.0
 11
39.7771
 21
39.4148
 31
0.0
  0
LINE
  8
0
 62
     0
 10
39.7771
 20
39.4148
 30
0.0
 11
38.0517
 21
39.4148
 31
0.0
  0
LINE
  8
0
 62
     0
 10
38.0517
 20
39.4148
 30
0.0
 11
38.0517
 21
36.1844
 31
0.0
  0
LINE
  8
0
 62
     0
 10
38.0517
 20
36.1844
 30
0.0
 11
33.5263
 21
36.1844
 31
0.0
  0
LINE
  8
0
 62
     0
 10
33.5263
 20
36.1844
 30
0.0
 11
33.5263
 21
39.7866
 31
0.0
  0
LINE
  8
0
 62
     0
 10
33.5263
 20
39.7866
 30
0.0
 11
34.3269
 21
39.7866
 31
0.0
  0
LINE
  8
0
 62
     0
 10
34.3269
 20
39.7866
 30
0.0
 11
34.3269
 21
39.8847
 31
0.0
  0
LINE
  8
0
 62
     0
 10
34.3269
 20
39.8847
 30
0.0
 11
33.5263
 21
39.8847
 31
0.0
  0
LINE
  8
0
 62
     0
 10
33.5263
 20
39.8847
 30
0.0
 11
33.5263
 21
40.8852
 31
0.0
  0
LINE
  8
0
 62
     0
 10
33.5263
 20
40.8852
 30
0.0
 11
22.5268
 21
40.8852
 31
0.0
  0
LINE
  8
0
 62
     0
 10
255.888
 20
40.8852
 30
0.0
 11
255.888
 21
39.8847
 31
0.0
  0
LINE
  8
0
 62
     0
 10
255.888
 20
39.8847
 30
0.0
 11
255.089
 21
39.8847
 31
0.0
  0
LINE
  8
0
 62
     0
 10
255.089
 20
39.8847
 30
0.0
 11
255.089
 21
39.7866
 31
0.0
  0
LINE
  8
0
 62
     0
 10
255.089
 20
39.7866
 30
0.0
 11
255.888
 21
39.7866
 31
0.0
  0
LINE
  8
0
 62
     0
 10
255.888
 20
39.7866
 30
0.0
 11
255.888
 21
36.1844
 31
0.0
  0
LINE
  8
0
 62
     0
 10
255.888
 20
36.1844
 30
0.0
 11
251.362
 21
36.1844
 31
0.0
  0
LINE
  8
0
 62
     0
 10
251.362
 20
36.1844
 30
0.0
 11
251.362
 21
39.4148
 31
0.0
  0
LINE
  8
0
 62
     0
 10
251.362
 20
39.4148
 30
0.0
 11
249.639
 21
39.4148
 31
0.0
  0
LINE
  8
0
 62
     0
 10
249.639
 20
39.4148
 30
0.0
 11
249.639
 21
40.3352
 31
0.0
  0
LINE
  8
0
 62
     0
 10
249.639
 20
40.3352
 30
0.0
 11
249.338
 21
40.3352
 31
0.0
  0
LINE
  8
0
 62
     0
 10
249.338
 20
40.3352
 30
0.0
 11
249.338
 21
39.4148
 31
0.0
  0
LINE
  8
0
 62
     0
 10
249.338
 20
39.4148
 30
0.0
 11
247.613
 21
39.4148
 31
0.0
  0
LINE
  8
0
 62
     0
 10
247.613
 20
39.4148
 30
0.0
 11
247.613
 21
36.3859
 31
0.0
  0
LINE
  8
0
 62
     0
 10
247.613
 20
36.3859
 30
0.0
 11
246.789
 21
36.3859
 31
0.0
  0
LINE
  8
0
 62
     0
 10
246.789
 20
36.3859
 30
0.0
 11
246.789
 21
36.1844
 31
0.0
  0
LINE
  8
0
 62
     0
 10
246.789
 20
36.1844
 30
0.0
 11
247.613
 21
36.1844
 31
0.0
  0
LINE
  8
0
 62
     0
 10
247.613
 20
36.1844
 30
0.0
 11
247.613
 21
30.1157
 31
0.0
  0
LINE
  8
0
 62
     0
 10
247.613
 20
30.1157
 30
0.0
 11
249.338
 21
30.1157
 31
0.0
  0
LINE
  8
0
 62
     0
 10
249.338
 20
30.1157
 30
0.0
 11
249.338
 21
29.1345
 31
0.0
  0
LINE
  8
0
 62
     0
 10
249.338
 20
29.1345
 30
0.0
 11
249.639
 21
29.1345
 31
0.0
  0
LINE
  8
0
 62
     0
 10
249.639
 20
29.1345
 30
0.0
 11
249.639
 21
30.1157
 31
0.0
  0
LINE
  8
0
 62
     0
 10
249.639
 20
30.1157
 30
0.0
 11
251.362
 21
30.1157
 31
0.0
  0
LINE
  8
0
 62
     0
 10
251.362
 20
30.1157
 30
0.0
 11
251.362
 21
34.5846
 31
0.0
  0
LINE
  8
0
 62
     0
 10
251.362
 20
34.5846
 30
0.0
 11
255.888
 21
34.5846
 31
0.0
  0
LINE
  8
0
 62
     0
 10
255.888
 20
34.5846
 30
0.0
 11
255.888
 21
30.9852
 31
0.0
  0
LINE
  8
0
 62
     0
 10
255.888
 20
30.9852
 30
0.0
 11
255.089
 21
30.9852
 31
0.0
  0
LINE
  8
0
 62
     0
 10
255.089
 20
30.9852
 30
0.0
 11
255.089
 21
30.8846
 31
0.0
  0
LINE
  8
0
 62
     0
 10
255.089
 20
30.8846
 30
0.0
 11
255.888
 21
30.8846
 31
0.0
  0
LINE
  8
0
 62
     0
 10
255.888
 20
30.8846
 30
0.0
 11
255.888
 21
29.8855
 31
0.0
  0
LINE
  8
0
 62
     0
 10
255.888
 20
29.8855
 30
0.0
 11
266.889
 21
29.8855
 31
0.0
  0
LINE
  8
0
 62
     0
 10
266.889
 20
29.8855
 30
0.0
 11
266.889
 21
30.8846
 31
0.0
  0
LINE
  8
0
 62
     0
 10
266.889
 20
30.8846
 30
0.0
 11
267.688
 21
30.8846
 31
0.0
  0
LINE
  8
0
 62
     0
 10
267.688
 20
30.8846
 30
0.0
 11
267.688
 21
30.9852
 31
0.0
  0
LINE
  8
0
 62
     0
 10
267.688
 20
30.9852
 30
0.0
 11
266.889
 21
30.9852
 31
0.0
  0
LINE
  8
0
 62
     0
 10
266.889
 20
30.9852
 30
0.0
 11
266.889
 21
34.5846
 31
0.0
  0
LINE
  8
0
 62
     0
 10
266.889
 20
34.5846
 30
0.0
 11
271.413
 21
34.5846
 31
0.0
  0
LINE
  8
0
 62
     0
 10
271.413
 20
34.5846
 30
0.0
 11
271.413
 21
30.1157
 31
0.0
  0
LINE
  8
0
 62
     0
 10
271.413
 20
30.1157
 30
0.0
 11
273.138
 21
30.1157
 31
0.0
  0
LINE
  8
0
 62
     0
 10
273.138
 20
30.1157
 30
0.0
 11
273.138
 21
29.1345
 31
0.0
  0
LINE
  8
0
 62
     0
 10
273.138
 20
29.1345
 30
0.0
 11
273.439
 21
29.1345
 31
0.0
  0
LINE
  8
0
 62
     0
 10
273.439
 20
29.1345
 30
0.0
 11
273.439
 21
30.1157
 31
0.0
  0
LINE
  8
0
 62
     0
 10
273.439
 20
30.1157
 30
0.0
 11
275.164
 21
30.1157
 31
0.0
  0
LINE
  8
0
 62
     0
 10
275.164
 20
30.1157
 30
0.0
 11
275.164
 21
36.1844
 31
0.0
  0
LINE
  8
0
 62
     0
 10
275.164
 20
36.1844
 30
0.0
 11
275.988
 21
36.1844
 31
0.0
  0
LINE
  8
0
 62
     0
 10
275.988
 20
36.1844
 30
0.0
 11
275.988
 21
36.3859
 31
0.0
  0
LINE
  8
0
 62
     0
 10
275.988
 20
36.3859
 30
0.0
 11
275.164
 21
36.3859
 31
0.0
  0
LINE
  8
0
 62
     0
 10
275.164
 20
36.3859
 30
0.0
 11
275.164
 21
39.4148
 31
0.0
  0
LINE
  8
0
 62
     0
 10
275.164
 20
39.4148
 30
0.0
 11
273.439
 21
39.4148
 31
0.0
  0
LINE
  8
0
 62
     0
 10
273.439
 20
39.4148
 30
0.0
 11
273.439
 21
40.3352
 31
0.0
  0
LINE
  8
0
 62
     0
 10
273.439
 20
40.3352
 30
0.0
 11
273.138
 21
40.3352
 31
0.0
  0
LINE
  8
0
 62
     0
 10
273.138
 20
40.3352
 30
0.0
 11
273.138
 21
39.4148
 31
0.0
  0
LINE
  8
0
 62
     0
 10
273.138
 20
39.4148
 30
0.0
 11
271.413
 21
39.4148
 31
0.0
  0
LINE
  8
0
 62
     0
 10
271.413
 20
39.4148
 30
0.0
 11
271.413
 21
36.1844
 31
0.0
  0
LINE
  8
0
 62
     0
 10
271.413
 20
36.1844
 30
0.0
 11
266.889
 21
36.1844
 31
0.0
  0
LINE
  8
0
 62
     0
 10
266.889
 20
36.1844
 30
0.0
 11
266.889
 21
39.7866
 31
0.0
  0
LINE
  8
0
 62
     0
 10
266.889
 20
39.7866
 30
0.0
 11
267.688
 21
39.7866
 31
0.0
  0
LINE
  8
0
 62
     0
 10
267.688
 20
39.7866
 30
0.0
 11
267.688
 21
39.8847
 31
0.0
  0
LINE
  8
0
 62
     0
 10
267.688
 20
39.8847
 30
0.0
 11
266.889
 21
39.8847
 31
0.0
  0
LINE
  8
0
 62
     0
 10
266.889
 20
39.8847
 30
0.0
 11
266.889
 21
40.8852
 31
0.0
  0
LINE
  8
0
 62
     0
 10
266.889
 20
40.8852
 30
0.0
 11
255.888
 21
40.8852
 31
0.0
  0
LINE
  8
0
 62
     0
 10
53.4829
 20
40.8852
 30
0.0
 11
53.4829
 21
39.8847
 31
0.0
  0
LINE
  8
0
 62
     0
 10
53.4829
 20
39.8847
 30
0.0
 11
52.6824
 21
39.8847
 31
0.0
  0
LINE
  8
0
 62
     0
 10
52.6824
 20
39.8847
 30
0.0
 11
52.6824
 21
39.7866
 31
0.0
  0
LINE
  8
0
 62
     0
 10
52.6824
 20
39.7866
 30
0.0
 11
53.4829
 21
39.7866
 31
0.0
  0
LINE
  8
0
 62
     0
 10
53.4829
 20
39.7866
 30
0.0
 11
53.4829
 21
30.9852
 31
0.0
  0
LINE
  8
0
 62
     0
 10
53.4829
 20
30.9852
 30
0.0
 11
52.6824
 21
30.9852
 31
0.0
  0
LINE
  8
0
 62
     0
 10
52.6824
 20
30.9852
 30
0.0
 11
52.6824
 21
30.8846
 31
0.0
  0
LINE
  8
0
 62
     0
 10
52.6824
 20
30.8846
 30
0.0
 11
53.4829
 21
30.8846
 31
0.0
  0
LINE
  8
0
 62
     0
 10
53.4829
 20
30.8846
 30
0.0
 11
53.4829
 21
29.8855
 31
0.0
  0
LINE
  8
0
 62
     0
 10
53.4829
 20
29.8855
 30
0.0
 11
64.4825
 21
29.8855
 31
0.0
  0
LINE
  8
0
 62
     0
 10
64.4825
 20
29.8855
 30
0.0
 11
64.4825
 21
30.8846
 31
0.0
  0
LINE
  8
0
 62
     0
 10
64.4825
 20
30.8846
 30
0.0
 11
65.2819
 21
30.8846
 31
0.0
  0
LINE
  8
0
 62
     0
 10
65.2819
 20
30.8846
 30
0.0
 11
65.2819
 21
30.9852
 31
0.0
  0
LINE
  8
0
 62
     0
 10
65.2819
 20
30.9852
 30
0.0
 11
64.4825
 21
30.9852
 31
0.0
  0
LINE
  8
0
 62
     0
 10
64.4825
 20
30.9852
 30
0.0
 11
64.4825
 21
39.7866
 31
0.0
  0
LINE
  8
0
 62
     0
 10
64.4825
 20
39.7866
 30
0.0
 11
65.2819
 21
39.7866
 31
0.0
  0
LINE
  8
0
 62
     0
 10
65.2819
 20
39.7866
 30
0.0
 11
65.2819
 21
39.8847
 31
0.0
  0
LINE
  8
0
 62
     0
 10
65.2819
 20
39.8847
 30
0.0
 11
64.4825
 21
39.8847
 31
0.0
  0
LINE
  8
0
 62
     0
 10
64.4825
 20
39.8847
 30
0.0
 11
64.4825
 21
40.8852
 31
0.0
  0
LINE
  8
0
 62
     0
 10
64.4825
 20
40.8852
 30
0.0
 11
53.4829
 21
40.8852
 31
0.0
  0
LINE
  8
0
 62
     0
 10
72.5329
 20
40.8852
 30
0.0
 11
72.5329
 21
39.8847
 31
0.0
  0
LINE
  8
0
 62
     0
 10
72.5329
 20
39.8847
 30
0.0
 11
71.7324
 21
39.8847
 31
0.0
  0
LINE
  8
0
 62
     0
 10
71.7324
 20
39.8847
 30
0.0
 11
71.7324
 21
39.7866
 31
0.0
  0
LINE
  8
0
 62
     0
 10
71.7324
 20
39.7866
 30
0.0
 11
72.5329
 21
39.7866
 31
0.0
  0
LINE
  8
0
 62
     0
 10
72.5329
 20
39.7866
 30
0.0
 11
72.5329
 21
30.9852
 31
0.0
  0
LINE
  8
0
 62
     0
 10
72.5329
 20
30.9852
 30
0.0
 11
71.7324
 21
30.9852
 31
0.0
  0
LINE
  8
0
 62
     0
 10
71.7324
 20
30.9852
 30
0.0
 11
71.7324
 21
30.8846
 31
0.0
  0
LINE
  8
0
 62
     0
 10
71.7324
 20
30.8846
 30
0.0
 11
72.5329
 21
30.8846
 31
0.0
  0
LINE
  8
0
 62
     0
 10
72.5329
 20
30.8846
 30
0.0
 11
72.5329
 21
29.8855
 31
0.0
  0
LINE
  8
0
 62
     0
 10
72.5329
 20
29.8855
 30
0.0
 11
83.5325
 21
29.8855
 31
0.0
  0
LINE
  8
0
 62
     0
 10
83.5325
 20
29.8855
 30
0.0
 11
83.5325
 21
30.8846
 31
0.0
  0
LINE
  8
0
 62
     0
 10
83.5325
 20
30.8846
 30
0.0
 11
84.3319
 21
30.8846
 31
0.0
  0
LINE
  8
0
 62
     0
 10
84.3319
 20
30.8846
 30
0.0
 11
84.3319
 21
30.9852
 31
0.0
  0
LINE
  8
0
 62
     0
 10
84.3319
 20
30.9852
 30
0.0
 11
83.5325
 21
30.9852
 31
0.0
  0
LINE
  8
0
 62
     0
 10
83.5325
 20
30.9852
 30
0.0
 11
83.5325
 21
39.7866
 31
0.0
  0
LINE
  8
0
 62
     0
 10
83.5325
 20
39.7866
 30
0.0
 11
84.3319
 21
39.7866
 31
0.0
  0
LINE
  8
0
 62
     0
 10
84.3319
 20
39.7866
 30
0.0
 11
84.3319
 21
39.8847
 31
0.0
  0
LINE
  8
0
 62
     0
 10
84.3319
 20
39.8847
 30
0.0
 11
83.5325
 21
39.8847
 31
0.0
  0
LINE
  8
0
 62
     0
 10
83.5325
 20
39.8847
 30
0.0
 11
83.5325
 21
40.8852
 31
0.0
  0
LINE
  8
0
 62
     0
 10
83.5325
 20
40.8852
 30
0.0
 11
72.5329
 21
40.8852
 31
0.0
  0
LINE
  8
0
 62
     0
 10
91.5829
 20
40.8852
 30
0.0
 11
91.5829
 21
39.8847
 31
0.0
  0
LINE
  8
0
 62
     0
 10
91.5829
 20
39.8847
 30
0.0
 11
90.7824
 21
39.8847
 31
0.0
  0
LINE
  8
0
 62
     0
 10
90.7824
 20
39.8847
 30
0.0
 11
90.7824
 21
39.7866
 31
0.0
  0
LINE
  8
0
 62
     0
 10
90.7824
 20
39.7866
 30
0.0
 11
91.5829
 21
39.7866
 31
0.0
  0
LINE
  8
0
 62
     0
 10
91.5829
 20
39.7866
 30
0.0
 11
91.5829
 21
30.9852
 31
0.0
  0
LINE
  8
0
 62
     0
 10
91.5829
 20
30.9852
 30
0.0
 11
90.7824
 21
30.9852
 31
0.0
  0
LINE
  8
0
 62
     0
 10
90.7824
 20
30.9852
 30
0.0
 11
90.7824
 21
30.8846
 31
0.0
  0
LINE
  8
0
 62
     0
 10
90.7824
 20
30.8846
 30
0.0
 11
91.5829
 21
30.8846
 31
0.0
  0
LINE
  8
0
 62
     0
 10
91.5829
 20
30.8846
 30
0.0
 11
91.5829
 21
29.8855
 31
0.0
  0
LINE
  8
0
 62
     0
 10
91.5829
 20
29.8855
 30
0.0
 11
102.582
 21
29.8855
 31
0.0
  0
LINE
  8
0
 62
     0
 10
102.582
 20
29.8855
 30
0.0
 11
102.582
 21
30.8846
 31
0.0
  0
LINE
  8
0
 62
     0
 10
102.582
 20
30.8846
 30
0.0
 11
103.382
 21
30.8846
 31
0.0
  0
LINE
  8
0
 62
     0
 10
103.382
 20
30.8846
 30
0.0
 11
103.382
 21
30.9852
 31
0.0
  0
LINE
  8
0
 62
     0
 10
103.382
 20
30.9852
 30
0.0
 11
102.582
 21
30.9852
 31
0.0
  0
LINE
  8
0
 62
     0
 10
102.582
 20
30.9852
 30
0.0
 11
102.582
 21
39.7866
 31
0.0
  0
LINE
  8
0
 62
     0
 10
102.582
 20
39.7866
 30
0.0
 11
103.382
 21
39.7866
 31
0.0
  0
LINE
  8
0
 62
     0
 10
103.382
 20
39.7866
 30
0.0
 11
103.382
 21
39.8847
 31
0.0
  0
LINE
  8
0
 62
     0
 10
103.382
 20
39.8847
 30
0.0
 11
102.582
 21
39.8847
 31
0.0
  0
LINE
  8
0
 62
     0
 10
102.582
 20
39.8847
 30
0.0
 11
102.582
 21
40.8852
 31
0.0
  0
LINE
  8
0
 62
     0
 10
102.582
 20
40.8852
 30
0.0
 11
91.5829
 21
40.8852
 31
0.0
  0
LINE
  8
0
 62
     0
 10
110.633
 20
40.8852
 30
0.0
 11
110.633
 21
39.8847
 31
0.0
  0
LINE
  8
0
 62
     0
 10
110.633
 20
39.8847
 30
0.0
 11
109.832
 21
39.8847
 31
0.0
  0
LINE
  8
0
 62
     0
 10
109.832
 20
39.8847
 30
0.0
 11
109.832
 21
39.7866
 31
0.0
  0
LINE
  8
0
 62
     0
 10
109.832
 20
39.7866
 30
0.0
 11
110.633
 21
39.7866
 31
0.0
  0
LINE
  8
0
 62
     0
 10
110.633
 20
39.7866
 30
0.0
 11
110.633
 21
30.9852
 31
0.0
  0
LINE
  8
0
 62
     0
 10
110.633
 20
30.9852
 30
0.0
 11
109.832
 21
30.9852
 31
0.0
  0
LINE
  8
0
 62
     0
 10
109.832
 20
30.9852
 30
0.0
 11
109.832
 21
30.8846
 31
0.0
  0
LINE
  8
0
 62
     0
 10
109.832
 20
30.8846
 30
0.0
 11
110.633
 21
30.8846
 31
0.0
  0
LINE
  8
0
 62
     0
 10
110.633
 20
30.8846
 30
0.0
 11
110.633
 21
29.8855
 31
0.0
  0
LINE
  8
0
 62
     0
 10
110.633
 20
29.8855
 30
0.0
 11
121.632
 21
29.8855
 31
0.0
  0
LINE
  8
0
 62
     0
 10
121.632
 20
29.8855
 30
0.0
 11
121.632
 21
30.8846
 31
0.0
  0
LINE
  8
0
 62
     0
 10
121.632
 20
30.8846
 30
0.0
 11
122.432
 21
30.8846
 31
0.0
  0
LINE
  8
0
 62
     0
 10
122.432
 20
30.8846
 30
0.0
 11
122.432
 21
30.9852
 31
0.0
  0
LINE
  8
0
 62
     0
 10
122.432
 20
30.9852
 30
0.0
 11
121.632
 21
30.9852
 31
0.0
  0
LINE
  8
0
 62
     0
 10
121.632
 20
30.9852
 30
0.0
 11
121.632
 21
39.7866
 31
0.0
  0
LINE
  8
0
 62
     0
 10
121.632
 20
39.7866
 30
0.0
 11
122.432
 21
39.7866
 31
0.0
  0
LINE
  8
0
 62
     0
 10
122.432
 20
39.7866
 30
0.0
 11
122.432
 21
39.8847
 31
0.0
  0
LINE
  8
0
 62
     0
 10
122.432
 20
39.8847
 30
0.0
 11
121.632
 21
39.8847
 31
0.0
  0
LINE
  8
0
 62
     0
 10
121.632
 20
39.8847
 30
0.0
 11
121.632
 21
40.8852
 31
0.0
  0
LINE
  8
0
 62
     0
 10
121.632
 20
40.8852
 30
0.0
 11
110.633
 21
40.8852
 31
0.0
  0
LINE
  8
0
 62
     0
 10
129.683
 20
40.8852
 30
0.0
 11
129.683
 21
39.8847
 31
0.0
  0
LINE
  8
0
 62
     0
 10
129.683
 20
39.8847
 30
0.0
 11
128.882
 21
39.8847
 31
0.0
  0
LINE
  8
0
 62
     0
 10
128.882
 20
39.8847
 30
0.0
 11
128.882
 21
39.7866
 31
0.0
  0
LINE
  8
0
 62
     0
 10
128.882
 20
39.7866
 30
0.0
 11
129.683
 21
39.7866
 31
0.0
  0
LINE
  8
0
 62
     0
 10
129.683
 20
39.7866
 30
0.0
 11
129.683
 21
30.9852
 31
0.0
  0
LINE
  8
0
 62
     0
 10
129.683
 20
30.9852
 30
0.0
 11
128.882
 21
30.9852
 31
0.0
  0
LINE
  8
0
 62
     0
 10
128.882
 20
30.9852
 30
0.0
 11
128.882
 21
30.8846
 31
0.0
  0
LINE
  8
0
 62
     0
 10
128.882
 20
30.8846
 30
0.0
 11
129.683
 21
30.8846
 31
0.0
  0
LINE
  8
0
 62
     0
 10
129.683
 20
30.8846
 30
0.0
 11
129.683
 21
29.8855
 31
0.0
  0
LINE
  8
0
 62
     0
 10
129.683
 20
29.8855
 30
0.0
 11
140.682
 21
29.8855
 31
0.0
  0
LINE
  8
0
 62
     0
 10
140.682
 20
29.8855
 30
0.0
 11
140.682
 21
30.8846
 31
0.0
  0
LINE
  8
0
 62
     0
 10
140.682
 20
30.8846
 30
0.0
 11
141.482
 21
30.8846
 31
0.0
  0
LINE
  8
0
 62
     0
 10
141.482
 20
30.8846
 30
0.0
 11
141.482
 21
30.9852
 31
0.0
  0
LINE
  8
0
 62
     0
 10
141.482
 20
30.9852
 30
0.0
 11
140.682
 21
30.9852
 31
0.0
  0
LINE
  8
0
 62
     0
 10
140.682
 20
30.9852
 30
0.0
 11
140.682
 21
39.7866
 31
0.0
  0
LINE
  8
0
 62
     0
 10
140.682
 20
39.7866
 30
0.0
 11
141.482
 21
39.7866
 31
0.0
  0
LINE
  8
0
 62
     0
 10
141.482
 20
39.7866
 30
0.0
 11
141.482
 21
39.8847
 31
0.0
  0
LINE
  8
0
 62
     0
 10
141.482
 20
39.8847
 30
0.0
 11
140.682
 21
39.8847
 31
0.0
  0
LINE
  8
0
 62
     0
 10
140.682
 20
39.8847
 30
0.0
 11
140.682
 21
40.8852
 31
0.0
  0
LINE
  8
0
 62
     0
 10
140.682
 20
40.8852
 30
0.0
 11
129.683
 21
40.8852
 31
0.0
  0
LINE
  8
0
 62
     0
 10
148.733
 20
40.8852
 30
0.0
 11
148.733
 21
39.8847
 31
0.0
  0
LINE
  8
0
 62
     0
 10
148.733
 20
39.8847
 30
0.0
 11
147.932
 21
39.8847
 31
0.0
  0
LINE
  8
0
 62
     0
 10
147.932
 20
39.8847
 30
0.0
 11
147.932
 21
39.7866
 31
0.0
  0
LINE
  8
0
 62
     0
 10
147.932
 20
39.7866
 30
0.0
 11
148.733
 21
39.7866
 31
0.0
  0
LINE
  8
0
 62
     0
 10
148.733
 20
39.7866
 30
0.0
 11
148.733
 21
30.9852
 31
0.0
  0
LINE
  8
0
 62
     0
 10
148.733
 20
30.9852
 30
0.0
 11
147.932
 21
30.9852
 31
0.0
  0
LINE
  8
0
 62
     0
 10
147.932
 20
30.9852
 30
0.0
 11
147.932
 21
30.8846
 31
0.0
  0
LINE
  8
0
 62
     0
 10
147.932
 20
30.8846
 30
0.0
 11
148.733
 21
30.8846
 31
0.0
  0
LINE
  8
0
 62
     0
 10
148.733
 20
30.8846
 30
0.0
 11
148.733
 21
29.8855
 31
0.0
  0
LINE
  8
0
 62
     0
 10
148.733
 20
29.8855
 30
0.0
 11
159.732
 21
29.8855
 31
0.0
  0
LINE
  8
0
 62
     0
 10
159.732
 20
29.8855
 30
0.0
 11
159.732
 21
30.8846
 31
0.0
  0
LINE
  8
0
 62
     0
 10
159.732
 20
30.8846
 30
0.0
 11
160.532
 21
30.8846
 31
0.0
  0
LINE
  8
0
 62
     0
 10
160.532
 20
30.8846
 30
0.0
 11
160.532
 21
30.9852
 31
0.0
  0
LINE
  8
0
 62
     0
 10
160.532
 20
30.9852
 30
0.0
 11
159.732
 21
30.9852
 31
0.0
  0
LINE
  8
0
 62
     0
 10
159.732
 20
30.9852
 30
0.0
 11
159.732
 21
39.7866
 31
0.0
  0
LINE
  8
0
 62
     0
 10
159.732
 20
39.7866
 30
0.0
 11
160.532
 21
39.7866
 31
0.0
  0
LINE
  8
0
 62
     0
 10
160.532
 20
39.7866
 30
0.0
 11
160.532
 21
39.8847
 31
0.0
  0
LINE
  8
0
 62
     0
 10
160.532
 20
39.8847
 30
0.0
 11
159.732
 21
39.8847
 31
0.0
  0
LINE
  8
0
 62
     0
 10
159.732
 20
39.8847
 30
0.0
 11
159.732
 21
40.8852
 31
0.0
  0
LINE
  8
0
 62
     0
 10
159.732
 20
40.8852
 30
0.0
 11
148.733
 21
40.8852
 31
0.0
  0
LINE
  8
0
 62
     0
 10
167.783
 20
40.8852
 30
0.0
 11
167.783
 21
39.8847
 31
0.0
  0
LINE
  8
0
 62
     0
 10
167.783
 20
39.8847
 30
0.0
 11
166.982
 21
39.8847
 31
0.0
  0
LINE
  8
0
 62
     0
 10
166.982
 20
39.8847
 30
0.0
 11
166.982
 21
39.7866
 31
0.0
  0
LINE
  8
0
 62
     0
 10
166.982
 20
39.7866
 30
0.0
 11
167.783
 21
39.7866
 31
0.0
  0
LINE
  8
0
 62
     0
 10
167.783
 20
39.7866
 30
0.0
 11
167.783
 21
30.9852
 31
0.0
  0
LINE
  8
0
 62
     0
 10
167.783
 20
30.9852
 30
0.0
 11
166.982
 21
30.9852
 31
0.0
  0
LINE
  8
0
 62
     0
 10
166.982
 20
30.9852
 30
0.0
 11
166.982
 21
30.8846
 31
0.0
  0
LINE
  8
0
 62
     0
 10
166.982
 20
30.8846
 30
0.0
 11
167.783
 21
30.8846
 31
0.0
  0
LINE
  8
0
 62
     0
 10
167.783
 20
30.8846
 30
0.0
 11
167.783
 21
29.8855
 31
0.0
  0
LINE
  8
0
 62
     0
 10
167.783
 20
29.8855
 30
0.0
 11
178.782
 21
29.8855
 31
0.0
  0
LINE
  8
0
 62
     0
 10
178.782
 20
29.8855
 30
0.0
 11
178.782
 21
30.8846
 31
0.0
  0
LINE
  8
0
 62
     0
 10
178.782
 20
30.8846
 30
0.0
 11
179.582
 21
30.8846
 31
0.0
  0
LINE
  8
0
 62
     0
 10
179.582
 20
30.8846
 30
0.0
 11
179.582
 21
30.9852
 31
0.0
  0
LINE
  8
0
 62
     0
 10
179.582
 20
30.9852
 30
0.0
 11
178.782
 21
30.9852
 31
0.0
  0
LINE
  8
0
 62
     0
 10
178.782
 20
30.9852
 30
0.0
 11
178.782
 21
39.7866
 31
0.0
  0
LINE
  8
0
 62
     0
 10
178.782
 20
39.7866
 30
0.0
 11
179.582
 21
39.7866
 31
0.0
  0
LINE
  8
0
 62
     0
 10
179.582
 20
39.7866
 30
0.0
 11
179.582
 21
39.8847
 31
0.0
  0
LINE
  8
0
 62
     0
 10
179.582
 20
39.8847
 30
0.0
 11
178.782
 21
39.8847
 31
0.0
  0
LINE
  8
0
 62
     0
 10
178.782
 20
39.8847
 30
0.0
 11
178.782
 21
40.8852
 31
0.0
  0
LINE
  8
0
 62
     0
 10
178.782
 20
40.8852
 30
0.0
 11
167.783
 21
40.8852
 31
0.0
  0
LINE
  8
0
 62
     0
 10
186.833
 20
40.8852
 30
0.0
 11
186.833
 21
39.8847
 31
0.0
  0
LINE
  8
0
 62
     0
 10
186.833
 20
39.8847
 30
0.0
 11
186.032
 21
39.8847
 31
0.0
  0
LINE
  8
0
 62
     0
 10
186.032
 20
39.8847
 30
0.0
 11
186.032
 21
39.7866
 31
0.0
  0
LINE
  8
0
 62
     0
 10
186.032
 20
39.7866
 30
0.0
 11
186.833
 21
39.7866
 31
0.0
  0
LINE
  8
0
 62
     0
 10
186.833
 20
39.7866
 30
0.0
 11
186.833
 21
30.9852
 31
0.0
  0
LINE
  8
0
 62
     0
 10
186.833
 20
30.9852
 30
0.0
 11
186.032
 21
30.9852
 31
0.0
  0
LINE
  8
0
 62
     0
 10
186.032
 20
30.9852
 30
0.0
 11
186.032
 21
30.8846
 31
0.0
  0
LINE
  8
0
 62
     0
 10
186.032
 20
30.8846
 30
0.0
 11
186.833
 21
30.8846
 31
0.0
  0
LINE
  8
0
 62
     0
 10
186.833
 20
30.8846
 30
0.0
 11
186.833
 21
29.8855
 31
0.0
  0
LINE
  8
0
 62
     0
 10
186.833
 20
29.8855
 30
0.0
 11
197.832
 21
29.8855
 31
0.0
  0
LINE
  8
0
 62
     0
 10
197.832
 20
29.8855
 30
0.0
 11
197.832
 21
30.8846
 31
0.0
  0
LINE
  8
0
 62
     0
 10
197.832
 20
30.8846
 30
0.0
 11
198.632
 21
30.8846
 31
0.0
  0
LINE
  8
0
 62
     0
 10
198.632
 20
30.8846
 30
0.0
 11
198.632
 21
30.9852
 31
0.0
  0
LINE
  8
0
 62
     0
 10
198.632
 20
30.9852
 30
0.0
 11
197.832
 21
30.9852
 31
0.0
  0
LINE
  8
0
 62
     0
 10
197.832
 20
30.9852
 30
0.0
 11
197.832
 21
39.7866
 31
0.0
  0
LINE
  8
0
 62
     0
 10
197.832
 20
39.7866
 30
0.0
 11
198.632
 21
39.7866
 31
0.0
  0
LINE
  8
0
 62
     0
 10
198.632
 20
39.7866
 30
0.0
 11
198.632
 21
39.8847
 31
0.0
  0
LINE
  8
0
 62
     0
 10
198.632
 20
39.8847
 30
0.0
 11
197.832
 21
39.8847
 31
0.0
  0
LINE
  8
0
 62
     0
 10
197.832
 20
39.8847
 30
0.0
 11
197.832
 21
40.8852
 31
0.0
  0
LINE
  8
0
 62
     0
 10
197.832
 20
40.8852
 30
0.0
 11
186.833
 21
40.8852
 31
0.0
  0
LINE
  8
0
 62
     0
 10
205.883
 20
40.8852
 30
0.0
 11
205.883
 21
39.8847
 31
0.0
  0
LINE
  8
0
 62
     0
 10
205.883
 20
39.8847
 30
0.0
 11
205.082
 21
39.8847
 31
0.0
  0
LINE
  8
0
 62
     0
 10
205.082
 20
39.8847
 30
0.0
 11
205.082
 21
39.7866
 31
0.0
  0
LINE
  8
0
 62
     0
 10
205.082
 20
39.7866
 30
0.0
 11
205.883
 21
39.7866
 31
0.0
  0
LINE
  8
0
 62
     0
 10
205.883
 20
39.7866
 30
0.0
 11
205.883
 21
30.9852
 31
0.0
  0
LINE
  8
0
 62
     0
 10
205.883
 20
30.9852
 30
0.0
 11
205.082
 21
30.9852
 31
0.0
  0
LINE
  8
0
 62
     0
 10
205.082
 20
30.9852
 30
0.0
 11
205.082
 21
30.8846
 31
0.0
  0
LINE
  8
0
 62
     0
 10
205.082
 20
30.8846
 30
0.0
 11
205.883
 21
30.8846
 31
0.0
  0
LINE
  8
0
 62
     0
 10
205.883
 20
30.8846
 30
0.0
 11
205.883
 21
29.8855
 31
0.0
  0
LINE
  8
0
 62
     0
 10
205.883
 20
29.8855
 30
0.0
 11
216.882
 21
29.8855
 31
0.0
  0
LINE
  8
0
 62
     0
 10
216.882
 20
29.8855
 30
0.0
 11
216.882
 21
30.8846
 31
0.0
  0
LINE
  8
0
 62
     0
 10
216.882
 20
30.8846
 30
0.0
 11
217.682
 21
30.8846
 31
0.0
  0
LINE
  8
0
 62
     0
 10
217.682
 20
30.8846
 30
0.0
 11
217.682
 21
30.9852
 31
0.0
  0
LINE
  8
0
 62
     0
 10
217.682
 20
30.9852
 30
0.0
 11
216.882
 21
30.9852
 31
0.0
  0
LINE
  8
0
 62
     0
 10
216.882
 20
30.9852
 30
0.0
 11
216.882
 21
39.7866
 31
0.0
  0
LINE
  8
0
 62
     0
 10
216.882
 20
39.7866
 30
0.0
 11
217.682
 21
39.7866
 31
0.0
  0
LINE
  8
0
 62
     0
 10
217.682
 20
39.7866
 30
0.0
 11
217.682
 21
39.8847
 31
0.0
  0
LINE
  8
0
 62
     0
 10
217.682
 20
39.8847
 30
0.0
 11
216.882
 21
39.8847
 31
0.0
  0
LINE
  8
0
 62
     0
 10
216.882
 20
39.8847
 30
0.0
 11
216.882
 21
40.8852
 31
0.0
  0
LINE
  8
0
 62
     0
 10
216.882
 20
40.8852
 30
0.0
 11
205.883
 21
40.8852
 31
0.0
  0
LINE
  8
0
 62
     0
 10
224.933
 20
40.8852
 30
0.0
 11
224.933
 21
39.8847
 31
0.0
  0
LINE
  8
0
 62
     0
 10
224.933
 20
39.8847
 30
0.0
 11
224.132
 21
39.8847
 31
0.0
  0
LINE
  8
0
 62
     0
 10
224.132
 20
39.8847
 30
0.0
 11
224.132
 21
39.7866
 31
0.0
  0
LINE
  8
0
 62
     0
 10
224.132
 20
39.7866
 30
0.0
 11
224.933
 21
39.7866
 31
0.0
  0
LINE
  8
0
 62
     0
 10
224.933
 20
39.7866
 30
0.0
 11
224.933
 21
30.9852
 31
0.0
  0
LINE
  8
0
 62
     0
 10
224.933
 20
30.9852
 30
0.0
 11
224.132
 21
30.9852
 31
0.0
  0
LINE
  8
0
 62
     0
 10
224.132
 20
30.9852
 30
0.0
 11
224.132
 21
30.8846
 31
0.0
  0
LINE
  8
0
 62
     0
 10
224.132
 20
30.8846
 30
0.0
 11
224.933
 21
30.8846
 31
0.0
  0
LINE
  8
0
 62
     0
 10
224.933
 20
30.8846
 30
0.0
 11
224.933
 21
29.8855
 31
0.0
  0
LINE
  8
0
 62
     0
 10
224.933
 20
29.8855
 30
0.0
 11
235.932
 21
29.8855
 31
0.0
  0
LINE
  8
0
 62
     0
 10
235.932
 20
29.8855
 30
0.0
 11
235.932
 21
30.8846
 31
0.0
  0
LINE
  8
0
 62
     0
 10
235.932
 20
30.8846
 30
0.0
 11
236.732
 21
30.8846
 31
0.0
  0
LINE
  8
0
 62
     0
 10
236.732
 20
30.8846
 30
0.0
 11
236.732
 21
30.9852
 31
0.0
  0
LINE
  8
0
 62
     0
 10
236.732
 20
30.9852
 30
0.0
 11
235.932
 21
30.9852
 31
0.0
  0
LINE
  8
0
 62
     0
 10
235.932
 20
30.9852
 30
0.0
 11
235.932
 21
39.7866
 31
0.0
  0
LINE
  8
0
 62
     0
 10
235.932
 20
39.7866
 30
0.0
 11
236.732
 21
39.7866
 31
0.0
  0
LINE
  8
0
 62
     0
 10
236.732
 20
39.7866
 30
0.0
 11
236.732
 21
39.8847
 31
0.0
  0
LINE
  8
0
 62
     0
 10
236.732
 20
39.8847
 30
0.0
 11
235.932
 21
39.8847
 31
0.0
  0
LINE
  8
0
 62
     0
 10
235.932
 20
39.8847
 30
0.0
 11
235.932
 21
40.8852
 31
0.0
  0
LINE
  8
0
 62
     0
 10
235.932
 20
40.8852
 30
0.0
 11
224.933
 21
40.8852
 31
0.0
  0
LINE
  8
0
 62
     0
 10
286.845
 20
40.8852
 30
0.0
 11
286.845
 21
39.8847
 31
0.0
  0
LINE
  8
0
 62
     0
 10
286.845
 20
39.8847
 30
0.0
 11
286.045
 21
39.8847
 31
0.0
  0
LINE
  8
0
 62
     0
 10
286.045
 20
39.8847
 30
0.0
 11
286.045
 21
39.7866
 31
0.0
  0
LINE
  8
0
 62
     0
 10
286.045
 20
39.7866
 30
0.0
 11
286.845
 21
39.7866
 31
0.0
  0
LINE
  8
0
 62
     0
 10
286.845
 20
39.7866
 30
0.0
 11
286.845
 21
30.9852
 31
0.0
  0
LINE
  8
0
 62
     0
 10
286.845
 20
30.9852
 30
0.0
 11
286.045
 21
30.9852
 31
0.0
  0
LINE
  8
0
 62
     0
 10
286.045
 20
30.9852
 30
0.0
 11
286.045
 21
30.8846
 31
0.0
  0
LINE
  8
0
 62
     0
 10
286.045
 20
30.8846
 30
0.0
 11
286.845
 21
30.8846
 31
0.0
  0
LINE
  8
0
 62
     0
 10
286.845
 20
30.8846
 30
0.0
 11
286.845
 21
29.8855
 31
0.0
  0
LINE
  8
0
 62
     0
 10
286.845
 20
29.8855
 30
0.0
 11
297.845
 21
29.8855
 31
0.0
  0
LINE
  8
0
 62
     0
 10
297.845
 20
29.8855
 30
0.0
 11
297.845
 21
30.8846
 31
0.0
  0
LINE
  8
0
 62
     0
 10
297.845
 20
30.8846
 30
0.0
 11
298.646
 21
30.8846
 31
0.0
  0
LINE
  8
0
 62
     0
 10
298.646
 20
30.8846
 30
0.0
 11
298.646
 21
30.9852
 31
0.0
  0
LINE
  8
0
 62
     0
 10
298.646
 20
30.9852
 30
0.0
 11
297.845
 21
30.9852
 31
0.0
  0
LINE
  8
0
 62
     0
 10
297.845
 20
30.9852
 30
0.0
 11
297.845
 21
39.7866
 31
0.0
  0
LINE
  8
0
 62
     0
 10
297.845
 20
39.7866
 30
0.0
 11
298.646
 21
39.7866
 31
0.0
  0
LINE
  8
0
 62
     0
 10
298.646
 20
39.7866
 30
0.0
 11
298.646
 21
39.8847
 31
0.0
  0
LINE
  8
0
 62
     0
 10
298.646
 20
39.8847
 30
0.0
 11
297.845
 21
39.8847
 31
0.0
  0
LINE
  8
0
 62
     0
 10
297.845
 20
39.8847
 30
0.0
 11
297.845
 21
40.8852
 31
0.0
  0
LINE
  8
0
 62
     0
 10
297.845
 20
40.8852
 30
0.0
 11
286.845
 21
40.8852
 31
0.0
  0
LINE
  8
0
 62
     0
 10
265.413
 20
59.9352
 30
0.0
 11
265.413
 21
58.9347
 31
0.0
  0
LINE
  8
0
 62
     0
 10
265.413
 20
58.9347
 30
0.0
 11
264.614
 21
58.9347
 31
0.0
  0
LINE
  8
0
 62
     0
 10
264.614
 20
58.9347
 30
0.0
 11
264.614
 21
58.8352
 31
0.0
  0
LINE
  8
0
 62
     0
 10
264.614
 20
58.8352
 30
0.0
 11
265.413
 21
58.8352
 31
0.0
  0
LINE
  8
0
 62
     0
 10
265.413
 20
58.8352
 30
0.0
 11
265.413
 21
55.2344
 31
0.0
  0
LINE
  8
0
 62
     0
 10
265.413
 20
55.2344
 30
0.0
 11
260.889
 21
55.2344
 31
0.0
  0
LINE
  8
0
 62
     0
 10
260.889
 20
55.2344
 30
0.0
 11
260.889
 21
58.4648
 31
0.0
  0
LINE
  8
0
 62
     0
 10
260.889
 20
58.4648
 30
0.0
 11
259.164
 21
58.4648
 31
0.0
  0
LINE
  8
0
 62
     0
 10
259.164
 20
58.4648
 30
0.0
 11
259.164
 21
59.3852
 31
0.0
  0
LINE
  8
0
 62
     0
 10
259.164
 20
59.3852
 30
0.0
 11
258.863
 21
59.3852
 31
0.0
  0
LINE
  8
0
 62
     0
 10
258.863
 20
59.3852
 30
0.0
 11
258.863
 21
58.4648
 31
0.0
  0
LINE
  8
0
 62
     0
 10
258.863
 20
58.4648
 30
0.0
 11
257.138
 21
58.4648
 31
0.0
  0
LINE
  8
0
 62
     0
 10
257.138
 20
58.4648
 30
0.0
 11
257.138
 21
55.4359
 31
0.0
  0
LINE
  8
0
 62
     0
 10
257.138
 20
55.4359
 30
0.0
 11
256.314
 21
55.4359
 31
0.0
  0
LINE
  8
0
 62
     0
 10
256.314
 20
55.4359
 30
0.0
 11
256.314
 21
55.2344
 31
0.0
  0
LINE
  8
0
 62
     0
 10
256.314
 20
55.2344
 30
0.0
 11
257.138
 21
55.2344
 31
0.0
  0
LINE
  8
0
 62
     0
 10
257.138
 20
55.2344
 30
0.0
 11
257.138
 21
49.1656
 31
0.0
  0
LINE
  8
0
 62
     0
 10
257.138
 20
49.1656
 30
0.0
 11
258.863
 21
49.1656
 31
0.0
  0
LINE
  8
0
 62
     0
 10
258.863
 20
49.1656
 30
0.0
 11
258.863
 21
48.1845
 31
0.0
  0
LINE
  8
0
 62
     0
 10
258.863
 20
48.1845
 30
0.0
 11
259.164
 21
48.1845
 31
0.0
  0
LINE
  8
0
 62
     0
 10
259.164
 20
48.1845
 30
0.0
 11
259.164
 21
49.1656
 31
0.0
  0
LINE
  8
0
 62
     0
 10
259.164
 20
49.1656
 30
0.0
 11
260.889
 21
49.1656
 31
0.0
  0
LINE
  8
0
 62
     0
 10
260.889
 20
49.1656
 30
0.0
 11
260.889
 21
53.6346
 31
0.0
  0
LINE
  8
0
 62
     0
 10
260.889
 20
53.6346
 30
0.0
 11
265.413
 21
53.6346
 31
0.0
  0
LINE
  8
0
 62
     0
 10
265.413
 20
53.6346
 30
0.0
 11
265.413
 21
50.0352
 31
0.0
  0
LINE
  8
0
 62
     0
 10
265.413
 20
50.0352
 30
0.0
 11
264.614
 21
50.0352
 31
0.0
  0
LINE
  8
0
 62
     0
 10
264.614
 20
50.0352
 30
0.0
 11
264.614
 21
49.9346
 31
0.0
  0
LINE
  8
0
 62
     0
 10
264.614
 20
49.9346
 30
0.0
 11
265.413
 21
49.9346
 31
0.0
  0
LINE
  8
0
 62
     0
 10
265.413
 20
49.9346
 30
0.0
 11
265.413
 21
48.9356
 31
0.0
  0
LINE
  8
0
 62
     0
 10
265.413
 20
48.9356
 30
0.0
 11
276.414
 21
48.9356
 31
0.0
  0
LINE
  8
0
 62
     0
 10
276.414
 20
48.9356
 30
0.0
 11
276.414
 21
49.9346
 31
0.0
  0
LINE
  8
0
 62
     0
 10
276.414
 20
49.9346
 30
0.0
 11
277.213
 21
49.9346
 31
0.0
  0
LINE
  8
0
 62
     0
 10
277.213
 20
49.9346
 30
0.0
 11
277.213
 21
50.0352
 31
0.0
  0
LINE
  8
0
 62
     0
 10
277.213
 20
50.0352
 30
0.0
 11
276.414
 21
50.0352
 31
0.0
  0
LINE
  8
0
 62
     0
 10
276.414
 20
50.0352
 30
0.0
 11
276.414
 21
53.6346
 31
0.0
  0
LINE
  8
0
 62
     0
 10
276.414
 20
53.6346
 30
0.0
 11
280.938
 21
53.6346
 31
0.0
  0
LINE
  8
0
 62
     0
 10
280.938
 20
53.6346
 30
0.0
 11
280.938
 21
49.1656
 31
0.0
  0
LINE
  8
0
 62
     0
 10
280.938
 20
49.1656
 30
0.0
 11
282.663
 21
49.1656
 31
0.0
  0
LINE
  8
0
 62
     0
 10
282.663
 20
49.1656
 30
0.0
 11
282.663
 21
48.1845
 31
0.0
  0
LINE
  8
0
 62
     0
 10
282.663
 20
48.1845
 30
0.0
 11
282.964
 21
48.1845
 31
0.0
  0
LINE
  8
0
 62
     0
 10
282.964
 20
48.1845
 30
0.0
 11
282.964
 21
49.1656
 31
0.0
  0
LINE
  8
0
 62
     0
 10
282.964
 20
49.1656
 30
0.0
 11
284.689
 21
49.1656
 31
0.0
  0
LINE
  8
0
 62
     0
 10
284.689
 20
49.1656
 30
0.0
 11
284.689
 21
55.2344
 31
0.0
  0
LINE
  8
0
 62
     0
 10
284.689
 20
55.2344
 30
0.0
 11
285.513
 21
55.2344
 31
0.0
  0
LINE
  8
0
 62
     0
 10
285.513
 20
55.2344
 30
0.0
 11
285.513
 21
55.4359
 31
0.0
  0
LINE
  8
0
 62
     0
 10
285.513
 20
55.4359
 30
0.0
 11
284.689
 21
55.4359
 31
0.0
  0
LINE
  8
0
 62
     0
 10
284.689
 20
55.4359
 30
0.0
 11
284.689
 21
58.4648
 31
0.0
  0
LINE
  8
0
 62
     0
 10
284.689
 20
58.4648
 30
0.0
 11
282.964
 21
58.4648
 31
0.0
  0
LINE
  8
0
 62
     0
 10
282.964
 20
58.4648
 30
0.0
 11
282.964
 21
59.3852
 31
0.0
  0
LINE
  8
0
 62
     0
 10
282.964
 20
59.3852
 30
0.0
 11
282.663
 21
59.3852
 31
0.0
  0
LINE
  8
0
 62
     0
 10
282.663
 20
59.3852
 30
0.0
 11
282.663
 21
58.4648
 31
0.0
  0
LINE
  8
0
 62
     0
 10
282.663
 20
58.4648
 30
0.0
 11
280.938
 21
58.4648
 31
0.0
  0
LINE
  8
0
 62
     0
 10
280.938
 20
58.4648
 30
0.0
 11
280.938
 21
55.2344
 31
0.0
  0
LINE
  8
0
 62
     0
 10
280.938
 20
55.2344
 30
0.0
 11
276.414
 21
55.2344
 31
0.0
  0
LINE
  8
0
 62
     0
 10
276.414
 20
55.2344
 30
0.0
 11
276.414
 21
58.8352
 31
0.0
  0
LINE
  8
0
 62
     0
 10
276.414
 20
58.8352
 30
0.0
 11
277.213
 21
58.8352
 31
0.0
  0
LINE
  8
0
 62
     0
 10
277.213
 20
58.8352
 30
0.0
 11
277.213
 21
58.9347
 31
0.0
  0
LINE
  8
0
 62
     0
 10
277.213
 20
58.9347
 30
0.0
 11
276.414
 21
58.9347
 31
0.0
  0
LINE
  8
0
 62
     0
 10
276.414
 20
58.9347
 30
0.0
 11
276.414
 21
59.9352
 31
0.0
  0
LINE
  8
0
 62
     0
 10
276.414
 20
59.9352
 30
0.0
 11
265.413
 21
59.9352
 31
0.0
  0
LINE
  8
0
 62
     0
 10
17.7629
 20
59.9352
 30
0.0
 11
17.7629
 21
58.9347
 31
0.0
  0
LINE
  8
0
 62
     0
 10
17.7629
 20
58.9347
 30
0.0
 11
16.9636
 21
58.9347
 31
0.0
  0
LINE
  8
0
 62
     0
 10
16.9636
 20
58.9347
 30
0.0
 11
16.9636
 21
58.8352
 31
0.0
  0
LINE
  8
0
 62
     0
 10
16.9636
 20
58.8352
 30
0.0
 11
17.7629
 21
58.8352
 31
0.0
  0
LINE
  8
0
 62
     0
 10
17.7629
 20
58.8352
 30
0.0
 11
17.7629
 21
50.0352
 31
0.0
  0
LINE
  8
0
 62
     0
 10
17.7629
 20
50.0352
 30
0.0
 11
16.9636
 21
50.0352
 31
0.0
  0
LINE
  8
0
 62
     0
 10
16.9636
 20
50.0352
 30
0.0
 11
16.9636
 21
49.9346
 31
0.0
  0
LINE
  8
0
 62
     0
 10
16.9636
 20
49.9346
 30
0.0
 11
17.7629
 21
49.9346
 31
0.0
  0
LINE
  8
0
 62
     0
 10
17.7629
 20
49.9346
 30
0.0
 11
17.7629
 21
48.9356
 31
0.0
  0
LINE
  8
0
 62
     0
 10
17.7629
 20
48.9356
 30
0.0
 11
28.7638
 21
48.9356
 31
0.0
  0
LINE
  8
0
 62
     0
 10
28.7638
 20
48.9356
 30
0.0
 11
28.7638
 21
49.9346
 31
0.0
  0
LINE
  8
0
 62
     0
 10
28.7638
 20
49.9346
 30
0.0
 11
29.5631
 21
49.9346
 31
0.0
  0
LINE
  8
0
 62
     0
 10
29.5631
 20
49.9346
 30
0.0
 11
29.5631
 21
50.0352
 31
0.0
  0
LINE
  8
0
 62
     0
 10
29.5631
 20
50.0352
 30
0.0
 11
28.7638
 21
50.0352
 31
0.0
  0
LINE
  8
0
 62
     0
 10
28.7638
 20
50.0352
 30
0.0
 11
28.7638
 21
58.8352
 31
0.0
  0
LINE
  8
0
 62
     0
 10
28.7638
 20
58.8352
 30
0.0
 11
29.5631
 21
58.8352
 31
0.0
  0
LINE
  8
0
 62
     0
 10
29.5631
 20
58.8352
 30
0.0
 11
29.5631
 21
58.9347
 31
0.0
  0
LINE
  8
0
 62
     0
 10
29.5631
 20
58.9347
 30
0.0
 11
28.7638
 21
58.9347
 31
0.0
  0
LINE
  8
0
 62
     0
 10
28.7638
 20
58.9347
 30
0.0
 11
28.7638
 21
59.9352
 31
0.0
  0
LINE
  8
0
 62
     0
 10
28.7638
 20
59.9352
 30
0.0
 11
17.7629
 21
59.9352
 31
0.0
  0
LINE
  8
0
 62
     0
 10
43.9579
 20
59.9352
 30
0.0
 11
43.9579
 21
58.9347
 31
0.0
  0
LINE
  8
0
 62
     0
 10
43.9579
 20
58.9347
 30
0.0
 11
43.1574
 21
58.9347
 31
0.0
  0
LINE
  8
0
 62
     0
 10
43.1574
 20
58.9347
 30
0.0
 11
43.1574
 21
58.8352
 31
0.0
  0
LINE
  8
0
 62
     0
 10
43.1574
 20
58.8352
 30
0.0
 11
43.9579
 21
58.8352
 31
0.0
  0
LINE
  8
0
 62
     0
 10
43.9579
 20
58.8352
 30
0.0
 11
43.9579
 21
50.0352
 31
0.0
  0
LINE
  8
0
 62
     0
 10
43.9579
 20
50.0352
 30
0.0
 11
43.1574
 21
50.0352
 31
0.0
  0
LINE
  8
0
 62
     0
 10
43.1574
 20
50.0352
 30
0.0
 11
43.1574
 21
49.9346
 31
0.0
  0
LINE
  8
0
 62
     0
 10
43.1574
 20
49.9346
 30
0.0
 11
43.9579
 21
49.9346
 31
0.0
  0
LINE
  8
0
 62
     0
 10
43.9579
 20
49.9346
 30
0.0
 11
43.9579
 21
48.9356
 31
0.0
  0
LINE
  8
0
 62
     0
 10
43.9579
 20
48.9356
 30
0.0
 11
54.9575
 21
48.9356
 31
0.0
  0
LINE
  8
0
 62
     0
 10
54.9575
 20
48.9356
 30
0.0
 11
54.9575
 21
49.9346
 31
0.0
  0
LINE
  8
0
 62
     0
 10
54.9575
 20
49.9346
 30
0.0
 11
55.7569
 21
49.9346
 31
0.0
  0
LINE
  8
0
 62
     0
 10
55.7569
 20
49.9346
 30
0.0
 11
55.7569
 21
50.0352
 31
0.0
  0
LINE
  8
0
 62
     0
 10
55.7569
 20
50.0352
 30
0.0
 11
54.9575
 21
50.0352
 31
0.0
  0
LINE
  8
0
 62
     0
 10
54.9575
 20
50.0352
 30
0.0
 11
54.9575
 21
58.8352
 31
0.0
  0
LINE
  8
0
 62
     0
 10
54.9575
 20
58.8352
 30
0.0
 11
55.7569
 21
58.8352
 31
0.0
  0
LINE
  8
0
 62
     0
 10
55.7569
 20
58.8352
 30
0.0
 11
55.7569
 21
58.9347
 31
0.0
  0
LINE
  8
0
 62
     0
 10
55.7569
 20
58.9347
 30
0.0
 11
54.9575
 21
58.9347
 31
0.0
  0
LINE
  8
0
 62
     0
 10
54.9575
 20
58.9347
 30
0.0
 11
54.9575
 21
59.9352
 31
0.0
  0
LINE
  8
0
 62
     0
 10
54.9575
 20
59.9352
 30
0.0
 11
43.9579
 21
59.9352
 31
0.0
  0
LINE
  8
0
 62
     0
 10
63.0079
 20
59.9352
 30
0.0
 11
63.0079
 21
58.9347
 31
0.0
  0
LINE
  8
0
 62
     0
 10
63.0079
 20
58.9347
 30
0.0
 11
62.2074
 21
58.9347
 31
0.0
  0
LINE
  8
0
 62
     0
 10
62.2074
 20
58.9347
 30
0.0
 11
62.2074
 21
58.8352
 31
0.0
  0
LINE
  8
0
 62
     0
 10
62.2074
 20
58.8352
 30
0.0
 11
63.0079
 21
58.8352
 31
0.0
  0
LINE
  8
0
 62
     0
 10
63.0079
 20
58.8352
 30
0.0
 11
63.0079
 21
50.0352
 31
0.0
  0
LINE
  8
0
 62
     0
 10
63.0079
 20
50.0352
 30
0.0
 11
62.2074
 21
50.0352
 31
0.0
  0
LINE
  8
0
 62
     0
 10
62.2074
 20
50.0352
 30
0.0
 11
62.2074
 21
49.9346
 31
0.0
  0
LINE
  8
0
 62
     0
 10
62.2074
 20
49.9346
 30
0.0
 11
63.0079
 21
49.9346
 31
0.0
  0
LINE
  8
0
 62
     0
 10
63.0079
 20
49.9346
 30
0.0
 11
63.0079
 21
48.9356
 31
0.0
  0
LINE
  8
0
 62
     0
 10
63.0079
 20
48.9356
 30
0.0
 11
74.0075
 21
48.9356
 31
0.0
  0
LINE
  8
0
 62
     0
 10
74.0075
 20
48.9356
 30
0.0
 11
74.0075
 21
49.9346
 31
0.0
  0
LINE
  8
0
 62
     0
 10
74.0075
 20
49.9346
 30
0.0
 11
74.8069
 21
49.9346
 31
0.0
  0
LINE
  8
0
 62
     0
 10
74.8069
 20
49.9346
 30
0.0
 11
74.8069
 21
50.0352
 31
0.0
  0
LINE
  8
0
 62
     0
 10
74.8069
 20
50.0352
 30
0.0
 11
74.0075
 21
50.0352
 31
0.0
  0
LINE
  8
0
 62
     0
 10
74.0075
 20
50.0352
 30
0.0
 11
74.0075
 21
58.8352
 31
0.0
  0
LINE
  8
0
 62
     0
 10
74.0075
 20
58.8352
 30
0.0
 11
74.8069
 21
58.8352
 31
0.0
  0
LINE
  8
0
 62
     0
 10
74.8069
 20
58.8352
 30
0.0
 11
74.8069
 21
58.9347
 31
0.0
  0
LINE
  8
0
 62
     0
 10
74.8069
 20
58.9347
 30
0.0
 11
74.0075
 21
58.9347
 31
0.0
  0
LINE
  8
0
 62
     0
 10
74.0075
 20
58.9347
 30
0.0
 11
74.0075
 21
59.9352
 31
0.0
  0
LINE
  8
0
 62
     0
 10
74.0075
 20
59.9352
 30
0.0
 11
63.0079
 21
59.9352
 31
0.0
  0
LINE
  8
0
 62
     0
 10
82.0579
 20
59.9352
 30
0.0
 11
82.0579
 21
58.9347
 31
0.0
  0
LINE
  8
0
 62
     0
 10
82.0579
 20
58.9347
 30
0.0
 11
81.2574
 21
58.9347
 31
0.0
  0
LINE
  8
0
 62
     0
 10
81.2574
 20
58.9347
 30
0.0
 11
81.2574
 21
58.8352
 31
0.0
  0
LINE
  8
0
 62
     0
 10
81.2574
 20
58.8352
 30
0.0
 11
82.0579
 21
58.8352
 31
0.0
  0
LINE
  8
0
 62
     0
 10
82.0579
 20
58.8352
 30
0.0
 11
82.0579
 21
50.0352
 31
0.0
  0
LINE
  8
0
 62
     0
 10
82.0579
 20
50.0352
 30
0.0
 11
81.2574
 21
50.0352
 31
0.0
  0
LINE
  8
0
 62
     0
 10
81.2574
 20
50.0352
 30
0.0
 11
81.2574
 21
49.9346
 31
0.0
  0
LINE
  8
0
 62
     0
 10
81.2574
 20
49.9346
 30
0.0
 11
82.0579
 21
49.9346
 31
0.0
  0
LINE
  8
0
 62
     0
 10
82.0579
 20
49.9346
 30
0.0
 11
82.0579
 21
48.9356
 31
0.0
  0
LINE
  8
0
 62
     0
 10
82.0579
 20
48.9356
 30
0.0
 11
93.0575
 21
48.9356
 31
0.0
  0
LINE
  8
0
 62
     0
 10
93.0575
 20
48.9356
 30
0.0
 11
93.0575
 21
49.9346
 31
0.0
  0
LINE
  8
0
 62
     0
 10
93.0575
 20
49.9346
 30
0.0
 11
93.8569
 21
49.9346
 31
0.0
  0
LINE
  8
0
 62
     0
 10
93.8569
 20
49.9346
 30
0.0
 11
93.8569
 21
50.0352
 31
0.0
  0
LINE
  8
0
 62
     0
 10
93.8569
 20
50.0352
 30
0.0
 11
93.0575
 21
50.0352
 31
0.0
  0
LINE
  8
0
 62
     0
 10
93.0575
 20
50.0352
 30
0.0
 11
93.0575
 21
58.8352
 31
0.0
  0
LINE
  8
0
 62
     0
 10
93.0575
 20
58.8352
 30
0.0
 11
93.8569
 21
58.8352
 31
0.0
  0
LINE
  8
0
 62
     0
 10
93.8569
 20
58.8352
 30
0.0
 11
93.8569
 21
58.9347
 31
0.0
  0
LINE
  8
0
 62
     0
 10
93.8569
 20
58.9347
 30
0.0
 11
93.0575
 21
58.9347
 31
0.0
  0
LINE
  8
0
 62
     0
 10
93.0575
 20
58.9347
 30
0.0
 11
93.0575
 21
59.9352
 31
0.0
  0
LINE
  8
0
 62
     0
 10
93.0575
 20
59.9352
 30
0.0
 11
82.0579
 21
59.9352
 31
0.0
  0
LINE
  8
0
 62
     0
 10
101.108
 20
59.9352
 30
0.0
 11
101.108
 21
58.9347
 31
0.0
  0
LINE
  8
0
 62
     0
 10
101.108
 20
58.9347
 30
0.0
 11
100.307
 21
58.9347
 31
0.0
  0
LINE
  8
0
 62
     0
 10
100.307
 20
58.9347
 30
0.0
 11
100.307
 21
58.8352
 31
0.0
  0
LINE
  8
0
 62
     0
 10
100.307
 20
58.8352
 30
0.0
 11
101.108
 21
58.8352
 31
0.0
  0
LINE
  8
0
 62
     0
 10
101.108
 20
58.8352
 30
0.0
 11
101.108
 21
50.0352
 31
0.0
  0
LINE
  8
0
 62
     0
 10
101.108
 20
50.0352
 30
0.0
 11
100.307
 21
50.0352
 31
0.0
  0
LINE
  8
0
 62
     0
 10
100.307
 20
50.0352
 30
0.0
 11
100.307
 21
49.9346
 31
0.0
  0
LINE
  8
0
 62
     0
 10
100.307
 20
49.9346
 30
0.0
 11
101.108
 21
49.9346
 31
0.0
  0
LINE
  8
0
 62
     0
 10
101.108
 20
49.9346
 30
0.0
 11
101.108
 21
48.9356
 31
0.0
  0
LINE
  8
0
 62
     0
 10
101.108
 20
48.9356
 30
0.0
 11
112.107
 21
48.9356
 31
0.0
  0
LINE
  8
0
 62
     0
 10
112.107
 20
48.9356
 30
0.0
 11
112.107
 21
49.9346
 31
0.0
  0
LINE
  8
0
 62
     0
 10
112.107
 20
49.9346
 30
0.0
 11
112.907
 21
49.9346
 31
0.0
  0
LINE
  8
0
 62
     0
 10
112.907
 20
49.9346
 30
0.0
 11
112.907
 21
50.0352
 31
0.0
  0
LINE
  8
0
 62
     0
 10
112.907
 20
50.0352
 30
0.0
 11
112.107
 21
50.0352
 31
0.0
  0
LINE
  8
0
 62
     0
 10
112.107
 20
50.0352
 30
0.0
 11
112.107
 21
58.8352
 31
0.0
  0
LINE
  8
0
 62
     0
 10
112.107
 20
58.8352
 30
0.0
 11
112.907
 21
58.8352
 31
0.0
  0
LINE
  8
0
 62
     0
 10
112.907
 20
58.8352
 30
0.0
 11
112.907
 21
58.9347
 31
0.0
  0
LINE
  8
0
 62
     0
 10
112.907
 20
58.9347
 30
0.0
 11
112.107
 21
58.9347
 31
0.0
  0
LINE
  8
0
 62
     0
 10
112.107
 20
58.9347
 30
0.0
 11
112.107
 21
59.9352
 31
0.0
  0
LINE
  8
0
 62
     0
 10
112.107
 20
59.9352
 30
0.0
 11
101.108
 21
59.9352
 31
0.0
  0
LINE
  8
0
 62
     0
 10
120.158
 20
59.9352
 30
0.0
 11
120.158
 21
58.9347
 31
0.0
  0
LINE
  8
0
 62
     0
 10
120.158
 20
58.9347
 30
0.0
 11
119.357
 21
58.9347
 31
0.0
  0
LINE
  8
0
 62
     0
 10
119.357
 20
58.9347
 30
0.0
 11
119.357
 21
58.8352
 31
0.0
  0
LINE
  8
0
 62
     0
 10
119.357
 20
58.8352
 30
0.0
 11
120.158
 21
58.8352
 31
0.0
  0
LINE
  8
0
 62
     0
 10
120.158
 20
58.8352
 30
0.0
 11
120.158
 21
50.0352
 31
0.0
  0
LINE
  8
0
 62
     0
 10
120.158
 20
50.0352
 30
0.0
 11
119.357
 21
50.0352
 31
0.0
  0
LINE
  8
0
 62
     0
 10
119.357
 20
50.0352
 30
0.0
 11
119.357
 21
49.9346
 31
0.0
  0
LINE
  8
0
 62
     0
 10
119.357
 20
49.9346
 30
0.0
 11
120.158
 21
49.9346
 31
0.0
  0
LINE
  8
0
 62
     0
 10
120.158
 20
49.9346
 30
0.0
 11
120.158
 21
48.9356
 31
0.0
  0
LINE
  8
0
 62
     0
 10
120.158
 20
48.9356
 30
0.0
 11
131.157
 21
48.9356
 31
0.0
  0
LINE
  8
0
 62
     0
 10
131.157
 20
48.9356
 30
0.0
 11
131.157
 21
49.9346
 31
0.0
  0
LINE
  8
0
 62
     0
 10
131.157
 20
49.9346
 30
0.0
 11
131.957
 21
49.9346
 31
0.0
  0
LINE
  8
0
 62
     0
 10
131.957
 20
49.9346
 30
0.0
 11
131.957
 21
50.0352
 31
0.0
  0
LINE
  8
0
 62
     0
 10
131.957
 20
50.0352
 30
0.0
 11
131.157
 21
50.0352
 31
0.0
  0
LINE
  8
0
 62
     0
 10
131.157
 20
50.0352
 30
0.0
 11
131.157
 21
58.8352
 31
0.0
  0
LINE
  8
0
 62
     0
 10
131.157
 20
58.8352
 30
0.0
 11
131.957
 21
58.8352
 31
0.0
  0
LINE
  8
0
 62
     0
 10
131.957
 20
58.8352
 30
0.0
 11
131.957
 21
58.9347
 31
0.0
  0
LINE
  8
0
 62
     0
 10
131.957
 20
58.9347
 30
0.0
 11
131.157
 21
58.9347
 31
0.0
  0
LINE
  8
0
 62
     0
 10
131.157
 20
58.9347
 30
0.0
 11
131.157
 21
59.9352
 31
0.0
  0
LINE
  8
0
 62
     0
 10
131.157
 20
59.9352
 30
0.0
 11
120.158
 21
59.9352
 31
0.0
  0
LINE
  8
0
 62
     0
 10
139.208
 20
59.9352
 30
0.0
 11
139.208
 21
58.9347
 31
0.0
  0
LINE
  8
0
 62
     0
 10
139.208
 20
58.9347
 30
0.0
 11
138.407
 21
58.9347
 31
0.0
  0
LINE
  8
0
 62
     0
 10
138.407
 20
58.9347
 30
0.0
 11
138.407
 21
58.8352
 31
0.0
  0
LINE
  8
0
 62
     0
 10
138.407
 20
58.8352
 30
0.0
 11
139.208
 21
58.8352
 31
0.0
  0
LINE
  8
0
 62
     0
 10
139.208
 20
58.8352
 30
0.0
 11
139.208
 21
50.0352
 31
0.0
  0
LINE
  8
0
 62
     0
 10
139.208
 20
50.0352
 30
0.0
 11
138.407
 21
50.0352
 31
0.0
  0
LINE
  8
0
 62
     0
 10
138.407
 20
50.0352
 30
0.0
 11
138.407
 21
49.9346
 31
0.0
  0
LINE
  8
0
 62
     0
 10
138.407
 20
49.9346
 30
0.0
 11
139.208
 21
49.9346
 31
0.0
  0
LINE
  8
0
 62
     0
 10
139.208
 20
49.9346
 30
0.0
 11
139.208
 21
48.9356
 31
0.0
  0
LINE
  8
0
 62
     0
 10
139.208
 20
48.9356
 30
0.0
 11
150.207
 21
48.9356
 31
0.0
  0
LINE
  8
0
 62
     0
 10
150.207
 20
48.9356
 30
0.0
 11
150.207
 21
49.9346
 31
0.0
  0
LINE
  8
0
 62
     0
 10
150.207
 20
49.9346
 30
0.0
 11
151.007
 21
49.9346
 31
0.0
  0
LINE
  8
0
 62
     0
 10
151.007
 20
49.9346
 30
0.0
 11
151.007
 21
50.0352
 31
0.0
  0
LINE
  8
0
 62
     0
 10
151.007
 20
50.0352
 30
0.0
 11
150.207
 21
50.0352
 31
0.0
  0
LINE
  8
0
 62
     0
 10
150.207
 20
50.0352
 30
0.0
 11
150.207
 21
58.8352
 31
0.0
  0
LINE
  8
0
 62
     0
 10
150.207
 20
58.8352
 30
0.0
 11
151.007
 21
58.8352
 31
0.0
  0
LINE
  8
0
 62
     0
 10
151.007
 20
58.8352
 30
0.0
 11
151.007
 21
58.9347
 31
0.0
  0
LINE
  8
0
 62
     0
 10
151.007
 20
58.9347
 30
0.0
 11
150.207
 21
58.9347
 31
0.0
  0
LINE
  8
0
 62
     0
 10
150.207
 20
58.9347
 30
0.0
 11
150.207
 21
59.9352
 31
0.0
  0
LINE
  8
0
 62
     0
 10
150.207
 20
59.9352
 30
0.0
 11
139.208
 21
59.9352
 31
0.0
  0
LINE
  8
0
 62
     0
 10
158.258
 20
59.9352
 30
0.0
 11
158.258
 21
58.9347
 31
0.0
  0
LINE
  8
0
 62
     0
 10
158.258
 20
58.9347
 30
0.0
 11
157.457
 21
58.9347
 31
0.0
  0
LINE
  8
0
 62
     0
 10
157.457
 20
58.9347
 30
0.0
 11
157.457
 21
58.8352
 31
0.0
  0
LINE
  8
0
 62
     0
 10
157.457
 20
58.8352
 30
0.0
 11
158.258
 21
58.8352
 31
0.0
  0
LINE
  8
0
 62
     0
 10
158.258
 20
58.8352
 30
0.0
 11
158.258
 21
50.0352
 31
0.0
  0
LINE
  8
0
 62
     0
 10
158.258
 20
50.0352
 30
0.0
 11
157.457
 21
50.0352
 31
0.0
  0
LINE
  8
0
 62
     0
 10
157.457
 20
50.0352
 30
0.0
 11
157.457
 21
49.9346
 31
0.0
  0
LINE
  8
0
 62
     0
 10
157.457
 20
49.9346
 30
0.0
 11
158.258
 21
49.9346
 31
0.0
  0
LINE
  8
0
 62
     0
 10
158.258
 20
49.9346
 30
0.0
 11
158.258
 21
48.9356
 31
0.0
  0
LINE
  8
0
 62
     0
 10
158.258
 20
48.9356
 30
0.0
 11
169.257
 21
48.9356
 31
0.0
  0
LINE
  8
0
 62
     0
 10
169.257
 20
48.9356
 30
0.0
 11
169.257
 21
49.9346
 31
0.0
  0
LINE
  8
0
 62
     0
 10
169.257
 20
49.9346
 30
0.0
 11
170.057
 21
49.9346
 31
0.0
  0
LINE
  8
0
 62
     0
 10
170.057
 20
49.9346
 30
0.0
 11
170.057
 21
50.0352
 31
0.0
  0
LINE
  8
0
 62
     0
 10
170.057
 20
50.0352
 30
0.0
 11
169.257
 21
50.0352
 31
0.0
  0
LINE
  8
0
 62
     0
 10
169.257
 20
50.0352
 30
0.0
 11
169.257
 21
58.8352
 31
0.0
  0
LINE
  8
0
 62
     0
 10
169.257
 20
58.8352
 30
0.0
 11
170.057
 21
58.8352
 31
0.0
  0
LINE
  8
0
 62
     0
 10
170.057
 20
58.8352
 30
0.0
 11
170.057
 21
58.9347
 31
0.0
  0
LINE
  8
0
 62
     0
 10
170.057
 20
58.9347
 30
0.0
 11
169.257
 21
58.9347
 31
0.0
  0
LINE
  8
0
 62
     0
 10
169.257
 20
58.9347
 30
0.0
 11
169.257
 21
59.9352
 31
0.0
  0
LINE
  8
0
 62
     0
 10
169.257
 20
59.9352
 30
0.0
 11
158.258
 21
59.9352
 31
0.0
  0
LINE
  8
0
 62
     0
 10
177.308
 20
59.9352
 30
0.0
 11
177.308
 21
58.9347
 31
0.0
  0
LINE
  8
0
 62
     0
 10
177.308
 20
58.9347
 30
0.0
 11
176.507
 21
58.9347
 31
0.0
  0
LINE
  8
0
 62
     0
 10
176.507
 20
58.9347
 30
0.0
 11
176.507
 21
58.8352
 31
0.0
  0
LINE
  8
0
 62
     0
 10
176.507
 20
58.8352
 30
0.0
 11
177.308
 21
58.8352
 31
0.0
  0
LINE
  8
0
 62
     0
 10
177.308
 20
58.8352
 30
0.0
 11
177.308
 21
50.0352
 31
0.0
  0
LINE
  8
0
 62
     0
 10
177.308
 20
50.0352
 30
0.0
 11
176.507
 21
50.0352
 31
0.0
  0
LINE
  8
0
 62
     0
 10
176.507
 20
50.0352
 30
0.0
 11
176.507
 21
49.9346
 31
0.0
  0
LINE
  8
0
 62
     0
 10
176.507
 20
49.9346
 30
0.0
 11
177.308
 21
49.9346
 31
0.0
  0
LINE
  8
0
 62
     0
 10
177.308
 20
49.9346
 30
0.0
 11
177.308
 21
48.9356
 31
0.0
  0
LINE
  8
0
 62
     0
 10
177.308
 20
48.9356
 30
0.0
 11
188.307
 21
48.9356
 31
0.0
  0
LINE
  8
0
 62
     0
 10
188.307
 20
48.9356
 30
0.0
 11
188.307
 21
49.9346
 31
0.0
  0
LINE
  8
0
 62
     0
 10
188.307
 20
49.9346
 30
0.0
 11
189.107
 21
49.9346
 31
0.0
  0
LINE
  8
0
 62
     0
 10
189.107
 20
49.9346
 30
0.0
 11
189.107
 21
50.0352
 31
0.0
  0
LINE
  8
0
 62
     0
 10
189.107
 20
50.0352
 30
0.0
 11
188.307
 21
50.0352
 31
0.0
  0
LINE
  8
0
 62
     0
 10
188.307
 20
50.0352
 30
0.0
 11
188.307
 21
58.8352
 31
0.0
  0
LINE
  8
0
 62
     0
 10
188.307
 20
58.8352
 30
0.0
 11
189.107
 21
58.8352
 31
0.0
  0
LINE
  8
0
 62
     0
 10
189.107
 20
58.8352
 30
0.0
 11
189.107
 21
58.9347
 31
0.0
  0
LINE
  8
0
 62
     0
 10
189.107
 20
58.9347
 30
0.0
 11
188.307
 21
58.9347
 31
0.0
  0
LINE
  8
0
 62
     0
 10
188.307
 20
58.9347
 30
0.0
 11
188.307
 21
59.9352
 31
0.0
  0
LINE
  8
0
 62
     0
 10
188.307
 20
59.9352
 30
0.0
 11
177.308
 21
59.9352
 31
0.0
  0
LINE
  8
0
 62
     0
 10
196.358
 20
59.9352
 30
0.0
 11
196.358
 21
58.9347
 31
0.0
  0
LINE
  8
0
 62
     0
 10
196.358
 20
58.9347
 30
0.0
 11
195.557
 21
58.9347
 31
0.0
  0
LINE
  8
0
 62
     0
 10
195.557
 20
58.9347
 30
0.0
 11
195.557
 21
58.8352
 31
0.0
  0
LINE
  8
0
 62
     0
 10
195.557
 20
58.8352
 30
0.0
 11
196.358
 21
58.8352
 31
0.0
  0
LINE
  8
0
 62
     0
 10
196.358
 20
58.8352
 30
0.0
 11
196.358
 21
50.0352
 31
0.0
  0
LINE
  8
0
 62
     0
 10
196.358
 20
50.0352
 30
0.0
 11
195.557
 21
50.0352
 31
0.0
  0
LINE
  8
0
 62
     0
 10
195.557
 20
50.0352
 30
0.0
 11
195.557
 21
49.9346
 31
0.0
  0
LINE
  8
0
 62
     0
 10
195.557
 20
49.9346
 30
0.0
 11
196.358
 21
49.9346
 31
0.0
  0
LINE
  8
0
 62
     0
 10
196.358
 20
49.9346
 30
0.0
 11
196.358
 21
48.9356
 31
0.0
  0
LINE
  8
0
 62
     0
 10
196.358
 20
48.9356
 30
0.0
 11
207.357
 21
48.9356
 31
0.0
  0
LINE
  8
0
 62
     0
 10
207.357
 20
48.9356
 30
0.0
 11
207.357
 21
49.9346
 31
0.0
  0
LINE
  8
0
 62
     0
 10
207.357
 20
49.9346
 30
0.0
 11
208.157
 21
49.9346
 31
0.0
  0
LINE
  8
0
 62
     0
 10
208.157
 20
49.9346
 30
0.0
 11
208.157
 21
50.0352
 31
0.0
  0
LINE
  8
0
 62
     0
 10
208.157
 20
50.0352
 30
0.0
 11
207.357
 21
50.0352
 31
0.0
  0
LINE
  8
0
 62
     0
 10
207.357
 20
50.0352
 30
0.0
 11
207.357
 21
58.8352
 31
0.0
  0
LINE
  8
0
 62
     0
 10
207.357
 20
58.8352
 30
0.0
 11
208.157
 21
58.8352
 31
0.0
  0
LINE
  8
0
 62
     0
 10
208.157
 20
58.8352
 30
0.0
 11
208.157
 21
58.9347
 31
0.0
  0
LINE
  8
0
 62
     0
 10
208.157
 20
58.9347
 30
0.0
 11
207.357
 21
58.9347
 31
0.0
  0
LINE
  8
0
 62
     0
 10
207.357
 20
58.9347
 30
0.0
 11
207.357
 21
59.9352
 31
0.0
  0
LINE
  8
0
 62
     0
 10
207.357
 20
59.9352
 30
0.0
 11
196.358
 21
59.9352
 31
0.0
  0
LINE
  8
0
 62
     0
 10
215.408
 20
59.9352
 30
0.0
 11
215.408
 21
58.9347
 31
0.0
  0
LINE
  8
0
 62
     0
 10
215.408
 20
58.9347
 30
0.0
 11
214.607
 21
58.9347
 31
0.0
  0
LINE
  8
0
 62
     0
 10
214.607
 20
58.9347
 30
0.0
 11
214.607
 21
58.8352
 31
0.0
  0
LINE
  8
0
 62
     0
 10
214.607
 20
58.8352
 30
0.0
 11
215.408
 21
58.8352
 31
0.0
  0
LINE
  8
0
 62
     0
 10
215.408
 20
58.8352
 30
0.0
 11
215.408
 21
50.0352
 31
0.0
  0
LINE
  8
0
 62
     0
 10
215.408
 20
50.0352
 30
0.0
 11
214.607
 21
50.0352
 31
0.0
  0
LINE
  8
0
 62
     0
 10
214.607
 20
50.0352
 30
0.0
 11
214.607
 21
49.9346
 31
0.0
  0
LINE
  8
0
 62
     0
 10
214.607
 20
49.9346
 30
0.0
 11
215.408
 21
49.9346
 31
0.0
  0
LINE
  8
0
 62
     0
 10
215.408
 20
49.9346
 30
0.0
 11
215.408
 21
48.9356
 31
0.0
  0
LINE
  8
0
 62
     0
 10
215.408
 20
48.9356
 30
0.0
 11
226.407
 21
48.9356
 31
0.0
  0
LINE
  8
0
 62
     0
 10
226.407
 20
48.9356
 30
0.0
 11
226.407
 21
49.9346
 31
0.0
  0
LINE
  8
0
 62
     0
 10
226.407
 20
49.9346
 30
0.0
 11
227.207
 21
49.9346
 31
0.0
  0
LINE
  8
0
 62
     0
 10
227.207
 20
49.9346
 30
0.0
 11
227.207
 21
50.0352
 31
0.0
  0
LINE
  8
0
 62
     0
 10
227.207
 20
50.0352
 30
0.0
 11
226.407
 21
50.0352
 31
0.0
  0
LINE
  8
0
 62
     0
 10
226.407
 20
50.0352
 30
0.0
 11
226.407
 21
58.8352
 31
0.0
  0
LINE
  8
0
 62
     0
 10
226.407
 20
58.8352
 30
0.0
 11
227.207
 21
58.8352
 31
0.0
  0
LINE
  8
0
 62
     0
 10
227.207
 20
58.8352
 30
0.0
 11
227.207
 21
58.9347
 31
0.0
  0
LINE
  8
0
 62
     0
 10
227.207
 20
58.9347
 30
0.0
 11
226.407
 21
58.9347
 31
0.0
  0
LINE
  8
0
 62
     0
 10
226.407
 20
58.9347
 30
0.0
 11
226.407
 21
59.9352
 31
0.0
  0
LINE
  8
0
 62
     0
 10
226.407
 20
59.9352
 30
0.0
 11
215.408
 21
59.9352
 31
0.0
  0
LINE
  8
0
 62
     0
 10
234.458
 20
59.9352
 30
0.0
 11
234.458
 21
58.9347
 31
0.0
  0
LINE
  8
0
 62
     0
 10
234.458
 20
58.9347
 30
0.0
 11
233.657
 21
58.9347
 31
0.0
  0
LINE
  8
0
 62
     0
 10
233.657
 20
58.9347
 30
0.0
 11
233.657
 21
58.8352
 31
0.0
  0
LINE
  8
0
 62
     0
 10
233.657
 20
58.8352
 30
0.0
 11
234.458
 21
58.8352
 31
0.0
  0
LINE
  8
0
 62
     0
 10
234.458
 20
58.8352
 30
0.0
 11
234.458
 21
50.0352
 31
0.0
  0
LINE
  8
0
 62
     0
 10
234.458
 20
50.0352
 30
0.0
 11
233.657
 21
50.0352
 31
0.0
  0
LINE
  8
0
 62
     0
 10
233.657
 20
50.0352
 30
0.0
 11
233.657
 21
49.9346
 31
0.0
  0
LINE
  8
0
 62
     0
 10
233.657
 20
49.9346
 30
0.0
 11
234.458
 21
49.9346
 31
0.0
  0
LINE
  8
0
 62
     0
 10
234.458
 20
49.9346
 30
0.0
 11
234.458
 21
48.9356
 31
0.0
  0
LINE
  8
0
 62
     0
 10
234.458
 20
48.9356
 30
0.0
 11
245.457
 21
48.9356
 31
0.0
  0
LINE
  8
0
 62
     0
 10
245.457
 20
48.9356
 30
0.0
 11
245.457
 21
49.9346
 31
0.0
  0
LINE
  8
0
 62
     0
 10
245.457
 20
49.9346
 30
0.0
 11
246.257
 21
49.9346
 31
0.0
  0
LINE
  8
0
 62
     0
 10
246.257
 20
49.9346
 30
0.0
 11
246.257
 21
50.0352
 31
0.0
  0
LINE
  8
0
 62
     0
 10
246.257
 20
50.0352
 30
0.0
 11
245.457
 21
50.0352
 31
0.0
  0
LINE
  8
0
 62
     0
 10
245.457
 20
50.0352
 30
0.0
 11
245.457
 21
58.8352
 31
0.0
  0
LINE
  8
0
 62
     0
 10
245.457
 20
58.8352
 30
0.0
 11
246.257
 21
58.8352
 31
0.0
  0
LINE
  8
0
 62
     0
 10
246.257
 20
58.8352
 30
0.0
 11
246.257
 21
58.9347
 31
0.0
  0
LINE
  8
0
 62
     0
 10
246.257
 20
58.9347
 30
0.0
 11
245.457
 21
58.9347
 31
0.0
  0
LINE
  8
0
 62
     0
 10
245.457
 20
58.9347
 30
0.0
 11
245.457
 21
59.9352
 31
0.0
  0
LINE
  8
0
 62
     0
 10
245.457
 20
59.9352
 30
0.0
 11
234.458
 21
59.9352
 31
0.0
  0
LINE
  8
0
 62
     0
 10
15.3831
 20
78.9852
 30
0.0
 11
15.3831
 21
77.9847
 31
0.0
  0
LINE
  8
0
 62
     0
 10
15.3831
 20
77.9847
 30
0.0
 11
14.5824
 21
77.9847
 31
0.0
  0
LINE
  8
0
 62
     0
 10
14.5824
 20
77.9847
 30
0.0
 11
14.5824
 21
77.8852
 31
0.0
  0
LINE
  8
0
 62
     0
 10
14.5824
 20
77.8852
 30
0.0
 11
15.3831
 21
77.8852
 31
0.0
  0
LINE
  8
0
 62
     0
 10
15.3831
 20
77.8852
 30
0.0
 11
15.3831
 21
69.0852
 31
0.0
  0
LINE
  8
0
 62
     0
 10
15.3831
 20
69.0852
 30
0.0
 11
14.5824
 21
69.0852
 31
0.0
  0
LINE
  8
0
 62
     0
 10
14.5824
 20
69.0852
 30
0.0
 11
14.5824
 21
68.9846
 31
0.0
  0
LINE
  8
0
 62
     0
 10
14.5824
 20
68.9846
 30
0.0
 11
15.3831
 21
68.9846
 31
0.0
  0
LINE
  8
0
 62
     0
 10
15.3831
 20
68.9846
 30
0.0
 11
15.3831
 21
67.9856
 31
0.0
  0
LINE
  8
0
 62
     0
 10
15.3831
 20
67.9856
 30
0.0
 11
26.3826
 21
67.9856
 31
0.0
  0
LINE
  8
0
 62
     0
 10
26.3826
 20
67.9856
 30
0.0
 11
26.3826
 21
68.9846
 31
0.0
  0
LINE
  8
0
 62
     0
 10
26.3826
 20
68.9846
 30
0.0
 11
27.1818
 21
68.9846
 31
0.0
  0
LINE
  8
0
 62
     0
 10
27.1818
 20
68.9846
 30
0.0
 11
27.1818
 21
69.0852
 31
0.0
  0
LINE
  8
0
 62
     0
 10
27.1818
 20
69.0852
 30
0.0
 11
26.3826
 21
69.0852
 31
0.0
  0
LINE
  8
0
 62
     0
 10
26.3826
 20
69.0852
 30
0.0
 11
26.3826
 21
77.8852
 31
0.0
  0
LINE
  8
0
 62
     0
 10
26.3826
 20
77.8852
 30
0.0
 11
27.1818
 21
77.8852
 31
0.0
  0
LINE
  8
0
 62
     0
 10
27.1818
 20
77.8852
 30
0.0
 11
27.1818
 21
77.9847
 31
0.0
  0
LINE
  8
0
 62
     0
 10
27.1818
 20
77.9847
 30
0.0
 11
26.3826
 21
77.9847
 31
0.0
  0
LINE
  8
0
 62
     0
 10
26.3826
 20
77.9847
 30
0.0
 11
26.3826
 21
78.9852
 31
0.0
  0
LINE
  8
0
 62
     0
 10
26.3826
 20
78.9852
 30
0.0
 11
15.3831
 21
78.9852
 31
0.0
  0
LINE
  8
0
 62
     0
 10
39.1954
 20
78.9852
 30
0.0
 11
39.1954
 21
77.9847
 31
0.0
  0
LINE
  8
0
 62
     0
 10
39.1954
 20
77.9847
 30
0.0
 11
38.3949
 21
77.9847
 31
0.0
  0
LINE
  8
0
 62
     0
 10
38.3949
 20
77.9847
 30
0.0
 11
38.3949
 21
77.8852
 31
0.0
  0
LINE
  8
0
 62
     0
 10
38.3949
 20
77.8852
 30
0.0
 11
39.1954
 21
77.8852
 31
0.0
  0
LINE
  8
0
 62
     0
 10
39.1954
 20
77.8852
 30
0.0
 11
39.1954
 21
69.0852
 31
0.0
  0
LINE
  8
0
 62
     0
 10
39.1954
 20
69.0852
 30
0.0
 11
38.3949
 21
69.0852
 31
0.0
  0
LINE
  8
0
 62
     0
 10
38.3949
 20
69.0852
 30
0.0
 11
38.3949
 21
68.9846
 31
0.0
  0
LINE
  8
0
 62
     0
 10
38.3949
 20
68.9846
 30
0.0
 11
39.1954
 21
68.9846
 31
0.0
  0
LINE
  8
0
 62
     0
 10
39.1954
 20
68.9846
 30
0.0
 11
39.1954
 21
67.9856
 31
0.0
  0
LINE
  8
0
 62
     0
 10
39.1954
 20
67.9856
 30
0.0
 11
50.195
 21
67.9856
 31
0.0
  0
LINE
  8
0
 62
     0
 10
50.195
 20
67.9856
 30
0.0
 11
50.195
 21
68.9846
 31
0.0
  0
LINE
  8
0
 62
     0
 10
50.195
 20
68.9846
 30
0.0
 11
50.9958
 21
68.9846
 31
0.0
  0
LINE
  8
0
 62
     0
 10
50.9958
 20
68.9846
 30
0.0
 11
50.9958
 21
69.0852
 31
0.0
  0
LINE
  8
0
 62
     0
 10
50.9958
 20
69.0852
 30
0.0
 11
50.195
 21
69.0852
 31
0.0
  0
LINE
  8
0
 62
     0
 10
50.195
 20
69.0852
 30
0.0
 11
50.195
 21
77.8852
 31
0.0
  0
LINE
  8
0
 62
     0
 10
50.195
 20
77.8852
 30
0.0
 11
50.9958
 21
77.8852
 31
0.0
  0
LINE
  8
0
 62
     0
 10
50.9958
 20
77.8852
 30
0.0
 11
50.9958
 21
77.9847
 31
0.0
  0
LINE
  8
0
 62
     0
 10
50.9958
 20
77.9847
 30
0.0
 11
50.195
 21
77.9847
 31
0.0
  0
LINE
  8
0
 62
     0
 10
50.195
 20
77.9847
 30
0.0
 11
50.195
 21
78.9852
 31
0.0
  0
LINE
  8
0
 62
     0
 10
50.195
 20
78.9852
 30
0.0
 11
39.1954
 21
78.9852
 31
0.0
  0
LINE
  8
0
 62
     0
 10
58.2454
 20
78.9852
 30
0.0
 11
58.2454
 21
77.9847
 31
0.0
  0
LINE
  8
0
 62
     0
 10
58.2454
 20
77.9847
 30
0.0
 11
57.4449
 21
77.9847
 31
0.0
  0
LINE
  8
0
 62
     0
 10
57.4449
 20
77.9847
 30
0.0
 11
57.4449
 21
77.8852
 31
0.0
  0
LINE
  8
0
 62
     0
 10
57.4449
 20
77.8852
 30
0.0
 11
58.2454
 21
77.8852
 31
0.0
  0
LINE
  8
0
 62
     0
 10
58.2454
 20
77.8852
 30
0.0
 11
58.2454
 21
69.0852
 31
0.0
  0
LINE
  8
0
 62
     0
 10
58.2454
 20
69.0852
 30
0.0
 11
57.4449
 21
69.0852
 31
0.0
  0
LINE
  8
0
 62
     0
 10
57.4449
 20
69.0852
 30
0.0
 11
57.4449
 21
68.9846
 31
0.0
  0
LINE
  8
0
 62
     0
 10
57.4449
 20
68.9846
 30
0.0
 11
58.2454
 21
68.9846
 31
0.0
  0
LINE
  8
0
 62
     0
 10
58.2454
 20
68.9846
 30
0.0
 11
58.2454
 21
67.9856
 31
0.0
  0
LINE
  8
0
 62
     0
 10
58.2454
 20
67.9856
 30
0.0
 11
69.245
 21
67.9856
 31
0.0
  0
LINE
  8
0
 62
     0
 10
69.245
 20
67.9856
 30
0.0
 11
69.245
 21
68.9846
 31
0.0
  0
LINE
  8
0
 62
     0
 10
69.245
 20
68.9846
 30
0.0
 11
70.0458
 21
68.9846
 31
0.0
  0
LINE
  8
0
 62
     0
 10
70.0458
 20
68.9846
 30
0.0
 11
70.0458
 21
69.0852
 31
0.0
  0
LINE
  8
0
 62
     0
 10
70.0458
 20
69.0852
 30
0.0
 11
69.245
 21
69.0852
 31
0.0
  0
LINE
  8
0
 62
     0
 10
69.245
 20
69.0852
 30
0.0
 11
69.245
 21
77.8852
 31
0.0
  0
LINE
  8
0
 62
     0
 10
69.245
 20
77.8852
 30
0.0
 11
70.0458
 21
77.8852
 31
0.0
  0
LINE
  8
0
 62
     0
 10
70.0458
 20
77.8852
 30
0.0
 11
70.0458
 21
77.9847
 31
0.0
  0
LINE
  8
0
 62
     0
 10
70.0458
 20
77.9847
 30
0.0
 11
69.245
 21
77.9847
 31
0.0
  0
LINE
  8
0
 62
     0
 10
69.245
 20
77.9847
 30
0.0
 11
69.245
 21
78.9852
 31
0.0
  0
LINE
  8
0
 62
     0
 10
69.245
 20
78.9852
 30
0.0
 11
58.2454
 21
78.9852
 31
0.0
  0
LINE
  8
0
 62
     0
 10
77.2954
 20
78.9852
 30
0.0
 11
77.2954
 21
77.9847
 31
0.0
  0
LINE
  8
0
 62
     0
 10
77.2954
 20
77.9847
 30
0.0
 11
76.4949
 21
77.9847
 31
0.0
  0
LINE
  8
0
 62
     0
 10
76.4949
 20
77.9847
 30
0.0
 11
76.4949
 21
77.8852
 31
0.0
  0
LINE
  8
0
 62
     0
 10
76.4949
 20
77.8852
 30
0.0
 11
77.2954
 21
77.8852
 31
0.0
  0
LINE
  8
0
 62
     0
 10
77.2954
 20
77.8852
 30
0.0
 11
77.2954
 21
69.0852
 31
0.0
  0
LINE
  8
0
 62
     0
 10
77.2954
 20
69.0852
 30
0.0
 11
76.4949
 21
69.0852
 31
0.0
  0
LINE
  8
0
 62
     0
 10
76.4949
 20
69.0852
 30
0.0
 11
76.4949
 21
68.9846
 31
0.0
  0
LINE
  8
0
 62
     0
 10
76.4949
 20
68.9846
 30
0.0
 11
77.2954
 21
68.9846
 31
0.0
  0
LINE
  8
0
 62
     0
 10
77.2954
 20
68.9846
 30
0.0
 11
77.2954
 21
67.9856
 31
0.0
  0
LINE
  8
0
 62
     0
 10
77.2954
 20
67.9856
 30
0.0
 11
88.295
 21
67.9856
 31
0.0
  0
LINE
  8
0
 62
     0
 10
88.295
 20
67.9856
 30
0.0
 11
88.295
 21
68.9846
 31
0.0
  0
LINE
  8
0
 62
     0
 10
88.295
 20
68.9846
 30
0.0
 11
89.0958
 21
68.9846
 31
0.0
  0
LINE
  8
0
 62
     0
 10
89.0958
 20
68.9846
 30
0.0
 11
89.0958
 21
69.0852
 31
0.0
  0
LINE
  8
0
 62
     0
 10
89.0958
 20
69.0852
 30
0.0
 11
88.295
 21
69.0852
 31
0.0
  0
LINE
  8
0
 62
     0
 10
88.295
 20
69.0852
 30
0.0
 11
88.295
 21
77.8852
 31
0.0
  0
LINE
  8
0
 62
     0
 10
88.295
 20
77.8852
 30
0.0
 11
89.0958
 21
77.8852
 31
0.0
  0
LINE
  8
0
 62
     0
 10
89.0958
 20
77.8852
 30
0.0
 11
89.0958
 21
77.9847
 31
0.0
  0
LINE
  8
0
 62
     0
 10
89.0958
 20
77.9847
 30
0.0
 11
88.295
 21
77.9847
 31
0.0
  0
LINE
  8
0
 62
     0
 10
88.295
 20
77.9847
 30
0.0
 11
88.295
 21
78.9852
 31
0.0
  0
LINE
  8
0
 62
     0
 10
88.295
 20
78.9852
 30
0.0
 11
77.2954
 21
78.9852
 31
0.0
  0
LINE
  8
0
 62
     0
 10
96.3454
 20
78.9852
 30
0.0
 11
96.3454
 21
77.9847
 31
0.0
  0
LINE
  8
0
 62
     0
 10
96.3454
 20
77.9847
 30
0.0
 11
95.5449
 21
77.9847
 31
0.0
  0
LINE
  8
0
 62
     0
 10
95.5449
 20
77.9847
 30
0.0
 11
95.5449
 21
77.8852
 31
0.0
  0
LINE
  8
0
 62
     0
 10
95.5449
 20
77.8852
 30
0.0
 11
96.3454
 21
77.8852
 31
0.0
  0
LINE
  8
0
 62
     0
 10
96.3454
 20
77.8852
 30
0.0
 11
96.3454
 21
69.0852
 31
0.0
  0
LINE
  8
0
 62
     0
 10
96.3454
 20
69.0852
 30
0.0
 11
95.5449
 21
69.0852
 31
0.0
  0
LINE
  8
0
 62
     0
 10
95.5449
 20
69.0852
 30
0.0
 11
95.5449
 21
68.9846
 31
0.0
  0
LINE
  8
0
 62
     0
 10
95.5449
 20
68.9846
 30
0.0
 11
96.3454
 21
68.9846
 31
0.0
  0
LINE
  8
0
 62
     0
 10
96.3454
 20
68.9846
 30
0.0
 11
96.3454
 21
67.9856
 31
0.0
  0
LINE
  8
0
 62
     0
 10
96.3454
 20
67.9856
 30
0.0
 11
107.345
 21
67.9856
 31
0.0
  0
LINE
  8
0
 62
     0
 10
107.345
 20
67.9856
 30
0.0
 11
107.345
 21
68.9846
 31
0.0
  0
LINE
  8
0
 62
     0
 10
107.345
 20
68.9846
 30
0.0
 11
108.146
 21
68.9846
 31
0.0
  0
LINE
  8
0
 62
     0
 10
108.146
 20
68.9846
 30
0.0
 11
108.146
 21
69.0852
 31
0.0
  0
LINE
  8
0
 62
     0
 10
108.146
 20
69.0852
 30
0.0
 11
107.345
 21
69.0852
 31
0.0
  0
LINE
  8
0
 62
     0
 10
107.345
 20
69.0852
 30
0.0
 11
107.345
 21
77.8852
 31
0.0
  0
LINE
  8
0
 62
     0
 10
107.345
 20
77.8852
 30
0.0
 11
108.146
 21
77.8852
 31
0.0
  0
LINE
  8
0
 62
     0
 10
108.146
 20
77.8852
 30
0.0
 11
108.146
 21
77.9847
 31
0.0
  0
LINE
  8
0
 62
     0
 10
108.146
 20
77.9847
 30
0.0
 11
107.345
 21
77.9847
 31
0.0
  0
LINE
  8
0
 62
     0
 10
107.345
 20
77.9847
 30
0.0
 11
107.345
 21
78.9852
 31
0.0
  0
LINE
  8
0
 62
     0
 10
107.345
 20
78.9852
 30
0.0
 11
96.3454
 21
78.9852
 31
0.0
  0
LINE
  8
0
 62
     0
 10
115.395
 20
78.9852
 30
0.0
 11
115.395
 21
77.9847
 31
0.0
  0
LINE
  8
0
 62
     0
 10
115.395
 20
77.9847
 30
0.0
 11
114.595
 21
77.9847
 31
0.0
  0
LINE
  8
0
 62
     0
 10
114.595
 20
77.9847
 30
0.0
 11
114.595
 21
77.8852
 31
0.0
  0
LINE
  8
0
 62
     0
 10
114.595
 20
77.8852
 30
0.0
 11
115.395
 21
77.8852
 31
0.0
  0
LINE
  8
0
 62
     0
 10
115.395
 20
77.8852
 30
0.0
 11
115.395
 21
69.0852
 31
0.0
  0
LINE
  8
0
 62
     0
 10
115.395
 20
69.0852
 30
0.0
 11
114.595
 21
69.0852
 31
0.0
  0
LINE
  8
0
 62
     0
 10
114.595
 20
69.0852
 30
0.0
 11
114.595
 21
68.9846
 31
0.0
  0
LINE
  8
0
 62
     0
 10
114.595
 20
68.9846
 30
0.0
 11
115.395
 21
68.9846
 31
0.0
  0
LINE
  8
0
 62
     0
 10
115.395
 20
68.9846
 30
0.0
 11
115.395
 21
67.9856
 31
0.0
  0
LINE
  8
0
 62
     0
 10
115.395
 20
67.9856
 30
0.0
 11
126.395
 21
67.9856
 31
0.0
  0
LINE
  8
0
 62
     0
 10
126.395
 20
67.9856
 30
0.0
 11
126.395
 21
68.9846
 31
0.0
  0
LINE
  8
0
 62
     0
 10
126.395
 20
68.9846
 30
0.0
 11
127.196
 21
68.9846
 31
0.0
  0
LINE
  8
0
 62
     0
 10
127.196
 20
68.9846
 30
0.0
 11
127.196
 21
69.0852
 31
0.0
  0
LINE
  8
0
 62
     0
 10
127.196
 20
69.0852
 30
0.0
 11
126.395
 21
69.0852
 31
0.0
  0
LINE
  8
0
 62
     0
 10
126.395
 20
69.0852
 30
0.0
 11
126.395
 21
77.8852
 31
0.0
  0
LINE
  8
0
 62
     0
 10
126.395
 20
77.8852
 30
0.0
 11
127.196
 21
77.8852
 31
0.0
  0
LINE
  8
0
 62
     0
 10
127.196
 20
77.8852
 30
0.0
 11
127.196
 21
77.9847
 31
0.0
  0
LINE
  8
0
 62
     0
 10
127.196
 20
77.9847
 30
0.0
 11
126.395
 21
77.9847
 31
0.0
  0
LINE
  8
0
 62
     0
 10
126.395
 20
77.9847
 30
0.0
 11
126.395
 21
78.9852
 31
0.0
  0
LINE
  8
0
 62
     0
 10
126.395
 20
78.9852
 30
0.0
 11
115.395
 21
78.9852
 31
0.0
  0
LINE
  8
0
 62
     0
 10
134.445
 20
78.9852
 30
0.0
 11
134.445
 21
77.9847
 31
0.0
  0
LINE
  8
0
 62
     0
 10
134.445
 20
77.9847
 30
0.0
 11
133.645
 21
77.9847
 31
0.0
  0
LINE
  8
0
 62
     0
 10
133.645
 20
77.9847
 30
0.0
 11
133.645
 21
77.8852
 31
0.0
  0
LINE
  8
0
 62
     0
 10
133.645
 20
77.8852
 30
0.0
 11
134.445
 21
77.8852
 31
0.0
  0
LINE
  8
0
 62
     0
 10
134.445
 20
77.8852
 30
0.0
 11
134.445
 21
69.0852
 31
0.0
  0
LINE
  8
0
 62
     0
 10
134.445
 20
69.0852
 30
0.0
 11
133.645
 21
69.0852
 31
0.0
  0
LINE
  8
0
 62
     0
 10
133.645
 20
69.0852
 30
0.0
 11
133.645
 21
68.9846
 31
0.0
  0
LINE
  8
0
 62
     0
 10
133.645
 20
68.9846
 30
0.0
 11
134.445
 21
68.9846
 31
0.0
  0
LINE
  8
0
 62
     0
 10
134.445
 20
68.9846
 30
0.0
 11
134.445
 21
67.9856
 31
0.0
  0
LINE
  8
0
 62
     0
 10
134.445
 20
67.9856
 30
0.0
 11
145.445
 21
67.9856
 31
0.0
  0
LINE
  8
0
 62
     0
 10
145.445
 20
67.9856
 30
0.0
 11
145.445
 21
68.9846
 31
0.0
  0
LINE
  8
0
 62
     0
 10
145.445
 20
68.9846
 30
0.0
 11
146.246
 21
68.9846
 31
0.0
  0
LINE
  8
0
 62
     0
 10
146.246
 20
68.9846
 30
0.0
 11
146.246
 21
69.0852
 31
0.0
  0
LINE
  8
0
 62
     0
 10
146.246
 20
69.0852
 30
0.0
 11
145.445
 21
69.0852
 31
0.0
  0
LINE
  8
0
 62
     0
 10
145.445
 20
69.0852
 30
0.0
 11
145.445
 21
77.8852
 31
0.0
  0
LINE
  8
0
 62
     0
 10
145.445
 20
77.8852
 30
0.0
 11
146.246
 21
77.8852
 31
0.0
  0
LINE
  8
0
 62
     0
 10
146.246
 20
77.8852
 30
0.0
 11
146.246
 21
77.9847
 31
0.0
  0
LINE
  8
0
 62
     0
 10
146.246
 20
77.9847
 30
0.0
 11
145.445
 21
77.9847
 31
0.0
  0
LINE
  8
0
 62
     0
 10
145.445
 20
77.9847
 30
0.0
 11
145.445
 21
78.9852
 31
0.0
  0
LINE
  8
0
 62
     0
 10
145.445
 20
78.9852
 30
0.0
 11
134.445
 21
78.9852
 31
0.0
  0
LINE
  8
0
 62
     0
 10
153.495
 20
78.9852
 30
0.0
 11
153.495
 21
77.9847
 31
0.0
  0
LINE
  8
0
 62
     0
 10
153.495
 20
77.9847
 30
0.0
 11
152.695
 21
77.9847
 31
0.0
  0
LINE
  8
0
 62
     0
 10
152.695
 20
77.9847
 30
0.0
 11
152.695
 21
77.8852
 31
0.0
  0
LINE
  8
0
 62
     0
 10
152.695
 20
77.8852
 30
0.0
 11
153.495
 21
77.8852
 31
0.0
  0
LINE
  8
0
 62
     0
 10
153.495
 20
77.8852
 30
0.0
 11
153.495
 21
69.0852
 31
0.0
  0
LINE
  8
0
 62
     0
 10
153.495
 20
69.0852
 30
0.0
 11
152.695
 21
69.0852
 31
0.0
  0
LINE
  8
0
 62
     0
 10
152.695
 20
69.0852
 30
0.0
 11
152.695
 21
68.9846
 31
0.0
  0
LINE
  8
0
 62
     0
 10
152.695
 20
68.9846
 30
0.0
 11
153.495
 21
68.9846
 31
0.0
  0
LINE
  8
0
 62
     0
 10
153.495
 20
68.9846
 30
0.0
 11
153.495
 21
67.9856
 31
0.0
  0
LINE
  8
0
 62
     0
 10
153.495
 20
67.9856
 30
0.0
 11
164.495
 21
67.9856
 31
0.0
  0
LINE
  8
0
 62
     0
 10
164.495
 20
67.9856
 30
0.0
 11
164.495
 21
68.9846
 31
0.0
  0
LINE
  8
0
 62
     0
 10
164.495
 20
68.9846
 30
0.0
 11
165.296
 21
68.9846
 31
0.0
  0
LINE
  8
0
 62
     0
 10
165.296
 20
68.9846
 30
0.0
 11
165.296
 21
69.0852
 31
0.0
  0
LINE
  8
0
 62
     0
 10
165.296
 20
69.0852
 30
0.0
 11
164.495
 21
69.0852
 31
0.0
  0
LINE
  8
0
 62
     0
 10
164.495
 20
69.0852
 30
0.0
 11
164.495
 21
77.8852
 31
0.0
  0
LINE
  8
0
 62
     0
 10
164.495
 20
77.8852
 30
0.0
 11
165.296
 21
77.8852
 31
0.0
  0
LINE
  8
0
 62
     0
 10
165.296
 20
77.8852
 30
0.0
 11
165.296
 21
77.9847
 31
0.0
  0
LINE
  8
0
 62
     0
 10
165.296
 20
77.9847
 30
0.0
 11
164.495
 21
77.9847
 31
0.0
  0
LINE
  8
0
 62
     0
 10
164.495
 20
77.9847
 30
0.0
 11
164.495
 21
78.9852
 31
0.0
  0
LINE
  8
0
 62
     0
 10
164.495
 20
78.9852
 30
0.0
 11
153.495
 21
78.9852
 31
0.0
  0
LINE
  8
0
 62
     0
 10
172.545
 20
78.9852
 30
0.0
 11
172.545
 21
77.9847
 31
0.0
  0
LINE
  8
0
 62
     0
 10
172.545
 20
77.9847
 30
0.0
 11
171.745
 21
77.9847
 31
0.0
  0
LINE
  8
0
 62
     0
 10
171.745
 20
77.9847
 30
0.0
 11
171.745
 21
77.8852
 31
0.0
  0
LINE
  8
0
 62
     0
 10
171.745
 20
77.8852
 30
0.0
 11
172.545
 21
77.8852
 31
0.0
  0
LINE
  8
0
 62
     0
 10
172.545
 20
77.8852
 30
0.0
 11
172.545
 21
69.0852
 31
0.0
  0
LINE
  8
0
 62
     0
 10
172.545
 20
69.0852
 30
0.0
 11
171.745
 21
69.0852
 31
0.0
  0
LINE
  8
0
 62
     0
 10
171.745
 20
69.0852
 30
0.0
 11
171.745
 21
68.9846
 31
0.0
  0
LINE
  8
0
 62
     0
 10
171.745
 20
68.9846
 30
0.0
 11
172.545
 21
68.9846
 31
0.0
  0
LINE
  8
0
 62
     0
 10
172.545
 20
68.9846
 30
0.0
 11
172.545
 21
67.9856
 31
0.0
  0
LINE
  8
0
 62
     0
 10
172.545
 20
67.9856
 30
0.0
 11
183.545
 21
67.9856
 31
0.0
  0
LINE
  8
0
 62
     0
 10
183.545
 20
67.9856
 30
0.0
 11
183.545
 21
68.9846
 31
0.0
  0
LINE
  8
0
 62
     0
 10
183.545
 20
68.9846
 30
0.0
 11
184.346
 21
68.9846
 31
0.0
  0
LINE
  8
0
 62
     0
 10
184.346
 20
68.9846
 30
0.0
 11
184.346
 21
69.0852
 31
0.0
  0
LINE
  8
0
 62
     0
 10
184.346
 20
69.0852
 30
0.0
 11
183.545
 21
69.0852
 31
0.0
  0
LINE
  8
0
 62
     0
 10
183.545
 20
69.0852
 30
0.0
 11
183.545
 21
77.8852
 31
0.0
  0
LINE
  8
0
 62
     0
 10
183.545
 20
77.8852
 30
0.0
 11
184.346
 21
77.8852
 31
0.0
  0
LINE
  8
0
 62
     0
 10
184.346
 20
77.8852
 30
0.0
 11
184.346
 21
77.9847
 31
0.0
  0
LINE
  8
0
 62
     0
 10
184.346
 20
77.9847
 30
0.0
 11
183.545
 21
77.9847
 31
0.0
  0
LINE
  8
0
 62
     0
 10
183.545
 20
77.9847
 30
0.0
 11
183.545
 21
78.9852
 31
0.0
  0
LINE
  8
0
 62
     0
 10
183.545
 20
78.9852
 30
0.0
 11
172.545
 21
78.9852
 31
0.0
  0
LINE
  8
0
 62
     0
 10
191.595
 20
78.9852
 30
0.0
 11
191.595
 21
77.9847
 31
0.0
  0
LINE
  8
0
 62
     0
 10
191.595
 20
77.9847
 30
0.0
 11
190.795
 21
77.9847
 31
0.0
  0
LINE
  8
0
 62
     0
 10
190.795
 20
77.9847
 30
0.0
 11
190.795
 21
77.8852
 31
0.0
  0
LINE
  8
0
 62
     0
 10
190.795
 20
77.8852
 30
0.0
 11
191.595
 21
77.8852
 31
0.0
  0
LINE
  8
0
 62
     0
 10
191.595
 20
77.8852
 30
0.0
 11
191.595
 21
69.0852
 31
0.0
  0
LINE
  8
0
 62
     0
 10
191.595
 20
69.0852
 30
0.0
 11
190.795
 21
69.0852
 31
0.0
  0
LINE
  8
0
 62
     0
 10
190.795
 20
69.0852
 30
0.0
 11
190.795
 21
68.9846
 31
0.0
  0
LINE
  8
0
 62
     0
 10
190.795
 20
68.9846
 30
0.0
 11
191.595
 21
68.9846
 31
0.0
  0
LINE
  8
0
 62
     0
 10
191.595
 20
68.9846
 30
0.0
 11
191.595
 21
67.9856
 31
0.0
  0
LINE
  8
0
 62
     0
 10
191.595
 20
67.9856
 30
0.0
 11
202.595
 21
67.9856
 31
0.0
  0
LINE
  8
0
 62
     0
 10
202.595
 20
67.9856
 30
0.0
 11
202.595
 21
68.9846
 31
0.0
  0
LINE
  8
0
 62
     0
 10
202.595
 20
68.9846
 30
0.0
 11
203.396
 21
68.9846
 31
0.0
  0
LINE
  8
0
 62
     0
 10
203.396
 20
68.9846
 30
0.0
 11
203.396
 21
69.0852
 31
0.0
  0
LINE
  8
0
 62
     0
 10
203.396
 20
69.0852
 30
0.0
 11
202.595
 21
69.0852
 31
0.0
  0
LINE
  8
0
 62
     0
 10
202.595
 20
69.0852
 30
0.0
 11
202.595
 21
77.8852
 31
0.0
  0
LINE
  8
0
 62
     0
 10
202.595
 20
77.8852
 30
0.0
 11
203.396
 21
77.8852
 31
0.0
  0
LINE
  8
0
 62
     0
 10
203.396
 20
77.8852
 30
0.0
 11
203.396
 21
77.9847
 31
0.0
  0
LINE
  8
0
 62
     0
 10
203.396
 20
77.9847
 30
0.0
 11
202.595
 21
77.9847
 31
0.0
  0
LINE
  8
0
 62
     0
 10
202.595
 20
77.9847
 30
0.0
 11
202.595
 21
78.9852
 31
0.0
  0
LINE
  8
0
 62
     0
 10
202.595
 20
78.9852
 30
0.0
 11
191.595
 21
78.9852
 31
0.0
  0
LINE
  8
0
 62
     0
 10
210.645
 20
78.9852
 30
0.0
 11
210.645
 21
77.9847
 31
0.0
  0
LINE
  8
0
 62
     0
 10
210.645
 20
77.9847
 30
0.0
 11
209.845
 21
77.9847
 31
0.0
  0
LINE
  8
0
 62
     0
 10
209.845
 20
77.9847
 30
0.0
 11
209.845
 21
77.8852
 31
0.0
  0
LINE
  8
0
 62
     0
 10
209.845
 20
77.8852
 30
0.0
 11
210.645
 21
77.8852
 31
0.0
  0
LINE
  8
0
 62
     0
 10
210.645
 20
77.8852
 30
0.0
 11
210.645
 21
69.0852
 31
0.0
  0
LINE
  8
0
 62
     0
 10
210.645
 20
69.0852
 30
0.0
 11
209.845
 21
69.0852
 31
0.0
  0
LINE
  8
0
 62
     0
 10
209.845
 20
69.0852
 30
0.0
 11
209.845
 21
68.9846
 31
0.0
  0
LINE
  8
0
 62
     0
 10
209.845
 20
68.9846
 30
0.0
 11
210.645
 21
68.9846
 31
0.0
  0
LINE
  8
0
 62
     0
 10
210.645
 20
68.9846
 30
0.0
 11
210.645
 21
67.9856
 31
0.0
  0
LINE
  8
0
 62
     0
 10
210.645
 20
67.9856
 30
0.0
 11
221.645
 21
67.9856
 31
0.0
  0
LINE
  8
0
 62
     0
 10
221.645
 20
67.9856
 30
0.0
 11
221.645
 21
68.9846
 31
0.0
  0
LINE
  8
0
 62
     0
 10
221.645
 20
68.9846
 30
0.0
 11
222.446
 21
68.9846
 31
0.0
  0
LINE
  8
0
 62
     0
 10
222.446
 20
68.9846
 30
0.0
 11
222.446
 21
69.0852
 31
0.0
  0
LINE
  8
0
 62
     0
 10
222.446
 20
69.0852
 30
0.0
 11
221.645
 21
69.0852
 31
0.0
  0
LINE
  8
0
 62
     0
 10
221.645
 20
69.0852
 30
0.0
 11
221.645
 21
77.8852
 31
0.0
  0
LINE
  8
0
 62
     0
 10
221.645
 20
77.8852
 30
0.0
 11
222.446
 21
77.8852
 31
0.0
  0
LINE
  8
0
 62
     0
 10
222.446
 20
77.8852
 30
0.0
 11
222.446
 21
77.9847
 31
0.0
  0
LINE
  8
0
 62
     0
 10
222.446
 20
77.9847
 30
0.0
 11
221.645
 21
77.9847
 31
0.0
  0
LINE
  8
0
 62
     0
 10
221.645
 20
77.9847
 30
0.0
 11
221.645
 21
78.9852
 31
0.0
  0
LINE
  8
0
 62
     0
 10
221.645
 20
78.9852
 30
0.0
 11
210.645
 21
78.9852
 31
0.0
  0
LINE
  8
0
 62
     0
 10
229.695
 20
78.9852
 30
0.0
 11
229.695
 21
77.9847
 31
0.0
  0
LINE
  8
0
 62
     0
 10
229.695
 20
77.9847
 30
0.0
 11
228.895
 21
77.9847
 31
0.0
  0
LINE
  8
0
 62
     0
 10
228.895
 20
77.9847
 30
0.0
 11
228.895
 21
77.8852
 31
0.0
  0
LINE
  8
0
 62
     0
 10
228.895
 20
77.8852
 30
0.0
 11
229.695
 21
77.8852
 31
0.0
  0
LINE
  8
0
 62
     0
 10
229.695
 20
77.8852
 30
0.0
 11
229.695
 21
69.0852
 31
0.0
  0
LINE
  8
0
 62
     0
 10
229.695
 20
69.0852
 30
0.0
 11
228.895
 21
69.0852
 31
0.0
  0
LINE
  8
0
 62
     0
 10
228.895
 20
69.0852
 30
0.0
 11
228.895
 21
68.9846
 31
0.0
  0
LINE
  8
0
 62
     0
 10
228.895
 20
68.9846
 30
0.0
 11
229.695
 21
68.9846
 31
0.0
  0
LINE
  8
0
 62
     0
 10
229.695
 20
68.9846
 30
0.0
 11
229.695
 21
67.9856
 31
0.0
  0
LINE
  8
0
 62
     0
 10
229.695
 20
67.9856
 30
0.0
 11
240.695
 21
67.9856
 31
0.0
  0
LINE
  8
0
 62
     0
 10
240.695
 20
67.9856
 30
0.0
 11
240.695
 21
68.9846
 31
0.0
  0
LINE
  8
0
 62
     0
 10
240.695
 20
68.9846
 30
0.0
 11
241.496
 21
68.9846
 31
0.0
  0
LINE
  8
0
 62
     0
 10
241.496
 20
68.9846
 30
0.0
 11
241.496
 21
69.0852
 31
0.0
  0
LINE
  8
0
 62
     0
 10
241.496
 20
69.0852
 30
0.0
 11
240.695
 21
69.0852
 31
0.0
  0
LINE
  8
0
 62
     0
 10
240.695
 20
69.0852
 30
0.0
 11
240.695
 21
77.8852
 31
0.0
  0
LINE
  8
0
 62
     0
 10
240.695
 20
77.8852
 30
0.0
 11
241.496
 21
77.8852
 31
0.0
  0
LINE
  8
0
 62
     0
 10
241.496
 20
77.8852
 30
0.0
 11
241.496
 21
77.9847
 31
0.0
  0
LINE
  8
0
 62
     0
 10
241.496
 20
77.9847
 30
0.0
 11
240.695
 21
77.9847
 31
0.0
  0
LINE
  8
0
 62
     0
 10
240.695
 20
77.9847
 30
0.0
 11
240.695
 21
78.9852
 31
0.0
  0
LINE
  8
0
 62
     0
 10
240.695
 20
78.9852
 30
0.0
 11
229.695
 21
78.9852
 31
0.0
  0
LINE
  8
0
 62
     0
 10
248.745
 20
78.9852
 30
0.0
 11
248.745
 21
77.9847
 31
0.0
  0
LINE
  8
0
 62
     0
 10
248.745
 20
77.9847
 30
0.0
 11
247.945
 21
77.9847
 31
0.0
  0
LINE
  8
0
 62
     0
 10
247.945
 20
77.9847
 30
0.0
 11
247.945
 21
77.8852
 31
0.0
  0
LINE
  8
0
 62
     0
 10
247.945
 20
77.8852
 30
0.0
 11
248.745
 21
77.8852
 31
0.0
  0
LINE
  8
0
 62
     0
 10
248.745
 20
77.8852
 30
0.0
 11
248.745
 21
69.0852
 31
0.0
  0
LINE
  8
0
 62
     0
 10
248.745
 20
69.0852
 30
0.0
 11
247.945
 21
69.0852
 31
0.0
  0
LINE
  8
0
 62
     0
 10
247.945
 20
69.0852
 30
0.0
 11
247.945
 21
68.9846
 31
0.0
  0
LINE
  8
0
 62
     0
 10
247.945
 20
68.9846
 30
0.0
 11
248.745
 21
68.9846
 31
0.0
  0
LINE
  8
0
 62
     0
 10
248.745
 20
68.9846
 30
0.0
 11
248.745
 21
67.9856
 31
0.0
  0
LINE
  8
0
 62
     0
 10
248.745
 20
67.9856
 30
0.0
 11
259.745
 21
67.9856
 31
0.0
  0
LINE
  8
0
 62
     0
 10
259.745
 20
67.9856
 30
0.0
 11
259.745
 21
68.9846
 31
0.0
  0
LINE
  8
0
 62
     0
 10
259.745
 20
68.9846
 30
0.0
 11
260.546
 21
68.9846
 31
0.0
  0
LINE
  8
0
 62
     0
 10
260.546
 20
68.9846
 30
0.0
 11
260.546
 21
69.0852
 31
0.0
  0
LINE
  8
0
 62
     0
 10
260.546
 20
69.0852
 30
0.0
 11
259.745
 21
69.0852
 31
0.0
  0
LINE
  8
0
 62
     0
 10
259.745
 20
69.0852
 30
0.0
 11
259.745
 21
77.8852
 31
0.0
  0
LINE
  8
0
 62
     0
 10
259.745
 20
77.8852
 30
0.0
 11
260.546
 21
77.8852
 31
0.0
  0
LINE
  8
0
 62
     0
 10
260.546
 20
77.8852
 30
0.0
 11
260.546
 21
77.9847
 31
0.0
  0
LINE
  8
0
 62
     0
 10
260.546
 20
77.9847
 30
0.0
 11
259.745
 21
77.9847
 31
0.0
  0
LINE
  8
0
 62
     0
 10
259.745
 20
77.9847
 30
0.0
 11
259.745
 21
78.9852
 31
0.0
  0
LINE
  8
0
 62
     0
 10
259.745
 20
78.9852
 30
0.0
 11
248.745
 21
78.9852
 31
0.0
  0
LINE
  8
0
 62
     0
 10
272.558
 20
78.9852
 30
0.0
 11
272.558
 21
77.9847
 31
0.0
  0
LINE
  8
0
 62
     0
 10
272.558
 20
77.9847
 30
0.0
 11
271.757
 21
77.9847
 31
0.0
  0
LINE
  8
0
 62
     0
 10
271.757
 20
77.9847
 30
0.0
 11
271.757
 21
77.8852
 31
0.0
  0
LINE
  8
0
 62
     0
 10
271.757
 20
77.8852
 30
0.0
 11
272.558
 21
77.8852
 31
0.0
  0
LINE
  8
0
 62
     0
 10
272.558
 20
77.8852
 30
0.0
 11
272.558
 21
69.0852
 31
0.0
  0
LINE
  8
0
 62
     0
 10
272.558
 20
69.0852
 30
0.0
 11
271.757
 21
69.0852
 31
0.0
  0
LINE
  8
0
 62
     0
 10
271.757
 20
69.0852
 30
0.0
 11
271.757
 21
68.9846
 31
0.0
  0
LINE
  8
0
 62
     0
 10
271.757
 20
68.9846
 30
0.0
 11
272.558
 21
68.9846
 31
0.0
  0
LINE
  8
0
 62
     0
 10
272.558
 20
68.9846
 30
0.0
 11
272.558
 21
67.9856
 31
0.0
  0
LINE
  8
0
 62
     0
 10
272.558
 20
67.9856
 30
0.0
 11
283.557
 21
67.9856
 31
0.0
  0
LINE
  8
0
 62
     0
 10
283.557
 20
67.9856
 30
0.0
 11
283.557
 21
68.9846
 31
0.0
  0
LINE
  8
0
 62
     0
 10
283.557
 20
68.9846
 30
0.0
 11
284.357
 21
68.9846
 31
0.0
  0
LINE
  8
0
 62
     0
 10
284.357
 20
68.9846
 30
0.0
 11
284.357
 21
69.0852
 31
0.0
  0
LINE
  8
0
 62
     0
 10
284.357
 20
69.0852
 30
0.0
 11
283.557
 21
69.0852
 31
0.0
  0
LINE
  8
0
 62
     0
 10
283.557
 20
69.0852
 30
0.0
 11
283.557
 21
77.8852
 31
0.0
  0
LINE
  8
0
 62
     0
 10
283.557
 20
77.8852
 30
0.0
 11
284.357
 21
77.8852
 31
0.0
  0
LINE
  8
0
 62
     0
 10
284.357
 20
77.8852
 30
0.0
 11
284.357
 21
77.9847
 31
0.0
  0
LINE
  8
0
 62
     0
 10
284.357
 20
77.9847
 30
0.0
 11
283.557
 21
77.9847
 31
0.0
  0
LINE
  8
0
 62
     0
 10
283.557
 20
77.9847
 30
0.0
 11
283.557
 21
78.9852
 31
0.0
  0
LINE
  8
0
 62
     0
 10
283.557
 20
78.9852
 30
0.0
 11
272.558
 21
78.9852
 31
0.0
  0
LINE
  8
0
 62
     0
 10
305.895
 20
78.9852
 30
0.0
 11
305.895
 21
77.9847
 31
0.0
  0
LINE
  8
0
 62
     0
 10
305.895
 20
77.9847
 30
0.0
 11
305.095
 21
77.9847
 31
0.0
  0
LINE
  8
0
 62
     0
 10
305.095
 20
77.9847
 30
0.0
 11
305.095
 21
77.8852
 31
0.0
  0
LINE
  8
0
 62
     0
 10
305.095
 20
77.8852
 30
0.0
 11
305.895
 21
77.8852
 31
0.0
  0
LINE
  8
0
 62
     0
 10
305.895
 20
77.8852
 30
0.0
 11
305.895
 21
69.0852
 31
0.0
  0
LINE
  8
0
 62
     0
 10
305.895
 20
69.0852
 30
0.0
 11
305.095
 21
69.0852
 31
0.0
  0
LINE
  8
0
 62
     0
 10
305.095
 20
69.0852
 30
0.0
 11
305.095
 21
68.9846
 31
0.0
  0
LINE
  8
0
 62
     0
 10
305.095
 20
68.9846
 30
0.0
 11
305.895
 21
68.9846
 31
0.0
  0
LINE
  8
0
 62
     0
 10
305.895
 20
68.9846
 30
0.0
 11
305.895
 21
67.9856
 31
0.0
  0
LINE
  8
0
 62
     0
 10
305.895
 20
67.9856
 30
0.0
 11
316.895
 21
67.9856
 31
0.0
  0
LINE
  8
0
 62
     0
 10
316.895
 20
67.9856
 30
0.0
 11
316.895
 21
68.9846
 31
0.0
  0
LINE
  8
0
 62
     0
 10
316.895
 20
68.9846
 30
0.0
 11
317.696
 21
68.9846
 31
0.0
  0
LINE
  8
0
 62
     0
 10
317.696
 20
68.9846
 30
0.0
 11
317.696
 21
69.0852
 31
0.0
  0
LINE
  8
0
 62
     0
 10
317.696
 20
69.0852
 30
0.0
 11
316.895
 21
69.0852
 31
0.0
  0
LINE
  8
0
 62
     0
 10
316.895
 20
69.0852
 30
0.0
 11
316.895
 21
77.8852
 31
0.0
  0
LINE
  8
0
 62
     0
 10
316.895
 20
77.8852
 30
0.0
 11
317.696
 21
77.8852
 31
0.0
  0
LINE
  8
0
 62
     0
 10
317.696
 20
77.8852
 30
0.0
 11
317.696
 21
77.9847
 31
0.0
  0
LINE
  8
0
 62
     0
 10
317.696
 20
77.9847
 30
0.0
 11
316.895
 21
77.9847
 31
0.0
  0
LINE
  8
0
 62
     0
 10
316.895
 20
77.9847
 30
0.0
 11
316.895
 21
78.9852
 31
0.0
  0
LINE
  8
0
 62
     0
 10
316.895
 20
78.9852
 30
0.0
 11
305.895
 21
78.9852
 31
0.0
  0
LINE
  8
0
 62
     0
 10
267.795
 20
98.0362
 30
0.0
 11
267.795
 21
97.0347
 31
0.0
  0
LINE
  8
0
 62
     0
 10
267.795
 20
97.0347
 30
0.0
 11
266.995
 21
97.0347
 31
0.0
  0
LINE
  8
0
 62
     0
 10
266.995
 20
97.0347
 30
0.0
 11
266.995
 21
96.9352
 31
0.0
  0
LINE
  8
0
 62
     0
 10
266.995
 20
96.9352
 30
0.0
 11
267.795
 21
96.9352
 31
0.0
  0
LINE
  8
0
 62
     0
 10
267.795
 20
96.9352
 30
0.0
 11
267.795
 21
93.3358
 31
0.0
  0
LINE
  8
0
 62
     0
 10
267.795
 20
93.3358
 30
0.0
 11
263.27
 21
93.3358
 31
0.0
  0
LINE
  8
0
 62
     0
 10
263.27
 20
93.3358
 30
0.0
 11
263.27
 21
96.5659
 31
0.0
  0
LINE
  8
0
 62
     0
 10
263.27
 20
96.5659
 30
0.0
 11
261.546
 21
96.5659
 31
0.0
  0
LINE
  8
0
 62
     0
 10
261.546
 20
96.5659
 30
0.0
 11
261.546
 21
97.4852
 31
0.0
  0
LINE
  8
0
 62
     0
 10
261.546
 20
97.4852
 30
0.0
 11
261.246
 21
97.4852
 31
0.0
  0
LINE
  8
0
 62
     0
 10
261.246
 20
97.4852
 30
0.0
 11
261.246
 21
96.5659
 31
0.0
  0
LINE
  8
0
 62
     0
 10
261.246
 20
96.5659
 30
0.0
 11
259.52
 21
96.5659
 31
0.0
  0
LINE
  8
0
 62
     0
 10
259.52
 20
96.5659
 30
0.0
 11
259.52
 21
93.5359
 31
0.0
  0
LINE
  8
0
 62
     0
 10
259.52
 20
93.5359
 30
0.0
 11
258.695
 21
93.5359
 31
0.0
  0
LINE
  8
0
 62
     0
 10
258.695
 20
93.5359
 30
0.0
 11
258.695
 21
93.3358
 31
0.0
  0
LINE
  8
0
 62
     0
 10
258.695
 20
93.3358
 30
0.0
 11
259.52
 21
93.3358
 31
0.0
  0
LINE
  8
0
 62
     0
 10
259.52
 20
93.3358
 30
0.0
 11
259.52
 21
87.2656
 31
0.0
  0
LINE
  8
0
 62
     0
 10
259.52
 20
87.2656
 30
0.0
 11
261.246
 21
87.2656
 31
0.0
  0
LINE
  8
0
 62
     0
 10
261.246
 20
87.2656
 30
0.0
 11
261.246
 21
86.2845
 31
0.0
  0
LINE
  8
0
 62
     0
 10
261.246
 20
86.2845
 30
0.0
 11
261.546
 21
86.2845
 31
0.0
  0
LINE
  8
0
 62
     0
 10
261.546
 20
86.2845
 30
0.0
 11
261.546
 21
87.2656
 31
0.0
  0
LINE
  8
0
 62
     0
 10
261.546
 20
87.2656
 30
0.0
 11
263.27
 21
87.2656
 31
0.0
  0
LINE
  8
0
 62
     0
 10
263.27
 20
87.2656
 30
0.0
 11
263.27
 21
91.7346
 31
0.0
  0
LINE
  8
0
 62
     0
 10
263.27
 20
91.7346
 30
0.0
 11
267.795
 21
91.7346
 31
0.0
  0
LINE
  8
0
 62
     0
 10
267.795
 20
91.7346
 30
0.0
 11
267.795
 21
88.1366
 31
0.0
  0
LINE
  8
0
 62
     0
 10
267.795
 20
88.1366
 30
0.0
 11
266.995
 21
88.1366
 31
0.0
  0
LINE
  8
0
 62
     0
 10
266.995
 20
88.1366
 30
0.0
 11
266.995
 21
88.0346
 31
0.0
  0
LINE
  8
0
 62
     0
 10
266.995
 20
88.0346
 30
0.0
 11
267.795
 21
88.0346
 31
0.0
  0
LINE
  8
0
 62
     0
 10
267.795
 20
88.0346
 30
0.0
 11
267.795
 21
87.0356
 31
0.0
  0
LINE
  8
0
 62
     0
 10
267.795
 20
87.0356
 30
0.0
 11
278.795
 21
87.0356
 31
0.0
  0
LINE
  8
0
 62
     0
 10
278.795
 20
87.0356
 30
0.0
 11
278.795
 21
88.0346
 31
0.0
  0
LINE
  8
0
 62
     0
 10
278.795
 20
88.0346
 30
0.0
 11
279.596
 21
88.0346
 31
0.0
  0
LINE
  8
0
 62
     0
 10
279.596
 20
88.0346
 30
0.0
 11
279.596
 21
88.1366
 31
0.0
  0
LINE
  8
0
 62
     0
 10
279.596
 20
88.1366
 30
0.0
 11
278.795
 21
88.1366
 31
0.0
  0
LINE
  8
0
 62
     0
 10
278.795
 20
88.1366
 30
0.0
 11
278.795
 21
91.7346
 31
0.0
  0
LINE
  8
0
 62
     0
 10
278.795
 20
91.7346
 30
0.0
 11
283.32
 21
91.7346
 31
0.0
  0
LINE
  8
0
 62
     0
 10
283.32
 20
91.7346
 30
0.0
 11
283.32
 21
87.2656
 31
0.0
  0
LINE
  8
0
 62
     0
 10
283.32
 20
87.2656
 30
0.0
 11
285.046
 21
87.2656
 31
0.0
  0
LINE
  8
0
 62
     0
 10
285.046
 20
87.2656
 30
0.0
 11
285.046
 21
86.2845
 31
0.0
  0
LINE
  8
0
 62
     0
 10
285.046
 20
86.2845
 30
0.0
 11
285.345
 21
86.2845
 31
0.0
  0
LINE
  8
0
 62
     0
 10
285.345
 20
86.2845
 30
0.0
 11
285.345
 21
87.2656
 31
0.0
  0
LINE
  8
0
 62
     0
 10
285.345
 20
87.2656
 30
0.0
 11
287.07
 21
87.2656
 31
0.0
  0
LINE
  8
0
 62
     0
 10
287.07
 20
87.2656
 30
0.0
 11
287.07
 21
93.3358
 31
0.0
  0
LINE
  8
0
 62
     0
 10
287.07
 20
93.3358
 30
0.0
 11
287.896
 21
93.3358
 31
0.0
  0
LINE
  8
0
 62
     0
 10
287.896
 20
93.3358
 30
0.0
 11
287.896
 21
93.5359
 31
0.0
  0
LINE
  8
0
 62
     0
 10
287.896
 20
93.5359
 30
0.0
 11
287.07
 21
93.5359
 31
0.0
  0
LINE
  8
0
 62
     0
 10
287.07
 20
93.5359
 30
0.0
 11
287.07
 21
96.5659
 31
0.0
  0
LINE
  8
0
 62
     0
 10
287.07
 20
96.5659
 30
0.0
 11
285.345
 21
96.5659
 31
0.0
  0
LINE
  8
0
 62
     0
 10
285.345
 20
96.5659
 30
0.0
 11
285.345
 21
97.4852
 31
0.0
  0
LINE
  8
0
 62
     0
 10
285.345
 20
97.4852
 30
0.0
 11
285.046
 21
97.4852
 31
0.0
  0
LINE
  8
0
 62
     0
 10
285.046
 20
97.4852
 30
0.0
 11
285.046
 21
96.5659
 31
0.0
  0
LINE
  8
0
 62
     0
 10
285.046
 20
96.5659
 30
0.0
 11
283.32
 21
96.5659
 31
0.0
  0
LINE
  8
0
 62
     0
 10
283.32
 20
96.5659
 30
0.0
 11
283.32
 21
93.3358
 31
0.0
  0
LINE
  8
0
 62
     0
 10
283.32
 20
93.3358
 30
0.0
 11
278.795
 21
93.3358
 31
0.0
  0
LINE
  8
0
 62
     0
 10
278.795
 20
93.3358
 30
0.0
 11
278.795
 21
96.9352
 31
0.0
  0
LINE
  8
0
 62
     0
 10
278.795
 20
96.9352
 30
0.0
 11
279.596
 21
96.9352
 31
0.0
  0
LINE
  8
0
 62
     0
 10
279.596
 20
96.9352
 30
0.0
 11
279.596
 21
97.0347
 31
0.0
  0
LINE
  8
0
 62
     0
 10
279.596
 20
97.0347
 30
0.0
 11
278.795
 21
97.0347
 31
0.0
  0
LINE
  8
0
 62
     0
 10
278.795
 20
97.0347
 30
0.0
 11
278.795
 21
98.0362
 31
0.0
  0
LINE
  8
0
 62
     0
 10
278.795
 20
98.0362
 30
0.0
 11
267.795
 21
98.0362
 31
0.0
  0
LINE
  8
0
 62
     0
 10
10.6192
 20
98.0362
 30
0.0
 11
10.6192
 21
97.0347
 31
0.0
  0
LINE
  8
0
 62
     0
 10
10.6192
 20
97.0347
 30
0.0
 11
9.81989
 21
97.0347
 31
0.0
  0
LINE
  8
0
 62
     0
 10
9.81989
 20
97.0347
 30
0.0
 11
9.81989
 21
96.9352
 31
0.0
  0
LINE
  8
0
 62
     0
 10
9.81989
 20
96.9352
 30
0.0
 11
10.6192
 21
96.9352
 31
0.0
  0
LINE
  8
0
 62
     0
 10
10.6192
 20
96.9352
 30
0.0
 11
10.6192
 21
88.1366
 31
0.0
  0
LINE
  8
0
 62
     0
 10
10.6192
 20
88.1366
 30
0.0
 11
9.81989
 21
88.1366
 31
0.0
  0
LINE
  8
0
 62
     0
 10
9.81989
 20
88.1366
 30
0.0
 11
9.81989
 21
88.0346
 31
0.0
  0
LINE
  8
0
 62
     0
 10
9.81989
 20
88.0346
 30
0.0
 11
10.6192
 21
88.0346
 31
0.0
  0
LINE
  8
0
 62
     0
 10
10.6192
 20
88.0346
 30
0.0
 11
10.6192
 21
87.0356
 31
0.0
  0
LINE
  8
0
 62
     0
 10
10.6192
 20
87.0356
 30
0.0
 11
21.6201
 21
87.0356
 31
0.0
  0
LINE
  8
0
 62
     0
 10
21.6201
 20
87.0356
 30
0.0
 11
21.6201
 21
88.0346
 31
0.0
  0
LINE
  8
0
 62
     0
 10
21.6201
 20
88.0346
 30
0.0
 11
22.4207
 21
88.0346
 31
0.0
  0
LINE
  8
0
 62
     0
 10
22.4207
 20
88.0346
 30
0.0
 11
22.4207
 21
88.1366
 31
0.0
  0
LINE
  8
0
 62
     0
 10
22.4207
 20
88.1366
 30
0.0
 11
21.6201
 21
88.1366
 31
0.0
  0
LINE
  8
0
 62
     0
 10
21.6201
 20
88.1366
 30
0.0
 11
21.6201
 21
96.9352
 31
0.0
  0
LINE
  8
0
 62
     0
 10
21.6201
 20
96.9352
 30
0.0
 11
22.4207
 21
96.9352
 31
0.0
  0
LINE
  8
0
 62
     0
 10
22.4207
 20
96.9352
 30
0.0
 11
22.4207
 21
97.0347
 31
0.0
  0
LINE
  8
0
 62
     0
 10
22.4207
 20
97.0347
 30
0.0
 11
21.6201
 21
97.0347
 31
0.0
  0
LINE
  8
0
 62
     0
 10
21.6201
 20
97.0347
 30
0.0
 11
21.6201
 21
98.0362
 31
0.0
  0
LINE
  8
0
 62
     0
 10
21.6201
 20
98.0362
 30
0.0
 11
10.6192
 21
98.0362
 31
0.0
  0
LINE
  8
0
 62
     0
 10
29.6706
 20
98.0362
 30
0.0
 11
29.6706
 21
97.0347
 31
0.0
  0
LINE
  8
0
 62
     0
 10
29.6706
 20
97.0347
 30
0.0
 11
28.8699
 21
97.0347
 31
0.0
  0
LINE
  8
0
 62
     0
 10
28.8699
 20
97.0347
 30
0.0
 11
28.8699
 21
96.9352
 31
0.0
  0
LINE
  8
0
 62
     0
 10
28.8699
 20
96.9352
 30
0.0
 11
29.6706
 21
96.9352
 31
0.0
  0
LINE
  8
0
 62
     0
 10
29.6706
 20
96.9352
 30
0.0
 11
29.6706
 21
88.1366
 31
0.0
  0
LINE
  8
0
 62
     0
 10
29.6706
 20
88.1366
 30
0.0
 11
28.8699
 21
88.1366
 31
0.0
  0
LINE
  8
0
 62
     0
 10
28.8699
 20
88.1366
 30
0.0
 11
28.8699
 21
88.0346
 31
0.0
  0
LINE
  8
0
 62
     0
 10
28.8699
 20
88.0346
 30
0.0
 11
29.6706
 21
88.0346
 31
0.0
  0
LINE
  8
0
 62
     0
 10
29.6706
 20
88.0346
 30
0.0
 11
29.6706
 21
87.0356
 31
0.0
  0
LINE
  8
0
 62
     0
 10
29.6706
 20
87.0356
 30
0.0
 11
40.67
 21
87.0356
 31
0.0
  0
LINE
  8
0
 62
     0
 10
40.67
 20
87.0356
 30
0.0
 11
40.67
 21
88.0346
 31
0.0
  0
LINE
  8
0
 62
     0
 10
40.67
 20
88.0346
 30
0.0
 11
41.4708
 21
88.0346
 31
0.0
  0
LINE
  8
0
 62
     0
 10
41.4708
 20
88.0346
 30
0.0
 11
41.4708
 21
88.1366
 31
0.0
  0
LINE
  8
0
 62
     0
 10
41.4708
 20
88.1366
 30
0.0
 11
40.67
 21
88.1366
 31
0.0
  0
LINE
  8
0
 62
     0
 10
40.67
 20
88.1366
 30
0.0
 11
40.67
 21
96.9352
 31
0.0
  0
LINE
  8
0
 62
     0
 10
40.67
 20
96.9352
 30
0.0
 11
41.4708
 21
96.9352
 31
0.0
  0
LINE
  8
0
 62
     0
 10
41.4708
 20
96.9352
 30
0.0
 11
41.4708
 21
97.0347
 31
0.0
  0
LINE
  8
0
 62
     0
 10
41.4708
 20
97.0347
 30
0.0
 11
40.67
 21
97.0347
 31
0.0
  0
LINE
  8
0
 62
     0
 10
40.67
 20
97.0347
 30
0.0
 11
40.67
 21
98.0362
 31
0.0
  0
LINE
  8
0
 62
     0
 10
40.67
 20
98.0362
 30
0.0
 11
29.6706
 21
98.0362
 31
0.0
  0
LINE
  8
0
 62
     0
 10
48.7204
 20
98.0362
 30
0.0
 11
48.7204
 21
97.0347
 31
0.0
  0
LINE
  8
0
 62
     0
 10
48.7204
 20
97.0347
 30
0.0
 11
47.9199
 21
97.0347
 31
0.0
  0
LINE
  8
0
 62
     0
 10
47.9199
 20
97.0347
 30
0.0
 11
47.9199
 21
96.9352
 31
0.0
  0
LINE
  8
0
 62
     0
 10
47.9199
 20
96.9352
 30
0.0
 11
48.7204
 21
96.9352
 31
0.0
  0
LINE
  8
0
 62
     0
 10
48.7204
 20
96.9352
 30
0.0
 11
48.7204
 21
88.1366
 31
0.0
  0
LINE
  8
0
 62
     0
 10
48.7204
 20
88.1366
 30
0.0
 11
47.9199
 21
88.1366
 31
0.0
  0
LINE
  8
0
 62
     0
 10
47.9199
 20
88.1366
 30
0.0
 11
47.9199
 21
88.0346
 31
0.0
  0
LINE
  8
0
 62
     0
 10
47.9199
 20
88.0346
 30
0.0
 11
48.7204
 21
88.0346
 31
0.0
  0
LINE
  8
0
 62
     0
 10
48.7204
 20
88.0346
 30
0.0
 11
48.7204
 21
87.0356
 31
0.0
  0
LINE
  8
0
 62
     0
 10
48.7204
 20
87.0356
 30
0.0
 11
59.72
 21
87.0356
 31
0.0
  0
LINE
  8
0
 62
     0
 10
59.72
 20
87.0356
 30
0.0
 11
59.72
 21
88.0346
 31
0.0
  0
LINE
  8
0
 62
     0
 10
59.72
 20
88.0346
 30
0.0
 11
60.5208
 21
88.0346
 31
0.0
  0
LINE
  8
0
 62
     0
 10
60.5208
 20
88.0346
 30
0.0
 11
60.5208
 21
88.1366
 31
0.0
  0
LINE
  8
0
 62
     0
 10
60.5208
 20
88.1366
 30
0.0
 11
59.72
 21
88.1366
 31
0.0
  0
LINE
  8
0
 62
     0
 10
59.72
 20
88.1366
 30
0.0
 11
59.72
 21
96.9352
 31
0.0
  0
LINE
  8
0
 62
     0
 10
59.72
 20
96.9352
 30
0.0
 11
60.5208
 21
96.9352
 31
0.0
  0
LINE
  8
0
 62
     0
 10
60.5208
 20
96.9352
 30
0.0
 11
60.5208
 21
97.0347
 31
0.0
  0
LINE
  8
0
 62
     0
 10
60.5208
 20
97.0347
 30
0.0
 11
59.72
 21
97.0347
 31
0.0
  0
LINE
  8
0
 62
     0
 10
59.72
 20
97.0347
 30
0.0
 11
59.72
 21
98.0362
 31
0.0
  0
LINE
  8
0
 62
     0
 10
59.72
 20
98.0362
 30
0.0
 11
48.7204
 21
98.0362
 31
0.0
  0
LINE
  8
0
 62
     0
 10
67.7704
 20
98.0362
 30
0.0
 11
67.7704
 21
97.0347
 31
0.0
  0
LINE
  8
0
 62
     0
 10
67.7704
 20
97.0347
 30
0.0
 11
66.9699
 21
97.0347
 31
0.0
  0
LINE
  8
0
 62
     0
 10
66.9699
 20
97.0347
 30
0.0
 11
66.9699
 21
96.9352
 31
0.0
  0
LINE
  8
0
 62
     0
 10
66.9699
 20
96.9352
 30
0.0
 11
67.7704
 21
96.9352
 31
0.0
  0
LINE
  8
0
 62
     0
 10
67.7704
 20
96.9352
 30
0.0
 11
67.7704
 21
88.1366
 31
0.0
  0
LINE
  8
0
 62
     0
 10
67.7704
 20
88.1366
 30
0.0
 11
66.9699
 21
88.1366
 31
0.0
  0
LINE
  8
0
 62
     0
 10
66.9699
 20
88.1366
 30
0.0
 11
66.9699
 21
88.0346
 31
0.0
  0
LINE
  8
0
 62
     0
 10
66.9699
 20
88.0346
 30
0.0
 11
67.7704
 21
88.0346
 31
0.0
  0
LINE
  8
0
 62
     0
 10
67.7704
 20
88.0346
 30
0.0
 11
67.7704
 21
87.0356
 31
0.0
  0
LINE
  8
0
 62
     0
 10
67.7704
 20
87.0356
 30
0.0
 11
78.77
 21
87.0356
 31
0.0
  0
LINE
  8
0
 62
     0
 10
78.77
 20
87.0356
 30
0.0
 11
78.77
 21
88.0346
 31
0.0
  0
LINE
  8
0
 62
     0
 10
78.77
 20
88.0346
 30
0.0
 11
79.5708
 21
88.0346
 31
0.0
  0
LINE
  8
0
 62
     0
 10
79.5708
 20
88.0346
 30
0.0
 11
79.5708
 21
88.1366
 31
0.0
  0
LINE
  8
0
 62
     0
 10
79.5708
 20
88.1366
 30
0.0
 11
78.77
 21
88.1366
 31
0.0
  0
LINE
  8
0
 62
     0
 10
78.77
 20
88.1366
 30
0.0
 11
78.77
 21
96.9352
 31
0.0
  0
LINE
  8
0
 62
     0
 10
78.77
 20
96.9352
 30
0.0
 11
79.5708
 21
96.9352
 31
0.0
  0
LINE
  8
0
 62
     0
 10
79.5708
 20
96.9352
 30
0.0
 11
79.5708
 21
97.0347
 31
0.0
  0
LINE
  8
0
 62
     0
 10
79.5708
 20
97.0347
 30
0.0
 11
78.77
 21
97.0347
 31
0.0
  0
LINE
  8
0
 62
     0
 10
78.77
 20
97.0347
 30
0.0
 11
78.77
 21
98.0362
 31
0.0
  0
LINE
  8
0
 62
     0
 10
78.77
 20
98.0362
 30
0.0
 11
67.7704
 21
98.0362
 31
0.0
  0
LINE
  8
0
 62
     0
 10
86.8204
 20
98.0362
 30
0.0
 11
86.8204
 21
97.0347
 31
0.0
  0
LINE
  8
0
 62
     0
 10
86.8204
 20
97.0347
 30
0.0
 11
86.0199
 21
97.0347
 31
0.0
  0
LINE
  8
0
 62
     0
 10
86.0199
 20
97.0347
 30
0.0
 11
86.0199
 21
96.9352
 31
0.0
  0
LINE
  8
0
 62
     0
 10
86.0199
 20
96.9352
 30
0.0
 11
86.8204
 21
96.9352
 31
0.0
  0
LINE
  8
0
 62
     0
 10
86.8204
 20
96.9352
 30
0.0
 11
86.8204
 21
88.1366
 31
0.0
  0
LINE
  8
0
 62
     0
 10
86.8204
 20
88.1366
 30
0.0
 11
86.0199
 21
88.1366
 31
0.0
  0
LINE
  8
0
 62
     0
 10
86.0199
 20
88.1366
 30
0.0
 11
86.0199
 21
88.0346
 31
0.0
  0
LINE
  8
0
 62
     0
 10
86.0199
 20
88.0346
 30
0.0
 11
86.8204
 21
88.0346
 31
0.0
  0
LINE
  8
0
 62
     0
 10
86.8204
 20
88.0346
 30
0.0
 11
86.8204
 21
87.0356
 31
0.0
  0
LINE
  8
0
 62
     0
 10
86.8204
 20
87.0356
 30
0.0
 11
97.82
 21
87.0356
 31
0.0
  0
LINE
  8
0
 62
     0
 10
97.82
 20
87.0356
 30
0.0
 11
97.82
 21
88.0346
 31
0.0
  0
LINE
  8
0
 62
     0
 10
97.82
 20
88.0346
 30
0.0
 11
98.6194
 21
88.0346
 31
0.0
  0
LINE
  8
0
 62
     0
 10
98.6194
 20
88.0346
 30
0.0
 11
98.6194
 21
88.1366
 31
0.0
  0
LINE
  8
0
 62
     0
 10
98.6194
 20
88.1366
 30
0.0
 11
97.82
 21
88.1366
 31
0.0
  0
LINE
  8
0
 62
     0
 10
97.82
 20
88.1366
 30
0.0
 11
97.82
 21
96.9352
 31
0.0
  0
LINE
  8
0
 62
     0
 10
97.82
 20
96.9352
 30
0.0
 11
98.6194
 21
96.9352
 31
0.0
  0
LINE
  8
0
 62
     0
 10
98.6194
 20
96.9352
 30
0.0
 11
98.6194
 21
97.0347
 31
0.0
  0
LINE
  8
0
 62
     0
 10
98.6194
 20
97.0347
 30
0.0
 11
97.82
 21
97.0347
 31
0.0
  0
LINE
  8
0
 62
     0
 10
97.82
 20
97.0347
 30
0.0
 11
97.82
 21
98.0362
 31
0.0
  0
LINE
  8
0
 62
     0
 10
97.82
 20
98.0362
 30
0.0
 11
86.8204
 21
98.0362
 31
0.0
  0
LINE
  8
0
 62
     0
 10
105.869
 20
98.0362
 30
0.0
 11
105.869
 21
97.0347
 31
0.0
  0
LINE
  8
0
 62
     0
 10
105.869
 20
97.0347
 30
0.0
 11
105.07
 21
97.0347
 31
0.0
  0
LINE
  8
0
 62
     0
 10
105.07
 20
97.0347
 30
0.0
 11
105.07
 21
96.9352
 31
0.0
  0
LINE
  8
0
 62
     0
 10
105.07
 20
96.9352
 30
0.0
 11
105.869
 21
96.9352
 31
0.0
  0
LINE
  8
0
 62
     0
 10
105.869
 20
96.9352
 30
0.0
 11
105.869
 21
88.1366
 31
0.0
  0
LINE
  8
0
 62
     0
 10
105.869
 20
88.1366
 30
0.0
 11
105.07
 21
88.1366
 31
0.0
  0
LINE
  8
0
 62
     0
 10
105.07
 20
88.1366
 30
0.0
 11
105.07
 21
88.0346
 31
0.0
  0
LINE
  8
0
 62
     0
 10
105.07
 20
88.0346
 30
0.0
 11
105.869
 21
88.0346
 31
0.0
  0
LINE
  8
0
 62
     0
 10
105.869
 20
88.0346
 30
0.0
 11
105.869
 21
87.0356
 31
0.0
  0
LINE
  8
0
 62
     0
 10
105.869
 20
87.0356
 30
0.0
 11
116.87
 21
87.0356
 31
0.0
  0
LINE
  8
0
 62
     0
 10
116.87
 20
87.0356
 30
0.0
 11
116.87
 21
88.0346
 31
0.0
  0
LINE
  8
0
 62
     0
 10
116.87
 20
88.0346
 30
0.0
 11
117.669
 21
88.0346
 31
0.0
  0
LINE
  8
0
 62
     0
 10
117.669
 20
88.0346
 30
0.0
 11
117.669
 21
88.1366
 31
0.0
  0
LINE
  8
0
 62
     0
 10
117.669
 20
88.1366
 30
0.0
 11
116.87
 21
88.1366
 31
0.0
  0
LINE
  8
0
 62
     0
 10
116.87
 20
88.1366
 30
0.0
 11
116.87
 21
96.9352
 31
0.0
  0
LINE
  8
0
 62
     0
 10
116.87
 20
96.9352
 30
0.0
 11
117.669
 21
96.9352
 31
0.0
  0
LINE
  8
0
 62
     0
 10
117.669
 20
96.9352
 30
0.0
 11
117.669
 21
97.0347
 31
0.0
  0
LINE
  8
0
 62
     0
 10
117.669
 20
97.0347
 30
0.0
 11
116.87
 21
97.0347
 31
0.0
  0
LINE
  8
0
 62
     0
 10
116.87
 20
97.0347
 30
0.0
 11
116.87
 21
98.0362
 31
0.0
  0
LINE
  8
0
 62
     0
 10
116.87
 20
98.0362
 30
0.0
 11
105.869
 21
98.0362
 31
0.0
  0
LINE
  8
0
 62
     0
 10
124.919
 20
98.0362
 30
0.0
 11
124.919
 21
97.0347
 31
0.0
  0
LINE
  8
0
 62
     0
 10
124.919
 20
97.0347
 30
0.0
 11
124.12
 21
97.0347
 31
0.0
  0
LINE
  8
0
 62
     0
 10
124.12
 20
97.0347
 30
0.0
 11
124.12
 21
96.9352
 31
0.0
  0
LINE
  8
0
 62
     0
 10
124.12
 20
96.9352
 30
0.0
 11
124.919
 21
96.9352
 31
0.0
  0
LINE
  8
0
 62
     0
 10
124.919
 20
96.9352
 30
0.0
 11
124.919
 21
88.1366
 31
0.0
  0
LINE
  8
0
 62
     0
 10
124.919
 20
88.1366
 30
0.0
 11
124.12
 21
88.1366
 31
0.0
  0
LINE
  8
0
 62
     0
 10
124.12
 20
88.1366
 30
0.0
 11
124.12
 21
88.0346
 31
0.0
  0
LINE
  8
0
 62
     0
 10
124.12
 20
88.0346
 30
0.0
 11
124.919
 21
88.0346
 31
0.0
  0
LINE
  8
0
 62
     0
 10
124.919
 20
88.0346
 30
0.0
 11
124.919
 21
87.0356
 31
0.0
  0
LINE
  8
0
 62
     0
 10
124.919
 20
87.0356
 30
0.0
 11
135.92
 21
87.0356
 31
0.0
  0
LINE
  8
0
 62
     0
 10
135.92
 20
87.0356
 30
0.0
 11
135.92
 21
88.0346
 31
0.0
  0
LINE
  8
0
 62
     0
 10
135.92
 20
88.0346
 30
0.0
 11
136.721
 21
88.0346
 31
0.0
  0
LINE
  8
0
 62
     0
 10
136.721
 20
88.0346
 30
0.0
 11
136.721
 21
88.1366
 31
0.0
  0
LINE
  8
0
 62
     0
 10
136.721
 20
88.1366
 30
0.0
 11
135.92
 21
88.1366
 31
0.0
  0
LINE
  8
0
 62
     0
 10
135.92
 20
88.1366
 30
0.0
 11
135.92
 21
96.9352
 31
0.0
  0
LINE
  8
0
 62
     0
 10
135.92
 20
96.9352
 30
0.0
 11
136.721
 21
96.9352
 31
0.0
  0
LINE
  8
0
 62
     0
 10
136.721
 20
96.9352
 30
0.0
 11
136.721
 21
97.0347
 31
0.0
  0
LINE
  8
0
 62
     0
 10
136.721
 20
97.0347
 30
0.0
 11
135.92
 21
97.0347
 31
0.0
  0
LINE
  8
0
 62
     0
 10
135.92
 20
97.0347
 30
0.0
 11
135.92
 21
98.0362
 31
0.0
  0
LINE
  8
0
 62
     0
 10
135.92
 20
98.0362
 30
0.0
 11
124.919
 21
98.0362
 31
0.0
  0
LINE
  8
0
 62
     0
 10
143.97
 20
98.0362
 30
0.0
 11
143.97
 21
97.0347
 31
0.0
  0
LINE
  8
0
 62
     0
 10
143.97
 20
97.0347
 30
0.0
 11
143.17
 21
97.0347
 31
0.0
  0
LINE
  8
0
 62
     0
 10
143.17
 20
97.0347
 30
0.0
 11
143.17
 21
96.9352
 31
0.0
  0
LINE
  8
0
 62
     0
 10
143.17
 20
96.9352
 30
0.0
 11
143.97
 21
96.9352
 31
0.0
  0
LINE
  8
0
 62
     0
 10
143.97
 20
96.9352
 30
0.0
 11
143.97
 21
88.1366
 31
0.0
  0
LINE
  8
0
 62
     0
 10
143.97
 20
88.1366
 30
0.0
 11
143.17
 21
88.1366
 31
0.0
  0
LINE
  8
0
 62
     0
 10
143.17
 20
88.1366
 30
0.0
 11
143.17
 21
88.0346
 31
0.0
  0
LINE
  8
0
 62
     0
 10
143.17
 20
88.0346
 30
0.0
 11
143.97
 21
88.0346
 31
0.0
  0
LINE
  8
0
 62
     0
 10
143.97
 20
88.0346
 30
0.0
 11
143.97
 21
87.0356
 31
0.0
  0
LINE
  8
0
 62
     0
 10
143.97
 20
87.0356
 30
0.0
 11
154.97
 21
87.0356
 31
0.0
  0
LINE
  8
0
 62
     0
 10
154.97
 20
87.0356
 30
0.0
 11
154.97
 21
88.0346
 31
0.0
  0
LINE
  8
0
 62
     0
 10
154.97
 20
88.0346
 30
0.0
 11
155.771
 21
88.0346
 31
0.0
  0
LINE
  8
0
 62
     0
 10
155.771
 20
88.0346
 30
0.0
 11
155.771
 21
88.1366
 31
0.0
  0
LINE
  8
0
 62
     0
 10
155.771
 20
88.1366
 30
0.0
 11
154.97
 21
88.1366
 31
0.0
  0
LINE
  8
0
 62
     0
 10
154.97
 20
88.1366
 30
0.0
 11
154.97
 21
96.9352
 31
0.0
  0
LINE
  8
0
 62
     0
 10
154.97
 20
96.9352
 30
0.0
 11
155.771
 21
96.9352
 31
0.0
  0
LINE
  8
0
 62
     0
 10
155.771
 20
96.9352
 30
0.0
 11
155.771
 21
97.0347
 31
0.0
  0
LINE
  8
0
 62
     0
 10
155.771
 20
97.0347
 30
0.0
 11
154.97
 21
97.0347
 31
0.0
  0
LINE
  8
0
 62
     0
 10
154.97
 20
97.0347
 30
0.0
 11
154.97
 21
98.0362
 31
0.0
  0
LINE
  8
0
 62
     0
 10
154.97
 20
98.0362
 30
0.0
 11
143.97
 21
98.0362
 31
0.0
  0
LINE
  8
0
 62
     0
 10
163.02
 20
98.0362
 30
0.0
 11
163.02
 21
97.0347
 31
0.0
  0
LINE
  8
0
 62
     0
 10
163.02
 20
97.0347
 30
0.0
 11
162.22
 21
97.0347
 31
0.0
  0
LINE
  8
0
 62
     0
 10
162.22
 20
97.0347
 30
0.0
 11
162.22
 21
96.9352
 31
0.0
  0
LINE
  8
0
 62
     0
 10
162.22
 20
96.9352
 30
0.0
 11
163.02
 21
96.9352
 31
0.0
  0
LINE
  8
0
 62
     0
 10
163.02
 20
96.9352
 30
0.0
 11
163.02
 21
88.1366
 31
0.0
  0
LINE
  8
0
 62
     0
 10
163.02
 20
88.1366
 30
0.0
 11
162.22
 21
88.1366
 31
0.0
  0
LINE
  8
0
 62
     0
 10
162.22
 20
88.1366
 30
0.0
 11
162.22
 21
88.0346
 31
0.0
  0
LINE
  8
0
 62
     0
 10
162.22
 20
88.0346
 30
0.0
 11
163.02
 21
88.0346
 31
0.0
  0
LINE
  8
0
 62
     0
 10
163.02
 20
88.0346
 30
0.0
 11
163.02
 21
87.0356
 31
0.0
  0
LINE
  8
0
 62
     0
 10
163.02
 20
87.0356
 30
0.0
 11
174.02
 21
87.0356
 31
0.0
  0
LINE
  8
0
 62
     0
 10
174.02
 20
87.0356
 30
0.0
 11
174.02
 21
88.0346
 31
0.0
  0
LINE
  8
0
 62
     0
 10
174.02
 20
88.0346
 30
0.0
 11
174.821
 21
88.0346
 31
0.0
  0
LINE
  8
0
 62
     0
 10
174.821
 20
88.0346
 30
0.0
 11
174.821
 21
88.1366
 31
0.0
  0
LINE
  8
0
 62
     0
 10
174.821
 20
88.1366
 30
0.0
 11
174.02
 21
88.1366
 31
0.0
  0
LINE
  8
0
 62
     0
 10
174.02
 20
88.1366
 30
0.0
 11
174.02
 21
96.9352
 31
0.0
  0
LINE
  8
0
 62
     0
 10
174.02
 20
96.9352
 30
0.0
 11
174.821
 21
96.9352
 31
0.0
  0
LINE
  8
0
 62
     0
 10
174.821
 20
96.9352
 30
0.0
 11
174.821
 21
97.0347
 31
0.0
  0
LINE
  8
0
 62
     0
 10
174.821
 20
97.0347
 30
0.0
 11
174.02
 21
97.0347
 31
0.0
  0
LINE
  8
0
 62
     0
 10
174.02
 20
97.0347
 30
0.0
 11
174.02
 21
98.0362
 31
0.0
  0
LINE
  8
0
 62
     0
 10
174.02
 20
98.0362
 30
0.0
 11
163.02
 21
98.0362
 31
0.0
  0
LINE
  8
0
 62
     0
 10
182.07
 20
98.0362
 30
0.0
 11
182.07
 21
97.0347
 31
0.0
  0
LINE
  8
0
 62
     0
 10
182.07
 20
97.0347
 30
0.0
 11
181.27
 21
97.0347
 31
0.0
  0
LINE
  8
0
 62
     0
 10
181.27
 20
97.0347
 30
0.0
 11
181.27
 21
96.9352
 31
0.0
  0
LINE
  8
0
 62
     0
 10
181.27
 20
96.9352
 30
0.0
 11
182.07
 21
96.9352
 31
0.0
  0
LINE
  8
0
 62
     0
 10
182.07
 20
96.9352
 30
0.0
 11
182.07
 21
88.1366
 31
0.0
  0
LINE
  8
0
 62
     0
 10
182.07
 20
88.1366
 30
0.0
 11
181.27
 21
88.1366
 31
0.0
  0
LINE
  8
0
 62
     0
 10
181.27
 20
88.1366
 30
0.0
 11
181.27
 21
88.0346
 31
0.0
  0
LINE
  8
0
 62
     0
 10
181.27
 20
88.0346
 30
0.0
 11
182.07
 21
88.0346
 31
0.0
  0
LINE
  8
0
 62
     0
 10
182.07
 20
88.0346
 30
0.0
 11
182.07
 21
87.0356
 31
0.0
  0
LINE
  8
0
 62
     0
 10
182.07
 20
87.0356
 30
0.0
 11
193.07
 21
87.0356
 31
0.0
  0
LINE
  8
0
 62
     0
 10
193.07
 20
87.0356
 30
0.0
 11
193.07
 21
88.0346
 31
0.0
  0
LINE
  8
0
 62
     0
 10
193.07
 20
88.0346
 30
0.0
 11
193.871
 21
88.0346
 31
0.0
  0
LINE
  8
0
 62
     0
 10
193.871
 20
88.0346
 30
0.0
 11
193.871
 21
88.1366
 31
0.0
  0
LINE
  8
0
 62
     0
 10
193.871
 20
88.1366
 30
0.0
 11
193.07
 21
88.1366
 31
0.0
  0
LINE
  8
0
 62
     0
 10
193.07
 20
88.1366
 30
0.0
 11
193.07
 21
96.9352
 31
0.0
  0
LINE
  8
0
 62
     0
 10
193.07
 20
96.9352
 30
0.0
 11
193.871
 21
96.9352
 31
0.0
  0
LINE
  8
0
 62
     0
 10
193.871
 20
96.9352
 30
0.0
 11
193.871
 21
97.0347
 31
0.0
  0
LINE
  8
0
 62
     0
 10
193.871
 20
97.0347
 30
0.0
 11
193.07
 21
97.0347
 31
0.0
  0
LINE
  8
0
 62
     0
 10
193.07
 20
97.0347
 30
0.0
 11
193.07
 21
98.0362
 31
0.0
  0
LINE
  8
0
 62
     0
 10
193.07
 20
98.0362
 30
0.0
 11
182.07
 21
98.0362
 31
0.0
  0
LINE
  8
0
 62
     0
 10
201.12
 20
98.0362
 30
0.0
 11
201.12
 21
97.0347
 31
0.0
  0
LINE
  8
0
 62
     0
 10
201.12
 20
97.0347
 30
0.0
 11
200.32
 21
97.0347
 31
0.0
  0
LINE
  8
0
 62
     0
 10
200.32
 20
97.0347
 30
0.0
 11
200.32
 21
96.9352
 31
0.0
  0
LINE
  8
0
 62
     0
 10
200.32
 20
96.9352
 30
0.0
 11
201.12
 21
96.9352
 31
0.0
  0
LINE
  8
0
 62
     0
 10
201.12
 20
96.9352
 30
0.0
 11
201.12
 21
88.1366
 31
0.0
  0
LINE
  8
0
 62
     0
 10
201.12
 20
88.1366
 30
0.0
 11
200.32
 21
88.1366
 31
0.0
  0
LINE
  8
0
 62
     0
 10
200.32
 20
88.1366
 30
0.0
 11
200.32
 21
88.0346
 31
0.0
  0
LINE
  8
0
 62
     0
 10
200.32
 20
88.0346
 30
0.0
 11
201.12
 21
88.0346
 31
0.0
  0
LINE
  8
0
 62
     0
 10
201.12
 20
88.0346
 30
0.0
 11
201.12
 21
87.0356
 31
0.0
  0
LINE
  8
0
 62
     0
 10
201.12
 20
87.0356
 30
0.0
 11
212.12
 21
87.0356
 31
0.0
  0
LINE
  8
0
 62
     0
 10
212.12
 20
87.0356
 30
0.0
 11
212.12
 21
88.0346
 31
0.0
  0
LINE
  8
0
 62
     0
 10
212.12
 20
88.0346
 30
0.0
 11
212.921
 21
88.0346
 31
0.0
  0
LINE
  8
0
 62
     0
 10
212.921
 20
88.0346
 30
0.0
 11
212.921
 21
88.1366
 31
0.0
  0
LINE
  8
0
 62
     0
 10
212.921
 20
88.1366
 30
0.0
 11
212.12
 21
88.1366
 31
0.0
  0
LINE
  8
0
 62
     0
 10
212.12
 20
88.1366
 30
0.0
 11
212.12
 21
96.9352
 31
0.0
  0
LINE
  8
0
 62
     0
 10
212.12
 20
96.9352
 30
0.0
 11
212.921
 21
96.9352
 31
0.0
  0
LINE
  8
0
 62
     0
 10
212.921
 20
96.9352
 30
0.0
 11
212.921
 21
97.0347
 31
0.0
  0
LINE
  8
0
 62
     0
 10
212.921
 20
97.0347
 30
0.0
 11
212.12
 21
97.0347
 31
0.0
  0
LINE
  8
0
 62
     0
 10
212.12
 20
97.0347
 30
0.0
 11
212.12
 21
98.0362
 31
0.0
  0
LINE
  8
0
 62
     0
 10
212.12
 20
98.0362
 30
0.0
 11
201.12
 21
98.0362
 31
0.0
  0
LINE
  8
0
 62
     0
 10
220.17
 20
98.0362
 30
0.0
 11
220.17
 21
97.0347
 31
0.0
  0
LINE
  8
0
 62
     0
 10
220.17
 20
97.0347
 30
0.0
 11
219.37
 21
97.0347
 31
0.0
  0
LINE
  8
0
 62
     0
 10
219.37
 20
97.0347
 30
0.0
 11
219.37
 21
96.9352
 31
0.0
  0
LINE
  8
0
 62
     0
 10
219.37
 20
96.9352
 30
0.0
 11
220.17
 21
96.9352
 31
0.0
  0
LINE
  8
0
 62
     0
 10
220.17
 20
96.9352
 30
0.0
 11
220.17
 21
88.1366
 31
0.0
  0
LINE
  8
0
 62
     0
 10
220.17
 20
88.1366
 30
0.0
 11
219.37
 21
88.1366
 31
0.0
  0
LINE
  8
0
 62
     0
 10
219.37
 20
88.1366
 30
0.0
 11
219.37
 21
88.0346
 31
0.0
  0
LINE
  8
0
 62
     0
 10
219.37
 20
88.0346
 30
0.0
 11
220.17
 21
88.0346
 31
0.0
  0
LINE
  8
0
 62
     0
 10
220.17
 20
88.0346
 30
0.0
 11
220.17
 21
87.0356
 31
0.0
  0
LINE
  8
0
 62
     0
 10
220.17
 20
87.0356
 30
0.0
 11
231.17
 21
87.0356
 31
0.0
  0
LINE
  8
0
 62
     0
 10
231.17
 20
87.0356
 30
0.0
 11
231.17
 21
88.0346
 31
0.0
  0
LINE
  8
0
 62
     0
 10
231.17
 20
88.0346
 30
0.0
 11
231.971
 21
88.0346
 31
0.0
  0
LINE
  8
0
 62
     0
 10
231.971
 20
88.0346
 30
0.0
 11
231.971
 21
88.1366
 31
0.0
  0
LINE
  8
0
 62
     0
 10
231.971
 20
88.1366
 30
0.0
 11
231.17
 21
88.1366
 31
0.0
  0
LINE
  8
0
 62
     0
 10
231.17
 20
88.1366
 30
0.0
 11
231.17
 21
96.9352
 31
0.0
  0
LINE
  8
0
 62
     0
 10
231.17
 20
96.9352
 30
0.0
 11
231.971
 21
96.9352
 31
0.0
  0
LINE
  8
0
 62
     0
 10
231.971
 20
96.9352
 30
0.0
 11
231.971
 21
97.0347
 31
0.0
  0
LINE
  8
0
 62
     0
 10
231.971
 20
97.0347
 30
0.0
 11
231.17
 21
97.0347
 31
0.0
  0
LINE
  8
0
 62
     0
 10
231.17
 20
97.0347
 30
0.0
 11
231.17
 21
98.0362
 31
0.0
  0
LINE
  8
0
 62
     0
 10
231.17
 20
98.0362
 30
0.0
 11
220.17
 21
98.0362
 31
0.0
  0
LINE
  8
0
 62
     0
 10
239.22
 20
98.0362
 30
0.0
 11
239.22
 21
97.0347
 31
0.0
  0
LINE
  8
0
 62
     0
 10
239.22
 20
97.0347
 30
0.0
 11
238.42
 21
97.0347
 31
0.0
  0
LINE
  8
0
 62
     0
 10
238.42
 20
97.0347
 30
0.0
 11
238.42
 21
96.9352
 31
0.0
  0
LINE
  8
0
 62
     0
 10
238.42
 20
96.9352
 30
0.0
 11
239.22
 21
96.9352
 31
0.0
  0
LINE
  8
0
 62
     0
 10
239.22
 20
96.9352
 30
0.0
 11
239.22
 21
88.1366
 31
0.0
  0
LINE
  8
0
 62
     0
 10
239.22
 20
88.1366
 30
0.0
 11
238.42
 21
88.1366
 31
0.0
  0
LINE
  8
0
 62
     0
 10
238.42
 20
88.1366
 30
0.0
 11
238.42
 21
88.0346
 31
0.0
  0
LINE
  8
0
 62
     0
 10
238.42
 20
88.0346
 30
0.0
 11
239.22
 21
88.0346
 31
0.0
  0
LINE
  8
0
 62
     0
 10
239.22
 20
88.0346
 30
0.0
 11
239.22
 21
87.0356
 31
0.0
  0
LINE
  8
0
 62
     0
 10
239.22
 20
87.0356
 30
0.0
 11
250.22
 21
87.0356
 31
0.0
  0
LINE
  8
0
 62
     0
 10
250.22
 20
87.0356
 30
0.0
 11
250.22
 21
88.0346
 31
0.0
  0
LINE
  8
0
 62
     0
 10
250.22
 20
88.0346
 30
0.0
 11
251.021
 21
88.0346
 31
0.0
  0
LINE
  8
0
 62
     0
 10
251.021
 20
88.0346
 30
0.0
 11
251.021
 21
88.1366
 31
0.0
  0
LINE
  8
0
 62
     0
 10
251.021
 20
88.1366
 30
0.0
 11
250.22
 21
88.1366
 31
0.0
  0
LINE
  8
0
 62
     0
 10
250.22
 20
88.1366
 30
0.0
 11
250.22
 21
96.9352
 31
0.0
  0
LINE
  8
0
 62
     0
 10
250.22
 20
96.9352
 30
0.0
 11
251.021
 21
96.9352
 31
0.0
  0
LINE
  8
0
 62
     0
 10
251.021
 20
96.9352
 30
0.0
 11
251.021
 21
97.0347
 31
0.0
  0
LINE
  8
0
 62
     0
 10
251.021
 20
97.0347
 30
0.0
 11
250.22
 21
97.0347
 31
0.0
  0
LINE
  8
0
 62
     0
 10
250.22
 20
97.0347
 30
0.0
 11
250.22
 21
98.0362
 31
0.0
  0
LINE
  8
0
 62
     0
 10
250.22
 20
98.0362
 30
0.0
 11
239.22
 21
98.0362
 31
0.0
  0
LINE
  8
0
 62
     0
 10
305.895
 20
98.0362
 30
0.0
 11
305.895
 21
97.0347
 31
0.0
  0
LINE
  8
0
 62
     0
 10
305.895
 20
97.0347
 30
0.0
 11
305.095
 21
97.0347
 31
0.0
  0
LINE
  8
0
 62
     0
 10
305.095
 20
97.0347
 30
0.0
 11
305.095
 21
96.9352
 31
0.0
  0
LINE
  8
0
 62
     0
 10
305.095
 20
96.9352
 30
0.0
 11
305.895
 21
96.9352
 31
0.0
  0
LINE
  8
0
 62
     0
 10
305.895
 20
96.9352
 30
0.0
 11
305.895
 21
88.1366
 31
0.0
  0
LINE
  8
0
 62
     0
 10
305.895
 20
88.1366
 30
0.0
 11
305.095
 21
88.1366
 31
0.0
  0
LINE
  8
0
 62
     0
 10
305.095
 20
88.1366
 30
0.0
 11
305.095
 21
88.0346
 31
0.0
  0
LINE
  8
0
 62
     0
 10
305.095
 20
88.0346
 30
0.0
 11
305.895
 21
88.0346
 31
0.0
  0
LINE
  8
0
 62
     0
 10
305.895
 20
88.0346
 30
0.0
 11
305.895
 21
87.0356
 31
0.0
  0
LINE
  8
0
 62
     0
 10
305.895
 20
87.0356
 30
0.0
 11
316.895
 21
87.0356
 31
0.0
  0
LINE
  8
0
 62
     0
 10
316.895
 20
87.0356
 30
0.0
 11
316.895
 21
88.0346
 31
0.0
  0
LINE
  8
0
 62
     0
 10
316.895
 20
88.0346
 30
0.0
 11
317.696
 21
88.0346
 31
0.0
  0
LINE
  8
0
 62
     0
 10
317.696
 20
88.0346
 30
0.0
 11
317.696
 21
88.1366
 31
0.0
  0
LINE
  8
0
 62
     0
 10
317.696
 20
88.1366
 30
0.0
 11
316.895
 21
88.1366
 31
0.0
  0
LINE
  8
0
 62
     0
 10
316.895
 20
88.1366
 30
0.0
 11
316.895
 21
96.9352
 31
0.0
  0
LINE
  8
0
 62
     0
 10
316.895
 20
96.9352
 30
0.0
 11
317.696
 21
96.9352
 31
0.0
  0
LINE
  8
0
 62
     0
 10
317.696
 20
96.9352
 30
0.0
 11
317.696
 21
97.0347
 31
0.0
  0
LINE
  8
0
 62
     0
 10
317.696
 20
97.0347
 30
0.0
 11
316.895
 21
97.0347
 31
0.0
  0
LINE
  8
0
 62
     0
 10
316.895
 20
97.0347
 30
0.0
 11
316.895
 21
98.0362
 31
0.0
  0
LINE
  8
0
 62
     0
 10
316.895
 20
98.0362
 30
0.0
 11
305.895
 21
98.0362
 31
0.0
  0
LINE
  8
0
 62
     0
 10
322.957
 20
105.988
 30
0.0
 11
322.539
 21
105.774
 31
0.0
  0
LINE
  8
0
 62
     0
 10
322.539
 20
105.774
 30
0.0
 11
322.207
 21
105.442
 31
0.0
  0
LINE
  8
0
 62
     0
 10
322.207
 20
105.442
 30
0.0
 11
321.995
 21
105.024
 31
0.0
  0
LINE
  8
0
 62
     0
 10
321.995
 20
105.024
 30
0.0
 11
321.922
 21
104.56
 31
0.0
  0
LINE
  8
0
 62
     0
 10
321.922
 20
104.56
 30
0.0
 11
321.995
 21
104.097
 31
0.0
  0
LINE
  8
0
 62
     0
 10
321.995
 20
104.097
 30
0.0
 11
322.207
 21
103.68
 31
0.0
  0
LINE
  8
0
 62
     0
 10
322.207
 20
103.68
 30
0.0
 11
322.539
 21
103.347
 31
0.0
  0
LINE
  8
0
 62
     0
 10
322.539
 20
103.347
 30
0.0
 11
322.957
 21
103.134
 31
0.0
  0
LINE
  8
0
 62
     0
 10
322.957
 20
103.134
 30
0.0
 11
323.421
 21
103.061
 31
0.0
  0
LINE
  8
0
 62
     0
 10
323.421
 20
103.061
 30
0.0
 11
323.885
 21
103.134
 31
0.0
  0
LINE
  8
0
 62
     0
 10
323.885
 20
103.134
 30
0.0
 11
324.302
 21
103.347
 31
0.0
  0
LINE
  8
0
 62
     0
 10
324.302
 20
103.347
 30
0.0
 11
324.634
 21
103.68
 31
0.0
  0
LINE
  8
0
 62
     0
 10
324.634
 20
103.68
 30
0.0
 11
324.848
 21
104.097
 31
0.0
  0
LINE
  8
0
 62
     0
 10
324.848
 20
104.097
 30
0.0
 11
324.922
 21
104.56
 31
0.0
  0
LINE
  8
0
 62
     0
 10
324.922
 20
104.56
 30
0.0
 11
324.848
 21
105.024
 31
0.0
  0
LINE
  8
0
 62
     0
 10
324.848
 20
105.024
 30
0.0
 11
324.634
 21
105.442
 31
0.0
  0
LINE
  8
0
 62
     0
 10
324.634
 20
105.442
 30
0.0
 11
324.302
 21
105.774
 31
0.0
  0
LINE
  8
0
 62
     0
 10
324.302
 20
105.774
 30
0.0
 11
323.885
 21
105.988
 31
0.0
  0
LINE
  8
0
 62
     0
 10
323.885
 20
105.988
 30
0.0
 11
323.421
 21
106.061
 31
0.0
  0
LINE
  8
0
 62
     0
 10
323.421
 20
106.061
 30
0.0
 11
322.957
 21
105.988
 31
0.0
  0
LINE
  8
0
 62
     0
 10
3.63114
 20
105.988
 30
0.0
 11
3.21359
 21
105.774
 31
0.0
  0
LINE
  8
0
 62
     0
 10
3.21359
 20
105.774
 30
0.0
 11
2.88148
 21
105.442
 31
0.0
  0
LINE
  8
0
 62
     0
 10
2.88148
 20
105.442
 30
0.0
 11
2.66788
 21
105.024
 31
0.0
  0
LINE
  8
0
 62
     0
 10
2.66788
 20
105.024
 30
0.0
 11
2.59485
 21
104.56
 31
0.0
  0
LINE
  8
0
 62
     0
 10
2.59485
 20
104.56
 30
0.0
 11
2.66788
 21
104.097
 31
0.0
  0
LINE
  8
0
 62
     0
 10
2.66788
 20
104.097
 30
0.0
 11
2.88148
 21
103.68
 31
0.0
  0
LINE
  8
0
 62
     0
 10
2.88148
 20
103.68
 30
0.0
 11
3.21359
 21
103.347
 31
0.0
  0
LINE
  8
0
 62
     0
 10
3.21359
 20
103.347
 30
0.0
 11
3.63114
 21
103.134
 31
0.0
  0
LINE
  8
0
 62
     0
 10
3.63114
 20
103.134
 30
0.0
 11
4.09554
 21
103.061
 31
0.0
  0
LINE
  8
0
 62
     0
 10
4.09554
 20
103.061
 30
0.0
 11
4.55856
 21
103.134
 31
0.0
  0
LINE
  8
0
 62
     0
 10
4.55856
 20
103.134
 30
0.0
 11
4.97611
 21
103.347
 31
0.0
  0
LINE
  8
0
 62
     0
 10
4.97611
 20
103.347
 30
0.0
 11
5.30821
 21
103.68
 31
0.0
  0
LINE
  8
0
 62
     0
 10
5.30821
 20
103.68
 30
0.0
 11
5.52178
 21
104.097
 31
0.0
  0
LINE
  8
0
 62
     0
 10
5.52178
 20
104.097
 30
0.0
 11
5.59484
 21
104.56
 31
0.0
  0
LINE
  8
0
 62
     0
 10
5.59484
 20
104.56
 30
0.0
 11
5.52178
 21
105.024
 31
0.0
  0
LINE
  8
0
 62
     0
 10
5.52178
 20
105.024
 30
0.0
 11
5.30821
 21
105.442
 31
0.0
  0
LINE
  8
0
 62
     0
 10
5.30821
 20
105.442
 30
0.0
 11
4.97611
 21
105.774
 31
0.0
  0
LINE
  8
0
 62
     0
 10
4.97611
 20
105.774
 30
0.0
 11
4.55856
 21
105.988
 31
0.0
  0
LINE
  8
0
 62
     0
 10
4.55856
 20
105.988
 30
0.0
 11
4.09554
 21
106.061
 31
0.0
  0
LINE
  8
0
 62
     0
 10
4.09554
 20
106.061
 30
0.0
 11
3.63114
 21
105.988
 31
0.0
  0
ENDSEC
  0
EOF
