999
dxflib 3.26.4.0
  0
SECTION
  2
HEADER
  9
$ACADVER
  1
AC1015
  9
$HANDSEED
  5
FFFF
  9
$DIMADEC
 70
0
  9
$DIMASZ
 40
0.125
  9
$DIMATFIT
 70
0
  9
$DIMAUNIT
 70
0
  9
$DIMAZIN
 70
2
  9
$DIMBLK
  1
0
  9
$DIMBLK1
  1
0
  9
$DIMBLK2
  1
0
  9
$DIMDEC
 70
4
  9
$DIMDLI
 40
0.25
  9
$DIMDSEP
 70
46
  9
$DIMEXE
 40
0.0625
  9
$DIMEXO
 40
0.03125
  9
$DIMGAP
 40
0.03125
  9
$DIMLFAC
 40
1.0
  9
$DIMLUNIT
 70
3
  9
$DIMSCALE
 40
1.0
  9
$DIMTAD
 70
1
  9
$DIMTIH
 70
0
  9
$DIMTSZ
 40
0.0
  9
$DIMTXT
 40
0.125
  9
$DIMZIN
 70
8
  9
$DWGCODEPAGE
  3
ANSI_1252
  9
$INSUNITS
 70
1
  9
$LTSCALE
 40
1.0
  9
$MAXACTVP
 70
64
  9
$MEASUREMENT
 70
0
  9
$MIRRTEXT
 70
0
  9
$PDMODE
 70
0
  9
$PDSIZE
 40
0.0
  0
ENDSEC
  0
SECTION
  2
TABLES
  0
TABLE
  2
VPORT
  5
8
100
AcDbSymbolTable
 70
1
  0
VPORT
  5
30
100
AcDbSymbolTableRecord
100
AcDbViewportTableRecord
  2
*Active
 70
0
 10
0.0
 20
0.0
 11
1.0
 21
1.0
 12
286.3055555555554861
 22
148.5
 13
0.0
 23
0.0
 14
10.0
 24
10.0
 15
10.0
 25
10.0
 16
0.0
 26
0.0
 36
1.0
 17
0.0
 27
0.0
 37
0.0
 40
297.0
 41
1.92798353909465
 42
50.0
 43
0.0
 44
0.0
 50
0.0
 51
0.0
 71
0
 72
100
 73
1
 74
3
 75
1
 76
1
 77
0
 78
0
281
0
 65
1
110
0.0
120
0.0
130
0.0
111
1.0
121
0.0
131
0.0
112
0.0
122
1.0
132
0.0
 79
0
146
0.0
  0
ENDTAB
  0
TABLE
  2
LTYPE
  5
5
100
AcDbSymbolTable
 70
41
  0
LTYPE
  5
16
100
AcDbSymbolTableRecord
100
AcDbLinetypeTableRecord
  2
Continuous
 70
0
  3
Solid line
 72
65
 73
0
 40
0.0
  0
LTYPE
  5
31
100
AcDbSymbolTableRecord
100
AcDbLinetypeTableRecord
  2
DASHDOTX2
 70
0
  3
Dash dot (2x) ____  .  ____  .  ____  .  ___
 72
65
 73
4
 40
50.7999999999999972
 49
25.3999999999999986
 74
0
 49
-12.6499999999999986
 74
0
 49
0.1
 74
0
 49
-12.6499999999999986
 74
0
  0
LTYPE
  5
32
100
AcDbSymbolTableRecord
100
AcDbLinetypeTableRecord
  2
DASHEDX2
 70
0
  3
Dashed (2x) ____  ____  ____  ____  ____  ___
 72
65
 73
2
 40
38.0999999999999943
 49
25.3999999999999986
 74
0
 49
-12.6999999999999993
 74
0
  0
LTYPE
  5
33
100
AcDbSymbolTableRecord
100
AcDbLinetypeTableRecord
  2
ACAD_ISO04W100
 70
0
  3
ISO long-dash dot ____ . ____ . ____ . ____ . _
 72
65
 73
4
 40
30.0
 49
24.0
 74
0
 49
-2.9500000000000002
 74
0
 49
0.1
 74
0
 49
-2.9500000000000002
 74
0
  0
LTYPE
  5
34
100
AcDbSymbolTableRecord
100
AcDbLinetypeTableRecord
  2
ACAD_ISO08W100
 70
0
  3
ISO long-dash short-dash ____ __ ____ __ ____ _
 72
65
 73
4
 40
36.0
 49
24.0
 74
0
 49
-3.0
 74
0
 49
6.0
 74
0
 49
-3.0
 74
0
  0
LTYPE
  5
15
100
AcDbSymbolTableRecord
100
AcDbLinetypeTableRecord
  2
BYLAYER
 70
0
  3

 72
65
 73
0
 40
0.0
  0
LTYPE
  5
35
100
AcDbSymbolTableRecord
100
AcDbLinetypeTableRecord
  2
ACAD_ISO15W100
 70
0
  3
ISO double-dash triple-dot __ __ . . . __ __ . .
 72
65
 73
10
 40
39.0000000000000071
 49
12.0
 74
0
 49
-3.0
 74
0
 49
12.0
 74
0
 49
-2.9500000000000002
 74
0
 49
0.1
 74
0
 49
-2.9000000000000004
 74
0
 49
0.1
 74
0
 49
-2.9000000000000004
 74
0
 49
0.1
 74
0
 49
-2.9500000000000002
 74
0
  0
LTYPE
  5
36
100
AcDbSymbolTableRecord
100
AcDbLinetypeTableRecord
  2
HIDDEN
 70
0
  3
Hidden __ __ __ __ __ __ __ __ __ __ __ __ __ __
 72
65
 73
2
 40
9.5249999999999986
 49
6.3499999999999996
 74
0
 49
-3.1749999999999998
 74
0
  0
LTYPE
  5
14
100
AcDbSymbolTableRecord
100
AcDbLinetypeTableRecord
  2
BYBLOCK
 70
0
  3

 72
65
 73
0
 40
0.0
  0
LTYPE
  5
37
100
AcDbSymbolTableRecord
100
AcDbLinetypeTableRecord
  2
CENTER2
 70
0
  3
Center (.5x) ___ _ ___ _ ___ _ ___ _ ___ _ ___
 72
65
 73
4
 40
28.5750000000000028
 49
19.0500000000000007
 74
0
 49
-3.1749999999999998
 74
0
 49
3.1749999999999998
 74
0
 49
-3.1749999999999998
 74
0
  0
LTYPE
  5
38
100
AcDbSymbolTableRecord
100
AcDbLinetypeTableRecord
  2
DASHED2
 70
0
  3
Dashed (.5x) _ _ _ _ _ _ _ _ _ _ _ _ _ _ _ _ _ 
 72
65
 73
2
 40
9.5249999999999986
 49
6.3499999999999996
 74
0
 49
-3.1749999999999998
 74
0
  0
LTYPE
  5
39
100
AcDbSymbolTableRecord
100
AcDbLinetypeTableRecord
  2
ACAD_ISO07W100
 70
0
  3
ISO dot . . . . . . . . . . . . . . . . . . . . 
 72
65
 73
2
 40
3.0
 49
0.1
 74
0
 49
-2.8999999999999999
 74
0
  0
LTYPE
  5
3A
100
AcDbSymbolTableRecord
100
AcDbLinetypeTableRecord
  2
HIDDEN2
 70
0
  3
Hidden (.5x) _ _ _ _ _ _ _ _ _ _ _ _ _ _ _ _ _ 
 72
65
 73
2
 40
4.7624999999999993
 49
3.1749999999999998
 74
0
 49
-1.5874999999999999
 74
0
  0
LTYPE
  5
3B
100
AcDbSymbolTableRecord
100
AcDbLinetypeTableRecord
  2
ACAD_ISO03W100
 70
0
  3
ISO dash space __    __    __    __    __    __
 72
65
 73
2
 40
30.0
 49
12.0
 74
0
 49
-18.0
 74
0
  0
LTYPE
  5
3C
100
AcDbSymbolTableRecord
100
AcDbLinetypeTableRecord
  2
BORDERX2
 70
0
  3
Border (2x) ____  ____  .  ____  ____  .  ___
 72
65
 73
6
 40
88.8999999999999773
 49
25.3999999999999986
 74
0
 49
-12.6999999999999993
 74
0
 49
25.3999999999999986
 74
0
 49
-12.6499999999999986
 74
0
 49
0.1
 74
0
 49
-12.6499999999999986
 74
0
  0
LTYPE
  5
3D
100
AcDbSymbolTableRecord
100
AcDbLinetypeTableRecord
  2
PHANTOM
 70
0
  3
Phantom ______  __  __  ______  __  __  ______ 
 72
65
 73
6
 40
63.5000000000000071
 49
31.75
 74
0
 49
-6.3499999999999996
 74
0
 49
6.3499999999999996
 74
0
 49
-6.3499999999999996
 74
0
 49
6.3499999999999996
 74
0
 49
-6.3499999999999996
 74
0
  0
LTYPE
  5
3E
100
AcDbSymbolTableRecord
100
AcDbLinetypeTableRecord
  2
BORDER
 70
0
  3
Border __ __ . __ __ . __ __ . __ __ . __ __ .
 72
65
 73
6
 40
44.4499999999999957
 49
12.6999999999999993
 74
0
 49
-6.3499999999999996
 74
0
 49
12.6999999999999993
 74
0
 49
-6.2999999999999998
 74
0
 49
0.1
 74
0
 49
-6.2999999999999998
 74
0
  0
LTYPE
  5
3F
100
AcDbSymbolTableRecord
100
AcDbLinetypeTableRecord
  2
PHANTOMX2
 70
0
  3
Phantom (2x) ____________    ____    ____   _
 72
65
 73
6
 40
127.0000000000000142
 49
63.5
 74
0
 49
-12.6999999999999993
 74
0
 49
12.6999999999999993
 74
0
 49
-12.6999999999999993
 74
0
 49
12.6999999999999993
 74
0
 49
-12.6999999999999993
 74
0
  0
LTYPE
  5
40
100
AcDbSymbolTableRecord
100
AcDbLinetypeTableRecord
  2
CENTERX2
 70
0
  3
Center (2x) ________  __  ________  __  _____
 72
65
 73
4
 40
101.6000000000000085
 49
63.5
 74
0
 49
-12.6999999999999993
 74
0
 49
12.6999999999999993
 74
0
 49
-12.6999999999999993
 74
0
  0
LTYPE
  5
41
100
AcDbSymbolTableRecord
100
AcDbLinetypeTableRecord
  2
DIVIDE
 70
0
  3
Divide ____ . . ____ . . ____ . . ____ . . ____
 72
65
 73
6
 40
31.7500000000000036
 49
12.6999999999999993
 74
0
 49
-6.2999999999999998
 74
0
 49
0.1
 74
0
 49
-6.25
 74
0
 49
0.1
 74
0
 49
-6.2999999999999998
 74
0
  0
LTYPE
  5
42
100
AcDbSymbolTableRecord
100
AcDbLinetypeTableRecord
  2
ACAD_ISO14W100
 70
0
  3
ISO dash triple-dot __ . . . __ . . . __ . . . _
 72
65
 73
8
 40
24.0000000000000036
 49
12.0
 74
0
 49
-2.9500000000000002
 74
0
 49
0.1
 74
0
 49
-2.9000000000000004
 74
0
 49
0.1
 74
0
 49
-2.9000000000000004
 74
0
 49
0.1
 74
0
 49
-2.9500000000000002
 74
0
  0
LTYPE
  5
43
100
AcDbSymbolTableRecord
100
AcDbLinetypeTableRecord
  2
ACAD_ISO11W100
 70
0
  3
ISO double-dash dot __ __ . __ __ . __ __ . __ _
 72
65
 73
6
 40
33.0
 49
12.0
 74
0
 49
-3.0
 74
0
 49
12.0
 74
0
 49
-2.9500000000000002
 74
0
 49
0.1
 74
0
 49
-2.9500000000000002
 74
0
  0
LTYPE
  5
44
100
AcDbSymbolTableRecord
100
AcDbLinetypeTableRecord
  2
BORDER2
 70
0
  3
Border (.5x) __.__.__.__.__.__.__.__.__.__.__.
 72
65
 73
6
 40
22.2250000000000014
 49
6.3499999999999996
 74
0
 49
-3.1749999999999998
 74
0
 49
6.3499999999999996
 74
0
 49
-3.125
 74
0
 49
0.1
 74
0
 49
-3.125
 74
0
  0
LTYPE
  5
45
100
AcDbSymbolTableRecord
100
AcDbLinetypeTableRecord
  2
DOTX2
 70
0
  3
Dot (2x) .  .  .  .  .  .  .  .  .  .  .  .  .  .
 72
65
 73
2
 40
12.6999999999999993
 49
0.1
 74
0
 49
-12.5999999999999996
 74
0
  0
LTYPE
  5
46
100
AcDbSymbolTableRecord
100
AcDbLinetypeTableRecord
  2
DOT
 70
0
  3
Dot . . . . . . . . . . . . . . . . . . . . . . . .
 72
65
 73
2
 40
6.3499999999999996
 49
0.1
 74
0
 49
-6.25
 74
0
  0
LTYPE
  5
47
100
AcDbSymbolTableRecord
100
AcDbLinetypeTableRecord
  2
PHANTOM2
 70
0
  3
Phantom (.5x) ___ _ _ ___ _ _ ___ _ _ ___ _ _
 72
65
 73
6
 40
31.7500000000000036
 49
15.875
 74
0
 49
-3.1749999999999998
 74
0
 49
3.1749999999999998
 74
0
 49
-3.1749999999999998
 74
0
 49
3.1749999999999998
 74
0
 49
-3.1749999999999998
 74
0
  0
LTYPE
  5
48
100
AcDbSymbolTableRecord
100
AcDbLinetypeTableRecord
  2
ACAD_ISO12W100
 70
0
  3
ISO dash double-dot __ . . __ . . __ . . __ . . 
 72
65
 73
6
 40
21.0
 49
12.0
 74
0
 49
-2.9500000000000002
 74
0
 49
0.1
 74
0
 49
-2.9000000000000004
 74
0
 49
0.1
 74
0
 49
-2.9500000000000002
 74
0
  0
LTYPE
  5
49
100
AcDbSymbolTableRecord
100
AcDbLinetypeTableRecord
  2
ACAD_ISO06W100
 70
0
  3
ISO long-dash triple-dot ____ ... ____ ... ____
 72
65
 73
8
 40
36.0000000000000071
 49
24.0
 74
0
 49
-2.9500000000000002
 74
0
 49
0.1
 74
0
 49
-2.9000000000000004
 74
0
 49
0.1
 74
0
 49
-2.9000000000000004
 74
0
 49
0.1
 74
0
 49
-2.9500000000000002
 74
0
  0
LTYPE
  5
4A
100
AcDbSymbolTableRecord
100
AcDbLinetypeTableRecord
  2
ACAD_ISO05W100
 70
0
  3
ISO long-dash double-dot ____ .. ____ .. ____ . 
 72
65
 73
6
 40
33.0000000000000071
 49
24.0
 74
0
 49
-2.9500000000000002
 74
0
 49
0.1
 74
0
 49
-2.9000000000000004
 74
0
 49
0.1
 74
0
 49
-2.9500000000000002
 74
0
  0
LTYPE
  5
4B
100
AcDbSymbolTableRecord
100
AcDbLinetypeTableRecord
  2
ACAD_ISO10W100
 70
0
  3
ISO dash dot __ . __ . __ . __ . __ . __ . __ . 
 72
65
 73
4
 40
18.0
 49
12.0
 74
0
 49
-2.9500000000000002
 74
0
 49
0.1
 74
0
 49
-2.9500000000000002
 74
0
  0
LTYPE
  5
4C
100
AcDbSymbolTableRecord
100
AcDbLinetypeTableRecord
  2
DIVIDEX2
 70
0
  3
Divide (2x) ________  .  .  ________  .  .  _
 72
65
 73
6
 40
63.5
 49
25.3999999999999986
 74
0
 49
-12.6499999999999986
 74
0
 49
0.1
 74
0
 49
-12.5999999999999979
 74
0
 49
0.1
 74
0
 49
-12.6499999999999986
 74
0
  0
LTYPE
  5
4D
100
AcDbSymbolTableRecord
100
AcDbLinetypeTableRecord
  2
DASHDOT
 70
0
  3
Dash dot __ . __ . __ . __ . __ . __ . __ . __
 72
65
 73
4
 40
25.4000000000000021
 49
12.6999999999999993
 74
0
 49
-6.2999999999999998
 74
0
 49
0.1
 74
0
 49
-6.2999999999999998
 74
0
  0
LTYPE
  5
4E
100
AcDbSymbolTableRecord
100
AcDbLinetypeTableRecord
  2
HIDDENX2
 70
0
  3
Hidden (2x) ____ ____ ____ ____ ____ ____ ____ 
 72
65
 73
2
 40
19.0499999999999972
 49
12.6999999999999993
 74
0
 49
-6.3499999999999996
 74
0
  0
LTYPE
  5
4F
100
AcDbSymbolTableRecord
100
AcDbLinetypeTableRecord
  2
ACAD_ISO09W100
 70
0
  3
ISO long-dash double-short-dash ____ __ __ ____
 72
65
 73
6
 40
45.0
 49
24.0
 74
0
 49
-3.0
 74
0
 49
6.0
 74
0
 49
-3.0
 74
0
 49
6.0
 74
0
 49
-3.0
 74
0
  0
LTYPE
  5
50
100
AcDbSymbolTableRecord
100
AcDbLinetypeTableRecord
  2
DASHED
 70
0
  3
Dashed __ __ __ __ __ __ __ __ __ __ __ __ __ _
 72
65
 73
2
 40
19.0499999999999972
 49
12.6999999999999993
 74
0
 49
-6.3499999999999996
 74
0
  0
LTYPE
  5
51
100
AcDbSymbolTableRecord
100
AcDbLinetypeTableRecord
  2
CENTER
 70
0
  3
Center ____ _ ____ _ ____ _ ____ _ ____ _ ____
 72
65
 73
4
 40
50.8000000000000043
 49
31.75
 74
0
 49
-6.3499999999999996
 74
0
 49
6.3499999999999996
 74
0
 49
-6.3499999999999996
 74
0
  0
LTYPE
  5
52
100
AcDbSymbolTableRecord
100
AcDbLinetypeTableRecord
  2
ACAD_ISO13W100
 70
0
  3
ISO double-dash double-dot __ __ . . __ __ . . _
 72
65
 73
8
 40
36.0000000000000071
 49
12.0
 74
0
 49
-3.0
 74
0
 49
12.0
 74
0
 49
-2.9500000000000002
 74
0
 49
0.1
 74
0
 49
-2.9000000000000004
 74
0
 49
0.1
 74
0
 49
-2.9500000000000002
 74
0
  0
LTYPE
  5
53
100
AcDbSymbolTableRecord
100
AcDbLinetypeTableRecord
  2
DIVIDE2
 70
0
  3
Divide (.5x) __..__..__..__..__..__..__..__.._
 72
65
 73
6
 40
15.8749999999999982
 49
6.3499999999999996
 74
0
 49
-3.125
 74
0
 49
0.1
 74
0
 49
-3.0750000000000002
 74
0
 49
0.1
 74
0
 49
-3.125
 74
0
  0
LTYPE
  5
54
100
AcDbSymbolTableRecord
100
AcDbLinetypeTableRecord
  2
DASHDOT2
 70
0
  3
Dash dot (.5x) _._._._._._._._._._._._._._._.
 72
65
 73
4
 40
12.6999999999999993
 49
6.3499999999999996
 74
0
 49
-3.125
 74
0
 49
0.1
 74
0
 49
-3.125
 74
0
  0
LTYPE
  5
55
100
AcDbSymbolTableRecord
100
AcDbLinetypeTableRecord
  2
ACAD_ISO02W100
 70
0
  3
ISO dash __ __ __ __ __ __ __ __ __ __ __ __ __
 72
65
 73
2
 40
15.0
 49
12.0
 74
0
 49
-3.0
 74
0
  0
LTYPE
  5
56
100
AcDbSymbolTableRecord
100
AcDbLinetypeTableRecord
  2
DOT2
 70
0
  3
Dot (.5x) ........................................
 72
65
 73
2
 40
3.1749999999999998
 49
0.1
 74
0
 49
-3.0749999999999997
 74
0
  0
ENDTAB
  0
TABLE
  2
LAYER
  5
2
100
AcDbSymbolTable
 70
1
  0
LAYER
  5
10
100
AcDbSymbolTableRecord
100
AcDbLayerTableRecord
  2
0
 70
0
 62
7
420
16777215
  6
Continuous
370
25
390
F
  0
ENDTAB
  0
TABLE
  2
STYLE
  5
3
100
AcDbSymbolTable
 70
1
  0
STYLE
  5
57
100
AcDbSymbolTableRecord
100
AcDbTextStyleTableRecord
  2
Standard
 70
0
 40
0.0
 41
1.0
 50
0.0
 71
0
 42
2.5
  3

  4

1001
ACAD
1000
txt
1071
0
  0
ENDTAB
  0
TABLE
  2
VIEW
  5
6
100
AcDbSymbolTable
 70
0
  0
ENDTAB
  0
TABLE
  2
UCS
  5
7
100
AcDbSymbolTable
 70
0
  0
ENDTAB
  0
TABLE
  2
APPID
  5
9
100
AcDbSymbolTable
 70
1
  0
APPID
  5
12
100
AcDbSymbolTableRecord
100
AcDbRegAppTableRecord
  2
ACAD
 70
0
  0
APPID
  5
58
100
AcDbSymbolTableRecord
100
AcDbRegAppTableRecord
  2
QCAD
 70
0
  0
ENDTAB
  0
TABLE
  2
DIMSTYLE
  5
A
100
AcDbSymbolTable
 70
1
100
AcDbDimStyleTable
 71
0
  0
DIMSTYLE
105
27
100
AcDbSymbolTableRecord
100
AcDbDimStyleTableRecord
  2
Standard
 41
0.125
 42
0.03125
 43
3.75
 44
0.0625
 70
0
 73
0
 74
0
 77
1
 78
8
140
0.125
141
2.5
143
0.03937007874016
147
0.03125
171
3
172
1
271
2
272
2
274
3
278
44
283
0
284
8
340
57
  0
ENDTAB
  0
TABLE
  2
BLOCK_RECORD
  5
1
100
AcDbSymbolTable
 70
1
  0
BLOCK_RECORD
  5
1F
100
AcDbSymbolTableRecord
100
AcDbBlockTableRecord
  2
*Model_Space
340
22
  0
BLOCK_RECORD
  5
1B
100
AcDbSymbolTableRecord
100
AcDbBlockTableRecord
  2
*Paper_Space
340
1E
  0
BLOCK_RECORD
  5
23
100
AcDbSymbolTableRecord
100
AcDbBlockTableRecord
  2
*Paper_Space0
340
26
  0
ENDTAB
  0
ENDSEC
  0
SECTION
  2
BLOCKS
  0
BLOCK
  5
20
100
AcDbEntity
  8
0
100
AcDbBlockBegin
  2
*Model_Space
 70
0
 10
0.0
 20
0.0
 30
0.0
  3
*Model_Space
  1

  0
ENDBLK
  5
21
100
AcDbEntity
  8
0
100
AcDbBlockEnd
  0
BLOCK
  5
1C
100
AcDbEntity
 67
1
  8
0
100
AcDbBlockBegin
  2
*Paper_Space
 70
0
 10
0.0
 20
0.0
 30
0.0
  3
*Paper_Space
  1

  0
ENDBLK
  5
1D
100
AcDbEntity
 67
1
  8
0
100
AcDbBlockEnd
  0
BLOCK
  5
24
100
AcDbEntity
  8
0
100
AcDbBlockBegin
  2
*Paper_Space0
 70
0
 10
0.0
 20
0.0
 30
0.0
  3
*Paper_Space0
  1

  0
ENDBLK
  5
25
100
AcDbEntity
  8
0
100
AcDbBlockEnd
  0
ENDSEC
  0
SECTION
  2
ENTITIES
  0
LINE
  5
59
100
AcDbEntity
  8
0
 62
0
370
-1
 48
1.0
  6
BYLAYER
100
AcDbLine
 10
324.326020000000085
 20
110.2498070000000894
 30
0.0
 11
324.7170200000000477
 21
110.234807000000103
 31
0.0
  0
LINE
  5
5A
100
AcDbEntity
  8
0
 62
0
370
-1
 48
1.0
  6
BYLAYER
100
AcDbLine
 10
324.7170200000000477
 20
110.234807000000103
 30
0.0
 11
325.1070200000000341
 21
110.1878070000000776
 31
0.0
  0
LINE
  5
5B
100
AcDbEntity
  8
0
 62
0
370
-1
 48
1.0
  6
BYLAYER
100
AcDbLine
 10
325.1070200000000341
 20
110.1878070000000776
 30
0.0
 11
325.493020000000115
 21
110.1118070000000557
 31
0.0
  0
LINE
  5
5C
100
AcDbEntity
  8
0
 62
0
370
-1
 48
1.0
  6
BYLAYER
100
AcDbLine
 10
325.493020000000115
 20
110.1118070000000557
 30
0.0
 11
325.8710200000000441
 21
110.0058070000000612
 31
0.0
  0
LINE
  5
5D
100
AcDbEntity
  8
0
 62
0
370
-1
 48
1.0
  6
BYLAYER
100
AcDbLine
 10
325.8710200000000441
 20
110.0058070000000612
 30
0.0
 11
326.2390199999999822
 21
109.8698070000000939
 31
0.0
  0
LINE
  5
5E
100
AcDbEntity
  8
0
 62
0
370
-1
 48
1.0
  6
BYLAYER
100
AcDbLine
 10
326.2390199999999822
 20
109.8698070000000939
 30
0.0
 11
326.5940200000000004
 21
109.705806999999993
 31
0.0
  0
LINE
  5
5F
100
AcDbEntity
  8
0
 62
0
370
-1
 48
1.0
  6
BYLAYER
100
AcDbLine
 10
326.5940200000000004
 20
109.705806999999993
 30
0.0
 11
326.937020000000075
 21
109.5138070000000994
 31
0.0
  0
LINE
  5
60
100
AcDbEntity
  8
0
 62
0
370
-1
 48
1.0
  6
BYLAYER
100
AcDbLine
 10
326.937020000000075
 20
109.5138070000000994
 30
0.0
 11
327.2640200000000732
 21
109.2948070000000484
 31
0.0
  0
LINE
  5
61
100
AcDbEntity
  8
0
 62
0
370
-1
 48
1.0
  6
BYLAYER
100
AcDbLine
 10
327.2640200000000732
 20
109.2948070000000484
 30
0.0
 11
327.5720200000000659
 21
109.0528070000000866
 31
0.0
  0
LINE
  5
62
100
AcDbEntity
  8
0
 62
0
370
-1
 48
1.0
  6
BYLAYER
100
AcDbLine
 10
327.5720200000000659
 20
109.0528070000000866
 30
0.0
 11
327.8610200000000532
 21
108.7848070000000575
 31
0.0
  0
LINE
  5
63
100
AcDbEntity
  8
0
 62
0
370
-1
 48
1.0
  6
BYLAYER
100
AcDbLine
 10
327.8610200000000532
 20
108.7848070000000575
 30
0.0
 11
328.1280200000001059
 21
108.4968070000000466
 31
0.0
  0
LINE
  5
64
100
AcDbEntity
  8
0
 62
0
370
-1
 48
1.0
  6
BYLAYER
100
AcDbLine
 10
328.1280200000001059
 20
108.4968070000000466
 30
0.0
 11
328.3700200000000677
 21
108.1888070000000539
 31
0.0
  0
LINE
  5
65
100
AcDbEntity
  8
0
 62
0
370
-1
 48
1.0
  6
BYLAYER
100
AcDbLine
 10
328.3700200000000677
 20
108.1888070000000539
 30
0.0
 11
328.5880200000001423
 21
107.8628070000001458
 31
0.0
  0
LINE
  5
66
100
AcDbEntity
  8
0
 62
0
370
-1
 48
1.0
  6
BYLAYER
100
AcDbLine
 10
328.5880200000001423
 20
107.8628070000001458
 30
0.0
 11
328.7810200000001259
 21
107.5198070000000712
 31
0.0
  0
LINE
  5
67
100
AcDbEntity
  8
0
 62
0
370
-1
 48
1.0
  6
BYLAYER
100
AcDbLine
 10
328.7810200000001259
 20
107.5198070000000712
 30
0.0
 11
328.9450200000001132
 21
107.1628070000001003
 31
0.0
  0
LINE
  5
68
100
AcDbEntity
  8
0
 62
0
370
-1
 48
1.0
  6
BYLAYER
100
AcDbLine
 10
328.9450200000001132
 20
107.1628070000001003
 30
0.0
 11
329.0800200000001041
 21
106.7958070000001385
 31
0.0
  0
LINE
  5
69
100
AcDbEntity
  8
0
 62
0
370
-1
 48
1.0
  6
BYLAYER
100
AcDbLine
 10
329.0800200000001041
 20
106.7958070000001385
 30
0.0
 11
329.1860200000000987
 21
106.4178070000000957
 31
0.0
  0
LINE
  5
6A
100
AcDbEntity
  8
0
 62
0
370
-1
 48
1.0
  6
BYLAYER
100
AcDbLine
 10
329.1860200000000987
 20
106.4178070000000957
 30
0.0
 11
329.2630200000000968
 21
106.0328069999999911
 31
0.0
  0
LINE
  5
6B
100
AcDbEntity
  8
0
 62
0
370
-1
 48
1.0
  6
BYLAYER
100
AcDbLine
 10
329.2630200000000968
 20
106.0328069999999911
 30
0.0
 11
329.3090200000000323
 21
105.6428070000001185
 31
0.0
  0
LINE
  5
6C
100
AcDbEntity
  8
0
 62
0
370
-1
 48
1.0
  6
BYLAYER
100
AcDbLine
 10
329.3090200000000323
 20
105.6428070000001185
 30
0.0
 11
329.3240200000000186
 21
105.248807000000113
 31
0.0
  0
LINE
  5
6D
100
AcDbEntity
  8
0
 62
0
370
-1
 48
1.0
  6
BYLAYER
100
AcDbLine
 10
329.3240200000000186
 20
105.248807000000113
 30
0.0
 11
329.325019999999995
 21
4.9995170000001963
 31
0.0
  0
LINE
  5
6E
100
AcDbEntity
  8
0
 62
0
370
-1
 48
1.0
  6
BYLAYER
100
AcDbLine
 10
329.325019999999995
 20
4.9995170000001963
 30
0.0
 11
329.3090200000000323
 21
4.6067669999999907
 31
0.0
  0
LINE
  5
6F
100
AcDbEntity
  8
0
 62
0
370
-1
 48
1.0
  6
BYLAYER
100
AcDbLine
 10
329.3090200000000323
 20
4.6067669999999907
 30
0.0
 11
329.2630200000000968
 21
4.2168070000000171
 31
0.0
  0
LINE
  5
70
100
AcDbEntity
  8
0
 62
0
370
-1
 48
1.0
  6
BYLAYER
100
AcDbLine
 10
329.2630200000000968
 20
4.2168070000000171
 30
0.0
 11
329.1860200000000987
 21
3.8309370000001763
 31
0.0
  0
LINE
  5
71
100
AcDbEntity
  8
0
 62
0
370
-1
 48
1.0
  6
BYLAYER
100
AcDbLine
 10
329.1860200000000987
 20
3.8309370000001763
 30
0.0
 11
329.0800200000001041
 21
3.4533670000000711
 31
0.0
  0
LINE
  5
72
100
AcDbEntity
  8
0
 62
0
370
-1
 48
1.0
  6
BYLAYER
100
AcDbLine
 10
329.0800200000001041
 20
3.4533670000000711
 30
0.0
 11
328.9450200000001132
 21
3.0854270000002089
 31
0.0
  0
LINE
  5
73
100
AcDbEntity
  8
0
 62
0
370
-1
 48
1.0
  6
BYLAYER
100
AcDbLine
 10
328.9450200000001132
 20
3.0854270000002089
 30
0.0
 11
328.7810200000001259
 21
2.7298970000001646
 31
0.0
  0
LINE
  5
74
100
AcDbEntity
  8
0
 62
0
370
-1
 48
1.0
  6
BYLAYER
100
AcDbLine
 10
328.7810200000001259
 20
2.7298970000001646
 30
0.0
 11
328.5880200000001423
 21
2.3867569999999887
 31
0.0
  0
LINE
  5
75
100
AcDbEntity
  8
0
 62
0
370
-1
 48
1.0
  6
BYLAYER
100
AcDbLine
 10
328.5880200000001423
 20
2.3867569999999887
 30
0.0
 11
328.3700200000000677
 21
2.0601670000000922
 31
0.0
  0
LINE
  5
76
100
AcDbEntity
  8
0
 62
0
370
-1
 48
1.0
  6
BYLAYER
100
AcDbLine
 10
328.3700200000000677
 20
2.0601670000000922
 30
0.0
 11
328.1280200000001059
 21
1.7514869999999974
 31
0.0
  0
LINE
  5
77
100
AcDbEntity
  8
0
 62
0
370
-1
 48
1.0
  6
BYLAYER
100
AcDbLine
 10
328.1280200000001059
 20
1.7514869999999974
 30
0.0
 11
327.8610200000000532
 21
1.4634770000000117
 31
0.0
  0
LINE
  5
78
100
AcDbEntity
  8
0
 62
0
370
-1
 48
1.0
  6
BYLAYER
100
AcDbLine
 10
327.8610200000000532
 20
1.4634770000000117
 30
0.0
 11
327.5720200000000659
 21
1.1961370000001352
 31
0.0
  0
LINE
  5
79
100
AcDbEntity
  8
0
 62
0
370
-1
 48
1.0
  6
BYLAYER
100
AcDbLine
 10
327.5720200000000659
 20
1.1961370000001352
 30
0.0
 11
327.2640200000000732
 21
0.9535970000001726
 31
0.0
  0
LINE
  5
7A
100
AcDbEntity
  8
0
 62
0
370
-1
 48
1.0
  6
BYLAYER
100
AcDbLine
 10
327.2640200000000732
 20
0.9535970000001726
 30
0.0
 11
326.937020000000075
 21
0.7358770000000732
 31
0.0
  0
LINE
  5
7B
100
AcDbEntity
  8
0
 62
0
370
-1
 48
1.0
  6
BYLAYER
100
AcDbLine
 10
326.937020000000075
 20
0.7358770000000732
 30
0.0
 11
326.5940200000000004
 21
0.542946000000029
 31
0.0
  0
LINE
  5
7C
100
AcDbEntity
  8
0
 62
0
370
-1
 48
1.0
  6
BYLAYER
100
AcDbLine
 10
326.5940200000000004
 20
0.542946000000029
 30
0.0
 11
326.2390199999999822
 21
0.3789610000001176
 31
0.0
  0
LINE
  5
7D
100
AcDbEntity
  8
0
 62
0
370
-1
 48
1.0
  6
BYLAYER
100
AcDbLine
 10
326.2390199999999822
 20
0.3789610000001176
 30
0.0
 11
325.8710200000000441
 21
0.2439100000001417
 31
0.0
  0
LINE
  5
7E
100
AcDbEntity
  8
0
 62
0
370
-1
 48
1.0
  6
BYLAYER
100
AcDbLine
 10
325.8710200000000441
 20
0.2439100000001417
 30
0.0
 11
325.493020000000115
 21
0.1378020000001925
 31
0.0
  0
LINE
  5
7F
100
AcDbEntity
  8
0
 62
0
370
-1
 48
1.0
  6
BYLAYER
100
AcDbLine
 10
325.493020000000115
 20
0.1378020000001925
 30
0.0
 11
325.1070200000000341
 21
0.0606320000001688
 31
0.0
  0
LINE
  5
80
100
AcDbEntity
  8
0
 62
0
370
-1
 48
1.0
  6
BYLAYER
100
AcDbLine
 10
325.1070200000000341
 20
0.0606320000001688
 30
0.0
 11
324.7170200000000477
 21
0.0151590000000397
 31
0.0
  0
LINE
  5
81
100
AcDbEntity
  8
0
 62
0
370
-1
 48
1.0
  6
BYLAYER
100
AcDbLine
 10
324.7170200000000477
 20
0.0151590000000397
 30
0.0
 11
324.326020000000085
 21
-0.0013799999999264
 31
0.0
  0
LINE
  5
82
100
AcDbEntity
  8
0
 62
0
370
-1
 48
1.0
  6
BYLAYER
100
AcDbLine
 10
324.326020000000085
 20
-0.0013799999999264
 30
0.0
 11
5.0
 21
0.0
 31
0.0
  0
LINE
  5
83
100
AcDbEntity
  8
0
 62
0
370
-1
 48
1.0
  6
BYLAYER
100
AcDbLine
 10
5.0
 20
0.0
 30
0.0
 11
4.6058800000000701
 21
0.0151590000000397
 31
0.0
  0
LINE
  5
84
100
AcDbEntity
  8
0
 62
0
370
-1
 48
1.0
  6
BYLAYER
100
AcDbLine
 10
4.6058800000000701
 20
0.0151590000000397
 30
0.0
 11
4.2159199999999828
 21
0.0606320000001688
 31
0.0
  0
LINE
  5
85
100
AcDbEntity
  8
0
 62
0
370
-1
 48
1.0
  6
BYLAYER
100
AcDbLine
 10
4.2159199999999828
 20
0.0606320000001688
 30
0.0
 11
3.8314199999999801
 21
0.1378020000001925
 31
0.0
  0
LINE
  5
86
100
AcDbEntity
  8
0
 62
0
370
-1
 48
1.0
  6
BYLAYER
100
AcDbLine
 10
3.8314199999999801
 20
0.1378020000001925
 30
0.0
 11
3.4538499999999885
 21
0.2439100000001417
 31
0.0
  0
LINE
  5
87
100
AcDbEntity
  8
0
 62
0
370
-1
 48
1.0
  6
BYLAYER
100
AcDbLine
 10
3.4538499999999885
 20
0.2439100000001417
 30
0.0
 11
3.0859100000000126
 21
0.3789610000001176
 31
0.0
  0
LINE
  5
88
100
AcDbEntity
  8
0
 62
0
370
-1
 48
1.0
  6
BYLAYER
100
AcDbLine
 10
3.0859100000000126
 20
0.3789610000001176
 30
0.0
 11
2.7290000000000418
 21
0.542946000000029
 31
0.0
  0
LINE
  5
89
100
AcDbEntity
  8
0
 62
0
370
-1
 48
1.0
  6
BYLAYER
100
AcDbLine
 10
2.7290000000000418
 20
0.542946000000029
 30
0.0
 11
2.3858700000000681
 21
0.7358770000000732
 31
0.0
  0
LINE
  5
8A
100
AcDbEntity
  8
0
 62
0
370
-1
 48
1.0
  6
BYLAYER
100
AcDbLine
 10
2.3858700000000681
 20
0.7358770000000732
 30
0.0
 11
2.0606500000000096
 21
0.9535970000001726
 31
0.0
  0
LINE
  5
8B
100
AcDbEntity
  8
0
 62
0
370
-1
 48
1.0
  6
BYLAYER
100
AcDbLine
 10
2.0606500000000096
 20
0.9535970000001726
 30
0.0
 11
1.7519700000000284
 21
1.1961370000001352
 31
0.0
  0
LINE
  5
8C
100
AcDbEntity
  8
0
 62
0
370
-1
 48
1.0
  6
BYLAYER
100
AcDbLine
 10
1.7519700000000284
 20
1.1961370000001352
 30
0.0
 11
1.4639600000000428
 21
1.4634770000000117
 31
0.0
  0
LINE
  5
8D
100
AcDbEntity
  8
0
 62
0
370
-1
 48
1.0
  6
BYLAYER
100
AcDbLine
 10
1.4639600000000428
 20
1.4634770000000117
 30
0.0
 11
1.1966200000000526
 21
1.7514869999999974
 31
0.0
  0
LINE
  5
8E
100
AcDbEntity
  8
0
 62
0
370
-1
 48
1.0
  6
BYLAYER
100
AcDbLine
 10
1.1966200000000526
 20
1.7514869999999974
 30
0.0
 11
0.9540799999999763
 21
2.0601670000000922
 31
0.0
  0
LINE
  5
8F
100
AcDbEntity
  8
0
 62
0
370
-1
 48
1.0
  6
BYLAYER
100
AcDbLine
 10
0.9540799999999763
 20
2.0601670000000922
 30
0.0
 11
0.7349770000000717
 21
2.3867569999999887
 31
0.0
  0
LINE
  5
90
100
AcDbEntity
  8
0
 62
0
370
-1
 48
1.0
  6
BYLAYER
100
AcDbLine
 10
0.7349770000000717
 20
2.3867569999999887
 30
0.0
 11
0.5434300000000576
 21
2.7298970000001646
 31
0.0
  0
LINE
  5
91
100
AcDbEntity
  8
0
 62
0
370
-1
 48
1.0
  6
BYLAYER
100
AcDbLine
 10
0.5434300000000576
 20
2.7298970000001646
 30
0.0
 11
0.379444000000035
 21
3.0854270000002089
 31
0.0
  0
LINE
  5
92
100
AcDbEntity
  8
0
 62
0
370
-1
 48
1.0
  6
BYLAYER
100
AcDbLine
 10
0.379444000000035
 20
3.0854270000002089
 30
0.0
 11
0.2430180000000064
 21
3.4533670000000711
 31
0.0
  0
LINE
  5
93
100
AcDbEntity
  8
0
 62
0
370
-1
 48
1.0
  6
BYLAYER
100
AcDbLine
 10
0.2430180000000064
 20
3.4533670000000711
 30
0.0
 11
0.1369080000000622
 21
3.8309370000001763
 31
0.0
  0
LINE
  5
94
100
AcDbEntity
  8
0
 62
0
370
-1
 48
1.0
  6
BYLAYER
100
AcDbLine
 10
0.1369080000000622
 20
3.8309370000001763
 30
0.0
 11
0.0611170000000811
 21
4.2168070000000171
 31
0.0
  0
LINE
  5
95
100
AcDbEntity
  8
0
 62
0
370
-1
 48
1.0
  6
BYLAYER
100
AcDbLine
 10
0.0611170000000811
 20
4.2168070000000171
 30
0.0
 11
0.0142630000000281
 21
4.6067669999999907
 31
0.0
  0
LINE
  5
96
100
AcDbEntity
  8
0
 62
0
370
-1
 48
1.0
  6
BYLAYER
100
AcDbLine
 10
0.0142630000000281
 20
4.6067669999999907
 30
0.0
 11
-0.0008953999999903
 21
4.9995170000001963
 31
0.0
  0
LINE
  5
97
100
AcDbEntity
  8
0
 62
0
370
-1
 48
1.0
  6
BYLAYER
100
AcDbLine
 10
-0.0008953999999903
 20
4.9995170000001963
 30
0.0
 11
-0.0008953999999903
 21
105.248807000000113
 31
0.0
  0
LINE
  5
98
100
AcDbEntity
  8
0
 62
0
370
-1
 48
1.0
  6
BYLAYER
100
AcDbLine
 10
-0.0008953999999903
 20
105.248807000000113
 30
0.0
 11
0.0142630000000281
 21
105.6428070000001185
 31
0.0
  0
LINE
  5
99
100
AcDbEntity
  8
0
 62
0
370
-1
 48
1.0
  6
BYLAYER
100
AcDbLine
 10
0.0142630000000281
 20
105.6428070000001185
 30
0.0
 11
0.0611170000000811
 21
106.0328069999999911
 31
0.0
  0
LINE
  5
9A
100
AcDbEntity
  8
0
 62
0
370
-1
 48
1.0
  6
BYLAYER
100
AcDbLine
 10
0.0611170000000811
 20
106.0328069999999911
 30
0.0
 11
0.1369080000000622
 21
106.4178070000000957
 31
0.0
  0
LINE
  5
9B
100
AcDbEntity
  8
0
 62
0
370
-1
 48
1.0
  6
BYLAYER
100
AcDbLine
 10
0.1369080000000622
 20
106.4178070000000957
 30
0.0
 11
0.2430180000000064
 21
106.7958070000001385
 31
0.0
  0
LINE
  5
9C
100
AcDbEntity
  8
0
 62
0
370
-1
 48
1.0
  6
BYLAYER
100
AcDbLine
 10
0.2430180000000064
 20
106.7958070000001385
 30
0.0
 11
0.379444000000035
 21
107.1628070000001003
 31
0.0
  0
LINE
  5
9D
100
AcDbEntity
  8
0
 62
0
370
-1
 48
1.0
  6
BYLAYER
100
AcDbLine
 10
0.379444000000035
 20
107.1628070000001003
 30
0.0
 11
0.5434300000000576
 21
107.5198070000000712
 31
0.0
  0
LINE
  5
9E
100
AcDbEntity
  8
0
 62
0
370
-1
 48
1.0
  6
BYLAYER
100
AcDbLine
 10
0.5434300000000576
 20
107.5198070000000712
 30
0.0
 11
0.7349770000000717
 21
107.8628070000001458
 31
0.0
  0
LINE
  5
9F
100
AcDbEntity
  8
0
 62
0
370
-1
 48
1.0
  6
BYLAYER
100
AcDbLine
 10
0.7349770000000717
 20
107.8628070000001458
 30
0.0
 11
0.9540799999999763
 21
108.1888070000000539
 31
0.0
  0
LINE
  5
A0
100
AcDbEntity
  8
0
 62
0
370
-1
 48
1.0
  6
BYLAYER
100
AcDbLine
 10
0.9540799999999763
 20
108.1888070000000539
 30
0.0
 11
1.1966200000000526
 21
108.4968070000000466
 31
0.0
  0
LINE
  5
A1
100
AcDbEntity
  8
0
 62
0
370
-1
 48
1.0
  6
BYLAYER
100
AcDbLine
 10
1.1966200000000526
 20
108.4968070000000466
 30
0.0
 11
1.4639600000000428
 21
108.7848070000000575
 31
0.0
  0
LINE
  5
A2
100
AcDbEntity
  8
0
 62
0
370
-1
 48
1.0
  6
BYLAYER
100
AcDbLine
 10
1.4639600000000428
 20
108.7848070000000575
 30
0.0
 11
1.7519700000000284
 21
109.0528070000000866
 31
0.0
  0
LINE
  5
A3
100
AcDbEntity
  8
0
 62
0
370
-1
 48
1.0
  6
BYLAYER
100
AcDbLine
 10
1.7519700000000284
 20
109.0528070000000866
 30
0.0
 11
2.0606500000000096
 21
109.2948070000000484
 31
0.0
  0
LINE
  5
A4
100
AcDbEntity
  8
0
 62
0
370
-1
 48
1.0
  6
BYLAYER
100
AcDbLine
 10
2.0606500000000096
 20
109.2948070000000484
 30
0.0
 11
2.3858700000000681
 21
109.5138070000000994
 31
0.0
  0
LINE
  5
A5
100
AcDbEntity
  8
0
 62
0
370
-1
 48
1.0
  6
BYLAYER
100
AcDbLine
 10
2.3858700000000681
 20
109.5138070000000994
 30
0.0
 11
2.7290000000000418
 21
109.705806999999993
 31
0.0
  0
LINE
  5
A6
100
AcDbEntity
  8
0
 62
0
370
-1
 48
1.0
  6
BYLAYER
100
AcDbLine
 10
2.7290000000000418
 20
109.705806999999993
 30
0.0
 11
3.0859100000000126
 21
109.8698070000000939
 31
0.0
  0
LINE
  5
A7
100
AcDbEntity
  8
0
 62
0
370
-1
 48
1.0
  6
BYLAYER
100
AcDbLine
 10
3.0859100000000126
 20
109.8698070000000939
 30
0.0
 11
3.4538499999999885
 21
110.0058070000000612
 31
0.0
  0
LINE
  5
A8
100
AcDbEntity
  8
0
 62
0
370
-1
 48
1.0
  6
BYLAYER
100
AcDbLine
 10
3.4538499999999885
 20
110.0058070000000612
 30
0.0
 11
3.8314199999999801
 21
110.1118070000000557
 31
0.0
  0
LINE
  5
A9
100
AcDbEntity
  8
0
 62
0
370
-1
 48
1.0
  6
BYLAYER
100
AcDbLine
 10
3.8314199999999801
 20
110.1118070000000557
 30
0.0
 11
4.2159199999999828
 21
110.1878070000000776
 31
0.0
  0
LINE
  5
AA
100
AcDbEntity
  8
0
 62
0
370
-1
 48
1.0
  6
BYLAYER
100
AcDbLine
 10
4.2159199999999828
 20
110.1878070000000776
 30
0.0
 11
4.6058800000000701
 21
110.234807000000103
 31
0.0
  0
LINE
  5
AB
100
AcDbEntity
  8
0
 62
0
370
-1
 48
1.0
  6
BYLAYER
100
AcDbLine
 10
4.6058800000000701
 20
110.234807000000103
 30
0.0
 11
5.0
 21
110.2498070000000894
 31
0.0
  0
LINE
  5
AC
100
AcDbEntity
  8
0
 62
0
370
-1
 48
1.0
  6
BYLAYER
100
AcDbLine
 10
5.0
 20
110.2498070000000894
 30
0.0
 11
324.326020000000085
 21
110.2498070000000894
 31
0.0
  0
LINE
  5
AD
100
AcDbEntity
  8
0
 62
0
370
-1
 48
1.0
  6
BYLAYER
100
AcDbLine
 10
325.2660200000000259
 20
4.700507000000016
 30
0.0
 11
324.9870200000000295
 21
4.5585470000000896
 31
0.0
  0
LINE
  5
AE
100
AcDbEntity
  8
0
 62
0
370
-1
 48
1.0
  6
BYLAYER
100
AcDbLine
 10
324.9870200000000295
 20
4.5585470000000896
 30
0.0
 11
324.7650200000000495
 21
4.3366869999999835
 31
0.0
  0
LINE
  5
AF
100
AcDbEntity
  8
0
 62
0
370
-1
 48
1.0
  6
BYLAYER
100
AcDbLine
 10
324.7650200000000495
 20
4.3366869999999835
 30
0.0
 11
324.6240200000000868
 21
4.0583070000000134
 31
0.0
  0
LINE
  5
B0
100
AcDbEntity
  8
0
 62
0
370
-1
 48
1.0
  6
BYLAYER
100
AcDbLine
 10
324.6240200000000868
 20
4.0583070000000134
 30
0.0
 11
324.575019999999995
 21
3.7496270000001459
 31
0.0
  0
LINE
  5
B1
100
AcDbEntity
  8
0
 62
0
370
-1
 48
1.0
  6
BYLAYER
100
AcDbLine
 10
324.575019999999995
 20
3.7496270000001459
 30
0.0
 11
324.6240200000000868
 21
3.4395670000001246
 31
0.0
  0
LINE
  5
B2
100
AcDbEntity
  8
0
 62
0
370
-1
 48
1.0
  6
BYLAYER
100
AcDbLine
 10
324.6240200000000868
 20
3.4395670000001246
 30
0.0
 11
324.7650200000000495
 21
3.1612270000000535
 31
0.0
  0
LINE
  5
B3
100
AcDbEntity
  8
0
 62
0
370
-1
 48
1.0
  6
BYLAYER
100
AcDbLine
 10
324.7650200000000495
 20
3.1612270000000535
 30
0.0
 11
324.9870200000000295
 21
2.9393570000002001
 31
0.0
  0
LINE
  5
B4
100
AcDbEntity
  8
0
 62
0
370
-1
 48
1.0
  6
BYLAYER
100
AcDbLine
 10
324.9870200000000295
 20
2.9393570000002001
 30
0.0
 11
325.2660200000000259
 21
2.7974169999999958
 31
0.0
  0
LINE
  5
B5
100
AcDbEntity
  8
0
 62
0
370
-1
 48
1.0
  6
BYLAYER
100
AcDbLine
 10
325.2660200000000259
 20
2.7974169999999958
 30
0.0
 11
325.576020000000085
 21
2.74918700000012
 31
0.0
  0
LINE
  5
B6
100
AcDbEntity
  8
0
 62
0
370
-1
 48
1.0
  6
BYLAYER
100
AcDbLine
 10
325.576020000000085
 20
2.74918700000012
 30
0.0
 11
325.8840200000000777
 21
2.7974169999999958
 31
0.0
  0
LINE
  5
B7
100
AcDbEntity
  8
0
 62
0
370
-1
 48
1.0
  6
BYLAYER
100
AcDbLine
 10
325.8840200000000777
 20
2.7974169999999958
 30
0.0
 11
326.1630200000000741
 21
2.9393570000002001
 31
0.0
  0
LINE
  5
B8
100
AcDbEntity
  8
0
 62
0
370
-1
 48
1.0
  6
BYLAYER
100
AcDbLine
 10
326.1630200000000741
 20
2.9393570000002001
 30
0.0
 11
326.3850200000000541
 21
3.1612270000000535
 31
0.0
  0
LINE
  5
B9
100
AcDbEntity
  8
0
 62
0
370
-1
 48
1.0
  6
BYLAYER
100
AcDbLine
 10
326.3850200000000541
 20
3.1612270000000535
 30
0.0
 11
326.5260200000000168
 21
3.4395670000001246
 31
0.0
  0
LINE
  5
BA
100
AcDbEntity
  8
0
 62
0
370
-1
 48
1.0
  6
BYLAYER
100
AcDbLine
 10
326.5260200000000168
 20
3.4395670000001246
 30
0.0
 11
326.575019999999995
 21
3.7496270000001459
 31
0.0
  0
LINE
  5
BB
100
AcDbEntity
  8
0
 62
0
370
-1
 48
1.0
  6
BYLAYER
100
AcDbLine
 10
326.575019999999995
 20
3.7496270000001459
 30
0.0
 11
326.5260200000000168
 21
4.0583070000000134
 31
0.0
  0
LINE
  5
BC
100
AcDbEntity
  8
0
 62
0
370
-1
 48
1.0
  6
BYLAYER
100
AcDbLine
 10
326.5260200000000168
 20
4.0583070000000134
 30
0.0
 11
326.3850200000000541
 21
4.3366869999999835
 31
0.0
  0
LINE
  5
BD
100
AcDbEntity
  8
0
 62
0
370
-1
 48
1.0
  6
BYLAYER
100
AcDbLine
 10
326.3850200000000541
 20
4.3366869999999835
 30
0.0
 11
326.1630200000000741
 21
4.5585470000000896
 31
0.0
  0
LINE
  5
BE
100
AcDbEntity
  8
0
 62
0
370
-1
 48
1.0
  6
BYLAYER
100
AcDbLine
 10
326.1630200000000741
 20
4.5585470000000896
 30
0.0
 11
325.8840200000000777
 21
4.700507000000016
 31
0.0
  0
LINE
  5
BF
100
AcDbEntity
  8
0
 62
0
370
-1
 48
1.0
  6
BYLAYER
100
AcDbLine
 10
325.8840200000000777
 20
4.700507000000016
 30
0.0
 11
325.576020000000085
 21
4.7501070000000709
 31
0.0
  0
LINE
  5
C0
100
AcDbEntity
  8
0
 62
0
370
-1
 48
1.0
  6
BYLAYER
100
AcDbLine
 10
325.576020000000085
 20
4.7501070000000709
 30
0.0
 11
325.2660200000000259
 21
4.700507000000016
 31
0.0
  0
LINE
  5
C1
100
AcDbEntity
  8
0
 62
0
370
-1
 48
1.0
  6
BYLAYER
100
AcDbLine
 10
164.3520200000000386
 20
4.700507000000016
 30
0.0
 11
164.0740200000000186
 21
4.5585470000000896
 31
0.0
  0
LINE
  5
C2
100
AcDbEntity
  8
0
 62
0
370
-1
 48
1.0
  6
BYLAYER
100
AcDbLine
 10
164.0740200000000186
 20
4.5585470000000896
 30
0.0
 11
163.8520200000000386
 21
4.3366869999999835
 31
0.0
  0
LINE
  5
C3
100
AcDbEntity
  8
0
 62
0
370
-1
 48
1.0
  6
BYLAYER
100
AcDbLine
 10
163.8520200000000386
 20
4.3366869999999835
 30
0.0
 11
163.7100200000000996
 21
4.0583070000000134
 31
0.0
  0
LINE
  5
C4
100
AcDbEntity
  8
0
 62
0
370
-1
 48
1.0
  6
BYLAYER
100
AcDbLine
 10
163.7100200000000996
 20
4.0583070000000134
 30
0.0
 11
163.6630200000000741
 21
3.7496270000001459
 31
0.0
  0
LINE
  5
C5
100
AcDbEntity
  8
0
 62
0
370
-1
 48
1.0
  6
BYLAYER
100
AcDbLine
 10
163.6630200000000741
 20
3.7496270000001459
 30
0.0
 11
163.7100200000000996
 21
3.4395670000001246
 31
0.0
  0
LINE
  5
C6
100
AcDbEntity
  8
0
 62
0
370
-1
 48
1.0
  6
BYLAYER
100
AcDbLine
 10
163.7100200000000996
 20
3.4395670000001246
 30
0.0
 11
163.8520200000000386
 21
3.1612270000000535
 31
0.0
  0
LINE
  5
C7
100
AcDbEntity
  8
0
 62
0
370
-1
 48
1.0
  6
BYLAYER
100
AcDbLine
 10
163.8520200000000386
 20
3.1612270000000535
 30
0.0
 11
164.0740200000000186
 21
2.9393570000002001
 31
0.0
  0
LINE
  5
C8
100
AcDbEntity
  8
0
 62
0
370
-1
 48
1.0
  6
BYLAYER
100
AcDbLine
 10
164.0740200000000186
 20
2.9393570000002001
 30
0.0
 11
164.3520200000000386
 21
2.7974169999999958
 31
0.0
  0
LINE
  5
C9
100
AcDbEntity
  8
0
 62
0
370
-1
 48
1.0
  6
BYLAYER
100
AcDbLine
 10
164.3520200000000386
 20
2.7974169999999958
 30
0.0
 11
164.6620200000000978
 21
2.74918700000012
 31
0.0
  0
LINE
  5
CA
100
AcDbEntity
  8
0
 62
0
370
-1
 48
1.0
  6
BYLAYER
100
AcDbLine
 10
164.6620200000000978
 20
2.74918700000012
 30
0.0
 11
164.9710200000000668
 21
2.7974169999999958
 31
0.0
  0
LINE
  5
CB
100
AcDbEntity
  8
0
 62
0
370
-1
 48
1.0
  6
BYLAYER
100
AcDbLine
 10
164.9710200000000668
 20
2.7974169999999958
 30
0.0
 11
165.2490200000000868
 21
2.9393570000002001
 31
0.0
  0
LINE
  5
CC
100
AcDbEntity
  8
0
 62
0
370
-1
 48
1.0
  6
BYLAYER
100
AcDbLine
 10
165.2490200000000868
 20
2.9393570000002001
 30
0.0
 11
165.4710200000000668
 21
3.1612270000000535
 31
0.0
  0
LINE
  5
CD
100
AcDbEntity
  8
0
 62
0
370
-1
 48
1.0
  6
BYLAYER
100
AcDbLine
 10
165.4710200000000668
 20
3.1612270000000535
 30
0.0
 11
165.6130200000000059
 21
3.4395670000001246
 31
0.0
  0
LINE
  5
CE
100
AcDbEntity
  8
0
 62
0
370
-1
 48
1.0
  6
BYLAYER
100
AcDbLine
 10
165.6130200000000059
 20
3.4395670000001246
 30
0.0
 11
165.6630200000000741
 21
3.7496270000001459
 31
0.0
  0
LINE
  5
CF
100
AcDbEntity
  8
0
 62
0
370
-1
 48
1.0
  6
BYLAYER
100
AcDbLine
 10
165.6630200000000741
 20
3.7496270000001459
 30
0.0
 11
165.6130200000000059
 21
4.0583070000000134
 31
0.0
  0
LINE
  5
D0
100
AcDbEntity
  8
0
 62
0
370
-1
 48
1.0
  6
BYLAYER
100
AcDbLine
 10
165.6130200000000059
 20
4.0583070000000134
 30
0.0
 11
165.4710200000000668
 21
4.3366869999999835
 31
0.0
  0
LINE
  5
D1
100
AcDbEntity
  8
0
 62
0
370
-1
 48
1.0
  6
BYLAYER
100
AcDbLine
 10
165.4710200000000668
 20
4.3366869999999835
 30
0.0
 11
165.2490200000000868
 21
4.5585470000000896
 31
0.0
  0
LINE
  5
D2
100
AcDbEntity
  8
0
 62
0
370
-1
 48
1.0
  6
BYLAYER
100
AcDbLine
 10
165.2490200000000868
 20
4.5585470000000896
 30
0.0
 11
164.9710200000000668
 21
4.700507000000016
 31
0.0
  0
LINE
  5
D3
100
AcDbEntity
  8
0
 62
0
370
-1
 48
1.0
  6
BYLAYER
100
AcDbLine
 10
164.9710200000000668
 20
4.700507000000016
 30
0.0
 11
164.6620200000000978
 21
4.7501070000000709
 31
0.0
  0
LINE
  5
D4
100
AcDbEntity
  8
0
 62
0
370
-1
 48
1.0
  6
BYLAYER
100
AcDbLine
 10
164.6620200000000978
 20
4.7501070000000709
 30
0.0
 11
164.3520200000000386
 21
4.700507000000016
 31
0.0
  0
LINE
  5
D5
100
AcDbEntity
  8
0
 62
0
370
-1
 48
1.0
  6
BYLAYER
100
AcDbLine
 10
3.440050000000042
 20
4.700507000000016
 30
0.0
 11
3.1616999999999962
 21
4.5585470000000896
 31
0.0
  0
LINE
  5
D6
100
AcDbEntity
  8
0
 62
0
370
-1
 48
1.0
  6
BYLAYER
100
AcDbLine
 10
6.6421500000000151
 20
104.6422000000000025
 30
0.0
 11
6.3637999999999693
 21
104.5002400000000762
 31
0.0
  0
LINE
  5
D7
100
AcDbEntity
  8
0
 62
0
370
-1
 48
1.0
  6
BYLAYER
100
AcDbLine
 10
164.3538399999999911
 20
104.6421999999999741
 30
0.0
 11
164.0754899999999452
 21
104.5002400000000478
 31
0.0
  0
LINE
  5
D8
100
AcDbEntity
  8
0
 62
0
370
-1
 48
1.0
  6
BYLAYER
100
AcDbLine
 10
321.6908399999999801
 20
104.6421999999999741
 30
0.0
 11
321.4124899999999343
 21
104.5002400000000478
 31
0.0
  0
LINE
  5
D9
100
AcDbEntity
  8
0
 62
0
370
-1
 48
1.0
  6
BYLAYER
100
AcDbLine
 10
3.1616999999999962
 20
4.5585470000000896
 30
0.0
 11
2.9398400000000038
 21
4.3366869999999835
 31
0.0
  0
LINE
  5
DA
100
AcDbEntity
  8
0
 62
0
370
-1
 48
1.0
  6
BYLAYER
100
AcDbLine
 10
6.3637999999999693
 20
104.5002400000000762
 30
0.0
 11
6.1419399999999769
 21
104.2783799999999701
 31
0.0
  0
LINE
  5
DB
100
AcDbEntity
  8
0
 62
0
370
-1
 48
1.0
  6
BYLAYER
100
AcDbLine
 10
164.0754899999999452
 20
104.5002400000000478
 30
0.0
 11
163.8536299999999528
 21
104.2783799999999417
 31
0.0
  0
LINE
  5
DC
100
AcDbEntity
  8
0
 62
0
370
-1
 48
1.0
  6
BYLAYER
100
AcDbLine
 10
321.4124899999999343
 20
104.5002400000000478
 30
0.0
 11
321.1906299999999419
 21
104.2783799999999417
 31
0.0
  0
LINE
  5
DD
100
AcDbEntity
  8
0
 62
0
370
-1
 48
1.0
  6
BYLAYER
100
AcDbLine
 10
2.9398400000000038
 20
4.3366869999999835
 30
0.0
 11
2.7979000000000269
 21
4.0583070000000134
 31
0.0
  0
LINE
  5
DE
100
AcDbEntity
  8
0
 62
0
370
-1
 48
1.0
  6
BYLAYER
100
AcDbLine
 10
6.1419399999999769
 20
104.2783799999999701
 30
0.0
 11
6.0
 21
104.0
 31
0.0
  0
LINE
  5
DF
100
AcDbEntity
  8
0
 62
0
370
-1
 48
1.0
  6
BYLAYER
100
AcDbLine
 10
163.8536299999999528
 20
104.2783799999999417
 30
0.0
 11
163.711689999999976
 21
103.9999999999999716
 31
0.0
  0
LINE
  5
E0
100
AcDbEntity
  8
0
 62
0
370
-1
 48
1.0
  6
BYLAYER
100
AcDbLine
 10
321.1906299999999419
 20
104.2783799999999417
 30
0.0
 11
321.048689999999965
 21
103.9999999999999716
 31
0.0
  0
LINE
  5
E1
100
AcDbEntity
  8
0
 62
0
370
-1
 48
1.0
  6
BYLAYER
100
AcDbLine
 10
2.7979000000000269
 20
4.0583070000000134
 30
0.0
 11
2.7482899999999972
 21
3.7496270000001459
 31
0.0
  0
LINE
  5
E2
100
AcDbEntity
  8
0
 62
0
370
-1
 48
1.0
  6
BYLAYER
100
AcDbLine
 10
6.0
 20
104.0
 30
0.0
 11
5.9503899999999703
 21
103.6913200000001325
 31
0.0
  0
LINE
  5
E3
100
AcDbEntity
  8
0
 62
0
370
-1
 48
1.0
  6
BYLAYER
100
AcDbLine
 10
163.711689999999976
 20
103.9999999999999716
 30
0.0
 11
163.6620799999999463
 21
103.6913200000001041
 31
0.0
  0
LINE
  5
E4
100
AcDbEntity
  8
0
 62
0
370
-1
 48
1.0
  6
BYLAYER
100
AcDbLine
 10
321.048689999999965
 20
103.9999999999999716
 30
0.0
 11
320.9990799999999354
 21
103.6913200000001041
 31
0.0
  0
LINE
  5
E5
100
AcDbEntity
  8
0
 62
0
370
-1
 48
1.0
  6
BYLAYER
100
AcDbLine
 10
2.7482899999999972
 20
3.7496270000001459
 30
0.0
 11
2.7979000000000269
 21
3.4395670000001246
 31
0.0
  0
LINE
  5
E6
100
AcDbEntity
  8
0
 62
0
370
-1
 48
1.0
  6
BYLAYER
100
AcDbLine
 10
5.9503899999999703
 20
103.6913200000001325
 30
0.0
 11
6.0
 21
103.3812600000001112
 31
0.0
  0
LINE
  5
E7
100
AcDbEntity
  8
0
 62
0
370
-1
 48
1.0
  6
BYLAYER
100
AcDbLine
 10
163.6620799999999463
 20
103.6913200000001041
 30
0.0
 11
163.711689999999976
 21
103.3812600000000828
 31
0.0
  0
LINE
  5
E8
100
AcDbEntity
  8
0
 62
0
370
-1
 48
1.0
  6
BYLAYER
100
AcDbLine
 10
320.9990799999999354
 20
103.6913200000001041
 30
0.0
 11
321.048689999999965
 21
103.3812600000000828
 31
0.0
  0
LINE
  5
E9
100
AcDbEntity
  8
0
 62
0
370
-1
 48
1.0
  6
BYLAYER
100
AcDbLine
 10
2.7979000000000269
 20
3.4395670000001246
 30
0.0
 11
2.9398400000000038
 21
3.1612270000000535
 31
0.0
  0
LINE
  5
EA
100
AcDbEntity
  8
0
 62
0
370
-1
 48
1.0
  6
BYLAYER
100
AcDbLine
 10
6.0
 20
103.3812600000001112
 30
0.0
 11
6.1419399999999769
 21
103.1029200000000401
 31
0.0
  0
LINE
  5
EB
100
AcDbEntity
  8
0
 62
0
370
-1
 48
1.0
  6
BYLAYER
100
AcDbLine
 10
163.711689999999976
 20
103.3812600000000828
 30
0.0
 11
163.8536299999999528
 21
103.1029200000000117
 31
0.0
  0
LINE
  5
EC
100
AcDbEntity
  8
0
 62
0
370
-1
 48
1.0
  6
BYLAYER
100
AcDbLine
 10
321.048689999999965
 20
103.3812600000000828
 30
0.0
 11
321.1906299999999419
 21
103.1029200000000117
 31
0.0
  0
LINE
  5
ED
100
AcDbEntity
  8
0
 62
0
370
-1
 48
1.0
  6
BYLAYER
100
AcDbLine
 10
2.9398400000000038
 20
3.1612270000000535
 30
0.0
 11
3.1616999999999962
 21
2.9393570000002001
 31
0.0
  0
LINE
  5
EE
100
AcDbEntity
  8
0
 62
0
370
-1
 48
1.0
  6
BYLAYER
100
AcDbLine
 10
6.1419399999999769
 20
103.1029200000000401
 30
0.0
 11
6.3637999999999693
 21
102.8810500000001866
 31
0.0
  0
LINE
  5
EF
100
AcDbEntity
  8
0
 62
0
370
-1
 48
1.0
  6
BYLAYER
100
AcDbLine
 10
163.8536299999999528
 20
103.1029200000000117
 30
0.0
 11
164.0754899999999452
 21
102.8810500000001582
 31
0.0
  0
LINE
  5
F0
100
AcDbEntity
  8
0
 62
0
370
-1
 48
1.0
  6
BYLAYER
100
AcDbLine
 10
321.1906299999999419
 20
103.1029200000000117
 30
0.0
 11
321.4124899999999343
 21
102.8810500000001582
 31
0.0
  0
LINE
  5
F1
100
AcDbEntity
  8
0
 62
0
370
-1
 48
1.0
  6
BYLAYER
100
AcDbLine
 10
3.1616999999999962
 20
2.9393570000002001
 30
0.0
 11
3.440050000000042
 21
2.7974169999999958
 31
0.0
  0
LINE
  5
F2
100
AcDbEntity
  8
0
 62
0
370
-1
 48
1.0
  6
BYLAYER
100
AcDbLine
 10
6.3637999999999693
 20
102.8810500000001866
 30
0.0
 11
6.6421500000000151
 21
102.7391099999999824
 31
0.0
  0
LINE
  5
F3
100
AcDbEntity
  8
0
 62
0
370
-1
 48
1.0
  6
BYLAYER
100
AcDbLine
 10
164.0754899999999452
 20
102.8810500000001582
 30
0.0
 11
164.3538399999999911
 21
102.739109999999954
 31
0.0
  0
LINE
  5
F4
100
AcDbEntity
  8
0
 62
0
370
-1
 48
1.0
  6
BYLAYER
100
AcDbLine
 10
321.4124899999999343
 20
102.8810500000001582
 30
0.0
 11
321.6908399999999801
 21
102.739109999999954
 31
0.0
  0
LINE
  5
F5
100
AcDbEntity
  8
0
 62
0
370
-1
 48
1.0
  6
BYLAYER
100
AcDbLine
 10
3.440050000000042
 20
2.7974169999999958
 30
0.0
 11
3.7487300000000232
 21
2.74918700000012
 31
0.0
  0
LINE
  5
F6
100
AcDbEntity
  8
0
 62
0
370
-1
 48
1.0
  6
BYLAYER
100
AcDbLine
 10
6.6421500000000151
 20
102.7391099999999824
 30
0.0
 11
6.9508299999999963
 21
102.6908800000001065
 31
0.0
  0
LINE
  5
F7
100
AcDbEntity
  8
0
 62
0
370
-1
 48
1.0
  6
BYLAYER
100
AcDbLine
 10
164.3538399999999911
 20
102.739109999999954
 30
0.0
 11
164.6625199999999722
 21
102.6908800000000781
 31
0.0
  0
LINE
  5
F8
100
AcDbEntity
  8
0
 62
0
370
-1
 48
1.0
  6
BYLAYER
100
AcDbLine
 10
321.6908399999999801
 20
102.739109999999954
 30
0.0
 11
321.9995199999999613
 21
102.6908800000000781
 31
0.0
  0
LINE
  5
F9
100
AcDbEntity
  8
0
 62
0
370
-1
 48
1.0
  6
BYLAYER
100
AcDbLine
 10
3.7487300000000232
 20
2.74918700000012
 30
0.0
 11
4.0587900000000445
 21
2.7974169999999958
 31
0.0
  0
LINE
  5
FA
100
AcDbEntity
  8
0
 62
0
370
-1
 48
1.0
  6
BYLAYER
100
AcDbLine
 10
6.9508299999999963
 20
102.6908800000001065
 30
0.0
 11
7.2608900000000176
 21
102.7391099999999824
 31
0.0
  0
LINE
  5
FB
100
AcDbEntity
  8
0
 62
0
370
-1
 48
1.0
  6
BYLAYER
100
AcDbLine
 10
164.6625199999999722
 20
102.6908800000000781
 30
0.0
 11
164.9725799999999936
 21
102.739109999999954
 31
0.0
  0
LINE
  5
FC
100
AcDbEntity
  8
0
 62
0
370
-1
 48
1.0
  6
BYLAYER
100
AcDbLine
 10
321.9995199999999613
 20
102.6908800000000781
 30
0.0
 11
322.3095799999999826
 21
102.739109999999954
 31
0.0
  0
LINE
  5
FD
100
AcDbEntity
  8
0
 62
0
370
-1
 48
1.0
  6
BYLAYER
100
AcDbLine
 10
4.0587900000000445
 20
2.7974169999999958
 30
0.0
 11
4.3371700000000146
 21
2.9393570000002001
 31
0.0
  0
LINE
  5
FE
100
AcDbEntity
  8
0
 62
0
370
-1
 48
1.0
  6
BYLAYER
100
AcDbLine
 10
7.2608900000000176
 20
102.7391099999999824
 30
0.0
 11
7.5392699999999877
 21
102.8810500000001866
 31
0.0
  0
LINE
  5
FF
100
AcDbEntity
  8
0
 62
0
370
-1
 48
1.0
  6
BYLAYER
100
AcDbLine
 10
164.9725799999999936
 20
102.739109999999954
 30
0.0
 11
165.2509599999999637
 21
102.8810500000001582
 31
0.0
  0
LINE
  5
100
100
AcDbEntity
  8
0
 62
0
370
-1
 48
1.0
  6
BYLAYER
100
AcDbLine
 10
322.3095799999999826
 20
102.739109999999954
 30
0.0
 11
322.5879599999999527
 21
102.8810500000001582
 31
0.0
  0
LINE
  5
101
100
AcDbEntity
  8
0
 62
0
370
-1
 48
1.0
  6
BYLAYER
100
AcDbLine
 10
4.3371700000000146
 20
2.9393570000002001
 30
0.0
 11
4.559030000000007
 21
3.1612270000000535
 31
0.0
  0
LINE
  5
102
100
AcDbEntity
  8
0
 62
0
370
-1
 48
1.0
  6
BYLAYER
100
AcDbLine
 10
7.5392699999999877
 20
102.8810500000001866
 30
0.0
 11
7.7611299999999801
 21
103.1029200000000401
 31
0.0
  0
LINE
  5
103
100
AcDbEntity
  8
0
 62
0
370
-1
 48
1.0
  6
BYLAYER
100
AcDbLine
 10
165.2509599999999637
 20
102.8810500000001582
 30
0.0
 11
165.4728199999999561
 21
103.1029200000000117
 31
0.0
  0
LINE
  5
104
100
AcDbEntity
  8
0
 62
0
370
-1
 48
1.0
  6
BYLAYER
100
AcDbLine
 10
322.5879599999999527
 20
102.8810500000001582
 30
0.0
 11
322.8098199999999451
 21
103.1029200000000117
 31
0.0
  0
LINE
  5
105
100
AcDbEntity
  8
0
 62
0
370
-1
 48
1.0
  6
BYLAYER
100
AcDbLine
 10
4.559030000000007
 20
3.1612270000000535
 30
0.0
 11
4.7009900000000471
 21
3.4395670000001246
 31
0.0
  0
LINE
  5
106
100
AcDbEntity
  8
0
 62
0
370
-1
 48
1.0
  6
BYLAYER
100
AcDbLine
 10
7.7611299999999801
 20
103.1029200000000401
 30
0.0
 11
7.9030900000000202
 21
103.3812600000001112
 31
0.0
  0
LINE
  5
107
100
AcDbEntity
  8
0
 62
0
370
-1
 48
1.0
  6
BYLAYER
100
AcDbLine
 10
165.4728199999999561
 20
103.1029200000000117
 30
0.0
 11
165.6147799999999961
 21
103.3812600000000828
 31
0.0
  0
LINE
  5
108
100
AcDbEntity
  8
0
 62
0
370
-1
 48
1.0
  6
BYLAYER
100
AcDbLine
 10
322.8098199999999451
 20
103.1029200000000117
 30
0.0
 11
322.9517799999999852
 21
103.3812600000000828
 31
0.0
  0
LINE
  5
109
100
AcDbEntity
  8
0
 62
0
370
-1
 48
1.0
  6
BYLAYER
100
AcDbLine
 10
4.7009900000000471
 20
3.4395670000001246
 30
0.0
 11
4.7492100000000619
 21
3.7496270000001459
 31
0.0
  0
LINE
  5
10A
100
AcDbEntity
  8
0
 62
0
370
-1
 48
1.0
  6
BYLAYER
100
AcDbLine
 10
7.9030900000000202
 20
103.3812600000001112
 30
0.0
 11
7.951310000000035
 21
103.6913200000001325
 31
0.0
  0
LINE
  5
10B
100
AcDbEntity
  8
0
 62
0
370
-1
 48
1.0
  6
BYLAYER
100
AcDbLine
 10
165.6147799999999961
 20
103.3812600000000828
 30
0.0
 11
165.6630000000000109
 21
103.6913200000001041
 31
0.0
  0
LINE
  5
10C
100
AcDbEntity
  8
0
 62
0
370
-1
 48
1.0
  6
BYLAYER
100
AcDbLine
 10
322.9517799999999852
 20
103.3812600000000828
 30
0.0
 11
323.0
 21
103.6913200000001041
 31
0.0
  0
LINE
  5
10D
100
AcDbEntity
  8
0
 62
0
370
-1
 48
1.0
  6
BYLAYER
100
AcDbLine
 10
4.7492100000000619
 20
3.7496270000001459
 30
0.0
 11
4.7009900000000471
 21
4.0583070000000134
 31
0.0
  0
LINE
  5
10E
100
AcDbEntity
  8
0
 62
0
370
-1
 48
1.0
  6
BYLAYER
100
AcDbLine
 10
7.951310000000035
 20
103.6913200000001325
 30
0.0
 11
7.9030900000000202
 21
104.0
 31
0.0
  0
LINE
  5
10F
100
AcDbEntity
  8
0
 62
0
370
-1
 48
1.0
  6
BYLAYER
100
AcDbLine
 10
165.6630000000000109
 20
103.6913200000001041
 30
0.0
 11
165.6147799999999961
 21
103.9999999999999716
 31
0.0
  0
LINE
  5
110
100
AcDbEntity
  8
0
 62
0
370
-1
 48
1.0
  6
BYLAYER
100
AcDbLine
 10
323.0
 20
103.6913200000001041
 30
0.0
 11
322.9517799999999852
 21
103.9999999999999716
 31
0.0
  0
LINE
  5
111
100
AcDbEntity
  8
0
 62
0
370
-1
 48
1.0
  6
BYLAYER
100
AcDbLine
 10
4.7009900000000471
 20
4.0583070000000134
 30
0.0
 11
4.559030000000007
 21
4.3366869999999835
 31
0.0
  0
LINE
  5
112
100
AcDbEntity
  8
0
 62
0
370
-1
 48
1.0
  6
BYLAYER
100
AcDbLine
 10
7.9030900000000202
 20
104.0
 30
0.0
 11
7.7611299999999801
 21
104.2783799999999701
 31
0.0
  0
LINE
  5
113
100
AcDbEntity
  8
0
 62
0
370
-1
 48
1.0
  6
BYLAYER
100
AcDbLine
 10
165.6147799999999961
 20
103.9999999999999716
 30
0.0
 11
165.4728199999999561
 21
104.2783799999999417
 31
0.0
  0
LINE
  5
114
100
AcDbEntity
  8
0
 62
0
370
-1
 48
1.0
  6
BYLAYER
100
AcDbLine
 10
322.9517799999999852
 20
103.9999999999999716
 30
0.0
 11
322.8098199999999451
 21
104.2783799999999417
 31
0.0
  0
LINE
  5
115
100
AcDbEntity
  8
0
 62
0
370
-1
 48
1.0
  6
BYLAYER
100
AcDbLine
 10
4.559030000000007
 20
4.3366869999999835
 30
0.0
 11
4.3371700000000146
 21
4.5585470000000896
 31
0.0
  0
LINE
  5
116
100
AcDbEntity
  8
0
 62
0
370
-1
 48
1.0
  6
BYLAYER
100
AcDbLine
 10
7.7611299999999801
 20
104.2783799999999701
 30
0.0
 11
7.5392699999999877
 21
104.5002400000000762
 31
0.0
  0
LINE
  5
117
100
AcDbEntity
  8
0
 62
0
370
-1
 48
1.0
  6
BYLAYER
100
AcDbLine
 10
165.4728199999999561
 20
104.2783799999999417
 30
0.0
 11
165.2509599999999637
 21
104.5002400000000478
 31
0.0
  0
LINE
  5
118
100
AcDbEntity
  8
0
 62
0
370
-1
 48
1.0
  6
BYLAYER
100
AcDbLine
 10
322.8098199999999451
 20
104.2783799999999417
 30
0.0
 11
322.5879599999999527
 21
104.5002400000000478
 31
0.0
  0
LINE
  5
119
100
AcDbEntity
  8
0
 62
0
370
-1
 48
1.0
  6
BYLAYER
100
AcDbLine
 10
4.3371700000000146
 20
4.5585470000000896
 30
0.0
 11
4.0587900000000445
 21
4.700507000000016
 31
0.0
  0
LINE
  5
11A
100
AcDbEntity
  8
0
 62
0
370
-1
 48
1.0
  6
BYLAYER
100
AcDbLine
 10
7.5392699999999877
 20
104.5002400000000762
 30
0.0
 11
7.2608900000000176
 21
104.6422000000000025
 31
0.0
  0
LINE
  5
11B
100
AcDbEntity
  8
0
 62
0
370
-1
 48
1.0
  6
BYLAYER
100
AcDbLine
 10
165.2509599999999637
 20
104.5002400000000478
 30
0.0
 11
164.9725799999999936
 21
104.6421999999999741
 31
0.0
  0
LINE
  5
11C
100
AcDbEntity
  8
0
 62
0
370
-1
 48
1.0
  6
BYLAYER
100
AcDbLine
 10
322.5879599999999527
 20
104.5002400000000478
 30
0.0
 11
322.3095799999999826
 21
104.6421999999999741
 31
0.0
  0
LINE
  5
11D
100
AcDbEntity
  8
0
 62
0
370
-1
 48
1.0
  6
BYLAYER
100
AcDbLine
 10
4.0587900000000445
 20
4.700507000000016
 30
0.0
 11
3.7501100000000633
 21
4.7501070000000709
 31
0.0
  0
LINE
  5
11E
100
AcDbEntity
  8
0
 62
0
370
-1
 48
1.0
  6
BYLAYER
100
AcDbLine
 10
7.2608900000000176
 20
104.6422000000000025
 30
0.0
 11
6.9522100000000364
 21
104.6918000000000575
 31
0.0
  0
LINE
  5
11F
100
AcDbEntity
  8
0
 62
0
370
-1
 48
1.0
  6
BYLAYER
100
AcDbLine
 10
164.9725799999999936
 20
104.6421999999999741
 30
0.0
 11
164.6639000000000124
 21
104.6918000000000291
 31
0.0
  0
LINE
  5
120
100
AcDbEntity
  8
0
 62
0
370
-1
 48
1.0
  6
BYLAYER
100
AcDbLine
 10
322.3095799999999826
 20
104.6421999999999741
 30
0.0
 11
322.0009000000000015
 21
104.6918000000000291
 31
0.0
  0
LINE
  5
121
100
AcDbEntity
  8
0
 62
0
370
-1
 48
1.0
  6
BYLAYER
100
AcDbLine
 10
3.7501100000000633
 20
4.7501070000000709
 30
0.0
 11
3.440050000000042
 21
4.700507000000016
 31
0.0
  0
LINE
  5
122
100
AcDbEntity
  8
0
 62
0
370
-1
 48
1.0
  6
BYLAYER
100
AcDbLine
 10
6.9522100000000364
 20
104.6918000000000575
 30
0.0
 11
6.6421500000000151
 21
104.6422000000000025
 31
0.0
  0
LINE
  5
123
100
AcDbEntity
  8
0
 62
0
370
-1
 48
1.0
  6
BYLAYER
100
AcDbLine
 10
164.6639000000000124
 20
104.6918000000000291
 30
0.0
 11
164.3538399999999911
 21
104.6421999999999741
 31
0.0
  0
LINE
  5
124
100
AcDbEntity
  8
0
 62
0
370
-1
 48
1.0
  6
BYLAYER
100
AcDbLine
 10
322.0009000000000015
 20
104.6918000000000291
 30
0.0
 11
321.6908399999999801
 21
104.6421999999999741
 31
0.0
  0
LINE
  5
125
100
AcDbEntity
  8
0
 62
0
370
-1
 48
1.0
  6
BYLAYER
100
AcDbLine
 10
164.3520200000000386
 20
107.4508070000001112
 30
0.0
 11
164.0740200000000186
 21
107.3098070000000348
 31
0.0
  0
LINE
  5
126
100
AcDbEntity
  8
0
 62
0
370
-1
 48
1.0
  6
BYLAYER
100
AcDbLine
 10
164.0740200000000186
 20
107.3098070000000348
 30
0.0
 11
163.8520200000000386
 21
107.0878070000000548
 31
0.0
  0
LINE
  5
127
100
AcDbEntity
  8
0
 62
0
370
-1
 48
1.0
  6
BYLAYER
100
AcDbLine
 10
163.8520200000000386
 20
107.0878070000000548
 30
0.0
 11
163.7100200000000996
 21
106.8088070000000585
 31
0.0
  0
LINE
  5
128
100
AcDbEntity
  8
0
 62
0
370
-1
 48
1.0
  6
BYLAYER
100
AcDbLine
 10
163.7100200000000996
 20
106.8088070000000585
 30
0.0
 11
163.6630200000000741
 21
106.5008070000000657
 31
0.0
  0
LINE
  5
129
100
AcDbEntity
  8
0
 62
0
370
-1
 48
1.0
  6
BYLAYER
100
AcDbLine
 10
163.6630200000000741
 20
106.5008070000000657
 30
0.0
 11
163.7100200000000996
 21
106.1908070000001203
 31
0.0
  0
LINE
  5
12A
100
AcDbEntity
  8
0
 62
0
370
-1
 48
1.0
  6
BYLAYER
100
AcDbLine
 10
163.7100200000000996
 20
106.1908070000001203
 30
0.0
 11
163.8520200000000386
 21
105.9118070000001239
 31
0.0
  0
LINE
  5
12B
100
AcDbEntity
  8
0
 62
0
370
-1
 48
1.0
  6
BYLAYER
100
AcDbLine
 10
163.8520200000000386
 20
105.9118070000001239
 30
0.0
 11
164.0740200000000186
 21
105.6898070000001439
 31
0.0
  0
LINE
  5
12C
100
AcDbEntity
  8
0
 62
0
370
-1
 48
1.0
  6
BYLAYER
100
AcDbLine
 10
164.0740200000000186
 20
105.6898070000001439
 30
0.0
 11
164.3520200000000386
 21
105.5478070000000912
 31
0.0
  0
LINE
  5
12D
100
AcDbEntity
  8
0
 62
0
370
-1
 48
1.0
  6
BYLAYER
100
AcDbLine
 10
164.3520200000000386
 20
105.5478070000000912
 30
0.0
 11
164.6620200000000978
 21
105.4998070000000894
 31
0.0
  0
LINE
  5
12E
100
AcDbEntity
  8
0
 62
0
370
-1
 48
1.0
  6
BYLAYER
100
AcDbLine
 10
164.6620200000000978
 20
105.4998070000000894
 30
0.0
 11
164.9710200000000668
 21
105.5478070000000912
 31
0.0
  0
LINE
  5
12F
100
AcDbEntity
  8
0
 62
0
370
-1
 48
1.0
  6
BYLAYER
100
AcDbLine
 10
164.9710200000000668
 20
105.5478070000000912
 30
0.0
 11
165.2490200000000868
 21
105.6898070000001439
 31
0.0
  0
LINE
  5
130
100
AcDbEntity
  8
0
 62
0
370
-1
 48
1.0
  6
BYLAYER
100
AcDbLine
 10
165.2490200000000868
 20
105.6898070000001439
 30
0.0
 11
165.4710200000000668
 21
105.9118070000001239
 31
0.0
  0
LINE
  5
131
100
AcDbEntity
  8
0
 62
0
370
-1
 48
1.0
  6
BYLAYER
100
AcDbLine
 10
165.4710200000000668
 20
105.9118070000001239
 30
0.0
 11
165.6130200000000059
 21
106.1908070000001203
 31
0.0
  0
LINE
  5
132
100
AcDbEntity
  8
0
 62
0
370
-1
 48
1.0
  6
BYLAYER
100
AcDbLine
 10
165.6130200000000059
 20
106.1908070000001203
 30
0.0
 11
165.6630200000000741
 21
106.498807000000113
 31
0.0
  0
LINE
  5
133
100
AcDbEntity
  8
0
 62
0
370
-1
 48
1.0
  6
BYLAYER
100
AcDbLine
 10
165.6630200000000741
 20
106.498807000000113
 30
0.0
 11
165.6130200000000059
 21
106.8088070000000585
 31
0.0
  0
LINE
  5
134
100
AcDbEntity
  8
0
 62
0
370
-1
 48
1.0
  6
BYLAYER
100
AcDbLine
 10
165.6130200000000059
 20
106.8088070000000585
 30
0.0
 11
165.4710200000000668
 21
107.0878070000000548
 31
0.0
  0
LINE
  5
135
100
AcDbEntity
  8
0
 62
0
370
-1
 48
1.0
  6
BYLAYER
100
AcDbLine
 10
165.4710200000000668
 20
107.0878070000000548
 30
0.0
 11
165.2490200000000868
 21
107.3098070000000348
 31
0.0
  0
LINE
  5
136
100
AcDbEntity
  8
0
 62
0
370
-1
 48
1.0
  6
BYLAYER
100
AcDbLine
 10
165.2490200000000868
 20
107.3098070000000348
 30
0.0
 11
164.9710200000000668
 21
107.4508070000001112
 31
0.0
  0
LINE
  5
137
100
AcDbEntity
  8
0
 62
0
370
-1
 48
1.0
  6
BYLAYER
100
AcDbLine
 10
164.9710200000000668
 20
107.4508070000001112
 30
0.0
 11
164.6620200000000978
 21
107.4998070000000894
 31
0.0
  0
LINE
  5
138
100
AcDbEntity
  8
0
 62
0
370
-1
 48
1.0
  6
BYLAYER
100
AcDbLine
 10
164.6620200000000978
 20
107.4998070000000894
 30
0.0
 11
164.3520200000000386
 21
107.4508070000001112
 31
0.0
  0
LINE
  5
139
100
AcDbEntity
  8
0
 62
0
370
-1
 48
1.0
  6
BYLAYER
100
AcDbLine
 10
325.2660200000000259
 20
107.4508070000001112
 30
0.0
 11
324.9870200000000295
 21
107.3098070000000348
 31
0.0
  0
LINE
  5
13A
100
AcDbEntity
  8
0
 62
0
370
-1
 48
1.0
  6
BYLAYER
100
AcDbLine
 10
324.9870200000000295
 20
107.3098070000000348
 30
0.0
 11
324.7650200000000495
 21
107.0878070000000548
 31
0.0
  0
LINE
  5
13B
100
AcDbEntity
  8
0
 62
0
370
-1
 48
1.0
  6
BYLAYER
100
AcDbLine
 10
324.7650200000000495
 20
107.0878070000000548
 30
0.0
 11
324.6240200000000868
 21
106.8088070000000585
 31
0.0
  0
LINE
  5
13C
100
AcDbEntity
  8
0
 62
0
370
-1
 48
1.0
  6
BYLAYER
100
AcDbLine
 10
324.6240200000000868
 20
106.8088070000000585
 30
0.0
 11
324.575019999999995
 21
106.5008070000000657
 31
0.0
  0
LINE
  5
13D
100
AcDbEntity
  8
0
 62
0
370
-1
 48
1.0
  6
BYLAYER
100
AcDbLine
 10
324.575019999999995
 20
106.5008070000000657
 30
0.0
 11
324.6240200000000868
 21
106.1908070000001203
 31
0.0
  0
LINE
  5
13E
100
AcDbEntity
  8
0
 62
0
370
-1
 48
1.0
  6
BYLAYER
100
AcDbLine
 10
324.6240200000000868
 20
106.1908070000001203
 30
0.0
 11
324.7650200000000495
 21
105.9118070000001239
 31
0.0
  0
LINE
  5
13F
100
AcDbEntity
  8
0
 62
0
370
-1
 48
1.0
  6
BYLAYER
100
AcDbLine
 10
324.7650200000000495
 20
105.9118070000001239
 30
0.0
 11
324.9870200000000295
 21
105.6898070000001439
 31
0.0
  0
LINE
  5
140
100
AcDbEntity
  8
0
 62
0
370
-1
 48
1.0
  6
BYLAYER
100
AcDbLine
 10
324.9870200000000295
 20
105.6898070000001439
 30
0.0
 11
325.2660200000000259
 21
105.5478070000000912
 31
0.0
  0
LINE
  5
141
100
AcDbEntity
  8
0
 62
0
370
-1
 48
1.0
  6
BYLAYER
100
AcDbLine
 10
325.2660200000000259
 20
105.5478070000000912
 30
0.0
 11
325.576020000000085
 21
105.4998070000000894
 31
0.0
  0
LINE
  5
142
100
AcDbEntity
  8
0
 62
0
370
-1
 48
1.0
  6
BYLAYER
100
AcDbLine
 10
325.576020000000085
 20
105.4998070000000894
 30
0.0
 11
325.8840200000000777
 21
105.5478070000000912
 31
0.0
  0
LINE
  5
143
100
AcDbEntity
  8
0
 62
0
370
-1
 48
1.0
  6
BYLAYER
100
AcDbLine
 10
325.8840200000000777
 20
105.5478070000000912
 30
0.0
 11
326.1630200000000741
 21
105.6898070000001439
 31
0.0
  0
LINE
  5
144
100
AcDbEntity
  8
0
 62
0
370
-1
 48
1.0
  6
BYLAYER
100
AcDbLine
 10
326.1630200000000741
 20
105.6898070000001439
 30
0.0
 11
326.3850200000000541
 21
105.9118070000001239
 31
0.0
  0
LINE
  5
145
100
AcDbEntity
  8
0
 62
0
370
-1
 48
1.0
  6
BYLAYER
100
AcDbLine
 10
326.3850200000000541
 20
105.9118070000001239
 30
0.0
 11
326.5260200000000168
 21
106.1908070000001203
 31
0.0
  0
LINE
  5
146
100
AcDbEntity
  8
0
 62
0
370
-1
 48
1.0
  6
BYLAYER
100
AcDbLine
 10
326.5260200000000168
 20
106.1908070000001203
 30
0.0
 11
326.575019999999995
 21
106.498807000000113
 31
0.0
  0
LINE
  5
147
100
AcDbEntity
  8
0
 62
0
370
-1
 48
1.0
  6
BYLAYER
100
AcDbLine
 10
326.575019999999995
 20
106.498807000000113
 30
0.0
 11
326.5260200000000168
 21
106.8088070000000585
 31
0.0
  0
LINE
  5
148
100
AcDbEntity
  8
0
 62
0
370
-1
 48
1.0
  6
BYLAYER
100
AcDbLine
 10
326.5260200000000168
 20
106.8088070000000585
 30
0.0
 11
326.3850200000000541
 21
107.0878070000000548
 31
0.0
  0
LINE
  5
149
100
AcDbEntity
  8
0
 62
0
370
-1
 48
1.0
  6
BYLAYER
100
AcDbLine
 10
326.3850200000000541
 20
107.0878070000000548
 30
0.0
 11
326.1630200000000741
 21
107.3098070000000348
 31
0.0
  0
LINE
  5
14A
100
AcDbEntity
  8
0
 62
0
370
-1
 48
1.0
  6
BYLAYER
100
AcDbLine
 10
326.1630200000000741
 20
107.3098070000000348
 30
0.0
 11
325.8840200000000777
 21
107.4508070000001112
 31
0.0
  0
LINE
  5
14B
100
AcDbEntity
  8
0
 62
0
370
-1
 48
1.0
  6
BYLAYER
100
AcDbLine
 10
325.8840200000000777
 20
107.4508070000001112
 30
0.0
 11
325.576020000000085
 21
107.4998070000000894
 31
0.0
  0
LINE
  5
14C
100
AcDbEntity
  8
0
 62
0
370
-1
 48
1.0
  6
BYLAYER
100
AcDbLine
 10
325.576020000000085
 20
107.4998070000000894
 30
0.0
 11
325.2660200000000259
 21
107.4508070000001112
 31
0.0
  0
LINE
  5
14D
100
AcDbEntity
  8
0
 62
0
370
-1
 48
1.0
  6
BYLAYER
100
AcDbLine
 10
3.440050000000042
 20
107.4508070000001112
 30
0.0
 11
3.1616999999999962
 21
107.3098070000000348
 31
0.0
  0
LINE
  5
14E
100
AcDbEntity
  8
0
 62
0
370
-1
 48
1.0
  6
BYLAYER
100
AcDbLine
 10
3.1616999999999962
 20
107.3098070000000348
 30
0.0
 11
2.9398400000000038
 21
107.0878070000000548
 31
0.0
  0
LINE
  5
14F
100
AcDbEntity
  8
0
 62
0
370
-1
 48
1.0
  6
BYLAYER
100
AcDbLine
 10
2.9398400000000038
 20
107.0878070000000548
 30
0.0
 11
2.7979000000000269
 21
106.8088070000000585
 31
0.0
  0
LINE
  5
150
100
AcDbEntity
  8
0
 62
0
370
-1
 48
1.0
  6
BYLAYER
100
AcDbLine
 10
2.7979000000000269
 20
106.8088070000000585
 30
0.0
 11
2.7482899999999972
 21
106.5008070000000657
 31
0.0
  0
LINE
  5
151
100
AcDbEntity
  8
0
 62
0
370
-1
 48
1.0
  6
BYLAYER
100
AcDbLine
 10
2.7482899999999972
 20
106.5008070000000657
 30
0.0
 11
2.7979000000000269
 21
106.1908070000001203
 31
0.0
  0
LINE
  5
152
100
AcDbEntity
  8
0
 62
0
370
-1
 48
1.0
  6
BYLAYER
100
AcDbLine
 10
2.7979000000000269
 20
106.1908070000001203
 30
0.0
 11
2.9398400000000038
 21
105.9118070000001239
 31
0.0
  0
LINE
  5
153
100
AcDbEntity
  8
0
 62
0
370
-1
 48
1.0
  6
BYLAYER
100
AcDbLine
 10
2.9398400000000038
 20
105.9118070000001239
 30
0.0
 11
3.1616999999999962
 21
105.6898070000001439
 31
0.0
  0
LINE
  5
154
100
AcDbEntity
  8
0
 62
0
370
-1
 48
1.0
  6
BYLAYER
100
AcDbLine
 10
3.1616999999999962
 20
105.6898070000001439
 30
0.0
 11
3.440050000000042
 21
105.5478070000000912
 31
0.0
  0
LINE
  5
155
100
AcDbEntity
  8
0
 62
0
370
-1
 48
1.0
  6
BYLAYER
100
AcDbLine
 10
3.440050000000042
 20
105.5478070000000912
 30
0.0
 11
3.7487300000000232
 21
105.4998070000000894
 31
0.0
  0
LINE
  5
156
100
AcDbEntity
  8
0
 62
0
370
-1
 48
1.0
  6
BYLAYER
100
AcDbLine
 10
3.7487300000000232
 20
105.4998070000000894
 30
0.0
 11
4.0587900000000445
 21
105.5478070000000912
 31
0.0
  0
LINE
  5
157
100
AcDbEntity
  8
0
 62
0
370
-1
 48
1.0
  6
BYLAYER
100
AcDbLine
 10
4.0587900000000445
 20
105.5478070000000912
 30
0.0
 11
4.3371700000000146
 21
105.6898070000001439
 31
0.0
  0
LINE
  5
158
100
AcDbEntity
  8
0
 62
0
370
-1
 48
1.0
  6
BYLAYER
100
AcDbLine
 10
4.3371700000000146
 20
105.6898070000001439
 30
0.0
 11
4.559030000000007
 21
105.9118070000001239
 31
0.0
  0
LINE
  5
159
100
AcDbEntity
  8
0
 62
0
370
-1
 48
1.0
  6
BYLAYER
100
AcDbLine
 10
4.559030000000007
 20
105.9118070000001239
 30
0.0
 11
4.7009900000000471
 21
106.1908070000001203
 31
0.0
  0
LINE
  5
15A
100
AcDbEntity
  8
0
 62
0
370
-1
 48
1.0
  6
BYLAYER
100
AcDbLine
 10
4.7009900000000471
 20
106.1908070000001203
 30
0.0
 11
4.7492100000000619
 21
106.498807000000113
 31
0.0
  0
LINE
  5
15B
100
AcDbEntity
  8
0
 62
0
370
-1
 48
1.0
  6
BYLAYER
100
AcDbLine
 10
4.7492100000000619
 20
106.498807000000113
 30
0.0
 11
4.7009900000000471
 21
106.8088070000000585
 31
0.0
  0
LINE
  5
15C
100
AcDbEntity
  8
0
 62
0
370
-1
 48
1.0
  6
BYLAYER
100
AcDbLine
 10
4.7009900000000471
 20
106.8088070000000585
 30
0.0
 11
4.559030000000007
 21
107.0878070000000548
 31
0.0
  0
LINE
  5
15D
100
AcDbEntity
  8
0
 62
0
370
-1
 48
1.0
  6
BYLAYER
100
AcDbLine
 10
4.559030000000007
 20
107.0878070000000548
 30
0.0
 11
4.3371700000000146
 21
107.3098070000000348
 31
0.0
  0
LINE
  5
15E
100
AcDbEntity
  8
0
 62
0
370
-1
 48
1.0
  6
BYLAYER
100
AcDbLine
 10
4.3371700000000146
 20
107.3098070000000348
 30
0.0
 11
4.0587900000000445
 21
107.4508070000001112
 31
0.0
  0
LINE
  5
15F
100
AcDbEntity
  8
0
 62
0
370
-1
 48
1.0
  6
BYLAYER
100
AcDbLine
 10
4.0587900000000445
 20
107.4508070000001112
 30
0.0
 11
3.7501100000000633
 21
107.4998070000000894
 31
0.0
  0
LINE
  5
160
100
AcDbEntity
  8
0
 62
0
370
-1
 48
1.0
  6
BYLAYER
100
AcDbLine
 10
3.7501100000000633
 20
107.4998070000000894
 30
0.0
 11
3.440050000000042
 21
107.4508070000001112
 31
0.0
  0
ENDSEC
  0
SECTION
  2
OBJECTS
  0
DICTIONARY
  5
C
100
AcDbDictionary
280
0
281
1
  3
ACAD_GROUP
350
D
  3
ACAD_LAYOUT
350
1A
  3
ACAD_MLINESTYLE
350
17
  3
ACAD_PLOTSETTINGS
350
19
  3
ACAD_PLOTSTYLENAME
350
E
  3
AcDbVariableDictionary
350
161
  3
QCAD_OBJECTS
350
162
  0
DICTIONARY
  5
D
100
AcDbDictionary
280
0
281
1
  0
ACDBDICTIONARYWDFLT
  5
E
100
AcDbDictionary
281
1
  3
Normal
350
F
100
AcDbDictionaryWithDefault
340
F
  0
ACDBPLACEHOLDER
  5
F
  0
DICTIONARY
  5
17
100
AcDbDictionary
280
0
281
1
  3
Standard
350
18
  0
MLINESTYLE
  5
18
100
AcDbMlineStyle
  2
STANDARD
 70
0
  3

 62
256
 51
90.0
 52
90.0
 71
2
 49
0.5
 62
256
  6
BYLAYER
 49
-0.5
 62
256
  6
BYLAYER
  0
DICTIONARY
  5
19
100
AcDbDictionary
280
0
281
1
  0
DICTIONARY
  5
1A
100
AcDbDictionary
281
1
  3
Layout1
350
1E
  3
Layout2
350
26
  3
Model
350
22
  0
LAYOUT
  5
1E
100
AcDbPlotSettings
  1

  2
none_device
  4

  6

 40
0.0
 41
0.0
 42
0.0
 43
0.0
 44
0.0
 45
0.0
 46
0.0
 47
0.0
 48
0.0
 49
0.0
140
0.0
141
0.0
142
1.0
143
1.0
 70
688
 72
0
 73
0
 74
5
  7

 75
16
147
1.0
148
0.0
149
0.0
100
AcDbLayout
  1
Layout1
 70
1
 71
1
 10
0.0
 20
0.0
 11
420.0
 21
297.0
 12
0.0
 22
0.0
 32
0.0
 14
100000000000000000000.0
 24
100000000000000000000.0
 34
100000000000000000000.0
 15
-100000000000000000000.0
 25
-100000000000000000000.0
 35
-100000000000000000000.0
146
0.0
 13
0.0
 23
0.0
 33
0.0
 16
1.0
 26
0.0
 36
0.0
 17
0.0
 27
1.0
 37
0.0
 76
0
330
1B
  0
LAYOUT
  5
22
100
AcDbPlotSettings
  1

  2
none_device
  4

  6

 40
0.0
 41
0.0
 42
0.0
 43
0.0
 44
0.0
 45
0.0
 46
0.0
 47
0.0
 48
0.0
 49
0.0
140
0.0
141
0.0
142
1.0
143
1.0
 70
1712
 72
0
 73
0
 74
0
  7

 75
0
147
1.0
148
0.0
149
0.0
100
AcDbLayout
  1
Model
 70
1
 71
0
 10
0.0
 20
0.0
 11
12.0
 21
9.0
 12
0.0
 22
0.0
 32
0.0
 14
0.0
 24
0.0
 34
0.0
 15
0.0
 25
0.0
 35
0.0
146
0.0
 13
0.0
 23
0.0
 33
0.0
 16
1.0
 26
0.0
 36
0.0
 17
0.0
 27
1.0
 37
0.0
 76
0
330
1F
  0
LAYOUT
  5
26
100
AcDbPlotSettings
  1

  2
none_device
  4

  6

 40
0.0
 41
0.0
 42
0.0
 43
0.0
 44
0.0
 45
0.0
 46
0.0
 47
0.0
 48
0.0
 49
0.0
140
0.0
141
0.0
142
1.0
143
1.0
 70
688
 72
0
 73
0
 74
5
  7

 75
16
147
1.0
148
0.0
149
0.0
100
AcDbLayout
  1
Layout2
 70
1
 71
2
 10
0.0
 20
0.0
 11
12.0
 21
9.0
 12
0.0
 22
0.0
 32
0.0
 14
0.0
 24
0.0
 34
0.0
 15
0.0
 25
0.0
 35
0.0
146
0.0
 13
0.0
 23
0.0
 33
0.0
 16
1.0
 26
0.0
 36
0.0
 17
0.0
 27
1.0
 37
0.0
 76
0
330
23
  0
DICTIONARY
  5
161
100
AcDbDictionary
281
1
  3
DIMASSOC
350
164
  3
HIDETEXT
350
163
  0
DICTIONARYVAR
  5
163
100
DictionaryVariables
280
0
  1
2
  0
DICTIONARYVAR
  5
164
100
DictionaryVariables
280
0
  1
1
  0
DICTIONARY
  5
162
100
AcDbDictionary
281
1
  3
ColorSettings/BackgroundColor
350
165
  3
ColorSettings/ColorMode
350
166
  3
Grid/DisplayGrid00
350
167
  3
Grid/DisplayGrid01
350
168
  3
Grid/DisplayGrid02
350
169
  3
Grid/DisplayGrid03
350
16A
  3
Grid/GridSpacingX00
350
16B
  3
Grid/GridSpacingX01
350
16C
  3
Grid/GridSpacingX02
350
16D
  3
Grid/GridSpacingX03
350
16E
  3
Grid/GridSpacingY00
350
16F
  3
Grid/GridSpacingY01
350
170
  3
Grid/GridSpacingY02
350
171
  3
Grid/GridSpacingY03
350
172
  3
Grid/IsometricGrid00
350
173
  3
Grid/IsometricGrid01
350
174
  3
Grid/IsometricGrid02
350
175
  3
Grid/IsometricGrid03
350
176
  3
Grid/IsometricProjection00
350
177
  3
Grid/IsometricProjection01
350
178
  3
Grid/IsometricProjection02
350
179
  3
Grid/IsometricProjection03
350
17A
  3
Grid/MetaGridSpacingX00
350
17B
  3
Grid/MetaGridSpacingX01
350
17C
  3
Grid/MetaGridSpacingX02
350
17D
  3
Grid/MetaGridSpacingX03
350
17E
  3
Grid/MetaGridSpacingY00
350
17F
  3
Grid/MetaGridSpacingY01
350
180
  3
Grid/MetaGridSpacingY02
350
181
  3
Grid/MetaGridSpacingY03
350
182
  3
MultiPageSettings/Columns
350
183
  3
MultiPageSettings/GlueMarginsBottom
350
184
  3
MultiPageSettings/GlueMarginsLeft
350
185
  3
MultiPageSettings/GlueMarginsRight
350
186
  3
MultiPageSettings/GlueMarginsTop
350
187
  3
MultiPageSettings/PrintCropMarks
350
188
  3
MultiPageSettings/Rows
350
189
  3
PageSettings/OffsetX
350
18A
  3
PageSettings/OffsetY
350
18B
  3
PageSettings/PageOrientation
350
18C
  3
PageSettings/PaperHeight
350
18D
  3
PageSettings/PaperWidth
350
18E
  3
PageSettings/Scale
350
18F
  3
PageSettings/ShowPaperBorders
350
190
  3
PageTagSettings/EnablePageTags
350
191
  3
PageTagSettings/TagAlignment
350
192
  3
PageTagSettings/TagFont
350
193
  3
PageTagSettings/TagPosition
350
194
  3
QCADVersion
350
195
  3
UnitSettings/PaperUnit
350
196
  3
ViewportCenter
350
197
  3
ViewportHeight
350
198
  3
ViewportWidth
350
199
  0
XRECORD
  5
165
330
162
100
AcDbXrecord
280
1
1000
White
  0
XRECORD
  5
166
330
162
100
AcDbXrecord
280
1
1000
FullColor
  0
XRECORD
  5
167
330
162
100
AcDbXrecord
280
1
290
1
  0
XRECORD
  5
168
330
162
100
AcDbXrecord
280
1
290
1
  0
XRECORD
  5
169
330
162
100
AcDbXrecord
280
1
290
1
  0
XRECORD
  5
16A
330
162
100
AcDbXrecord
280
1
290
1
  0
XRECORD
  5
16B
330
162
100
AcDbXrecord
280
1
1000
auto
  0
XRECORD
  5
16C
330
162
100
AcDbXrecord
280
1
1000
auto
  0
XRECORD
  5
16D
330
162
100
AcDbXrecord
280
1
1000
auto
  0
XRECORD
  5
16E
330
162
100
AcDbXrecord
280
1
1000
auto
  0
XRECORD
  5
16F
330
162
100
AcDbXrecord
280
1
1000
auto
  0
XRECORD
  5
170
330
162
100
AcDbXrecord
280
1
1000
auto
  0
XRECORD
  5
171
330
162
100
AcDbXrecord
280
1
1000
auto
  0
XRECORD
  5
172
330
162
100
AcDbXrecord
280
1
1000
auto
  0
XRECORD
  5
173
330
162
100
AcDbXrecord
280
1
290
0
  0
XRECORD
  5
174
330
162
100
AcDbXrecord
280
1
290
0
  0
XRECORD
  5
175
330
162
100
AcDbXrecord
280
1
290
0
  0
XRECORD
  5
176
330
162
100
AcDbXrecord
280
1
290
0
  0
XRECORD
  5
177
330
162
100
AcDbXrecord
280
1
 90
65537
  0
XRECORD
  5
178
330
162
100
AcDbXrecord
280
1
 90
65537
  0
XRECORD
  5
179
330
162
100
AcDbXrecord
280
1
 90
65537
  0
XRECORD
  5
17A
330
162
100
AcDbXrecord
280
1
 90
65537
  0
XRECORD
  5
17B
330
162
100
AcDbXrecord
280
1
1000
auto
  0
XRECORD
  5
17C
330
162
100
AcDbXrecord
280
1
1000
auto
  0
XRECORD
  5
17D
330
162
100
AcDbXrecord
280
1
1000
auto
  0
XRECORD
  5
17E
330
162
100
AcDbXrecord
280
1
1000
auto
  0
XRECORD
  5
17F
330
162
100
AcDbXrecord
280
1
1000
auto
  0
XRECORD
  5
180
330
162
100
AcDbXrecord
280
1
1000
auto
  0
XRECORD
  5
181
330
162
100
AcDbXrecord
280
1
1000
auto
  0
XRECORD
  5
182
330
162
100
AcDbXrecord
280
1
1000
auto
  0
XRECORD
  5
183
330
162
100
AcDbXrecord
280
1
 90
1
  0
XRECORD
  5
184
330
162
100
AcDbXrecord
280
1
 40
0.5
  0
XRECORD
  5
185
330
162
100
AcDbXrecord
280
1
 40
0.5
  0
XRECORD
  5
186
330
162
100
AcDbXrecord
280
1
 40
0.5
  0
XRECORD
  5
187
330
162
100
AcDbXrecord
280
1
 40
0.5
  0
XRECORD
  5
188
330
162
100
AcDbXrecord
280
1
290
0
  0
XRECORD
  5
189
330
162
100
AcDbXrecord
280
1
 90
1
  0
XRECORD
  5
18A
330
162
100
AcDbXrecord
280
1
 40
0.0
  0
XRECORD
  5
18B
330
162
100
AcDbXrecord
280
1
 40
0.0
  0
XRECORD
  5
18C
330
162
100
AcDbXrecord
280
1
1000
Portrait
  0
XRECORD
  5
18D
330
162
100
AcDbXrecord
280
1
 40
11.6929133858267722
  0
XRECORD
  5
18E
330
162
100
AcDbXrecord
280
1
 40
8.2677165354330704
  0
XRECORD
  5
18F
330
162
100
AcDbXrecord
280
1
1000
1:1
  0
XRECORD
  5
190
330
162
100
AcDbXrecord
280
1
290
1
  0
XRECORD
  5
191
330
162
100
AcDbXrecord
280
1
290
0
  0
XRECORD
  5
192
330
162
100
AcDbXrecord
280
1
1000
Inside
  0
XRECORD
  5
193
330
162
100
AcDbXrecord
280
1
1000
Arial,10,-1,5,50,0,0,0,0,0
  0
XRECORD
  5
194
330
162
100
AcDbXrecord
280
1
1000
TopLeft
  0
XRECORD
  5
195
330
162
100
AcDbXrecord
280
1
1000
3.28.1.3
  0
XRECORD
  5
196
330
162
100
AcDbXrecord
280
1
 90
1
  0
XRECORD
  5
198
330
162
100
AcDbXrecord
280
1
 40
246.3875924683609639
  0
XRECORD
  5
199
330
162
100
AcDbXrecord
280
1
 40
459.5958083948478929
  0
ENDSEC
  0
EOF
