999
dxflib 3.26.4.0
  0
SECTION
  2
HEADER
  9
$ACADVER
  1
AC1015
  9
$HANDSEED
  5
FFFF
  9
$DIMADEC
 70
0
  9
$DIMASZ
 40
0.125
  9
$DIMATFIT
 70
0
  9
$DIMAUNIT
 70
0
  9
$DIMAZIN
 70
2
  9
$DIMBLK
  1

  9
$DIMDEC
 70
4
  9
$DIMDLI
 40
0.25
  9
$DIMDSEP
 70
46
  9
$DIMEXE
 40
0.0625
  9
$DIMEXO
 40
0.03125
  9
$DIMGAP
 40
0.03125
  9
$DIMLFAC
 40
1.0
  9
$DIMLUNIT
 70
3
  9
$DIMSCALE
 40
1.0
  9
$DIMTAD
 70
1
  9
$DIMTIH
 70
0
  9
$DIMTSZ
 40
0.0
  9
$DIMTXT
 40
0.125
  9
$DIMZIN
 70
8
  9
$DWGCODEPAGE
  3
ANSI_1252
  9
$INSUNITS
 70
1
  9
$LTSCALE
 40
1.0
  9
$MAXACTVP
 70
64
  9
$MEASUREMENT
 70
0
  9
$MIRRTEXT
 70
0
  9
$PDMODE
 70
0
  9
$PDSIZE
 40
0.0
  0
ENDSEC
  0
SECTION
  2
TABLES
  0
TABLE
  2
VPORT
  5
8
100
AcDbSymbolTable
 70
1
  0
VPORT
  5
30
100
AcDbSymbolTableRecord
100
AcDbViewportTableRecord
  2
*Active
 70
0
 10
0.0
 20
0.0
 11
1.0
 21
1.0
 12
286.3055555555554861
 22
148.5
 13
0.0
 23
0.0
 14
10.0
 24
10.0
 15
10.0
 25
10.0
 16
0.0
 26
0.0
 36
1.0
 17
0.0
 27
0.0
 37
0.0
 40
297.0
 41
1.92798353909465
 42
50.0
 43
0.0
 44
0.0
 50
0.0
 51
0.0
 71
0
 72
100
 73
1
 74
3
 75
1
 76
1
 77
0
 78
0
281
0
 65
1
110
0.0
120
0.0
130
0.0
111
1.0
121
0.0
131
0.0
112
0.0
122
1.0
132
0.0
 79
0
146
0.0
  0
ENDTAB
  0
TABLE
  2
LTYPE
  5
5
100
AcDbSymbolTable
 70
41
  0
LTYPE
  5
16
100
AcDbSymbolTableRecord
100
AcDbLinetypeTableRecord
  2
Continuous
 70
0
  3
Solid line
 72
65
 73
0
 40
0.0
  0
LTYPE
  5
31
100
AcDbSymbolTableRecord
100
AcDbLinetypeTableRecord
  2
PHANTOM
 70
0
  3
Phantom ______  __  __  ______  __  __  ______ 
 72
65
 73
6
 40
63.5000000000000071
 49
31.75
 74
0
 49
-6.3499999999999996
 74
0
 49
6.3499999999999996
 74
0
 49
-6.3499999999999996
 74
0
 49
6.3499999999999996
 74
0
 49
-6.3499999999999996
 74
0
  0
LTYPE
  5
32
100
AcDbSymbolTableRecord
100
AcDbLinetypeTableRecord
  2
ACAD_ISO05W100
 70
0
  3
ISO long-dash double-dot ____ .. ____ .. ____ . 
 72
65
 73
6
 40
33.0
 49
24.0
 74
0
 49
-3.0
 74
0
 49
0.0
 74
0
 49
-3.0
 74
0
 49
0.0
 74
0
 49
-3.0
 74
0
  0
LTYPE
  5
33
100
AcDbSymbolTableRecord
100
AcDbLinetypeTableRecord
  2
HIDDEN
 70
0
  3
Hidden __ __ __ __ __ __ __ __ __ __ __ __ __ __
 72
65
 73
2
 40
9.5249999999999986
 49
6.3499999999999996
 74
0
 49
-3.1749999999999998
 74
0
  0
LTYPE
  5
34
100
AcDbSymbolTableRecord
100
AcDbLinetypeTableRecord
  2
DASHEDX2
 70
0
  3
Dashed (2x) ____  ____  ____  ____  ____  ___
 72
65
 73
2
 40
38.0999999999999943
 49
25.3999999999999986
 74
0
 49
-12.6999999999999993
 74
0
  0
LTYPE
  5
35
100
AcDbSymbolTableRecord
100
AcDbLinetypeTableRecord
  2
ACAD_ISO02W100
 70
0
  3
ISO dash __ __ __ __ __ __ __ __ __ __ __ __ __
 72
65
 73
2
 40
15.0
 49
12.0
 74
0
 49
-3.0
 74
0
  0
LTYPE
  5
36
100
AcDbSymbolTableRecord
100
AcDbLinetypeTableRecord
  2
CENTER2
 70
0
  3
Center (.5x) ___ _ ___ _ ___ _ ___ _ ___ _ ___
 72
65
 73
4
 40
28.5750000000000028
 49
19.0500000000000007
 74
0
 49
-3.1749999999999998
 74
0
 49
3.1749999999999998
 74
0
 49
-3.1749999999999998
 74
0
  0
LTYPE
  5
37
100
AcDbSymbolTableRecord
100
AcDbLinetypeTableRecord
  2
ACAD_ISO09W100
 70
0
  3
ISO long-dash double-short-dash ____ __ __ ____
 72
65
 73
6
 40
45.0
 49
24.0
 74
0
 49
-3.0
 74
0
 49
6.0
 74
0
 49
-3.0
 74
0
 49
6.0
 74
0
 49
-3.0
 74
0
  0
LTYPE
  5
38
100
AcDbSymbolTableRecord
100
AcDbLinetypeTableRecord
  2
DASHED2
 70
0
  3
Dashed (.5x) _ _ _ _ _ _ _ _ _ _ _ _ _ _ _ _ _ 
 72
65
 73
2
 40
9.5249999999999986
 49
6.3499999999999996
 74
0
 49
-3.1749999999999998
 74
0
  0
LTYPE
  5
39
100
AcDbSymbolTableRecord
100
AcDbLinetypeTableRecord
  2
ACAD_ISO11W100
 70
0
  3
ISO double-dash dot __ __ . __ __ . __ __ . __ _
 72
65
 73
6
 40
33.0
 49
12.0
 74
0
 49
-3.0
 74
0
 49
12.0
 74
0
 49
-3.0
 74
0
 49
0.0
 74
0
 49
-3.0
 74
0
  0
LTYPE
  5
3A
100
AcDbSymbolTableRecord
100
AcDbLinetypeTableRecord
  2
DOT2
 70
0
  3
Dot (.5x) ........................................
 72
65
 73
2
 40
3.1749999999999998
 49
0.0
 74
0
 49
-3.1749999999999998
 74
0
  0
LTYPE
  5
3B
100
AcDbSymbolTableRecord
100
AcDbLinetypeTableRecord
  2
PHANTOM2
 70
0
  3
Phantom (.5x) ___ _ _ ___ _ _ ___ _ _ ___ _ _
 72
65
 73
6
 40
31.7500000000000036
 49
15.875
 74
0
 49
-3.1749999999999998
 74
0
 49
3.1749999999999998
 74
0
 49
-3.1749999999999998
 74
0
 49
3.1749999999999998
 74
0
 49
-3.1749999999999998
 74
0
  0
LTYPE
  5
3C
100
AcDbSymbolTableRecord
100
AcDbLinetypeTableRecord
  2
ACAD_ISO04W100
 70
0
  3
ISO long-dash dot ____ . ____ . ____ . ____ . _
 72
65
 73
4
 40
30.0
 49
24.0
 74
0
 49
-3.0
 74
0
 49
0.0
 74
0
 49
-3.0
 74
0
  0
LTYPE
  5
3D
100
AcDbSymbolTableRecord
100
AcDbLinetypeTableRecord
  2
PHANTOMX2
 70
0
  3
Phantom (2x) ____________    ____    ____   _
 72
65
 73
6
 40
127.0000000000000142
 49
63.5
 74
0
 49
-12.6999999999999993
 74
0
 49
12.6999999999999993
 74
0
 49
-12.6999999999999993
 74
0
 49
12.6999999999999993
 74
0
 49
-12.6999999999999993
 74
0
  0
LTYPE
  5
3E
100
AcDbSymbolTableRecord
100
AcDbLinetypeTableRecord
  2
ACAD_ISO15W100
 70
0
  3
ISO double-dash triple-dot __ __ . . . __ __ . .
 72
65
 73
10
 40
39.0
 49
12.0
 74
0
 49
-3.0
 74
0
 49
12.0
 74
0
 49
-3.0
 74
0
 49
0.0
 74
0
 49
-3.0
 74
0
 49
0.0
 74
0
 49
-3.0
 74
0
 49
0.0
 74
0
 49
-3.0
 74
0
  0
LTYPE
  5
3F
100
AcDbSymbolTableRecord
100
AcDbLinetypeTableRecord
  2
DOT
 70
0
  3
Dot . . . . . . . . . . . . . . . . . . . . . . . .
 72
65
 73
2
 40
6.3499999999999996
 49
0.0
 74
0
 49
-6.3499999999999996
 74
0
  0
LTYPE
  5
40
100
AcDbSymbolTableRecord
100
AcDbLinetypeTableRecord
  2
BORDER2
 70
0
  3
Border (.5x) __.__.__.__.__.__.__.__.__.__.__.
 72
65
 73
6
 40
22.2249999999999979
 49
6.3499999999999996
 74
0
 49
-3.1749999999999998
 74
0
 49
6.3499999999999996
 74
0
 49
-3.1749999999999998
 74
0
 49
0.0
 74
0
 49
-3.1749999999999998
 74
0
  0
LTYPE
  5
41
100
AcDbSymbolTableRecord
100
AcDbLinetypeTableRecord
  2
DASHED
 70
0
  3
Dashed __ __ __ __ __ __ __ __ __ __ __ __ __ _
 72
65
 73
2
 40
19.0499999999999972
 49
12.6999999999999993
 74
0
 49
-6.3499999999999996
 74
0
  0
LTYPE
  5
42
100
AcDbSymbolTableRecord
100
AcDbLinetypeTableRecord
  2
ACAD_ISO07W100
 70
0
  3
ISO dot . . . . . . . . . . . . . . . . . . . . 
 72
65
 73
2
 40
3.0
 49
0.0
 74
0
 49
-3.0
 74
0
  0
LTYPE
  5
43
100
AcDbSymbolTableRecord
100
AcDbLinetypeTableRecord
  2
DIVIDEX2
 70
0
  3
Divide (2x) ________  .  .  ________  .  .  _
 72
65
 73
6
 40
63.5
 49
25.3999999999999986
 74
0
 49
-12.6999999999999993
 74
0
 49
0.0
 74
0
 49
-12.6999999999999993
 74
0
 49
0.0
 74
0
 49
-12.6999999999999993
 74
0
  0
LTYPE
  5
44
100
AcDbSymbolTableRecord
100
AcDbLinetypeTableRecord
  2
BORDER
 70
0
  3
Border __ __ . __ __ . __ __ . __ __ . __ __ .
 72
65
 73
6
 40
44.4499999999999957
 49
12.6999999999999993
 74
0
 49
-6.3499999999999996
 74
0
 49
12.6999999999999993
 74
0
 49
-6.3499999999999996
 74
0
 49
0.0
 74
0
 49
-6.3499999999999996
 74
0
  0
LTYPE
  5
15
100
AcDbSymbolTableRecord
100
AcDbLinetypeTableRecord
  2
BYLAYER
 70
0
  3

 72
65
 73
0
 40
0.0
  0
LTYPE
  5
45
100
AcDbSymbolTableRecord
100
AcDbLinetypeTableRecord
  2
CENTER
 70
0
  3
Center ____ _ ____ _ ____ _ ____ _ ____ _ ____
 72
65
 73
4
 40
50.8000000000000043
 49
31.75
 74
0
 49
-6.3499999999999996
 74
0
 49
6.3499999999999996
 74
0
 49
-6.3499999999999996
 74
0
  0
LTYPE
  5
46
100
AcDbSymbolTableRecord
100
AcDbLinetypeTableRecord
  2
DASHDOT
 70
0
  3
Dash dot __ . __ . __ . __ . __ . __ . __ . __
 72
65
 73
4
 40
25.3999999999999986
 49
12.6999999999999993
 74
0
 49
-6.3499999999999996
 74
0
 49
0.0
 74
0
 49
-6.3499999999999996
 74
0
  0
LTYPE
  5
47
100
AcDbSymbolTableRecord
100
AcDbLinetypeTableRecord
  2
DIVIDE2
 70
0
  3
Divide (.5x) __..__..__..__..__..__..__..__.._
 72
65
 73
6
 40
15.875
 49
6.3499999999999996
 74
0
 49
-3.1749999999999998
 74
0
 49
0.0
 74
0
 49
-3.1749999999999998
 74
0
 49
0.0
 74
0
 49
-3.1749999999999998
 74
0
  0
LTYPE
  5
48
100
AcDbSymbolTableRecord
100
AcDbLinetypeTableRecord
  2
DASHDOTX2
 70
0
  3
Dash dot (2x) ____  .  ____  .  ____  .  ___
 72
65
 73
4
 40
50.7999999999999972
 49
25.3999999999999986
 74
0
 49
-12.6999999999999993
 74
0
 49
0.0
 74
0
 49
-12.6999999999999993
 74
0
  0
LTYPE
  5
49
100
AcDbSymbolTableRecord
100
AcDbLinetypeTableRecord
  2
ACAD_ISO03W100
 70
0
  3
ISO dash space __    __    __    __    __    __
 72
65
 73
2
 40
30.0
 49
12.0
 74
0
 49
-18.0
 74
0
  0
LTYPE
  5
4A
100
AcDbSymbolTableRecord
100
AcDbLinetypeTableRecord
  2
CENTERX2
 70
0
  3
Center (2x) ________  __  ________  __  _____
 72
65
 73
4
 40
101.6000000000000085
 49
63.5
 74
0
 49
-12.6999999999999993
 74
0
 49
12.6999999999999993
 74
0
 49
-12.6999999999999993
 74
0
  0
LTYPE
  5
4B
100
AcDbSymbolTableRecord
100
AcDbLinetypeTableRecord
  2
DIVIDE
 70
0
  3
Divide ____ . . ____ . . ____ . . ____ . . ____
 72
65
 73
6
 40
31.75
 49
12.6999999999999993
 74
0
 49
-6.3499999999999996
 74
0
 49
0.0
 74
0
 49
-6.3499999999999996
 74
0
 49
0.0
 74
0
 49
-6.3499999999999996
 74
0
  0
LTYPE
  5
4C
100
AcDbSymbolTableRecord
100
AcDbLinetypeTableRecord
  2
BORDERX2
 70
0
  3
Border (2x) ____  ____  .  ____  ____  .  ___
 72
65
 73
6
 40
88.8999999999999915
 49
25.3999999999999986
 74
0
 49
-12.6999999999999993
 74
0
 49
25.3999999999999986
 74
0
 49
-12.6999999999999993
 74
0
 49
0.0
 74
0
 49
-12.6999999999999993
 74
0
  0
LTYPE
  5
4D
100
AcDbSymbolTableRecord
100
AcDbLinetypeTableRecord
  2
HIDDENX2
 70
0
  3
Hidden (2x) ____ ____ ____ ____ ____ ____ ____ 
 72
65
 73
2
 40
19.0499999999999972
 49
12.6999999999999993
 74
0
 49
-6.3499999999999996
 74
0
  0
LTYPE
  5
4E
100
AcDbSymbolTableRecord
100
AcDbLinetypeTableRecord
  2
ACAD_ISO13W100
 70
0
  3
ISO double-dash double-dot __ __ . . __ __ . . _
 72
65
 73
8
 40
36.0
 49
12.0
 74
0
 49
-3.0
 74
0
 49
12.0
 74
0
 49
-3.0
 74
0
 49
0.0
 74
0
 49
-3.0
 74
0
 49
0.0
 74
0
 49
-3.0
 74
0
  0
LTYPE
  5
14
100
AcDbSymbolTableRecord
100
AcDbLinetypeTableRecord
  2
BYBLOCK
 70
0
  3

 72
65
 73
0
 40
0.0
  0
LTYPE
  5
4F
100
AcDbSymbolTableRecord
100
AcDbLinetypeTableRecord
  2
DOTX2
 70
0
  3
Dot (2x) .  .  .  .  .  .  .  .  .  .  .  .  .  .
 72
65
 73
2
 40
12.6999999999999993
 49
0.0
 74
0
 49
-12.6999999999999993
 74
0
  0
LTYPE
  5
50
100
AcDbSymbolTableRecord
100
AcDbLinetypeTableRecord
  2
HIDDEN2
 70
0
  3
Hidden (.5x) _ _ _ _ _ _ _ _ _ _ _ _ _ _ _ _ _ 
 72
65
 73
2
 40
4.7624999999999993
 49
3.1749999999999998
 74
0
 49
-1.5874999999999999
 74
0
  0
LTYPE
  5
51
100
AcDbSymbolTableRecord
100
AcDbLinetypeTableRecord
  2
ACAD_ISO08W100
 70
0
  3
ISO long-dash short-dash ____ __ ____ __ ____ _
 72
65
 73
4
 40
36.0
 49
24.0
 74
0
 49
-3.0
 74
0
 49
6.0
 74
0
 49
-3.0
 74
0
  0
LTYPE
  5
52
100
AcDbSymbolTableRecord
100
AcDbLinetypeTableRecord
  2
ACAD_ISO12W100
 70
0
  3
ISO dash double-dot __ . . __ . . __ . . __ . . 
 72
65
 73
6
 40
21.0
 49
12.0
 74
0
 49
-3.0
 74
0
 49
0.0
 74
0
 49
-3.0
 74
0
 49
0.0
 74
0
 49
-3.0
 74
0
  0
LTYPE
  5
53
100
AcDbSymbolTableRecord
100
AcDbLinetypeTableRecord
  2
ACAD_ISO06W100
 70
0
  3
ISO long-dash triple-dot ____ ... ____ ... ____
 72
65
 73
8
 40
36.0
 49
24.0
 74
0
 49
-3.0
 74
0
 49
0.0
 74
0
 49
-3.0
 74
0
 49
0.0
 74
0
 49
-3.0
 74
0
 49
0.0
 74
0
 49
-3.0
 74
0
  0
LTYPE
  5
54
100
AcDbSymbolTableRecord
100
AcDbLinetypeTableRecord
  2
DASHDOT2
 70
0
  3
Dash dot (.5x) _._._._._._._._._._._._._._._.
 72
65
 73
4
 40
12.6999999999999993
 49
6.3499999999999996
 74
0
 49
-3.1749999999999998
 74
0
 49
0.0
 74
0
 49
-3.1749999999999998
 74
0
  0
LTYPE
  5
55
100
AcDbSymbolTableRecord
100
AcDbLinetypeTableRecord
  2
ACAD_ISO14W100
 70
0
  3
ISO dash triple-dot __ . . . __ . . . __ . . . _
 72
65
 73
8
 40
24.0
 49
12.0
 74
0
 49
-3.0
 74
0
 49
0.0
 74
0
 49
-3.0
 74
0
 49
0.0
 74
0
 49
-3.0
 74
0
 49
0.0
 74
0
 49
-3.0
 74
0
  0
LTYPE
  5
56
100
AcDbSymbolTableRecord
100
AcDbLinetypeTableRecord
  2
ACAD_ISO10W100
 70
0
  3
ISO dash dot __ . __ . __ . __ . __ . __ . __ . 
 72
65
 73
4
 40
18.0
 49
12.0
 74
0
 49
-3.0
 74
0
 49
0.0
 74
0
 49
-3.0
 74
0
  0
ENDTAB
  0
TABLE
  2
LAYER
  5
2
100
AcDbSymbolTable
 70
1
  0
LAYER
  5
10
100
AcDbSymbolTableRecord
100
AcDbLayerTableRecord
  2
0
 70
0
 62
7
420
16777215
  6
Continuous
370
25
390
F
  0
ENDTAB
  0
TABLE
  2
STYLE
  5
3
100
AcDbSymbolTable
 70
1
  0
STYLE
  5
57
100
AcDbSymbolTableRecord
100
AcDbTextStyleTableRecord
  2
Standard
 70
0
 40
0.0
 41
1.0
 50
0.0
 71
0
 42
2.5
  3

  4

1001
ACAD
1000
txt
1071
0
  0
ENDTAB
  0
TABLE
  2
VIEW
  5
6
100
AcDbSymbolTable
 70
0
  0
ENDTAB
  0
TABLE
  2
UCS
  5
7
100
AcDbSymbolTable
 70
0
  0
ENDTAB
  0
TABLE
  2
APPID
  5
9
100
AcDbSymbolTable
 70
1
  0
APPID
  5
12
100
AcDbSymbolTableRecord
100
AcDbRegAppTableRecord
  2
ACAD
 70
0
  0
APPID
  5
58
100
AcDbSymbolTableRecord
100
AcDbRegAppTableRecord
  2
QCAD
 70
0
  0
ENDTAB
  0
TABLE
  2
DIMSTYLE
  5
A
100
AcDbSymbolTable
 70
1
100
AcDbDimStyleTable
 71
0
  0
DIMSTYLE
105
27
100
AcDbSymbolTableRecord
100
AcDbDimStyleTableRecord
  2
Standard
 41
0.125
 42
0.03125
 43
3.75
 44
0.0625
 70
0
 73
0
 74
0
 77
1
 78
8
140
0.125
141
2.5
143
0.03937007874016
147
0.03125
171
3
172
1
271
2
272
2
274
3
278
44
283
0
284
8
340
57
  0
ENDTAB
  0
TABLE
  2
BLOCK_RECORD
  5
1
100
AcDbSymbolTable
 70
1
  0
BLOCK_RECORD
  5
1F
100
AcDbSymbolTableRecord
100
AcDbBlockTableRecord
  2
*Model_Space
340
22
  0
BLOCK_RECORD
  5
1B
100
AcDbSymbolTableRecord
100
AcDbBlockTableRecord
  2
*Paper_Space
340
1E
  0
BLOCK_RECORD
  5
23
100
AcDbSymbolTableRecord
100
AcDbBlockTableRecord
  2
*Paper_Space0
340
26
  0
ENDTAB
  0
ENDSEC
  0
SECTION
  2
BLOCKS
  0
BLOCK
  5
20
100
AcDbEntity
  8
0
100
AcDbBlockBegin
  2
*Model_Space
 70
0
 10
0.0
 20
0.0
 30
0.0
  3
*Model_Space
  1

  0
ENDBLK
  5
21
100
AcDbEntity
  8
0
100
AcDbBlockEnd
  0
BLOCK
  5
1C
100
AcDbEntity
 67
1
  8
0
100
AcDbBlockBegin
  2
*Paper_Space
 70
0
 10
0.0
 20
0.0
 30
0.0
  3
*Paper_Space
  1

  0
ENDBLK
  5
1D
100
AcDbEntity
 67
1
  8
0
100
AcDbBlockEnd
  0
BLOCK
  5
24
100
AcDbEntity
  8
0
100
AcDbBlockBegin
  2
*Paper_Space0
 70
0
 10
0.0
 20
0.0
 30
0.0
  3
*Paper_Space0
  1

  0
ENDBLK
  5
25
100
AcDbEntity
  8
0
100
AcDbBlockEnd
  0
ENDSEC
  0
SECTION
  2
ENTITIES
  0
LINE
  5
59
100
AcDbEntity
  8
0
 62
0
370
-1
 48
1.0
  6
BYLAYER
100
AcDbLine
 10
326.325019999999995
 20
112.250831000000062
 30
0.0
 11
326.7180200000000241
 21
112.2358309999999619
 31
0.0
  0
LINE
  5
5A
100
AcDbEntity
  8
0
 62
0
370
-1
 48
1.0
  6
BYLAYER
100
AcDbLine
 10
326.7180200000000241
 20
112.2358309999999619
 30
0.0
 11
327.1080199999998968
 21
112.1888310000000502
 31
0.0
  0
LINE
  5
5B
100
AcDbEntity
  8
0
 62
0
370
-1
 48
1.0
  6
BYLAYER
100
AcDbLine
 10
327.1080199999998968
 20
112.1888310000000502
 30
0.0
 11
327.4930199999998877
 21
112.1128310000000283
 31
0.0
  0
LINE
  5
5C
100
AcDbEntity
  8
0
 62
0
370
-1
 48
1.0
  6
BYLAYER
100
AcDbLine
 10
327.4930199999998877
 20
112.1128310000000283
 30
0.0
 11
327.8700199999998404
 21
112.0068310000000338
 31
0.0
  0
LINE
  5
5D
100
AcDbEntity
  8
0
 62
0
370
-1
 48
1.0
  6
BYLAYER
100
AcDbLine
 10
327.8700199999998404
 20
112.0068310000000338
 30
0.0
 11
328.2380200000000059
 21
111.8708309999999528
 31
0.0
  0
LINE
  5
5E
100
AcDbEntity
  8
0
 62
0
370
-1
 48
1.0
  6
BYLAYER
100
AcDbLine
 10
328.2380200000000059
 20
111.8708309999999528
 30
0.0
 11
328.5950199999999768
 21
111.7068309999999656
 31
0.0
  0
LINE
  5
5F
100
AcDbEntity
  8
0
 62
0
370
-1
 48
1.0
  6
BYLAYER
100
AcDbLine
 10
328.5950199999999768
 20
111.7068309999999656
 30
0.0
 11
328.9380200000000514
 21
111.5148309999999583
 31
0.0
  0
LINE
  5
60
100
AcDbEntity
  8
0
 62
0
370
-1
 48
1.0
  6
BYLAYER
100
AcDbLine
 10
328.9380200000000514
 20
111.5148309999999583
 30
0.0
 11
329.2630199999998695
 21
111.295831000000021
 31
0.0
  0
LINE
  5
61
100
AcDbEntity
  8
0
 62
0
370
-1
 48
1.0
  6
BYLAYER
100
AcDbLine
 10
329.2630199999998695
 20
111.295831000000021
 30
0.0
 11
329.5720200000000659
 21
111.0538309999999456
 31
0.0
  0
LINE
  5
62
100
AcDbEntity
  8
0
 62
0
370
-1
 48
1.0
  6
BYLAYER
100
AcDbLine
 10
329.5720200000000659
 20
111.0538309999999456
 30
0.0
 11
329.8600200000000768
 21
110.7858310000000301
 31
0.0
  0
LINE
  5
63
100
AcDbEntity
  8
0
 62
0
370
-1
 48
1.0
  6
BYLAYER
100
AcDbLine
 10
329.8600200000000768
 20
110.7858310000000301
 30
0.0
 11
330.1270199999999022
 21
110.4978310000000192
 31
0.0
  0
LINE
  5
64
100
AcDbEntity
  8
0
 62
0
370
-1
 48
1.0
  6
BYLAYER
100
AcDbLine
 10
330.1270199999999022
 20
110.4978310000000192
 30
0.0
 11
330.3700199999998404
 21
110.1898310000000265
 31
0.0
  0
LINE
  5
65
100
AcDbEntity
  8
0
 62
0
370
-1
 48
1.0
  6
BYLAYER
100
AcDbLine
 10
330.3700199999998404
 20
110.1898310000000265
 30
0.0
 11
330.5890199999998913
 21
109.8638310000000047
 31
0.0
  0
LINE
  5
66
100
AcDbEntity
  8
0
 62
0
370
-1
 48
1.0
  6
BYLAYER
100
AcDbLine
 10
330.5890199999998913
 20
109.8638310000000047
 30
0.0
 11
330.7810199999998986
 21
109.5208310000000438
 31
0.0
  0
LINE
  5
67
100
AcDbEntity
  8
0
 62
0
370
-1
 48
1.0
  6
BYLAYER
100
AcDbLine
 10
330.7810199999998986
 20
109.5208310000000438
 30
0.0
 11
330.9450199999998858
 21
109.1638309999999592
 31
0.0
  0
LINE
  5
68
100
AcDbEntity
  8
0
 62
0
370
-1
 48
1.0
  6
BYLAYER
100
AcDbLine
 10
330.9450199999998858
 20
109.1638309999999592
 30
0.0
 11
331.0810200000000805
 21
108.795831000000021
 31
0.0
  0
LINE
  5
69
100
AcDbEntity
  8
0
 62
0
370
-1
 48
1.0
  6
BYLAYER
100
AcDbLine
 10
331.0810200000000805
 20
108.795831000000021
 30
0.0
 11
331.1870199999998476
 21
108.4188309999999547
 31
0.0
  0
LINE
  5
6A
100
AcDbEntity
  8
0
 62
0
370
-1
 48
1.0
  6
BYLAYER
100
AcDbLine
 10
331.1870199999998476
 20
108.4188309999999547
 30
0.0
 11
331.2630199999998695
 21
108.0338309999999638
 31
0.0
  0
LINE
  5
6B
100
AcDbEntity
  8
0
 62
0
370
-1
 48
1.0
  6
BYLAYER
100
AcDbLine
 10
331.2630199999998695
 20
108.0338309999999638
 30
0.0
 11
331.3100199999998949
 21
107.6438309999999774
 31
0.0
  0
LINE
  5
6C
100
AcDbEntity
  8
0
 62
0
370
-1
 48
1.0
  6
BYLAYER
100
AcDbLine
 10
331.3100199999998949
 20
107.6438309999999774
 30
0.0
 11
331.325019999999995
 21
107.2498309999999719
 31
0.0
  0
LINE
  5
6D
100
AcDbEntity
  8
0
 62
0
370
-1
 48
1.0
  6
BYLAYER
100
AcDbLine
 10
331.325019999999995
 20
107.2498309999999719
 30
0.0
 11
331.325019999999995
 21
5.0008809999999357
 31
0.0
  0
LINE
  5
6E
100
AcDbEntity
  8
0
 62
0
370
-1
 48
1.0
  6
BYLAYER
100
AcDbLine
 10
331.325019999999995
 20
5.0008809999999357
 30
0.0
 11
331.3100199999998949
 21
4.6068010000000186
 31
0.0
  0
LINE
  5
6F
100
AcDbEntity
  8
0
 62
0
370
-1
 48
1.0
  6
BYLAYER
100
AcDbLine
 10
331.3100199999998949
 20
4.6068010000000186
 30
0.0
 11
331.2630199999998695
 21
4.2168010000000322
 31
0.0
  0
LINE
  5
70
100
AcDbEntity
  8
0
 62
0
370
-1
 48
1.0
  6
BYLAYER
100
AcDbLine
 10
331.2630199999998695
 20
4.2168010000000322
 30
0.0
 11
331.1870199999998476
 21
3.8323110000000042
 31
0.0
  0
LINE
  5
71
100
AcDbEntity
  8
0
 62
0
370
-1
 48
1.0
  6
BYLAYER
100
AcDbLine
 10
331.1870199999998476
 20
3.8323110000000042
 30
0.0
 11
331.0810200000000805
 21
3.454731000000038
 31
0.0
  0
LINE
  5
72
100
AcDbEntity
  8
0
 62
0
370
-1
 48
1.0
  6
BYLAYER
100
AcDbLine
 10
331.0810200000000805
 20
3.454731000000038
 30
0.0
 11
330.9450199999998858
 21
3.0868010000000368
 31
0.0
  0
LINE
  5
73
100
AcDbEntity
  8
0
 62
0
370
-1
 48
1.0
  6
BYLAYER
100
AcDbLine
 10
330.9450199999998858
 20
3.0868010000000368
 30
0.0
 11
330.7810199999998986
 21
2.7298909999999523
 31
0.0
  0
LINE
  5
74
100
AcDbEntity
  8
0
 62
0
370
-1
 48
1.0
  6
BYLAYER
100
AcDbLine
 10
330.7810199999998986
 20
2.7298909999999523
 30
0.0
 11
330.5890199999998913
 21
2.3881410000000187
 31
0.0
  0
LINE
  5
75
100
AcDbEntity
  8
0
 62
0
370
-1
 48
1.0
  6
BYLAYER
100
AcDbLine
 10
330.5890199999998913
 20
2.3881410000000187
 30
0.0
 11
330.3700199999998404
 21
2.0615410000000338
 31
0.0
  0
LINE
  5
76
100
AcDbEntity
  8
0
 62
0
370
-1
 48
1.0
  6
BYLAYER
100
AcDbLine
 10
330.3700199999998404
 20
2.0615410000000338
 30
0.0
 11
330.1270199999999022
 21
1.7528609999999389
 31
0.0
  0
LINE
  5
77
100
AcDbEntity
  8
0
 62
0
370
-1
 48
1.0
  6
BYLAYER
100
AcDbLine
 10
330.1270199999999022
 20
1.7528609999999389
 30
0.0
 11
329.8600200000000768
 21
1.4648610000000417
 31
0.0
  0
LINE
  5
78
100
AcDbEntity
  8
0
 62
0
370
-1
 48
1.0
  6
BYLAYER
100
AcDbLine
 10
329.8600200000000768
 20
1.4648610000000417
 30
0.0
 11
329.5720200000000659
 21
1.1975109999999631
 31
0.0
  0
LINE
  5
79
100
AcDbEntity
  8
0
 62
0
370
-1
 48
1.0
  6
BYLAYER
100
AcDbLine
 10
329.5720200000000659
 20
1.1975109999999631
 30
0.0
 11
329.2630199999998695
 21
0.9549809999999752
 31
0.0
  0
LINE
  5
7A
100
AcDbEntity
  8
0
 62
0
370
-1
 48
1.0
  6
BYLAYER
100
AcDbLine
 10
329.2630199999998695
 20
0.9549809999999752
 30
0.0
 11
328.9380200000000514
 21
0.7358729999999696
 31
0.0
  0
LINE
  5
7B
100
AcDbEntity
  8
0
 62
0
370
-1
 48
1.0
  6
BYLAYER
100
AcDbLine
 10
328.9380200000000514
 20
0.7358729999999696
 30
0.0
 11
328.5950199999999768
 21
0.5443250000000717
 31
0.0
  0
LINE
  5
7C
100
AcDbEntity
  8
0
 62
0
370
-1
 48
1.0
  6
BYLAYER
100
AcDbLine
 10
328.5950199999999768
 20
0.5443250000000717
 30
0.0
 11
328.2380200000000059
 21
0.3803399999999328
 31
0.0
  0
LINE
  5
7D
100
AcDbEntity
  8
0
 62
0
370
-1
 48
1.0
  6
BYLAYER
100
AcDbLine
 10
328.2380200000000059
 20
0.3803399999999328
 30
0.0
 11
327.8700199999998404
 21
0.2439130000000205
 31
0.0
  0
LINE
  5
7E
100
AcDbEntity
  8
0
 62
0
370
-1
 48
1.0
  6
BYLAYER
100
AcDbLine
 10
327.8700199999998404
 20
0.2439130000000205
 30
0.0
 11
327.4930199999998877
 21
0.1378039999999601
 31
0.0
  0
LINE
  5
7F
100
AcDbEntity
  8
0
 62
0
370
-1
 48
1.0
  6
BYLAYER
100
AcDbLine
 10
327.4930199999998877
 20
0.1378039999999601
 30
0.0
 11
327.1080199999998968
 21
0.0620119999999815
 31
0.0
  0
LINE
  5
80
100
AcDbEntity
  8
0
 62
0
370
-1
 48
1.0
  6
BYLAYER
100
AcDbLine
 10
327.1080199999998968
 20
0.0620119999999815
 30
0.0
 11
326.7180200000000241
 21
0.0151590000000397
 31
0.0
  0
LINE
  5
81
100
AcDbEntity
  8
0
 62
0
370
-1
 48
1.0
  6
BYLAYER
100
AcDbLine
 10
326.7180200000000241
 20
0.0151590000000397
 30
0.0
 11
326.325019999999995
 21
0.0
 31
0.0
  0
LINE
  5
82
100
AcDbEntity
  8
0
 62
0
370
-1
 48
1.0
  6
BYLAYER
100
AcDbLine
 10
326.325019999999995
 20
0.0
 30
0.0
 11
5.0
 21
0.0
 31
0.0
  0
LINE
  5
83
100
AcDbEntity
  8
0
 62
0
370
-1
 48
1.0
  6
BYLAYER
100
AcDbLine
 10
5.0
 20
0.0
 30
0.0
 11
4.6058799999998428
 21
0.0151590000000397
 31
0.0
  0
LINE
  5
84
100
AcDbEntity
  8
0
 62
0
370
-1
 48
1.0
  6
BYLAYER
100
AcDbLine
 10
4.6058799999998428
 20
0.0151590000000397
 30
0.0
 11
4.2159199999998691
 21
0.0620119999999815
 31
0.0
  0
LINE
  5
85
100
AcDbEntity
  8
0
 62
0
370
-1
 48
1.0
  6
BYLAYER
100
AcDbLine
 10
4.2159199999998691
 20
0.0620119999999815
 30
0.0
 11
3.8314199999999801
 21
0.1378039999999601
 31
0.0
  0
LINE
  5
86
100
AcDbEntity
  8
0
 62
0
370
-1
 48
1.0
  6
BYLAYER
100
AcDbLine
 10
3.8314199999999801
 20
0.1378039999999601
 30
0.0
 11
3.4538499999998749
 21
0.2439130000000205
 31
0.0
  0
LINE
  5
87
100
AcDbEntity
  8
0
 62
0
370
-1
 48
1.0
  6
BYLAYER
100
AcDbLine
 10
3.4538499999998749
 20
0.2439130000000205
 30
0.0
 11
3.0859100000000126
 21
0.3803399999999328
 31
0.0
  0
LINE
  5
88
100
AcDbEntity
  8
0
 62
0
370
-1
 48
1.0
  6
BYLAYER
100
AcDbLine
 10
3.0859100000000126
 20
0.3803399999999328
 30
0.0
 11
2.7290000000000418
 21
0.5443250000000717
 31
0.0
  0
LINE
  5
89
100
AcDbEntity
  8
0
 62
0
370
-1
 48
1.0
  6
BYLAYER
100
AcDbLine
 10
2.7290000000000418
 20
0.5443250000000717
 30
0.0
 11
2.3858699999998407
 21
0.7358729999999696
 31
0.0
  0
LINE
  5
8A
100
AcDbEntity
  8
0
 62
0
370
-1
 48
1.0
  6
BYLAYER
100
AcDbLine
 10
2.3858699999998407
 20
0.7358729999999696
 30
0.0
 11
2.060649999999896
 21
0.9549809999999752
 31
0.0
  0
LINE
  5
8B
100
AcDbEntity
  8
0
 62
0
370
-1
 48
1.0
  6
BYLAYER
100
AcDbLine
 10
2.060649999999896
 20
0.9549809999999752
 30
0.0
 11
1.7519700000000284
 21
1.1975109999999631
 31
0.0
  0
LINE
  5
8C
100
AcDbEntity
  8
0
 62
0
370
-1
 48
1.0
  6
BYLAYER
100
AcDbLine
 10
1.7519700000000284
 20
1.1975109999999631
 30
0.0
 11
1.4639599999998154
 21
1.4648610000000417
 31
0.0
  0
LINE
  5
8D
100
AcDbEntity
  8
0
 62
0
370
-1
 48
1.0
  6
BYLAYER
100
AcDbLine
 10
1.4639599999998154
 20
1.4648610000000417
 30
0.0
 11
1.196619999999939
 21
1.7528609999999389
 31
0.0
  0
LINE
  5
8E
100
AcDbEntity
  8
0
 62
0
370
-1
 48
1.0
  6
BYLAYER
100
AcDbLine
 10
1.196619999999939
 20
1.7528609999999389
 30
0.0
 11
0.9540799999999763
 21
2.0615410000000338
 31
0.0
  0
LINE
  5
8F
100
AcDbEntity
  8
0
 62
0
370
-1
 48
1.0
  6
BYLAYER
100
AcDbLine
 10
0.9540799999999763
 20
2.0615410000000338
 30
0.0
 11
0.7349769999998443
 21
2.3881410000000187
 31
0.0
  0
LINE
  5
90
100
AcDbEntity
  8
0
 62
0
370
-1
 48
1.0
  6
BYLAYER
100
AcDbLine
 10
0.7349769999998443
 20
2.3881410000000187
 30
0.0
 11
0.5434299999999439
 21
2.7298909999999523
 31
0.0
  0
LINE
  5
91
100
AcDbEntity
  8
0
 62
0
370
-1
 48
1.0
  6
BYLAYER
100
AcDbLine
 10
0.5434299999999439
 20
2.7298909999999523
 30
0.0
 11
0.3794439999999213
 21
3.0868010000000368
 31
0.0
  0
LINE
  5
92
100
AcDbEntity
  8
0
 62
0
370
-1
 48
1.0
  6
BYLAYER
100
AcDbLine
 10
0.3794439999999213
 20
3.0868010000000368
 30
0.0
 11
0.2430179999998927
 21
3.454731000000038
 31
0.0
  0
LINE
  5
93
100
AcDbEntity
  8
0
 62
0
370
-1
 48
1.0
  6
BYLAYER
100
AcDbLine
 10
0.2430179999998927
 20
3.454731000000038
 30
0.0
 11
0.1369079999999485
 21
3.8323110000000042
 31
0.0
  0
LINE
  5
94
100
AcDbEntity
  8
0
 62
0
370
-1
 48
1.0
  6
BYLAYER
100
AcDbLine
 10
0.1369079999999485
 20
3.8323110000000042
 30
0.0
 11
0.0611169999999674
 21
4.2168010000000322
 31
0.0
  0
LINE
  5
95
100
AcDbEntity
  8
0
 62
0
370
-1
 48
1.0
  6
BYLAYER
100
AcDbLine
 10
0.0611169999999674
 20
4.2168010000000322
 30
0.0
 11
0.0142630000000281
 21
4.6068010000000186
 31
0.0
  0
LINE
  5
96
100
AcDbEntity
  8
0
 62
0
370
-1
 48
1.0
  6
BYLAYER
100
AcDbLine
 10
0.0142630000000281
 20
4.6068010000000186
 30
0.0
 11
-0.0008953999999903
 21
5.0008809999999357
 31
0.0
  0
LINE
  5
97
100
AcDbEntity
  8
0
 62
0
370
-1
 48
1.0
  6
BYLAYER
100
AcDbLine
 10
-0.0008953999999903
 20
5.0008809999999357
 30
0.0
 11
-0.0008953999999903
 21
107.2498309999999719
 31
0.0
  0
LINE
  5
98
100
AcDbEntity
  8
0
 62
0
370
-1
 48
1.0
  6
BYLAYER
100
AcDbLine
 10
-0.0008953999999903
 20
107.2498309999999719
 30
0.0
 11
0.0142630000000281
 21
107.6438309999999774
 31
0.0
  0
LINE
  5
99
100
AcDbEntity
  8
0
 62
0
370
-1
 48
1.0
  6
BYLAYER
100
AcDbLine
 10
0.0142630000000281
 20
107.6438309999999774
 30
0.0
 11
0.0611169999999674
 21
108.0338309999999638
 31
0.0
  0
LINE
  5
9A
100
AcDbEntity
  8
0
 62
0
370
-1
 48
1.0
  6
BYLAYER
100
AcDbLine
 10
0.0611169999999674
 20
108.0338309999999638
 30
0.0
 11
0.1369079999999485
 21
108.4188309999999547
 31
0.0
  0
LINE
  5
9B
100
AcDbEntity
  8
0
 62
0
370
-1
 48
1.0
  6
BYLAYER
100
AcDbLine
 10
0.1369079999999485
 20
108.4188309999999547
 30
0.0
 11
0.2430179999998927
 21
108.795831000000021
 31
0.0
  0
LINE
  5
9C
100
AcDbEntity
  8
0
 62
0
370
-1
 48
1.0
  6
BYLAYER
100
AcDbLine
 10
0.2430179999998927
 20
108.795831000000021
 30
0.0
 11
0.3794439999999213
 21
109.1638309999999592
 31
0.0
  0
LINE
  5
9D
100
AcDbEntity
  8
0
 62
0
370
-1
 48
1.0
  6
BYLAYER
100
AcDbLine
 10
0.3794439999999213
 20
109.1638309999999592
 30
0.0
 11
0.5434299999999439
 21
109.5208310000000438
 31
0.0
  0
LINE
  5
9E
100
AcDbEntity
  8
0
 62
0
370
-1
 48
1.0
  6
BYLAYER
100
AcDbLine
 10
0.5434299999999439
 20
109.5208310000000438
 30
0.0
 11
0.7349769999998443
 21
109.8638310000000047
 31
0.0
  0
LINE
  5
9F
100
AcDbEntity
  8
0
 62
0
370
-1
 48
1.0
  6
BYLAYER
100
AcDbLine
 10
0.7349769999998443
 20
109.8638310000000047
 30
0.0
 11
0.9540799999999763
 21
110.1898310000000265
 31
0.0
  0
LINE
  5
A0
100
AcDbEntity
  8
0
 62
0
370
-1
 48
1.0
  6
BYLAYER
100
AcDbLine
 10
0.9540799999999763
 20
110.1898310000000265
 30
0.0
 11
1.196619999999939
 21
110.4978310000000192
 31
0.0
  0
LINE
  5
A1
100
AcDbEntity
  8
0
 62
0
370
-1
 48
1.0
  6
BYLAYER
100
AcDbLine
 10
1.196619999999939
 20
110.4978310000000192
 30
0.0
 11
1.4639599999998154
 21
110.7858310000000301
 31
0.0
  0
LINE
  5
A2
100
AcDbEntity
  8
0
 62
0
370
-1
 48
1.0
  6
BYLAYER
100
AcDbLine
 10
1.4639599999998154
 20
110.7858310000000301
 30
0.0
 11
1.7519700000000284
 21
111.0538309999999456
 31
0.0
  0
LINE
  5
A3
100
AcDbEntity
  8
0
 62
0
370
-1
 48
1.0
  6
BYLAYER
100
AcDbLine
 10
1.7519700000000284
 20
111.0538309999999456
 30
0.0
 11
2.060649999999896
 21
111.295831000000021
 31
0.0
  0
LINE
  5
A4
100
AcDbEntity
  8
0
 62
0
370
-1
 48
1.0
  6
BYLAYER
100
AcDbLine
 10
2.060649999999896
 20
111.295831000000021
 30
0.0
 11
2.3858699999998407
 21
111.5148309999999583
 31
0.0
  0
LINE
  5
A5
100
AcDbEntity
  8
0
 62
0
370
-1
 48
1.0
  6
BYLAYER
100
AcDbLine
 10
2.3858699999998407
 20
111.5148309999999583
 30
0.0
 11
2.7290000000000418
 21
111.7068309999999656
 31
0.0
  0
LINE
  5
A6
100
AcDbEntity
  8
0
 62
0
370
-1
 48
1.0
  6
BYLAYER
100
AcDbLine
 10
2.7290000000000418
 20
111.7068309999999656
 30
0.0
 11
3.0859100000000126
 21
111.8708309999999528
 31
0.0
  0
LINE
  5
A7
100
AcDbEntity
  8
0
 62
0
370
-1
 48
1.0
  6
BYLAYER
100
AcDbLine
 10
3.0859100000000126
 20
111.8708309999999528
 30
0.0
 11
3.4538499999998749
 21
112.0068310000000338
 31
0.0
  0
LINE
  5
A8
100
AcDbEntity
  8
0
 62
0
370
-1
 48
1.0
  6
BYLAYER
100
AcDbLine
 10
3.4538499999998749
 20
112.0068310000000338
 30
0.0
 11
3.8314199999999801
 21
112.1128310000000283
 31
0.0
  0
LINE
  5
A9
100
AcDbEntity
  8
0
 62
0
370
-1
 48
1.0
  6
BYLAYER
100
AcDbLine
 10
3.8314199999999801
 20
112.1128310000000283
 30
0.0
 11
4.2159199999998691
 21
112.1888310000000502
 31
0.0
  0
LINE
  5
AA
100
AcDbEntity
  8
0
 62
0
370
-1
 48
1.0
  6
BYLAYER
100
AcDbLine
 10
4.2159199999998691
 20
112.1888310000000502
 30
0.0
 11
4.6058799999998428
 21
112.2358309999999619
 31
0.0
  0
LINE
  5
AB
100
AcDbEntity
  8
0
 62
0
370
-1
 48
1.0
  6
BYLAYER
100
AcDbLine
 10
4.6058799999998428
 20
112.2358309999999619
 30
0.0
 11
5.0
 21
112.250831000000062
 31
0.0
  0
LINE
  5
AC
100
AcDbEntity
  8
0
 62
0
370
-1
 48
1.0
  6
BYLAYER
100
AcDbLine
 10
5.0
 20
112.250831000000062
 30
0.0
 11
326.325019999999995
 21
112.250831000000062
 31
0.0
  0
LINE
  5
AD
100
AcDbEntity
  8
0
 62
0
370
-1
 48
1.0
  6
BYLAYER
100
AcDbLine
 10
8.4988499999999476
 20
103.750831000000062
 30
0.0
 11
322.825019999999995
 21
103.750831000000062
 31
0.0
  0
LINE
  5
AE
100
AcDbEntity
  8
0
 62
0
370
-1
 48
1.0
  6
BYLAYER
100
AcDbLine
 10
322.825019999999995
 20
103.750831000000062
 30
0.0
 11
322.825019999999995
 21
8.5011110000000372
 31
0.0
  0
LINE
  5
AF
100
AcDbEntity
  8
0
 62
0
370
-1
 48
1.0
  6
BYLAYER
100
AcDbLine
 10
322.825019999999995
 20
8.5011110000000372
 30
0.0
 11
8.4988499999999476
 21
8.5011110000000372
 31
0.0
  0
LINE
  5
B0
100
AcDbEntity
  8
0
 62
0
370
-1
 48
1.0
  6
BYLAYER
100
AcDbLine
 10
8.4988499999999476
 20
8.5011110000000372
 30
0.0
 11
8.4988499999999476
 21
103.750831000000062
 31
0.0
  0
LINE
  5
B1
100
AcDbEntity
  8
0
 62
0
370
-1
 48
1.0
  6
BYLAYER
100
AcDbLine
 10
4.4402000000000044
 20
108.4499052532228234
 30
0.0
 11
4.161200000000008
 21
108.3089052532228607
 31
0.0
  0
LINE
  5
B2
100
AcDbEntity
  8
0
 62
0
370
-1
 48
1.0
  6
BYLAYER
100
AcDbLine
 10
165.3549999999995634
 20
108.4499052532228234
 30
0.0
 11
165.0759999999995671
 21
108.3089052532228607
 31
0.0
  0
LINE
  5
B3
100
AcDbEntity
  8
0
 62
0
370
-1
 48
1.0
  6
BYLAYER
100
AcDbLine
 10
326.2669587330597096
 20
108.4499052532228234
 30
0.0
 11
325.9879587330597133
 21
108.3089052532228607
 31
0.0
  0
LINE
  5
B4
100
AcDbEntity
  8
0
 62
0
370
-1
 48
1.0
  6
BYLAYER
100
AcDbLine
 10
326.2669528554836234
 20
5.7001309999998853
 30
0.0
 11
325.987952855483627
 21
5.5591309999999226
 31
0.0
  0
LINE
  5
B5
100
AcDbEntity
  8
0
 62
0
370
-1
 48
1.0
  6
BYLAYER
100
AcDbLine
 10
165.3549569251440516
 20
5.7001309999998844
 30
0.0
 11
165.0759569251440553
 21
5.5591309999999217
 31
0.0
  0
LINE
  5
B6
100
AcDbEntity
  8
0
 62
0
370
-1
 48
1.0
  6
BYLAYER
100
AcDbLine
 10
4.4402393461518841
 20
5.7001309999998844
 30
0.0
 11
4.1612393461518877
 21
5.5591309999999217
 31
0.0
  0
LINE
  5
B7
100
AcDbEntity
  8
0
 62
0
370
-1
 48
1.0
  6
BYLAYER
100
AcDbLine
 10
4.161200000000008
 20
108.3089052532228607
 30
0.0
 11
3.939200000000028
 21
108.0869052532228807
 31
0.0
  0
LINE
  5
B8
100
AcDbEntity
  8
0
 62
0
370
-1
 48
1.0
  6
BYLAYER
100
AcDbLine
 10
165.0759999999995671
 20
108.3089052532228607
 30
0.0
 11
164.8539999999995871
 21
108.0869052532228807
 31
0.0
  0
LINE
  5
B9
100
AcDbEntity
  8
0
 62
0
370
-1
 48
1.0
  6
BYLAYER
100
AcDbLine
 10
325.9879587330597133
 20
108.3089052532228607
 30
0.0
 11
325.7659587330595059
 21
108.0869052532228807
 31
0.0
  0
LINE
  5
BA
100
AcDbEntity
  8
0
 62
0
370
-1
 48
1.0
  6
BYLAYER
100
AcDbLine
 10
325.987952855483627
 20
5.5591309999999226
 30
0.0
 11
325.765952855483647
 21
5.3371309999999426
 31
0.0
  0
LINE
  5
BB
100
AcDbEntity
  8
0
 62
0
370
-1
 48
1.0
  6
BYLAYER
100
AcDbLine
 10
165.0759569251440553
 20
5.5591309999999217
 30
0.0
 11
164.8539569251440753
 21
5.3371309999999417
 31
0.0
  0
LINE
  5
BC
100
AcDbEntity
  8
0
 62
0
370
-1
 48
1.0
  6
BYLAYER
100
AcDbLine
 10
4.1612393461518877
 20
5.5591309999999217
 30
0.0
 11
3.9392393461519077
 21
5.3371309999999417
 31
0.0
  0
LINE
  5
BD
100
AcDbEntity
  8
0
 62
0
370
-1
 48
1.0
  6
BYLAYER
100
AcDbLine
 10
3.939200000000028
 20
108.0869052532228807
 30
0.0
 11
3.7981999999999516
 21
107.8079052532228843
 31
0.0
  0
LINE
  5
BE
100
AcDbEntity
  8
0
 62
0
370
-1
 48
1.0
  6
BYLAYER
100
AcDbLine
 10
164.8539999999995871
 20
108.0869052532228807
 30
0.0
 11
164.7129999999995107
 21
107.8079052532228843
 31
0.0
  0
LINE
  5
BF
100
AcDbEntity
  8
0
 62
0
370
-1
 48
1.0
  6
BYLAYER
100
AcDbLine
 10
325.7659587330595059
 20
108.0869052532228807
 30
0.0
 11
325.6249587330596569
 21
107.8079052532228843
 31
0.0
  0
LINE
  5
C0
100
AcDbEntity
  8
0
 62
0
370
-1
 48
1.0
  6
BYLAYER
100
AcDbLine
 10
325.765952855483647
 20
5.3371309999999426
 30
0.0
 11
325.6249528554835706
 21
5.0581309999999462
 31
0.0
  0
LINE
  5
C1
100
AcDbEntity
  8
0
 62
0
370
-1
 48
1.0
  6
BYLAYER
100
AcDbLine
 10
164.8539569251440753
 20
5.3371309999999417
 30
0.0
 11
164.7129569251439989
 21
5.0581309999999453
 31
0.0
  0
LINE
  5
C2
100
AcDbEntity
  8
0
 62
0
370
-1
 48
1.0
  6
BYLAYER
100
AcDbLine
 10
3.9392393461519077
 20
5.3371309999999417
 30
0.0
 11
3.7982393461518313
 21
5.0581309999999453
 31
0.0
  0
LINE
  5
C3
100
AcDbEntity
  8
0
 62
0
370
-1
 48
1.0
  6
BYLAYER
100
AcDbLine
 10
3.7981999999999516
 20
107.8079052532228843
 30
0.0
 11
3.7491999999999734
 21
107.4999052532228916
 31
0.0
  0
LINE
  5
C4
100
AcDbEntity
  8
0
 62
0
370
-1
 48
1.0
  6
BYLAYER
100
AcDbLine
 10
164.7129999999995107
 20
107.8079052532228843
 30
0.0
 11
164.6639999999995325
 21
107.4999052532228916
 31
0.0
  0
LINE
  5
C5
100
AcDbEntity
  8
0
 62
0
370
-1
 48
1.0
  6
BYLAYER
100
AcDbLine
 10
325.6249587330596569
 20
107.8079052532228843
 30
0.0
 11
325.5759587330594513
 21
107.4999052532228916
 31
0.0
  0
LINE
  5
C6
100
AcDbEntity
  8
0
 62
0
370
-1
 48
1.0
  6
BYLAYER
100
AcDbLine
 10
325.6249528554835706
 20
5.0581309999999462
 30
0.0
 11
325.5759528554835924
 21
4.7501309999999535
 31
0.0
  0
LINE
  5
C7
100
AcDbEntity
  8
0
 62
0
370
-1
 48
1.0
  6
BYLAYER
100
AcDbLine
 10
164.7129569251439989
 20
5.0581309999999453
 30
0.0
 11
164.6639569251440207
 21
4.7501309999999526
 31
0.0
  0
LINE
  5
C8
100
AcDbEntity
  8
0
 62
0
370
-1
 48
1.0
  6
BYLAYER
100
AcDbLine
 10
3.7982393461518313
 20
5.0581309999999453
 30
0.0
 11
3.7492393461518532
 21
4.7501309999999526
 31
0.0
  0
LINE
  5
C9
100
AcDbEntity
  8
0
 62
0
370
-1
 48
1.0
  6
BYLAYER
100
AcDbLine
 10
3.7491999999999734
 20
107.4999052532228916
 30
0.0
 11
3.7981999999999516
 21
107.1899052532228325
 31
0.0
  0
LINE
  5
CA
100
AcDbEntity
  8
0
 62
0
370
-1
 48
1.0
  6
BYLAYER
100
AcDbLine
 10
164.6639999999995325
 20
107.4999052532228916
 30
0.0
 11
164.7129999999995107
 21
107.1899052532228325
 31
0.0
  0
LINE
  5
CB
100
AcDbEntity
  8
0
 62
0
370
-1
 48
1.0
  6
BYLAYER
100
AcDbLine
 10
325.5759587330594513
 20
107.4999052532228916
 30
0.0
 11
325.6249587330596569
 21
107.1899052532228325
 31
0.0
  0
LINE
  5
CC
100
AcDbEntity
  8
0
 62
0
370
-1
 48
1.0
  6
BYLAYER
100
AcDbLine
 10
325.5759528554835924
 20
4.7501309999999535
 30
0.0
 11
325.6249528554835706
 21
4.4401309999998944
 31
0.0
  0
LINE
  5
CD
100
AcDbEntity
  8
0
 62
0
370
-1
 48
1.0
  6
BYLAYER
100
AcDbLine
 10
164.6639569251440207
 20
4.7501309999999526
 30
0.0
 11
164.7129569251439989
 21
4.4401309999998935
 31
0.0
  0
LINE
  5
CE
100
AcDbEntity
  8
0
 62
0
370
-1
 48
1.0
  6
BYLAYER
100
AcDbLine
 10
3.7492393461518532
 20
4.7501309999999526
 30
0.0
 11
3.7982393461518313
 21
4.4401309999998935
 31
0.0
  0
LINE
  5
CF
100
AcDbEntity
  8
0
 62
0
370
-1
 48
1.0
  6
BYLAYER
100
AcDbLine
 10
3.7981999999999516
 20
107.1899052532228325
 30
0.0
 11
3.939200000000028
 21
106.9109052532228361
 31
0.0
  0
LINE
  5
D0
100
AcDbEntity
  8
0
 62
0
370
-1
 48
1.0
  6
BYLAYER
100
AcDbLine
 10
164.7129999999995107
 20
107.1899052532228325
 30
0.0
 11
164.8539999999995871
 21
106.9109052532228361
 31
0.0
  0
LINE
  5
D1
100
AcDbEntity
  8
0
 62
0
370
-1
 48
1.0
  6
BYLAYER
100
AcDbLine
 10
325.6249587330596569
 20
107.1899052532228325
 30
0.0
 11
325.7659587330595059
 21
106.9109052532228361
 31
0.0
  0
LINE
  5
D2
100
AcDbEntity
  8
0
 62
0
370
-1
 48
1.0
  6
BYLAYER
100
AcDbLine
 10
325.6249528554835706
 20
4.4401309999998944
 30
0.0
 11
325.765952855483647
 21
4.161130999999898
 31
0.0
  0
LINE
  5
D3
100
AcDbEntity
  8
0
 62
0
370
-1
 48
1.0
  6
BYLAYER
100
AcDbLine
 10
164.7129569251439989
 20
4.4401309999998935
 30
0.0
 11
164.8539569251440753
 21
4.1611309999998971
 31
0.0
  0
LINE
  5
D4
100
AcDbEntity
  8
0
 62
0
370
-1
 48
1.0
  6
BYLAYER
100
AcDbLine
 10
3.7982393461518313
 20
4.4401309999998935
 30
0.0
 11
3.9392393461519077
 21
4.1611309999998971
 31
0.0
  0
LINE
  5
D5
100
AcDbEntity
  8
0
 62
0
370
-1
 48
1.0
  6
BYLAYER
100
AcDbLine
 10
3.939200000000028
 20
106.9109052532228361
 30
0.0
 11
4.161200000000008
 21
106.6889052532228561
 31
0.0
  0
LINE
  5
D6
100
AcDbEntity
  8
0
 62
0
370
-1
 48
1.0
  6
BYLAYER
100
AcDbLine
 10
164.8539999999995871
 20
106.9109052532228361
 30
0.0
 11
165.0759999999995671
 21
106.6889052532228561
 31
0.0
  0
LINE
  5
D7
100
AcDbEntity
  8
0
 62
0
370
-1
 48
1.0
  6
BYLAYER
100
AcDbLine
 10
325.7659587330595059
 20
106.9109052532228361
 30
0.0
 11
325.9879587330597133
 21
106.6889052532228561
 31
0.0
  0
LINE
  5
D8
100
AcDbEntity
  8
0
 62
0
370
-1
 48
1.0
  6
BYLAYER
100
AcDbLine
 10
325.765952855483647
 20
4.161130999999898
 30
0.0
 11
325.987952855483627
 21
3.939130999999918
 31
0.0
  0
LINE
  5
D9
100
AcDbEntity
  8
0
 62
0
370
-1
 48
1.0
  6
BYLAYER
100
AcDbLine
 10
164.8539569251440753
 20
4.1611309999998971
 30
0.0
 11
165.0759569251440553
 21
3.9391309999999171
 31
0.0
  0
LINE
  5
DA
100
AcDbEntity
  8
0
 62
0
370
-1
 48
1.0
  6
BYLAYER
100
AcDbLine
 10
3.9392393461519077
 20
4.1611309999998971
 30
0.0
 11
4.1612393461518877
 21
3.9391309999999171
 31
0.0
  0
LINE
  5
DB
100
AcDbEntity
  8
0
 62
0
370
-1
 48
1.0
  6
BYLAYER
100
AcDbLine
 10
4.161200000000008
 20
106.6889052532228561
 30
0.0
 11
4.4402000000000044
 21
106.5469052532229171
 31
0.0
  0
LINE
  5
DC
100
AcDbEntity
  8
0
 62
0
370
-1
 48
1.0
  6
BYLAYER
100
AcDbLine
 10
165.0759999999995671
 20
106.6889052532228561
 30
0.0
 11
165.3549999999995634
 21
106.5469052532229171
 31
0.0
  0
LINE
  5
DD
100
AcDbEntity
  8
0
 62
0
370
-1
 48
1.0
  6
BYLAYER
100
AcDbLine
 10
325.9879587330597133
 20
106.6889052532228561
 30
0.0
 11
326.2669587330597096
 21
106.5469052532229171
 31
0.0
  0
LINE
  5
DE
100
AcDbEntity
  8
0
 62
0
370
-1
 48
1.0
  6
BYLAYER
100
AcDbLine
 10
325.987952855483627
 20
3.939130999999918
 30
0.0
 11
326.2669528554836234
 21
3.7971309999999789
 31
0.0
  0
LINE
  5
DF
100
AcDbEntity
  8
0
 62
0
370
-1
 48
1.0
  6
BYLAYER
100
AcDbLine
 10
165.0759569251440553
 20
3.9391309999999171
 30
0.0
 11
165.3549569251440516
 21
3.7971309999999781
 31
0.0
  0
LINE
  5
E0
100
AcDbEntity
  8
0
 62
0
370
-1
 48
1.0
  6
BYLAYER
100
AcDbLine
 10
4.1612393461518877
 20
3.9391309999999171
 30
0.0
 11
4.4402393461518841
 21
3.7971309999999781
 31
0.0
  0
LINE
  5
E1
100
AcDbEntity
  8
0
 62
0
370
-1
 48
1.0
  6
BYLAYER
100
AcDbLine
 10
4.4402000000000044
 20
106.5469052532229171
 30
0.0
 11
4.7501999999999498
 21
106.4989052532229152
 31
0.0
  0
LINE
  5
E2
100
AcDbEntity
  8
0
 62
0
370
-1
 48
1.0
  6
BYLAYER
100
AcDbLine
 10
165.3549999999995634
 20
106.5469052532229171
 30
0.0
 11
165.6649999999995089
 21
106.4989052532229152
 31
0.0
  0
LINE
  5
E3
100
AcDbEntity
  8
0
 62
0
370
-1
 48
1.0
  6
BYLAYER
100
AcDbLine
 10
326.2669587330597096
 20
106.5469052532229171
 30
0.0
 11
326.5769587330596551
 21
106.4989052532229152
 31
0.0
  0
LINE
  5
E4
100
AcDbEntity
  8
0
 62
0
370
-1
 48
1.0
  6
BYLAYER
100
AcDbLine
 10
326.2669528554836234
 20
3.7971309999999789
 30
0.0
 11
326.5769528554835688
 21
3.7491309999999771
 31
0.0
  0
LINE
  5
E5
100
AcDbEntity
  8
0
 62
0
370
-1
 48
1.0
  6
BYLAYER
100
AcDbLine
 10
165.3549569251440516
 20
3.7971309999999781
 30
0.0
 11
165.6649569251439971
 21
3.7491309999999762
 31
0.0
  0
LINE
  5
E6
100
AcDbEntity
  8
0
 62
0
370
-1
 48
1.0
  6
BYLAYER
100
AcDbLine
 10
4.4402393461518841
 20
3.7971309999999781
 30
0.0
 11
4.7502393461518295
 21
3.7491309999999762
 31
0.0
  0
LINE
  5
E7
100
AcDbEntity
  8
0
 62
0
370
-1
 48
1.0
  6
BYLAYER
100
AcDbLine
 10
4.7501999999999498
 20
106.4989052532229152
 30
0.0
 11
5.0581999999999425
 21
106.5469052532229171
 31
0.0
  0
LINE
  5
E8
100
AcDbEntity
  8
0
 62
0
370
-1
 48
1.0
  6
BYLAYER
100
AcDbLine
 10
165.6649999999995089
 20
106.4989052532229152
 30
0.0
 11
165.9729999999995016
 21
106.5469052532229171
 31
0.0
  0
LINE
  5
E9
100
AcDbEntity
  8
0
 62
0
370
-1
 48
1.0
  6
BYLAYER
100
AcDbLine
 10
326.5769587330596551
 20
106.4989052532229152
 30
0.0
 11
326.8849587330596478
 21
106.5469052532229171
 31
0.0
  0
LINE
  5
EA
100
AcDbEntity
  8
0
 62
0
370
-1
 48
1.0
  6
BYLAYER
100
AcDbLine
 10
326.5769528554835688
 20
3.7491309999999771
 30
0.0
 11
326.8849528554835615
 21
3.7971309999999789
 31
0.0
  0
LINE
  5
EB
100
AcDbEntity
  8
0
 62
0
370
-1
 48
1.0
  6
BYLAYER
100
AcDbLine
 10
165.6649569251439971
 20
3.7491309999999762
 30
0.0
 11
165.9729569251439898
 21
3.7971309999999781
 31
0.0
  0
LINE
  5
EC
100
AcDbEntity
  8
0
 62
0
370
-1
 48
1.0
  6
BYLAYER
100
AcDbLine
 10
4.7502393461518295
 20
3.7491309999999762
 30
0.0
 11
5.0582393461518222
 21
3.7971309999999781
 31
0.0
  0
LINE
  5
ED
100
AcDbEntity
  8
0
 62
0
370
-1
 48
1.0
  6
BYLAYER
100
AcDbLine
 10
5.0581999999999425
 20
106.5469052532229171
 30
0.0
 11
5.3371999999999389
 21
106.6889052532228561
 31
0.0
  0
LINE
  5
EE
100
AcDbEntity
  8
0
 62
0
370
-1
 48
1.0
  6
BYLAYER
100
AcDbLine
 10
165.9729999999995016
 20
106.5469052532229171
 30
0.0
 11
166.251999999999498
 21
106.6889052532228561
 31
0.0
  0
LINE
  5
EF
100
AcDbEntity
  8
0
 62
0
370
-1
 48
1.0
  6
BYLAYER
100
AcDbLine
 10
326.8849587330596478
 20
106.5469052532229171
 30
0.0
 11
327.1639587330596441
 21
106.6889052532228561
 31
0.0
  0
LINE
  5
F0
100
AcDbEntity
  8
0
 62
0
370
-1
 48
1.0
  6
BYLAYER
100
AcDbLine
 10
326.8849528554835615
 20
3.7971309999999789
 30
0.0
 11
327.1639528554835579
 21
3.939130999999918
 31
0.0
  0
LINE
  5
F1
100
AcDbEntity
  8
0
 62
0
370
-1
 48
1.0
  6
BYLAYER
100
AcDbLine
 10
165.9729569251439898
 20
3.7971309999999781
 30
0.0
 11
166.2519569251439862
 21
3.9391309999999171
 31
0.0
  0
LINE
  5
F2
100
AcDbEntity
  8
0
 62
0
370
-1
 48
1.0
  6
BYLAYER
100
AcDbLine
 10
5.0582393461518222
 20
3.7971309999999781
 30
0.0
 11
5.3372393461518186
 21
3.9391309999999171
 31
0.0
  0
LINE
  5
F3
100
AcDbEntity
  8
0
 62
0
370
-1
 48
1.0
  6
BYLAYER
100
AcDbLine
 10
5.3371999999999389
 20
106.6889052532228561
 30
0.0
 11
5.5591999999999189
 21
106.9109052532228361
 31
0.0
  0
LINE
  5
F4
100
AcDbEntity
  8
0
 62
0
370
-1
 48
1.0
  6
BYLAYER
100
AcDbLine
 10
166.251999999999498
 20
106.6889052532228561
 30
0.0
 11
166.473999999999478
 21
106.9109052532228361
 31
0.0
  0
LINE
  5
F5
100
AcDbEntity
  8
0
 62
0
370
-1
 48
1.0
  6
BYLAYER
100
AcDbLine
 10
327.1639587330596441
 20
106.6889052532228561
 30
0.0
 11
327.3859587330596241
 21
106.9109052532228361
 31
0.0
  0
LINE
  5
F6
100
AcDbEntity
  8
0
 62
0
370
-1
 48
1.0
  6
BYLAYER
100
AcDbLine
 10
327.1639528554835579
 20
3.939130999999918
 30
0.0
 11
327.3859528554835379
 21
4.161130999999898
 31
0.0
  0
LINE
  5
F7
100
AcDbEntity
  8
0
 62
0
370
-1
 48
1.0
  6
BYLAYER
100
AcDbLine
 10
166.2519569251439862
 20
3.9391309999999171
 30
0.0
 11
166.4739569251439661
 21
4.1611309999998971
 31
0.0
  0
LINE
  5
F8
100
AcDbEntity
  8
0
 62
0
370
-1
 48
1.0
  6
BYLAYER
100
AcDbLine
 10
5.3372393461518186
 20
3.9391309999999171
 30
0.0
 11
5.5592393461517986
 21
4.1611309999998971
 31
0.0
  0
LINE
  5
F9
100
AcDbEntity
  8
0
 62
0
370
-1
 48
1.0
  6
BYLAYER
100
AcDbLine
 10
5.5591999999999189
 20
106.9109052532228361
 30
0.0
 11
5.7001999999999953
 21
107.1899052532228325
 31
0.0
  0
LINE
  5
FA
100
AcDbEntity
  8
0
 62
0
370
-1
 48
1.0
  6
BYLAYER
100
AcDbLine
 10
166.473999999999478
 20
106.9109052532228361
 30
0.0
 11
166.6149999999995543
 21
107.1899052532228325
 31
0.0
  0
LINE
  5
FB
100
AcDbEntity
  8
0
 62
0
370
-1
 48
1.0
  6
BYLAYER
100
AcDbLine
 10
327.3859587330596241
 20
106.9109052532228361
 30
0.0
 11
327.5269587330594732
 21
107.1899052532228325
 31
0.0
  0
LINE
  5
FC
100
AcDbEntity
  8
0
 62
0
370
-1
 48
1.0
  6
BYLAYER
100
AcDbLine
 10
327.3859528554835379
 20
4.161130999999898
 30
0.0
 11
327.5269528554836143
 21
4.4401309999998944
 31
0.0
  0
LINE
  5
FD
100
AcDbEntity
  8
0
 62
0
370
-1
 48
1.0
  6
BYLAYER
100
AcDbLine
 10
166.4739569251439661
 20
4.1611309999998971
 30
0.0
 11
166.6149569251440425
 21
4.4401309999998935
 31
0.0
  0
LINE
  5
FE
100
AcDbEntity
  8
0
 62
0
370
-1
 48
1.0
  6
BYLAYER
100
AcDbLine
 10
5.5592393461517986
 20
4.1611309999998971
 30
0.0
 11
5.700239346151875
 21
4.4401309999998935
 31
0.0
  0
LINE
  5
FF
100
AcDbEntity
  8
0
 62
0
370
-1
 48
1.0
  6
BYLAYER
100
AcDbLine
 10
5.7001999999999953
 20
107.1899052532228325
 30
0.0
 11
5.7491999999999734
 21
107.4979052532228252
 31
0.0
  0
LINE
  5
100
100
AcDbEntity
  8
0
 62
0
370
-1
 48
1.0
  6
BYLAYER
100
AcDbLine
 10
166.6149999999995543
 20
107.1899052532228325
 30
0.0
 11
166.6639999999995325
 21
107.4979052532228252
 31
0.0
  0
LINE
  5
101
100
AcDbEntity
  8
0
 62
0
370
-1
 48
1.0
  6
BYLAYER
100
AcDbLine
 10
327.5269587330594732
 20
107.1899052532228325
 30
0.0
 11
327.5759587330594513
 21
107.4979052532228252
 31
0.0
  0
LINE
  5
102
100
AcDbEntity
  8
0
 62
0
370
-1
 48
1.0
  6
BYLAYER
100
AcDbLine
 10
327.5269528554836143
 20
4.4401309999998944
 30
0.0
 11
327.5759528554835924
 21
4.7481309999998871
 31
0.0
  0
LINE
  5
103
100
AcDbEntity
  8
0
 62
0
370
-1
 48
1.0
  6
BYLAYER
100
AcDbLine
 10
166.6149569251440425
 20
4.4401309999998935
 30
0.0
 11
166.6639569251440207
 21
4.7481309999998862
 31
0.0
  0
LINE
  5
104
100
AcDbEntity
  8
0
 62
0
370
-1
 48
1.0
  6
BYLAYER
100
AcDbLine
 10
5.700239346151875
 20
4.4401309999998935
 30
0.0
 11
5.7492393461518532
 21
4.7481309999998862
 31
0.0
  0
LINE
  5
105
100
AcDbEntity
  8
0
 62
0
370
-1
 48
1.0
  6
BYLAYER
100
AcDbLine
 10
5.7491999999999734
 20
107.4979052532228252
 30
0.0
 11
5.7001999999999953
 21
107.8079052532228843
 31
0.0
  0
LINE
  5
106
100
AcDbEntity
  8
0
 62
0
370
-1
 48
1.0
  6
BYLAYER
100
AcDbLine
 10
166.6639999999995325
 20
107.4979052532228252
 30
0.0
 11
166.6149999999995543
 21
107.8079052532228843
 31
0.0
  0
LINE
  5
107
100
AcDbEntity
  8
0
 62
0
370
-1
 48
1.0
  6
BYLAYER
100
AcDbLine
 10
327.5759587330594513
 20
107.4979052532228252
 30
0.0
 11
327.5269587330594732
 21
107.8079052532228843
 31
0.0
  0
LINE
  5
108
100
AcDbEntity
  8
0
 62
0
370
-1
 48
1.0
  6
BYLAYER
100
AcDbLine
 10
327.5759528554835924
 20
4.7481309999998871
 30
0.0
 11
327.5269528554836143
 21
5.0581309999999462
 31
0.0
  0
LINE
  5
109
100
AcDbEntity
  8
0
 62
0
370
-1
 48
1.0
  6
BYLAYER
100
AcDbLine
 10
166.6639569251440207
 20
4.7481309999998862
 30
0.0
 11
166.6149569251440425
 21
5.0581309999999453
 31
0.0
  0
LINE
  5
10A
100
AcDbEntity
  8
0
 62
0
370
-1
 48
1.0
  6
BYLAYER
100
AcDbLine
 10
5.7492393461518532
 20
4.7481309999998862
 30
0.0
 11
5.700239346151875
 21
5.0581309999999453
 31
0.0
  0
LINE
  5
10B
100
AcDbEntity
  8
0
 62
0
370
-1
 48
1.0
  6
BYLAYER
100
AcDbLine
 10
5.7001999999999953
 20
107.8079052532228843
 30
0.0
 11
5.5591999999999189
 21
108.0869052532228807
 31
0.0
  0
LINE
  5
10C
100
AcDbEntity
  8
0
 62
0
370
-1
 48
1.0
  6
BYLAYER
100
AcDbLine
 10
166.6149999999995543
 20
107.8079052532228843
 30
0.0
 11
166.473999999999478
 21
108.0869052532228807
 31
0.0
  0
LINE
  5
10D
100
AcDbEntity
  8
0
 62
0
370
-1
 48
1.0
  6
BYLAYER
100
AcDbLine
 10
327.5269587330594732
 20
107.8079052532228843
 30
0.0
 11
327.3859587330596241
 21
108.0869052532228807
 31
0.0
  0
LINE
  5
10E
100
AcDbEntity
  8
0
 62
0
370
-1
 48
1.0
  6
BYLAYER
100
AcDbLine
 10
327.5269528554836143
 20
5.0581309999999462
 30
0.0
 11
327.3859528554835379
 21
5.3371309999999426
 31
0.0
  0
LINE
  5
10F
100
AcDbEntity
  8
0
 62
0
370
-1
 48
1.0
  6
BYLAYER
100
AcDbLine
 10
166.6149569251440425
 20
5.0581309999999453
 30
0.0
 11
166.4739569251439661
 21
5.3371309999999417
 31
0.0
  0
LINE
  5
110
100
AcDbEntity
  8
0
 62
0
370
-1
 48
1.0
  6
BYLAYER
100
AcDbLine
 10
5.700239346151875
 20
5.0581309999999453
 30
0.0
 11
5.5592393461517986
 21
5.3371309999999417
 31
0.0
  0
LINE
  5
111
100
AcDbEntity
  8
0
 62
0
370
-1
 48
1.0
  6
BYLAYER
100
AcDbLine
 10
5.5591999999999189
 20
108.0869052532228807
 30
0.0
 11
5.3371999999999389
 21
108.3089052532228607
 31
0.0
  0
LINE
  5
112
100
AcDbEntity
  8
0
 62
0
370
-1
 48
1.0
  6
BYLAYER
100
AcDbLine
 10
166.473999999999478
 20
108.0869052532228807
 30
0.0
 11
166.251999999999498
 21
108.3089052532228607
 31
0.0
  0
LINE
  5
113
100
AcDbEntity
  8
0
 62
0
370
-1
 48
1.0
  6
BYLAYER
100
AcDbLine
 10
327.3859587330596241
 20
108.0869052532228807
 30
0.0
 11
327.1639587330596441
 21
108.3089052532228607
 31
0.0
  0
LINE
  5
114
100
AcDbEntity
  8
0
 62
0
370
-1
 48
1.0
  6
BYLAYER
100
AcDbLine
 10
327.3859528554835379
 20
5.3371309999999426
 30
0.0
 11
327.1639528554835579
 21
5.5591309999999226
 31
0.0
  0
LINE
  5
115
100
AcDbEntity
  8
0
 62
0
370
-1
 48
1.0
  6
BYLAYER
100
AcDbLine
 10
166.4739569251439661
 20
5.3371309999999417
 30
0.0
 11
166.2519569251439862
 21
5.5591309999999217
 31
0.0
  0
LINE
  5
116
100
AcDbEntity
  8
0
 62
0
370
-1
 48
1.0
  6
BYLAYER
100
AcDbLine
 10
5.5592393461517986
 20
5.3371309999999417
 30
0.0
 11
5.3372393461518186
 21
5.5591309999999217
 31
0.0
  0
LINE
  5
117
100
AcDbEntity
  8
0
 62
0
370
-1
 48
1.0
  6
BYLAYER
100
AcDbLine
 10
5.3371999999999389
 20
108.3089052532228607
 30
0.0
 11
5.0581999999999425
 21
108.4499052532228234
 31
0.0
  0
LINE
  5
118
100
AcDbEntity
  8
0
 62
0
370
-1
 48
1.0
  6
BYLAYER
100
AcDbLine
 10
166.251999999999498
 20
108.3089052532228607
 30
0.0
 11
165.9729999999995016
 21
108.4499052532228234
 31
0.0
  0
LINE
  5
119
100
AcDbEntity
  8
0
 62
0
370
-1
 48
1.0
  6
BYLAYER
100
AcDbLine
 10
327.1639587330596441
 20
108.3089052532228607
 30
0.0
 11
326.8849587330596478
 21
108.4499052532228234
 31
0.0
  0
LINE
  5
11A
100
AcDbEntity
  8
0
 62
0
370
-1
 48
1.0
  6
BYLAYER
100
AcDbLine
 10
327.1639528554835579
 20
5.5591309999999226
 30
0.0
 11
326.8849528554835615
 21
5.7001309999998853
 31
0.0
  0
LINE
  5
11B
100
AcDbEntity
  8
0
 62
0
370
-1
 48
1.0
  6
BYLAYER
100
AcDbLine
 10
166.2519569251439862
 20
5.5591309999999217
 30
0.0
 11
165.9729569251439898
 21
5.7001309999998844
 31
0.0
  0
LINE
  5
11C
100
AcDbEntity
  8
0
 62
0
370
-1
 48
1.0
  6
BYLAYER
100
AcDbLine
 10
5.3372393461518186
 20
5.5591309999999217
 30
0.0
 11
5.0582393461518222
 21
5.7001309999998844
 31
0.0
  0
LINE
  5
11D
100
AcDbEntity
  8
0
 62
0
370
-1
 48
1.0
  6
BYLAYER
100
AcDbLine
 10
5.0581999999999425
 20
108.4499052532228234
 30
0.0
 11
4.7501999999999498
 21
108.4989052532229152
 31
0.0
  0
LINE
  5
11E
100
AcDbEntity
  8
0
 62
0
370
-1
 48
1.0
  6
BYLAYER
100
AcDbLine
 10
165.9729999999995016
 20
108.4499052532228234
 30
0.0
 11
165.6649999999995089
 21
108.4989052532229152
 31
0.0
  0
LINE
  5
11F
100
AcDbEntity
  8
0
 62
0
370
-1
 48
1.0
  6
BYLAYER
100
AcDbLine
 10
326.8849587330596478
 20
108.4499052532228234
 30
0.0
 11
326.5769587330596551
 21
108.4989052532229152
 31
0.0
  0
LINE
  5
120
100
AcDbEntity
  8
0
 62
0
370
-1
 48
1.0
  6
BYLAYER
100
AcDbLine
 10
326.8849528554835615
 20
5.7001309999998853
 30
0.0
 11
326.5769528554835688
 21
5.7491309999999771
 31
0.0
  0
LINE
  5
121
100
AcDbEntity
  8
0
 62
0
370
-1
 48
1.0
  6
BYLAYER
100
AcDbLine
 10
165.9729569251439898
 20
5.7001309999998844
 30
0.0
 11
165.6649569251439971
 21
5.7491309999999762
 31
0.0
  0
LINE
  5
122
100
AcDbEntity
  8
0
 62
0
370
-1
 48
1.0
  6
BYLAYER
100
AcDbLine
 10
5.0582393461518222
 20
5.7001309999998844
 30
0.0
 11
4.7502393461518295
 21
5.7491309999999762
 31
0.0
  0
LINE
  5
123
100
AcDbEntity
  8
0
 62
0
370
-1
 48
1.0
  6
BYLAYER
100
AcDbLine
 10
4.7501999999999498
 20
108.4989052532229152
 30
0.0
 11
4.4402000000000044
 21
108.4499052532228234
 31
0.0
  0
LINE
  5
124
100
AcDbEntity
  8
0
 62
0
370
-1
 48
1.0
  6
BYLAYER
100
AcDbLine
 10
165.6649999999995089
 20
108.4989052532229152
 30
0.0
 11
165.3549999999995634
 21
108.4499052532228234
 31
0.0
  0
LINE
  5
125
100
AcDbEntity
  8
0
 62
0
370
-1
 48
1.0
  6
BYLAYER
100
AcDbLine
 10
326.5769587330596551
 20
108.4989052532229152
 30
0.0
 11
326.2669587330597096
 21
108.4499052532228234
 31
0.0
  0
LINE
  5
126
100
AcDbEntity
  8
0
 62
0
370
-1
 48
1.0
  6
BYLAYER
100
AcDbLine
 10
326.5769528554835688
 20
5.7491309999999771
 30
0.0
 11
326.2669528554836234
 21
5.7001309999998853
 31
0.0
  0
LINE
  5
127
100
AcDbEntity
  8
0
 62
0
370
-1
 48
1.0
  6
BYLAYER
100
AcDbLine
 10
165.6649569251439971
 20
5.7491309999999762
 30
0.0
 11
165.3549569251440516
 21
5.7001309999998844
 31
0.0
  0
LINE
  5
128
100
AcDbEntity
  8
0
 62
0
370
-1
 48
1.0
  6
BYLAYER
100
AcDbLine
 10
4.7502393461518295
 20
5.7491309999999762
 30
0.0
 11
4.4402393461518841
 21
5.7001309999998844
 31
0.0
  0
ENDSEC
  0
SECTION
  2
OBJECTS
  0
DICTIONARY
  5
C
100
AcDbDictionary
280
0
281
1
  3
ACAD_GROUP
350
D
  3
ACAD_LAYOUT
350
1A
  3
ACAD_MLINESTYLE
350
17
  3
ACAD_PLOTSETTINGS
350
19
  3
ACAD_PLOTSTYLENAME
350
E
  3
AcDbVariableDictionary
350
129
  3
QCAD_OBJECTS
350
12A
  0
DICTIONARY
  5
D
100
AcDbDictionary
280
0
281
1
  0
ACDBDICTIONARYWDFLT
  5
E
100
AcDbDictionary
281
1
  3
Normal
350
F
100
AcDbDictionaryWithDefault
340
F
  0
ACDBPLACEHOLDER
  5
F
  0
DICTIONARY
  5
17
100
AcDbDictionary
280
0
281
1
  3
Standard
350
18
  0
MLINESTYLE
  5
18
100
AcDbMlineStyle
  2
STANDARD
 70
0
  3

 62
256
 51
90.0
 52
90.0
 71
2
 49
0.5
 62
256
  6
BYLAYER
 49
-0.5
 62
256
  6
BYLAYER
  0
DICTIONARY
  5
19
100
AcDbDictionary
280
0
281
1
  0
DICTIONARY
  5
1A
100
AcDbDictionary
281
1
  3
Layout1
350
1E
  3
Layout2
350
26
  3
Model
350
22
  0
LAYOUT
  5
1E
100
AcDbPlotSettings
  1

  2
none_device
  4

  6

 40
0.0
 41
0.0
 42
0.0
 43
0.0
 44
0.0
 45
0.0
 46
0.0
 47
0.0
 48
0.0
 49
0.0
140
0.0
141
0.0
142
1.0
143
1.0
 70
688
 72
0
 73
0
 74
5
  7

 75
16
147
1.0
148
0.0
149
0.0
100
AcDbLayout
  1
Layout1
 70
1
 71
1
 10
0.0
 20
0.0
 11
420.0
 21
297.0
 12
0.0
 22
0.0
 32
0.0
 14
100000000000000000000.0
 24
100000000000000000000.0
 34
100000000000000000000.0
 15
-100000000000000000000.0
 25
-100000000000000000000.0
 35
-100000000000000000000.0
146
0.0
 13
0.0
 23
0.0
 33
0.0
 16
1.0
 26
0.0
 36
0.0
 17
0.0
 27
1.0
 37
0.0
 76
0
330
1B
  0
LAYOUT
  5
22
100
AcDbPlotSettings
  1

  2
none_device
  4

  6

 40
0.0
 41
0.0
 42
0.0
 43
0.0
 44
0.0
 45
0.0
 46
0.0
 47
0.0
 48
0.0
 49
0.0
140
0.0
141
0.0
142
1.0
143
1.0
 70
1712
 72
0
 73
0
 74
0
  7

 75
0
147
1.0
148
0.0
149
0.0
100
AcDbLayout
  1
Model
 70
1
 71
0
 10
0.0
 20
0.0
 11
12.0
 21
9.0
 12
0.0
 22
0.0
 32
0.0
 14
0.0
 24
0.0
 34
0.0
 15
0.0
 25
0.0
 35
0.0
146
0.0
 13
0.0
 23
0.0
 33
0.0
 16
1.0
 26
0.0
 36
0.0
 17
0.0
 27
1.0
 37
0.0
 76
0
330
1F
  0
LAYOUT
  5
26
100
AcDbPlotSettings
  1

  2
none_device
  4

  6

 40
0.0
 41
0.0
 42
0.0
 43
0.0
 44
0.0
 45
0.0
 46
0.0
 47
0.0
 48
0.0
 49
0.0
140
0.0
141
0.0
142
1.0
143
1.0
 70
688
 72
0
 73
0
 74
5
  7

 75
16
147
1.0
148
0.0
149
0.0
100
AcDbLayout
  1
Layout2
 70
1
 71
2
 10
0.0
 20
0.0
 11
12.0
 21
9.0
 12
0.0
 22
0.0
 32
0.0
 14
0.0
 24
0.0
 34
0.0
 15
0.0
 25
0.0
 35
0.0
146
0.0
 13
0.0
 23
0.0
 33
0.0
 16
1.0
 26
0.0
 36
0.0
 17
0.0
 27
1.0
 37
0.0
 76
0
330
23
  0
DICTIONARY
  5
129
100
AcDbDictionary
281
1
  3
DIMASSOC
350
12C
  3
HIDETEXT
350
12B
  0
DICTIONARYVAR
  5
12B
100
DictionaryVariables
280
0
  1
2
  0
DICTIONARYVAR
  5
12C
100
DictionaryVariables
280
0
  1
1
  0
DICTIONARY
  5
12A
100
AcDbDictionary
281
1
  3
ColorSettings/BackgroundColor
350
12D
  3
ColorSettings/ColorMode
350
12E
  3
Grid/DisplayGrid00
350
12F
  3
Grid/DisplayGrid01
350
130
  3
Grid/DisplayGrid02
350
131
  3
Grid/DisplayGrid03
350
132
  3
Grid/GridSpacingX00
350
133
  3
Grid/GridSpacingX01
350
134
  3
Grid/GridSpacingX02
350
135
  3
Grid/GridSpacingX03
350
136
  3
Grid/GridSpacingY00
350
137
  3
Grid/GridSpacingY01
350
138
  3
Grid/GridSpacingY02
350
139
  3
Grid/GridSpacingY03
350
13A
  3
Grid/IsometricGrid00
350
13B
  3
Grid/IsometricGrid01
350
13C
  3
Grid/IsometricGrid02
350
13D
  3
Grid/IsometricGrid03
350
13E
  3
Grid/IsometricProjection00
350
13F
  3
Grid/IsometricProjection01
350
140
  3
Grid/IsometricProjection02
350
141
  3
Grid/IsometricProjection03
350
142
  3
Grid/MetaGridSpacingX00
350
143
  3
Grid/MetaGridSpacingX01
350
144
  3
Grid/MetaGridSpacingX02
350
145
  3
Grid/MetaGridSpacingX03
350
146
  3
Grid/MetaGridSpacingY00
350
147
  3
Grid/MetaGridSpacingY01
350
148
  3
Grid/MetaGridSpacingY02
350
149
  3
Grid/MetaGridSpacingY03
350
14A
  3
MultiPageSettings/Columns
350
14B
  3
MultiPageSettings/GlueMarginsBottom
350
14C
  3
MultiPageSettings/GlueMarginsLeft
350
14D
  3
MultiPageSettings/GlueMarginsRight
350
14E
  3
MultiPageSettings/GlueMarginsTop
350
14F
  3
MultiPageSettings/PrintCropMarks
350
150
  3
MultiPageSettings/Rows
350
151
  3
PageSettings/OffsetX
350
152
  3
PageSettings/OffsetY
350
153
  3
PageSettings/PageOrientation
350
154
  3
PageSettings/PaperHeight
350
155
  3
PageSettings/PaperWidth
350
156
  3
PageSettings/Scale
350
157
  3
PageSettings/ShowPaperBorders
350
158
  3
PageTagSettings/EnablePageTags
350
159
  3
PageTagSettings/TagAlignment
350
15A
  3
PageTagSettings/TagFont
350
15B
  3
PageTagSettings/TagPosition
350
15C
  3
QCADVersion
350
15D
  3
UnitSettings/PaperUnit
350
15E
  3
ViewportCenter
350
15F
  3
ViewportHeight
350
160
  3
ViewportWidth
350
161
  0
XRECORD
  5
12D
330
12A
100
AcDbXrecord
280
1
1000
White
  0
XRECORD
  5
12E
330
12A
100
AcDbXrecord
280
1
1000
FullColor
  0
XRECORD
  5
12F
330
12A
100
AcDbXrecord
280
1
290
1
  0
XRECORD
  5
130
330
12A
100
AcDbXrecord
280
1
290
1
  0
XRECORD
  5
131
330
12A
100
AcDbXrecord
280
1
290
1
  0
XRECORD
  5
132
330
12A
100
AcDbXrecord
280
1
290
1
  0
XRECORD
  5
133
330
12A
100
AcDbXrecord
280
1
1000
auto
  0
XRECORD
  5
134
330
12A
100
AcDbXrecord
280
1
1000
auto
  0
XRECORD
  5
135
330
12A
100
AcDbXrecord
280
1
1000
auto
  0
XRECORD
  5
136
330
12A
100
AcDbXrecord
280
1
1000
auto
  0
XRECORD
  5
137
330
12A
100
AcDbXrecord
280
1
1000
auto
  0
XRECORD
  5
138
330
12A
100
AcDbXrecord
280
1
1000
auto
  0
XRECORD
  5
139
330
12A
100
AcDbXrecord
280
1
1000
auto
  0
XRECORD
  5
13A
330
12A
100
AcDbXrecord
280
1
1000
auto
  0
XRECORD
  5
13B
330
12A
100
AcDbXrecord
280
1
290
0
  0
XRECORD
  5
13C
330
12A
100
AcDbXrecord
280
1
290
0
  0
XRECORD
  5
13D
330
12A
100
AcDbXrecord
280
1
290
0
  0
XRECORD
  5
13E
330
12A
100
AcDbXrecord
280
1
290
0
  0
XRECORD
  5
13F
330
12A
100
AcDbXrecord
280
1
 90
65537
  0
XRECORD
  5
140
330
12A
100
AcDbXrecord
280
1
 90
65537
  0
XRECORD
  5
141
330
12A
100
AcDbXrecord
280
1
 90
65537
  0
XRECORD
  5
142
330
12A
100
AcDbXrecord
280
1
 90
65537
  0
XRECORD
  5
143
330
12A
100
AcDbXrecord
280
1
1000
auto
  0
XRECORD
  5
144
330
12A
100
AcDbXrecord
280
1
1000
auto
  0
XRECORD
  5
145
330
12A
100
AcDbXrecord
280
1
1000
auto
  0
XRECORD
  5
146
330
12A
100
AcDbXrecord
280
1
1000
auto
  0
XRECORD
  5
147
330
12A
100
AcDbXrecord
280
1
1000
auto
  0
XRECORD
  5
148
330
12A
100
AcDbXrecord
280
1
1000
auto
  0
XRECORD
  5
149
330
12A
100
AcDbXrecord
280
1
1000
auto
  0
XRECORD
  5
14A
330
12A
100
AcDbXrecord
280
1
1000
auto
  0
XRECORD
  5
14B
330
12A
100
AcDbXrecord
280
1
 90
1
  0
XRECORD
  5
14C
330
12A
100
AcDbXrecord
280
1
 40
0.5
  0
XRECORD
  5
14D
330
12A
100
AcDbXrecord
280
1
 40
0.5
  0
XRECORD
  5
14E
330
12A
100
AcDbXrecord
280
1
 40
0.5
  0
XRECORD
  5
14F
330
12A
100
AcDbXrecord
280
1
 40
0.5
  0
XRECORD
  5
150
330
12A
100
AcDbXrecord
280
1
290
0
  0
XRECORD
  5
151
330
12A
100
AcDbXrecord
280
1
 90
1
  0
XRECORD
  5
152
330
12A
100
AcDbXrecord
280
1
 40
0.0
  0
XRECORD
  5
153
330
12A
100
AcDbXrecord
280
1
 40
0.0
  0
XRECORD
  5
154
330
12A
100
AcDbXrecord
280
1
1000
Portrait
  0
XRECORD
  5
155
330
12A
100
AcDbXrecord
280
1
 40
11.6929133858267722
  0
XRECORD
  5
156
330
12A
100
AcDbXrecord
280
1
 40
8.2677165354330704
  0
XRECORD
  5
157
330
12A
100
AcDbXrecord
280
1
1000
1:1
  0
XRECORD
  5
158
330
12A
100
AcDbXrecord
280
1
290
1
  0
XRECORD
  5
159
330
12A
100
AcDbXrecord
280
1
290
0
  0
XRECORD
  5
15A
330
12A
100
AcDbXrecord
280
1
1000
Inside
  0
XRECORD
  5
15B
330
12A
100
AcDbXrecord
280
1
1000
Arial,10,-1,5,50,0,0,0,0,0
  0
XRECORD
  5
15C
330
12A
100
AcDbXrecord
280
1
1000
TopLeft
  0
XRECORD
  5
15D
330
12A
100
AcDbXrecord
280
1
1000
3.28.1.3
  0
XRECORD
  5
15E
330
12A
100
AcDbXrecord
280
1
 90
1
  0
XRECORD
  5
160
330
12A
100
AcDbXrecord
280
1
 40
344.845320191998951
  0
XRECORD
  5
161
330
12A
100
AcDbXrecord
280
1
 40
643.2526172159980433
  0
ENDSEC
  0
EOF
