999
dxflib 3.26.4.0
  0
SECTION
  2
HEADER
  9
$ACADVER
  1
AC1015
  9
$HANDSEED
  5
FFFF
  9
$DIMADEC
 70
0
  9
$DIMASZ
 40
0.125
  9
$DIMATFIT
 70
0
  9
$DIMAUNIT
 70
0
  9
$DIMAZIN
 70
2
  9
$DIMBLK
  1

  9
$DIMDEC
 70
4
  9
$DIMDLI
 40
0.25
  9
$DIMDSEP
 70
46
  9
$DIMEXE
 40
0.0625
  9
$DIMEXO
 40
0.03125
  9
$DIMGAP
 40
0.03125
  9
$DIMLFAC
 40
1.0
  9
$DIMLUNIT
 70
3
  9
$DIMSCALE
 40
1.0
  9
$DIMTAD
 70
1
  9
$DIMTIH
 70
0
  9
$DIMTSZ
 40
0.0
  9
$DIMTXT
 40
0.125
  9
$DIMZIN
 70
8
  9
$DWGCODEPAGE
  3
ANSI_1252
  9
$INSUNITS
 70
1
  9
$LTSCALE
 40
1.0
  9
$MAXACTVP
 70
64
  9
$MEASUREMENT
 70
0
  9
$MIRRTEXT
 70
0
  9
$PDMODE
 70
0
  9
$PDSIZE
 40
0.0
  0
ENDSEC
  0
SECTION
  2
TABLES
  0
TABLE
  2
VPORT
  5
8
100
AcDbSymbolTable
 70
1
  0
VPORT
  5
30
100
AcDbSymbolTableRecord
100
AcDbViewportTableRecord
  2
*Active
 70
0
 10
0.0
 20
0.0
 11
1.0
 21
1.0
 12
286.3055555555554861
 22
148.5
 13
0.0
 23
0.0
 14
10.0
 24
10.0
 15
10.0
 25
10.0
 16
0.0
 26
0.0
 36
1.0
 17
0.0
 27
0.0
 37
0.0
 40
297.0
 41
1.92798353909465
 42
50.0
 43
0.0
 44
0.0
 50
0.0
 51
0.0
 71
0
 72
100
 73
1
 74
3
 75
1
 76
1
 77
0
 78
0
281
0
 65
1
110
0.0
120
0.0
130
0.0
111
1.0
121
0.0
131
0.0
112
0.0
122
1.0
132
0.0
 79
0
146
0.0
  0
ENDTAB
  0
TABLE
  2
LTYPE
  5
5
100
AcDbSymbolTable
 70
41
  0
LTYPE
  5
16
100
AcDbSymbolTableRecord
100
AcDbLinetypeTableRecord
  2
Continuous
 70
0
  3
Solid line
 72
65
 73
0
 40
0.0
  0
LTYPE
  5
31
100
AcDbSymbolTableRecord
100
AcDbLinetypeTableRecord
  2
CENTER
 70
0
  3
Center ____ _ ____ _ ____ _ ____ _ ____ _ ____
 72
65
 73
4
 40
50.8000000000000043
 49
31.75
 74
0
 49
-6.3499999999999996
 74
0
 49
6.3499999999999996
 74
0
 49
-6.3499999999999996
 74
0
  0
LTYPE
  5
32
100
AcDbSymbolTableRecord
100
AcDbLinetypeTableRecord
  2
ACAD_ISO14W100
 70
0
  3
ISO dash triple-dot __ . . . __ . . . __ . . . _
 72
65
 73
8
 40
24.0
 49
12.0
 74
0
 49
-3.0
 74
0
 49
0.0
 74
0
 49
-3.0
 74
0
 49
0.0
 74
0
 49
-3.0
 74
0
 49
0.0
 74
0
 49
-3.0
 74
0
  0
LTYPE
  5
33
100
AcDbSymbolTableRecord
100
AcDbLinetypeTableRecord
  2
ACAD_ISO10W100
 70
0
  3
ISO dash dot __ . __ . __ . __ . __ . __ . __ . 
 72
65
 73
4
 40
18.0
 49
12.0
 74
0
 49
-3.0
 74
0
 49
0.0
 74
0
 49
-3.0
 74
0
  0
LTYPE
  5
34
100
AcDbSymbolTableRecord
100
AcDbLinetypeTableRecord
  2
HIDDENX2
 70
0
  3
Hidden (2x) ____ ____ ____ ____ ____ ____ ____ 
 72
65
 73
2
 40
19.0499999999999972
 49
12.6999999999999993
 74
0
 49
-6.3499999999999996
 74
0
  0
LTYPE
  5
35
100
AcDbSymbolTableRecord
100
AcDbLinetypeTableRecord
  2
DASHED
 70
0
  3
Dashed __ __ __ __ __ __ __ __ __ __ __ __ __ _
 72
65
 73
2
 40
19.0499999999999972
 49
12.6999999999999993
 74
0
 49
-6.3499999999999996
 74
0
  0
LTYPE
  5
36
100
AcDbSymbolTableRecord
100
AcDbLinetypeTableRecord
  2
DIVIDEX2
 70
0
  3
Divide (2x) ________  .  .  ________  .  .  _
 72
65
 73
6
 40
63.5
 49
25.3999999999999986
 74
0
 49
-12.6999999999999993
 74
0
 49
0.0
 74
0
 49
-12.6999999999999993
 74
0
 49
0.0
 74
0
 49
-12.6999999999999993
 74
0
  0
LTYPE
  5
37
100
AcDbSymbolTableRecord
100
AcDbLinetypeTableRecord
  2
BORDER
 70
0
  3
Border __ __ . __ __ . __ __ . __ __ . __ __ .
 72
65
 73
6
 40
44.4499999999999957
 49
12.6999999999999993
 74
0
 49
-6.3499999999999996
 74
0
 49
12.6999999999999993
 74
0
 49
-6.3499999999999996
 74
0
 49
0.0
 74
0
 49
-6.3499999999999996
 74
0
  0
LTYPE
  5
38
100
AcDbSymbolTableRecord
100
AcDbLinetypeTableRecord
  2
PHANTOMX2
 70
0
  3
Phantom (2x) ____________    ____    ____   _
 72
65
 73
6
 40
127.0000000000000142
 49
63.5
 74
0
 49
-12.6999999999999993
 74
0
 49
12.6999999999999993
 74
0
 49
-12.6999999999999993
 74
0
 49
12.6999999999999993
 74
0
 49
-12.6999999999999993
 74
0
  0
LTYPE
  5
39
100
AcDbSymbolTableRecord
100
AcDbLinetypeTableRecord
  2
PHANTOM
 70
0
  3
Phantom ______  __  __  ______  __  __  ______ 
 72
65
 73
6
 40
63.5000000000000071
 49
31.75
 74
0
 49
-6.3499999999999996
 74
0
 49
6.3499999999999996
 74
0
 49
-6.3499999999999996
 74
0
 49
6.3499999999999996
 74
0
 49
-6.3499999999999996
 74
0
  0
LTYPE
  5
3A
100
AcDbSymbolTableRecord
100
AcDbLinetypeTableRecord
  2
ACAD_ISO05W100
 70
0
  3
ISO long-dash double-dot ____ .. ____ .. ____ . 
 72
65
 73
6
 40
33.0
 49
24.0
 74
0
 49
-3.0
 74
0
 49
0.0
 74
0
 49
-3.0
 74
0
 49
0.0
 74
0
 49
-3.0
 74
0
  0
LTYPE
  5
3B
100
AcDbSymbolTableRecord
100
AcDbLinetypeTableRecord
  2
ACAD_ISO08W100
 70
0
  3
ISO long-dash short-dash ____ __ ____ __ ____ _
 72
65
 73
4
 40
36.0
 49
24.0
 74
0
 49
-3.0
 74
0
 49
6.0
 74
0
 49
-3.0
 74
0
  0
LTYPE
  5
3C
100
AcDbSymbolTableRecord
100
AcDbLinetypeTableRecord
  2
DOTX2
 70
0
  3
Dot (2x) .  .  .  .  .  .  .  .  .  .  .  .  .  .
 72
65
 73
2
 40
12.6999999999999993
 49
0.0
 74
0
 49
-12.6999999999999993
 74
0
  0
LTYPE
  5
3D
100
AcDbSymbolTableRecord
100
AcDbLinetypeTableRecord
  2
ACAD_ISO04W100
 70
0
  3
ISO long-dash dot ____ . ____ . ____ . ____ . _
 72
65
 73
4
 40
30.0
 49
24.0
 74
0
 49
-3.0
 74
0
 49
0.0
 74
0
 49
-3.0
 74
0
  0
LTYPE
  5
3E
100
AcDbSymbolTableRecord
100
AcDbLinetypeTableRecord
  2
DASHED2
 70
0
  3
Dashed (.5x) _ _ _ _ _ _ _ _ _ _ _ _ _ _ _ _ _ 
 72
65
 73
2
 40
9.5249999999999986
 49
6.3499999999999996
 74
0
 49
-3.1749999999999998
 74
0
  0
LTYPE
  5
3F
100
AcDbSymbolTableRecord
100
AcDbLinetypeTableRecord
  2
HIDDEN2
 70
0
  3
Hidden (.5x) _ _ _ _ _ _ _ _ _ _ _ _ _ _ _ _ _ 
 72
65
 73
2
 40
4.7624999999999993
 49
3.1749999999999998
 74
0
 49
-1.5874999999999999
 74
0
  0
LTYPE
  5
40
100
AcDbSymbolTableRecord
100
AcDbLinetypeTableRecord
  2
CENTER2
 70
0
  3
Center (.5x) ___ _ ___ _ ___ _ ___ _ ___ _ ___
 72
65
 73
4
 40
28.5750000000000028
 49
19.0500000000000007
 74
0
 49
-3.1749999999999998
 74
0
 49
3.1749999999999998
 74
0
 49
-3.1749999999999998
 74
0
  0
LTYPE
  5
41
100
AcDbSymbolTableRecord
100
AcDbLinetypeTableRecord
  2
BORDERX2
 70
0
  3
Border (2x) ____  ____  .  ____  ____  .  ___
 72
65
 73
6
 40
88.8999999999999915
 49
25.3999999999999986
 74
0
 49
-12.6999999999999993
 74
0
 49
25.3999999999999986
 74
0
 49
-12.6999999999999993
 74
0
 49
0.0
 74
0
 49
-12.6999999999999993
 74
0
  0
LTYPE
  5
42
100
AcDbSymbolTableRecord
100
AcDbLinetypeTableRecord
  2
DASHDOTX2
 70
0
  3
Dash dot (2x) ____  .  ____  .  ____  .  ___
 72
65
 73
4
 40
50.7999999999999972
 49
25.3999999999999986
 74
0
 49
-12.6999999999999993
 74
0
 49
0.0
 74
0
 49
-12.6999999999999993
 74
0
  0
LTYPE
  5
43
100
AcDbSymbolTableRecord
100
AcDbLinetypeTableRecord
  2
DOT2
 70
0
  3
Dot (.5x) ........................................
 72
65
 73
2
 40
3.1749999999999998
 49
0.0
 74
0
 49
-3.1749999999999998
 74
0
  0
LTYPE
  5
44
100
AcDbSymbolTableRecord
100
AcDbLinetypeTableRecord
  2
ACAD_ISO12W100
 70
0
  3
ISO dash double-dot __ . . __ . . __ . . __ . . 
 72
65
 73
6
 40
21.0
 49
12.0
 74
0
 49
-3.0
 74
0
 49
0.0
 74
0
 49
-3.0
 74
0
 49
0.0
 74
0
 49
-3.0
 74
0
  0
LTYPE
  5
45
100
AcDbSymbolTableRecord
100
AcDbLinetypeTableRecord
  2
ACAD_ISO07W100
 70
0
  3
ISO dot . . . . . . . . . . . . . . . . . . . . 
 72
65
 73
2
 40
3.0
 49
0.0
 74
0
 49
-3.0
 74
0
  0
LTYPE
  5
46
100
AcDbSymbolTableRecord
100
AcDbLinetypeTableRecord
  2
ACAD_ISO09W100
 70
0
  3
ISO long-dash double-short-dash ____ __ __ ____
 72
65
 73
6
 40
45.0
 49
24.0
 74
0
 49
-3.0
 74
0
 49
6.0
 74
0
 49
-3.0
 74
0
 49
6.0
 74
0
 49
-3.0
 74
0
  0
LTYPE
  5
47
100
AcDbSymbolTableRecord
100
AcDbLinetypeTableRecord
  2
PHANTOM2
 70
0
  3
Phantom (.5x) ___ _ _ ___ _ _ ___ _ _ ___ _ _
 72
65
 73
6
 40
31.7500000000000036
 49
15.875
 74
0
 49
-3.1749999999999998
 74
0
 49
3.1749999999999998
 74
0
 49
-3.1749999999999998
 74
0
 49
3.1749999999999998
 74
0
 49
-3.1749999999999998
 74
0
  0
LTYPE
  5
15
100
AcDbSymbolTableRecord
100
AcDbLinetypeTableRecord
  2
BYLAYER
 70
0
  3

 72
65
 73
0
 40
0.0
  0
LTYPE
  5
14
100
AcDbSymbolTableRecord
100
AcDbLinetypeTableRecord
  2
BYBLOCK
 70
0
  3

 72
65
 73
0
 40
0.0
  0
LTYPE
  5
48
100
AcDbSymbolTableRecord
100
AcDbLinetypeTableRecord
  2
DOT
 70
0
  3
Dot . . . . . . . . . . . . . . . . . . . . . . . .
 72
65
 73
2
 40
6.3499999999999996
 49
0.0
 74
0
 49
-6.3499999999999996
 74
0
  0
LTYPE
  5
49
100
AcDbSymbolTableRecord
100
AcDbLinetypeTableRecord
  2
CENTERX2
 70
0
  3
Center (2x) ________  __  ________  __  _____
 72
65
 73
4
 40
101.6000000000000085
 49
63.5
 74
0
 49
-12.6999999999999993
 74
0
 49
12.6999999999999993
 74
0
 49
-12.6999999999999993
 74
0
  0
LTYPE
  5
4A
100
AcDbSymbolTableRecord
100
AcDbLinetypeTableRecord
  2
BORDER2
 70
0
  3
Border (.5x) __.__.__.__.__.__.__.__.__.__.__.
 72
65
 73
6
 40
22.2249999999999979
 49
6.3499999999999996
 74
0
 49
-3.1749999999999998
 74
0
 49
6.3499999999999996
 74
0
 49
-3.1749999999999998
 74
0
 49
0.0
 74
0
 49
-3.1749999999999998
 74
0
  0
LTYPE
  5
4B
100
AcDbSymbolTableRecord
100
AcDbLinetypeTableRecord
  2
ACAD_ISO11W100
 70
0
  3
ISO double-dash dot __ __ . __ __ . __ __ . __ _
 72
65
 73
6
 40
33.0
 49
12.0
 74
0
 49
-3.0
 74
0
 49
12.0
 74
0
 49
-3.0
 74
0
 49
0.0
 74
0
 49
-3.0
 74
0
  0
LTYPE
  5
4C
100
AcDbSymbolTableRecord
100
AcDbLinetypeTableRecord
  2
ACAD_ISO13W100
 70
0
  3
ISO double-dash double-dot __ __ . . __ __ . . _
 72
65
 73
8
 40
36.0
 49
12.0
 74
0
 49
-3.0
 74
0
 49
12.0
 74
0
 49
-3.0
 74
0
 49
0.0
 74
0
 49
-3.0
 74
0
 49
0.0
 74
0
 49
-3.0
 74
0
  0
LTYPE
  5
4D
100
AcDbSymbolTableRecord
100
AcDbLinetypeTableRecord
  2
DIVIDE2
 70
0
  3
Divide (.5x) __..__..__..__..__..__..__..__.._
 72
65
 73
6
 40
15.875
 49
6.3499999999999996
 74
0
 49
-3.1749999999999998
 74
0
 49
0.0
 74
0
 49
-3.1749999999999998
 74
0
 49
0.0
 74
0
 49
-3.1749999999999998
 74
0
  0
LTYPE
  5
4E
100
AcDbSymbolTableRecord
100
AcDbLinetypeTableRecord
  2
DASHDOT2
 70
0
  3
Dash dot (.5x) _._._._._._._._._._._._._._._.
 72
65
 73
4
 40
12.6999999999999993
 49
6.3499999999999996
 74
0
 49
-3.1749999999999998
 74
0
 49
0.0
 74
0
 49
-3.1749999999999998
 74
0
  0
LTYPE
  5
4F
100
AcDbSymbolTableRecord
100
AcDbLinetypeTableRecord
  2
ACAD_ISO06W100
 70
0
  3
ISO long-dash triple-dot ____ ... ____ ... ____
 72
65
 73
8
 40
36.0
 49
24.0
 74
0
 49
-3.0
 74
0
 49
0.0
 74
0
 49
-3.0
 74
0
 49
0.0
 74
0
 49
-3.0
 74
0
 49
0.0
 74
0
 49
-3.0
 74
0
  0
LTYPE
  5
50
100
AcDbSymbolTableRecord
100
AcDbLinetypeTableRecord
  2
DASHEDX2
 70
0
  3
Dashed (2x) ____  ____  ____  ____  ____  ___
 72
65
 73
2
 40
38.0999999999999943
 49
25.3999999999999986
 74
0
 49
-12.6999999999999993
 74
0
  0
LTYPE
  5
51
100
AcDbSymbolTableRecord
100
AcDbLinetypeTableRecord
  2
DASHDOT
 70
0
  3
Dash dot __ . __ . __ . __ . __ . __ . __ . __
 72
65
 73
4
 40
25.3999999999999986
 49
12.6999999999999993
 74
0
 49
-6.3499999999999996
 74
0
 49
0.0
 74
0
 49
-6.3499999999999996
 74
0
  0
LTYPE
  5
52
100
AcDbSymbolTableRecord
100
AcDbLinetypeTableRecord
  2
ACAD_ISO02W100
 70
0
  3
ISO dash __ __ __ __ __ __ __ __ __ __ __ __ __
 72
65
 73
2
 40
15.0
 49
12.0
 74
0
 49
-3.0
 74
0
  0
LTYPE
  5
53
100
AcDbSymbolTableRecord
100
AcDbLinetypeTableRecord
  2
ACAD_ISO15W100
 70
0
  3
ISO double-dash triple-dot __ __ . . . __ __ . .
 72
65
 73
10
 40
39.0
 49
12.0
 74
0
 49
-3.0
 74
0
 49
12.0
 74
0
 49
-3.0
 74
0
 49
0.0
 74
0
 49
-3.0
 74
0
 49
0.0
 74
0
 49
-3.0
 74
0
 49
0.0
 74
0
 49
-3.0
 74
0
  0
LTYPE
  5
54
100
AcDbSymbolTableRecord
100
AcDbLinetypeTableRecord
  2
ACAD_ISO03W100
 70
0
  3
ISO dash space __    __    __    __    __    __
 72
65
 73
2
 40
30.0
 49
12.0
 74
0
 49
-18.0
 74
0
  0
LTYPE
  5
55
100
AcDbSymbolTableRecord
100
AcDbLinetypeTableRecord
  2
HIDDEN
 70
0
  3
Hidden __ __ __ __ __ __ __ __ __ __ __ __ __ __
 72
65
 73
2
 40
9.5249999999999986
 49
6.3499999999999996
 74
0
 49
-3.1749999999999998
 74
0
  0
LTYPE
  5
56
100
AcDbSymbolTableRecord
100
AcDbLinetypeTableRecord
  2
DIVIDE
 70
0
  3
Divide ____ . . ____ . . ____ . . ____ . . ____
 72
65
 73
6
 40
31.75
 49
12.6999999999999993
 74
0
 49
-6.3499999999999996
 74
0
 49
0.0
 74
0
 49
-6.3499999999999996
 74
0
 49
0.0
 74
0
 49
-6.3499999999999996
 74
0
  0
ENDTAB
  0
TABLE
  2
LAYER
  5
2
100
AcDbSymbolTable
 70
1
  0
LAYER
  5
10
100
AcDbSymbolTableRecord
100
AcDbLayerTableRecord
  2
0
 70
0
 62
7
420
16777215
  6
Continuous
370
25
390
F
  0
ENDTAB
  0
TABLE
  2
STYLE
  5
3
100
AcDbSymbolTable
 70
1
  0
STYLE
  5
57
100
AcDbSymbolTableRecord
100
AcDbTextStyleTableRecord
  2
Standard
 70
0
 40
0.0
 41
1.0
 50
0.0
 71
0
 42
2.5
  3

  4

1001
ACAD
1000
txt
1071
0
  0
ENDTAB
  0
TABLE
  2
VIEW
  5
6
100
AcDbSymbolTable
 70
0
  0
ENDTAB
  0
TABLE
  2
UCS
  5
7
100
AcDbSymbolTable
 70
0
  0
ENDTAB
  0
TABLE
  2
APPID
  5
9
100
AcDbSymbolTable
 70
1
  0
APPID
  5
12
100
AcDbSymbolTableRecord
100
AcDbRegAppTableRecord
  2
ACAD
 70
0
  0
APPID
  5
58
100
AcDbSymbolTableRecord
100
AcDbRegAppTableRecord
  2
QCAD
 70
0
  0
ENDTAB
  0
TABLE
  2
DIMSTYLE
  5
A
100
AcDbSymbolTable
 70
1
100
AcDbDimStyleTable
 71
0
  0
DIMSTYLE
105
27
100
AcDbSymbolTableRecord
100
AcDbDimStyleTableRecord
  2
Standard
 41
0.125
 42
0.03125
 43
3.75
 44
0.0625
 70
0
 73
0
 74
0
 77
1
 78
8
140
0.125
141
2.5
143
0.03937007874016
147
0.03125
171
3
172
1
271
2
272
2
274
3
278
44
283
0
284
8
340
57
  0
ENDTAB
  0
TABLE
  2
BLOCK_RECORD
  5
1
100
AcDbSymbolTable
 70
1
  0
BLOCK_RECORD
  5
1F
100
AcDbSymbolTableRecord
100
AcDbBlockTableRecord
  2
*Model_Space
340
22
  0
BLOCK_RECORD
  5
1B
100
AcDbSymbolTableRecord
100
AcDbBlockTableRecord
  2
*Paper_Space
340
1E
  0
BLOCK_RECORD
  5
23
100
AcDbSymbolTableRecord
100
AcDbBlockTableRecord
  2
*Paper_Space0
340
26
  0
ENDTAB
  0
ENDSEC
  0
SECTION
  2
BLOCKS
  0
BLOCK
  5
20
100
AcDbEntity
  8
0
100
AcDbBlockBegin
  2
*Model_Space
 70
0
 10
0.0
 20
0.0
 30
0.0
  3
*Model_Space
  1

  0
ENDBLK
  5
21
100
AcDbEntity
  8
0
100
AcDbBlockEnd
  0
BLOCK
  5
1C
100
AcDbEntity
 67
1
  8
0
100
AcDbBlockBegin
  2
*Paper_Space
 70
0
 10
0.0
 20
0.0
 30
0.0
  3
*Paper_Space
  1

  0
ENDBLK
  5
1D
100
AcDbEntity
 67
1
  8
0
100
AcDbBlockEnd
  0
BLOCK
  5
24
100
AcDbEntity
  8
0
100
AcDbBlockBegin
  2
*Paper_Space0
 70
0
 10
0.0
 20
0.0
 30
0.0
  3
*Paper_Space0
  1

  0
ENDBLK
  5
25
100
AcDbEntity
  8
0
100
AcDbBlockEnd
  0
ENDSEC
  0
SECTION
  2
ENTITIES
  0
LINE
  5
59
100
AcDbEntity
  8
0
 62
0
370
-1
 48
1.0
  6
BYLAYER
100
AcDbLine
 10
326.3259153999999853
 20
112.249950000000041
 30
0.0
 11
326.7189154000000144
 21
112.2349499999999978
 31
0.0
  0
LINE
  5
5A
100
AcDbEntity
  8
0
 62
0
370
-1
 48
1.0
  6
BYLAYER
100
AcDbLine
 10
326.7189154000000144
 20
112.2349499999999978
 30
0.0
 11
327.1089153999998871
 21
112.1879500000000291
 31
0.0
  0
LINE
  5
5B
100
AcDbEntity
  8
0
 62
0
370
-1
 48
1.0
  6
BYLAYER
100
AcDbLine
 10
327.1089153999998871
 20
112.1879500000000291
 30
0.0
 11
327.493915399999878
 21
112.1119500000000073
 31
0.0
  0
LINE
  5
5C
100
AcDbEntity
  8
0
 62
0
370
-1
 48
1.0
  6
BYLAYER
100
AcDbLine
 10
327.493915399999878
 20
112.1119500000000073
 30
0.0
 11
327.8709154000000581
 21
112.0059500000000128
 31
0.0
  0
LINE
  5
5D
100
AcDbEntity
  8
0
 62
0
370
-1
 48
1.0
  6
BYLAYER
100
AcDbLine
 10
327.8709154000000581
 20
112.0059500000000128
 30
0.0
 11
328.2389153999999962
 21
111.8699500000000455
 31
0.0
  0
LINE
  5
5E
100
AcDbEntity
  8
0
 62
0
370
-1
 48
1.0
  6
BYLAYER
100
AcDbLine
 10
328.2389153999999962
 20
111.8699500000000455
 30
0.0
 11
328.5959153999999671
 21
111.7059500000000014
 31
0.0
  0
LINE
  5
5F
100
AcDbEntity
  8
0
 62
0
370
-1
 48
1.0
  6
BYLAYER
100
AcDbLine
 10
328.5959153999999671
 20
111.7059500000000014
 30
0.0
 11
328.9389154000000417
 21
111.5139499999999941
 31
0.0
  0
LINE
  5
60
100
AcDbEntity
  8
0
 62
0
370
-1
 48
1.0
  6
BYLAYER
100
AcDbLine
 10
328.9389154000000417
 20
111.5139499999999941
 30
0.0
 11
329.2639153999998598
 21
111.29495
 31
0.0
  0
LINE
  5
61
100
AcDbEntity
  8
0
 62
0
370
-1
 48
1.0
  6
BYLAYER
100
AcDbLine
 10
329.2639153999998598
 20
111.29495
 30
0.0
 11
329.5729154000000563
 21
111.0529500000000382
 31
0.0
  0
LINE
  5
62
100
AcDbEntity
  8
0
 62
0
370
-1
 48
1.0
  6
BYLAYER
100
AcDbLine
 10
329.5729154000000563
 20
111.0529500000000382
 30
0.0
 11
329.8609154000000672
 21
110.7849500000000091
 31
0.0
  0
LINE
  5
63
100
AcDbEntity
  8
0
 62
0
370
-1
 48
1.0
  6
BYLAYER
100
AcDbLine
 10
329.8609154000000672
 20
110.7849500000000091
 30
0.0
 11
330.1279153999998925
 21
110.4969499999999982
 31
0.0
  0
LINE
  5
64
100
AcDbEntity
  8
0
 62
0
370
-1
 48
1.0
  6
BYLAYER
100
AcDbLine
 10
330.1279153999998925
 20
110.4969499999999982
 30
0.0
 11
330.3709154000000581
 21
110.1889500000000055
 31
0.0
  0
LINE
  5
65
100
AcDbEntity
  8
0
 62
0
370
-1
 48
1.0
  6
BYLAYER
100
AcDbLine
 10
330.3709154000000581
 20
110.1889500000000055
 30
0.0
 11
330.5899153999998816
 21
109.8629499999999837
 31
0.0
  0
LINE
  5
66
100
AcDbEntity
  8
0
 62
0
370
-1
 48
1.0
  6
BYLAYER
100
AcDbLine
 10
330.5899153999998816
 20
109.8629499999999837
 30
0.0
 11
330.7819153999998889
 21
109.5199500000000228
 31
0.0
  0
LINE
  5
67
100
AcDbEntity
  8
0
 62
0
370
-1
 48
1.0
  6
BYLAYER
100
AcDbLine
 10
330.7819153999998889
 20
109.5199500000000228
 30
0.0
 11
330.9459153999998762
 21
109.162949999999995
 31
0.0
  0
LINE
  5
68
100
AcDbEntity
  8
0
 62
0
370
-1
 48
1.0
  6
BYLAYER
100
AcDbLine
 10
330.9459153999998762
 20
109.162949999999995
 30
0.0
 11
331.0819154000000708
 21
108.79495
 31
0.0
  0
LINE
  5
69
100
AcDbEntity
  8
0
 62
0
370
-1
 48
1.0
  6
BYLAYER
100
AcDbLine
 10
331.0819154000000708
 20
108.79495
 30
0.0
 11
331.1879154000000653
 21
108.4179499999999905
 31
0.0
  0
LINE
  5
6A
100
AcDbEntity
  8
0
 62
0
370
-1
 48
1.0
  6
BYLAYER
100
AcDbLine
 10
331.1879154000000653
 20
108.4179499999999905
 30
0.0
 11
331.2639153999998598
 21
108.0329499999999996
 31
0.0
  0
LINE
  5
6B
100
AcDbEntity
  8
0
 62
0
370
-1
 48
1.0
  6
BYLAYER
100
AcDbLine
 10
331.2639153999998598
 20
108.0329499999999996
 30
0.0
 11
331.3109153999998853
 21
107.6429500000000132
 31
0.0
  0
LINE
  5
6C
100
AcDbEntity
  8
0
 62
0
370
-1
 48
1.0
  6
BYLAYER
100
AcDbLine
 10
331.3109153999998853
 20
107.6429500000000132
 30
0.0
 11
331.3259153999999853
 21
107.2489500000000078
 31
0.0
  0
LINE
  5
6D
100
AcDbEntity
  8
0
 62
0
370
-1
 48
1.0
  6
BYLAYER
100
AcDbLine
 10
331.3259153999999853
 20
107.2489500000000078
 30
0.0
 11
331.3259153999999853
 21
5.0
 31
0.0
  0
LINE
  5
6E
100
AcDbEntity
  8
0
 62
0
370
-1
 48
1.0
  6
BYLAYER
100
AcDbLine
 10
331.3259153999999853
 20
5.0
 30
0.0
 11
331.3109153999998853
 21
4.6059199999999976
 31
0.0
  0
LINE
  5
6F
100
AcDbEntity
  8
0
 62
0
370
-1
 48
1.0
  6
BYLAYER
100
AcDbLine
 10
331.3109153999998853
 20
4.6059199999999976
 30
0.0
 11
331.2639153999998598
 21
4.2159200000000112
 31
0.0
  0
LINE
  5
70
100
AcDbEntity
  8
0
 62
0
370
-1
 48
1.0
  6
BYLAYER
100
AcDbLine
 10
331.2639153999998598
 20
4.2159200000000112
 30
0.0
 11
331.1879154000000653
 21
3.8314300000000117
 31
0.0
  0
LINE
  5
71
100
AcDbEntity
  8
0
 62
0
370
-1
 48
1.0
  6
BYLAYER
100
AcDbLine
 10
331.1879154000000653
 20
3.8314300000000117
 30
0.0
 11
331.0819154000000708
 21
3.453850000000017
 31
0.0
  0
LINE
  5
72
100
AcDbEntity
  8
0
 62
0
370
-1
 48
1.0
  6
BYLAYER
100
AcDbLine
 10
331.0819154000000708
 20
3.453850000000017
 30
0.0
 11
330.9459153999998762
 21
3.0859200000000158
 31
0.0
  0
LINE
  5
73
100
AcDbEntity
  8
0
 62
0
370
-1
 48
1.0
  6
BYLAYER
100
AcDbLine
 10
330.9459153999998762
 20
3.0859200000000158
 30
0.0
 11
330.7819153999998889
 21
2.7290100000000166
 31
0.0
  0
LINE
  5
74
100
AcDbEntity
  8
0
 62
0
370
-1
 48
1.0
  6
BYLAYER
100
AcDbLine
 10
330.7819153999998889
 20
2.7290100000000166
 30
0.0
 11
330.5899153999998816
 21
2.3872599999999977
 31
0.0
  0
LINE
  5
75
100
AcDbEntity
  8
0
 62
0
370
-1
 48
1.0
  6
BYLAYER
100
AcDbLine
 10
330.5899153999998816
 20
2.3872599999999977
 30
0.0
 11
330.3709154000000581
 21
2.0606600000000128
 31
0.0
  0
LINE
  5
76
100
AcDbEntity
  8
0
 62
0
370
-1
 48
1.0
  6
BYLAYER
100
AcDbLine
 10
330.3709154000000581
 20
2.0606600000000128
 30
0.0
 11
330.1279153999998925
 21
1.7519800000000032
 31
0.0
  0
LINE
  5
77
100
AcDbEntity
  8
0
 62
0
370
-1
 48
1.0
  6
BYLAYER
100
AcDbLine
 10
330.1279153999998925
 20
1.7519800000000032
 30
0.0
 11
329.8609154000000672
 21
1.4639800000000207
 31
0.0
  0
LINE
  5
78
100
AcDbEntity
  8
0
 62
0
370
-1
 48
1.0
  6
BYLAYER
100
AcDbLine
 10
329.8609154000000672
 20
1.4639800000000207
 30
0.0
 11
329.5729154000000563
 21
1.196629999999999
 31
0.0
  0
LINE
  5
79
100
AcDbEntity
  8
0
 62
0
370
-1
 48
1.0
  6
BYLAYER
100
AcDbLine
 10
329.5729154000000563
 20
1.196629999999999
 30
0.0
 11
329.2639153999998598
 21
0.9541000000000111
 31
0.0
  0
LINE
  5
7A
100
AcDbEntity
  8
0
 62
0
370
-1
 48
1.0
  6
BYLAYER
100
AcDbLine
 10
329.2639153999998598
 20
0.9541000000000111
 30
0.0
 11
328.9389154000000417
 21
0.7349920000000054
 31
0.0
  0
LINE
  5
7B
100
AcDbEntity
  8
0
 62
0
370
-1
 48
1.0
  6
BYLAYER
100
AcDbLine
 10
328.9389154000000417
 20
0.7349920000000054
 30
0.0
 11
328.5959153999999671
 21
0.5434439999999938
 31
0.0
  0
LINE
  5
7C
100
AcDbEntity
  8
0
 62
0
370
-1
 48
1.0
  6
BYLAYER
100
AcDbLine
 10
328.5959153999999671
 20
0.5434439999999938
 30
0.0
 11
328.2389153999999962
 21
0.3794589999999971
 31
0.0
  0
LINE
  5
7D
100
AcDbEntity
  8
0
 62
0
370
-1
 48
1.0
  6
BYLAYER
100
AcDbLine
 10
328.2389153999999962
 20
0.3794589999999971
 30
0.0
 11
327.8709154000000581
 21
0.2430319999999995
 31
0.0
  0
LINE
  5
7E
100
AcDbEntity
  8
0
 62
0
370
-1
 48
1.0
  6
BYLAYER
100
AcDbLine
 10
327.8709154000000581
 20
0.2430319999999995
 30
0.0
 11
327.493915399999878
 21
0.1369229999999959
 31
0.0
  0
LINE
  5
7F
100
AcDbEntity
  8
0
 62
0
370
-1
 48
1.0
  6
BYLAYER
100
AcDbLine
 10
327.493915399999878
 20
0.1369229999999959
 30
0.0
 11
327.1089153999998871
 21
0.0611310000000174
 31
0.0
  0
LINE
  5
80
100
AcDbEntity
  8
0
 62
0
370
-1
 48
1.0
  6
BYLAYER
100
AcDbLine
 10
327.1089153999998871
 20
0.0611310000000174
 30
0.0
 11
326.7189154000000144
 21
0.0142780000000187
 31
0.0
  0
LINE
  5
81
100
AcDbEntity
  8
0
 62
0
370
-1
 48
1.0
  6
BYLAYER
100
AcDbLine
 10
326.7189154000000144
 20
0.0142780000000187
 30
0.0
 11
326.3259153999999853
 21
-0.0008809999999926
 31
0.0
  0
LINE
  5
82
100
AcDbEntity
  8
0
 62
0
370
-1
 48
1.0
  6
BYLAYER
100
AcDbLine
 10
326.3259153999999853
 20
-0.0008809999999926
 30
0.0
 11
5.0008953999999903
 21
-0.0008809999999926
 31
0.0
  0
LINE
  5
83
100
AcDbEntity
  8
0
 62
0
370
-1
 48
1.0
  6
BYLAYER
100
AcDbLine
 10
5.0008953999999903
 20
-0.0008809999999926
 30
0.0
 11
4.6067754000000036
 21
0.0142780000000187
 31
0.0
  0
LINE
  5
84
100
AcDbEntity
  8
0
 62
0
370
-1
 48
1.0
  6
BYLAYER
100
AcDbLine
 10
4.6067754000000036
 20
0.0142780000000187
 30
0.0
 11
4.2168153999999731
 21
0.0611310000000174
 31
0.0
  0
LINE
  5
85
100
AcDbEntity
  8
0
 62
0
370
-1
 48
1.0
  6
BYLAYER
100
AcDbLine
 10
4.2168153999999731
 20
0.0611310000000174
 30
0.0
 11
3.8323153999999704
 21
0.1369229999999959
 31
0.0
  0
LINE
  5
86
100
AcDbEntity
  8
0
 62
0
370
-1
 48
1.0
  6
BYLAYER
100
AcDbLine
 10
3.8323153999999704
 20
0.1369229999999959
 30
0.0
 11
3.4547453999999789
 21
0.2430319999999995
 31
0.0
  0
LINE
  5
87
100
AcDbEntity
  8
0
 62
0
370
-1
 48
1.0
  6
BYLAYER
100
AcDbLine
 10
3.4547453999999789
 20
0.2430319999999995
 30
0.0
 11
3.0868054000000029
 21
0.3794589999999971
 31
0.0
  0
LINE
  5
88
100
AcDbEntity
  8
0
 62
0
370
-1
 48
1.0
  6
BYLAYER
100
AcDbLine
 10
3.0868054000000029
 20
0.3794589999999971
 30
0.0
 11
2.7298953999999753
 21
0.5434439999999938
 31
0.0
  0
LINE
  5
89
100
AcDbEntity
  8
0
 62
0
370
-1
 48
1.0
  6
BYLAYER
100
AcDbLine
 10
2.7298953999999753
 20
0.5434439999999938
 30
0.0
 11
2.3867654000000016
 21
0.7349920000000054
 31
0.0
  0
LINE
  5
8A
100
AcDbEntity
  8
0
 62
0
370
-1
 48
1.0
  6
BYLAYER
100
AcDbLine
 10
2.3867654000000016
 20
0.7349920000000054
 30
0.0
 11
2.0615454
 21
0.9541000000000111
 31
0.0
  0
LINE
  5
8B
100
AcDbEntity
  8
0
 62
0
370
-1
 48
1.0
  6
BYLAYER
100
AcDbLine
 10
2.0615454
 20
0.9541000000000111
 30
0.0
 11
1.7528654000000188
 21
1.196629999999999
 31
0.0
  0
LINE
  5
8C
100
AcDbEntity
  8
0
 62
0
370
-1
 48
1.0
  6
BYLAYER
100
AcDbLine
 10
1.7528654000000188
 20
1.196629999999999
 30
0.0
 11
1.4648553999999763
 21
1.4639800000000207
 31
0.0
  0
LINE
  5
8D
100
AcDbEntity
  8
0
 62
0
370
-1
 48
1.0
  6
BYLAYER
100
AcDbLine
 10
1.4648553999999763
 20
1.4639800000000207
 30
0.0
 11
1.1975153999999861
 21
1.7519800000000032
 31
0.0
  0
LINE
  5
8E
100
AcDbEntity
  8
0
 62
0
370
-1
 48
1.0
  6
BYLAYER
100
AcDbLine
 10
1.1975153999999861
 20
1.7519800000000032
 30
0.0
 11
0.9549753999999666
 21
2.0606600000000128
 31
0.0
  0
LINE
  5
8F
100
AcDbEntity
  8
0
 62
0
370
-1
 48
1.0
  6
BYLAYER
100
AcDbLine
 10
0.9549753999999666
 20
2.0606600000000128
 30
0.0
 11
0.7358724000000052
 21
2.3872599999999977
 31
0.0
  0
LINE
  5
90
100
AcDbEntity
  8
0
 62
0
370
-1
 48
1.0
  6
BYLAYER
100
AcDbLine
 10
0.7358724000000052
 20
2.3872599999999977
 30
0.0
 11
0.5443253999999911
 21
2.7290100000000166
 31
0.0
  0
LINE
  5
91
100
AcDbEntity
  8
0
 62
0
370
-1
 48
1.0
  6
BYLAYER
100
AcDbLine
 10
0.5443253999999911
 20
2.7290100000000166
 30
0.0
 11
0.3803393999999685
 21
3.0859200000000158
 31
0.0
  0
LINE
  5
92
100
AcDbEntity
  8
0
 62
0
370
-1
 48
1.0
  6
BYLAYER
100
AcDbLine
 10
0.3803393999999685
 20
3.0859200000000158
 30
0.0
 11
0.2439133999999967
 21
3.453850000000017
 31
0.0
  0
LINE
  5
93
100
AcDbEntity
  8
0
 62
0
370
-1
 48
1.0
  6
BYLAYER
100
AcDbLine
 10
0.2439133999999967
 20
3.453850000000017
 30
0.0
 11
0.1378033999999957
 21
3.8314300000000117
 31
0.0
  0
LINE
  5
94
100
AcDbEntity
  8
0
 62
0
370
-1
 48
1.0
  6
BYLAYER
100
AcDbLine
 10
0.1378033999999957
 20
3.8314300000000117
 30
0.0
 11
0.0620124000000146
 21
4.2159200000000112
 31
0.0
  0
LINE
  5
95
100
AcDbEntity
  8
0
 62
0
370
-1
 48
1.0
  6
BYLAYER
100
AcDbLine
 10
0.0620124000000146
 20
4.2159200000000112
 30
0.0
 11
0.0151584000000184
 21
4.6059199999999976
 31
0.0
  0
LINE
  5
96
100
AcDbEntity
  8
0
 62
0
370
-1
 48
1.0
  6
BYLAYER
100
AcDbLine
 10
0.0151584000000184
 20
4.6059199999999976
 30
0.0
 11
0.0
 21
5.0
 31
0.0
  0
LINE
  5
97
100
AcDbEntity
  8
0
 62
0
370
-1
 48
1.0
  6
BYLAYER
100
AcDbLine
 10
0.0
 20
5.0
 30
0.0
 11
0.0
 21
107.2489500000000078
 31
0.0
  0
LINE
  5
98
100
AcDbEntity
  8
0
 62
0
370
-1
 48
1.0
  6
BYLAYER
100
AcDbLine
 10
0.0
 20
107.2489500000000078
 30
0.0
 11
0.0151584000000184
 21
107.6429500000000132
 31
0.0
  0
LINE
  5
99
100
AcDbEntity
  8
0
 62
0
370
-1
 48
1.0
  6
BYLAYER
100
AcDbLine
 10
0.0151584000000184
 20
107.6429500000000132
 30
0.0
 11
0.0620124000000146
 21
108.0329499999999996
 31
0.0
  0
LINE
  5
9A
100
AcDbEntity
  8
0
 62
0
370
-1
 48
1.0
  6
BYLAYER
100
AcDbLine
 10
0.0620124000000146
 20
108.0329499999999996
 30
0.0
 11
0.1378033999999957
 21
108.4179499999999905
 31
0.0
  0
LINE
  5
9B
100
AcDbEntity
  8
0
 62
0
370
-1
 48
1.0
  6
BYLAYER
100
AcDbLine
 10
0.1378033999999957
 20
108.4179499999999905
 30
0.0
 11
0.2439133999999967
 21
108.79495
 31
0.0
  0
LINE
  5
9C
100
AcDbEntity
  8
0
 62
0
370
-1
 48
1.0
  6
BYLAYER
100
AcDbLine
 10
0.2439133999999967
 20
108.79495
 30
0.0
 11
0.3803393999999685
 21
109.162949999999995
 31
0.0
  0
LINE
  5
9D
100
AcDbEntity
  8
0
 62
0
370
-1
 48
1.0
  6
BYLAYER
100
AcDbLine
 10
0.3803393999999685
 20
109.162949999999995
 30
0.0
 11
0.5443253999999911
 21
109.5199500000000228
 31
0.0
  0
LINE
  5
9E
100
AcDbEntity
  8
0
 62
0
370
-1
 48
1.0
  6
BYLAYER
100
AcDbLine
 10
0.5443253999999911
 20
109.5199500000000228
 30
0.0
 11
0.7358724000000052
 21
109.8629499999999837
 31
0.0
  0
LINE
  5
9F
100
AcDbEntity
  8
0
 62
0
370
-1
 48
1.0
  6
BYLAYER
100
AcDbLine
 10
0.7358724000000052
 20
109.8629499999999837
 30
0.0
 11
0.9549753999999666
 21
110.1889500000000055
 31
0.0
  0
LINE
  5
A0
100
AcDbEntity
  8
0
 62
0
370
-1
 48
1.0
  6
BYLAYER
100
AcDbLine
 10
0.9549753999999666
 20
110.1889500000000055
 30
0.0
 11
1.1975153999999861
 21
110.4969499999999982
 31
0.0
  0
LINE
  5
A1
100
AcDbEntity
  8
0
 62
0
370
-1
 48
1.0
  6
BYLAYER
100
AcDbLine
 10
1.1975153999999861
 20
110.4969499999999982
 30
0.0
 11
1.4648553999999763
 21
110.7849500000000091
 31
0.0
  0
LINE
  5
A2
100
AcDbEntity
  8
0
 62
0
370
-1
 48
1.0
  6
BYLAYER
100
AcDbLine
 10
1.4648553999999763
 20
110.7849500000000091
 30
0.0
 11
1.7528654000000188
 21
111.0529500000000382
 31
0.0
  0
LINE
  5
A3
100
AcDbEntity
  8
0
 62
0
370
-1
 48
1.0
  6
BYLAYER
100
AcDbLine
 10
1.7528654000000188
 20
111.0529500000000382
 30
0.0
 11
2.0615454
 21
111.29495
 31
0.0
  0
LINE
  5
A4
100
AcDbEntity
  8
0
 62
0
370
-1
 48
1.0
  6
BYLAYER
100
AcDbLine
 10
2.0615454
 20
111.29495
 30
0.0
 11
2.3867654000000016
 21
111.5139499999999941
 31
0.0
  0
LINE
  5
A5
100
AcDbEntity
  8
0
 62
0
370
-1
 48
1.0
  6
BYLAYER
100
AcDbLine
 10
2.3867654000000016
 20
111.5139499999999941
 30
0.0
 11
2.7298953999999753
 21
111.7059500000000014
 31
0.0
  0
LINE
  5
A6
100
AcDbEntity
  8
0
 62
0
370
-1
 48
1.0
  6
BYLAYER
100
AcDbLine
 10
2.7298953999999753
 20
111.7059500000000014
 30
0.0
 11
3.0868054000000029
 21
111.8699500000000455
 31
0.0
  0
LINE
  5
A7
100
AcDbEntity
  8
0
 62
0
370
-1
 48
1.0
  6
BYLAYER
100
AcDbLine
 10
3.0868054000000029
 20
111.8699500000000455
 30
0.0
 11
3.4547453999999789
 21
112.0059500000000128
 31
0.0
  0
LINE
  5
A8
100
AcDbEntity
  8
0
 62
0
370
-1
 48
1.0
  6
BYLAYER
100
AcDbLine
 10
3.4547453999999789
 20
112.0059500000000128
 30
0.0
 11
3.8323153999999704
 21
112.1119500000000073
 31
0.0
  0
LINE
  5
A9
100
AcDbEntity
  8
0
 62
0
370
-1
 48
1.0
  6
BYLAYER
100
AcDbLine
 10
3.8323153999999704
 20
112.1119500000000073
 30
0.0
 11
4.2168153999999731
 21
112.1879500000000291
 31
0.0
  0
LINE
  5
AA
100
AcDbEntity
  8
0
 62
0
370
-1
 48
1.0
  6
BYLAYER
100
AcDbLine
 10
4.2168153999999731
 20
112.1879500000000291
 30
0.0
 11
4.6067754000000036
 21
112.2349499999999978
 31
0.0
  0
LINE
  5
AB
100
AcDbEntity
  8
0
 62
0
370
-1
 48
1.0
  6
BYLAYER
100
AcDbLine
 10
4.6067754000000036
 20
112.2349499999999978
 30
0.0
 11
5.0008953999999903
 21
112.249950000000041
 31
0.0
  0
LINE
  5
AC
100
AcDbEntity
  8
0
 62
0
370
-1
 48
1.0
  6
BYLAYER
100
AcDbLine
 10
5.0008953999999903
 20
112.249950000000041
 30
0.0
 11
326.3259153999999853
 21
112.249950000000041
 31
0.0
  0
LINE
  5
AD
100
AcDbEntity
  8
0
 62
0
370
-1
 48
1.0
  6
BYLAYER
100
AcDbLine
 10
132.4679154000000381
 20
25.0243499999999983
 30
0.0
 11
132.4679154000000381
 21
20.3252500000000111
 31
0.0
  0
LINE
  5
AE
100
AcDbEntity
  8
0
 62
0
370
-1
 48
1.0
  6
BYLAYER
100
AcDbLine
 10
132.4679154000000381
 20
20.3252500000000111
 30
0.0
 11
92.8439154000000144
 21
20.3252500000000111
 31
0.0
  0
LINE
  5
AF
100
AcDbEntity
  8
0
 62
0
370
-1
 48
1.0
  6
BYLAYER
100
AcDbLine
 10
92.8439154000000144
 20
20.3252500000000111
 30
0.0
 11
92.8439154000000144
 21
23.5539500000000146
 31
0.0
  0
LINE
  5
B0
100
AcDbEntity
  8
0
 62
0
370
-1
 48
1.0
  6
BYLAYER
100
AcDbLine
 10
92.8439154000000144
 20
23.5539500000000146
 30
0.0
 11
91.1188153999999031
 21
23.5539500000000146
 31
0.0
  0
LINE
  5
B1
100
AcDbEntity
  8
0
 62
0
370
-1
 48
1.0
  6
BYLAYER
100
AcDbLine
 10
91.1188153999999031
 20
23.5539500000000146
 30
0.0
 11
91.1188153999999031
 21
24.4758500000000083
 31
0.0
  0
LINE
  5
B2
100
AcDbEntity
  8
0
 62
0
370
-1
 48
1.0
  6
BYLAYER
100
AcDbLine
 10
91.1188153999999031
 20
24.4758500000000083
 30
0.0
 11
87.8182153999999855
 21
24.4758500000000083
 31
0.0
  0
LINE
  5
B3
100
AcDbEntity
  8
0
 62
0
370
-1
 48
1.0
  6
BYLAYER
100
AcDbLine
 10
87.8182153999999855
 20
24.4758500000000083
 30
0.0
 11
87.8182153999999855
 21
23.5539500000000146
 31
0.0
  0
LINE
  5
B4
100
AcDbEntity
  8
0
 62
0
370
-1
 48
1.0
  6
BYLAYER
100
AcDbLine
 10
87.8182153999999855
 20
23.5539500000000146
 30
0.0
 11
86.0931153999999879
 21
23.5539500000000146
 31
0.0
  0
LINE
  5
B5
100
AcDbEntity
  8
0
 62
0
370
-1
 48
1.0
  6
BYLAYER
100
AcDbLine
 10
86.0931153999999879
 20
23.5539500000000146
 30
0.0
 11
86.0931153999999879
 21
20.3252500000000111
 31
0.0
  0
LINE
  5
B6
100
AcDbEntity
  8
0
 62
0
370
-1
 48
1.0
  6
BYLAYER
100
AcDbLine
 10
326.2678499999999531
 20
108.4490242532228592
 30
0.0
 11
325.9888499999999567
 21
108.3080242532228397
 31
0.0
  0
LINE
  5
B7
100
AcDbEntity
  8
0
 62
0
370
-1
 48
1.0
  6
BYLAYER
100
AcDbLine
 10
165.3558499999999469
 20
108.4489499999999396
 30
0.0
 11
165.0768499999999506
 21
108.30794999999992
 31
0.0
  0
LINE
  5
B8
100
AcDbEntity
  8
0
 62
0
370
-1
 48
1.0
  6
BYLAYER
100
AcDbLine
 10
4.4411409352658229
 20
108.4489499999999254
 30
0.0
 11
4.1621409352658265
 21
108.3079499999999058
 31
0.0
  0
LINE
  5
B9
100
AcDbEntity
  8
0
 62
0
370
-1
 48
1.0
  6
BYLAYER
100
AcDbLine
 10
326.2678259597687997
 20
5.6992499999999495
 30
0.0
 11
325.9888259597688034
 21
5.5582499999999584
 31
0.0
  0
LINE
  5
BA
100
AcDbEntity
  8
0
 62
0
370
-1
 48
1.0
  6
BYLAYER
100
AcDbLine
 10
165.3558499999999469
 20
5.6992643912647623
 30
0.0
 11
165.0768499999999506
 21
5.5582643912647711
 31
0.0
  0
LINE
  5
BB
100
AcDbEntity
  8
0
 62
0
370
-1
 48
1.0
  6
BYLAYER
100
AcDbLine
 10
4.4411409352658211
 20
5.6992551662285251
 30
0.0
 11
4.1621409352658247
 21
5.558255166228534
 31
0.0
  0
LINE
  5
BC
100
AcDbEntity
  8
0
 62
0
370
-1
 48
1.0
  6
BYLAYER
100
AcDbLine
 10
86.0931153999999879
 20
20.3252500000000111
 30
0.0
 11
85.2690153999999438
 21
20.3252500000000111
 31
0.0
  0
LINE
  5
BD
100
AcDbEntity
  8
0
 62
0
370
-1
 48
1.0
  6
BYLAYER
100
AcDbLine
 10
85.2690153999999438
 20
20.3252500000000111
 30
0.0
 11
85.2690153999999438
 21
17.5250499999999931
 31
0.0
  0
LINE
  5
BE
100
AcDbEntity
  8
0
 62
0
370
-1
 48
1.0
  6
BYLAYER
100
AcDbLine
 10
85.2690153999999438
 20
17.5250499999999931
 30
0.0
 11
86.0931153999999879
 21
17.5250499999999931
 31
0.0
  0
LINE
  5
BF
100
AcDbEntity
  8
0
 62
0
370
-1
 48
1.0
  6
BYLAYER
100
AcDbLine
 10
86.0931153999999879
 20
17.5250499999999931
 30
0.0
 11
86.0931153999999879
 21
11.254950000000008
 31
0.0
  0
LINE
  5
C0
100
AcDbEntity
  8
0
 62
0
370
-1
 48
1.0
  6
BYLAYER
100
AcDbLine
 10
86.0931153999999879
 20
11.254950000000008
 30
0.0
 11
87.8182153999999855
 21
11.254950000000008
 31
0.0
  0
LINE
  5
C1
100
AcDbEntity
  8
0
 62
0
370
-1
 48
1.0
  6
BYLAYER
100
AcDbLine
 10
87.8182153999999855
 20
11.254950000000008
 30
0.0
 11
87.8182153999999855
 21
10.2751499999999965
 31
0.0
  0
LINE
  5
C2
100
AcDbEntity
  8
0
 62
0
370
-1
 48
1.0
  6
BYLAYER
100
AcDbLine
 10
325.9888499999999567
 20
108.3080242532228397
 30
0.0
 11
325.7668499999999767
 21
108.0860242532228597
 31
0.0
  0
LINE
  5
C3
100
AcDbEntity
  8
0
 62
0
370
-1
 48
1.0
  6
BYLAYER
100
AcDbLine
 10
165.0768499999999506
 20
108.30794999999992
 30
0.0
 11
164.8548499999999706
 21
108.08594999999994
 31
0.0
  0
LINE
  5
C4
100
AcDbEntity
  8
0
 62
0
370
-1
 48
1.0
  6
BYLAYER
100
AcDbLine
 10
4.1621409352658265
 20
108.3079499999999058
 30
0.0
 11
3.9401409352658465
 21
108.0859499999999258
 31
0.0
  0
LINE
  5
C5
100
AcDbEntity
  8
0
 62
0
370
-1
 48
1.0
  6
BYLAYER
100
AcDbLine
 10
325.9888259597688034
 20
5.5582499999999584
 30
0.0
 11
325.7668259597688234
 21
5.33624999999995
 31
0.0
  0
LINE
  5
C6
100
AcDbEntity
  8
0
 62
0
370
-1
 48
1.0
  6
BYLAYER
100
AcDbLine
 10
165.0768499999999506
 20
5.5582643912647711
 30
0.0
 11
164.8548499999999706
 21
5.3362643912647627
 31
0.0
  0
LINE
  5
C7
100
AcDbEntity
  8
0
 62
0
370
-1
 48
1.0
  6
BYLAYER
100
AcDbLine
 10
4.1621409352658247
 20
5.558255166228534
 30
0.0
 11
3.9401409352658447
 21
5.3362551662285256
 31
0.0
  0
LINE
  5
C8
100
AcDbEntity
  8
0
 62
0
370
-1
 48
1.0
  6
BYLAYER
100
AcDbLine
 10
87.8182153999999855
 20
10.2751499999999965
 30
0.0
 11
91.1188153999999031
 21
10.2751499999999965
 31
0.0
  0
LINE
  5
C9
100
AcDbEntity
  8
0
 62
0
370
-1
 48
1.0
  6
BYLAYER
100
AcDbLine
 10
91.1188153999999031
 20
10.2751499999999965
 30
0.0
 11
91.1188153999999031
 21
11.254950000000008
 31
0.0
  0
LINE
  5
CA
100
AcDbEntity
  8
0
 62
0
370
-1
 48
1.0
  6
BYLAYER
100
AcDbLine
 10
91.1188153999999031
 20
11.254950000000008
 30
0.0
 11
92.8439154000000144
 21
11.254950000000008
 31
0.0
  0
LINE
  5
CB
100
AcDbEntity
  8
0
 62
0
370
-1
 48
1.0
  6
BYLAYER
100
AcDbLine
 10
92.8439154000000144
 20
11.254950000000008
 30
0.0
 11
92.8439154000000144
 21
15.7252500000000168
 31
0.0
  0
LINE
  5
CC
100
AcDbEntity
  8
0
 62
0
370
-1
 48
1.0
  6
BYLAYER
100
AcDbLine
 10
92.8439154000000144
 20
15.7252500000000168
 30
0.0
 11
132.4679154000000381
 21
15.7252500000000168
 31
0.0
  0
LINE
  5
CD
100
AcDbEntity
  8
0
 62
0
370
-1
 48
1.0
  6
BYLAYER
100
AcDbLine
 10
132.4679154000000381
 20
15.7252500000000168
 30
0.0
 11
132.4679154000000381
 21
11.0248500000000149
 31
0.0
  0
LINE
  5
CE
100
AcDbEntity
  8
0
 62
0
370
-1
 48
1.0
  6
BYLAYER
100
AcDbLine
 10
325.7668499999999767
 20
108.0860242532228597
 30
0.0
 11
325.625850000000014
 21
107.8070242532228633
 31
0.0
  0
LINE
  5
CF
100
AcDbEntity
  8
0
 62
0
370
-1
 48
1.0
  6
BYLAYER
100
AcDbLine
 10
164.8548499999999706
 20
108.08594999999994
 30
0.0
 11
164.7138500000000079
 21
107.8069499999999437
 31
0.0
  0
LINE
  5
D0
100
AcDbEntity
  8
0
 62
0
370
-1
 48
1.0
  6
BYLAYER
100
AcDbLine
 10
3.9401409352658465
 20
108.0859499999999258
 30
0.0
 11
3.7991409352658838
 21
107.8069499999999294
 31
0.0
  0
LINE
  5
D1
100
AcDbEntity
  8
0
 62
0
370
-1
 48
1.0
  6
BYLAYER
100
AcDbLine
 10
325.7668259597688234
 20
5.33624999999995
 30
0.0
 11
325.6258259597688607
 21
5.0572499999999536
 31
0.0
  0
LINE
  5
D2
100
AcDbEntity
  8
0
 62
0
370
-1
 48
1.0
  6
BYLAYER
100
AcDbLine
 10
164.8548499999999706
 20
5.3362643912647627
 30
0.0
 11
164.7138500000000079
 21
5.0572643912647663
 31
0.0
  0
LINE
  5
D3
100
AcDbEntity
  8
0
 62
0
370
-1
 48
1.0
  6
BYLAYER
100
AcDbLine
 10
3.9401409352658447
 20
5.3362551662285256
 30
0.0
 11
3.799140935265882
 21
5.0572551662285292
 31
0.0
  0
LINE
  5
D4
100
AcDbEntity
  8
0
 62
0
370
-1
 48
1.0
  6
BYLAYER
100
AcDbLine
 10
132.4679154000000381
 20
11.0248500000000149
 30
0.0
 11
146.4689154000000144
 21
11.0248500000000149
 31
0.0
  0
LINE
  5
D5
100
AcDbEntity
  8
0
 62
0
370
-1
 48
1.0
  6
BYLAYER
100
AcDbLine
 10
146.4689154000000144
 20
11.0248500000000149
 30
0.0
 11
146.4689154000000144
 21
15.7252500000000168
 31
0.0
  0
LINE
  5
D6
100
AcDbEntity
  8
0
 62
0
370
-1
 48
1.0
  6
BYLAYER
100
AcDbLine
 10
146.4689154000000144
 20
15.7252500000000168
 30
0.0
 11
186.0929154000000381
 21
15.7252500000000168
 31
0.0
  0
LINE
  5
D7
100
AcDbEntity
  8
0
 62
0
370
-1
 48
1.0
  6
BYLAYER
100
AcDbLine
 10
186.0929154000000381
 20
15.7252500000000168
 30
0.0
 11
186.0929154000000381
 21
11.254950000000008
 31
0.0
  0
LINE
  5
D8
100
AcDbEntity
  8
0
 62
0
370
-1
 48
1.0
  6
BYLAYER
100
AcDbLine
 10
186.0929154000000381
 20
11.254950000000008
 30
0.0
 11
187.8179153999999471
 21
11.254950000000008
 31
0.0
  0
LINE
  5
D9
100
AcDbEntity
  8
0
 62
0
370
-1
 48
1.0
  6
BYLAYER
100
AcDbLine
 10
187.8179153999999471
 20
11.254950000000008
 30
0.0
 11
187.8179153999999471
 21
10.2751499999999965
 31
0.0
  0
LINE
  5
DA
100
AcDbEntity
  8
0
 62
0
370
-1
 48
1.0
  6
BYLAYER
100
AcDbLine
 10
325.625850000000014
 20
107.8070242532228633
 30
0.0
 11
325.5768499999999221
 21
107.4990242532228706
 31
0.0
  0
LINE
  5
DB
100
AcDbEntity
  8
0
 62
0
370
-1
 48
1.0
  6
BYLAYER
100
AcDbLine
 10
164.7138500000000079
 20
107.8069499999999437
 30
0.0
 11
164.664849999999916
 21
107.4989499999999509
 31
0.0
  0
LINE
  5
DC
100
AcDbEntity
  8
0
 62
0
370
-1
 48
1.0
  6
BYLAYER
100
AcDbLine
 10
3.7991409352658838
 20
107.8069499999999294
 30
0.0
 11
3.750140935265792
 21
107.4989499999999367
 31
0.0
  0
LINE
  5
DD
100
AcDbEntity
  8
0
 62
0
370
-1
 48
1.0
  6
BYLAYER
100
AcDbLine
 10
325.6258259597688607
 20
5.0572499999999536
 30
0.0
 11
325.5768259597687688
 21
4.7492499999999609
 31
0.0
  0
LINE
  5
DE
100
AcDbEntity
  8
0
 62
0
370
-1
 48
1.0
  6
BYLAYER
100
AcDbLine
 10
164.7138500000000079
 20
5.0572643912647663
 30
0.0
 11
164.664849999999916
 21
4.7492643912647736
 31
0.0
  0
LINE
  5
DF
100
AcDbEntity
  8
0
 62
0
370
-1
 48
1.0
  6
BYLAYER
100
AcDbLine
 10
3.799140935265882
 20
5.0572551662285292
 30
0.0
 11
3.7501409352657902
 21
4.7492551662285365
 31
0.0
  0
LINE
  5
E0
100
AcDbEntity
  8
0
 62
0
370
-1
 48
1.0
  6
BYLAYER
100
AcDbLine
 10
187.8179153999999471
 20
10.2751499999999965
 30
0.0
 11
191.118915399999878
 21
10.2751499999999965
 31
0.0
  0
LINE
  5
E1
100
AcDbEntity
  8
0
 62
0
370
-1
 48
1.0
  6
BYLAYER
100
AcDbLine
 10
191.118915399999878
 20
10.2751499999999965
 30
0.0
 11
191.118915399999878
 21
11.254950000000008
 31
0.0
  0
LINE
  5
E2
100
AcDbEntity
  8
0
 62
0
370
-1
 48
1.0
  6
BYLAYER
100
AcDbLine
 10
191.118915399999878
 20
11.254950000000008
 30
0.0
 11
192.8439154000000144
 21
11.254950000000008
 31
0.0
  0
LINE
  5
E3
100
AcDbEntity
  8
0
 62
0
370
-1
 48
1.0
  6
BYLAYER
100
AcDbLine
 10
192.8439154000000144
 20
11.254950000000008
 30
0.0
 11
192.8439154000000144
 21
17.5250499999999931
 31
0.0
  0
LINE
  5
E4
100
AcDbEntity
  8
0
 62
0
370
-1
 48
1.0
  6
BYLAYER
100
AcDbLine
 10
192.8439154000000144
 20
17.5250499999999931
 30
0.0
 11
193.6679154000000835
 21
17.5250499999999931
 31
0.0
  0
LINE
  5
E5
100
AcDbEntity
  8
0
 62
0
370
-1
 48
1.0
  6
BYLAYER
100
AcDbLine
 10
193.6679154000000835
 20
17.5250499999999931
 30
0.0
 11
193.6679154000000835
 21
20.3252500000000111
 31
0.0
  0
LINE
  5
E6
100
AcDbEntity
  8
0
 62
0
370
-1
 48
1.0
  6
BYLAYER
100
AcDbLine
 10
325.5768499999999221
 20
107.4990242532228706
 30
0.0
 11
325.625850000000014
 21
107.1890242532228683
 31
0.0
  0
LINE
  5
E7
100
AcDbEntity
  8
0
 62
0
370
-1
 48
1.0
  6
BYLAYER
100
AcDbLine
 10
164.664849999999916
 20
107.4989499999999509
 30
0.0
 11
164.7138500000000079
 21
107.1889499999999487
 31
0.0
  0
LINE
  5
E8
100
AcDbEntity
  8
0
 62
0
370
-1
 48
1.0
  6
BYLAYER
100
AcDbLine
 10
3.750140935265792
 20
107.4989499999999367
 30
0.0
 11
3.7991409352658838
 21
107.1889499999999344
 31
0.0
  0
LINE
  5
E9
100
AcDbEntity
  8
0
 62
0
370
-1
 48
1.0
  6
BYLAYER
100
AcDbLine
 10
325.5768259597687688
 20
4.7492499999999609
 30
0.0
 11
325.6258259597688607
 21
4.4392499999999586
 31
0.0
  0
LINE
  5
EA
100
AcDbEntity
  8
0
 62
0
370
-1
 48
1.0
  6
BYLAYER
100
AcDbLine
 10
164.664849999999916
 20
4.7492643912647736
 30
0.0
 11
164.7138500000000079
 21
4.4392643912647713
 31
0.0
  0
LINE
  5
EB
100
AcDbEntity
  8
0
 62
0
370
-1
 48
1.0
  6
BYLAYER
100
AcDbLine
 10
3.7501409352657902
 20
4.7492551662285365
 30
0.0
 11
3.799140935265882
 21
4.4392551662285342
 31
0.0
  0
LINE
  5
EC
100
AcDbEntity
  8
0
 62
0
370
-1
 48
1.0
  6
BYLAYER
100
AcDbLine
 10
193.6679154000000835
 20
20.3252500000000111
 30
0.0
 11
192.8439154000000144
 21
20.3252500000000111
 31
0.0
  0
LINE
  5
ED
100
AcDbEntity
  8
0
 62
0
370
-1
 48
1.0
  6
BYLAYER
100
AcDbLine
 10
192.8439154000000144
 20
20.3252500000000111
 30
0.0
 11
192.8439154000000144
 21
23.5539500000000146
 31
0.0
  0
LINE
  5
EE
100
AcDbEntity
  8
0
 62
0
370
-1
 48
1.0
  6
BYLAYER
100
AcDbLine
 10
192.8439154000000144
 20
23.5539500000000146
 30
0.0
 11
191.118915399999878
 21
23.5539500000000146
 31
0.0
  0
LINE
  5
EF
100
AcDbEntity
  8
0
 62
0
370
-1
 48
1.0
  6
BYLAYER
100
AcDbLine
 10
191.118915399999878
 20
23.5539500000000146
 30
0.0
 11
191.118915399999878
 21
24.4758500000000083
 31
0.0
  0
LINE
  5
F0
100
AcDbEntity
  8
0
 62
0
370
-1
 48
1.0
  6
BYLAYER
100
AcDbLine
 10
191.118915399999878
 20
24.4758500000000083
 30
0.0
 11
187.8179153999999471
 21
24.4758500000000083
 31
0.0
  0
LINE
  5
F1
100
AcDbEntity
  8
0
 62
0
370
-1
 48
1.0
  6
BYLAYER
100
AcDbLine
 10
187.8179153999999471
 20
24.4758500000000083
 30
0.0
 11
187.8179153999999471
 21
23.5539500000000146
 31
0.0
  0
LINE
  5
F2
100
AcDbEntity
  8
0
 62
0
370
-1
 48
1.0
  6
BYLAYER
100
AcDbLine
 10
325.625850000000014
 20
107.1890242532228683
 30
0.0
 11
325.7668499999999767
 21
106.9100242532228719
 31
0.0
  0
LINE
  5
F3
100
AcDbEntity
  8
0
 62
0
370
-1
 48
1.0
  6
BYLAYER
100
AcDbLine
 10
164.7138500000000079
 20
107.1889499999999487
 30
0.0
 11
164.8548499999999706
 21
106.9099499999999523
 31
0.0
  0
LINE
  5
F4
100
AcDbEntity
  8
0
 62
0
370
-1
 48
1.0
  6
BYLAYER
100
AcDbLine
 10
3.7991409352658838
 20
107.1889499999999344
 30
0.0
 11
3.9401409352658465
 21
106.9099499999999381
 31
0.0
  0
LINE
  5
F5
100
AcDbEntity
  8
0
 62
0
370
-1
 48
1.0
  6
BYLAYER
100
AcDbLine
 10
325.6258259597688607
 20
4.4392499999999586
 30
0.0
 11
325.7668259597688234
 21
4.1602499999999623
 31
0.0
  0
LINE
  5
F6
100
AcDbEntity
  8
0
 62
0
370
-1
 48
1.0
  6
BYLAYER
100
AcDbLine
 10
164.7138500000000079
 20
4.4392643912647713
 30
0.0
 11
164.8548499999999706
 21
4.160264391264775
 31
0.0
  0
LINE
  5
F7
100
AcDbEntity
  8
0
 62
0
370
-1
 48
1.0
  6
BYLAYER
100
AcDbLine
 10
3.799140935265882
 20
4.4392551662285342
 30
0.0
 11
3.9401409352658447
 21
4.1602551662285379
 31
0.0
  0
LINE
  5
F8
100
AcDbEntity
  8
0
 62
0
370
-1
 48
1.0
  6
BYLAYER
100
AcDbLine
 10
187.8179153999999471
 20
23.5539500000000146
 30
0.0
 11
186.0929154000000381
 21
23.5539500000000146
 31
0.0
  0
LINE
  5
F9
100
AcDbEntity
  8
0
 62
0
370
-1
 48
1.0
  6
BYLAYER
100
AcDbLine
 10
186.0929154000000381
 20
23.5539500000000146
 30
0.0
 11
186.0929154000000381
 21
20.3252500000000111
 31
0.0
  0
LINE
  5
FA
100
AcDbEntity
  8
0
 62
0
370
-1
 48
1.0
  6
BYLAYER
100
AcDbLine
 10
186.0929154000000381
 20
20.3252500000000111
 30
0.0
 11
146.4689154000000144
 21
20.3252500000000111
 31
0.0
  0
LINE
  5
FB
100
AcDbEntity
  8
0
 62
0
370
-1
 48
1.0
  6
BYLAYER
100
AcDbLine
 10
146.4689154000000144
 20
20.3252500000000111
 30
0.0
 11
146.4689154000000144
 21
25.0243499999999983
 31
0.0
  0
LINE
  5
FC
100
AcDbEntity
  8
0
 62
0
370
-1
 48
1.0
  6
BYLAYER
100
AcDbLine
 10
146.4689154000000144
 20
25.0243499999999983
 30
0.0
 11
132.4679154000000381
 21
25.0243499999999983
 31
0.0
  0
LINE
  5
FD
100
AcDbEntity
  8
0
 62
0
370
-1
 48
1.0
  6
BYLAYER
100
AcDbLine
 10
13.4069154000000026
 20
25.0243499999999983
 30
0.0
 11
27.4064154000000144
 21
25.0243499999999983
 31
0.0
  0
LINE
  5
FE
100
AcDbEntity
  8
0
 62
0
370
-1
 48
1.0
  6
BYLAYER
100
AcDbLine
 10
325.7668499999999767
 20
106.9100242532228719
 30
0.0
 11
325.9888499999999567
 21
106.688024253222892
 31
0.0
  0
LINE
  5
FF
100
AcDbEntity
  8
0
 62
0
370
-1
 48
1.0
  6
BYLAYER
100
AcDbLine
 10
164.8548499999999706
 20
106.9099499999999523
 30
0.0
 11
165.0768499999999506
 21
106.6879499999999723
 31
0.0
  0
LINE
  5
100
100
AcDbEntity
  8
0
 62
0
370
-1
 48
1.0
  6
BYLAYER
100
AcDbLine
 10
3.9401409352658465
 20
106.9099499999999381
 30
0.0
 11
4.1621409352658265
 21
106.6879499999999581
 31
0.0
  0
LINE
  5
101
100
AcDbEntity
  8
0
 62
0
370
-1
 48
1.0
  6
BYLAYER
100
AcDbLine
 10
325.7668259597688234
 20
4.1602499999999623
 30
0.0
 11
325.9888259597688034
 21
3.9382499999999823
 31
0.0
  0
LINE
  5
102
100
AcDbEntity
  8
0
 62
0
370
-1
 48
1.0
  6
BYLAYER
100
AcDbLine
 10
164.8548499999999706
 20
4.160264391264775
 30
0.0
 11
165.0768499999999506
 21
3.938264391264795
 31
0.0
  0
LINE
  5
103
100
AcDbEntity
  8
0
 62
0
370
-1
 48
1.0
  6
BYLAYER
100
AcDbLine
 10
3.9401409352658447
 20
4.1602551662285379
 30
0.0
 11
4.1621409352658247
 21
3.9382551662285579
 31
0.0
  0
LINE
  5
104
100
AcDbEntity
  8
0
 62
0
370
-1
 48
1.0
  6
BYLAYER
100
AcDbLine
 10
27.4064154000000144
 20
25.0243499999999983
 30
0.0
 11
27.4064154000000144
 21
11.0248500000000149
 31
0.0
  0
LINE
  5
105
100
AcDbEntity
  8
0
 62
0
370
-1
 48
1.0
  6
BYLAYER
100
AcDbLine
 10
27.4064154000000144
 20
11.0248500000000149
 30
0.0
 11
13.4069154000000026
 21
11.0248500000000149
 31
0.0
  0
LINE
  5
106
100
AcDbEntity
  8
0
 62
0
370
-1
 48
1.0
  6
BYLAYER
100
AcDbLine
 10
13.4069154000000026
 20
11.0248500000000149
 30
0.0
 11
13.4069154000000026
 21
25.0243499999999983
 31
0.0
  0
LINE
  5
107
100
AcDbEntity
  8
0
 62
0
370
-1
 48
1.0
  6
BYLAYER
100
AcDbLine
 10
37.2182154000000196
 20
25.0243499999999983
 30
0.0
 11
51.2189154000000144
 21
25.0243499999999983
 31
0.0
  0
LINE
  5
108
100
AcDbEntity
  8
0
 62
0
370
-1
 48
1.0
  6
BYLAYER
100
AcDbLine
 10
51.2189154000000144
 20
25.0243499999999983
 30
0.0
 11
51.2189154000000144
 21
11.0248500000000149
 31
0.0
  0
LINE
  5
109
100
AcDbEntity
  8
0
 62
0
370
-1
 48
1.0
  6
BYLAYER
100
AcDbLine
 10
51.2189154000000144
 20
11.0248500000000149
 30
0.0
 11
37.2182154000000196
 21
11.0248500000000149
 31
0.0
  0
LINE
  5
10A
100
AcDbEntity
  8
0
 62
0
370
-1
 48
1.0
  6
BYLAYER
100
AcDbLine
 10
325.9888499999999567
 20
106.688024253222892
 30
0.0
 11
326.2678499999999531
 21
106.5460242532228392
 31
0.0
  0
LINE
  5
10B
100
AcDbEntity
  8
0
 62
0
370
-1
 48
1.0
  6
BYLAYER
100
AcDbLine
 10
165.0768499999999506
 20
106.6879499999999723
 30
0.0
 11
165.3558499999999469
 21
106.5459499999999764
 31
0.0
  0
LINE
  5
10C
100
AcDbEntity
  8
0
 62
0
370
-1
 48
1.0
  6
BYLAYER
100
AcDbLine
 10
4.1621409352658265
 20
106.6879499999999581
 30
0.0
 11
4.4411409352658229
 21
106.5459499999999622
 31
0.0
  0
LINE
  5
10D
100
AcDbEntity
  8
0
 62
0
370
-1
 48
1.0
  6
BYLAYER
100
AcDbLine
 10
325.9888259597688034
 20
3.9382499999999823
 30
0.0
 11
326.2678259597687997
 21
3.7962499999999579
 31
0.0
  0
LINE
  5
10E
100
AcDbEntity
  8
0
 62
0
370
-1
 48
1.0
  6
BYLAYER
100
AcDbLine
 10
165.0768499999999506
 20
3.938264391264795
 30
0.0
 11
165.3558499999999469
 21
3.7962643912647707
 31
0.0
  0
LINE
  5
10F
100
AcDbEntity
  8
0
 62
0
370
-1
 48
1.0
  6
BYLAYER
100
AcDbLine
 10
4.1621409352658247
 20
3.9382551662285579
 30
0.0
 11
4.4411409352658211
 21
3.7962551662285335
 31
0.0
  0
LINE
  5
110
100
AcDbEntity
  8
0
 62
0
370
-1
 48
1.0
  6
BYLAYER
100
AcDbLine
 10
37.2182154000000196
 20
11.0248500000000149
 30
0.0
 11
37.2182154000000196
 21
25.0243499999999983
 31
0.0
  0
LINE
  5
111
100
AcDbEntity
  8
0
 62
0
370
-1
 48
1.0
  6
BYLAYER
100
AcDbLine
 10
61.0318153999999709
 20
25.0243499999999983
 30
0.0
 11
75.0314154000000144
 21
25.0243499999999983
 31
0.0
  0
LINE
  5
112
100
AcDbEntity
  8
0
 62
0
370
-1
 48
1.0
  6
BYLAYER
100
AcDbLine
 10
75.0314154000000144
 20
25.0243499999999983
 30
0.0
 11
75.0314154000000144
 21
11.0248500000000149
 31
0.0
  0
LINE
  5
113
100
AcDbEntity
  8
0
 62
0
370
-1
 48
1.0
  6
BYLAYER
100
AcDbLine
 10
75.0314154000000144
 20
11.0248500000000149
 30
0.0
 11
61.0318153999999709
 21
11.0248500000000149
 31
0.0
  0
LINE
  5
114
100
AcDbEntity
  8
0
 62
0
370
-1
 48
1.0
  6
BYLAYER
100
AcDbLine
 10
61.0318153999999709
 20
11.0248500000000149
 30
0.0
 11
61.0318153999999709
 21
25.0243499999999983
 31
0.0
  0
LINE
  5
115
100
AcDbEntity
  8
0
 62
0
370
-1
 48
1.0
  6
BYLAYER
100
AcDbLine
 10
203.9069153999998889
 20
25.0243499999999983
 30
0.0
 11
217.9059153999999126
 21
25.0243499999999983
 31
0.0
  0
LINE
  5
116
100
AcDbEntity
  8
0
 62
0
370
-1
 48
1.0
  6
BYLAYER
100
AcDbLine
 10
326.2678499999999531
 20
106.5460242532228392
 30
0.0
 11
326.5778500000000122
 21
106.4980242532228942
 31
0.0
  0
LINE
  5
117
100
AcDbEntity
  8
0
 62
0
370
-1
 48
1.0
  6
BYLAYER
100
AcDbLine
 10
165.3558499999999469
 20
106.5459499999999764
 30
0.0
 11
165.665850000000006
 21
106.4979499999999746
 31
0.0
  0
LINE
  5
118
100
AcDbEntity
  8
0
 62
0
370
-1
 48
1.0
  6
BYLAYER
100
AcDbLine
 10
4.4411409352658229
 20
106.5459499999999622
 30
0.0
 11
4.751140935265882
 21
106.4979499999999604
 31
0.0
  0
LINE
  5
119
100
AcDbEntity
  8
0
 62
0
370
-1
 48
1.0
  6
BYLAYER
100
AcDbLine
 10
326.2678259597687997
 20
3.7962499999999579
 30
0.0
 11
326.5778259597688589
 21
3.7482499999999845
 31
0.0
  0
LINE
  5
11A
100
AcDbEntity
  8
0
 62
0
370
-1
 48
1.0
  6
BYLAYER
100
AcDbLine
 10
165.3558499999999469
 20
3.7962643912647707
 30
0.0
 11
165.665850000000006
 21
3.7482643912647973
 31
0.0
  0
LINE
  5
11B
100
AcDbEntity
  8
0
 62
0
370
-1
 48
1.0
  6
BYLAYER
100
AcDbLine
 10
4.4411409352658211
 20
3.7962551662285335
 30
0.0
 11
4.7511409352658802
 21
3.7482551662285601
 31
0.0
  0
LINE
  5
11C
100
AcDbEntity
  8
0
 62
0
370
-1
 48
1.0
  6
BYLAYER
100
AcDbLine
 10
217.9059153999999126
 20
25.0243499999999983
 30
0.0
 11
217.9059153999999126
 21
11.0248500000000149
 31
0.0
  0
LINE
  5
11D
100
AcDbEntity
  8
0
 62
0
370
-1
 48
1.0
  6
BYLAYER
100
AcDbLine
 10
217.9059153999999126
 20
11.0248500000000149
 30
0.0
 11
203.9069153999998889
 21
11.0248500000000149
 31
0.0
  0
LINE
  5
11E
100
AcDbEntity
  8
0
 62
0
370
-1
 48
1.0
  6
BYLAYER
100
AcDbLine
 10
203.9069153999998889
 20
11.0248500000000149
 30
0.0
 11
203.9069153999998889
 21
25.0243499999999983
 31
0.0
  0
LINE
  5
11F
100
AcDbEntity
  8
0
 62
0
370
-1
 48
1.0
  6
BYLAYER
100
AcDbLine
 10
227.7179154000000381
 20
25.0243499999999983
 30
0.0
 11
241.7189154000000144
 21
25.0243499999999983
 31
0.0
  0
LINE
  5
120
100
AcDbEntity
  8
0
 62
0
370
-1
 48
1.0
  6
BYLAYER
100
AcDbLine
 10
241.7189154000000144
 20
25.0243499999999983
 30
0.0
 11
241.7189154000000144
 21
11.0248500000000149
 31
0.0
  0
LINE
  5
121
100
AcDbEntity
  8
0
 62
0
370
-1
 48
1.0
  6
BYLAYER
100
AcDbLine
 10
241.7189154000000144
 20
11.0248500000000149
 30
0.0
 11
227.7179154000000381
 21
11.0248500000000149
 31
0.0
  0
LINE
  5
122
100
AcDbEntity
  8
0
 62
0
370
-1
 48
1.0
  6
BYLAYER
100
AcDbLine
 10
326.5778500000000122
 20
106.4980242532228942
 30
0.0
 11
326.8858500000000049
 21
106.5460242532228392
 31
0.0
  0
LINE
  5
123
100
AcDbEntity
  8
0
 62
0
370
-1
 48
1.0
  6
BYLAYER
100
AcDbLine
 10
165.665850000000006
 20
106.4979499999999746
 30
0.0
 11
165.9738499999999988
 21
106.5459499999999764
 31
0.0
  0
LINE
  5
124
100
AcDbEntity
  8
0
 62
0
370
-1
 48
1.0
  6
BYLAYER
100
AcDbLine
 10
4.751140935265882
 20
106.4979499999999604
 30
0.0
 11
5.0591409352658747
 21
106.5459499999999622
 31
0.0
  0
LINE
  5
125
100
AcDbEntity
  8
0
 62
0
370
-1
 48
1.0
  6
BYLAYER
100
AcDbLine
 10
326.5778259597688589
 20
3.7482499999999845
 30
0.0
 11
326.8858259597688516
 21
3.7962499999999579
 31
0.0
  0
LINE
  5
126
100
AcDbEntity
  8
0
 62
0
370
-1
 48
1.0
  6
BYLAYER
100
AcDbLine
 10
165.665850000000006
 20
3.7482643912647973
 30
0.0
 11
165.9738499999999988
 21
3.7962643912647707
 31
0.0
  0
LINE
  5
127
100
AcDbEntity
  8
0
 62
0
370
-1
 48
1.0
  6
BYLAYER
100
AcDbLine
 10
4.7511409352658802
 20
3.7482551662285601
 30
0.0
 11
5.0591409352658729
 21
3.7962551662285335
 31
0.0
  0
LINE
  5
128
100
AcDbEntity
  8
0
 62
0
370
-1
 48
1.0
  6
BYLAYER
100
AcDbLine
 10
227.7179154000000381
 20
11.0248500000000149
 30
0.0
 11
227.7179154000000381
 21
25.0243499999999983
 31
0.0
  0
LINE
  5
129
100
AcDbEntity
  8
0
 62
0
370
-1
 48
1.0
  6
BYLAYER
100
AcDbLine
 10
249.1499154000000544
 20
25.0243499999999983
 30
0.0
 11
263.1499154000000544
 21
25.0243499999999983
 31
0.0
  0
LINE
  5
12A
100
AcDbEntity
  8
0
 62
0
370
-1
 48
1.0
  6
BYLAYER
100
AcDbLine
 10
263.1499154000000544
 20
25.0243499999999983
 30
0.0
 11
263.1499154000000544
 21
11.0248500000000149
 31
0.0
  0
LINE
  5
12B
100
AcDbEntity
  8
0
 62
0
370
-1
 48
1.0
  6
BYLAYER
100
AcDbLine
 10
263.1499154000000544
 20
11.0248500000000149
 30
0.0
 11
249.1499154000000544
 21
11.0248500000000149
 31
0.0
  0
LINE
  5
12C
100
AcDbEntity
  8
0
 62
0
370
-1
 48
1.0
  6
BYLAYER
100
AcDbLine
 10
249.1499154000000544
 20
11.0248500000000149
 30
0.0
 11
249.1499154000000544
 21
25.0243499999999983
 31
0.0
  0
LINE
  5
12D
100
AcDbEntity
  8
0
 62
0
370
-1
 48
1.0
  6
BYLAYER
100
AcDbLine
 10
268.2009153999999853
 20
25.0243499999999983
 30
0.0
 11
282.199915400000009
 21
25.0243499999999983
 31
0.0
  0
LINE
  5
12E
100
AcDbEntity
  8
0
 62
0
370
-1
 48
1.0
  6
BYLAYER
100
AcDbLine
 10
326.8858500000000049
 20
106.5460242532228392
 30
0.0
 11
327.1648500000000013
 21
106.688024253222892
 31
0.0
  0
LINE
  5
12F
100
AcDbEntity
  8
0
 62
0
370
-1
 48
1.0
  6
BYLAYER
100
AcDbLine
 10
165.9738499999999988
 20
106.5459499999999764
 30
0.0
 11
166.2528499999999951
 21
106.6879499999999723
 31
0.0
  0
LINE
  5
130
100
AcDbEntity
  8
0
 62
0
370
-1
 48
1.0
  6
BYLAYER
100
AcDbLine
 10
5.0591409352658747
 20
106.5459499999999622
 30
0.0
 11
5.3381409352658711
 21
106.6879499999999581
 31
0.0
  0
LINE
  5
131
100
AcDbEntity
  8
0
 62
0
370
-1
 48
1.0
  6
BYLAYER
100
AcDbLine
 10
326.8858259597688516
 20
3.7962499999999579
 30
0.0
 11
327.164825959768848
 21
3.9382499999999823
 31
0.0
  0
LINE
  5
132
100
AcDbEntity
  8
0
 62
0
370
-1
 48
1.0
  6
BYLAYER
100
AcDbLine
 10
165.9738499999999988
 20
3.7962643912647707
 30
0.0
 11
166.2528499999999951
 21
3.938264391264795
 31
0.0
  0
LINE
  5
133
100
AcDbEntity
  8
0
 62
0
370
-1
 48
1.0
  6
BYLAYER
100
AcDbLine
 10
5.0591409352658729
 20
3.7962551662285335
 30
0.0
 11
5.3381409352658693
 21
3.9382551662285579
 31
0.0
  0
LINE
  5
134
100
AcDbEntity
  8
0
 62
0
370
-1
 48
1.0
  6
BYLAYER
100
AcDbLine
 10
282.199915400000009
 20
25.0243499999999983
 30
0.0
 11
282.199915400000009
 21
11.0248500000000149
 31
0.0
  0
LINE
  5
135
100
AcDbEntity
  8
0
 62
0
370
-1
 48
1.0
  6
BYLAYER
100
AcDbLine
 10
282.199915400000009
 20
11.0248500000000149
 30
0.0
 11
268.2009153999999853
 21
11.0248500000000149
 31
0.0
  0
LINE
  5
136
100
AcDbEntity
  8
0
 62
0
370
-1
 48
1.0
  6
BYLAYER
100
AcDbLine
 10
268.2009153999999853
 20
11.0248500000000149
 30
0.0
 11
268.2009153999999853
 21
25.0243499999999983
 31
0.0
  0
LINE
  5
137
100
AcDbEntity
  8
0
 62
0
370
-1
 48
1.0
  6
BYLAYER
100
AcDbLine
 10
287.2509153999999398
 20
25.0243499999999983
 30
0.0
 11
301.2499153999999635
 21
25.0243499999999983
 31
0.0
  0
LINE
  5
138
100
AcDbEntity
  8
0
 62
0
370
-1
 48
1.0
  6
BYLAYER
100
AcDbLine
 10
301.2499153999999635
 20
25.0243499999999983
 30
0.0
 11
301.2499153999999635
 21
11.0248500000000149
 31
0.0
  0
LINE
  5
139
100
AcDbEntity
  8
0
 62
0
370
-1
 48
1.0
  6
BYLAYER
100
AcDbLine
 10
301.2499153999999635
 20
11.0248500000000149
 30
0.0
 11
287.2509153999999398
 21
11.0248500000000149
 31
0.0
  0
LINE
  5
13A
100
AcDbEntity
  8
0
 62
0
370
-1
 48
1.0
  6
BYLAYER
100
AcDbLine
 10
327.1648500000000013
 20
106.688024253222892
 30
0.0
 11
327.3868499999999813
 21
106.9100242532228719
 31
0.0
  0
LINE
  5
13B
100
AcDbEntity
  8
0
 62
0
370
-1
 48
1.0
  6
BYLAYER
100
AcDbLine
 10
166.2528499999999951
 20
106.6879499999999723
 30
0.0
 11
166.4748499999999751
 21
106.9099499999999523
 31
0.0
  0
LINE
  5
13C
100
AcDbEntity
  8
0
 62
0
370
-1
 48
1.0
  6
BYLAYER
100
AcDbLine
 10
5.3381409352658711
 20
106.6879499999999581
 30
0.0
 11
5.5601409352658511
 21
106.9099499999999381
 31
0.0
  0
LINE
  5
13D
100
AcDbEntity
  8
0
 62
0
370
-1
 48
1.0
  6
BYLAYER
100
AcDbLine
 10
327.164825959768848
 20
3.9382499999999823
 30
0.0
 11
327.3868259597688279
 21
4.1602499999999623
 31
0.0
  0
LINE
  5
13E
100
AcDbEntity
  8
0
 62
0
370
-1
 48
1.0
  6
BYLAYER
100
AcDbLine
 10
166.2528499999999951
 20
3.938264391264795
 30
0.0
 11
166.4748499999999751
 21
4.160264391264775
 31
0.0
  0
LINE
  5
13F
100
AcDbEntity
  8
0
 62
0
370
-1
 48
1.0
  6
BYLAYER
100
AcDbLine
 10
5.3381409352658693
 20
3.9382551662285579
 30
0.0
 11
5.5601409352658493
 21
4.1602551662285379
 31
0.0
  0
LINE
  5
140
100
AcDbEntity
  8
0
 62
0
370
-1
 48
1.0
  6
BYLAYER
100
AcDbLine
 10
287.2509153999999398
 20
11.0248500000000149
 30
0.0
 11
287.2509153999999398
 21
25.0243499999999983
 31
0.0
  0
LINE
  5
141
100
AcDbEntity
  8
0
 62
0
370
-1
 48
1.0
  6
BYLAYER
100
AcDbLine
 10
306.3009153999998944
 20
25.0243499999999983
 30
0.0
 11
320.299915399999918
 21
25.0243499999999983
 31
0.0
  0
LINE
  5
142
100
AcDbEntity
  8
0
 62
0
370
-1
 48
1.0
  6
BYLAYER
100
AcDbLine
 10
320.299915399999918
 20
25.0243499999999983
 30
0.0
 11
320.299915399999918
 21
11.0248500000000149
 31
0.0
  0
LINE
  5
143
100
AcDbEntity
  8
0
 62
0
370
-1
 48
1.0
  6
BYLAYER
100
AcDbLine
 10
320.299915399999918
 20
11.0248500000000149
 30
0.0
 11
306.3009153999998944
 21
11.0248500000000149
 31
0.0
  0
LINE
  5
144
100
AcDbEntity
  8
0
 62
0
370
-1
 48
1.0
  6
BYLAYER
100
AcDbLine
 10
306.3009153999998944
 20
11.0248500000000149
 30
0.0
 11
306.3009153999998944
 21
25.0243499999999983
 31
0.0
  0
LINE
  5
145
100
AcDbEntity
  8
0
 62
0
370
-1
 48
1.0
  6
BYLAYER
100
AcDbLine
 10
22.9319153999999799
 20
44.074450000000013
 30
0.0
 11
22.9319153999999799
 21
39.3750500000000159
 31
0.0
  0
LINE
  5
146
100
AcDbEntity
  8
0
 62
0
370
-1
 48
1.0
  6
BYLAYER
100
AcDbLine
 10
327.3868499999999813
 20
106.9100242532228719
 30
0.0
 11
327.527849999999944
 21
107.1890242532228683
 31
0.0
  0
LINE
  5
147
100
AcDbEntity
  8
0
 62
0
370
-1
 48
1.0
  6
BYLAYER
100
AcDbLine
 10
166.4748499999999751
 20
106.9099499999999523
 30
0.0
 11
166.6158499999999378
 21
107.1889499999999487
 31
0.0
  0
LINE
  5
148
100
AcDbEntity
  8
0
 62
0
370
-1
 48
1.0
  6
BYLAYER
100
AcDbLine
 10
5.5601409352658511
 20
106.9099499999999381
 30
0.0
 11
5.7011409352658138
 21
107.1889499999999344
 31
0.0
  0
LINE
  5
149
100
AcDbEntity
  8
0
 62
0
370
-1
 48
1.0
  6
BYLAYER
100
AcDbLine
 10
327.3868259597688279
 20
4.1602499999999623
 30
0.0
 11
327.5278259597687907
 21
4.4392499999999586
 31
0.0
  0
LINE
  5
14A
100
AcDbEntity
  8
0
 62
0
370
-1
 48
1.0
  6
BYLAYER
100
AcDbLine
 10
166.4748499999999751
 20
4.160264391264775
 30
0.0
 11
166.6158499999999378
 21
4.4392643912647713
 31
0.0
  0
LINE
  5
14B
100
AcDbEntity
  8
0
 62
0
370
-1
 48
1.0
  6
BYLAYER
100
AcDbLine
 10
5.5601409352658493
 20
4.1602551662285379
 30
0.0
 11
5.701140935265812
 21
4.4392551662285342
 31
0.0
  0
LINE
  5
14C
100
AcDbEntity
  8
0
 62
0
370
-1
 48
1.0
  6
BYLAYER
100
AcDbLine
 10
22.9319153999999799
 20
39.3750500000000159
 30
0.0
 11
21.4064154000000144
 21
39.3750500000000159
 31
0.0
  0
LINE
  5
14D
100
AcDbEntity
  8
0
 62
0
370
-1
 48
1.0
  6
BYLAYER
100
AcDbLine
 10
21.4064154000000144
 20
39.3750500000000159
 30
0.0
 11
21.4064154000000144
 21
42.6040500000000009
 31
0.0
  0
LINE
  5
14E
100
AcDbEntity
  8
0
 62
0
370
-1
 48
1.0
  6
BYLAYER
100
AcDbLine
 10
21.4064154000000144
 20
42.6040500000000009
 30
0.0
 11
19.6811154000000101
 21
42.6040500000000009
 31
0.0
  0
LINE
  5
14F
100
AcDbEntity
  8
0
 62
0
370
-1
 48
1.0
  6
BYLAYER
100
AcDbLine
 10
19.6811154000000101
 20
42.6040500000000009
 30
0.0
 11
19.6811154000000101
 21
43.5244500000000016
 31
0.0
  0
LINE
  5
150
100
AcDbEntity
  8
0
 62
0
370
-1
 48
1.0
  6
BYLAYER
100
AcDbLine
 10
19.6811154000000101
 20
43.5244500000000016
 30
0.0
 11
16.3807153999999855
 21
43.5244500000000016
 31
0.0
  0
LINE
  5
151
100
AcDbEntity
  8
0
 62
0
370
-1
 48
1.0
  6
BYLAYER
100
AcDbLine
 10
16.3807153999999855
 20
43.5244500000000016
 30
0.0
 11
16.3807153999999855
 21
42.6040500000000009
 31
0.0
  0
LINE
  5
152
100
AcDbEntity
  8
0
 62
0
370
-1
 48
1.0
  6
BYLAYER
100
AcDbLine
 10
327.527849999999944
 20
107.1890242532228683
 30
0.0
 11
327.5768499999999221
 21
107.497024253222861
 31
0.0
  0
LINE
  5
153
100
AcDbEntity
  8
0
 62
0
370
-1
 48
1.0
  6
BYLAYER
100
AcDbLine
 10
166.6158499999999378
 20
107.1889499999999487
 30
0.0
 11
166.664849999999916
 21
107.4969499999999414
 31
0.0
  0
LINE
  5
154
100
AcDbEntity
  8
0
 62
0
370
-1
 48
1.0
  6
BYLAYER
100
AcDbLine
 10
5.7011409352658138
 20
107.1889499999999344
 30
0.0
 11
5.750140935265792
 21
107.4969499999999272
 31
0.0
  0
LINE
  5
155
100
AcDbEntity
  8
0
 62
0
370
-1
 48
1.0
  6
BYLAYER
100
AcDbLine
 10
327.5278259597687907
 20
4.4392499999999586
 30
0.0
 11
327.5768259597687688
 21
4.7472499999999513
 31
0.0
  0
LINE
  5
156
100
AcDbEntity
  8
0
 62
0
370
-1
 48
1.0
  6
BYLAYER
100
AcDbLine
 10
166.6158499999999378
 20
4.4392643912647713
 30
0.0
 11
166.664849999999916
 21
4.7472643912647641
 31
0.0
  0
LINE
  5
157
100
AcDbEntity
  8
0
 62
0
370
-1
 48
1.0
  6
BYLAYER
100
AcDbLine
 10
5.701140935265812
 20
4.4392551662285342
 30
0.0
 11
5.7501409352657902
 21
4.7472551662285269
 31
0.0
  0
LINE
  5
158
100
AcDbEntity
  8
0
 62
0
370
-1
 48
1.0
  6
BYLAYER
100
AcDbLine
 10
16.3807153999999855
 20
42.6040500000000009
 30
0.0
 11
14.6568153999999709
 21
42.6040500000000009
 31
0.0
  0
LINE
  5
159
100
AcDbEntity
  8
0
 62
0
370
-1
 48
1.0
  6
BYLAYER
100
AcDbLine
 10
14.6568153999999709
 20
42.6040500000000009
 30
0.0
 11
14.6568153999999709
 21
39.3750500000000159
 31
0.0
  0
LINE
  5
15A
100
AcDbEntity
  8
0
 62
0
370
-1
 48
1.0
  6
BYLAYER
100
AcDbLine
 10
14.6568153999999709
 20
39.3750500000000159
 30
0.0
 11
13.8314153999999689
 21
39.3750500000000159
 31
0.0
  0
LINE
  5
15B
100
AcDbEntity
  8
0
 62
0
370
-1
 48
1.0
  6
BYLAYER
100
AcDbLine
 10
13.8314153999999689
 20
39.3750500000000159
 30
0.0
 11
13.8314153999999689
 21
36.5750500000000045
 31
0.0
  0
LINE
  5
15C
100
AcDbEntity
  8
0
 62
0
370
-1
 48
1.0
  6
BYLAYER
100
AcDbLine
 10
13.8314153999999689
 20
36.5750500000000045
 30
0.0
 11
14.6568153999999709
 21
36.5750500000000045
 31
0.0
  0
LINE
  5
15D
100
AcDbEntity
  8
0
 62
0
370
-1
 48
1.0
  6
BYLAYER
100
AcDbLine
 10
14.6568153999999709
 20
36.5750500000000045
 30
0.0
 11
14.6568153999999709
 21
30.304949999999991
 31
0.0
  0
LINE
  5
15E
100
AcDbEntity
  8
0
 62
0
370
-1
 48
1.0
  6
BYLAYER
100
AcDbLine
 10
327.5768499999999221
 20
107.497024253222861
 30
0.0
 11
327.527849999999944
 21
107.8070242532228633
 31
0.0
  0
LINE
  5
15F
100
AcDbEntity
  8
0
 62
0
370
-1
 48
1.0
  6
BYLAYER
100
AcDbLine
 10
166.664849999999916
 20
107.4969499999999414
 30
0.0
 11
166.6158499999999378
 21
107.8069499999999437
 31
0.0
  0
LINE
  5
160
100
AcDbEntity
  8
0
 62
0
370
-1
 48
1.0
  6
BYLAYER
100
AcDbLine
 10
5.750140935265792
 20
107.4969499999999272
 30
0.0
 11
5.7011409352658138
 21
107.8069499999999294
 31
0.0
  0
LINE
  5
161
100
AcDbEntity
  8
0
 62
0
370
-1
 48
1.0
  6
BYLAYER
100
AcDbLine
 10
327.5768259597687688
 20
4.7472499999999513
 30
0.0
 11
327.5278259597687907
 21
5.0572499999999536
 31
0.0
  0
LINE
  5
162
100
AcDbEntity
  8
0
 62
0
370
-1
 48
1.0
  6
BYLAYER
100
AcDbLine
 10
166.664849999999916
 20
4.7472643912647641
 30
0.0
 11
166.6158499999999378
 21
5.0572643912647663
 31
0.0
  0
LINE
  5
163
100
AcDbEntity
  8
0
 62
0
370
-1
 48
1.0
  6
BYLAYER
100
AcDbLine
 10
5.7501409352657902
 20
4.7472551662285269
 30
0.0
 11
5.701140935265812
 21
5.0572551662285292
 31
0.0
  0
LINE
  5
164
100
AcDbEntity
  8
0
 62
0
370
-1
 48
1.0
  6
BYLAYER
100
AcDbLine
 10
14.6568153999999709
 20
30.304949999999991
 30
0.0
 11
16.3807153999999855
 21
30.304949999999991
 31
0.0
  0
LINE
  5
165
100
AcDbEntity
  8
0
 62
0
370
-1
 48
1.0
  6
BYLAYER
100
AcDbLine
 10
16.3807153999999855
 20
30.304949999999991
 30
0.0
 11
16.3807153999999855
 21
29.3251500000000078
 31
0.0
  0
LINE
  5
166
100
AcDbEntity
  8
0
 62
0
370
-1
 48
1.0
  6
BYLAYER
100
AcDbLine
 10
16.3807153999999855
 20
29.3251500000000078
 30
0.0
 11
19.6811154000000101
 21
29.3251500000000078
 31
0.0
  0
LINE
  5
167
100
AcDbEntity
  8
0
 62
0
370
-1
 48
1.0
  6
BYLAYER
100
AcDbLine
 10
19.6811154000000101
 20
29.3251500000000078
 30
0.0
 11
19.6811154000000101
 21
30.304949999999991
 31
0.0
  0
LINE
  5
168
100
AcDbEntity
  8
0
 62
0
370
-1
 48
1.0
  6
BYLAYER
100
AcDbLine
 10
19.6811154000000101
 20
30.304949999999991
 30
0.0
 11
21.4064154000000144
 21
30.304949999999991
 31
0.0
  0
LINE
  5
169
100
AcDbEntity
  8
0
 62
0
370
-1
 48
1.0
  6
BYLAYER
100
AcDbLine
 10
21.4064154000000144
 20
30.304949999999991
 30
0.0
 11
21.4064154000000144
 21
34.7739500000000135
 31
0.0
  0
LINE
  5
16A
100
AcDbEntity
  8
0
 62
0
370
-1
 48
1.0
  6
BYLAYER
100
AcDbLine
 10
327.527849999999944
 20
107.8070242532228633
 30
0.0
 11
327.3868499999999813
 21
108.0860242532228597
 31
0.0
  0
LINE
  5
16B
100
AcDbEntity
  8
0
 62
0
370
-1
 48
1.0
  6
BYLAYER
100
AcDbLine
 10
166.6158499999999378
 20
107.8069499999999437
 30
0.0
 11
166.4748499999999751
 21
108.08594999999994
 31
0.0
  0
LINE
  5
16C
100
AcDbEntity
  8
0
 62
0
370
-1
 48
1.0
  6
BYLAYER
100
AcDbLine
 10
5.7011409352658138
 20
107.8069499999999294
 30
0.0
 11
5.5601409352658511
 21
108.0859499999999258
 31
0.0
  0
LINE
  5
16D
100
AcDbEntity
  8
0
 62
0
370
-1
 48
1.0
  6
BYLAYER
100
AcDbLine
 10
327.5278259597687907
 20
5.0572499999999536
 30
0.0
 11
327.3868259597688279
 21
5.33624999999995
 31
0.0
  0
LINE
  5
16E
100
AcDbEntity
  8
0
 62
0
370
-1
 48
1.0
  6
BYLAYER
100
AcDbLine
 10
166.6158499999999378
 20
5.0572643912647663
 30
0.0
 11
166.4748499999999751
 21
5.3362643912647627
 31
0.0
  0
LINE
  5
16F
100
AcDbEntity
  8
0
 62
0
370
-1
 48
1.0
  6
BYLAYER
100
AcDbLine
 10
5.701140935265812
 20
5.0572551662285292
 30
0.0
 11
5.5601409352658493
 21
5.3362551662285256
 31
0.0
  0
LINE
  5
170
100
AcDbEntity
  8
0
 62
0
370
-1
 48
1.0
  6
BYLAYER
100
AcDbLine
 10
21.4064154000000144
 20
34.7739500000000135
 30
0.0
 11
22.9319153999999799
 21
34.7739500000000135
 31
0.0
  0
LINE
  5
171
100
AcDbEntity
  8
0
 62
0
370
-1
 48
1.0
  6
BYLAYER
100
AcDbLine
 10
22.9319153999999799
 20
34.7739500000000135
 30
0.0
 11
22.9319153999999799
 21
30.0748499999999979
 31
0.0
  0
LINE
  5
172
100
AcDbEntity
  8
0
 62
0
370
-1
 48
1.0
  6
BYLAYER
100
AcDbLine
 10
22.9319153999999799
 20
30.0748499999999979
 30
0.0
 11
36.9314153999999917
 21
30.0748499999999979
 31
0.0
  0
LINE
  5
173
100
AcDbEntity
  8
0
 62
0
370
-1
 48
1.0
  6
BYLAYER
100
AcDbLine
 10
36.9314153999999917
 20
30.0748499999999979
 30
0.0
 11
36.9314153999999917
 21
34.7739500000000135
 31
0.0
  0
LINE
  5
174
100
AcDbEntity
  8
0
 62
0
370
-1
 48
1.0
  6
BYLAYER
100
AcDbLine
 10
36.9314153999999917
 20
34.7739500000000135
 30
0.0
 11
38.4568153999999822
 21
34.7739500000000135
 31
0.0
  0
LINE
  5
175
100
AcDbEntity
  8
0
 62
0
370
-1
 48
1.0
  6
BYLAYER
100
AcDbLine
 10
38.4568153999999822
 20
34.7739500000000135
 30
0.0
 11
38.4568153999999822
 21
30.304949999999991
 31
0.0
  0
LINE
  5
176
100
AcDbEntity
  8
0
 62
0
370
-1
 48
1.0
  6
BYLAYER
100
AcDbLine
 10
327.3868499999999813
 20
108.0860242532228597
 30
0.0
 11
327.1648500000000013
 21
108.3080242532228397
 31
0.0
  0
LINE
  5
177
100
AcDbEntity
  8
0
 62
0
370
-1
 48
1.0
  6
BYLAYER
100
AcDbLine
 10
166.4748499999999751
 20
108.08594999999994
 30
0.0
 11
166.2528499999999951
 21
108.30794999999992
 31
0.0
  0
LINE
  5
178
100
AcDbEntity
  8
0
 62
0
370
-1
 48
1.0
  6
BYLAYER
100
AcDbLine
 10
5.5601409352658511
 20
108.0859499999999258
 30
0.0
 11
5.3381409352658711
 21
108.3079499999999058
 31
0.0
  0
LINE
  5
179
100
AcDbEntity
  8
0
 62
0
370
-1
 48
1.0
  6
BYLAYER
100
AcDbLine
 10
327.3868259597688279
 20
5.33624999999995
 30
0.0
 11
327.164825959768848
 21
5.5582499999999584
 31
0.0
  0
LINE
  5
17A
100
AcDbEntity
  8
0
 62
0
370
-1
 48
1.0
  6
BYLAYER
100
AcDbLine
 10
166.4748499999999751
 20
5.3362643912647627
 30
0.0
 11
166.2528499999999951
 21
5.5582643912647711
 31
0.0
  0
LINE
  5
17B
100
AcDbEntity
  8
0
 62
0
370
-1
 48
1.0
  6
BYLAYER
100
AcDbLine
 10
5.5601409352658493
 20
5.3362551662285256
 30
0.0
 11
5.3381409352658693
 21
5.558255166228534
 31
0.0
  0
LINE
  5
17C
100
AcDbEntity
  8
0
 62
0
370
-1
 48
1.0
  6
BYLAYER
100
AcDbLine
 10
38.4568153999999822
 20
30.304949999999991
 30
0.0
 11
40.1808153999999718
 21
30.304949999999991
 31
0.0
  0
LINE
  5
17D
100
AcDbEntity
  8
0
 62
0
370
-1
 48
1.0
  6
BYLAYER
100
AcDbLine
 10
40.1808153999999718
 20
30.304949999999991
 30
0.0
 11
40.1808153999999718
 21
29.3251500000000078
 31
0.0
  0
LINE
  5
17E
100
AcDbEntity
  8
0
 62
0
370
-1
 48
1.0
  6
BYLAYER
100
AcDbLine
 10
40.1808153999999718
 20
29.3251500000000078
 30
0.0
 11
43.4811153999999647
 21
29.3251500000000078
 31
0.0
  0
LINE
  5
17F
100
AcDbEntity
  8
0
 62
0
370
-1
 48
1.0
  6
BYLAYER
100
AcDbLine
 10
43.4811153999999647
 20
29.3251500000000078
 30
0.0
 11
43.4811153999999647
 21
30.304949999999991
 31
0.0
  0
LINE
  5
180
100
AcDbEntity
  8
0
 62
0
370
-1
 48
1.0
  6
BYLAYER
100
AcDbLine
 10
43.4811153999999647
 20
30.304949999999991
 30
0.0
 11
45.2065154000000007
 21
30.304949999999991
 31
0.0
  0
LINE
  5
181
100
AcDbEntity
  8
0
 62
0
370
-1
 48
1.0
  6
BYLAYER
100
AcDbLine
 10
45.2065154000000007
 20
30.304949999999991
 30
0.0
 11
45.2065154000000007
 21
36.5750500000000045
 31
0.0
  0
LINE
  5
182
100
AcDbEntity
  8
0
 62
0
370
-1
 48
1.0
  6
BYLAYER
100
AcDbLine
 10
327.1648500000000013
 20
108.3080242532228397
 30
0.0
 11
326.8858500000000049
 21
108.4490242532228592
 31
0.0
  0
LINE
  5
183
100
AcDbEntity
  8
0
 62
0
370
-1
 48
1.0
  6
BYLAYER
100
AcDbLine
 10
166.2528499999999951
 20
108.30794999999992
 30
0.0
 11
165.9738499999999988
 21
108.4489499999999396
 31
0.0
  0
LINE
  5
184
100
AcDbEntity
  8
0
 62
0
370
-1
 48
1.0
  6
BYLAYER
100
AcDbLine
 10
5.3381409352658711
 20
108.3079499999999058
 30
0.0
 11
5.0591409352658747
 21
108.4489499999999254
 31
0.0
  0
LINE
  5
185
100
AcDbEntity
  8
0
 62
0
370
-1
 48
1.0
  6
BYLAYER
100
AcDbLine
 10
327.164825959768848
 20
5.5582499999999584
 30
0.0
 11
326.8858259597688516
 21
5.6992499999999495
 31
0.0
  0
LINE
  5
186
100
AcDbEntity
  8
0
 62
0
370
-1
 48
1.0
  6
BYLAYER
100
AcDbLine
 10
166.2528499999999951
 20
5.5582643912647711
 30
0.0
 11
165.9738499999999988
 21
5.6992643912647623
 31
0.0
  0
LINE
  5
187
100
AcDbEntity
  8
0
 62
0
370
-1
 48
1.0
  6
BYLAYER
100
AcDbLine
 10
5.3381409352658693
 20
5.558255166228534
 30
0.0
 11
5.0591409352658729
 21
5.6992551662285251
 31
0.0
  0
LINE
  5
188
100
AcDbEntity
  8
0
 62
0
370
-1
 48
1.0
  6
BYLAYER
100
AcDbLine
 10
45.2065154000000007
 20
36.5750500000000045
 30
0.0
 11
46.0320153999999775
 21
36.5750500000000045
 31
0.0
  0
LINE
  5
189
100
AcDbEntity
  8
0
 62
0
370
-1
 48
1.0
  6
BYLAYER
100
AcDbLine
 10
46.0320153999999775
 20
36.5750500000000045
 30
0.0
 11
46.0320153999999775
 21
39.3750500000000159
 31
0.0
  0
LINE
  5
18A
100
AcDbEntity
  8
0
 62
0
370
-1
 48
1.0
  6
BYLAYER
100
AcDbLine
 10
46.0320153999999775
 20
39.3750500000000159
 30
0.0
 11
45.2065154000000007
 21
39.3750500000000159
 31
0.0
  0
LINE
  5
18B
100
AcDbEntity
  8
0
 62
0
370
-1
 48
1.0
  6
BYLAYER
100
AcDbLine
 10
45.2065154000000007
 20
39.3750500000000159
 30
0.0
 11
45.2065154000000007
 21
42.6040500000000009
 31
0.0
  0
LINE
  5
18C
100
AcDbEntity
  8
0
 62
0
370
-1
 48
1.0
  6
BYLAYER
100
AcDbLine
 10
45.2065154000000007
 20
42.6040500000000009
 30
0.0
 11
43.4811153999999647
 21
42.6040500000000009
 31
0.0
  0
LINE
  5
18D
100
AcDbEntity
  8
0
 62
0
370
-1
 48
1.0
  6
BYLAYER
100
AcDbLine
 10
43.4811153999999647
 20
42.6040500000000009
 30
0.0
 11
43.4811153999999647
 21
43.5244500000000016
 31
0.0
  0
LINE
  5
18E
100
AcDbEntity
  8
0
 62
0
370
-1
 48
1.0
  6
BYLAYER
100
AcDbLine
 10
326.8858500000000049
 20
108.4490242532228592
 30
0.0
 11
326.5778500000000122
 21
108.4980242532228942
 31
0.0
  0
LINE
  5
18F
100
AcDbEntity
  8
0
 62
0
370
-1
 48
1.0
  6
BYLAYER
100
AcDbLine
 10
165.9738499999999988
 20
108.4489499999999396
 30
0.0
 11
165.665850000000006
 21
108.4979499999999746
 31
0.0
  0
LINE
  5
190
100
AcDbEntity
  8
0
 62
0
370
-1
 48
1.0
  6
BYLAYER
100
AcDbLine
 10
5.0591409352658747
 20
108.4489499999999254
 30
0.0
 11
4.751140935265882
 21
108.4979499999999604
 31
0.0
  0
LINE
  5
191
100
AcDbEntity
  8
0
 62
0
370
-1
 48
1.0
  6
BYLAYER
100
AcDbLine
 10
326.8858259597688516
 20
5.6992499999999495
 30
0.0
 11
326.5778259597688589
 21
5.7482499999999845
 31
0.0
  0
LINE
  5
192
100
AcDbEntity
  8
0
 62
0
370
-1
 48
1.0
  6
BYLAYER
100
AcDbLine
 10
165.9738499999999988
 20
5.6992643912647623
 30
0.0
 11
165.665850000000006
 21
5.7482643912647973
 31
0.0
  0
LINE
  5
193
100
AcDbEntity
  8
0
 62
0
370
-1
 48
1.0
  6
BYLAYER
100
AcDbLine
 10
5.0591409352658729
 20
5.6992551662285251
 30
0.0
 11
4.7511409352658802
 21
5.7482551662285601
 31
0.0
  0
LINE
  5
194
100
AcDbEntity
  8
0
 62
0
370
-1
 48
1.0
  6
BYLAYER
100
AcDbLine
 10
43.4811153999999647
 20
43.5244500000000016
 30
0.0
 11
40.1808153999999718
 21
43.5244500000000016
 31
0.0
  0
LINE
  5
195
100
AcDbEntity
  8
0
 62
0
370
-1
 48
1.0
  6
BYLAYER
100
AcDbLine
 10
40.1808153999999718
 20
43.5244500000000016
 30
0.0
 11
40.1808153999999718
 21
42.6040500000000009
 31
0.0
  0
LINE
  5
196
100
AcDbEntity
  8
0
 62
0
370
-1
 48
1.0
  6
BYLAYER
100
AcDbLine
 10
40.1808153999999718
 20
42.6040500000000009
 30
0.0
 11
38.4568153999999822
 21
42.6040500000000009
 31
0.0
  0
LINE
  5
197
100
AcDbEntity
  8
0
 62
0
370
-1
 48
1.0
  6
BYLAYER
100
AcDbLine
 10
38.4568153999999822
 20
42.6040500000000009
 30
0.0
 11
38.4568153999999822
 21
39.3750500000000159
 31
0.0
  0
LINE
  5
198
100
AcDbEntity
  8
0
 62
0
370
-1
 48
1.0
  6
BYLAYER
100
AcDbLine
 10
38.4568153999999822
 20
39.3750500000000159
 30
0.0
 11
36.9314153999999917
 21
39.3750500000000159
 31
0.0
  0
LINE
  5
199
100
AcDbEntity
  8
0
 62
0
370
-1
 48
1.0
  6
BYLAYER
100
AcDbLine
 10
36.9314153999999917
 20
39.3750500000000159
 30
0.0
 11
36.9314153999999917
 21
44.074450000000013
 31
0.0
  0
LINE
  5
19A
100
AcDbEntity
  8
0
 62
0
370
-1
 48
1.0
  6
BYLAYER
100
AcDbLine
 10
326.5778500000000122
 20
108.4980242532228942
 30
0.0
 11
326.2678499999999531
 21
108.4490242532228592
 31
0.0
  0
LINE
  5
19B
100
AcDbEntity
  8
0
 62
0
370
-1
 48
1.0
  6
BYLAYER
100
AcDbLine
 10
165.665850000000006
 20
108.4979499999999746
 30
0.0
 11
165.3558499999999469
 21
108.4489499999999396
 31
0.0
  0
LINE
  5
19C
100
AcDbEntity
  8
0
 62
0
370
-1
 48
1.0
  6
BYLAYER
100
AcDbLine
 10
4.751140935265882
 20
108.4979499999999604
 30
0.0
 11
4.4411409352658229
 21
108.4489499999999254
 31
0.0
  0
LINE
  5
19D
100
AcDbEntity
  8
0
 62
0
370
-1
 48
1.0
  6
BYLAYER
100
AcDbLine
 10
326.5778259597688589
 20
5.7482499999999845
 30
0.0
 11
326.2678259597687997
 21
5.6992499999999495
 31
0.0
  0
LINE
  5
19E
100
AcDbEntity
  8
0
 62
0
370
-1
 48
1.0
  6
BYLAYER
100
AcDbLine
 10
165.665850000000006
 20
5.7482643912647973
 30
0.0
 11
165.3558499999999469
 21
5.6992643912647623
 31
0.0
  0
LINE
  5
19F
100
AcDbEntity
  8
0
 62
0
370
-1
 48
1.0
  6
BYLAYER
100
AcDbLine
 10
4.7511409352658802
 20
5.7482551662285601
 30
0.0
 11
4.4411409352658211
 21
5.6992551662285251
 31
0.0
  0
LINE
  5
1A0
100
AcDbEntity
  8
0
 62
0
370
-1
 48
1.0
  6
BYLAYER
100
AcDbLine
 10
36.9314153999999917
 20
44.074450000000013
 30
0.0
 11
22.9319153999999799
 21
44.074450000000013
 31
0.0
  0
LINE
  5
1A1
100
AcDbEntity
  8
0
 62
0
370
-1
 48
1.0
  6
BYLAYER
100
AcDbLine
 10
256.2929153999998562
 20
44.074450000000013
 30
0.0
 11
256.2929153999998562
 21
39.3750500000000159
 31
0.0
  0
LINE
  5
1A2
100
AcDbEntity
  8
0
 62
0
370
-1
 48
1.0
  6
BYLAYER
100
AcDbLine
 10
256.2929153999998562
 20
39.3750500000000159
 30
0.0
 11
254.7679153999999926
 21
39.3750500000000159
 31
0.0
  0
LINE
  5
1A3
100
AcDbEntity
  8
0
 62
0
370
-1
 48
1.0
  6
BYLAYER
100
AcDbLine
 10
254.7679153999999926
 20
39.3750500000000159
 30
0.0
 11
254.7679153999999926
 21
42.6040500000000009
 31
0.0
  0
LINE
  5
1A4
100
AcDbEntity
  8
0
 62
0
370
-1
 48
1.0
  6
BYLAYER
100
AcDbLine
 10
254.7679153999999926
 20
42.6040500000000009
 30
0.0
 11
253.0439154000000599
 21
42.6040500000000009
 31
0.0
  0
LINE
  5
1A5
100
AcDbEntity
  8
0
 62
0
370
-1
 48
1.0
  6
BYLAYER
100
AcDbLine
 10
253.0439154000000599
 20
42.6040500000000009
 30
0.0
 11
253.0439154000000599
 21
43.5244500000000016
 31
0.0
  0
LINE
  5
1A6
100
AcDbEntity
  8
0
 62
0
370
-1
 48
1.0
  6
BYLAYER
100
AcDbLine
 10
253.0439154000000599
 20
43.5244500000000016
 30
0.0
 11
249.7429153999999016
 21
43.5244500000000016
 31
0.0
  0
LINE
  5
1A7
100
AcDbEntity
  8
0
 62
0
370
-1
 48
1.0
  6
BYLAYER
100
AcDbLine
 10
249.7429153999999016
 20
43.5244500000000016
 30
0.0
 11
249.7429153999999016
 21
42.6040500000000009
 31
0.0
  0
LINE
  5
1A8
100
AcDbEntity
  8
0
 62
0
370
-1
 48
1.0
  6
BYLAYER
100
AcDbLine
 10
249.7429153999999016
 20
42.6040500000000009
 30
0.0
 11
248.0179153999999926
 21
42.6040500000000009
 31
0.0
  0
LINE
  5
1A9
100
AcDbEntity
  8
0
 62
0
370
-1
 48
1.0
  6
BYLAYER
100
AcDbLine
 10
248.0179153999999926
 20
42.6040500000000009
 30
0.0
 11
248.0179153999999926
 21
39.3750500000000159
 31
0.0
  0
LINE
  5
1AA
100
AcDbEntity
  8
0
 62
0
370
-1
 48
1.0
  6
BYLAYER
100
AcDbLine
 10
248.0179153999999926
 20
39.3750500000000159
 30
0.0
 11
247.1939153999999235
 21
39.3750500000000159
 31
0.0
  0
LINE
  5
1AB
100
AcDbEntity
  8
0
 62
0
370
-1
 48
1.0
  6
BYLAYER
100
AcDbLine
 10
247.1939153999999235
 20
39.3750500000000159
 30
0.0
 11
247.1939153999999235
 21
36.5750500000000045
 31
0.0
  0
LINE
  5
1AC
100
AcDbEntity
  8
0
 62
0
370
-1
 48
1.0
  6
BYLAYER
100
AcDbLine
 10
247.1939153999999235
 20
36.5750500000000045
 30
0.0
 11
248.0179153999999926
 21
36.5750500000000045
 31
0.0
  0
LINE
  5
1AD
100
AcDbEntity
  8
0
 62
0
370
-1
 48
1.0
  6
BYLAYER
100
AcDbLine
 10
248.0179153999999926
 20
36.5750500000000045
 30
0.0
 11
248.0179153999999926
 21
30.304949999999991
 31
0.0
  0
LINE
  5
1AE
100
AcDbEntity
  8
0
 62
0
370
-1
 48
1.0
  6
BYLAYER
100
AcDbLine
 10
248.0179153999999926
 20
30.304949999999991
 30
0.0
 11
249.7429153999999016
 21
30.304949999999991
 31
0.0
  0
LINE
  5
1AF
100
AcDbEntity
  8
0
 62
0
370
-1
 48
1.0
  6
BYLAYER
100
AcDbLine
 10
249.7429153999999016
 20
30.304949999999991
 30
0.0
 11
249.7429153999999016
 21
29.3251500000000078
 31
0.0
  0
LINE
  5
1B0
100
AcDbEntity
  8
0
 62
0
370
-1
 48
1.0
  6
BYLAYER
100
AcDbLine
 10
249.7429153999999016
 20
29.3251500000000078
 30
0.0
 11
253.0439154000000599
 21
29.3251500000000078
 31
0.0
  0
LINE
  5
1B1
100
AcDbEntity
  8
0
 62
0
370
-1
 48
1.0
  6
BYLAYER
100
AcDbLine
 10
253.0439154000000599
 20
29.3251500000000078
 30
0.0
 11
253.0439154000000599
 21
30.304949999999991
 31
0.0
  0
LINE
  5
1B2
100
AcDbEntity
  8
0
 62
0
370
-1
 48
1.0
  6
BYLAYER
100
AcDbLine
 10
253.0439154000000599
 20
30.304949999999991
 30
0.0
 11
254.7679153999999926
 21
30.304949999999991
 31
0.0
  0
LINE
  5
1B3
100
AcDbEntity
  8
0
 62
0
370
-1
 48
1.0
  6
BYLAYER
100
AcDbLine
 10
254.7679153999999926
 20
30.304949999999991
 30
0.0
 11
254.7679153999999926
 21
34.7739500000000135
 31
0.0
  0
LINE
  5
1B4
100
AcDbEntity
  8
0
 62
0
370
-1
 48
1.0
  6
BYLAYER
100
AcDbLine
 10
254.7679153999999926
 20
34.7739500000000135
 30
0.0
 11
256.2929153999998562
 21
34.7739500000000135
 31
0.0
  0
LINE
  5
1B5
100
AcDbEntity
  8
0
 62
0
370
-1
 48
1.0
  6
BYLAYER
100
AcDbLine
 10
256.2929153999998562
 20
34.7739500000000135
 30
0.0
 11
256.2929153999998562
 21
30.0748499999999979
 31
0.0
  0
LINE
  5
1B6
100
AcDbEntity
  8
0
 62
0
370
-1
 48
1.0
  6
BYLAYER
100
AcDbLine
 10
256.2929153999998562
 20
30.0748499999999979
 30
0.0
 11
270.2939154000000599
 21
30.0748499999999979
 31
0.0
  0
LINE
  5
1B7
100
AcDbEntity
  8
0
 62
0
370
-1
 48
1.0
  6
BYLAYER
100
AcDbLine
 10
270.2939154000000599
 20
30.0748499999999979
 30
0.0
 11
270.2939154000000599
 21
34.7739500000000135
 31
0.0
  0
LINE
  5
1B8
100
AcDbEntity
  8
0
 62
0
370
-1
 48
1.0
  6
BYLAYER
100
AcDbLine
 10
270.2939154000000599
 20
34.7739500000000135
 30
0.0
 11
271.8179153999999471
 21
34.7739500000000135
 31
0.0
  0
LINE
  5
1B9
100
AcDbEntity
  8
0
 62
0
370
-1
 48
1.0
  6
BYLAYER
100
AcDbLine
 10
271.8179153999999471
 20
34.7739500000000135
 30
0.0
 11
271.8179153999999471
 21
30.304949999999991
 31
0.0
  0
LINE
  5
1BA
100
AcDbEntity
  8
0
 62
0
370
-1
 48
1.0
  6
BYLAYER
100
AcDbLine
 10
271.8179153999999471
 20
30.304949999999991
 30
0.0
 11
273.5429153999998562
 21
30.304949999999991
 31
0.0
  0
LINE
  5
1BB
100
AcDbEntity
  8
0
 62
0
370
-1
 48
1.0
  6
BYLAYER
100
AcDbLine
 10
273.5429153999998562
 20
30.304949999999991
 30
0.0
 11
273.5429153999998562
 21
29.3251500000000078
 31
0.0
  0
LINE
  5
1BC
100
AcDbEntity
  8
0
 62
0
370
-1
 48
1.0
  6
BYLAYER
100
AcDbLine
 10
273.5429153999998562
 20
29.3251500000000078
 30
0.0
 11
276.8439154000000144
 21
29.3251500000000078
 31
0.0
  0
LINE
  5
1BD
100
AcDbEntity
  8
0
 62
0
370
-1
 48
1.0
  6
BYLAYER
100
AcDbLine
 10
276.8439154000000144
 20
29.3251500000000078
 30
0.0
 11
276.8439154000000144
 21
30.304949999999991
 31
0.0
  0
LINE
  5
1BE
100
AcDbEntity
  8
0
 62
0
370
-1
 48
1.0
  6
BYLAYER
100
AcDbLine
 10
276.8439154000000144
 20
30.304949999999991
 30
0.0
 11
278.5689153999999235
 21
30.304949999999991
 31
0.0
  0
LINE
  5
1BF
100
AcDbEntity
  8
0
 62
0
370
-1
 48
1.0
  6
BYLAYER
100
AcDbLine
 10
278.5689153999999235
 20
30.304949999999991
 30
0.0
 11
278.5689153999999235
 21
36.5750500000000045
 31
0.0
  0
LINE
  5
1C0
100
AcDbEntity
  8
0
 62
0
370
-1
 48
1.0
  6
BYLAYER
100
AcDbLine
 10
278.5689153999999235
 20
36.5750500000000045
 30
0.0
 11
279.3929153999999926
 21
36.5750500000000045
 31
0.0
  0
LINE
  5
1C1
100
AcDbEntity
  8
0
 62
0
370
-1
 48
1.0
  6
BYLAYER
100
AcDbLine
 10
279.3929153999999926
 20
36.5750500000000045
 30
0.0
 11
279.3929153999999926
 21
39.3750500000000159
 31
0.0
  0
LINE
  5
1C2
100
AcDbEntity
  8
0
 62
0
370
-1
 48
1.0
  6
BYLAYER
100
AcDbLine
 10
279.3929153999999926
 20
39.3750500000000159
 30
0.0
 11
278.5689153999999235
 21
39.3750500000000159
 31
0.0
  0
LINE
  5
1C3
100
AcDbEntity
  8
0
 62
0
370
-1
 48
1.0
  6
BYLAYER
100
AcDbLine
 10
278.5689153999999235
 20
39.3750500000000159
 30
0.0
 11
278.5689153999999235
 21
42.6040500000000009
 31
0.0
  0
LINE
  5
1C4
100
AcDbEntity
  8
0
 62
0
370
-1
 48
1.0
  6
BYLAYER
100
AcDbLine
 10
278.5689153999999235
 20
42.6040500000000009
 30
0.0
 11
276.8439154000000144
 21
42.6040500000000009
 31
0.0
  0
LINE
  5
1C5
100
AcDbEntity
  8
0
 62
0
370
-1
 48
1.0
  6
BYLAYER
100
AcDbLine
 10
276.8439154000000144
 20
42.6040500000000009
 30
0.0
 11
276.8439154000000144
 21
43.5244500000000016
 31
0.0
  0
LINE
  5
1C6
100
AcDbEntity
  8
0
 62
0
370
-1
 48
1.0
  6
BYLAYER
100
AcDbLine
 10
276.8439154000000144
 20
43.5244500000000016
 30
0.0
 11
273.5429153999998562
 21
43.5244500000000016
 31
0.0
  0
LINE
  5
1C7
100
AcDbEntity
  8
0
 62
0
370
-1
 48
1.0
  6
BYLAYER
100
AcDbLine
 10
273.5429153999998562
 20
43.5244500000000016
 30
0.0
 11
273.5429153999998562
 21
42.6040500000000009
 31
0.0
  0
LINE
  5
1C8
100
AcDbEntity
  8
0
 62
0
370
-1
 48
1.0
  6
BYLAYER
100
AcDbLine
 10
273.5429153999998562
 20
42.6040500000000009
 30
0.0
 11
271.8179153999999471
 21
42.6040500000000009
 31
0.0
  0
LINE
  5
1C9
100
AcDbEntity
  8
0
 62
0
370
-1
 48
1.0
  6
BYLAYER
100
AcDbLine
 10
271.8179153999999471
 20
42.6040500000000009
 30
0.0
 11
271.8179153999999471
 21
39.3750500000000159
 31
0.0
  0
LINE
  5
1CA
100
AcDbEntity
  8
0
 62
0
370
-1
 48
1.0
  6
BYLAYER
100
AcDbLine
 10
271.8179153999999471
 20
39.3750500000000159
 30
0.0
 11
270.2939154000000599
 21
39.3750500000000159
 31
0.0
  0
LINE
  5
1CB
100
AcDbEntity
  8
0
 62
0
370
-1
 48
1.0
  6
BYLAYER
100
AcDbLine
 10
270.2939154000000599
 20
39.3750500000000159
 30
0.0
 11
270.2939154000000599
 21
44.074450000000013
 31
0.0
  0
LINE
  5
1CC
100
AcDbEntity
  8
0
 62
0
370
-1
 48
1.0
  6
BYLAYER
100
AcDbLine
 10
270.2939154000000599
 20
44.074450000000013
 30
0.0
 11
256.2929153999998562
 21
44.074450000000013
 31
0.0
  0
LINE
  5
1CD
100
AcDbEntity
  8
0
 62
0
370
-1
 48
1.0
  6
BYLAYER
100
AcDbLine
 10
53.8870153999999957
 20
44.074450000000013
 30
0.0
 11
67.8876153999999588
 21
44.074450000000013
 31
0.0
  0
LINE
  5
1CE
100
AcDbEntity
  8
0
 62
0
370
-1
 48
1.0
  6
BYLAYER
100
AcDbLine
 10
67.8876153999999588
 20
44.074450000000013
 30
0.0
 11
67.8876153999999588
 21
30.0748499999999979
 31
0.0
  0
LINE
  5
1CF
100
AcDbEntity
  8
0
 62
0
370
-1
 48
1.0
  6
BYLAYER
100
AcDbLine
 10
67.8876153999999588
 20
30.0748499999999979
 30
0.0
 11
53.8870153999999957
 21
30.0748499999999979
 31
0.0
  0
LINE
  5
1D0
100
AcDbEntity
  8
0
 62
0
370
-1
 48
1.0
  6
BYLAYER
100
AcDbLine
 10
53.8870153999999957
 20
30.0748499999999979
 30
0.0
 11
53.8870153999999957
 21
44.074450000000013
 31
0.0
  0
LINE
  5
1D1
100
AcDbEntity
  8
0
 62
0
370
-1
 48
1.0
  6
BYLAYER
100
AcDbLine
 10
72.9370154000000639
 20
44.074450000000013
 30
0.0
 11
86.9376153999999133
 21
44.074450000000013
 31
0.0
  0
LINE
  5
1D2
100
AcDbEntity
  8
0
 62
0
370
-1
 48
1.0
  6
BYLAYER
100
AcDbLine
 10
86.9376153999999133
 20
44.074450000000013
 30
0.0
 11
86.9376153999999133
 21
30.0748499999999979
 31
0.0
  0
LINE
  5
1D3
100
AcDbEntity
  8
0
 62
0
370
-1
 48
1.0
  6
BYLAYER
100
AcDbLine
 10
86.9376153999999133
 20
30.0748499999999979
 30
0.0
 11
72.9370154000000639
 21
30.0748499999999979
 31
0.0
  0
LINE
  5
1D4
100
AcDbEntity
  8
0
 62
0
370
-1
 48
1.0
  6
BYLAYER
100
AcDbLine
 10
72.9370154000000639
 20
30.0748499999999979
 30
0.0
 11
72.9370154000000639
 21
44.074450000000013
 31
0.0
  0
LINE
  5
1D5
100
AcDbEntity
  8
0
 62
0
370
-1
 48
1.0
  6
BYLAYER
100
AcDbLine
 10
91.9870154000000184
 20
44.074450000000013
 30
0.0
 11
105.9879154000000199
 21
44.074450000000013
 31
0.0
  0
LINE
  5
1D6
100
AcDbEntity
  8
0
 62
0
370
-1
 48
1.0
  6
BYLAYER
100
AcDbLine
 10
105.9879154000000199
 20
44.074450000000013
 30
0.0
 11
105.9879154000000199
 21
30.0748499999999979
 31
0.0
  0
LINE
  5
1D7
100
AcDbEntity
  8
0
 62
0
370
-1
 48
1.0
  6
BYLAYER
100
AcDbLine
 10
105.9879154000000199
 20
30.0748499999999979
 30
0.0
 11
91.9870154000000184
 21
30.0748499999999979
 31
0.0
  0
LINE
  5
1D8
100
AcDbEntity
  8
0
 62
0
370
-1
 48
1.0
  6
BYLAYER
100
AcDbLine
 10
91.9870154000000184
 20
30.0748499999999979
 30
0.0
 11
91.9870154000000184
 21
44.074450000000013
 31
0.0
  0
LINE
  5
1D9
100
AcDbEntity
  8
0
 62
0
370
-1
 48
1.0
  6
BYLAYER
100
AcDbLine
 10
111.036915399999998
 20
44.074450000000013
 30
0.0
 11
125.0379153999999744
 21
44.074450000000013
 31
0.0
  0
LINE
  5
1DA
100
AcDbEntity
  8
0
 62
0
370
-1
 48
1.0
  6
BYLAYER
100
AcDbLine
 10
125.0379153999999744
 20
44.074450000000013
 30
0.0
 11
125.0379153999999744
 21
30.0748499999999979
 31
0.0
  0
LINE
  5
1DB
100
AcDbEntity
  8
0
 62
0
370
-1
 48
1.0
  6
BYLAYER
100
AcDbLine
 10
125.0379153999999744
 20
30.0748499999999979
 30
0.0
 11
111.036915399999998
 21
30.0748499999999979
 31
0.0
  0
LINE
  5
1DC
100
AcDbEntity
  8
0
 62
0
370
-1
 48
1.0
  6
BYLAYER
100
AcDbLine
 10
111.036915399999998
 20
30.0748499999999979
 30
0.0
 11
111.036915399999998
 21
44.074450000000013
 31
0.0
  0
LINE
  5
1DD
100
AcDbEntity
  8
0
 62
0
370
-1
 48
1.0
  6
BYLAYER
100
AcDbLine
 10
130.0869153999999526
 20
44.074450000000013
 30
0.0
 11
144.0879153999999289
 21
44.074450000000013
 31
0.0
  0
LINE
  5
1DE
100
AcDbEntity
  8
0
 62
0
370
-1
 48
1.0
  6
BYLAYER
100
AcDbLine
 10
144.0879153999999289
 20
44.074450000000013
 30
0.0
 11
144.0879153999999289
 21
30.0748499999999979
 31
0.0
  0
LINE
  5
1DF
100
AcDbEntity
  8
0
 62
0
370
-1
 48
1.0
  6
BYLAYER
100
AcDbLine
 10
144.0879153999999289
 20
30.0748499999999979
 30
0.0
 11
130.0869153999999526
 21
30.0748499999999979
 31
0.0
  0
LINE
  5
1E0
100
AcDbEntity
  8
0
 62
0
370
-1
 48
1.0
  6
BYLAYER
100
AcDbLine
 10
130.0869153999999526
 20
30.0748499999999979
 30
0.0
 11
130.0869153999999526
 21
44.074450000000013
 31
0.0
  0
LINE
  5
1E1
100
AcDbEntity
  8
0
 62
0
370
-1
 48
1.0
  6
BYLAYER
100
AcDbLine
 10
149.1369153999999071
 20
44.074450000000013
 30
0.0
 11
163.1379153999998834
 21
44.074450000000013
 31
0.0
  0
LINE
  5
1E2
100
AcDbEntity
  8
0
 62
0
370
-1
 48
1.0
  6
BYLAYER
100
AcDbLine
 10
163.1379153999998834
 20
44.074450000000013
 30
0.0
 11
163.1379153999998834
 21
30.0748499999999979
 31
0.0
  0
LINE
  5
1E3
100
AcDbEntity
  8
0
 62
0
370
-1
 48
1.0
  6
BYLAYER
100
AcDbLine
 10
163.1379153999998834
 20
30.0748499999999979
 30
0.0
 11
149.1369153999999071
 21
30.0748499999999979
 31
0.0
  0
LINE
  5
1E4
100
AcDbEntity
  8
0
 62
0
370
-1
 48
1.0
  6
BYLAYER
100
AcDbLine
 10
149.1369153999999071
 20
30.0748499999999979
 30
0.0
 11
149.1369153999999071
 21
44.074450000000013
 31
0.0
  0
LINE
  5
1E5
100
AcDbEntity
  8
0
 62
0
370
-1
 48
1.0
  6
BYLAYER
100
AcDbLine
 10
168.186915400000089
 20
44.074450000000013
 30
0.0
 11
182.1879154000000653
 21
44.074450000000013
 31
0.0
  0
LINE
  5
1E6
100
AcDbEntity
  8
0
 62
0
370
-1
 48
1.0
  6
BYLAYER
100
AcDbLine
 10
182.1879154000000653
 20
44.074450000000013
 30
0.0
 11
182.1879154000000653
 21
30.0748499999999979
 31
0.0
  0
LINE
  5
1E7
100
AcDbEntity
  8
0
 62
0
370
-1
 48
1.0
  6
BYLAYER
100
AcDbLine
 10
182.1879154000000653
 20
30.0748499999999979
 30
0.0
 11
168.186915400000089
 21
30.0748499999999979
 31
0.0
  0
LINE
  5
1E8
100
AcDbEntity
  8
0
 62
0
370
-1
 48
1.0
  6
BYLAYER
100
AcDbLine
 10
168.186915400000089
 20
30.0748499999999979
 30
0.0
 11
168.186915400000089
 21
44.074450000000013
 31
0.0
  0
LINE
  5
1E9
100
AcDbEntity
  8
0
 62
0
370
-1
 48
1.0
  6
BYLAYER
100
AcDbLine
 10
187.2369154000000435
 20
44.074450000000013
 30
0.0
 11
201.2379154000000199
 21
44.074450000000013
 31
0.0
  0
LINE
  5
1EA
100
AcDbEntity
  8
0
 62
0
370
-1
 48
1.0
  6
BYLAYER
100
AcDbLine
 10
201.2379154000000199
 20
44.074450000000013
 30
0.0
 11
201.2379154000000199
 21
30.0748499999999979
 31
0.0
  0
LINE
  5
1EB
100
AcDbEntity
  8
0
 62
0
370
-1
 48
1.0
  6
BYLAYER
100
AcDbLine
 10
201.2379154000000199
 20
30.0748499999999979
 30
0.0
 11
187.2369154000000435
 21
30.0748499999999979
 31
0.0
  0
LINE
  5
1EC
100
AcDbEntity
  8
0
 62
0
370
-1
 48
1.0
  6
BYLAYER
100
AcDbLine
 10
187.2369154000000435
 20
30.0748499999999979
 30
0.0
 11
187.2369154000000435
 21
44.074450000000013
 31
0.0
  0
LINE
  5
1ED
100
AcDbEntity
  8
0
 62
0
370
-1
 48
1.0
  6
BYLAYER
100
AcDbLine
 10
206.286915399999998
 20
44.074450000000013
 30
0.0
 11
220.2879153999999744
 21
44.074450000000013
 31
0.0
  0
LINE
  5
1EE
100
AcDbEntity
  8
0
 62
0
370
-1
 48
1.0
  6
BYLAYER
100
AcDbLine
 10
220.2879153999999744
 20
44.074450000000013
 30
0.0
 11
220.2879153999999744
 21
30.0748499999999979
 31
0.0
  0
LINE
  5
1EF
100
AcDbEntity
  8
0
 62
0
370
-1
 48
1.0
  6
BYLAYER
100
AcDbLine
 10
220.2879153999999744
 20
30.0748499999999979
 30
0.0
 11
206.286915399999998
 21
30.0748499999999979
 31
0.0
  0
LINE
  5
1F0
100
AcDbEntity
  8
0
 62
0
370
-1
 48
1.0
  6
BYLAYER
100
AcDbLine
 10
206.286915399999998
 20
30.0748499999999979
 30
0.0
 11
206.286915399999998
 21
44.074450000000013
 31
0.0
  0
LINE
  5
1F1
100
AcDbEntity
  8
0
 62
0
370
-1
 48
1.0
  6
BYLAYER
100
AcDbLine
 10
225.3369153999999526
 20
44.074450000000013
 30
0.0
 11
239.3379153999999289
 21
44.074450000000013
 31
0.0
  0
LINE
  5
1F2
100
AcDbEntity
  8
0
 62
0
370
-1
 48
1.0
  6
BYLAYER
100
AcDbLine
 10
239.3379153999999289
 20
44.074450000000013
 30
0.0
 11
239.3379153999999289
 21
30.0748499999999979
 31
0.0
  0
LINE
  5
1F3
100
AcDbEntity
  8
0
 62
0
370
-1
 48
1.0
  6
BYLAYER
100
AcDbLine
 10
239.3379153999999289
 20
30.0748499999999979
 30
0.0
 11
225.3369153999999526
 21
30.0748499999999979
 31
0.0
  0
LINE
  5
1F4
100
AcDbEntity
  8
0
 62
0
370
-1
 48
1.0
  6
BYLAYER
100
AcDbLine
 10
225.3369153999999526
 20
30.0748499999999979
 30
0.0
 11
225.3369153999999526
 21
44.074450000000013
 31
0.0
  0
LINE
  5
1F5
100
AcDbEntity
  8
0
 62
0
370
-1
 48
1.0
  6
BYLAYER
100
AcDbLine
 10
287.2509153999999398
 20
44.074450000000013
 30
0.0
 11
301.2499153999999635
 21
44.074450000000013
 31
0.0
  0
LINE
  5
1F6
100
AcDbEntity
  8
0
 62
0
370
-1
 48
1.0
  6
BYLAYER
100
AcDbLine
 10
301.2499153999999635
 20
44.074450000000013
 30
0.0
 11
301.2499153999999635
 21
30.0748499999999979
 31
0.0
  0
LINE
  5
1F7
100
AcDbEntity
  8
0
 62
0
370
-1
 48
1.0
  6
BYLAYER
100
AcDbLine
 10
301.2499153999999635
 20
30.0748499999999979
 30
0.0
 11
287.2509153999999398
 21
30.0748499999999979
 31
0.0
  0
LINE
  5
1F8
100
AcDbEntity
  8
0
 62
0
370
-1
 48
1.0
  6
BYLAYER
100
AcDbLine
 10
287.2509153999999398
 20
30.0748499999999979
 30
0.0
 11
287.2509153999999398
 21
44.074450000000013
 31
0.0
  0
LINE
  5
1F9
100
AcDbEntity
  8
0
 62
0
370
-1
 48
1.0
  6
BYLAYER
100
AcDbLine
 10
265.8179153999999471
 20
63.124449999999996
 30
0.0
 11
265.8179153999999471
 21
58.4250500000000272
 31
0.0
  0
LINE
  5
1FA
100
AcDbEntity
  8
0
 62
0
370
-1
 48
1.0
  6
BYLAYER
100
AcDbLine
 10
265.8179153999999471
 20
58.4250500000000272
 30
0.0
 11
264.2939154000000599
 21
58.4250500000000272
 31
0.0
  0
LINE
  5
1FB
100
AcDbEntity
  8
0
 62
0
370
-1
 48
1.0
  6
BYLAYER
100
AcDbLine
 10
264.2939154000000599
 20
58.4250500000000272
 30
0.0
 11
264.2939154000000599
 21
61.6540500000000122
 31
0.0
  0
LINE
  5
1FC
100
AcDbEntity
  8
0
 62
0
370
-1
 48
1.0
  6
BYLAYER
100
AcDbLine
 10
264.2939154000000599
 20
61.6540500000000122
 30
0.0
 11
262.5689153999999235
 21
61.6540500000000122
 31
0.0
  0
LINE
  5
1FD
100
AcDbEntity
  8
0
 62
0
370
-1
 48
1.0
  6
BYLAYER
100
AcDbLine
 10
262.5689153999999235
 20
61.6540500000000122
 30
0.0
 11
262.5689153999999235
 21
62.5744499999999846
 31
0.0
  0
LINE
  5
1FE
100
AcDbEntity
  8
0
 62
0
370
-1
 48
1.0
  6
BYLAYER
100
AcDbLine
 10
262.5689153999999235
 20
62.5744499999999846
 30
0.0
 11
259.2679153999999926
 21
62.5744499999999846
 31
0.0
  0
LINE
  5
1FF
100
AcDbEntity
  8
0
 62
0
370
-1
 48
1.0
  6
BYLAYER
100
AcDbLine
 10
259.2679153999999926
 20
62.5744499999999846
 30
0.0
 11
259.2679153999999926
 21
61.6540500000000122
 31
0.0
  0
LINE
  5
200
100
AcDbEntity
  8
0
 62
0
370
-1
 48
1.0
  6
BYLAYER
100
AcDbLine
 10
259.2679153999999926
 20
61.6540500000000122
 30
0.0
 11
257.5429153999998562
 21
61.6540500000000122
 31
0.0
  0
LINE
  5
201
100
AcDbEntity
  8
0
 62
0
370
-1
 48
1.0
  6
BYLAYER
100
AcDbLine
 10
257.5429153999998562
 20
61.6540500000000122
 30
0.0
 11
257.5429153999998562
 21
58.4250500000000272
 31
0.0
  0
LINE
  5
202
100
AcDbEntity
  8
0
 62
0
370
-1
 48
1.0
  6
BYLAYER
100
AcDbLine
 10
257.5429153999998562
 20
58.4250500000000272
 30
0.0
 11
256.7189154000000144
 21
58.4250500000000272
 31
0.0
  0
LINE
  5
203
100
AcDbEntity
  8
0
 62
0
370
-1
 48
1.0
  6
BYLAYER
100
AcDbLine
 10
256.7189154000000144
 20
58.4250500000000272
 30
0.0
 11
256.7189154000000144
 21
55.6250500000000159
 31
0.0
  0
LINE
  5
204
100
AcDbEntity
  8
0
 62
0
370
-1
 48
1.0
  6
BYLAYER
100
AcDbLine
 10
256.7189154000000144
 20
55.6250500000000159
 30
0.0
 11
257.5429153999998562
 21
55.6250500000000159
 31
0.0
  0
LINE
  5
205
100
AcDbEntity
  8
0
 62
0
370
-1
 48
1.0
  6
BYLAYER
100
AcDbLine
 10
257.5429153999998562
 20
55.6250500000000159
 30
0.0
 11
257.5429153999998562
 21
49.3548500000000274
 31
0.0
  0
LINE
  5
206
100
AcDbEntity
  8
0
 62
0
370
-1
 48
1.0
  6
BYLAYER
100
AcDbLine
 10
257.5429153999998562
 20
49.3548500000000274
 30
0.0
 11
259.2679153999999926
 21
49.3548500000000274
 31
0.0
  0
LINE
  5
207
100
AcDbEntity
  8
0
 62
0
370
-1
 48
1.0
  6
BYLAYER
100
AcDbLine
 10
259.2679153999999926
 20
49.3548500000000274
 30
0.0
 11
259.2679153999999926
 21
48.3751500000000192
 31
0.0
  0
LINE
  5
208
100
AcDbEntity
  8
0
 62
0
370
-1
 48
1.0
  6
BYLAYER
100
AcDbLine
 10
259.2679153999999926
 20
48.3751500000000192
 30
0.0
 11
262.5689153999999235
 21
48.3751500000000192
 31
0.0
  0
LINE
  5
209
100
AcDbEntity
  8
0
 62
0
370
-1
 48
1.0
  6
BYLAYER
100
AcDbLine
 10
262.5689153999999235
 20
48.3751500000000192
 30
0.0
 11
262.5689153999999235
 21
49.3548500000000274
 31
0.0
  0
LINE
  5
20A
100
AcDbEntity
  8
0
 62
0
370
-1
 48
1.0
  6
BYLAYER
100
AcDbLine
 10
262.5689153999999235
 20
49.3548500000000274
 30
0.0
 11
264.2939154000000599
 21
49.3548500000000274
 31
0.0
  0
LINE
  5
20B
100
AcDbEntity
  8
0
 62
0
370
-1
 48
1.0
  6
BYLAYER
100
AcDbLine
 10
264.2939154000000599
 20
49.3548500000000274
 30
0.0
 11
264.2939154000000599
 21
53.8238500000000215
 31
0.0
  0
LINE
  5
20C
100
AcDbEntity
  8
0
 62
0
370
-1
 48
1.0
  6
BYLAYER
100
AcDbLine
 10
264.2939154000000599
 20
53.8238500000000215
 30
0.0
 11
265.8179153999999471
 21
53.8238500000000215
 31
0.0
  0
LINE
  5
20D
100
AcDbEntity
  8
0
 62
0
370
-1
 48
1.0
  6
BYLAYER
100
AcDbLine
 10
265.8179153999999471
 20
53.8238500000000215
 30
0.0
 11
265.8179153999999471
 21
49.1248500000000092
 31
0.0
  0
LINE
  5
20E
100
AcDbEntity
  8
0
 62
0
370
-1
 48
1.0
  6
BYLAYER
100
AcDbLine
 10
265.8179153999999471
 20
49.1248500000000092
 30
0.0
 11
279.8189153999999235
 21
49.1248500000000092
 31
0.0
  0
LINE
  5
20F
100
AcDbEntity
  8
0
 62
0
370
-1
 48
1.0
  6
BYLAYER
100
AcDbLine
 10
279.8189153999999235
 20
49.1248500000000092
 30
0.0
 11
279.8189153999999235
 21
53.8238500000000215
 31
0.0
  0
LINE
  5
210
100
AcDbEntity
  8
0
 62
0
370
-1
 48
1.0
  6
BYLAYER
100
AcDbLine
 10
279.8189153999999235
 20
53.8238500000000215
 30
0.0
 11
281.3429154000000381
 21
53.8238500000000215
 31
0.0
  0
LINE
  5
211
100
AcDbEntity
  8
0
 62
0
370
-1
 48
1.0
  6
BYLAYER
100
AcDbLine
 10
281.3429154000000381
 20
53.8238500000000215
 30
0.0
 11
281.3429154000000381
 21
49.3548500000000274
 31
0.0
  0
LINE
  5
212
100
AcDbEntity
  8
0
 62
0
370
-1
 48
1.0
  6
BYLAYER
100
AcDbLine
 10
281.3429154000000381
 20
49.3548500000000274
 30
0.0
 11
283.0679153999999471
 21
49.3548500000000274
 31
0.0
  0
LINE
  5
213
100
AcDbEntity
  8
0
 62
0
370
-1
 48
1.0
  6
BYLAYER
100
AcDbLine
 10
283.0679153999999471
 20
49.3548500000000274
 30
0.0
 11
283.0679153999999471
 21
48.3751500000000192
 31
0.0
  0
LINE
  5
214
100
AcDbEntity
  8
0
 62
0
370
-1
 48
1.0
  6
BYLAYER
100
AcDbLine
 10
283.0679153999999471
 20
48.3751500000000192
 30
0.0
 11
286.368915399999878
 21
48.3751500000000192
 31
0.0
  0
LINE
  5
215
100
AcDbEntity
  8
0
 62
0
370
-1
 48
1.0
  6
BYLAYER
100
AcDbLine
 10
286.368915399999878
 20
48.3751500000000192
 30
0.0
 11
286.368915399999878
 21
49.3548500000000274
 31
0.0
  0
LINE
  5
216
100
AcDbEntity
  8
0
 62
0
370
-1
 48
1.0
  6
BYLAYER
100
AcDbLine
 10
286.368915399999878
 20
49.3548500000000274
 30
0.0
 11
288.0939154000000144
 21
49.3548500000000274
 31
0.0
  0
LINE
  5
217
100
AcDbEntity
  8
0
 62
0
370
-1
 48
1.0
  6
BYLAYER
100
AcDbLine
 10
288.0939154000000144
 20
49.3548500000000274
 30
0.0
 11
288.0939154000000144
 21
55.6250500000000159
 31
0.0
  0
LINE
  5
218
100
AcDbEntity
  8
0
 62
0
370
-1
 48
1.0
  6
BYLAYER
100
AcDbLine
 10
288.0939154000000144
 20
55.6250500000000159
 30
0.0
 11
288.9179153999998562
 21
55.6250500000000159
 31
0.0
  0
LINE
  5
219
100
AcDbEntity
  8
0
 62
0
370
-1
 48
1.0
  6
BYLAYER
100
AcDbLine
 10
288.9179153999998562
 20
55.6250500000000159
 30
0.0
 11
288.9179153999998562
 21
58.4250500000000272
 31
0.0
  0
LINE
  5
21A
100
AcDbEntity
  8
0
 62
0
370
-1
 48
1.0
  6
BYLAYER
100
AcDbLine
 10
288.9179153999998562
 20
58.4250500000000272
 30
0.0
 11
288.0939154000000144
 21
58.4250500000000272
 31
0.0
  0
LINE
  5
21B
100
AcDbEntity
  8
0
 62
0
370
-1
 48
1.0
  6
BYLAYER
100
AcDbLine
 10
288.0939154000000144
 20
58.4250500000000272
 30
0.0
 11
288.0939154000000144
 21
61.6540500000000122
 31
0.0
  0
LINE
  5
21C
100
AcDbEntity
  8
0
 62
0
370
-1
 48
1.0
  6
BYLAYER
100
AcDbLine
 10
288.0939154000000144
 20
61.6540500000000122
 30
0.0
 11
286.368915399999878
 21
61.6540500000000122
 31
0.0
  0
LINE
  5
21D
100
AcDbEntity
  8
0
 62
0
370
-1
 48
1.0
  6
BYLAYER
100
AcDbLine
 10
286.368915399999878
 20
61.6540500000000122
 30
0.0
 11
286.368915399999878
 21
62.5744499999999846
 31
0.0
  0
LINE
  5
21E
100
AcDbEntity
  8
0
 62
0
370
-1
 48
1.0
  6
BYLAYER
100
AcDbLine
 10
286.368915399999878
 20
62.5744499999999846
 30
0.0
 11
283.0679153999999471
 21
62.5744499999999846
 31
0.0
  0
LINE
  5
21F
100
AcDbEntity
  8
0
 62
0
370
-1
 48
1.0
  6
BYLAYER
100
AcDbLine
 10
283.0679153999999471
 20
62.5744499999999846
 30
0.0
 11
283.0679153999999471
 21
61.6540500000000122
 31
0.0
  0
LINE
  5
220
100
AcDbEntity
  8
0
 62
0
370
-1
 48
1.0
  6
BYLAYER
100
AcDbLine
 10
283.0679153999999471
 20
61.6540500000000122
 30
0.0
 11
281.3429154000000381
 21
61.6540500000000122
 31
0.0
  0
LINE
  5
221
100
AcDbEntity
  8
0
 62
0
370
-1
 48
1.0
  6
BYLAYER
100
AcDbLine
 10
281.3429154000000381
 20
61.6540500000000122
 30
0.0
 11
281.3429154000000381
 21
58.4250500000000272
 31
0.0
  0
LINE
  5
222
100
AcDbEntity
  8
0
 62
0
370
-1
 48
1.0
  6
BYLAYER
100
AcDbLine
 10
281.3429154000000381
 20
58.4250500000000272
 30
0.0
 11
279.8189153999999235
 21
58.4250500000000272
 31
0.0
  0
LINE
  5
223
100
AcDbEntity
  8
0
 62
0
370
-1
 48
1.0
  6
BYLAYER
100
AcDbLine
 10
279.8189153999999235
 20
58.4250500000000272
 30
0.0
 11
279.8189153999999235
 21
63.124449999999996
 31
0.0
  0
LINE
  5
224
100
AcDbEntity
  8
0
 62
0
370
-1
 48
1.0
  6
BYLAYER
100
AcDbLine
 10
279.8189153999999235
 20
63.124449999999996
 30
0.0
 11
265.8179153999999471
 21
63.124449999999996
 31
0.0
  0
LINE
  5
225
100
AcDbEntity
  8
0
 62
0
370
-1
 48
1.0
  6
BYLAYER
100
AcDbLine
 10
18.1680154000000016
 20
63.124449999999996
 30
0.0
 11
32.168915400000003
 21
63.124449999999996
 31
0.0
  0
LINE
  5
226
100
AcDbEntity
  8
0
 62
0
370
-1
 48
1.0
  6
BYLAYER
100
AcDbLine
 10
32.168915400000003
 20
63.124449999999996
 30
0.0
 11
32.168915400000003
 21
49.1248500000000092
 31
0.0
  0
LINE
  5
227
100
AcDbEntity
  8
0
 62
0
370
-1
 48
1.0
  6
BYLAYER
100
AcDbLine
 10
32.168915400000003
 20
49.1248500000000092
 30
0.0
 11
18.1680154000000016
 21
49.1248500000000092
 31
0.0
  0
LINE
  5
228
100
AcDbEntity
  8
0
 62
0
370
-1
 48
1.0
  6
BYLAYER
100
AcDbLine
 10
18.1680154000000016
 20
49.1248500000000092
 30
0.0
 11
18.1680154000000016
 21
63.124449999999996
 31
0.0
  0
LINE
  5
229
100
AcDbEntity
  8
0
 62
0
370
-1
 48
1.0
  6
BYLAYER
100
AcDbLine
 10
44.3620153999999616
 20
63.124449999999996
 30
0.0
 11
58.3626153999999815
 21
63.124449999999996
 31
0.0
  0
LINE
  5
22A
100
AcDbEntity
  8
0
 62
0
370
-1
 48
1.0
  6
BYLAYER
100
AcDbLine
 10
58.3626153999999815
 20
63.124449999999996
 30
0.0
 11
58.3626153999999815
 21
49.1248500000000092
 31
0.0
  0
LINE
  5
22B
100
AcDbEntity
  8
0
 62
0
370
-1
 48
1.0
  6
BYLAYER
100
AcDbLine
 10
58.3626153999999815
 20
49.1248500000000092
 30
0.0
 11
44.3620153999999616
 21
49.1248500000000092
 31
0.0
  0
LINE
  5
22C
100
AcDbEntity
  8
0
 62
0
370
-1
 48
1.0
  6
BYLAYER
100
AcDbLine
 10
44.3620153999999616
 20
49.1248500000000092
 30
0.0
 11
44.3620153999999616
 21
63.124449999999996
 31
0.0
  0
LINE
  5
22D
100
AcDbEntity
  8
0
 62
0
370
-1
 48
1.0
  6
BYLAYER
100
AcDbLine
 10
63.4120153999999729
 20
63.124449999999996
 30
0.0
 11
77.4126154000000497
 21
63.124449999999996
 31
0.0
  0
LINE
  5
22E
100
AcDbEntity
  8
0
 62
0
370
-1
 48
1.0
  6
BYLAYER
100
AcDbLine
 10
77.4126154000000497
 20
63.124449999999996
 30
0.0
 11
77.4126154000000497
 21
49.1248500000000092
 31
0.0
  0
LINE
  5
22F
100
AcDbEntity
  8
0
 62
0
370
-1
 48
1.0
  6
BYLAYER
100
AcDbLine
 10
77.4126154000000497
 20
49.1248500000000092
 30
0.0
 11
63.4120153999999729
 21
49.1248500000000092
 31
0.0
  0
LINE
  5
230
100
AcDbEntity
  8
0
 62
0
370
-1
 48
1.0
  6
BYLAYER
100
AcDbLine
 10
63.4120153999999729
 20
49.1248500000000092
 30
0.0
 11
63.4120153999999729
 21
63.124449999999996
 31
0.0
  0
LINE
  5
231
100
AcDbEntity
  8
0
 62
0
370
-1
 48
1.0
  6
BYLAYER
100
AcDbLine
 10
82.4620153999999275
 20
63.124449999999996
 30
0.0
 11
96.4626154000000042
 21
63.124449999999996
 31
0.0
  0
LINE
  5
232
100
AcDbEntity
  8
0
 62
0
370
-1
 48
1.0
  6
BYLAYER
100
AcDbLine
 10
96.4626154000000042
 20
63.124449999999996
 30
0.0
 11
96.4626154000000042
 21
49.1248500000000092
 31
0.0
  0
LINE
  5
233
100
AcDbEntity
  8
0
 62
0
370
-1
 48
1.0
  6
BYLAYER
100
AcDbLine
 10
96.4626154000000042
 20
49.1248500000000092
 30
0.0
 11
82.4620153999999275
 21
49.1248500000000092
 31
0.0
  0
LINE
  5
234
100
AcDbEntity
  8
0
 62
0
370
-1
 48
1.0
  6
BYLAYER
100
AcDbLine
 10
82.4620153999999275
 20
49.1248500000000092
 30
0.0
 11
82.4620153999999275
 21
63.124449999999996
 31
0.0
  0
LINE
  5
235
100
AcDbEntity
  8
0
 62
0
370
-1
 48
1.0
  6
BYLAYER
100
AcDbLine
 10
101.5119153999999071
 20
63.124449999999996
 30
0.0
 11
115.5129153999998834
 21
63.124449999999996
 31
0.0
  0
LINE
  5
236
100
AcDbEntity
  8
0
 62
0
370
-1
 48
1.0
  6
BYLAYER
100
AcDbLine
 10
115.5129153999998834
 20
63.124449999999996
 30
0.0
 11
115.5129153999998834
 21
49.1248500000000092
 31
0.0
  0
LINE
  5
237
100
AcDbEntity
  8
0
 62
0
370
-1
 48
1.0
  6
BYLAYER
100
AcDbLine
 10
115.5129153999998834
 20
49.1248500000000092
 30
0.0
 11
101.5119153999999071
 21
49.1248500000000092
 31
0.0
  0
LINE
  5
238
100
AcDbEntity
  8
0
 62
0
370
-1
 48
1.0
  6
BYLAYER
100
AcDbLine
 10
101.5119153999999071
 20
49.1248500000000092
 30
0.0
 11
101.5119153999999071
 21
63.124449999999996
 31
0.0
  0
LINE
  5
239
100
AcDbEntity
  8
0
 62
0
370
-1
 48
1.0
  6
BYLAYER
100
AcDbLine
 10
120.561915400000089
 20
63.124449999999996
 30
0.0
 11
134.5629154000000653
 21
63.124449999999996
 31
0.0
  0
LINE
  5
23A
100
AcDbEntity
  8
0
 62
0
370
-1
 48
1.0
  6
BYLAYER
100
AcDbLine
 10
134.5629154000000653
 20
63.124449999999996
 30
0.0
 11
134.5629154000000653
 21
49.1248500000000092
 31
0.0
  0
LINE
  5
23B
100
AcDbEntity
  8
0
 62
0
370
-1
 48
1.0
  6
BYLAYER
100
AcDbLine
 10
134.5629154000000653
 20
49.1248500000000092
 30
0.0
 11
120.561915400000089
 21
49.1248500000000092
 31
0.0
  0
LINE
  5
23C
100
AcDbEntity
  8
0
 62
0
370
-1
 48
1.0
  6
BYLAYER
100
AcDbLine
 10
120.561915400000089
 20
49.1248500000000092
 30
0.0
 11
120.561915400000089
 21
63.124449999999996
 31
0.0
  0
LINE
  5
23D
100
AcDbEntity
  8
0
 62
0
370
-1
 48
1.0
  6
BYLAYER
100
AcDbLine
 10
139.6119154000000435
 20
63.124449999999996
 30
0.0
 11
153.6129154000000199
 21
63.124449999999996
 31
0.0
  0
LINE
  5
23E
100
AcDbEntity
  8
0
 62
0
370
-1
 48
1.0
  6
BYLAYER
100
AcDbLine
 10
153.6129154000000199
 20
63.124449999999996
 30
0.0
 11
153.6129154000000199
 21
49.1248500000000092
 31
0.0
  0
LINE
  5
23F
100
AcDbEntity
  8
0
 62
0
370
-1
 48
1.0
  6
BYLAYER
100
AcDbLine
 10
153.6129154000000199
 20
49.1248500000000092
 30
0.0
 11
139.6119154000000435
 21
49.1248500000000092
 31
0.0
  0
LINE
  5
240
100
AcDbEntity
  8
0
 62
0
370
-1
 48
1.0
  6
BYLAYER
100
AcDbLine
 10
139.6119154000000435
 20
49.1248500000000092
 30
0.0
 11
139.6119154000000435
 21
63.124449999999996
 31
0.0
  0
LINE
  5
241
100
AcDbEntity
  8
0
 62
0
370
-1
 48
1.0
  6
BYLAYER
100
AcDbLine
 10
158.661915399999998
 20
63.124449999999996
 30
0.0
 11
172.6629153999999744
 21
63.124449999999996
 31
0.0
  0
LINE
  5
242
100
AcDbEntity
  8
0
 62
0
370
-1
 48
1.0
  6
BYLAYER
100
AcDbLine
 10
172.6629153999999744
 20
63.124449999999996
 30
0.0
 11
172.6629153999999744
 21
49.1248500000000092
 31
0.0
  0
LINE
  5
243
100
AcDbEntity
  8
0
 62
0
370
-1
 48
1.0
  6
BYLAYER
100
AcDbLine
 10
172.6629153999999744
 20
49.1248500000000092
 30
0.0
 11
158.661915399999998
 21
49.1248500000000092
 31
0.0
  0
LINE
  5
244
100
AcDbEntity
  8
0
 62
0
370
-1
 48
1.0
  6
BYLAYER
100
AcDbLine
 10
158.661915399999998
 20
49.1248500000000092
 30
0.0
 11
158.661915399999998
 21
63.124449999999996
 31
0.0
  0
LINE
  5
245
100
AcDbEntity
  8
0
 62
0
370
-1
 48
1.0
  6
BYLAYER
100
AcDbLine
 10
177.7119153999999526
 20
63.124449999999996
 30
0.0
 11
191.7129153999999289
 21
63.124449999999996
 31
0.0
  0
LINE
  5
246
100
AcDbEntity
  8
0
 62
0
370
-1
 48
1.0
  6
BYLAYER
100
AcDbLine
 10
191.7129153999999289
 20
63.124449999999996
 30
0.0
 11
191.7129153999999289
 21
49.1248500000000092
 31
0.0
  0
LINE
  5
247
100
AcDbEntity
  8
0
 62
0
370
-1
 48
1.0
  6
BYLAYER
100
AcDbLine
 10
191.7129153999999289
 20
49.1248500000000092
 30
0.0
 11
177.7119153999999526
 21
49.1248500000000092
 31
0.0
  0
LINE
  5
248
100
AcDbEntity
  8
0
 62
0
370
-1
 48
1.0
  6
BYLAYER
100
AcDbLine
 10
177.7119153999999526
 20
49.1248500000000092
 30
0.0
 11
177.7119153999999526
 21
63.124449999999996
 31
0.0
  0
LINE
  5
249
100
AcDbEntity
  8
0
 62
0
370
-1
 48
1.0
  6
BYLAYER
100
AcDbLine
 10
196.7619153999999071
 20
63.124449999999996
 30
0.0
 11
210.7629153999998834
 21
63.124449999999996
 31
0.0
  0
LINE
  5
24A
100
AcDbEntity
  8
0
 62
0
370
-1
 48
1.0
  6
BYLAYER
100
AcDbLine
 10
210.7629153999998834
 20
63.124449999999996
 30
0.0
 11
210.7629153999998834
 21
49.1248500000000092
 31
0.0
  0
LINE
  5
24B
100
AcDbEntity
  8
0
 62
0
370
-1
 48
1.0
  6
BYLAYER
100
AcDbLine
 10
210.7629153999998834
 20
49.1248500000000092
 30
0.0
 11
196.7619153999999071
 21
49.1248500000000092
 31
0.0
  0
LINE
  5
24C
100
AcDbEntity
  8
0
 62
0
370
-1
 48
1.0
  6
BYLAYER
100
AcDbLine
 10
196.7619153999999071
 20
49.1248500000000092
 30
0.0
 11
196.7619153999999071
 21
63.124449999999996
 31
0.0
  0
LINE
  5
24D
100
AcDbEntity
  8
0
 62
0
370
-1
 48
1.0
  6
BYLAYER
100
AcDbLine
 10
215.811915400000089
 20
63.124449999999996
 30
0.0
 11
229.8129154000000653
 21
63.124449999999996
 31
0.0
  0
LINE
  5
24E
100
AcDbEntity
  8
0
 62
0
370
-1
 48
1.0
  6
BYLAYER
100
AcDbLine
 10
229.8129154000000653
 20
63.124449999999996
 30
0.0
 11
229.8129154000000653
 21
49.1248500000000092
 31
0.0
  0
LINE
  5
24F
100
AcDbEntity
  8
0
 62
0
370
-1
 48
1.0
  6
BYLAYER
100
AcDbLine
 10
229.8129154000000653
 20
49.1248500000000092
 30
0.0
 11
215.811915400000089
 21
49.1248500000000092
 31
0.0
  0
LINE
  5
250
100
AcDbEntity
  8
0
 62
0
370
-1
 48
1.0
  6
BYLAYER
100
AcDbLine
 10
215.811915400000089
 20
49.1248500000000092
 30
0.0
 11
215.811915400000089
 21
63.124449999999996
 31
0.0
  0
LINE
  5
251
100
AcDbEntity
  8
0
 62
0
370
-1
 48
1.0
  6
BYLAYER
100
AcDbLine
 10
234.8619154000000435
 20
63.124449999999996
 30
0.0
 11
248.8629154000000199
 21
63.124449999999996
 31
0.0
  0
LINE
  5
252
100
AcDbEntity
  8
0
 62
0
370
-1
 48
1.0
  6
BYLAYER
100
AcDbLine
 10
248.8629154000000199
 20
63.124449999999996
 30
0.0
 11
248.8629154000000199
 21
49.1248500000000092
 31
0.0
  0
LINE
  5
253
100
AcDbEntity
  8
0
 62
0
370
-1
 48
1.0
  6
BYLAYER
100
AcDbLine
 10
248.8629154000000199
 20
49.1248500000000092
 30
0.0
 11
234.8619154000000435
 21
49.1248500000000092
 31
0.0
  0
LINE
  5
254
100
AcDbEntity
  8
0
 62
0
370
-1
 48
1.0
  6
BYLAYER
100
AcDbLine
 10
234.8619154000000435
 20
49.1248500000000092
 30
0.0
 11
234.8619154000000435
 21
63.124449999999996
 31
0.0
  0
LINE
  5
255
100
AcDbEntity
  8
0
 62
0
370
-1
 48
1.0
  6
BYLAYER
100
AcDbLine
 10
15.7868153999999663
 20
82.1744500000000073
 30
0.0
 11
29.7876153999999893
 21
82.1744500000000073
 31
0.0
  0
LINE
  5
256
100
AcDbEntity
  8
0
 62
0
370
-1
 48
1.0
  6
BYLAYER
100
AcDbLine
 10
29.7876153999999893
 20
82.1744500000000073
 30
0.0
 11
29.7876153999999893
 21
68.1748500000000206
 31
0.0
  0
LINE
  5
257
100
AcDbEntity
  8
0
 62
0
370
-1
 48
1.0
  6
BYLAYER
100
AcDbLine
 10
29.7876153999999893
 20
68.1748500000000206
 30
0.0
 11
15.7868153999999663
 21
68.1748500000000206
 31
0.0
  0
LINE
  5
258
100
AcDbEntity
  8
0
 62
0
370
-1
 48
1.0
  6
BYLAYER
100
AcDbLine
 10
15.7868153999999663
 20
68.1748500000000206
 30
0.0
 11
15.7868153999999663
 21
82.1744500000000073
 31
0.0
  0
LINE
  5
259
100
AcDbEntity
  8
0
 62
0
370
-1
 48
1.0
  6
BYLAYER
100
AcDbLine
 10
39.6005154000000061
 20
82.1744500000000073
 30
0.0
 11
53.6001153999999929
 21
82.1744500000000073
 31
0.0
  0
LINE
  5
25A
100
AcDbEntity
  8
0
 62
0
370
-1
 48
1.0
  6
BYLAYER
100
AcDbLine
 10
53.6001153999999929
 20
82.1744500000000073
 30
0.0
 11
53.6001153999999929
 21
68.1748500000000206
 31
0.0
  0
LINE
  5
25B
100
AcDbEntity
  8
0
 62
0
370
-1
 48
1.0
  6
BYLAYER
100
AcDbLine
 10
53.6001153999999929
 20
68.1748500000000206
 30
0.0
 11
39.6005154000000061
 21
68.1748500000000206
 31
0.0
  0
LINE
  5
25C
100
AcDbEntity
  8
0
 62
0
370
-1
 48
1.0
  6
BYLAYER
100
AcDbLine
 10
39.6005154000000061
 20
68.1748500000000206
 30
0.0
 11
39.6005154000000061
 21
82.1744500000000073
 31
0.0
  0
LINE
  5
25D
100
AcDbEntity
  8
0
 62
0
370
-1
 48
1.0
  6
BYLAYER
100
AcDbLine
 10
58.6505154000000175
 20
82.1744500000000073
 30
0.0
 11
72.6501154000000042
 21
82.1744500000000073
 31
0.0
  0
LINE
  5
25E
100
AcDbEntity
  8
0
 62
0
370
-1
 48
1.0
  6
BYLAYER
100
AcDbLine
 10
72.6501154000000042
 20
82.1744500000000073
 30
0.0
 11
72.6501154000000042
 21
68.1748500000000206
 31
0.0
  0
LINE
  5
25F
100
AcDbEntity
  8
0
 62
0
370
-1
 48
1.0
  6
BYLAYER
100
AcDbLine
 10
72.6501154000000042
 20
68.1748500000000206
 30
0.0
 11
58.6505154000000175
 21
68.1748500000000206
 31
0.0
  0
LINE
  5
260
100
AcDbEntity
  8
0
 62
0
370
-1
 48
1.0
  6
BYLAYER
100
AcDbLine
 10
58.6505154000000175
 20
68.1748500000000206
 30
0.0
 11
58.6505154000000175
 21
82.1744500000000073
 31
0.0
  0
LINE
  5
261
100
AcDbEntity
  8
0
 62
0
370
-1
 48
1.0
  6
BYLAYER
100
AcDbLine
 10
77.700515399999972
 20
82.1744500000000073
 30
0.0
 11
91.7001153999999588
 21
82.1744500000000073
 31
0.0
  0
LINE
  5
262
100
AcDbEntity
  8
0
 62
0
370
-1
 48
1.0
  6
BYLAYER
100
AcDbLine
 10
91.7001153999999588
 20
82.1744500000000073
 30
0.0
 11
91.7001153999999588
 21
68.1748500000000206
 31
0.0
  0
LINE
  5
263
100
AcDbEntity
  8
0
 62
0
370
-1
 48
1.0
  6
BYLAYER
100
AcDbLine
 10
91.7001153999999588
 20
68.1748500000000206
 30
0.0
 11
77.700515399999972
 21
68.1748500000000206
 31
0.0
  0
LINE
  5
264
100
AcDbEntity
  8
0
 62
0
370
-1
 48
1.0
  6
BYLAYER
100
AcDbLine
 10
77.700515399999972
 20
68.1748500000000206
 30
0.0
 11
77.700515399999972
 21
82.1744500000000073
 31
0.0
  0
LINE
  5
265
100
AcDbEntity
  8
0
 62
0
370
-1
 48
1.0
  6
BYLAYER
100
AcDbLine
 10
96.7505154000000402
 20
82.1744500000000073
 30
0.0
 11
110.7499153999999635
 21
82.1744500000000073
 31
0.0
  0
LINE
  5
266
100
AcDbEntity
  8
0
 62
0
370
-1
 48
1.0
  6
BYLAYER
100
AcDbLine
 10
110.7499153999999635
 20
82.1744500000000073
 30
0.0
 11
110.7499153999999635
 21
68.1748500000000206
 31
0.0
  0
LINE
  5
267
100
AcDbEntity
  8
0
 62
0
370
-1
 48
1.0
  6
BYLAYER
100
AcDbLine
 10
110.7499153999999635
 20
68.1748500000000206
 30
0.0
 11
96.7505154000000402
 21
68.1748500000000206
 31
0.0
  0
LINE
  5
268
100
AcDbEntity
  8
0
 62
0
370
-1
 48
1.0
  6
BYLAYER
100
AcDbLine
 10
96.7505154000000402
 20
68.1748500000000206
 30
0.0
 11
96.7505154000000402
 21
82.1744500000000073
 31
0.0
  0
LINE
  5
269
100
AcDbEntity
  8
0
 62
0
370
-1
 48
1.0
  6
BYLAYER
100
AcDbLine
 10
115.8009153999998944
 20
82.1744500000000073
 30
0.0
 11
129.799915399999918
 21
82.1744500000000073
 31
0.0
  0
LINE
  5
26A
100
AcDbEntity
  8
0
 62
0
370
-1
 48
1.0
  6
BYLAYER
100
AcDbLine
 10
129.799915399999918
 20
82.1744500000000073
 30
0.0
 11
129.799915399999918
 21
68.1748500000000206
 31
0.0
  0
LINE
  5
26B
100
AcDbEntity
  8
0
 62
0
370
-1
 48
1.0
  6
BYLAYER
100
AcDbLine
 10
129.799915399999918
 20
68.1748500000000206
 30
0.0
 11
115.8009153999998944
 21
68.1748500000000206
 31
0.0
  0
LINE
  5
26C
100
AcDbEntity
  8
0
 62
0
370
-1
 48
1.0
  6
BYLAYER
100
AcDbLine
 10
115.8009153999998944
 20
68.1748500000000206
 30
0.0
 11
115.8009153999998944
 21
82.1744500000000073
 31
0.0
  0
LINE
  5
26D
100
AcDbEntity
  8
0
 62
0
370
-1
 48
1.0
  6
BYLAYER
100
AcDbLine
 10
134.8509154000000763
 20
82.1744500000000073
 30
0.0
 11
148.8499153999998725
 21
82.1744500000000073
 31
0.0
  0
LINE
  5
26E
100
AcDbEntity
  8
0
 62
0
370
-1
 48
1.0
  6
BYLAYER
100
AcDbLine
 10
148.8499153999998725
 20
82.1744500000000073
 30
0.0
 11
148.8499153999998725
 21
68.1748500000000206
 31
0.0
  0
LINE
  5
26F
100
AcDbEntity
  8
0
 62
0
370
-1
 48
1.0
  6
BYLAYER
100
AcDbLine
 10
148.8499153999998725
 20
68.1748500000000206
 30
0.0
 11
134.8509154000000763
 21
68.1748500000000206
 31
0.0
  0
LINE
  5
270
100
AcDbEntity
  8
0
 62
0
370
-1
 48
1.0
  6
BYLAYER
100
AcDbLine
 10
134.8509154000000763
 20
68.1748500000000206
 30
0.0
 11
134.8509154000000763
 21
82.1744500000000073
 31
0.0
  0
LINE
  5
271
100
AcDbEntity
  8
0
 62
0
370
-1
 48
1.0
  6
BYLAYER
100
AcDbLine
 10
153.9009154000000308
 20
82.1744500000000073
 30
0.0
 11
167.8999154000000544
 21
82.1744500000000073
 31
0.0
  0
LINE
  5
272
100
AcDbEntity
  8
0
 62
0
370
-1
 48
1.0
  6
BYLAYER
100
AcDbLine
 10
167.8999154000000544
 20
82.1744500000000073
 30
0.0
 11
167.8999154000000544
 21
68.1748500000000206
 31
0.0
  0
LINE
  5
273
100
AcDbEntity
  8
0
 62
0
370
-1
 48
1.0
  6
BYLAYER
100
AcDbLine
 10
167.8999154000000544
 20
68.1748500000000206
 30
0.0
 11
153.9009154000000308
 21
68.1748500000000206
 31
0.0
  0
LINE
  5
274
100
AcDbEntity
  8
0
 62
0
370
-1
 48
1.0
  6
BYLAYER
100
AcDbLine
 10
153.9009154000000308
 20
68.1748500000000206
 30
0.0
 11
153.9009154000000308
 21
82.1744500000000073
 31
0.0
  0
LINE
  5
275
100
AcDbEntity
  8
0
 62
0
370
-1
 48
1.0
  6
BYLAYER
100
AcDbLine
 10
172.9509153999999853
 20
82.1744500000000073
 30
0.0
 11
186.949915400000009
 21
82.1744500000000073
 31
0.0
  0
LINE
  5
276
100
AcDbEntity
  8
0
 62
0
370
-1
 48
1.0
  6
BYLAYER
100
AcDbLine
 10
186.949915400000009
 20
82.1744500000000073
 30
0.0
 11
186.949915400000009
 21
68.1748500000000206
 31
0.0
  0
LINE
  5
277
100
AcDbEntity
  8
0
 62
0
370
-1
 48
1.0
  6
BYLAYER
100
AcDbLine
 10
186.949915400000009
 20
68.1748500000000206
 30
0.0
 11
172.9509153999999853
 21
68.1748500000000206
 31
0.0
  0
LINE
  5
278
100
AcDbEntity
  8
0
 62
0
370
-1
 48
1.0
  6
BYLAYER
100
AcDbLine
 10
172.9509153999999853
 20
68.1748500000000206
 30
0.0
 11
172.9509153999999853
 21
82.1744500000000073
 31
0.0
  0
LINE
  5
279
100
AcDbEntity
  8
0
 62
0
370
-1
 48
1.0
  6
BYLAYER
100
AcDbLine
 10
192.0009153999999398
 20
82.1744500000000073
 30
0.0
 11
205.9999153999999635
 21
82.1744500000000073
 31
0.0
  0
LINE
  5
27A
100
AcDbEntity
  8
0
 62
0
370
-1
 48
1.0
  6
BYLAYER
100
AcDbLine
 10
205.9999153999999635
 20
82.1744500000000073
 30
0.0
 11
205.9999153999999635
 21
68.1748500000000206
 31
0.0
  0
LINE
  5
27B
100
AcDbEntity
  8
0
 62
0
370
-1
 48
1.0
  6
BYLAYER
100
AcDbLine
 10
205.9999153999999635
 20
68.1748500000000206
 30
0.0
 11
192.0009153999999398
 21
68.1748500000000206
 31
0.0
  0
LINE
  5
27C
100
AcDbEntity
  8
0
 62
0
370
-1
 48
1.0
  6
BYLAYER
100
AcDbLine
 10
192.0009153999999398
 20
68.1748500000000206
 30
0.0
 11
192.0009153999999398
 21
82.1744500000000073
 31
0.0
  0
LINE
  5
27D
100
AcDbEntity
  8
0
 62
0
370
-1
 48
1.0
  6
BYLAYER
100
AcDbLine
 10
211.0509153999998944
 20
82.1744500000000073
 30
0.0
 11
225.049915399999918
 21
82.1744500000000073
 31
0.0
  0
LINE
  5
27E
100
AcDbEntity
  8
0
 62
0
370
-1
 48
1.0
  6
BYLAYER
100
AcDbLine
 10
225.049915399999918
 20
82.1744500000000073
 30
0.0
 11
225.049915399999918
 21
68.1748500000000206
 31
0.0
  0
LINE
  5
27F
100
AcDbEntity
  8
0
 62
0
370
-1
 48
1.0
  6
BYLAYER
100
AcDbLine
 10
225.049915399999918
 20
68.1748500000000206
 30
0.0
 11
211.0509153999998944
 21
68.1748500000000206
 31
0.0
  0
LINE
  5
280
100
AcDbEntity
  8
0
 62
0
370
-1
 48
1.0
  6
BYLAYER
100
AcDbLine
 10
211.0509153999998944
 20
68.1748500000000206
 30
0.0
 11
211.0509153999998944
 21
82.1744500000000073
 31
0.0
  0
LINE
  5
281
100
AcDbEntity
  8
0
 62
0
370
-1
 48
1.0
  6
BYLAYER
100
AcDbLine
 10
230.1009154000000763
 20
82.1744500000000073
 30
0.0
 11
244.0999153999998725
 21
82.1744500000000073
 31
0.0
  0
LINE
  5
282
100
AcDbEntity
  8
0
 62
0
370
-1
 48
1.0
  6
BYLAYER
100
AcDbLine
 10
244.0999153999998725
 20
82.1744500000000073
 30
0.0
 11
244.0999153999998725
 21
68.1748500000000206
 31
0.0
  0
LINE
  5
283
100
AcDbEntity
  8
0
 62
0
370
-1
 48
1.0
  6
BYLAYER
100
AcDbLine
 10
244.0999153999998725
 20
68.1748500000000206
 30
0.0
 11
230.1009154000000763
 21
68.1748500000000206
 31
0.0
  0
LINE
  5
284
100
AcDbEntity
  8
0
 62
0
370
-1
 48
1.0
  6
BYLAYER
100
AcDbLine
 10
230.1009154000000763
 20
68.1748500000000206
 30
0.0
 11
230.1009154000000763
 21
82.1744500000000073
 31
0.0
  0
LINE
  5
285
100
AcDbEntity
  8
0
 62
0
370
-1
 48
1.0
  6
BYLAYER
100
AcDbLine
 10
249.1509154000000308
 20
82.1744500000000073
 30
0.0
 11
263.1499154000000544
 21
82.1744500000000073
 31
0.0
  0
LINE
  5
286
100
AcDbEntity
  8
0
 62
0
370
-1
 48
1.0
  6
BYLAYER
100
AcDbLine
 10
263.1499154000000544
 20
82.1744500000000073
 30
0.0
 11
263.1499154000000544
 21
68.1748500000000206
 31
0.0
  0
LINE
  5
287
100
AcDbEntity
  8
0
 62
0
370
-1
 48
1.0
  6
BYLAYER
100
AcDbLine
 10
263.1499154000000544
 20
68.1748500000000206
 30
0.0
 11
249.1509154000000308
 21
68.1748500000000206
 31
0.0
  0
LINE
  5
288
100
AcDbEntity
  8
0
 62
0
370
-1
 48
1.0
  6
BYLAYER
100
AcDbLine
 10
249.1509154000000308
 20
68.1748500000000206
 30
0.0
 11
249.1509154000000308
 21
82.1744500000000073
 31
0.0
  0
LINE
  5
289
100
AcDbEntity
  8
0
 62
0
370
-1
 48
1.0
  6
BYLAYER
100
AcDbLine
 10
272.9619153999999526
 20
82.1744500000000073
 30
0.0
 11
286.9629153999999289
 21
82.1744500000000073
 31
0.0
  0
LINE
  5
28A
100
AcDbEntity
  8
0
 62
0
370
-1
 48
1.0
  6
BYLAYER
100
AcDbLine
 10
286.9629153999999289
 20
82.1744500000000073
 30
0.0
 11
286.9629153999999289
 21
68.1748500000000206
 31
0.0
  0
LINE
  5
28B
100
AcDbEntity
  8
0
 62
0
370
-1
 48
1.0
  6
BYLAYER
100
AcDbLine
 10
286.9629153999999289
 20
68.1748500000000206
 30
0.0
 11
272.9619153999999526
 21
68.1748500000000206
 31
0.0
  0
LINE
  5
28C
100
AcDbEntity
  8
0
 62
0
370
-1
 48
1.0
  6
BYLAYER
100
AcDbLine
 10
272.9619153999999526
 20
68.1748500000000206
 30
0.0
 11
272.9619153999999526
 21
82.1744500000000073
 31
0.0
  0
LINE
  5
28D
100
AcDbEntity
  8
0
 62
0
370
-1
 48
1.0
  6
BYLAYER
100
AcDbLine
 10
306.3009153999998944
 20
82.1744500000000073
 30
0.0
 11
320.299915399999918
 21
82.1744500000000073
 31
0.0
  0
LINE
  5
28E
100
AcDbEntity
  8
0
 62
0
370
-1
 48
1.0
  6
BYLAYER
100
AcDbLine
 10
320.299915399999918
 20
82.1744500000000073
 30
0.0
 11
320.299915399999918
 21
68.1748500000000206
 31
0.0
  0
LINE
  5
28F
100
AcDbEntity
  8
0
 62
0
370
-1
 48
1.0
  6
BYLAYER
100
AcDbLine
 10
320.299915399999918
 20
68.1748500000000206
 30
0.0
 11
306.3009153999998944
 21
68.1748500000000206
 31
0.0
  0
LINE
  5
290
100
AcDbEntity
  8
0
 62
0
370
-1
 48
1.0
  6
BYLAYER
100
AcDbLine
 10
306.3009153999998944
 20
68.1748500000000206
 30
0.0
 11
306.3009153999998944
 21
82.1744500000000073
 31
0.0
  0
LINE
  5
291
100
AcDbEntity
  8
0
 62
0
370
-1
 48
1.0
  6
BYLAYER
100
AcDbLine
 10
268.2009153999999853
 20
101.2259500000000401
 30
0.0
 11
268.2009153999999853
 21
96.5250499999999931
 31
0.0
  0
LINE
  5
292
100
AcDbEntity
  8
0
 62
0
370
-1
 48
1.0
  6
BYLAYER
100
AcDbLine
 10
268.2009153999999853
 20
96.5250499999999931
 30
0.0
 11
266.674915399999918
 21
96.5250499999999931
 31
0.0
  0
LINE
  5
293
100
AcDbEntity
  8
0
 62
0
370
-1
 48
1.0
  6
BYLAYER
100
AcDbLine
 10
266.674915399999918
 20
96.5250499999999931
 30
0.0
 11
266.674915399999918
 21
99.7554500000000246
 31
0.0
  0
LINE
  5
294
100
AcDbEntity
  8
0
 62
0
370
-1
 48
1.0
  6
BYLAYER
100
AcDbLine
 10
266.674915399999918
 20
99.7554500000000246
 30
0.0
 11
264.949915400000009
 21
99.7554500000000246
 31
0.0
  0
LINE
  5
295
100
AcDbEntity
  8
0
 62
0
370
-1
 48
1.0
  6
BYLAYER
100
AcDbLine
 10
264.949915400000009
 20
99.7554500000000246
 30
0.0
 11
264.949915400000009
 21
100.6749499999999955
 31
0.0
  0
LINE
  5
296
100
AcDbEntity
  8
0
 62
0
370
-1
 48
1.0
  6
BYLAYER
100
AcDbLine
 10
264.949915400000009
 20
100.6749499999999955
 30
0.0
 11
261.6509154000000308
 21
100.6749499999999955
 31
0.0
  0
LINE
  5
297
100
AcDbEntity
  8
0
 62
0
370
-1
 48
1.0
  6
BYLAYER
100
AcDbLine
 10
261.6509154000000308
 20
100.6749499999999955
 30
0.0
 11
261.6509154000000308
 21
99.7554500000000246
 31
0.0
  0
LINE
  5
298
100
AcDbEntity
  8
0
 62
0
370
-1
 48
1.0
  6
BYLAYER
100
AcDbLine
 10
261.6509154000000308
 20
99.7554500000000246
 30
0.0
 11
259.924915399999918
 21
99.7554500000000246
 31
0.0
  0
LINE
  5
299
100
AcDbEntity
  8
0
 62
0
370
-1
 48
1.0
  6
BYLAYER
100
AcDbLine
 10
259.924915399999918
 20
99.7554500000000246
 30
0.0
 11
259.924915399999918
 21
96.5250499999999931
 31
0.0
  0
LINE
  5
29A
100
AcDbEntity
  8
0
 62
0
370
-1
 48
1.0
  6
BYLAYER
100
AcDbLine
 10
259.924915399999918
 20
96.5250499999999931
 30
0.0
 11
259.0999153999998725
 21
96.5250499999999931
 31
0.0
  0
LINE
  5
29B
100
AcDbEntity
  8
0
 62
0
370
-1
 48
1.0
  6
BYLAYER
100
AcDbLine
 10
259.0999153999998725
 20
96.5250499999999931
 30
0.0
 11
259.0999153999998725
 21
93.7250500000000386
 31
0.0
  0
LINE
  5
29C
100
AcDbEntity
  8
0
 62
0
370
-1
 48
1.0
  6
BYLAYER
100
AcDbLine
 10
259.0999153999998725
 20
93.7250500000000386
 30
0.0
 11
259.924915399999918
 21
93.7250500000000386
 31
0.0
  0
LINE
  5
29D
100
AcDbEntity
  8
0
 62
0
370
-1
 48
1.0
  6
BYLAYER
100
AcDbLine
 10
259.924915399999918
 20
93.7250500000000386
 30
0.0
 11
259.924915399999918
 21
87.4548499999999933
 31
0.0
  0
LINE
  5
29E
100
AcDbEntity
  8
0
 62
0
370
-1
 48
1.0
  6
BYLAYER
100
AcDbLine
 10
259.924915399999918
 20
87.4548499999999933
 30
0.0
 11
261.6509154000000308
 21
87.4548499999999933
 31
0.0
  0
LINE
  5
29F
100
AcDbEntity
  8
0
 62
0
370
-1
 48
1.0
  6
BYLAYER
100
AcDbLine
 10
261.6509154000000308
 20
87.4548499999999933
 30
0.0
 11
261.6509154000000308
 21
86.4751500000000135
 31
0.0
  0
LINE
  5
2A0
100
AcDbEntity
  8
0
 62
0
370
-1
 48
1.0
  6
BYLAYER
100
AcDbLine
 10
261.6509154000000308
 20
86.4751500000000135
 30
0.0
 11
264.949915400000009
 21
86.4751500000000135
 31
0.0
  0
LINE
  5
2A1
100
AcDbEntity
  8
0
 62
0
370
-1
 48
1.0
  6
BYLAYER
100
AcDbLine
 10
264.949915400000009
 20
86.4751500000000135
 30
0.0
 11
264.949915400000009
 21
87.4548499999999933
 31
0.0
  0
LINE
  5
2A2
100
AcDbEntity
  8
0
 62
0
370
-1
 48
1.0
  6
BYLAYER
100
AcDbLine
 10
264.949915400000009
 20
87.4548499999999933
 30
0.0
 11
266.674915399999918
 21
87.4548499999999933
 31
0.0
  0
LINE
  5
2A3
100
AcDbEntity
  8
0
 62
0
370
-1
 48
1.0
  6
BYLAYER
100
AcDbLine
 10
266.674915399999918
 20
87.4548499999999933
 30
0.0
 11
266.674915399999918
 21
91.9238500000000442
 31
0.0
  0
LINE
  5
2A4
100
AcDbEntity
  8
0
 62
0
370
-1
 48
1.0
  6
BYLAYER
100
AcDbLine
 10
266.674915399999918
 20
91.9238500000000442
 30
0.0
 11
268.2009153999999853
 21
91.9238500000000442
 31
0.0
  0
LINE
  5
2A5
100
AcDbEntity
  8
0
 62
0
370
-1
 48
1.0
  6
BYLAYER
100
AcDbLine
 10
268.2009153999999853
 20
91.9238500000000442
 30
0.0
 11
268.2009153999999853
 21
87.2248499999999751
 31
0.0
  0
LINE
  5
2A6
100
AcDbEntity
  8
0
 62
0
370
-1
 48
1.0
  6
BYLAYER
100
AcDbLine
 10
268.2009153999999853
 20
87.2248499999999751
 30
0.0
 11
282.199915400000009
 21
87.2248499999999751
 31
0.0
  0
LINE
  5
2A7
100
AcDbEntity
  8
0
 62
0
370
-1
 48
1.0
  6
BYLAYER
100
AcDbLine
 10
282.199915400000009
 20
87.2248499999999751
 30
0.0
 11
282.199915400000009
 21
91.9238500000000442
 31
0.0
  0
LINE
  5
2A8
100
AcDbEntity
  8
0
 62
0
370
-1
 48
1.0
  6
BYLAYER
100
AcDbLine
 10
282.199915400000009
 20
91.9238500000000442
 30
0.0
 11
283.7259154000000763
 21
91.9238500000000442
 31
0.0
  0
LINE
  5
2A9
100
AcDbEntity
  8
0
 62
0
370
-1
 48
1.0
  6
BYLAYER
100
AcDbLine
 10
283.7259154000000763
 20
91.9238500000000442
 30
0.0
 11
283.7259154000000763
 21
87.4548499999999933
 31
0.0
  0
LINE
  5
2AA
100
AcDbEntity
  8
0
 62
0
370
-1
 48
1.0
  6
BYLAYER
100
AcDbLine
 10
283.7259154000000763
 20
87.4548499999999933
 30
0.0
 11
285.4509153999999853
 21
87.4548499999999933
 31
0.0
  0
LINE
  5
2AB
100
AcDbEntity
  8
0
 62
0
370
-1
 48
1.0
  6
BYLAYER
100
AcDbLine
 10
285.4509153999999853
 20
87.4548499999999933
 30
0.0
 11
285.4509153999999853
 21
86.4751500000000135
 31
0.0
  0
LINE
  5
2AC
100
AcDbEntity
  8
0
 62
0
370
-1
 48
1.0
  6
BYLAYER
100
AcDbLine
 10
285.4509153999999853
 20
86.4751500000000135
 30
0.0
 11
288.7499153999999635
 21
86.4751500000000135
 31
0.0
  0
LINE
  5
2AD
100
AcDbEntity
  8
0
 62
0
370
-1
 48
1.0
  6
BYLAYER
100
AcDbLine
 10
288.7499153999999635
 20
86.4751500000000135
 30
0.0
 11
288.7499153999999635
 21
87.4548499999999933
 31
0.0
  0
LINE
  5
2AE
100
AcDbEntity
  8
0
 62
0
370
-1
 48
1.0
  6
BYLAYER
100
AcDbLine
 10
288.7499153999999635
 20
87.4548499999999933
 30
0.0
 11
290.4749153999998725
 21
87.4548499999999933
 31
0.0
  0
LINE
  5
2AF
100
AcDbEntity
  8
0
 62
0
370
-1
 48
1.0
  6
BYLAYER
100
AcDbLine
 10
290.4749153999998725
 20
87.4548499999999933
 30
0.0
 11
290.4749153999998725
 21
93.7250500000000386
 31
0.0
  0
LINE
  5
2B0
100
AcDbEntity
  8
0
 62
0
370
-1
 48
1.0
  6
BYLAYER
100
AcDbLine
 10
290.4749153999998725
 20
93.7250500000000386
 30
0.0
 11
291.3009153999998944
 21
93.7250500000000386
 31
0.0
  0
LINE
  5
2B1
100
AcDbEntity
  8
0
 62
0
370
-1
 48
1.0
  6
BYLAYER
100
AcDbLine
 10
291.3009153999998944
 20
93.7250500000000386
 30
0.0
 11
291.3009153999998944
 21
96.5250499999999931
 31
0.0
  0
LINE
  5
2B2
100
AcDbEntity
  8
0
 62
0
370
-1
 48
1.0
  6
BYLAYER
100
AcDbLine
 10
291.3009153999998944
 20
96.5250499999999931
 30
0.0
 11
290.4749153999998725
 21
96.5250499999999931
 31
0.0
  0
LINE
  5
2B3
100
AcDbEntity
  8
0
 62
0
370
-1
 48
1.0
  6
BYLAYER
100
AcDbLine
 10
290.4749153999998725
 20
96.5250499999999931
 30
0.0
 11
290.4749153999998725
 21
99.7554500000000246
 31
0.0
  0
LINE
  5
2B4
100
AcDbEntity
  8
0
 62
0
370
-1
 48
1.0
  6
BYLAYER
100
AcDbLine
 10
290.4749153999998725
 20
99.7554500000000246
 30
0.0
 11
288.7499153999999635
 21
99.7554500000000246
 31
0.0
  0
LINE
  5
2B5
100
AcDbEntity
  8
0
 62
0
370
-1
 48
1.0
  6
BYLAYER
100
AcDbLine
 10
288.7499153999999635
 20
99.7554500000000246
 30
0.0
 11
288.7499153999999635
 21
100.6749499999999955
 31
0.0
  0
LINE
  5
2B6
100
AcDbEntity
  8
0
 62
0
370
-1
 48
1.0
  6
BYLAYER
100
AcDbLine
 10
288.7499153999999635
 20
100.6749499999999955
 30
0.0
 11
285.4509153999999853
 21
100.6749499999999955
 31
0.0
  0
LINE
  5
2B7
100
AcDbEntity
  8
0
 62
0
370
-1
 48
1.0
  6
BYLAYER
100
AcDbLine
 10
285.4509153999999853
 20
100.6749499999999955
 30
0.0
 11
285.4509153999999853
 21
99.7554500000000246
 31
0.0
  0
LINE
  5
2B8
100
AcDbEntity
  8
0
 62
0
370
-1
 48
1.0
  6
BYLAYER
100
AcDbLine
 10
285.4509153999999853
 20
99.7554500000000246
 30
0.0
 11
283.7259154000000763
 21
99.7554500000000246
 31
0.0
  0
LINE
  5
2B9
100
AcDbEntity
  8
0
 62
0
370
-1
 48
1.0
  6
BYLAYER
100
AcDbLine
 10
283.7259154000000763
 20
99.7554500000000246
 30
0.0
 11
283.7259154000000763
 21
96.5250499999999931
 31
0.0
  0
LINE
  5
2BA
100
AcDbEntity
  8
0
 62
0
370
-1
 48
1.0
  6
BYLAYER
100
AcDbLine
 10
283.7259154000000763
 20
96.5250499999999931
 30
0.0
 11
282.199915400000009
 21
96.5250499999999931
 31
0.0
  0
LINE
  5
2BB
100
AcDbEntity
  8
0
 62
0
370
-1
 48
1.0
  6
BYLAYER
100
AcDbLine
 10
282.199915400000009
 20
96.5250499999999931
 30
0.0
 11
282.199915400000009
 21
101.2259500000000401
 31
0.0
  0
LINE
  5
2BC
100
AcDbEntity
  8
0
 62
0
370
-1
 48
1.0
  6
BYLAYER
100
AcDbLine
 10
282.199915400000009
 20
101.2259500000000401
 30
0.0
 11
268.2009153999999853
 21
101.2259500000000401
 31
0.0
  0
LINE
  5
2BD
100
AcDbEntity
  8
0
 62
0
370
-1
 48
1.0
  6
BYLAYER
100
AcDbLine
 10
11.0243153999999777
 20
101.2259500000000401
 30
0.0
 11
25.0251154000000042
 21
101.2259500000000401
 31
0.0
  0
LINE
  5
2BE
100
AcDbEntity
  8
0
 62
0
370
-1
 48
1.0
  6
BYLAYER
100
AcDbLine
 10
25.0251154000000042
 20
101.2259500000000401
 30
0.0
 11
25.0251154000000042
 21
87.2248499999999751
 31
0.0
  0
LINE
  5
2BF
100
AcDbEntity
  8
0
 62
0
370
-1
 48
1.0
  6
BYLAYER
100
AcDbLine
 10
25.0251154000000042
 20
87.2248499999999751
 30
0.0
 11
11.0243153999999777
 21
87.2248499999999751
 31
0.0
  0
LINE
  5
2C0
100
AcDbEntity
  8
0
 62
0
370
-1
 48
1.0
  6
BYLAYER
100
AcDbLine
 10
11.0243153999999777
 20
87.2248499999999751
 30
0.0
 11
11.0243153999999777
 21
101.2259500000000401
 31
0.0
  0
LINE
  5
2C1
100
AcDbEntity
  8
0
 62
0
370
-1
 48
1.0
  6
BYLAYER
100
AcDbLine
 10
30.0757153999999787
 20
101.2259500000000401
 30
0.0
 11
44.0751154000000156
 21
101.2259500000000401
 31
0.0
  0
LINE
  5
2C2
100
AcDbEntity
  8
0
 62
0
370
-1
 48
1.0
  6
BYLAYER
100
AcDbLine
 10
44.0751154000000156
 20
101.2259500000000401
 30
0.0
 11
44.0751154000000156
 21
87.2248499999999751
 31
0.0
  0
LINE
  5
2C3
100
AcDbEntity
  8
0
 62
0
370
-1
 48
1.0
  6
BYLAYER
100
AcDbLine
 10
44.0751154000000156
 20
87.2248499999999751
 30
0.0
 11
30.0757153999999787
 21
87.2248499999999751
 31
0.0
  0
LINE
  5
2C4
100
AcDbEntity
  8
0
 62
0
370
-1
 48
1.0
  6
BYLAYER
100
AcDbLine
 10
30.0757153999999787
 20
87.2248499999999751
 30
0.0
 11
30.0757153999999787
 21
101.2259500000000401
 31
0.0
  0
LINE
  5
2C5
100
AcDbEntity
  8
0
 62
0
370
-1
 48
1.0
  6
BYLAYER
100
AcDbLine
 10
49.1255153999999834
 20
101.2259500000000401
 30
0.0
 11
63.1251153999999701
 21
101.2259500000000401
 31
0.0
  0
LINE
  5
2C6
100
AcDbEntity
  8
0
 62
0
370
-1
 48
1.0
  6
BYLAYER
100
AcDbLine
 10
63.1251153999999701
 20
101.2259500000000401
 30
0.0
 11
63.1251153999999701
 21
87.2248499999999751
 31
0.0
  0
LINE
  5
2C7
100
AcDbEntity
  8
0
 62
0
370
-1
 48
1.0
  6
BYLAYER
100
AcDbLine
 10
63.1251153999999701
 20
87.2248499999999751
 30
0.0
 11
49.1255153999999834
 21
87.2248499999999751
 31
0.0
  0
LINE
  5
2C8
100
AcDbEntity
  8
0
 62
0
370
-1
 48
1.0
  6
BYLAYER
100
AcDbLine
 10
49.1255153999999834
 20
87.2248499999999751
 30
0.0
 11
49.1255153999999834
 21
101.2259500000000401
 31
0.0
  0
LINE
  5
2C9
100
AcDbEntity
  8
0
 62
0
370
-1
 48
1.0
  6
BYLAYER
100
AcDbLine
 10
68.1755153999999948
 20
101.2259500000000401
 30
0.0
 11
82.1751153999999815
 21
101.2259500000000401
 31
0.0
  0
LINE
  5
2CA
100
AcDbEntity
  8
0
 62
0
370
-1
 48
1.0
  6
BYLAYER
100
AcDbLine
 10
82.1751153999999815
 20
101.2259500000000401
 30
0.0
 11
82.1751153999999815
 21
87.2248499999999751
 31
0.0
  0
LINE
  5
2CB
100
AcDbEntity
  8
0
 62
0
370
-1
 48
1.0
  6
BYLAYER
100
AcDbLine
 10
82.1751153999999815
 20
87.2248499999999751
 30
0.0
 11
68.1755153999999948
 21
87.2248499999999751
 31
0.0
  0
LINE
  5
2CC
100
AcDbEntity
  8
0
 62
0
370
-1
 48
1.0
  6
BYLAYER
100
AcDbLine
 10
68.1755153999999948
 20
87.2248499999999751
 30
0.0
 11
68.1755153999999948
 21
101.2259500000000401
 31
0.0
  0
LINE
  5
2CD
100
AcDbEntity
  8
0
 62
0
370
-1
 48
1.0
  6
BYLAYER
100
AcDbLine
 10
87.2255153999999493
 20
101.2259500000000401
 30
0.0
 11
101.2249153999999862
 21
101.2259500000000401
 31
0.0
  0
LINE
  5
2CE
100
AcDbEntity
  8
0
 62
0
370
-1
 48
1.0
  6
BYLAYER
100
AcDbLine
 10
101.2249153999999862
 20
101.2259500000000401
 30
0.0
 11
101.2249153999999862
 21
87.2248499999999751
 31
0.0
  0
LINE
  5
2CF
100
AcDbEntity
  8
0
 62
0
370
-1
 48
1.0
  6
BYLAYER
100
AcDbLine
 10
101.2249153999999862
 20
87.2248499999999751
 30
0.0
 11
87.2255153999999493
 21
87.2248499999999751
 31
0.0
  0
LINE
  5
2D0
100
AcDbEntity
  8
0
 62
0
370
-1
 48
1.0
  6
BYLAYER
100
AcDbLine
 10
87.2255153999999493
 20
87.2248499999999751
 30
0.0
 11
87.2255153999999493
 21
101.2259500000000401
 31
0.0
  0
LINE
  5
2D1
100
AcDbEntity
  8
0
 62
0
370
-1
 48
1.0
  6
BYLAYER
100
AcDbLine
 10
106.2749154000000544
 20
101.2259500000000401
 30
0.0
 11
120.2739154000000781
 21
101.2259500000000401
 31
0.0
  0
LINE
  5
2D2
100
AcDbEntity
  8
0
 62
0
370
-1
 48
1.0
  6
BYLAYER
100
AcDbLine
 10
120.2739154000000781
 20
101.2259500000000401
 30
0.0
 11
120.2739154000000781
 21
87.2248499999999751
 31
0.0
  0
LINE
  5
2D3
100
AcDbEntity
  8
0
 62
0
370
-1
 48
1.0
  6
BYLAYER
100
AcDbLine
 10
120.2739154000000781
 20
87.2248499999999751
 30
0.0
 11
106.2749154000000544
 21
87.2248499999999751
 31
0.0
  0
LINE
  5
2D4
100
AcDbEntity
  8
0
 62
0
370
-1
 48
1.0
  6
BYLAYER
100
AcDbLine
 10
106.2749154000000544
 20
87.2248499999999751
 30
0.0
 11
106.2749154000000544
 21
101.2259500000000401
 31
0.0
  0
LINE
  5
2D5
100
AcDbEntity
  8
0
 62
0
370
-1
 48
1.0
  6
BYLAYER
100
AcDbLine
 10
125.324915400000009
 20
101.2259500000000401
 30
0.0
 11
139.324915400000009
 21
101.2259500000000401
 31
0.0
  0
LINE
  5
2D6
100
AcDbEntity
  8
0
 62
0
370
-1
 48
1.0
  6
BYLAYER
100
AcDbLine
 10
139.324915400000009
 20
101.2259500000000401
 30
0.0
 11
139.324915400000009
 21
87.2248499999999751
 31
0.0
  0
LINE
  5
2D7
100
AcDbEntity
  8
0
 62
0
370
-1
 48
1.0
  6
BYLAYER
100
AcDbLine
 10
139.324915400000009
 20
87.2248499999999751
 30
0.0
 11
125.324915400000009
 21
87.2248499999999751
 31
0.0
  0
LINE
  5
2D8
100
AcDbEntity
  8
0
 62
0
370
-1
 48
1.0
  6
BYLAYER
100
AcDbLine
 10
125.324915400000009
 20
87.2248499999999751
 30
0.0
 11
125.324915400000009
 21
101.2259500000000401
 31
0.0
  0
LINE
  5
2D9
100
AcDbEntity
  8
0
 62
0
370
-1
 48
1.0
  6
BYLAYER
100
AcDbLine
 10
144.3759153999999398
 20
101.2259500000000401
 30
0.0
 11
158.3749153999999635
 21
101.2259500000000401
 31
0.0
  0
LINE
  5
2DA
100
AcDbEntity
  8
0
 62
0
370
-1
 48
1.0
  6
BYLAYER
100
AcDbLine
 10
158.3749153999999635
 20
101.2259500000000401
 30
0.0
 11
158.3749153999999635
 21
87.2248499999999751
 31
0.0
  0
LINE
  5
2DB
100
AcDbEntity
  8
0
 62
0
370
-1
 48
1.0
  6
BYLAYER
100
AcDbLine
 10
158.3749153999999635
 20
87.2248499999999751
 30
0.0
 11
144.3759153999999398
 21
87.2248499999999751
 31
0.0
  0
LINE
  5
2DC
100
AcDbEntity
  8
0
 62
0
370
-1
 48
1.0
  6
BYLAYER
100
AcDbLine
 10
144.3759153999999398
 20
87.2248499999999751
 30
0.0
 11
144.3759153999999398
 21
101.2259500000000401
 31
0.0
  0
LINE
  5
2DD
100
AcDbEntity
  8
0
 62
0
370
-1
 48
1.0
  6
BYLAYER
100
AcDbLine
 10
163.4259153999998944
 20
101.2259500000000401
 30
0.0
 11
177.424915399999918
 21
101.2259500000000401
 31
0.0
  0
LINE
  5
2DE
100
AcDbEntity
  8
0
 62
0
370
-1
 48
1.0
  6
BYLAYER
100
AcDbLine
 10
177.424915399999918
 20
101.2259500000000401
 30
0.0
 11
177.424915399999918
 21
87.2248499999999751
 31
0.0
  0
LINE
  5
2DF
100
AcDbEntity
  8
0
 62
0
370
-1
 48
1.0
  6
BYLAYER
100
AcDbLine
 10
177.424915399999918
 20
87.2248499999999751
 30
0.0
 11
163.4259153999998944
 21
87.2248499999999751
 31
0.0
  0
LINE
  5
2E0
100
AcDbEntity
  8
0
 62
0
370
-1
 48
1.0
  6
BYLAYER
100
AcDbLine
 10
163.4259153999998944
 20
87.2248499999999751
 30
0.0
 11
163.4259153999998944
 21
101.2259500000000401
 31
0.0
  0
LINE
  5
2E1
100
AcDbEntity
  8
0
 62
0
370
-1
 48
1.0
  6
BYLAYER
100
AcDbLine
 10
182.4759154000000763
 20
101.2259500000000401
 30
0.0
 11
196.4749153999998725
 21
101.2259500000000401
 31
0.0
  0
LINE
  5
2E2
100
AcDbEntity
  8
0
 62
0
370
-1
 48
1.0
  6
BYLAYER
100
AcDbLine
 10
196.4749153999998725
 20
101.2259500000000401
 30
0.0
 11
196.4749153999998725
 21
87.2248499999999751
 31
0.0
  0
LINE
  5
2E3
100
AcDbEntity
  8
0
 62
0
370
-1
 48
1.0
  6
BYLAYER
100
AcDbLine
 10
196.4749153999998725
 20
87.2248499999999751
 30
0.0
 11
182.4759154000000763
 21
87.2248499999999751
 31
0.0
  0
LINE
  5
2E4
100
AcDbEntity
  8
0
 62
0
370
-1
 48
1.0
  6
BYLAYER
100
AcDbLine
 10
182.4759154000000763
 20
87.2248499999999751
 30
0.0
 11
182.4759154000000763
 21
101.2259500000000401
 31
0.0
  0
LINE
  5
2E5
100
AcDbEntity
  8
0
 62
0
370
-1
 48
1.0
  6
BYLAYER
100
AcDbLine
 10
201.5259154000000308
 20
101.2259500000000401
 30
0.0
 11
215.5249154000000544
 21
101.2259500000000401
 31
0.0
  0
LINE
  5
2E6
100
AcDbEntity
  8
0
 62
0
370
-1
 48
1.0
  6
BYLAYER
100
AcDbLine
 10
215.5249154000000544
 20
101.2259500000000401
 30
0.0
 11
215.5249154000000544
 21
87.2248499999999751
 31
0.0
  0
LINE
  5
2E7
100
AcDbEntity
  8
0
 62
0
370
-1
 48
1.0
  6
BYLAYER
100
AcDbLine
 10
215.5249154000000544
 20
87.2248499999999751
 30
0.0
 11
201.5259154000000308
 21
87.2248499999999751
 31
0.0
  0
LINE
  5
2E8
100
AcDbEntity
  8
0
 62
0
370
-1
 48
1.0
  6
BYLAYER
100
AcDbLine
 10
201.5259154000000308
 20
87.2248499999999751
 30
0.0
 11
201.5259154000000308
 21
101.2259500000000401
 31
0.0
  0
LINE
  5
2E9
100
AcDbEntity
  8
0
 62
0
370
-1
 48
1.0
  6
BYLAYER
100
AcDbLine
 10
220.5759153999999853
 20
101.2259500000000401
 30
0.0
 11
234.574915400000009
 21
101.2259500000000401
 31
0.0
  0
LINE
  5
2EA
100
AcDbEntity
  8
0
 62
0
370
-1
 48
1.0
  6
BYLAYER
100
AcDbLine
 10
234.574915400000009
 20
101.2259500000000401
 30
0.0
 11
234.574915400000009
 21
87.2248499999999751
 31
0.0
  0
LINE
  5
2EB
100
AcDbEntity
  8
0
 62
0
370
-1
 48
1.0
  6
BYLAYER
100
AcDbLine
 10
234.574915400000009
 20
87.2248499999999751
 30
0.0
 11
220.5759153999999853
 21
87.2248499999999751
 31
0.0
  0
LINE
  5
2EC
100
AcDbEntity
  8
0
 62
0
370
-1
 48
1.0
  6
BYLAYER
100
AcDbLine
 10
220.5759153999999853
 20
87.2248499999999751
 30
0.0
 11
220.5759153999999853
 21
101.2259500000000401
 31
0.0
  0
LINE
  5
2ED
100
AcDbEntity
  8
0
 62
0
370
-1
 48
1.0
  6
BYLAYER
100
AcDbLine
 10
239.6259153999999398
 20
101.2259500000000401
 30
0.0
 11
253.6249153999999351
 21
101.2259500000000401
 31
0.0
  0
LINE
  5
2EE
100
AcDbEntity
  8
0
 62
0
370
-1
 48
1.0
  6
BYLAYER
100
AcDbLine
 10
253.6249153999999351
 20
101.2259500000000401
 30
0.0
 11
253.6249153999999351
 21
87.2248499999999751
 31
0.0
  0
LINE
  5
2EF
100
AcDbEntity
  8
0
 62
0
370
-1
 48
1.0
  6
BYLAYER
100
AcDbLine
 10
253.6249153999999351
 20
87.2248499999999751
 30
0.0
 11
239.6259153999999398
 21
87.2248499999999751
 31
0.0
  0
LINE
  5
2F0
100
AcDbEntity
  8
0
 62
0
370
-1
 48
1.0
  6
BYLAYER
100
AcDbLine
 10
239.6259153999999398
 20
87.2248499999999751
 30
0.0
 11
239.6259153999999398
 21
101.2259500000000401
 31
0.0
  0
LINE
  5
2F1
100
AcDbEntity
  8
0
 62
0
370
-1
 48
1.0
  6
BYLAYER
100
AcDbLine
 10
306.3009153999998944
 20
101.2259500000000401
 30
0.0
 11
320.299915399999918
 21
101.2259500000000401
 31
0.0
  0
LINE
  5
2F2
100
AcDbEntity
  8
0
 62
0
370
-1
 48
1.0
  6
BYLAYER
100
AcDbLine
 10
320.299915399999918
 20
101.2259500000000401
 30
0.0
 11
320.299915399999918
 21
87.2248499999999751
 31
0.0
  0
LINE
  5
2F3
100
AcDbEntity
  8
0
 62
0
370
-1
 48
1.0
  6
BYLAYER
100
AcDbLine
 10
320.299915399999918
 20
87.2248499999999751
 30
0.0
 11
306.3009153999998944
 21
87.2248499999999751
 31
0.0
  0
LINE
  5
2F4
100
AcDbEntity
  8
0
 62
0
370
-1
 48
1.0
  6
BYLAYER
100
AcDbLine
 10
306.3009153999998944
 20
87.2248499999999751
 30
0.0
 11
306.3009153999998944
 21
101.2259500000000401
 31
0.0
  0
ENDSEC
  0
SECTION
  2
OBJECTS
  0
DICTIONARY
  5
C
100
AcDbDictionary
280
0
281
1
  3
ACAD_GROUP
350
D
  3
ACAD_LAYOUT
350
1A
  3
ACAD_MLINESTYLE
350
17
  3
ACAD_PLOTSETTINGS
350
19
  3
ACAD_PLOTSTYLENAME
350
E
  3
AcDbVariableDictionary
350
2F5
  3
QCAD_OBJECTS
350
2F6
  0
DICTIONARY
  5
D
100
AcDbDictionary
280
0
281
1
  0
ACDBDICTIONARYWDFLT
  5
E
100
AcDbDictionary
281
1
  3
Normal
350
F
100
AcDbDictionaryWithDefault
340
F
  0
ACDBPLACEHOLDER
  5
F
  0
DICTIONARY
  5
17
100
AcDbDictionary
280
0
281
1
  3
Standard
350
18
  0
MLINESTYLE
  5
18
100
AcDbMlineStyle
  2
STANDARD
 70
0
  3

 62
256
 51
90.0
 52
90.0
 71
2
 49
0.5
 62
256
  6
BYLAYER
 49
-0.5
 62
256
  6
BYLAYER
  0
DICTIONARY
  5
19
100
AcDbDictionary
280
0
281
1
  0
DICTIONARY
  5
1A
100
AcDbDictionary
281
1
  3
Layout1
350
1E
  3
Layout2
350
26
  3
Model
350
22
  0
LAYOUT
  5
1E
100
AcDbPlotSettings
  1

  2
none_device
  4

  6

 40
0.0
 41
0.0
 42
0.0
 43
0.0
 44
0.0
 45
0.0
 46
0.0
 47
0.0
 48
0.0
 49
0.0
140
0.0
141
0.0
142
1.0
143
1.0
 70
688
 72
0
 73
0
 74
5
  7

 75
16
147
1.0
148
0.0
149
0.0
100
AcDbLayout
  1
Layout1
 70
1
 71
1
 10
0.0
 20
0.0
 11
420.0
 21
297.0
 12
0.0
 22
0.0
 32
0.0
 14
100000000000000000000.0
 24
100000000000000000000.0
 34
100000000000000000000.0
 15
-100000000000000000000.0
 25
-100000000000000000000.0
 35
-100000000000000000000.0
146
0.0
 13
0.0
 23
0.0
 33
0.0
 16
1.0
 26
0.0
 36
0.0
 17
0.0
 27
1.0
 37
0.0
 76
0
330
1B
  0
LAYOUT
  5
22
100
AcDbPlotSettings
  1

  2
none_device
  4

  6

 40
0.0
 41
0.0
 42
0.0
 43
0.0
 44
0.0
 45
0.0
 46
0.0
 47
0.0
 48
0.0
 49
0.0
140
0.0
141
0.0
142
1.0
143
1.0
 70
1712
 72
0
 73
0
 74
0
  7

 75
0
147
1.0
148
0.0
149
0.0
100
AcDbLayout
  1
Model
 70
1
 71
0
 10
0.0
 20
0.0
 11
12.0
 21
9.0
 12
0.0
 22
0.0
 32
0.0
 14
0.0
 24
0.0
 34
0.0
 15
0.0
 25
0.0
 35
0.0
146
0.0
 13
0.0
 23
0.0
 33
0.0
 16
1.0
 26
0.0
 36
0.0
 17
0.0
 27
1.0
 37
0.0
 76
0
330
1F
  0
LAYOUT
  5
26
100
AcDbPlotSettings
  1

  2
none_device
  4

  6

 40
0.0
 41
0.0
 42
0.0
 43
0.0
 44
0.0
 45
0.0
 46
0.0
 47
0.0
 48
0.0
 49
0.0
140
0.0
141
0.0
142
1.0
143
1.0
 70
688
 72
0
 73
0
 74
5
  7

 75
16
147
1.0
148
0.0
149
0.0
100
AcDbLayout
  1
Layout2
 70
1
 71
2
 10
0.0
 20
0.0
 11
12.0
 21
9.0
 12
0.0
 22
0.0
 32
0.0
 14
0.0
 24
0.0
 34
0.0
 15
0.0
 25
0.0
 35
0.0
146
0.0
 13
0.0
 23
0.0
 33
0.0
 16
1.0
 26
0.0
 36
0.0
 17
0.0
 27
1.0
 37
0.0
 76
0
330
23
  0
DICTIONARY
  5
2F5
100
AcDbDictionary
281
1
  3
DIMASSOC
350
2F8
  3
HIDETEXT
350
2F7
  0
DICTIONARYVAR
  5
2F7
100
DictionaryVariables
280
0
  1
2
  0
DICTIONARYVAR
  5
2F8
100
DictionaryVariables
280
0
  1
1
  0
DICTIONARY
  5
2F6
100
AcDbDictionary
281
1
  3
ColorSettings/BackgroundColor
350
2F9
  3
ColorSettings/ColorMode
350
2FA
  3
Grid/DisplayGrid00
350
2FB
  3
Grid/DisplayGrid01
350
2FC
  3
Grid/DisplayGrid02
350
2FD
  3
Grid/DisplayGrid03
350
2FE
  3
Grid/GridSpacingX00
350
2FF
  3
Grid/GridSpacingX01
350
300
  3
Grid/GridSpacingX02
350
301
  3
Grid/GridSpacingX03
350
302
  3
Grid/GridSpacingY00
350
303
  3
Grid/GridSpacingY01
350
304
  3
Grid/GridSpacingY02
350
305
  3
Grid/GridSpacingY03
350
306
  3
Grid/IsometricGrid00
350
307
  3
Grid/IsometricGrid01
350
308
  3
Grid/IsometricGrid02
350
309
  3
Grid/IsometricGrid03
350
30A
  3
Grid/IsometricProjection00
350
30B
  3
Grid/IsometricProjection01
350
30C
  3
Grid/IsometricProjection02
350
30D
  3
Grid/IsometricProjection03
350
30E
  3
Grid/MetaGridSpacingX00
350
30F
  3
Grid/MetaGridSpacingX01
350
310
  3
Grid/MetaGridSpacingX02
350
311
  3
Grid/MetaGridSpacingX03
350
312
  3
Grid/MetaGridSpacingY00
350
313
  3
Grid/MetaGridSpacingY01
350
314
  3
Grid/MetaGridSpacingY02
350
315
  3
Grid/MetaGridSpacingY03
350
316
  3
MultiPageSettings/Columns
350
317
  3
MultiPageSettings/GlueMarginsBottom
350
318
  3
MultiPageSettings/GlueMarginsLeft
350
319
  3
MultiPageSettings/GlueMarginsRight
350
31A
  3
MultiPageSettings/GlueMarginsTop
350
31B
  3
MultiPageSettings/PrintCropMarks
350
31C
  3
MultiPageSettings/Rows
350
31D
  3
PageSettings/OffsetX
350
31E
  3
PageSettings/OffsetY
350
31F
  3
PageSettings/PageOrientation
350
320
  3
PageSettings/PaperHeight
350
321
  3
PageSettings/PaperWidth
350
322
  3
PageSettings/Scale
350
323
  3
PageSettings/ShowPaperBorders
350
324
  3
PageTagSettings/EnablePageTags
350
325
  3
PageTagSettings/TagAlignment
350
326
  3
PageTagSettings/TagFont
350
327
  3
PageTagSettings/TagPosition
350
328
  3
QCADVersion
350
329
  3
UnitSettings/PaperUnit
350
32A
  3
ViewportCenter
350
32B
  3
ViewportHeight
350
32C
  3
ViewportWidth
350
32D
  0
XRECORD
  5
2F9
330
2F6
100
AcDbXrecord
280
1
1000
White
  0
XRECORD
  5
2FA
330
2F6
100
AcDbXrecord
280
1
1000
FullColor
  0
XRECORD
  5
2FB
330
2F6
100
AcDbXrecord
280
1
290
1
  0
XRECORD
  5
2FC
330
2F6
100
AcDbXrecord
280
1
290
1
  0
XRECORD
  5
2FD
330
2F6
100
AcDbXrecord
280
1
290
1
  0
XRECORD
  5
2FE
330
2F6
100
AcDbXrecord
280
1
290
1
  0
XRECORD
  5
2FF
330
2F6
100
AcDbXrecord
280
1
1000
auto
  0
XRECORD
  5
300
330
2F6
100
AcDbXrecord
280
1
1000
auto
  0
XRECORD
  5
301
330
2F6
100
AcDbXrecord
280
1
1000
auto
  0
XRECORD
  5
302
330
2F6
100
AcDbXrecord
280
1
1000
auto
  0
XRECORD
  5
303
330
2F6
100
AcDbXrecord
280
1
1000
auto
  0
XRECORD
  5
304
330
2F6
100
AcDbXrecord
280
1
1000
auto
  0
XRECORD
  5
305
330
2F6
100
AcDbXrecord
280
1
1000
auto
  0
XRECORD
  5
306
330
2F6
100
AcDbXrecord
280
1
1000
auto
  0
XRECORD
  5
307
330
2F6
100
AcDbXrecord
280
1
290
0
  0
XRECORD
  5
308
330
2F6
100
AcDbXrecord
280
1
290
0
  0
XRECORD
  5
309
330
2F6
100
AcDbXrecord
280
1
290
0
  0
XRECORD
  5
30A
330
2F6
100
AcDbXrecord
280
1
290
0
  0
XRECORD
  5
30B
330
2F6
100
AcDbXrecord
280
1
 90
65537
  0
XRECORD
  5
30C
330
2F6
100
AcDbXrecord
280
1
 90
65537
  0
XRECORD
  5
30D
330
2F6
100
AcDbXrecord
280
1
 90
65537
  0
XRECORD
  5
30E
330
2F6
100
AcDbXrecord
280
1
 90
65537
  0
XRECORD
  5
30F
330
2F6
100
AcDbXrecord
280
1
1000
auto
  0
XRECORD
  5
310
330
2F6
100
AcDbXrecord
280
1
1000
auto
  0
XRECORD
  5
311
330
2F6
100
AcDbXrecord
280
1
1000
auto
  0
XRECORD
  5
312
330
2F6
100
AcDbXrecord
280
1
1000
auto
  0
XRECORD
  5
313
330
2F6
100
AcDbXrecord
280
1
1000
auto
  0
XRECORD
  5
314
330
2F6
100
AcDbXrecord
280
1
1000
auto
  0
XRECORD
  5
315
330
2F6
100
AcDbXrecord
280
1
1000
auto
  0
XRECORD
  5
316
330
2F6
100
AcDbXrecord
280
1
1000
auto
  0
XRECORD
  5
317
330
2F6
100
AcDbXrecord
280
1
 90
1
  0
XRECORD
  5
318
330
2F6
100
AcDbXrecord
280
1
 40
0.5
  0
XRECORD
  5
319
330
2F6
100
AcDbXrecord
280
1
 40
0.5
  0
XRECORD
  5
31A
330
2F6
100
AcDbXrecord
280
1
 40
0.5
  0
XRECORD
  5
31B
330
2F6
100
AcDbXrecord
280
1
 40
0.5
  0
XRECORD
  5
31C
330
2F6
100
AcDbXrecord
280
1
290
0
  0
XRECORD
  5
31D
330
2F6
100
AcDbXrecord
280
1
 90
1
  0
XRECORD
  5
31E
330
2F6
100
AcDbXrecord
280
1
 40
0.0
  0
XRECORD
  5
31F
330
2F6
100
AcDbXrecord
280
1
 40
0.0
  0
XRECORD
  5
320
330
2F6
100
AcDbXrecord
280
1
1000
Portrait
  0
XRECORD
  5
321
330
2F6
100
AcDbXrecord
280
1
 40
11.6929133858267722
  0
XRECORD
  5
322
330
2F6
100
AcDbXrecord
280
1
 40
8.2677165354330704
  0
XRECORD
  5
323
330
2F6
100
AcDbXrecord
280
1
1000
1:1
  0
XRECORD
  5
324
330
2F6
100
AcDbXrecord
280
1
290
1
  0
XRECORD
  5
325
330
2F6
100
AcDbXrecord
280
1
290
0
  0
XRECORD
  5
326
330
2F6
100
AcDbXrecord
280
1
1000
Inside
  0
XRECORD
  5
327
330
2F6
100
AcDbXrecord
280
1
1000
Arial,10,-1,5,50,0,0,0,0,0
  0
XRECORD
  5
328
330
2F6
100
AcDbXrecord
280
1
1000
TopLeft
  0
XRECORD
  5
329
330
2F6
100
AcDbXrecord
280
1
1000
3.28.1.3
  0
XRECORD
  5
32A
330
2F6
100
AcDbXrecord
280
1
 90
1
  0
XRECORD
  5
32C
330
2F6
100
AcDbXrecord
280
1
 40
496.5772610764786918
  0
XRECORD
  5
32D
330
2F6
100
AcDbXrecord
280
1
 40
926.2837687910375735
  0
ENDSEC
  0
EOF
