999
dxflib 3.26.4.0
  0
SECTION
  2
HEADER
  9
$ACADVER
  1
AC1015
  9
$HANDSEED
  5
FFFF
  9
$DIMADEC
 70
0
  9
$DIMASZ
 40
0.125
  9
$DIMATFIT
 70
0
  9
$DIMAUNIT
 70
0
  9
$DIMAZIN
 70
2
  9
$DIMBLK
  1
0
  9
$DIMBLK1
  1
0
  9
$DIMBLK2
  1
0
  9
$DIMDEC
 70
4
  9
$DIMDLI
 40
0.25
  9
$DIMDSEP
 70
46
  9
$DIMEXE
 40
0.0625
  9
$DIMEXO
 40
0.03125
  9
$DIMGAP
 40
0.03125
  9
$DIMLFAC
 40
1.0
  9
$DIMLUNIT
 70
3
  9
$DIMSCALE
 40
1.0
  9
$DIMTAD
 70
1
  9
$DIMTIH
 70
0
  9
$DIMTSZ
 40
0.0
  9
$DIMTXT
 40
0.125
  9
$DIMZIN
 70
8
  9
$DWGCODEPAGE
  3
ANSI_1252
  9
$INSUNITS
 70
1
  9
$LTSCALE
 40
1.0
  9
$MAXACTVP
 70
64
  9
$MEASUREMENT
 70
0
  9
$MIRRTEXT
 70
0
  9
$PDMODE
 70
0
  9
$PDSIZE
 40
0.0
  0
ENDSEC
  0
SECTION
  2
TABLES
  0
TABLE
  2
VPORT
  5
8
100
AcDbSymbolTable
 70
1
  0
VPORT
  5
30
100
AcDbSymbolTableRecord
100
AcDbViewportTableRecord
  2
*Active
 70
0
 10
0.0
 20
0.0
 11
1.0
 21
1.0
 12
286.3055555555554861
 22
148.5
 13
0.0
 23
0.0
 14
10.0
 24
10.0
 15
10.0
 25
10.0
 16
0.0
 26
0.0
 36
1.0
 17
0.0
 27
0.0
 37
0.0
 40
297.0
 41
1.92798353909465
 42
50.0
 43
0.0
 44
0.0
 50
0.0
 51
0.0
 71
0
 72
100
 73
1
 74
3
 75
1
 76
1
 77
0
 78
0
281
0
 65
1
110
0.0
120
0.0
130
0.0
111
1.0
121
0.0
131
0.0
112
0.0
122
1.0
132
0.0
 79
0
146
0.0
  0
ENDTAB
  0
TABLE
  2
LTYPE
  5
5
100
AcDbSymbolTable
 70
41
  0
LTYPE
  5
16
100
AcDbSymbolTableRecord
100
AcDbLinetypeTableRecord
  2
Continuous
 70
0
  3
Solid line
 72
65
 73
0
 40
0.0
  0
LTYPE
  5
31
100
AcDbSymbolTableRecord
100
AcDbLinetypeTableRecord
  2
DASHDOTX2
 70
0
  3
Dash dot (2x) ____  .  ____  .  ____  .  ___
 72
65
 73
4
 40
50.7999999999999972
 49
25.3999999999999986
 74
0
 49
-12.6499999999999986
 74
0
 49
0.1
 74
0
 49
-12.6499999999999986
 74
0
  0
LTYPE
  5
32
100
AcDbSymbolTableRecord
100
AcDbLinetypeTableRecord
  2
DASHEDX2
 70
0
  3
Dashed (2x) ____  ____  ____  ____  ____  ___
 72
65
 73
2
 40
38.0999999999999943
 49
25.3999999999999986
 74
0
 49
-12.6999999999999993
 74
0
  0
LTYPE
  5
33
100
AcDbSymbolTableRecord
100
AcDbLinetypeTableRecord
  2
ACAD_ISO04W100
 70
0
  3
ISO long-dash dot ____ . ____ . ____ . ____ . _
 72
65
 73
4
 40
30.0
 49
24.0
 74
0
 49
-2.9500000000000002
 74
0
 49
0.1
 74
0
 49
-2.9500000000000002
 74
0
  0
LTYPE
  5
34
100
AcDbSymbolTableRecord
100
AcDbLinetypeTableRecord
  2
ACAD_ISO08W100
 70
0
  3
ISO long-dash short-dash ____ __ ____ __ ____ _
 72
65
 73
4
 40
36.0
 49
24.0
 74
0
 49
-3.0
 74
0
 49
6.0
 74
0
 49
-3.0
 74
0
  0
LTYPE
  5
15
100
AcDbSymbolTableRecord
100
AcDbLinetypeTableRecord
  2
BYLAYER
 70
0
  3

 72
65
 73
0
 40
0.0
  0
LTYPE
  5
35
100
AcDbSymbolTableRecord
100
AcDbLinetypeTableRecord
  2
ACAD_ISO15W100
 70
0
  3
ISO double-dash triple-dot __ __ . . . __ __ . .
 72
65
 73
10
 40
39.0000000000000071
 49
12.0
 74
0
 49
-3.0
 74
0
 49
12.0
 74
0
 49
-2.9500000000000002
 74
0
 49
0.1
 74
0
 49
-2.9000000000000004
 74
0
 49
0.1
 74
0
 49
-2.9000000000000004
 74
0
 49
0.1
 74
0
 49
-2.9500000000000002
 74
0
  0
LTYPE
  5
36
100
AcDbSymbolTableRecord
100
AcDbLinetypeTableRecord
  2
HIDDEN
 70
0
  3
Hidden __ __ __ __ __ __ __ __ __ __ __ __ __ __
 72
65
 73
2
 40
9.5249999999999986
 49
6.3499999999999996
 74
0
 49
-3.1749999999999998
 74
0
  0
LTYPE
  5
14
100
AcDbSymbolTableRecord
100
AcDbLinetypeTableRecord
  2
BYBLOCK
 70
0
  3

 72
65
 73
0
 40
0.0
  0
LTYPE
  5
37
100
AcDbSymbolTableRecord
100
AcDbLinetypeTableRecord
  2
CENTER2
 70
0
  3
Center (.5x) ___ _ ___ _ ___ _ ___ _ ___ _ ___
 72
65
 73
4
 40
28.5750000000000028
 49
19.0500000000000007
 74
0
 49
-3.1749999999999998
 74
0
 49
3.1749999999999998
 74
0
 49
-3.1749999999999998
 74
0
  0
LTYPE
  5
38
100
AcDbSymbolTableRecord
100
AcDbLinetypeTableRecord
  2
DASHED2
 70
0
  3
Dashed (.5x) _ _ _ _ _ _ _ _ _ _ _ _ _ _ _ _ _ 
 72
65
 73
2
 40
9.5249999999999986
 49
6.3499999999999996
 74
0
 49
-3.1749999999999998
 74
0
  0
LTYPE
  5
39
100
AcDbSymbolTableRecord
100
AcDbLinetypeTableRecord
  2
ACAD_ISO07W100
 70
0
  3
ISO dot . . . . . . . . . . . . . . . . . . . . 
 72
65
 73
2
 40
3.0
 49
0.1
 74
0
 49
-2.8999999999999999
 74
0
  0
LTYPE
  5
3A
100
AcDbSymbolTableRecord
100
AcDbLinetypeTableRecord
  2
HIDDEN2
 70
0
  3
Hidden (.5x) _ _ _ _ _ _ _ _ _ _ _ _ _ _ _ _ _ 
 72
65
 73
2
 40
4.7624999999999993
 49
3.1749999999999998
 74
0
 49
-1.5874999999999999
 74
0
  0
LTYPE
  5
3B
100
AcDbSymbolTableRecord
100
AcDbLinetypeTableRecord
  2
ACAD_ISO03W100
 70
0
  3
ISO dash space __    __    __    __    __    __
 72
65
 73
2
 40
30.0
 49
12.0
 74
0
 49
-18.0
 74
0
  0
LTYPE
  5
3C
100
AcDbSymbolTableRecord
100
AcDbLinetypeTableRecord
  2
BORDERX2
 70
0
  3
Border (2x) ____  ____  .  ____  ____  .  ___
 72
65
 73
6
 40
88.8999999999999773
 49
25.3999999999999986
 74
0
 49
-12.6999999999999993
 74
0
 49
25.3999999999999986
 74
0
 49
-12.6499999999999986
 74
0
 49
0.1
 74
0
 49
-12.6499999999999986
 74
0
  0
LTYPE
  5
3D
100
AcDbSymbolTableRecord
100
AcDbLinetypeTableRecord
  2
PHANTOM
 70
0
  3
Phantom ______  __  __  ______  __  __  ______ 
 72
65
 73
6
 40
63.5000000000000071
 49
31.75
 74
0
 49
-6.3499999999999996
 74
0
 49
6.3499999999999996
 74
0
 49
-6.3499999999999996
 74
0
 49
6.3499999999999996
 74
0
 49
-6.3499999999999996
 74
0
  0
LTYPE
  5
3E
100
AcDbSymbolTableRecord
100
AcDbLinetypeTableRecord
  2
BORDER
 70
0
  3
Border __ __ . __ __ . __ __ . __ __ . __ __ .
 72
65
 73
6
 40
44.4499999999999957
 49
12.6999999999999993
 74
0
 49
-6.3499999999999996
 74
0
 49
12.6999999999999993
 74
0
 49
-6.2999999999999998
 74
0
 49
0.1
 74
0
 49
-6.2999999999999998
 74
0
  0
LTYPE
  5
3F
100
AcDbSymbolTableRecord
100
AcDbLinetypeTableRecord
  2
PHANTOMX2
 70
0
  3
Phantom (2x) ____________    ____    ____   _
 72
65
 73
6
 40
127.0000000000000142
 49
63.5
 74
0
 49
-12.6999999999999993
 74
0
 49
12.6999999999999993
 74
0
 49
-12.6999999999999993
 74
0
 49
12.6999999999999993
 74
0
 49
-12.6999999999999993
 74
0
  0
LTYPE
  5
40
100
AcDbSymbolTableRecord
100
AcDbLinetypeTableRecord
  2
CENTERX2
 70
0
  3
Center (2x) ________  __  ________  __  _____
 72
65
 73
4
 40
101.6000000000000085
 49
63.5
 74
0
 49
-12.6999999999999993
 74
0
 49
12.6999999999999993
 74
0
 49
-12.6999999999999993
 74
0
  0
LTYPE
  5
41
100
AcDbSymbolTableRecord
100
AcDbLinetypeTableRecord
  2
DIVIDE
 70
0
  3
Divide ____ . . ____ . . ____ . . ____ . . ____
 72
65
 73
6
 40
31.7500000000000036
 49
12.6999999999999993
 74
0
 49
-6.2999999999999998
 74
0
 49
0.1
 74
0
 49
-6.25
 74
0
 49
0.1
 74
0
 49
-6.2999999999999998
 74
0
  0
LTYPE
  5
42
100
AcDbSymbolTableRecord
100
AcDbLinetypeTableRecord
  2
ACAD_ISO14W100
 70
0
  3
ISO dash triple-dot __ . . . __ . . . __ . . . _
 72
65
 73
8
 40
24.0000000000000036
 49
12.0
 74
0
 49
-2.9500000000000002
 74
0
 49
0.1
 74
0
 49
-2.9000000000000004
 74
0
 49
0.1
 74
0
 49
-2.9000000000000004
 74
0
 49
0.1
 74
0
 49
-2.9500000000000002
 74
0
  0
LTYPE
  5
43
100
AcDbSymbolTableRecord
100
AcDbLinetypeTableRecord
  2
ACAD_ISO11W100
 70
0
  3
ISO double-dash dot __ __ . __ __ . __ __ . __ _
 72
65
 73
6
 40
33.0
 49
12.0
 74
0
 49
-3.0
 74
0
 49
12.0
 74
0
 49
-2.9500000000000002
 74
0
 49
0.1
 74
0
 49
-2.9500000000000002
 74
0
  0
LTYPE
  5
44
100
AcDbSymbolTableRecord
100
AcDbLinetypeTableRecord
  2
BORDER2
 70
0
  3
Border (.5x) __.__.__.__.__.__.__.__.__.__.__.
 72
65
 73
6
 40
22.2250000000000014
 49
6.3499999999999996
 74
0
 49
-3.1749999999999998
 74
0
 49
6.3499999999999996
 74
0
 49
-3.125
 74
0
 49
0.1
 74
0
 49
-3.125
 74
0
  0
LTYPE
  5
45
100
AcDbSymbolTableRecord
100
AcDbLinetypeTableRecord
  2
DOTX2
 70
0
  3
Dot (2x) .  .  .  .  .  .  .  .  .  .  .  .  .  .
 72
65
 73
2
 40
12.6999999999999993
 49
0.1
 74
0
 49
-12.5999999999999996
 74
0
  0
LTYPE
  5
46
100
AcDbSymbolTableRecord
100
AcDbLinetypeTableRecord
  2
DOT
 70
0
  3
Dot . . . . . . . . . . . . . . . . . . . . . . . .
 72
65
 73
2
 40
6.3499999999999996
 49
0.1
 74
0
 49
-6.25
 74
0
  0
LTYPE
  5
47
100
AcDbSymbolTableRecord
100
AcDbLinetypeTableRecord
  2
PHANTOM2
 70
0
  3
Phantom (.5x) ___ _ _ ___ _ _ ___ _ _ ___ _ _
 72
65
 73
6
 40
31.7500000000000036
 49
15.875
 74
0
 49
-3.1749999999999998
 74
0
 49
3.1749999999999998
 74
0
 49
-3.1749999999999998
 74
0
 49
3.1749999999999998
 74
0
 49
-3.1749999999999998
 74
0
  0
LTYPE
  5
48
100
AcDbSymbolTableRecord
100
AcDbLinetypeTableRecord
  2
ACAD_ISO12W100
 70
0
  3
ISO dash double-dot __ . . __ . . __ . . __ . . 
 72
65
 73
6
 40
21.0
 49
12.0
 74
0
 49
-2.9500000000000002
 74
0
 49
0.1
 74
0
 49
-2.9000000000000004
 74
0
 49
0.1
 74
0
 49
-2.9500000000000002
 74
0
  0
LTYPE
  5
49
100
AcDbSymbolTableRecord
100
AcDbLinetypeTableRecord
  2
ACAD_ISO06W100
 70
0
  3
ISO long-dash triple-dot ____ ... ____ ... ____
 72
65
 73
8
 40
36.0000000000000071
 49
24.0
 74
0
 49
-2.9500000000000002
 74
0
 49
0.1
 74
0
 49
-2.9000000000000004
 74
0
 49
0.1
 74
0
 49
-2.9000000000000004
 74
0
 49
0.1
 74
0
 49
-2.9500000000000002
 74
0
  0
LTYPE
  5
4A
100
AcDbSymbolTableRecord
100
AcDbLinetypeTableRecord
  2
ACAD_ISO05W100
 70
0
  3
ISO long-dash double-dot ____ .. ____ .. ____ . 
 72
65
 73
6
 40
33.0000000000000071
 49
24.0
 74
0
 49
-2.9500000000000002
 74
0
 49
0.1
 74
0
 49
-2.9000000000000004
 74
0
 49
0.1
 74
0
 49
-2.9500000000000002
 74
0
  0
LTYPE
  5
4B
100
AcDbSymbolTableRecord
100
AcDbLinetypeTableRecord
  2
ACAD_ISO10W100
 70
0
  3
ISO dash dot __ . __ . __ . __ . __ . __ . __ . 
 72
65
 73
4
 40
18.0
 49
12.0
 74
0
 49
-2.9500000000000002
 74
0
 49
0.1
 74
0
 49
-2.9500000000000002
 74
0
  0
LTYPE
  5
4C
100
AcDbSymbolTableRecord
100
AcDbLinetypeTableRecord
  2
DIVIDEX2
 70
0
  3
Divide (2x) ________  .  .  ________  .  .  _
 72
65
 73
6
 40
63.5
 49
25.3999999999999986
 74
0
 49
-12.6499999999999986
 74
0
 49
0.1
 74
0
 49
-12.5999999999999979
 74
0
 49
0.1
 74
0
 49
-12.6499999999999986
 74
0
  0
LTYPE
  5
4D
100
AcDbSymbolTableRecord
100
AcDbLinetypeTableRecord
  2
DASHDOT
 70
0
  3
Dash dot __ . __ . __ . __ . __ . __ . __ . __
 72
65
 73
4
 40
25.4000000000000021
 49
12.6999999999999993
 74
0
 49
-6.2999999999999998
 74
0
 49
0.1
 74
0
 49
-6.2999999999999998
 74
0
  0
LTYPE
  5
4E
100
AcDbSymbolTableRecord
100
AcDbLinetypeTableRecord
  2
HIDDENX2
 70
0
  3
Hidden (2x) ____ ____ ____ ____ ____ ____ ____ 
 72
65
 73
2
 40
19.0499999999999972
 49
12.6999999999999993
 74
0
 49
-6.3499999999999996
 74
0
  0
LTYPE
  5
4F
100
AcDbSymbolTableRecord
100
AcDbLinetypeTableRecord
  2
ACAD_ISO09W100
 70
0
  3
ISO long-dash double-short-dash ____ __ __ ____
 72
65
 73
6
 40
45.0
 49
24.0
 74
0
 49
-3.0
 74
0
 49
6.0
 74
0
 49
-3.0
 74
0
 49
6.0
 74
0
 49
-3.0
 74
0
  0
LTYPE
  5
50
100
AcDbSymbolTableRecord
100
AcDbLinetypeTableRecord
  2
DASHED
 70
0
  3
Dashed __ __ __ __ __ __ __ __ __ __ __ __ __ _
 72
65
 73
2
 40
19.0499999999999972
 49
12.6999999999999993
 74
0
 49
-6.3499999999999996
 74
0
  0
LTYPE
  5
51
100
AcDbSymbolTableRecord
100
AcDbLinetypeTableRecord
  2
CENTER
 70
0
  3
Center ____ _ ____ _ ____ _ ____ _ ____ _ ____
 72
65
 73
4
 40
50.8000000000000043
 49
31.75
 74
0
 49
-6.3499999999999996
 74
0
 49
6.3499999999999996
 74
0
 49
-6.3499999999999996
 74
0
  0
LTYPE
  5
52
100
AcDbSymbolTableRecord
100
AcDbLinetypeTableRecord
  2
ACAD_ISO13W100
 70
0
  3
ISO double-dash double-dot __ __ . . __ __ . . _
 72
65
 73
8
 40
36.0000000000000071
 49
12.0
 74
0
 49
-3.0
 74
0
 49
12.0
 74
0
 49
-2.9500000000000002
 74
0
 49
0.1
 74
0
 49
-2.9000000000000004
 74
0
 49
0.1
 74
0
 49
-2.9500000000000002
 74
0
  0
LTYPE
  5
53
100
AcDbSymbolTableRecord
100
AcDbLinetypeTableRecord
  2
DIVIDE2
 70
0
  3
Divide (.5x) __..__..__..__..__..__..__..__.._
 72
65
 73
6
 40
15.8749999999999982
 49
6.3499999999999996
 74
0
 49
-3.125
 74
0
 49
0.1
 74
0
 49
-3.0750000000000002
 74
0
 49
0.1
 74
0
 49
-3.125
 74
0
  0
LTYPE
  5
54
100
AcDbSymbolTableRecord
100
AcDbLinetypeTableRecord
  2
DASHDOT2
 70
0
  3
Dash dot (.5x) _._._._._._._._._._._._._._._.
 72
65
 73
4
 40
12.6999999999999993
 49
6.3499999999999996
 74
0
 49
-3.125
 74
0
 49
0.1
 74
0
 49
-3.125
 74
0
  0
LTYPE
  5
55
100
AcDbSymbolTableRecord
100
AcDbLinetypeTableRecord
  2
ACAD_ISO02W100
 70
0
  3
ISO dash __ __ __ __ __ __ __ __ __ __ __ __ __
 72
65
 73
2
 40
15.0
 49
12.0
 74
0
 49
-3.0
 74
0
  0
LTYPE
  5
56
100
AcDbSymbolTableRecord
100
AcDbLinetypeTableRecord
  2
DOT2
 70
0
  3
Dot (.5x) ........................................
 72
65
 73
2
 40
3.1749999999999998
 49
0.1
 74
0
 49
-3.0749999999999997
 74
0
  0
ENDTAB
  0
TABLE
  2
LAYER
  5
2
100
AcDbSymbolTable
 70
1
  0
LAYER
  5
10
100
AcDbSymbolTableRecord
100
AcDbLayerTableRecord
  2
0
 70
0
 62
7
420
16777215
  6
Continuous
370
25
390
F
  0
ENDTAB
  0
TABLE
  2
STYLE
  5
3
100
AcDbSymbolTable
 70
1
  0
STYLE
  5
57
100
AcDbSymbolTableRecord
100
AcDbTextStyleTableRecord
  2
Standard
 70
0
 40
0.0
 41
1.0
 50
0.0
 71
0
 42
2.5
  3

  4

1001
ACAD
1000
txt
1071
0
  0
ENDTAB
  0
TABLE
  2
VIEW
  5
6
100
AcDbSymbolTable
 70
0
  0
ENDTAB
  0
TABLE
  2
UCS
  5
7
100
AcDbSymbolTable
 70
0
  0
ENDTAB
  0
TABLE
  2
APPID
  5
9
100
AcDbSymbolTable
 70
1
  0
APPID
  5
12
100
AcDbSymbolTableRecord
100
AcDbRegAppTableRecord
  2
ACAD
 70
0
  0
APPID
  5
58
100
AcDbSymbolTableRecord
100
AcDbRegAppTableRecord
  2
QCAD
 70
0
  0
ENDTAB
  0
TABLE
  2
DIMSTYLE
  5
A
100
AcDbSymbolTable
 70
1
100
AcDbDimStyleTable
 71
0
  0
DIMSTYLE
105
27
100
AcDbSymbolTableRecord
100
AcDbDimStyleTableRecord
  2
Standard
 41
0.125
 42
0.03125
 43
3.75
 44
0.0625
 70
0
 73
0
 74
0
 77
1
 78
8
140
0.125
141
2.5
143
0.03937007874016
147
0.03125
171
3
172
1
271
2
272
2
274
3
278
44
283
0
284
8
340
57
  0
ENDTAB
  0
TABLE
  2
BLOCK_RECORD
  5
1
100
AcDbSymbolTable
 70
1
  0
BLOCK_RECORD
  5
1F
100
AcDbSymbolTableRecord
100
AcDbBlockTableRecord
  2
*Model_Space
340
22
  0
BLOCK_RECORD
  5
1B
100
AcDbSymbolTableRecord
100
AcDbBlockTableRecord
  2
*Paper_Space
340
1E
  0
BLOCK_RECORD
  5
23
100
AcDbSymbolTableRecord
100
AcDbBlockTableRecord
  2
*Paper_Space0
340
26
  0
ENDTAB
  0
ENDSEC
  0
SECTION
  2
BLOCKS
  0
BLOCK
  5
20
100
AcDbEntity
  8
0
100
AcDbBlockBegin
  2
*Model_Space
 70
0
 10
0.0
 20
0.0
 30
0.0
  3
*Model_Space
  1

  0
ENDBLK
  5
21
100
AcDbEntity
  8
0
100
AcDbBlockEnd
  0
BLOCK
  5
1C
100
AcDbEntity
 67
1
  8
0
100
AcDbBlockBegin
  2
*Paper_Space
 70
0
 10
0.0
 20
0.0
 30
0.0
  3
*Paper_Space
  1

  0
ENDBLK
  5
1D
100
AcDbEntity
 67
1
  8
0
100
AcDbBlockEnd
  0
BLOCK
  5
24
100
AcDbEntity
  8
0
100
AcDbBlockBegin
  2
*Paper_Space0
 70
0
 10
0.0
 20
0.0
 30
0.0
  3
*Paper_Space0
  1

  0
ENDBLK
  5
25
100
AcDbEntity
  8
0
100
AcDbBlockEnd
  0
ENDSEC
  0
SECTION
  2
ENTITIES
  0
LINE
  5
59
100
AcDbEntity
  8
0
 62
0
370
-1
 48
1.0
  6
BYLAYER
100
AcDbLine
 10
22.6618153999999663
 20
114.2511599999999703
 30
0.0
 11
22.6618153999999663
 21
104.7511599999999703
 31
0.0
  0
LINE
  5
5A
100
AcDbEntity
  8
0
 62
0
370
-1
 48
1.0
  6
BYLAYER
100
AcDbLine
 10
22.6618153999999663
 20
104.7511599999999703
 30
0.0
 11
9.5001853999999639
 21
104.7511599999999703
 31
0.0
  0
LINE
  5
5B
100
AcDbEntity
  8
0
 62
0
370
-1
 48
1.0
  6
BYLAYER
100
AcDbLine
 10
9.5001853999999639
 20
104.7511599999999703
 30
0.0
 11
9.5001853999999639
 21
9.5006599999999821
 31
0.0
  0
LINE
  5
5C
100
AcDbEntity
  8
0
 62
0
370
-1
 48
1.0
  6
BYLAYER
100
AcDbLine
 10
9.5001853999999639
 20
9.5006599999999821
 30
0.0
 11
323.8269153999999617
 21
9.5006599999999821
 31
0.0
  0
LINE
  5
5D
100
AcDbEntity
  8
0
 62
0
370
-1
 48
1.0
  6
BYLAYER
100
AcDbLine
 10
323.8269153999999617
 20
9.5006599999999821
 30
0.0
 11
323.8269153999999617
 21
104.7511599999999703
 31
0.0
  0
LINE
  5
5E
100
AcDbEntity
  8
0
 62
0
370
-1
 48
1.0
  6
BYLAYER
100
AcDbLine
 10
323.8269153999999617
 20
104.7511599999999703
 30
0.0
 11
30.6627153999999678
 21
104.7511599999999703
 31
0.0
  0
LINE
  5
5F
100
AcDbEntity
  8
0
 62
0
370
-1
 48
1.0
  6
BYLAYER
100
AcDbLine
 10
30.6627153999999678
 20
104.7511599999999703
 30
0.0
 11
30.6627153999999678
 21
114.2511599999999703
 31
0.0
  0
LINE
  5
60
100
AcDbEntity
  8
0
 62
0
370
-1
 48
1.0
  6
BYLAYER
100
AcDbLine
 10
30.6627153999999678
 20
114.2511599999999703
 30
0.0
 11
328.3259153999998716
 21
114.2511599999999703
 31
0.0
  0
LINE
  5
61
100
AcDbEntity
  8
0
 62
0
370
-1
 48
1.0
  6
BYLAYER
100
AcDbLine
 10
328.3259153999998716
 20
114.2511599999999703
 30
0.0
 11
328.7189153999999007
 21
114.2361599999999839
 31
0.0
  0
LINE
  5
62
100
AcDbEntity
  8
0
 62
0
370
-1
 48
1.0
  6
BYLAYER
100
AcDbLine
 10
328.7189153999999007
 20
114.2361599999999839
 30
0.0
 11
329.1089153999998871
 21
114.1891599999999585
 31
0.0
  0
LINE
  5
63
100
AcDbEntity
  8
0
 62
0
370
-1
 48
1.0
  6
BYLAYER
100
AcDbLine
 10
329.1089153999998871
 20
114.1891599999999585
 30
0.0
 11
329.4929153999999016
 21
114.1131599999999935
 31
0.0
  0
LINE
  5
64
100
AcDbEntity
  8
0
 62
0
370
-1
 48
1.0
  6
BYLAYER
100
AcDbLine
 10
329.4929153999999016
 20
114.1131599999999935
 30
0.0
 11
329.8719153999999207
 21
114.0071599999999705
 31
0.0
  0
LINE
  5
65
100
AcDbEntity
  8
0
 62
0
370
-1
 48
1.0
  6
BYLAYER
100
AcDbLine
 10
329.8719153999999207
 20
114.0071599999999705
 30
0.0
 11
330.2399153999998589
 21
113.8701599999999985
 31
0.0
  0
LINE
  5
66
100
AcDbEntity
  8
0
 62
0
370
-1
 48
1.0
  6
BYLAYER
100
AcDbLine
 10
330.2399153999998589
 20
113.8701599999999985
 30
0.0
 11
330.5959153999998534
 21
113.7071599999999876
 31
0.0
  0
LINE
  5
67
100
AcDbEntity
  8
0
 62
0
370
-1
 48
1.0
  6
BYLAYER
100
AcDbLine
 10
330.5959153999998534
 20
113.7071599999999876
 30
0.0
 11
330.938915399999928
 21
113.5151599999999803
 31
0.0
  0
LINE
  5
68
100
AcDbEntity
  8
0
 62
0
370
-1
 48
1.0
  6
BYLAYER
100
AcDbLine
 10
330.938915399999928
 20
113.5151599999999803
 30
0.0
 11
331.2639153999998598
 21
113.2961599999999862
 31
0.0
  0
LINE
  5
69
100
AcDbEntity
  8
0
 62
0
370
-1
 48
1.0
  6
BYLAYER
100
AcDbLine
 10
331.2639153999998598
 20
113.2961599999999862
 30
0.0
 11
331.5739153999999189
 21
113.0531599999999912
 31
0.0
  0
LINE
  5
6A
100
AcDbEntity
  8
0
 62
0
370
-1
 48
1.0
  6
BYLAYER
100
AcDbLine
 10
331.5739153999999189
 20
113.0531599999999912
 30
0.0
 11
331.8619153999999298
 21
112.7861599999999953
 31
0.0
  0
LINE
  5
6B
100
AcDbEntity
  8
0
 62
0
370
-1
 48
1.0
  6
BYLAYER
100
AcDbLine
 10
331.8619153999999298
 20
112.7861599999999953
 30
0.0
 11
332.1279153999998925
 21
112.4981599999999844
 31
0.0
  0
LINE
  5
6C
100
AcDbEntity
  8
0
 62
0
370
-1
 48
1.0
  6
BYLAYER
100
AcDbLine
 10
332.1279153999998925
 20
112.4981599999999844
 30
0.0
 11
332.3719153999999207
 21
112.1891599999999585
 31
0.0
  0
LINE
  5
6D
100
AcDbEntity
  8
0
 62
0
370
-1
 48
1.0
  6
BYLAYER
100
AcDbLine
 10
332.3719153999999207
 20
112.1891599999999585
 30
0.0
 11
332.5899153999998816
 21
111.8641599999999698
 31
0.0
  0
LINE
  5
6E
100
AcDbEntity
  8
0
 62
0
370
-1
 48
1.0
  6
BYLAYER
100
AcDbLine
 10
332.5899153999998816
 20
111.8641599999999698
 30
0.0
 11
332.7809153999999126
 21
111.5211599999999805
 31
0.0
  0
LINE
  5
6F
100
AcDbEntity
  8
0
 62
0
370
-1
 48
1.0
  6
BYLAYER
100
AcDbLine
 10
332.7809153999999126
 20
111.5211599999999805
 30
0.0
 11
332.9449153999998998
 21
111.1641599999999812
 31
0.0
  0
LINE
  5
70
100
AcDbEntity
  8
0
 62
0
370
-1
 48
1.0
  6
BYLAYER
100
AcDbLine
 10
332.9449153999998998
 20
111.1641599999999812
 30
0.0
 11
333.0819153999999571
 21
110.7961599999999862
 31
0.0
  0
LINE
  5
71
100
AcDbEntity
  8
0
 62
0
370
-1
 48
1.0
  6
BYLAYER
100
AcDbLine
 10
333.0819153999999571
 20
110.7961599999999862
 30
0.0
 11
333.1879153999999517
 21
110.4181599999999719
 31
0.0
  0
LINE
  5
72
100
AcDbEntity
  8
0
 62
0
370
-1
 48
1.0
  6
BYLAYER
100
AcDbLine
 10
333.1879153999999517
 20
110.4181599999999719
 30
0.0
 11
333.2649153999999498
 21
110.0341599999999858
 31
0.0
  0
LINE
  5
73
100
AcDbEntity
  8
0
 62
0
370
-1
 48
1.0
  6
BYLAYER
100
AcDbLine
 10
333.2649153999999498
 20
110.0341599999999858
 30
0.0
 11
333.3099153999999089
 21
109.644159999999971
 31
0.0
  0
LINE
  5
74
100
AcDbEntity
  8
0
 62
0
370
-1
 48
1.0
  6
BYLAYER
100
AcDbLine
 10
333.3099153999999089
 20
109.644159999999971
 30
0.0
 11
333.3259153999998716
 21
109.2501599999999939
 31
0.0
  0
LINE
  5
75
100
AcDbEntity
  8
0
 62
0
370
-1
 48
1.0
  6
BYLAYER
100
AcDbLine
 10
333.3259153999998716
 20
109.2501599999999939
 30
0.0
 11
333.3269153999999617
 21
5.0
 31
0.0
  0
LINE
  5
76
100
AcDbEntity
  8
0
 62
0
370
-1
 48
1.0
  6
BYLAYER
100
AcDbLine
 10
333.3269153999999617
 20
5.0
 30
0.0
 11
333.3099153999999089
 21
4.607249999999965
 31
0.0
  0
LINE
  5
77
100
AcDbEntity
  8
0
 62
0
370
-1
 48
1.0
  6
BYLAYER
100
AcDbLine
 10
333.3099153999999089
 20
4.607249999999965
 30
0.0
 11
333.2649153999999498
 21
4.2172499999999786
 31
0.0
  0
LINE
  5
78
100
AcDbEntity
  8
0
 62
0
370
-1
 48
1.0
  6
BYLAYER
100
AcDbLine
 10
333.2649153999999498
 20
4.2172499999999786
 30
0.0
 11
333.1879153999999517
 21
3.8327999999999633
 31
0.0
  0
LINE
  5
79
100
AcDbEntity
  8
0
 62
0
370
-1
 48
1.0
  6
BYLAYER
100
AcDbLine
 10
333.1879153999999517
 20
3.8327999999999633
 30
0.0
 11
333.0819153999999571
 21
3.4538400000000138
 31
0.0
  0
LINE
  5
7A
100
AcDbEntity
  8
0
 62
0
370
-1
 48
1.0
  6
BYLAYER
100
AcDbLine
 10
333.0819153999999571
 20
3.4538400000000138
 30
0.0
 11
332.9449153999998998
 21
3.0858900000000062
 31
0.0
  0
LINE
  5
7B
100
AcDbEntity
  8
0
 62
0
370
-1
 48
1.0
  6
BYLAYER
100
AcDbLine
 10
332.9449153999998998
 20
3.0858900000000062
 30
0.0
 11
332.7809153999999126
 21
2.7303600000000188
 31
0.0
  0
LINE
  5
7C
100
AcDbEntity
  8
0
 62
0
370
-1
 48
1.0
  6
BYLAYER
100
AcDbLine
 10
332.7809153999999126
 20
2.7303600000000188
 30
0.0
 11
332.5899153999998816
 21
2.3872299999999882
 31
0.0
  0
LINE
  5
7D
100
AcDbEntity
  8
0
 62
0
370
-1
 48
1.0
  6
BYLAYER
100
AcDbLine
 10
332.5899153999998816
 20
2.3872299999999882
 30
0.0
 11
332.3719153999999207
 21
2.0620099999999866
 31
0.0
  0
LINE
  5
7E
100
AcDbEntity
  8
0
 62
0
370
-1
 48
1.0
  6
BYLAYER
100
AcDbLine
 10
332.3719153999999207
 20
2.0620099999999866
 30
0.0
 11
332.1279153999998925
 21
1.7519499999999653
 31
0.0
  0
LINE
  5
7F
100
AcDbEntity
  8
0
 62
0
370
-1
 48
1.0
  6
BYLAYER
100
AcDbLine
 10
332.1279153999998925
 20
1.7519499999999653
 30
0.0
 11
331.8619153999999298
 21
1.4639399999999796
 31
0.0
  0
LINE
  5
80
100
AcDbEntity
  8
0
 62
0
370
-1
 48
1.0
  6
BYLAYER
100
AcDbLine
 10
331.8619153999999298
 20
1.4639399999999796
 30
0.0
 11
331.5739153999999189
 21
1.1979799999999727
 31
0.0
  0
LINE
  5
81
100
AcDbEntity
  8
0
 62
0
370
-1
 48
1.0
  6
BYLAYER
100
AcDbLine
 10
331.5739153999999189
 20
1.1979799999999727
 30
0.0
 11
331.2639153999998598
 21
0.9540700000000015
 31
0.0
  0
LINE
  5
82
100
AcDbEntity
  8
0
 62
0
370
-1
 48
1.0
  6
BYLAYER
100
AcDbLine
 10
331.2639153999998598
 20
0.9540700000000015
 30
0.0
 11
330.938915399999928
 21
0.7363300000000095
 31
0.0
  0
LINE
  5
83
100
AcDbEntity
  8
0
 62
0
370
-1
 48
1.0
  6
BYLAYER
100
AcDbLine
 10
330.938915399999928
 20
0.7363300000000095
 30
0.0
 11
330.5959153999998534
 21
0.5447869999999853
 31
0.0
  0
LINE
  5
84
100
AcDbEntity
  8
0
 62
0
370
-1
 48
1.0
  6
BYLAYER
100
AcDbLine
 10
330.5959153999998534
 20
0.5447869999999853
 30
0.0
 11
330.2399153999998589
 21
0.3808010000000195
 31
0.0
  0
LINE
  5
85
100
AcDbEntity
  8
0
 62
0
370
-1
 48
1.0
  6
BYLAYER
100
AcDbLine
 10
330.2399153999998589
 20
0.3808010000000195
 30
0.0
 11
329.8719153999999207
 21
0.2443749999999909
 31
0.0
  0
LINE
  5
86
100
AcDbEntity
  8
0
 62
0
370
-1
 48
1.0
  6
BYLAYER
100
AcDbLine
 10
329.8719153999999207
 20
0.2443749999999909
 30
0.0
 11
329.4929153999999016
 21
0.1382669999999848
 31
0.0
  0
LINE
  5
87
100
AcDbEntity
  8
0
 62
0
370
-1
 48
1.0
  6
BYLAYER
100
AcDbLine
 10
329.4929153999999016
 20
0.1382669999999848
 30
0.0
 11
329.1089153999998871
 21
0.0610970000000179
 31
0.0
  0
LINE
  5
88
100
AcDbEntity
  8
0
 62
0
370
-1
 48
1.0
  6
BYLAYER
100
AcDbLine
 10
329.1089153999998871
 20
0.0610970000000179
 30
0.0
 11
328.7189153999999007
 21
0.0156210000000101
 31
0.0
  0
LINE
  5
89
100
AcDbEntity
  8
0
 62
0
370
-1
 48
1.0
  6
BYLAYER
100
AcDbLine
 10
328.7189153999999007
 20
0.0156210000000101
 30
0.0
 11
328.3259153999998716
 21
-0.0009150000000204
 31
0.0
  0
LINE
  5
8A
100
AcDbEntity
  8
0
 62
0
370
-1
 48
1.0
  6
BYLAYER
100
AcDbLine
 10
328.3259153999998716
 20
-0.0009150000000204
 30
0.0
 11
5.0008953999999903
 21
0.0004629999999679
 31
0.0
  0
LINE
  5
8B
100
AcDbEntity
  8
0
 62
0
370
-1
 48
1.0
  6
BYLAYER
100
AcDbLine
 10
5.0008953999999903
 20
0.0004629999999679
 30
0.0
 11
4.6067753999999468
 21
0.0156210000000101
 31
0.0
  0
LINE
  5
8C
100
AcDbEntity
  8
0
 62
0
370
-1
 48
1.0
  6
BYLAYER
100
AcDbLine
 10
4.6067753999999468
 20
0.0156210000000101
 30
0.0
 11
4.2168153999999731
 21
0.0610970000000179
 31
0.0
  0
LINE
  5
8D
100
AcDbEntity
  8
0
 62
0
370
-1
 48
1.0
  6
BYLAYER
100
AcDbLine
 10
4.2168153999999731
 20
0.0610970000000179
 30
0.0
 11
3.8323153999999704
 21
0.1382669999999848
 31
0.0
  0
LINE
  5
8E
100
AcDbEntity
  8
0
 62
0
370
-1
 48
1.0
  6
BYLAYER
100
AcDbLine
 10
3.8323153999999704
 20
0.1382669999999848
 30
0.0
 11
3.4547453999999789
 21
0.2443749999999909
 31
0.0
  0
LINE
  5
8F
100
AcDbEntity
  8
0
 62
0
370
-1
 48
1.0
  6
BYLAYER
100
AcDbLine
 10
3.4547453999999789
 20
0.2443749999999909
 30
0.0
 11
3.0868054000000029
 21
0.3808010000000195
 31
0.0
  0
LINE
  5
90
100
AcDbEntity
  8
0
 62
0
370
-1
 48
1.0
  6
BYLAYER
100
AcDbLine
 10
3.0868054000000029
 20
0.3808010000000195
 30
0.0
 11
2.7298953999999753
 21
0.5447869999999853
 31
0.0
  0
LINE
  5
91
100
AcDbEntity
  8
0
 62
0
370
-1
 48
1.0
  6
BYLAYER
100
AcDbLine
 10
2.7298953999999753
 20
0.5447869999999853
 30
0.0
 11
2.3867653999999447
 21
0.7363300000000095
 31
0.0
  0
LINE
  5
92
100
AcDbEntity
  8
0
 62
0
370
-1
 48
1.0
  6
BYLAYER
100
AcDbLine
 10
2.3867653999999447
 20
0.7363300000000095
 30
0.0
 11
2.0615454
 21
0.9540700000000015
 31
0.0
  0
LINE
  5
93
100
AcDbEntity
  8
0
 62
0
370
-1
 48
1.0
  6
BYLAYER
100
AcDbLine
 10
2.0615454
 20
0.9540700000000015
 30
0.0
 11
1.7528653999999619
 21
1.1979799999999727
 31
0.0
  0
LINE
  5
94
100
AcDbEntity
  8
0
 62
0
370
-1
 48
1.0
  6
BYLAYER
100
AcDbLine
 10
1.7528653999999619
 20
1.1979799999999727
 30
0.0
 11
1.4648553999999763
 21
1.4639399999999796
 31
0.0
  0
LINE
  5
95
100
AcDbEntity
  8
0
 62
0
370
-1
 48
1.0
  6
BYLAYER
100
AcDbLine
 10
1.4648553999999763
 20
1.4639399999999796
 30
0.0
 11
1.1975153999999293
 21
1.7519499999999653
 31
0.0
  0
LINE
  5
96
100
AcDbEntity
  8
0
 62
0
370
-1
 48
1.0
  6
BYLAYER
100
AcDbLine
 10
1.1975153999999293
 20
1.7519499999999653
 30
0.0
 11
0.9549753999999666
 21
2.0620099999999866
 31
0.0
  0
LINE
  5
97
100
AcDbEntity
  8
0
 62
0
370
-1
 48
1.0
  6
BYLAYER
100
AcDbLine
 10
0.9549753999999666
 20
2.0620099999999866
 30
0.0
 11
0.7358723999999484
 21
2.3872299999999882
 31
0.0
  0
LINE
  5
98
100
AcDbEntity
  8
0
 62
0
370
-1
 48
1.0
  6
BYLAYER
100
AcDbLine
 10
0.7358723999999484
 20
2.3872299999999882
 30
0.0
 11
0.5443253999999342
 21
2.7303600000000188
 31
0.0
  0
LINE
  5
99
100
AcDbEntity
  8
0
 62
0
370
-1
 48
1.0
  6
BYLAYER
100
AcDbLine
 10
0.5443253999999342
 20
2.7303600000000188
 30
0.0
 11
0.3803393999999685
 21
3.0858900000000062
 31
0.0
  0
LINE
  5
9A
100
AcDbEntity
  8
0
 62
0
370
-1
 48
1.0
  6
BYLAYER
100
AcDbLine
 10
0.3803393999999685
 20
3.0858900000000062
 30
0.0
 11
0.2439133999999967
 21
3.4538400000000138
 31
0.0
  0
LINE
  5
9B
100
AcDbEntity
  8
0
 62
0
370
-1
 48
1.0
  6
BYLAYER
100
AcDbLine
 10
0.2439133999999967
 20
3.4538400000000138
 30
0.0
 11
0.1378033999999388
 21
3.8327999999999633
 31
0.0
  0
LINE
  5
9C
100
AcDbEntity
  8
0
 62
0
370
-1
 48
1.0
  6
BYLAYER
100
AcDbLine
 10
0.1378033999999388
 20
3.8327999999999633
 30
0.0
 11
0.0620123999999578
 21
4.2172499999999786
 31
0.0
  0
LINE
  5
9D
100
AcDbEntity
  8
0
 62
0
370
-1
 48
1.0
  6
BYLAYER
100
AcDbLine
 10
0.0620123999999578
 20
4.2172499999999786
 30
0.0
 11
0.0151583999999616
 21
4.607249999999965
 31
0.0
  0
LINE
  5
9E
100
AcDbEntity
  8
0
 62
0
370
-1
 48
1.0
  6
BYLAYER
100
AcDbLine
 10
0.0151583999999616
 20
4.607249999999965
 30
0.0
 11
0.0
 21
5.0
 31
0.0
  0
LINE
  5
9F
100
AcDbEntity
  8
0
 62
0
370
-1
 48
1.0
  6
BYLAYER
100
AcDbLine
 10
0.0
 20
5.0
 30
0.0
 11
0.0
 21
109.2501599999999939
 31
0.0
  0
LINE
  5
A0
100
AcDbEntity
  8
0
 62
0
370
-1
 48
1.0
  6
BYLAYER
100
AcDbLine
 10
0.0
 20
109.2501599999999939
 30
0.0
 11
0.0151583999999616
 21
109.644159999999971
 31
0.0
  0
LINE
  5
A1
100
AcDbEntity
  8
0
 62
0
370
-1
 48
1.0
  6
BYLAYER
100
AcDbLine
 10
0.0151583999999616
 20
109.644159999999971
 30
0.0
 11
0.0620123999999578
 21
110.0341599999999858
 31
0.0
  0
LINE
  5
A2
100
AcDbEntity
  8
0
 62
0
370
-1
 48
1.0
  6
BYLAYER
100
AcDbLine
 10
0.0620123999999578
 20
110.0341599999999858
 30
0.0
 11
0.1378033999999388
 21
110.4181599999999719
 31
0.0
  0
LINE
  5
A3
100
AcDbEntity
  8
0
 62
0
370
-1
 48
1.0
  6
BYLAYER
100
AcDbLine
 10
0.1378033999999388
 20
110.4181599999999719
 30
0.0
 11
0.2439133999999967
 21
110.7961599999999862
 31
0.0
  0
LINE
  5
A4
100
AcDbEntity
  8
0
 62
0
370
-1
 48
1.0
  6
BYLAYER
100
AcDbLine
 10
0.2439133999999967
 20
110.7961599999999862
 30
0.0
 11
0.3803393999999685
 21
111.1641599999999812
 31
0.0
  0
LINE
  5
A5
100
AcDbEntity
  8
0
 62
0
370
-1
 48
1.0
  6
BYLAYER
100
AcDbLine
 10
0.3803393999999685
 20
111.1641599999999812
 30
0.0
 11
0.5443253999999342
 21
111.5211599999999805
 31
0.0
  0
LINE
  5
A6
100
AcDbEntity
  8
0
 62
0
370
-1
 48
1.0
  6
BYLAYER
100
AcDbLine
 10
0.5443253999999342
 20
111.5211599999999805
 30
0.0
 11
0.7358723999999484
 21
111.8641599999999698
 31
0.0
  0
LINE
  5
A7
100
AcDbEntity
  8
0
 62
0
370
-1
 48
1.0
  6
BYLAYER
100
AcDbLine
 10
0.7358723999999484
 20
111.8641599999999698
 30
0.0
 11
0.9549753999999666
 21
112.1891599999999585
 31
0.0
  0
LINE
  5
A8
100
AcDbEntity
  8
0
 62
0
370
-1
 48
1.0
  6
BYLAYER
100
AcDbLine
 10
0.9549753999999666
 20
112.1891599999999585
 30
0.0
 11
1.1975153999999293
 21
112.4981599999999844
 31
0.0
  0
LINE
  5
A9
100
AcDbEntity
  8
0
 62
0
370
-1
 48
1.0
  6
BYLAYER
100
AcDbLine
 10
1.1975153999999293
 20
112.4981599999999844
 30
0.0
 11
1.4648553999999763
 21
112.7861599999999953
 31
0.0
  0
LINE
  5
AA
100
AcDbEntity
  8
0
 62
0
370
-1
 48
1.0
  6
BYLAYER
100
AcDbLine
 10
1.4648553999999763
 20
112.7861599999999953
 30
0.0
 11
1.7528653999999619
 21
113.0531599999999912
 31
0.0
  0
LINE
  5
AB
100
AcDbEntity
  8
0
 62
0
370
-1
 48
1.0
  6
BYLAYER
100
AcDbLine
 10
1.7528653999999619
 20
113.0531599999999912
 30
0.0
 11
2.0615454
 21
113.2961599999999862
 31
0.0
  0
LINE
  5
AC
100
AcDbEntity
  8
0
 62
0
370
-1
 48
1.0
  6
BYLAYER
100
AcDbLine
 10
2.0615454
 20
113.2961599999999862
 30
0.0
 11
2.3867653999999447
 21
113.5151599999999803
 31
0.0
  0
LINE
  5
AD
100
AcDbEntity
  8
0
 62
0
370
-1
 48
1.0
  6
BYLAYER
100
AcDbLine
 10
2.3867653999999447
 20
113.5151599999999803
 30
0.0
 11
2.7298953999999753
 21
113.7071599999999876
 31
0.0
  0
LINE
  5
AE
100
AcDbEntity
  8
0
 62
0
370
-1
 48
1.0
  6
BYLAYER
100
AcDbLine
 10
2.7298953999999753
 20
113.7071599999999876
 30
0.0
 11
3.0868054000000029
 21
113.8701599999999985
 31
0.0
  0
LINE
  5
AF
100
AcDbEntity
  8
0
 62
0
370
-1
 48
1.0
  6
BYLAYER
100
AcDbLine
 10
3.0868054000000029
 20
113.8701599999999985
 30
0.0
 11
3.4547453999999789
 21
114.0071599999999705
 31
0.0
  0
LINE
  5
B0
100
AcDbEntity
  8
0
 62
0
370
-1
 48
1.0
  6
BYLAYER
100
AcDbLine
 10
3.4547453999999789
 20
114.0071599999999705
 30
0.0
 11
3.8323153999999704
 21
114.1131599999999935
 31
0.0
  0
LINE
  5
B1
100
AcDbEntity
  8
0
 62
0
370
-1
 48
1.0
  6
BYLAYER
100
AcDbLine
 10
3.8323153999999704
 20
114.1131599999999935
 30
0.0
 11
4.2168153999999731
 21
114.1891599999999585
 31
0.0
  0
LINE
  5
B2
100
AcDbEntity
  8
0
 62
0
370
-1
 48
1.0
  6
BYLAYER
100
AcDbLine
 10
4.2168153999999731
 20
114.1891599999999585
 30
0.0
 11
4.6067753999999468
 21
114.2361599999999839
 31
0.0
  0
LINE
  5
B3
100
AcDbEntity
  8
0
 62
0
370
-1
 48
1.0
  6
BYLAYER
100
AcDbLine
 10
4.6067753999999468
 20
114.2361599999999839
 30
0.0
 11
5.0008953999999903
 21
114.2511599999999703
 31
0.0
  0
LINE
  5
B4
100
AcDbEntity
  8
0
 62
0
370
-1
 48
1.0
  6
BYLAYER
100
AcDbLine
 10
5.0008953999999903
 20
114.2511599999999703
 30
0.0
 11
22.6618153999999663
 21
114.2511599999999703
 31
0.0
  0
LINE
  5
B5
100
AcDbEntity
  8
0
 62
0
370
-1
 48
1.0
  6
BYLAYER
100
AcDbLine
 10
327.2691313169316345
 20
6.6998599999999726
 30
0.0
 11
326.9907813169316455
 21
6.557899999999961
 31
0.0
  0
LINE
  5
B6
100
AcDbEntity
  8
0
 62
0
370
-1
 48
1.0
  6
BYLAYER
100
AcDbLine
 10
326.9907813169316455
 20
6.557899999999961
 30
0.0
 11
326.7689213169316531
 21
6.3360399999999686
 31
0.0
  0
LINE
  5
B7
100
AcDbEntity
  8
0
 62
0
370
-1
 48
1.0
  6
BYLAYER
100
AcDbLine
 10
326.7689213169316531
 20
6.3360399999999686
 30
0.0
 11
326.6269813169316194
 21
6.0576599999999701
 31
0.0
  0
LINE
  5
B8
100
AcDbEntity
  8
0
 62
0
370
-1
 48
1.0
  6
BYLAYER
100
AcDbLine
 10
326.6269813169316194
 20
6.0576599999999701
 30
0.0
 11
326.5773713169316466
 21
5.7489799999999605
 31
0.0
  0
LINE
  5
B9
100
AcDbEntity
  8
0
 62
0
370
-1
 48
1.0
  6
BYLAYER
100
AcDbLine
 10
326.5773713169316466
 20
5.7489799999999605
 30
0.0
 11
326.6269813169316194
 21
5.4389199999999676
 31
0.0
  0
LINE
  5
BA
100
AcDbEntity
  8
0
 62
0
370
-1
 48
1.0
  6
BYLAYER
100
AcDbLine
 10
326.6269813169316194
 20
5.4389199999999676
 30
0.0
 11
326.7689213169316531
 21
5.1605799999999817
 31
0.0
  0
LINE
  5
BB
100
AcDbEntity
  8
0
 62
0
370
-1
 48
1.0
  6
BYLAYER
100
AcDbLine
 10
326.7689213169316531
 20
5.1605799999999817
 30
0.0
 11
326.9907813169316455
 21
4.9387099999999862
 31
0.0
  0
LINE
  5
BC
100
AcDbEntity
  8
0
 62
0
370
-1
 48
1.0
  6
BYLAYER
100
AcDbLine
 10
326.9907813169316455
 20
4.9387099999999862
 30
0.0
 11
327.2691313169316345
 21
4.7967699999999809
 31
0.0
  0
LINE
  5
BD
100
AcDbEntity
  8
0
 62
0
370
-1
 48
1.0
  6
BYLAYER
100
AcDbLine
 10
327.2691313169316345
 20
4.7967699999999809
 30
0.0
 11
327.5778113169316157
 21
4.7485399999999629
 31
0.0
  0
LINE
  5
BE
100
AcDbEntity
  8
0
 62
0
370
-1
 48
1.0
  6
BYLAYER
100
AcDbLine
 10
327.5778113169316157
 20
4.7485399999999629
 30
0.0
 11
327.887871316931637
 21
4.7967699999999809
 31
0.0
  0
LINE
  5
BF
100
AcDbEntity
  8
0
 62
0
370
-1
 48
1.0
  6
BYLAYER
100
AcDbLine
 10
327.887871316931637
 20
4.7967699999999809
 30
0.0
 11
328.166251316931664
 21
4.9387099999999862
 31
0.0
  0
LINE
  5
C0
100
AcDbEntity
  8
0
 62
0
370
-1
 48
1.0
  6
BYLAYER
100
AcDbLine
 10
328.166251316931664
 20
4.9387099999999862
 30
0.0
 11
328.3881113169316563
 21
5.1605799999999817
 31
0.0
  0
LINE
  5
C1
100
AcDbEntity
  8
0
 62
0
370
-1
 48
1.0
  6
BYLAYER
100
AcDbLine
 10
328.3881113169316563
 20
5.1605799999999817
 30
0.0
 11
328.5300713169316396
 21
5.4389199999999676
 31
0.0
  0
LINE
  5
C2
100
AcDbEntity
  8
0
 62
0
370
-1
 48
1.0
  6
BYLAYER
100
AcDbLine
 10
328.5300713169316396
 20
5.4389199999999676
 30
0.0
 11
328.5782913169316544
 21
5.7489799999999605
 31
0.0
  0
LINE
  5
C3
100
AcDbEntity
  8
0
 62
0
370
-1
 48
1.0
  6
BYLAYER
100
AcDbLine
 10
328.5782913169316544
 20
5.7489799999999605
 30
0.0
 11
328.5300713169316396
 21
6.0576599999999701
 31
0.0
  0
LINE
  5
C4
100
AcDbEntity
  8
0
 62
0
370
-1
 48
1.0
  6
BYLAYER
100
AcDbLine
 10
328.5300713169316396
 20
6.0576599999999701
 30
0.0
 11
328.3881113169316563
 21
6.3360399999999686
 31
0.0
  0
LINE
  5
C5
100
AcDbEntity
  8
0
 62
0
370
-1
 48
1.0
  6
BYLAYER
100
AcDbLine
 10
328.3881113169316563
 20
6.3360399999999686
 30
0.0
 11
328.166251316931664
 21
6.557899999999961
 31
0.0
  0
LINE
  5
C6
100
AcDbEntity
  8
0
 62
0
370
-1
 48
1.0
  6
BYLAYER
100
AcDbLine
 10
328.166251316931664
 20
6.557899999999961
 30
0.0
 11
327.887871316931637
 21
6.6998599999999726
 31
0.0
  0
LINE
  5
C7
100
AcDbEntity
  8
0
 62
0
370
-1
 48
1.0
  6
BYLAYER
100
AcDbLine
 10
327.887871316931637
 20
6.6998599999999726
 30
0.0
 11
327.5791913169316558
 21
6.7494599999999707
 31
0.0
  0
LINE
  5
C8
100
AcDbEntity
  8
0
 62
0
370
-1
 48
1.0
  6
BYLAYER
100
AcDbLine
 10
327.5791913169316558
 20
6.7494599999999707
 30
0.0
 11
327.2691313169316345
 21
6.6998599999999726
 31
0.0
  0
LINE
  5
C9
100
AcDbEntity
  8
0
 62
0
370
-1
 48
1.0
  6
BYLAYER
100
AcDbLine
 10
5.4424752966204437
 20
109.4501599999999542
 30
0.0
 11
5.1634752966204474
 21
109.309159999999963
 31
0.0
  0
LINE
  5
CA
100
AcDbEntity
  8
0
 62
0
370
-1
 48
1.0
  6
BYLAYER
100
AcDbLine
 10
327.2683998347996521
 20
109.4501599999999542
 30
0.0
 11
326.9893998347996558
 21
109.309159999999963
 31
0.0
  0
LINE
  5
CB
100
AcDbEntity
  8
0
 62
0
370
-1
 48
1.0
  6
BYLAYER
100
AcDbLine
 10
166.3571962025059747
 20
6.7004599999999357
 30
0.0
 11
166.0781962025059784
 21
6.5594599999999446
 31
0.0
  0
LINE
  5
CC
100
AcDbEntity
  8
0
 62
0
370
-1
 48
1.0
  6
BYLAYER
100
AcDbLine
 10
166.3603709469171008
 20
109.4501599999999542
 30
0.0
 11
166.0813709469171044
 21
109.309159999999963
 31
0.0
  0
LINE
  5
CD
100
AcDbEntity
  8
0
 62
0
370
-1
 48
1.0
  6
BYLAYER
100
AcDbLine
 10
5.4424926745289781
 20
6.7004599999999357
 30
0.0
 11
5.1634926745289818
 21
6.5594599999999161
 31
0.0
  0
LINE
  5
CE
100
AcDbEntity
  8
0
 62
0
370
-1
 48
1.0
  6
BYLAYER
100
AcDbLine
 10
5.1634752966204474
 20
109.309159999999963
 30
0.0
 11
4.9414752966204105
 21
109.0871599999999546
 31
0.0
  0
LINE
  5
CF
100
AcDbEntity
  8
0
 62
0
370
-1
 48
1.0
  6
BYLAYER
100
AcDbLine
 10
326.9893998347996558
 20
109.309159999999963
 30
0.0
 11
326.7673998347996189
 21
109.0871599999999546
 31
0.0
  0
LINE
  5
D0
100
AcDbEntity
  8
0
 62
0
370
-1
 48
1.0
  6
BYLAYER
100
AcDbLine
 10
166.0781962025059784
 20
6.5594599999999446
 30
0.0
 11
165.8561962025059415
 21
6.3374599999999361
 31
0.0
  0
LINE
  5
D1
100
AcDbEntity
  8
0
 62
0
370
-1
 48
1.0
  6
BYLAYER
100
AcDbLine
 10
166.0813709469171044
 20
109.309159999999963
 30
0.0
 11
165.8593709469170676
 21
109.0871599999999546
 31
0.0
  0
LINE
  5
D2
100
AcDbEntity
  8
0
 62
0
370
-1
 48
1.0
  6
BYLAYER
100
AcDbLine
 10
5.1634926745289818
 20
6.5594599999999161
 30
0.0
 11
4.9414926745289449
 21
6.3374599999999361
 31
0.0
  0
LINE
  5
D3
100
AcDbEntity
  8
0
 62
0
370
-1
 48
1.0
  6
BYLAYER
100
AcDbLine
 10
4.9414752966204105
 20
109.0871599999999546
 30
0.0
 11
4.8004752966204478
 21
108.8081599999999582
 31
0.0
  0
LINE
  5
D4
100
AcDbEntity
  8
0
 62
0
370
-1
 48
1.0
  6
BYLAYER
100
AcDbLine
 10
326.7673998347996189
 20
109.0871599999999546
 30
0.0
 11
326.6263998347996562
 21
108.8081599999999582
 31
0.0
  0
LINE
  5
D5
100
AcDbEntity
  8
0
 62
0
370
-1
 48
1.0
  6
BYLAYER
100
AcDbLine
 10
165.8561962025059415
 20
6.3374599999999361
 30
0.0
 11
165.7151962025059788
 21
6.0584599999999398
 31
0.0
  0
LINE
  5
D6
100
AcDbEntity
  8
0
 62
0
370
-1
 48
1.0
  6
BYLAYER
100
AcDbLine
 10
165.8593709469170676
 20
109.0871599999999546
 30
0.0
 11
165.7183709469171049
 21
108.8081599999999582
 31
0.0
  0
LINE
  5
D7
100
AcDbEntity
  8
0
 62
0
370
-1
 48
1.0
  6
BYLAYER
100
AcDbLine
 10
4.9414926745289449
 20
6.3374599999999361
 30
0.0
 11
4.8004926745289822
 21
6.0584599999999398
 31
0.0
  0
LINE
  5
D8
100
AcDbEntity
  8
0
 62
0
370
-1
 48
1.0
  6
BYLAYER
100
AcDbLine
 10
4.8004752966204478
 20
108.8081599999999582
 30
0.0
 11
4.7514752966204128
 21
108.5001599999999655
 31
0.0
  0
LINE
  5
D9
100
AcDbEntity
  8
0
 62
0
370
-1
 48
1.0
  6
BYLAYER
100
AcDbLine
 10
326.6263998347996562
 20
108.8081599999999582
 30
0.0
 11
326.5773998347996212
 21
108.5001599999999655
 31
0.0
  0
LINE
  5
DA
100
AcDbEntity
  8
0
 62
0
370
-1
 48
1.0
  6
BYLAYER
100
AcDbLine
 10
165.7151962025059788
 20
6.0584599999999398
 30
0.0
 11
165.6661962025059438
 21
5.7504599999999471
 31
0.0
  0
LINE
  5
DB
100
AcDbEntity
  8
0
 62
0
370
-1
 48
1.0
  6
BYLAYER
100
AcDbLine
 10
165.7183709469171049
 20
108.8081599999999582
 30
0.0
 11
165.6693709469170699
 21
108.5001599999999655
 31
0.0
  0
LINE
  5
DC
100
AcDbEntity
  8
0
 62
0
370
-1
 48
1.0
  6
BYLAYER
100
AcDbLine
 10
4.8004926745289822
 20
6.0584599999999398
 30
0.0
 11
4.7514926745289472
 21
5.7504599999999471
 31
0.0
  0
LINE
  5
DD
100
AcDbEntity
  8
0
 62
0
370
-1
 48
1.0
  6
BYLAYER
100
AcDbLine
 10
4.7514752966204128
 20
108.5001599999999655
 30
0.0
 11
4.8004752966204478
 21
108.1901599999999632
 31
0.0
  0
LINE
  5
DE
100
AcDbEntity
  8
0
 62
0
370
-1
 48
1.0
  6
BYLAYER
100
AcDbLine
 10
326.5773998347996212
 20
108.5001599999999655
 30
0.0
 11
326.6263998347996562
 21
108.1901599999999632
 31
0.0
  0
LINE
  5
DF
100
AcDbEntity
  8
0
 62
0
370
-1
 48
1.0
  6
BYLAYER
100
AcDbLine
 10
165.6661962025059438
 20
5.7504599999999471
 30
0.0
 11
165.7151962025059788
 21
5.4404599999999448
 31
0.0
  0
LINE
  5
E0
100
AcDbEntity
  8
0
 62
0
370
-1
 48
1.0
  6
BYLAYER
100
AcDbLine
 10
165.6693709469170699
 20
108.5001599999999655
 30
0.0
 11
165.7183709469171049
 21
108.1901599999999632
 31
0.0
  0
LINE
  5
E1
100
AcDbEntity
  8
0
 62
0
370
-1
 48
1.0
  6
BYLAYER
100
AcDbLine
 10
4.7514926745289472
 20
5.7504599999999471
 30
0.0
 11
4.8004926745289822
 21
5.4404599999999448
 31
0.0
  0
LINE
  5
E2
100
AcDbEntity
  8
0
 62
0
370
-1
 48
1.0
  6
BYLAYER
100
AcDbLine
 10
4.8004752966204478
 20
108.1901599999999632
 30
0.0
 11
4.9414752966204105
 21
107.9111599999999669
 31
0.0
  0
LINE
  5
E3
100
AcDbEntity
  8
0
 62
0
370
-1
 48
1.0
  6
BYLAYER
100
AcDbLine
 10
326.6263998347996562
 20
108.1901599999999632
 30
0.0
 11
326.7673998347996189
 21
107.9111599999999669
 31
0.0
  0
LINE
  5
E4
100
AcDbEntity
  8
0
 62
0
370
-1
 48
1.0
  6
BYLAYER
100
AcDbLine
 10
165.7151962025059788
 20
5.4404599999999448
 30
0.0
 11
165.8561962025059415
 21
5.1614599999999484
 31
0.0
  0
LINE
  5
E5
100
AcDbEntity
  8
0
 62
0
370
-1
 48
1.0
  6
BYLAYER
100
AcDbLine
 10
165.7183709469171049
 20
108.1901599999999632
 30
0.0
 11
165.8593709469170676
 21
107.9111599999999669
 31
0.0
  0
LINE
  5
E6
100
AcDbEntity
  8
0
 62
0
370
-1
 48
1.0
  6
BYLAYER
100
AcDbLine
 10
4.8004926745289822
 20
5.4404599999999448
 30
0.0
 11
4.9414926745289449
 21
5.1614599999999484
 31
0.0
  0
LINE
  5
E7
100
AcDbEntity
  8
0
 62
0
370
-1
 48
1.0
  6
BYLAYER
100
AcDbLine
 10
4.9414752966204105
 20
107.9111599999999669
 30
0.0
 11
5.1634752966204474
 21
107.6891599999999869
 31
0.0
  0
LINE
  5
E8
100
AcDbEntity
  8
0
 62
0
370
-1
 48
1.0
  6
BYLAYER
100
AcDbLine
 10
326.7673998347996189
 20
107.9111599999999669
 30
0.0
 11
326.9893998347996558
 21
107.6891599999999869
 31
0.0
  0
LINE
  5
E9
100
AcDbEntity
  8
0
 62
0
370
-1
 48
1.0
  6
BYLAYER
100
AcDbLine
 10
165.8561962025059415
 20
5.1614599999999484
 30
0.0
 11
166.0781962025059784
 21
4.9394599999999684
 31
0.0
  0
LINE
  5
EA
100
AcDbEntity
  8
0
 62
0
370
-1
 48
1.0
  6
BYLAYER
100
AcDbLine
 10
165.8593709469170676
 20
107.9111599999999669
 30
0.0
 11
166.0813709469171044
 21
107.6891599999999869
 31
0.0
  0
LINE
  5
EB
100
AcDbEntity
  8
0
 62
0
370
-1
 48
1.0
  6
BYLAYER
100
AcDbLine
 10
4.9414926745289449
 20
5.1614599999999484
 30
0.0
 11
5.1634926745289818
 21
4.9394599999999684
 31
0.0
  0
LINE
  5
EC
100
AcDbEntity
  8
0
 62
0
370
-1
 48
1.0
  6
BYLAYER
100
AcDbLine
 10
5.1634752966204474
 20
107.6891599999999869
 30
0.0
 11
5.4424752966204437
 21
107.5471599999999626
 31
0.0
  0
LINE
  5
ED
100
AcDbEntity
  8
0
 62
0
370
-1
 48
1.0
  6
BYLAYER
100
AcDbLine
 10
326.9893998347996558
 20
107.6891599999999869
 30
0.0
 11
327.2683998347996521
 21
107.5471599999999626
 31
0.0
  0
LINE
  5
EE
100
AcDbEntity
  8
0
 62
0
370
-1
 48
1.0
  6
BYLAYER
100
AcDbLine
 10
166.0781962025059784
 20
4.9394599999999684
 30
0.0
 11
166.3571962025059747
 21
4.7974599999999441
 31
0.0
  0
LINE
  5
EF
100
AcDbEntity
  8
0
 62
0
370
-1
 48
1.0
  6
BYLAYER
100
AcDbLine
 10
166.0813709469171044
 20
107.6891599999999869
 30
0.0
 11
166.3603709469171008
 21
107.5471599999999626
 31
0.0
  0
LINE
  5
F0
100
AcDbEntity
  8
0
 62
0
370
-1
 48
1.0
  6
BYLAYER
100
AcDbLine
 10
5.1634926745289818
 20
4.9394599999999684
 30
0.0
 11
5.4424926745289781
 21
4.7974599999999725
 31
0.0
  0
LINE
  5
F1
100
AcDbEntity
  8
0
 62
0
370
-1
 48
1.0
  6
BYLAYER
100
AcDbLine
 10
5.4424752966204437
 20
107.5471599999999626
 30
0.0
 11
5.752475296620446
 21
107.4991599999999892
 31
0.0
  0
LINE
  5
F2
100
AcDbEntity
  8
0
 62
0
370
-1
 48
1.0
  6
BYLAYER
100
AcDbLine
 10
327.2683998347996521
 20
107.5471599999999626
 30
0.0
 11
327.5783998347996544
 21
107.4991599999999892
 31
0.0
  0
LINE
  5
F3
100
AcDbEntity
  8
0
 62
0
370
-1
 48
1.0
  6
BYLAYER
100
AcDbLine
 10
166.3571962025059747
 20
4.7974599999999441
 30
0.0
 11
166.667196202505977
 21
4.7494599999999707
 31
0.0
  0
LINE
  5
F4
100
AcDbEntity
  8
0
 62
0
370
-1
 48
1.0
  6
BYLAYER
100
AcDbLine
 10
166.3603709469171008
 20
107.5471599999999626
 30
0.0
 11
166.6703709469171031
 21
107.4991599999999892
 31
0.0
  0
LINE
  5
F5
100
AcDbEntity
  8
0
 62
0
370
-1
 48
1.0
  6
BYLAYER
100
AcDbLine
 10
5.4424926745289781
 20
4.7974599999999725
 30
0.0
 11
5.7524926745289804
 21
4.7494599999999707
 31
0.0
  0
LINE
  5
F6
100
AcDbEntity
  8
0
 62
0
370
-1
 48
1.0
  6
BYLAYER
100
AcDbLine
 10
5.752475296620446
 20
107.4991599999999892
 30
0.0
 11
6.0604752966204387
 21
107.5471599999999626
 31
0.0
  0
LINE
  5
F7
100
AcDbEntity
  8
0
 62
0
370
-1
 48
1.0
  6
BYLAYER
100
AcDbLine
 10
327.5783998347996544
 20
107.4991599999999892
 30
0.0
 11
327.8863998347996471
 21
107.5471599999999626
 31
0.0
  0
LINE
  5
F8
100
AcDbEntity
  8
0
 62
0
370
-1
 48
1.0
  6
BYLAYER
100
AcDbLine
 10
166.667196202505977
 20
4.7494599999999707
 30
0.0
 11
166.9751962025059697
 21
4.7974599999999441
 31
0.0
  0
LINE
  5
F9
100
AcDbEntity
  8
0
 62
0
370
-1
 48
1.0
  6
BYLAYER
100
AcDbLine
 10
166.6703709469171031
 20
107.4991599999999892
 30
0.0
 11
166.9783709469170958
 21
107.5471599999999626
 31
0.0
  0
LINE
  5
FA
100
AcDbEntity
  8
0
 62
0
370
-1
 48
1.0
  6
BYLAYER
100
AcDbLine
 10
5.7524926745289804
 20
4.7494599999999707
 30
0.0
 11
6.0604926745289731
 21
4.7974599999999725
 31
0.0
  0
LINE
  5
FB
100
AcDbEntity
  8
0
 62
0
370
-1
 48
1.0
  6
BYLAYER
100
AcDbLine
 10
6.0604752966204387
 20
107.5471599999999626
 30
0.0
 11
6.3394752966204351
 21
107.6891599999999869
 31
0.0
  0
LINE
  5
FC
100
AcDbEntity
  8
0
 62
0
370
-1
 48
1.0
  6
BYLAYER
100
AcDbLine
 10
327.8863998347996471
 20
107.5471599999999626
 30
0.0
 11
328.1653998347996435
 21
107.6891599999999869
 31
0.0
  0
LINE
  5
FD
100
AcDbEntity
  8
0
 62
0
370
-1
 48
1.0
  6
BYLAYER
100
AcDbLine
 10
166.9751962025059697
 20
4.7974599999999441
 30
0.0
 11
167.2541962025059661
 21
4.9394599999999684
 31
0.0
  0
LINE
  5
FE
100
AcDbEntity
  8
0
 62
0
370
-1
 48
1.0
  6
BYLAYER
100
AcDbLine
 10
166.9783709469170958
 20
107.5471599999999626
 30
0.0
 11
167.2573709469170922
 21
107.6891599999999869
 31
0.0
  0
LINE
  5
FF
100
AcDbEntity
  8
0
 62
0
370
-1
 48
1.0
  6
BYLAYER
100
AcDbLine
 10
6.0604926745289731
 20
4.7974599999999725
 30
0.0
 11
6.3394926745289695
 21
4.9394599999999684
 31
0.0
  0
LINE
  5
100
100
AcDbEntity
  8
0
 62
0
370
-1
 48
1.0
  6
BYLAYER
100
AcDbLine
 10
6.3394752966204351
 20
107.6891599999999869
 30
0.0
 11
6.5614752966204151
 21
107.9111599999999669
 31
0.0
  0
LINE
  5
101
100
AcDbEntity
  8
0
 62
0
370
-1
 48
1.0
  6
BYLAYER
100
AcDbLine
 10
328.1653998347996435
 20
107.6891599999999869
 30
0.0
 11
328.3873998347996235
 21
107.9111599999999669
 31
0.0
  0
LINE
  5
102
100
AcDbEntity
  8
0
 62
0
370
-1
 48
1.0
  6
BYLAYER
100
AcDbLine
 10
167.2541962025059661
 20
4.9394599999999684
 30
0.0
 11
167.4761962025059461
 21
5.1614599999999484
 31
0.0
  0
LINE
  5
103
100
AcDbEntity
  8
0
 62
0
370
-1
 48
1.0
  6
BYLAYER
100
AcDbLine
 10
167.2573709469170922
 20
107.6891599999999869
 30
0.0
 11
167.4793709469170722
 21
107.9111599999999669
 31
0.0
  0
LINE
  5
104
100
AcDbEntity
  8
0
 62
0
370
-1
 48
1.0
  6
BYLAYER
100
AcDbLine
 10
6.3394926745289695
 20
4.9394599999999684
 30
0.0
 11
6.5614926745289495
 21
5.1614599999999484
 31
0.0
  0
LINE
  5
105
100
AcDbEntity
  8
0
 62
0
370
-1
 48
1.0
  6
BYLAYER
100
AcDbLine
 10
6.5614752966204151
 20
107.9111599999999669
 30
0.0
 11
6.7024752966204346
 21
108.1901599999999632
 31
0.0
  0
LINE
  5
106
100
AcDbEntity
  8
0
 62
0
370
-1
 48
1.0
  6
BYLAYER
100
AcDbLine
 10
328.3873998347996235
 20
107.9111599999999669
 30
0.0
 11
328.528399834799643
 21
108.1901599999999632
 31
0.0
  0
LINE
  5
107
100
AcDbEntity
  8
0
 62
0
370
-1
 48
1.0
  6
BYLAYER
100
AcDbLine
 10
167.4761962025059461
 20
5.1614599999999484
 30
0.0
 11
167.6171962025059656
 21
5.4404599999999448
 31
0.0
  0
LINE
  5
108
100
AcDbEntity
  8
0
 62
0
370
-1
 48
1.0
  6
BYLAYER
100
AcDbLine
 10
167.4793709469170722
 20
107.9111599999999669
 30
0.0
 11
167.6203709469170917
 21
108.1901599999999632
 31
0.0
  0
LINE
  5
109
100
AcDbEntity
  8
0
 62
0
370
-1
 48
1.0
  6
BYLAYER
100
AcDbLine
 10
6.5614926745289495
 20
5.1614599999999484
 30
0.0
 11
6.702492674528969
 21
5.4404599999999448
 31
0.0
  0
LINE
  5
10A
100
AcDbEntity
  8
0
 62
0
370
-1
 48
1.0
  6
BYLAYER
100
AcDbLine
 10
6.7024752966204346
 20
108.1901599999999632
 30
0.0
 11
6.7514752966204128
 21
108.498159999999956
 31
0.0
  0
LINE
  5
10B
100
AcDbEntity
  8
0
 62
0
370
-1
 48
1.0
  6
BYLAYER
100
AcDbLine
 10
328.528399834799643
 20
108.1901599999999632
 30
0.0
 11
328.5773998347996212
 21
108.498159999999956
 31
0.0
  0
LINE
  5
10C
100
AcDbEntity
  8
0
 62
0
370
-1
 48
1.0
  6
BYLAYER
100
AcDbLine
 10
167.6171962025059656
 20
5.4404599999999448
 30
0.0
 11
167.6661962025059438
 21
5.7484599999999375
 31
0.0
  0
LINE
  5
10D
100
AcDbEntity
  8
0
 62
0
370
-1
 48
1.0
  6
BYLAYER
100
AcDbLine
 10
167.6203709469170917
 20
108.1901599999999632
 30
0.0
 11
167.6693709469170699
 21
108.498159999999956
 31
0.0
  0
LINE
  5
10E
100
AcDbEntity
  8
0
 62
0
370
-1
 48
1.0
  6
BYLAYER
100
AcDbLine
 10
6.702492674528969
 20
5.4404599999999448
 30
0.0
 11
6.7514926745289472
 21
5.7484599999999375
 31
0.0
  0
LINE
  5
10F
100
AcDbEntity
  8
0
 62
0
370
-1
 48
1.0
  6
BYLAYER
100
AcDbLine
 10
6.7514752966204128
 20
108.498159999999956
 30
0.0
 11
6.7024752966204346
 21
108.8081599999999582
 31
0.0
  0
LINE
  5
110
100
AcDbEntity
  8
0
 62
0
370
-1
 48
1.0
  6
BYLAYER
100
AcDbLine
 10
328.5773998347996212
 20
108.498159999999956
 30
0.0
 11
328.528399834799643
 21
108.8081599999999582
 31
0.0
  0
LINE
  5
111
100
AcDbEntity
  8
0
 62
0
370
-1
 48
1.0
  6
BYLAYER
100
AcDbLine
 10
167.6661962025059438
 20
5.7484599999999375
 30
0.0
 11
167.6171962025059656
 21
6.0584599999999398
 31
0.0
  0
LINE
  5
112
100
AcDbEntity
  8
0
 62
0
370
-1
 48
1.0
  6
BYLAYER
100
AcDbLine
 10
167.6693709469170699
 20
108.498159999999956
 30
0.0
 11
167.6203709469170917
 21
108.8081599999999582
 31
0.0
  0
LINE
  5
113
100
AcDbEntity
  8
0
 62
0
370
-1
 48
1.0
  6
BYLAYER
100
AcDbLine
 10
6.7514926745289472
 20
5.7484599999999375
 30
0.0
 11
6.702492674528969
 21
6.0584599999999398
 31
0.0
  0
LINE
  5
114
100
AcDbEntity
  8
0
 62
0
370
-1
 48
1.0
  6
BYLAYER
100
AcDbLine
 10
6.7024752966204346
 20
108.8081599999999582
 30
0.0
 11
6.5614752966204151
 21
109.0871599999999546
 31
0.0
  0
LINE
  5
115
100
AcDbEntity
  8
0
 62
0
370
-1
 48
1.0
  6
BYLAYER
100
AcDbLine
 10
328.528399834799643
 20
108.8081599999999582
 30
0.0
 11
328.3873998347996235
 21
109.0871599999999546
 31
0.0
  0
LINE
  5
116
100
AcDbEntity
  8
0
 62
0
370
-1
 48
1.0
  6
BYLAYER
100
AcDbLine
 10
167.6171962025059656
 20
6.0584599999999398
 30
0.0
 11
167.4761962025059461
 21
6.3374599999999361
 31
0.0
  0
LINE
  5
117
100
AcDbEntity
  8
0
 62
0
370
-1
 48
1.0
  6
BYLAYER
100
AcDbLine
 10
167.6203709469170917
 20
108.8081599999999582
 30
0.0
 11
167.4793709469170722
 21
109.0871599999999546
 31
0.0
  0
LINE
  5
118
100
AcDbEntity
  8
0
 62
0
370
-1
 48
1.0
  6
BYLAYER
100
AcDbLine
 10
6.702492674528969
 20
6.0584599999999398
 30
0.0
 11
6.5614926745289495
 21
6.3374599999999361
 31
0.0
  0
LINE
  5
119
100
AcDbEntity
  8
0
 62
0
370
-1
 48
1.0
  6
BYLAYER
100
AcDbLine
 10
6.5614752966204151
 20
109.0871599999999546
 30
0.0
 11
6.3394752966204351
 21
109.309159999999963
 31
0.0
  0
LINE
  5
11A
100
AcDbEntity
  8
0
 62
0
370
-1
 48
1.0
  6
BYLAYER
100
AcDbLine
 10
328.3873998347996235
 20
109.0871599999999546
 30
0.0
 11
328.1653998347996435
 21
109.309159999999963
 31
0.0
  0
LINE
  5
11B
100
AcDbEntity
  8
0
 62
0
370
-1
 48
1.0
  6
BYLAYER
100
AcDbLine
 10
167.4761962025059461
 20
6.3374599999999361
 30
0.0
 11
167.2541962025059661
 21
6.5594599999999446
 31
0.0
  0
LINE
  5
11C
100
AcDbEntity
  8
0
 62
0
370
-1
 48
1.0
  6
BYLAYER
100
AcDbLine
 10
167.4793709469170722
 20
109.0871599999999546
 30
0.0
 11
167.2573709469170922
 21
109.309159999999963
 31
0.0
  0
LINE
  5
11D
100
AcDbEntity
  8
0
 62
0
370
-1
 48
1.0
  6
BYLAYER
100
AcDbLine
 10
6.5614926745289495
 20
6.3374599999999361
 30
0.0
 11
6.3394926745289695
 21
6.5594599999999161
 31
0.0
  0
LINE
  5
11E
100
AcDbEntity
  8
0
 62
0
370
-1
 48
1.0
  6
BYLAYER
100
AcDbLine
 10
6.3394752966204351
 20
109.309159999999963
 30
0.0
 11
6.0604752966204387
 21
109.4501599999999542
 31
0.0
  0
LINE
  5
11F
100
AcDbEntity
  8
0
 62
0
370
-1
 48
1.0
  6
BYLAYER
100
AcDbLine
 10
328.1653998347996435
 20
109.309159999999963
 30
0.0
 11
327.8863998347996471
 21
109.4501599999999542
 31
0.0
  0
LINE
  5
120
100
AcDbEntity
  8
0
 62
0
370
-1
 48
1.0
  6
BYLAYER
100
AcDbLine
 10
167.2541962025059661
 20
6.5594599999999446
 30
0.0
 11
166.9751962025059697
 21
6.7004599999999357
 31
0.0
  0
LINE
  5
121
100
AcDbEntity
  8
0
 62
0
370
-1
 48
1.0
  6
BYLAYER
100
AcDbLine
 10
167.2573709469170922
 20
109.309159999999963
 30
0.0
 11
166.9783709469170958
 21
109.4501599999999542
 31
0.0
  0
LINE
  5
122
100
AcDbEntity
  8
0
 62
0
370
-1
 48
1.0
  6
BYLAYER
100
AcDbLine
 10
6.3394926745289695
 20
6.5594599999999161
 30
0.0
 11
6.0604926745289731
 21
6.7004599999999357
 31
0.0
  0
LINE
  5
123
100
AcDbEntity
  8
0
 62
0
370
-1
 48
1.0
  6
BYLAYER
100
AcDbLine
 10
6.0604752966204387
 20
109.4501599999999542
 30
0.0
 11
5.752475296620446
 21
109.4991599999999892
 31
0.0
  0
LINE
  5
124
100
AcDbEntity
  8
0
 62
0
370
-1
 48
1.0
  6
BYLAYER
100
AcDbLine
 10
327.8863998347996471
 20
109.4501599999999542
 30
0.0
 11
327.5783998347996544
 21
109.4991599999999892
 31
0.0
  0
LINE
  5
125
100
AcDbEntity
  8
0
 62
0
370
-1
 48
1.0
  6
BYLAYER
100
AcDbLine
 10
166.9751962025059697
 20
6.7004599999999357
 30
0.0
 11
166.667196202505977
 21
6.7494599999999707
 31
0.0
  0
LINE
  5
126
100
AcDbEntity
  8
0
 62
0
370
-1
 48
1.0
  6
BYLAYER
100
AcDbLine
 10
166.9783709469170958
 20
109.4501599999999542
 30
0.0
 11
166.6703709469171031
 21
109.4991599999999892
 31
0.0
  0
LINE
  5
127
100
AcDbEntity
  8
0
 62
0
370
-1
 48
1.0
  6
BYLAYER
100
AcDbLine
 10
6.0604926745289731
 20
6.7004599999999357
 30
0.0
 11
5.7524926745289804
 21
6.7494599999999707
 31
0.0
  0
LINE
  5
128
100
AcDbEntity
  8
0
 62
0
370
-1
 48
1.0
  6
BYLAYER
100
AcDbLine
 10
5.752475296620446
 20
109.4991599999999892
 30
0.0
 11
5.4424752966204437
 21
109.4501599999999542
 31
0.0
  0
LINE
  5
129
100
AcDbEntity
  8
0
 62
0
370
-1
 48
1.0
  6
BYLAYER
100
AcDbLine
 10
327.5783998347996544
 20
109.4991599999999892
 30
0.0
 11
327.2683998347996521
 21
109.4501599999999542
 31
0.0
  0
LINE
  5
12A
100
AcDbEntity
  8
0
 62
0
370
-1
 48
1.0
  6
BYLAYER
100
AcDbLine
 10
166.667196202505977
 20
6.7494599999999707
 30
0.0
 11
166.3571962025059747
 21
6.7004599999999357
 31
0.0
  0
LINE
  5
12B
100
AcDbEntity
  8
0
 62
0
370
-1
 48
1.0
  6
BYLAYER
100
AcDbLine
 10
166.6703709469171031
 20
109.4991599999999892
 30
0.0
 11
166.3603709469171008
 21
109.4501599999999542
 31
0.0
  0
LINE
  5
12C
100
AcDbEntity
  8
0
 62
0
370
-1
 48
1.0
  6
BYLAYER
100
AcDbLine
 10
5.7524926745289804
 20
6.7494599999999707
 30
0.0
 11
5.4424926745289781
 21
6.7004599999999357
 31
0.0
  0
ENDSEC
  0
SECTION
  2
OBJECTS
  0
DICTIONARY
  5
C
100
AcDbDictionary
280
0
281
1
  3
ACAD_GROUP
350
D
  3
ACAD_LAYOUT
350
1A
  3
ACAD_MLINESTYLE
350
17
  3
ACAD_PLOTSETTINGS
350
19
  3
ACAD_PLOTSTYLENAME
350
E
  3
AcDbVariableDictionary
350
12D
  3
QCAD_OBJECTS
350
12E
  0
DICTIONARY
  5
D
100
AcDbDictionary
280
0
281
1
  0
ACDBDICTIONARYWDFLT
  5
E
100
AcDbDictionary
281
1
  3
Normal
350
F
100
AcDbDictionaryWithDefault
340
F
  0
ACDBPLACEHOLDER
  5
F
  0
DICTIONARY
  5
17
100
AcDbDictionary
280
0
281
1
  3
Standard
350
18
  0
MLINESTYLE
  5
18
100
AcDbMlineStyle
  2
STANDARD
 70
0
  3

 62
256
 51
90.0
 52
90.0
 71
2
 49
0.5
 62
256
  6
BYLAYER
 49
-0.5
 62
256
  6
BYLAYER
  0
DICTIONARY
  5
19
100
AcDbDictionary
280
0
281
1
  0
DICTIONARY
  5
1A
100
AcDbDictionary
281
1
  3
Layout1
350
1E
  3
Layout2
350
26
  3
Model
350
22
  0
LAYOUT
  5
1E
100
AcDbPlotSettings
  1

  2
none_device
  4

  6

 40
0.0
 41
0.0
 42
0.0
 43
0.0
 44
0.0
 45
0.0
 46
0.0
 47
0.0
 48
0.0
 49
0.0
140
0.0
141
0.0
142
1.0
143
1.0
 70
688
 72
0
 73
0
 74
5
  7

 75
16
147
1.0
148
0.0
149
0.0
100
AcDbLayout
  1
Layout1
 70
1
 71
1
 10
0.0
 20
0.0
 11
420.0
 21
297.0
 12
0.0
 22
0.0
 32
0.0
 14
100000000000000000000.0
 24
100000000000000000000.0
 34
100000000000000000000.0
 15
-100000000000000000000.0
 25
-100000000000000000000.0
 35
-100000000000000000000.0
146
0.0
 13
0.0
 23
0.0
 33
0.0
 16
1.0
 26
0.0
 36
0.0
 17
0.0
 27
1.0
 37
0.0
 76
0
330
1B
  0
LAYOUT
  5
22
100
AcDbPlotSettings
  1

  2
none_device
  4

  6

 40
0.0
 41
0.0
 42
0.0
 43
0.0
 44
0.0
 45
0.0
 46
0.0
 47
0.0
 48
0.0
 49
0.0
140
0.0
141
0.0
142
1.0
143
1.0
 70
1712
 72
0
 73
0
 74
0
  7

 75
0
147
1.0
148
0.0
149
0.0
100
AcDbLayout
  1
Model
 70
1
 71
0
 10
0.0
 20
0.0
 11
12.0
 21
9.0
 12
0.0
 22
0.0
 32
0.0
 14
0.0
 24
0.0
 34
0.0
 15
0.0
 25
0.0
 35
0.0
146
0.0
 13
0.0
 23
0.0
 33
0.0
 16
1.0
 26
0.0
 36
0.0
 17
0.0
 27
1.0
 37
0.0
 76
0
330
1F
  0
LAYOUT
  5
26
100
AcDbPlotSettings
  1

  2
none_device
  4

  6

 40
0.0
 41
0.0
 42
0.0
 43
0.0
 44
0.0
 45
0.0
 46
0.0
 47
0.0
 48
0.0
 49
0.0
140
0.0
141
0.0
142
1.0
143
1.0
 70
688
 72
0
 73
0
 74
5
  7

 75
16
147
1.0
148
0.0
149
0.0
100
AcDbLayout
  1
Layout2
 70
1
 71
2
 10
0.0
 20
0.0
 11
12.0
 21
9.0
 12
0.0
 22
0.0
 32
0.0
 14
0.0
 24
0.0
 34
0.0
 15
0.0
 25
0.0
 35
0.0
146
0.0
 13
0.0
 23
0.0
 33
0.0
 16
1.0
 26
0.0
 36
0.0
 17
0.0
 27
1.0
 37
0.0
 76
0
330
23
  0
DICTIONARY
  5
12D
100
AcDbDictionary
281
1
  3
DIMASSOC
350
130
  3
HIDETEXT
350
12F
  0
DICTIONARYVAR
  5
12F
100
DictionaryVariables
280
0
  1
2
  0
DICTIONARYVAR
  5
130
100
DictionaryVariables
280
0
  1
1
  0
DICTIONARY
  5
12E
100
AcDbDictionary
281
1
  3
ColorSettings/BackgroundColor
350
131
  3
ColorSettings/ColorMode
350
132
  3
Grid/DisplayGrid00
350
133
  3
Grid/DisplayGrid01
350
134
  3
Grid/DisplayGrid02
350
135
  3
Grid/DisplayGrid03
350
136
  3
Grid/GridSpacingX00
350
137
  3
Grid/GridSpacingX01
350
138
  3
Grid/GridSpacingX02
350
139
  3
Grid/GridSpacingX03
350
13A
  3
Grid/GridSpacingY00
350
13B
  3
Grid/GridSpacingY01
350
13C
  3
Grid/GridSpacingY02
350
13D
  3
Grid/GridSpacingY03
350
13E
  3
Grid/IsometricGrid00
350
13F
  3
Grid/IsometricGrid01
350
140
  3
Grid/IsometricGrid02
350
141
  3
Grid/IsometricGrid03
350
142
  3
Grid/IsometricProjection00
350
143
  3
Grid/IsometricProjection01
350
144
  3
Grid/IsometricProjection02
350
145
  3
Grid/IsometricProjection03
350
146
  3
Grid/MetaGridSpacingX00
350
147
  3
Grid/MetaGridSpacingX01
350
148
  3
Grid/MetaGridSpacingX02
350
149
  3
Grid/MetaGridSpacingX03
350
14A
  3
Grid/MetaGridSpacingY00
350
14B
  3
Grid/MetaGridSpacingY01
350
14C
  3
Grid/MetaGridSpacingY02
350
14D
  3
Grid/MetaGridSpacingY03
350
14E
  3
MultiPageSettings/Columns
350
14F
  3
MultiPageSettings/GlueMarginsBottom
350
150
  3
MultiPageSettings/GlueMarginsLeft
350
151
  3
MultiPageSettings/GlueMarginsRight
350
152
  3
MultiPageSettings/GlueMarginsTop
350
153
  3
MultiPageSettings/PrintCropMarks
350
154
  3
MultiPageSettings/Rows
350
155
  3
PageSettings/OffsetX
350
156
  3
PageSettings/OffsetY
350
157
  3
PageSettings/PageOrientation
350
158
  3
PageSettings/PaperHeight
350
159
  3
PageSettings/PaperWidth
350
15A
  3
PageSettings/Scale
350
15B
  3
PageSettings/ShowPaperBorders
350
15C
  3
PageTagSettings/EnablePageTags
350
15D
  3
PageTagSettings/TagAlignment
350
15E
  3
PageTagSettings/TagFont
350
15F
  3
PageTagSettings/TagPosition
350
160
  3
QCADVersion
350
161
  3
UnitSettings/PaperUnit
350
162
  3
ViewportCenter
350
163
  3
ViewportHeight
350
164
  3
ViewportWidth
350
165
  0
XRECORD
  5
131
330
12E
100
AcDbXrecord
280
1
1000
White
  0
XRECORD
  5
132
330
12E
100
AcDbXrecord
280
1
1000
FullColor
  0
XRECORD
  5
133
330
12E
100
AcDbXrecord
280
1
290
1
  0
XRECORD
  5
134
330
12E
100
AcDbXrecord
280
1
290
1
  0
XRECORD
  5
135
330
12E
100
AcDbXrecord
280
1
290
1
  0
XRECORD
  5
136
330
12E
100
AcDbXrecord
280
1
290
1
  0
XRECORD
  5
137
330
12E
100
AcDbXrecord
280
1
1000
auto
  0
XRECORD
  5
138
330
12E
100
AcDbXrecord
280
1
1000
auto
  0
XRECORD
  5
139
330
12E
100
AcDbXrecord
280
1
1000
auto
  0
XRECORD
  5
13A
330
12E
100
AcDbXrecord
280
1
1000
auto
  0
XRECORD
  5
13B
330
12E
100
AcDbXrecord
280
1
1000
auto
  0
XRECORD
  5
13C
330
12E
100
AcDbXrecord
280
1
1000
auto
  0
XRECORD
  5
13D
330
12E
100
AcDbXrecord
280
1
1000
auto
  0
XRECORD
  5
13E
330
12E
100
AcDbXrecord
280
1
1000
auto
  0
XRECORD
  5
13F
330
12E
100
AcDbXrecord
280
1
290
0
  0
XRECORD
  5
140
330
12E
100
AcDbXrecord
280
1
290
0
  0
XRECORD
  5
141
330
12E
100
AcDbXrecord
280
1
290
0
  0
XRECORD
  5
142
330
12E
100
AcDbXrecord
280
1
290
0
  0
XRECORD
  5
143
330
12E
100
AcDbXrecord
280
1
 90
65537
  0
XRECORD
  5
144
330
12E
100
AcDbXrecord
280
1
 90
65537
  0
XRECORD
  5
145
330
12E
100
AcDbXrecord
280
1
 90
65537
  0
XRECORD
  5
146
330
12E
100
AcDbXrecord
280
1
 90
65537
  0
XRECORD
  5
147
330
12E
100
AcDbXrecord
280
1
1000
auto
  0
XRECORD
  5
148
330
12E
100
AcDbXrecord
280
1
1000
auto
  0
XRECORD
  5
149
330
12E
100
AcDbXrecord
280
1
1000
auto
  0
XRECORD
  5
14A
330
12E
100
AcDbXrecord
280
1
1000
auto
  0
XRECORD
  5
14B
330
12E
100
AcDbXrecord
280
1
1000
auto
  0
XRECORD
  5
14C
330
12E
100
AcDbXrecord
280
1
1000
auto
  0
XRECORD
  5
14D
330
12E
100
AcDbXrecord
280
1
1000
auto
  0
XRECORD
  5
14E
330
12E
100
AcDbXrecord
280
1
1000
auto
  0
XRECORD
  5
14F
330
12E
100
AcDbXrecord
280
1
 90
1
  0
XRECORD
  5
150
330
12E
100
AcDbXrecord
280
1
 40
0.5
  0
XRECORD
  5
151
330
12E
100
AcDbXrecord
280
1
 40
0.5
  0
XRECORD
  5
152
330
12E
100
AcDbXrecord
280
1
 40
0.5
  0
XRECORD
  5
153
330
12E
100
AcDbXrecord
280
1
 40
0.5
  0
XRECORD
  5
154
330
12E
100
AcDbXrecord
280
1
290
0
  0
XRECORD
  5
155
330
12E
100
AcDbXrecord
280
1
 90
1
  0
XRECORD
  5
156
330
12E
100
AcDbXrecord
280
1
 40
0.0
  0
XRECORD
  5
157
330
12E
100
AcDbXrecord
280
1
 40
0.0
  0
XRECORD
  5
158
330
12E
100
AcDbXrecord
280
1
1000
Portrait
  0
XRECORD
  5
159
330
12E
100
AcDbXrecord
280
1
 40
11.6929133858267722
  0
XRECORD
  5
15A
330
12E
100
AcDbXrecord
280
1
 40
8.2677165354330704
  0
XRECORD
  5
15B
330
12E
100
AcDbXrecord
280
1
1000
1:1
  0
XRECORD
  5
15C
330
12E
100
AcDbXrecord
280
1
290
1
  0
XRECORD
  5
15D
330
12E
100
AcDbXrecord
280
1
290
0
  0
XRECORD
  5
15E
330
12E
100
AcDbXrecord
280
1
1000
Inside
  0
XRECORD
  5
15F
330
12E
100
AcDbXrecord
280
1
1000
Arial,10,-1,5,50,0,0,0,0,0
  0
XRECORD
  5
160
330
12E
100
AcDbXrecord
280
1
1000
TopLeft
  0
XRECORD
  5
161
330
12E
100
AcDbXrecord
280
1
1000
3.28.1.3
  0
XRECORD
  5
162
330
12E
100
AcDbXrecord
280
1
 90
1
  0
XRECORD
  5
164
330
12E
100
AcDbXrecord
280
1
 40
313.4021215500844164
  0
XRECORD
  5
165
330
12E
100
AcDbXrecord
280
1
 40
584.6004661333245167
  0
ENDSEC
  0
EOF
