999
dxflib 3.26.4.0
  0
SECTION
  2
HEADER
  9
$ACADVER
  1
AC1015
  9
$HANDSEED
  5
FFFF
  9
$DIMADEC
 70
0
  9
$DIMASZ
 40
0.125
  9
$DIMATFIT
 70
0
  9
$DIMAUNIT
 70
0
  9
$DIMAZIN
 70
2
  9
$DIMBLK
  1
0
  9
$DIMBLK1
  1
0
  9
$DIMBLK2
  1
0
  9
$DIMDEC
 70
4
  9
$DIMDLI
 40
0.25
  9
$DIMDSEP
 70
46
  9
$DIMEXE
 40
0.0625
  9
$DIMEXO
 40
0.03125
  9
$DIMGAP
 40
0.03125
  9
$DIMLFAC
 40
1.0
  9
$DIMLUNIT
 70
3
  9
$DIMSCALE
 40
1.0
  9
$DIMTAD
 70
1
  9
$DIMTIH
 70
0
  9
$DIMTSZ
 40
0.0
  9
$DIMTXT
 40
0.125
  9
$DIMZIN
 70
8
  9
$DWGCODEPAGE
  3
ANSI_1252
  9
$INSUNITS
 70
1
  9
$LTSCALE
 40
1.0
  9
$MAXACTVP
 70
64
  9
$MEASUREMENT
 70
0
  9
$MIRRTEXT
 70
0
  9
$PDMODE
 70
0
  9
$PDSIZE
 40
0.0
  0
ENDSEC
  0
SECTION
  2
TABLES
  0
TABLE
  2
VPORT
  5
8
100
AcDbSymbolTable
 70
1
  0
VPORT
  5
30
100
AcDbSymbolTableRecord
100
AcDbViewportTableRecord
  2
*Active
 70
0
 10
0.0
 20
0.0
 11
1.0
 21
1.0
 12
286.3055555555554861
 22
148.5
 13
0.0
 23
0.0
 14
10.0
 24
10.0
 15
10.0
 25
10.0
 16
0.0
 26
0.0
 36
1.0
 17
0.0
 27
0.0
 37
0.0
 40
297.0
 41
1.92798353909465
 42
50.0
 43
0.0
 44
0.0
 50
0.0
 51
0.0
 71
0
 72
100
 73
1
 74
3
 75
1
 76
1
 77
0
 78
0
281
0
 65
1
110
0.0
120
0.0
130
0.0
111
1.0
121
0.0
131
0.0
112
0.0
122
1.0
132
0.0
 79
0
146
0.0
  0
ENDTAB
  0
TABLE
  2
LTYPE
  5
5
100
AcDbSymbolTable
 70
41
  0
LTYPE
  5
16
100
AcDbSymbolTableRecord
100
AcDbLinetypeTableRecord
  2
Continuous
 70
0
  3
Solid line
 72
65
 73
0
 40
0.0
  0
LTYPE
  5
31
100
AcDbSymbolTableRecord
100
AcDbLinetypeTableRecord
  2
DASHDOTX2
 70
0
  3
Dash dot (2x) ____  .  ____  .  ____  .  ___
 72
65
 73
4
 40
50.7999999999999972
 49
25.3999999999999986
 74
0
 49
-12.6499999999999986
 74
0
 49
0.1
 74
0
 49
-12.6499999999999986
 74
0
  0
LTYPE
  5
32
100
AcDbSymbolTableRecord
100
AcDbLinetypeTableRecord
  2
DASHEDX2
 70
0
  3
Dashed (2x) ____  ____  ____  ____  ____  ___
 72
65
 73
2
 40
38.0999999999999943
 49
25.3999999999999986
 74
0
 49
-12.6999999999999993
 74
0
  0
LTYPE
  5
33
100
AcDbSymbolTableRecord
100
AcDbLinetypeTableRecord
  2
ACAD_ISO04W100
 70
0
  3
ISO long-dash dot ____ . ____ . ____ . ____ . _
 72
65
 73
4
 40
30.0
 49
24.0
 74
0
 49
-2.9500000000000002
 74
0
 49
0.1
 74
0
 49
-2.9500000000000002
 74
0
  0
LTYPE
  5
34
100
AcDbSymbolTableRecord
100
AcDbLinetypeTableRecord
  2
ACAD_ISO08W100
 70
0
  3
ISO long-dash short-dash ____ __ ____ __ ____ _
 72
65
 73
4
 40
36.0
 49
24.0
 74
0
 49
-3.0
 74
0
 49
6.0
 74
0
 49
-3.0
 74
0
  0
LTYPE
  5
15
100
AcDbSymbolTableRecord
100
AcDbLinetypeTableRecord
  2
BYLAYER
 70
0
  3

 72
65
 73
0
 40
0.0
  0
LTYPE
  5
35
100
AcDbSymbolTableRecord
100
AcDbLinetypeTableRecord
  2
ACAD_ISO15W100
 70
0
  3
ISO double-dash triple-dot __ __ . . . __ __ . .
 72
65
 73
10
 40
39.0000000000000071
 49
12.0
 74
0
 49
-3.0
 74
0
 49
12.0
 74
0
 49
-2.9500000000000002
 74
0
 49
0.1
 74
0
 49
-2.9000000000000004
 74
0
 49
0.1
 74
0
 49
-2.9000000000000004
 74
0
 49
0.1
 74
0
 49
-2.9500000000000002
 74
0
  0
LTYPE
  5
36
100
AcDbSymbolTableRecord
100
AcDbLinetypeTableRecord
  2
HIDDEN
 70
0
  3
Hidden __ __ __ __ __ __ __ __ __ __ __ __ __ __
 72
65
 73
2
 40
9.5249999999999986
 49
6.3499999999999996
 74
0
 49
-3.1749999999999998
 74
0
  0
LTYPE
  5
14
100
AcDbSymbolTableRecord
100
AcDbLinetypeTableRecord
  2
BYBLOCK
 70
0
  3

 72
65
 73
0
 40
0.0
  0
LTYPE
  5
37
100
AcDbSymbolTableRecord
100
AcDbLinetypeTableRecord
  2
CENTER2
 70
0
  3
Center (.5x) ___ _ ___ _ ___ _ ___ _ ___ _ ___
 72
65
 73
4
 40
28.5750000000000028
 49
19.0500000000000007
 74
0
 49
-3.1749999999999998
 74
0
 49
3.1749999999999998
 74
0
 49
-3.1749999999999998
 74
0
  0
LTYPE
  5
38
100
AcDbSymbolTableRecord
100
AcDbLinetypeTableRecord
  2
DASHED2
 70
0
  3
Dashed (.5x) _ _ _ _ _ _ _ _ _ _ _ _ _ _ _ _ _ 
 72
65
 73
2
 40
9.5249999999999986
 49
6.3499999999999996
 74
0
 49
-3.1749999999999998
 74
0
  0
LTYPE
  5
39
100
AcDbSymbolTableRecord
100
AcDbLinetypeTableRecord
  2
ACAD_ISO07W100
 70
0
  3
ISO dot . . . . . . . . . . . . . . . . . . . . 
 72
65
 73
2
 40
3.0
 49
0.1
 74
0
 49
-2.8999999999999999
 74
0
  0
LTYPE
  5
3A
100
AcDbSymbolTableRecord
100
AcDbLinetypeTableRecord
  2
HIDDEN2
 70
0
  3
Hidden (.5x) _ _ _ _ _ _ _ _ _ _ _ _ _ _ _ _ _ 
 72
65
 73
2
 40
4.7624999999999993
 49
3.1749999999999998
 74
0
 49
-1.5874999999999999
 74
0
  0
LTYPE
  5
3B
100
AcDbSymbolTableRecord
100
AcDbLinetypeTableRecord
  2
ACAD_ISO03W100
 70
0
  3
ISO dash space __    __    __    __    __    __
 72
65
 73
2
 40
30.0
 49
12.0
 74
0
 49
-18.0
 74
0
  0
LTYPE
  5
3C
100
AcDbSymbolTableRecord
100
AcDbLinetypeTableRecord
  2
BORDERX2
 70
0
  3
Border (2x) ____  ____  .  ____  ____  .  ___
 72
65
 73
6
 40
88.8999999999999773
 49
25.3999999999999986
 74
0
 49
-12.6999999999999993
 74
0
 49
25.3999999999999986
 74
0
 49
-12.6499999999999986
 74
0
 49
0.1
 74
0
 49
-12.6499999999999986
 74
0
  0
LTYPE
  5
3D
100
AcDbSymbolTableRecord
100
AcDbLinetypeTableRecord
  2
PHANTOM
 70
0
  3
Phantom ______  __  __  ______  __  __  ______ 
 72
65
 73
6
 40
63.5000000000000071
 49
31.75
 74
0
 49
-6.3499999999999996
 74
0
 49
6.3499999999999996
 74
0
 49
-6.3499999999999996
 74
0
 49
6.3499999999999996
 74
0
 49
-6.3499999999999996
 74
0
  0
LTYPE
  5
3E
100
AcDbSymbolTableRecord
100
AcDbLinetypeTableRecord
  2
BORDER
 70
0
  3
Border __ __ . __ __ . __ __ . __ __ . __ __ .
 72
65
 73
6
 40
44.4499999999999957
 49
12.6999999999999993
 74
0
 49
-6.3499999999999996
 74
0
 49
12.6999999999999993
 74
0
 49
-6.2999999999999998
 74
0
 49
0.1
 74
0
 49
-6.2999999999999998
 74
0
  0
LTYPE
  5
3F
100
AcDbSymbolTableRecord
100
AcDbLinetypeTableRecord
  2
PHANTOMX2
 70
0
  3
Phantom (2x) ____________    ____    ____   _
 72
65
 73
6
 40
127.0000000000000142
 49
63.5
 74
0
 49
-12.6999999999999993
 74
0
 49
12.6999999999999993
 74
0
 49
-12.6999999999999993
 74
0
 49
12.6999999999999993
 74
0
 49
-12.6999999999999993
 74
0
  0
LTYPE
  5
40
100
AcDbSymbolTableRecord
100
AcDbLinetypeTableRecord
  2
CENTERX2
 70
0
  3
Center (2x) ________  __  ________  __  _____
 72
65
 73
4
 40
101.6000000000000085
 49
63.5
 74
0
 49
-12.6999999999999993
 74
0
 49
12.6999999999999993
 74
0
 49
-12.6999999999999993
 74
0
  0
LTYPE
  5
41
100
AcDbSymbolTableRecord
100
AcDbLinetypeTableRecord
  2
DIVIDE
 70
0
  3
Divide ____ . . ____ . . ____ . . ____ . . ____
 72
65
 73
6
 40
31.7500000000000036
 49
12.6999999999999993
 74
0
 49
-6.2999999999999998
 74
0
 49
0.1
 74
0
 49
-6.25
 74
0
 49
0.1
 74
0
 49
-6.2999999999999998
 74
0
  0
LTYPE
  5
42
100
AcDbSymbolTableRecord
100
AcDbLinetypeTableRecord
  2
ACAD_ISO14W100
 70
0
  3
ISO dash triple-dot __ . . . __ . . . __ . . . _
 72
65
 73
8
 40
24.0000000000000036
 49
12.0
 74
0
 49
-2.9500000000000002
 74
0
 49
0.1
 74
0
 49
-2.9000000000000004
 74
0
 49
0.1
 74
0
 49
-2.9000000000000004
 74
0
 49
0.1
 74
0
 49
-2.9500000000000002
 74
0
  0
LTYPE
  5
43
100
AcDbSymbolTableRecord
100
AcDbLinetypeTableRecord
  2
ACAD_ISO11W100
 70
0
  3
ISO double-dash dot __ __ . __ __ . __ __ . __ _
 72
65
 73
6
 40
33.0
 49
12.0
 74
0
 49
-3.0
 74
0
 49
12.0
 74
0
 49
-2.9500000000000002
 74
0
 49
0.1
 74
0
 49
-2.9500000000000002
 74
0
  0
LTYPE
  5
44
100
AcDbSymbolTableRecord
100
AcDbLinetypeTableRecord
  2
BORDER2
 70
0
  3
Border (.5x) __.__.__.__.__.__.__.__.__.__.__.
 72
65
 73
6
 40
22.2250000000000014
 49
6.3499999999999996
 74
0
 49
-3.1749999999999998
 74
0
 49
6.3499999999999996
 74
0
 49
-3.125
 74
0
 49
0.1
 74
0
 49
-3.125
 74
0
  0
LTYPE
  5
45
100
AcDbSymbolTableRecord
100
AcDbLinetypeTableRecord
  2
DOTX2
 70
0
  3
Dot (2x) .  .  .  .  .  .  .  .  .  .  .  .  .  .
 72
65
 73
2
 40
12.6999999999999993
 49
0.1
 74
0
 49
-12.5999999999999996
 74
0
  0
LTYPE
  5
46
100
AcDbSymbolTableRecord
100
AcDbLinetypeTableRecord
  2
DOT
 70
0
  3
Dot . . . . . . . . . . . . . . . . . . . . . . . .
 72
65
 73
2
 40
6.3499999999999996
 49
0.1
 74
0
 49
-6.25
 74
0
  0
LTYPE
  5
47
100
AcDbSymbolTableRecord
100
AcDbLinetypeTableRecord
  2
PHANTOM2
 70
0
  3
Phantom (.5x) ___ _ _ ___ _ _ ___ _ _ ___ _ _
 72
65
 73
6
 40
31.7500000000000036
 49
15.875
 74
0
 49
-3.1749999999999998
 74
0
 49
3.1749999999999998
 74
0
 49
-3.1749999999999998
 74
0
 49
3.1749999999999998
 74
0
 49
-3.1749999999999998
 74
0
  0
LTYPE
  5
48
100
AcDbSymbolTableRecord
100
AcDbLinetypeTableRecord
  2
ACAD_ISO12W100
 70
0
  3
ISO dash double-dot __ . . __ . . __ . . __ . . 
 72
65
 73
6
 40
21.0
 49
12.0
 74
0
 49
-2.9500000000000002
 74
0
 49
0.1
 74
0
 49
-2.9000000000000004
 74
0
 49
0.1
 74
0
 49
-2.9500000000000002
 74
0
  0
LTYPE
  5
49
100
AcDbSymbolTableRecord
100
AcDbLinetypeTableRecord
  2
ACAD_ISO06W100
 70
0
  3
ISO long-dash triple-dot ____ ... ____ ... ____
 72
65
 73
8
 40
36.0000000000000071
 49
24.0
 74
0
 49
-2.9500000000000002
 74
0
 49
0.1
 74
0
 49
-2.9000000000000004
 74
0
 49
0.1
 74
0
 49
-2.9000000000000004
 74
0
 49
0.1
 74
0
 49
-2.9500000000000002
 74
0
  0
LTYPE
  5
4A
100
AcDbSymbolTableRecord
100
AcDbLinetypeTableRecord
  2
ACAD_ISO05W100
 70
0
  3
ISO long-dash double-dot ____ .. ____ .. ____ . 
 72
65
 73
6
 40
33.0000000000000071
 49
24.0
 74
0
 49
-2.9500000000000002
 74
0
 49
0.1
 74
0
 49
-2.9000000000000004
 74
0
 49
0.1
 74
0
 49
-2.9500000000000002
 74
0
  0
LTYPE
  5
4B
100
AcDbSymbolTableRecord
100
AcDbLinetypeTableRecord
  2
ACAD_ISO10W100
 70
0
  3
ISO dash dot __ . __ . __ . __ . __ . __ . __ . 
 72
65
 73
4
 40
18.0
 49
12.0
 74
0
 49
-2.9500000000000002
 74
0
 49
0.1
 74
0
 49
-2.9500000000000002
 74
0
  0
LTYPE
  5
4C
100
AcDbSymbolTableRecord
100
AcDbLinetypeTableRecord
  2
DIVIDEX2
 70
0
  3
Divide (2x) ________  .  .  ________  .  .  _
 72
65
 73
6
 40
63.5
 49
25.3999999999999986
 74
0
 49
-12.6499999999999986
 74
0
 49
0.1
 74
0
 49
-12.5999999999999979
 74
0
 49
0.1
 74
0
 49
-12.6499999999999986
 74
0
  0
LTYPE
  5
4D
100
AcDbSymbolTableRecord
100
AcDbLinetypeTableRecord
  2
DASHDOT
 70
0
  3
Dash dot __ . __ . __ . __ . __ . __ . __ . __
 72
65
 73
4
 40
25.4000000000000021
 49
12.6999999999999993
 74
0
 49
-6.2999999999999998
 74
0
 49
0.1
 74
0
 49
-6.2999999999999998
 74
0
  0
LTYPE
  5
4E
100
AcDbSymbolTableRecord
100
AcDbLinetypeTableRecord
  2
HIDDENX2
 70
0
  3
Hidden (2x) ____ ____ ____ ____ ____ ____ ____ 
 72
65
 73
2
 40
19.0499999999999972
 49
12.6999999999999993
 74
0
 49
-6.3499999999999996
 74
0
  0
LTYPE
  5
4F
100
AcDbSymbolTableRecord
100
AcDbLinetypeTableRecord
  2
ACAD_ISO09W100
 70
0
  3
ISO long-dash double-short-dash ____ __ __ ____
 72
65
 73
6
 40
45.0
 49
24.0
 74
0
 49
-3.0
 74
0
 49
6.0
 74
0
 49
-3.0
 74
0
 49
6.0
 74
0
 49
-3.0
 74
0
  0
LTYPE
  5
50
100
AcDbSymbolTableRecord
100
AcDbLinetypeTableRecord
  2
DASHED
 70
0
  3
Dashed __ __ __ __ __ __ __ __ __ __ __ __ __ _
 72
65
 73
2
 40
19.0499999999999972
 49
12.6999999999999993
 74
0
 49
-6.3499999999999996
 74
0
  0
LTYPE
  5
51
100
AcDbSymbolTableRecord
100
AcDbLinetypeTableRecord
  2
CENTER
 70
0
  3
Center ____ _ ____ _ ____ _ ____ _ ____ _ ____
 72
65
 73
4
 40
50.8000000000000043
 49
31.75
 74
0
 49
-6.3499999999999996
 74
0
 49
6.3499999999999996
 74
0
 49
-6.3499999999999996
 74
0
  0
LTYPE
  5
52
100
AcDbSymbolTableRecord
100
AcDbLinetypeTableRecord
  2
ACAD_ISO13W100
 70
0
  3
ISO double-dash double-dot __ __ . . __ __ . . _
 72
65
 73
8
 40
36.0000000000000071
 49
12.0
 74
0
 49
-3.0
 74
0
 49
12.0
 74
0
 49
-2.9500000000000002
 74
0
 49
0.1
 74
0
 49
-2.9000000000000004
 74
0
 49
0.1
 74
0
 49
-2.9500000000000002
 74
0
  0
LTYPE
  5
53
100
AcDbSymbolTableRecord
100
AcDbLinetypeTableRecord
  2
DIVIDE2
 70
0
  3
Divide (.5x) __..__..__..__..__..__..__..__.._
 72
65
 73
6
 40
15.8749999999999982
 49
6.3499999999999996
 74
0
 49
-3.125
 74
0
 49
0.1
 74
0
 49
-3.0750000000000002
 74
0
 49
0.1
 74
0
 49
-3.125
 74
0
  0
LTYPE
  5
54
100
AcDbSymbolTableRecord
100
AcDbLinetypeTableRecord
  2
DASHDOT2
 70
0
  3
Dash dot (.5x) _._._._._._._._._._._._._._._.
 72
65
 73
4
 40
12.6999999999999993
 49
6.3499999999999996
 74
0
 49
-3.125
 74
0
 49
0.1
 74
0
 49
-3.125
 74
0
  0
LTYPE
  5
55
100
AcDbSymbolTableRecord
100
AcDbLinetypeTableRecord
  2
ACAD_ISO02W100
 70
0
  3
ISO dash __ __ __ __ __ __ __ __ __ __ __ __ __
 72
65
 73
2
 40
15.0
 49
12.0
 74
0
 49
-3.0
 74
0
  0
LTYPE
  5
56
100
AcDbSymbolTableRecord
100
AcDbLinetypeTableRecord
  2
DOT2
 70
0
  3
Dot (.5x) ........................................
 72
65
 73
2
 40
3.1749999999999998
 49
0.1
 74
0
 49
-3.0749999999999997
 74
0
  0
ENDTAB
  0
TABLE
  2
LAYER
  5
2
100
AcDbSymbolTable
 70
1
  0
LAYER
  5
10
100
AcDbSymbolTableRecord
100
AcDbLayerTableRecord
  2
0
 70
0
 62
7
420
16777215
  6
Continuous
370
25
390
F
  0
ENDTAB
  0
TABLE
  2
STYLE
  5
3
100
AcDbSymbolTable
 70
1
  0
STYLE
  5
57
100
AcDbSymbolTableRecord
100
AcDbTextStyleTableRecord
  2
Standard
 70
0
 40
0.0
 41
1.0
 50
0.0
 71
0
 42
2.5
  3

  4

1001
ACAD
1000
txt
1071
0
  0
ENDTAB
  0
TABLE
  2
VIEW
  5
6
100
AcDbSymbolTable
 70
0
  0
ENDTAB
  0
TABLE
  2
UCS
  5
7
100
AcDbSymbolTable
 70
0
  0
ENDTAB
  0
TABLE
  2
APPID
  5
9
100
AcDbSymbolTable
 70
1
  0
APPID
  5
12
100
AcDbSymbolTableRecord
100
AcDbRegAppTableRecord
  2
ACAD
 70
0
  0
APPID
  5
58
100
AcDbSymbolTableRecord
100
AcDbRegAppTableRecord
  2
QCAD
 70
0
  0
ENDTAB
  0
TABLE
  2
DIMSTYLE
  5
A
100
AcDbSymbolTable
 70
1
100
AcDbDimStyleTable
 71
0
  0
DIMSTYLE
105
27
100
AcDbSymbolTableRecord
100
AcDbDimStyleTableRecord
  2
Standard
 41
0.125
 42
0.03125
 43
3.75
 44
0.0625
 70
0
 73
0
 74
0
 77
1
 78
8
140
0.125
141
2.5
143
0.03937007874016
147
0.03125
171
3
172
1
271
2
272
2
274
3
278
44
283
0
284
8
340
57
  0
ENDTAB
  0
TABLE
  2
BLOCK_RECORD
  5
1
100
AcDbSymbolTable
 70
1
  0
BLOCK_RECORD
  5
1F
100
AcDbSymbolTableRecord
100
AcDbBlockTableRecord
  2
*Model_Space
340
22
  0
BLOCK_RECORD
  5
1B
100
AcDbSymbolTableRecord
100
AcDbBlockTableRecord
  2
*Paper_Space
340
1E
  0
BLOCK_RECORD
  5
23
100
AcDbSymbolTableRecord
100
AcDbBlockTableRecord
  2
*Paper_Space0
340
26
  0
ENDTAB
  0
ENDSEC
  0
SECTION
  2
BLOCKS
  0
BLOCK
  5
20
100
AcDbEntity
  8
0
100
AcDbBlockBegin
  2
*Model_Space
 70
0
 10
0.0
 20
0.0
 30
0.0
  3
*Model_Space
  1

  0
ENDBLK
  5
21
100
AcDbEntity
  8
0
100
AcDbBlockEnd
  0
BLOCK
  5
1C
100
AcDbEntity
 67
1
  8
0
100
AcDbBlockBegin
  2
*Paper_Space
 70
0
 10
0.0
 20
0.0
 30
0.0
  3
*Paper_Space
  1

  0
ENDBLK
  5
1D
100
AcDbEntity
 67
1
  8
0
100
AcDbBlockEnd
  0
BLOCK
  5
24
100
AcDbEntity
  8
0
100
AcDbBlockBegin
  2
*Paper_Space0
 70
0
 10
0.0
 20
0.0
 30
0.0
  3
*Paper_Space0
  1

  0
ENDBLK
  5
25
100
AcDbEntity
  8
0
100
AcDbBlockEnd
  0
ENDSEC
  0
SECTION
  2
ENTITIES
  0
LINE
  5
59
100
AcDbEntity
  8
0
 62
0
370
-1
 48
1.0
  6
BYLAYER
100
AcDbLine
 10
322.3259153999999853
 20
27.0513699999999062
 30
0.0
 11
322.7189154000000144
 21
27.0361699999999701
 31
0.0
  0
LINE
  5
5A
100
AcDbEntity
  8
0
 62
0
370
-1
 48
1.0
  6
BYLAYER
100
AcDbLine
 10
322.7189154000000144
 20
27.0361699999999701
 30
0.0
 11
323.1089154000001145
 21
26.9893700000000081
 31
0.0
  0
LINE
  5
5B
100
AcDbEntity
  8
0
 62
0
370
-1
 48
1.0
  6
BYLAYER
100
AcDbLine
 10
323.1089154000001145
 20
26.9893700000000081
 30
0.0
 11
323.492915400000129
 21
26.913569999999936
 31
0.0
  0
LINE
  5
5C
100
AcDbEntity
  8
0
 62
0
370
-1
 48
1.0
  6
BYLAYER
100
AcDbLine
 10
323.492915400000129
 20
26.913569999999936
 30
0.0
 11
323.8719154000000344
 21
26.8074699999999666
 31
0.0
  0
LINE
  5
5D
100
AcDbEntity
  8
0
 62
0
370
-1
 48
1.0
  6
BYLAYER
100
AcDbLine
 10
323.8719154000000344
 20
26.8074699999999666
 30
0.0
 11
324.2399153999999726
 21
26.6709699999998975
 31
0.0
  0
LINE
  5
5E
100
AcDbEntity
  8
0
 62
0
370
-1
 48
1.0
  6
BYLAYER
100
AcDbLine
 10
324.2399153999999726
 20
26.6709699999998975
 30
0.0
 11
324.5959153999999671
 21
26.5070699999998851
 31
0.0
  0
LINE
  5
5F
100
AcDbEntity
  8
0
 62
0
370
-1
 48
1.0
  6
BYLAYER
100
AcDbLine
 10
324.5959153999999671
 20
26.5070699999998851
 30
0.0
 11
324.9389154000000417
 21
26.3154700000000048
 31
0.0
  0
LINE
  5
60
100
AcDbEntity
  8
0
 62
0
370
-1
 48
1.0
  6
BYLAYER
100
AcDbLine
 10
324.9389154000000417
 20
26.3154700000000048
 30
0.0
 11
325.2639154000000872
 21
26.096369999999979
 31
0.0
  0
LINE
  5
61
100
AcDbEntity
  8
0
 62
0
370
-1
 48
1.0
  6
BYLAYER
100
AcDbLine
 10
325.2639154000000872
 20
26.096369999999979
 30
0.0
 11
325.5739154000000326
 21
25.8538699999999153
 31
0.0
  0
LINE
  5
62
100
AcDbEntity
  8
0
 62
0
370
-1
 48
1.0
  6
BYLAYER
100
AcDbLine
 10
325.5739154000000326
 20
25.8538699999999153
 30
0.0
 11
325.8619154000000435
 21
25.586469999999963
 31
0.0
  0
LINE
  5
63
100
AcDbEntity
  8
0
 62
0
370
-1
 48
1.0
  6
BYLAYER
100
AcDbLine
 10
325.8619154000000435
 20
25.586469999999963
 30
0.0
 11
326.1279154000001199
 21
25.2984699999999521
 31
0.0
  0
LINE
  5
64
100
AcDbEntity
  8
0
 62
0
370
-1
 48
1.0
  6
BYLAYER
100
AcDbLine
 10
326.1279154000001199
 20
25.2984699999999521
 30
0.0
 11
326.3719154000000344
 21
24.9897699999999077
 31
0.0
  0
LINE
  5
65
100
AcDbEntity
  8
0
 62
0
370
-1
 48
1.0
  6
BYLAYER
100
AcDbLine
 10
326.3719154000000344
 20
24.9897699999999077
 30
0.0
 11
326.589915400000109
 21
24.6645699999999124
 31
0.0
  0
LINE
  5
66
100
AcDbEntity
  8
0
 62
0
370
-1
 48
1.0
  6
BYLAYER
100
AcDbLine
 10
326.589915400000109
 20
24.6645699999999124
 30
0.0
 11
326.7809153999999126
 21
24.3214699999999766
 31
0.0
  0
LINE
  5
67
100
AcDbEntity
  8
0
 62
0
370
-1
 48
1.0
  6
BYLAYER
100
AcDbLine
 10
326.7809153999999126
 20
24.3214699999999766
 30
0.0
 11
326.9449154000001272
 21
23.9645699999999806
 31
0.0
  0
LINE
  5
68
100
AcDbEntity
  8
0
 62
0
370
-1
 48
1.0
  6
BYLAYER
100
AcDbLine
 10
326.9449154000001272
 20
23.9645699999999806
 30
0.0
 11
327.0819154000000708
 21
23.5965699999999288
 31
0.0
  0
LINE
  5
69
100
AcDbEntity
  8
0
 62
0
370
-1
 48
1.0
  6
BYLAYER
100
AcDbLine
 10
327.0819154000000708
 20
23.5965699999999288
 30
0.0
 11
327.1879154000000653
 21
23.2190699999999879
 31
0.0
  0
LINE
  5
6A
100
AcDbEntity
  8
0
 62
0
370
-1
 48
1.0
  6
BYLAYER
100
AcDbLine
 10
327.1879154000000653
 20
23.2190699999999879
 30
0.0
 11
327.2649154000000635
 21
22.8345699999999852
 31
0.0
  0
LINE
  5
6B
100
AcDbEntity
  8
0
 62
0
370
-1
 48
1.0
  6
BYLAYER
100
AcDbLine
 10
327.2649154000000635
 20
22.8345699999999852
 30
0.0
 11
327.3099153999999089
 21
22.4445699999998851
 31
0.0
  0
LINE
  5
6C
100
AcDbEntity
  8
0
 62
0
370
-1
 48
1.0
  6
BYLAYER
100
AcDbLine
 10
327.3099153999999089
 20
22.4445699999998851
 30
0.0
 11
327.324915400000009
 21
22.0504699999999048
 31
0.0
  0
LINE
  5
6D
100
AcDbEntity
  8
0
 62
0
370
-1
 48
1.0
  6
BYLAYER
100
AcDbLine
 10
327.324915400000009
 20
22.0504699999999048
 30
0.0
 11
327.326915400000189
 21
5.0
 31
0.0
  0
LINE
  5
6E
100
AcDbEntity
  8
0
 62
0
370
-1
 48
1.0
  6
BYLAYER
100
AcDbLine
 10
327.326915400000189
 20
5.0
 30
0.0
 11
327.3099153999999089
 21
4.6086299999999483
 31
0.0
  0
LINE
  5
6F
100
AcDbEntity
  8
0
 62
0
370
-1
 48
1.0
  6
BYLAYER
100
AcDbLine
 10
327.3099153999999089
 20
4.6086299999999483
 30
0.0
 11
327.2649154000000635
 21
4.2186299999999619
 31
0.0
  0
LINE
  5
70
100
AcDbEntity
  8
0
 62
0
370
-1
 48
1.0
  6
BYLAYER
100
AcDbLine
 10
327.2649154000000635
 20
4.2186299999999619
 30
0.0
 11
327.1879154000000653
 21
3.8327999999999065
 31
0.0
  0
LINE
  5
71
100
AcDbEntity
  8
0
 62
0
370
-1
 48
1.0
  6
BYLAYER
100
AcDbLine
 10
327.1879154000000653
 20
3.8327999999999065
 30
0.0
 11
327.0819154000000708
 21
3.4552199999999402
 31
0.0
  0
LINE
  5
72
100
AcDbEntity
  8
0
 62
0
370
-1
 48
1.0
  6
BYLAYER
100
AcDbLine
 10
327.0819154000000708
 20
3.4552199999999402
 30
0.0
 11
326.9449154000001272
 21
3.0872699999999895
 31
0.0
  0
LINE
  5
73
100
AcDbEntity
  8
0
 62
0
370
-1
 48
1.0
  6
BYLAYER
100
AcDbLine
 10
326.9449154000001272
 20
3.0872699999999895
 30
0.0
 11
326.7809153999999126
 21
2.7303499999999303
 31
0.0
  0
LINE
  5
74
100
AcDbEntity
  8
0
 62
0
370
-1
 48
1.0
  6
BYLAYER
100
AcDbLine
 10
326.7809153999999126
 20
2.7303499999999303
 30
0.0
 11
326.589915400000109
 21
2.3885999999999967
 31
0.0
  0
LINE
  5
75
100
AcDbEntity
  8
0
 62
0
370
-1
 48
1.0
  6
BYLAYER
100
AcDbLine
 10
326.589915400000109
 20
2.3885999999999967
 30
0.0
 11
326.3719154000000344
 21
2.0620099999999866
 31
0.0
  0
LINE
  5
76
100
AcDbEntity
  8
0
 62
0
370
-1
 48
1.0
  6
BYLAYER
100
AcDbLine
 10
326.3719154000000344
 20
2.0620099999999866
 30
0.0
 11
326.1279154000001199
 21
1.7533300000000054
 31
0.0
  0
LINE
  5
77
100
AcDbEntity
  8
0
 62
0
370
-1
 48
1.0
  6
BYLAYER
100
AcDbLine
 10
326.1279154000001199
 20
1.7533300000000054
 30
0.0
 11
325.8619154000000435
 21
1.4653200000000197
 31
0.0
  0
LINE
  5
78
100
AcDbEntity
  8
0
 62
0
370
-1
 48
1.0
  6
BYLAYER
100
AcDbLine
 10
325.8619154000000435
 20
1.4653200000000197
 30
0.0
 11
325.5739154000000326
 21
1.1979799999999159
 31
0.0
  0
LINE
  5
79
100
AcDbEntity
  8
0
 62
0
370
-1
 48
1.0
  6
BYLAYER
100
AcDbLine
 10
325.5739154000000326
 20
1.1979799999999159
 30
0.0
 11
325.2639154000000872
 21
0.9554399999999532
 31
0.0
  0
LINE
  5
7A
100
AcDbEntity
  8
0
 62
0
370
-1
 48
1.0
  6
BYLAYER
100
AcDbLine
 10
325.2639154000000872
 20
0.9554399999999532
 30
0.0
 11
324.9389154000000417
 21
0.7363399999999274
 31
0.0
  0
LINE
  5
7B
100
AcDbEntity
  8
0
 62
0
370
-1
 48
1.0
  6
BYLAYER
100
AcDbLine
 10
324.9389154000000417
 20
0.7363399999999274
 30
0.0
 11
324.5959153999999671
 21
0.5447869999999284
 31
0.0
  0
LINE
  5
7C
100
AcDbEntity
  8
0
 62
0
370
-1
 48
1.0
  6
BYLAYER
100
AcDbLine
 10
324.5959153999999671
 20
0.5447869999999284
 30
0.0
 11
324.2399153999999726
 21
0.3808019999999033
 31
0.0
  0
LINE
  5
7D
100
AcDbEntity
  8
0
 62
0
370
-1
 48
1.0
  6
BYLAYER
100
AcDbLine
 10
324.2399153999999726
 20
0.3808019999999033
 30
0.0
 11
323.8719154000000344
 21
0.2443759999999884
 31
0.0
  0
LINE
  5
7E
100
AcDbEntity
  8
0
 62
0
370
-1
 48
1.0
  6
BYLAYER
100
AcDbLine
 10
323.8719154000000344
 20
0.2443759999999884
 30
0.0
 11
323.492915400000129
 21
0.138266999999928
 31
0.0
  0
LINE
  5
7F
100
AcDbEntity
  8
0
 62
0
370
-1
 48
1.0
  6
BYLAYER
100
AcDbLine
 10
323.492915400000129
 20
0.138266999999928
 30
0.0
 11
323.1089154000001145
 21
0.0624729999999545
 31
0.0
  0
LINE
  5
80
100
AcDbEntity
  8
0
 62
0
370
-1
 48
1.0
  6
BYLAYER
100
AcDbLine
 10
323.1089154000001145
 20
0.0624729999999545
 30
0.0
 11
322.7189154000000144
 21
0.0156210000000101
 31
0.0
  0
LINE
  5
81
100
AcDbEntity
  8
0
 62
0
370
-1
 48
1.0
  6
BYLAYER
100
AcDbLine
 10
322.7189154000000144
 20
0.0156210000000101
 30
0.0
 11
322.3259153999999853
 21
0.0004619999999704
 31
0.0
  0
LINE
  5
82
100
AcDbEntity
  8
0
 62
0
370
-1
 48
1.0
  6
BYLAYER
100
AcDbLine
 10
322.3259153999999853
 20
0.0004619999999704
 30
0.0
 11
5.0008953999999903
 21
0.0004619999999704
 31
0.0
  0
LINE
  5
83
100
AcDbEntity
  8
0
 62
0
370
-1
 48
1.0
  6
BYLAYER
100
AcDbLine
 10
5.0008953999999903
 20
0.0004619999999704
 30
0.0
 11
4.6067754000000605
 21
0.0156210000000101
 31
0.0
  0
LINE
  5
84
100
AcDbEntity
  8
0
 62
0
370
-1
 48
1.0
  6
BYLAYER
100
AcDbLine
 10
4.6067754000000605
 20
0.0156210000000101
 30
0.0
 11
4.2168154000000868
 21
0.0624729999999545
 31
0.0
  0
LINE
  5
85
100
AcDbEntity
  8
0
 62
0
370
-1
 48
1.0
  6
BYLAYER
100
AcDbLine
 10
4.2168154000000868
 20
0.0624729999999545
 30
0.0
 11
3.8323154000000841
 21
0.138266999999928
 31
0.0
  0
LINE
  5
86
100
AcDbEntity
  8
0
 62
0
370
-1
 48
1.0
  6
BYLAYER
100
AcDbLine
 10
3.8323154000000841
 20
0.138266999999928
 30
0.0
 11
3.4547454000000926
 21
0.2443759999999884
 31
0.0
  0
LINE
  5
87
100
AcDbEntity
  8
0
 62
0
370
-1
 48
1.0
  6
BYLAYER
100
AcDbLine
 10
3.4547454000000926
 20
0.2443759999999884
 30
0.0
 11
3.0868054000000029
 21
0.3808019999999033
 31
0.0
  0
LINE
  5
88
100
AcDbEntity
  8
0
 62
0
370
-1
 48
1.0
  6
BYLAYER
100
AcDbLine
 10
3.0868054000000029
 20
0.3808019999999033
 30
0.0
 11
2.7298954000000322
 21
0.5447869999999284
 31
0.0
  0
LINE
  5
89
100
AcDbEntity
  8
0
 62
0
370
-1
 48
1.0
  6
BYLAYER
100
AcDbLine
 10
2.7298954000000322
 20
0.5447869999999284
 30
0.0
 11
2.3867654000000584
 21
0.7363399999999274
 31
0.0
  0
LINE
  5
8A
100
AcDbEntity
  8
0
 62
0
370
-1
 48
1.0
  6
BYLAYER
100
AcDbLine
 10
2.3867654000000584
 20
0.7363399999999274
 30
0.0
 11
2.0615454000001137
 21
0.9554399999999532
 31
0.0
  0
LINE
  5
8B
100
AcDbEntity
  8
0
 62
0
370
-1
 48
1.0
  6
BYLAYER
100
AcDbLine
 10
2.0615454000001137
 20
0.9554399999999532
 30
0.0
 11
1.7528654000000188
 21
1.1979799999999159
 31
0.0
  0
LINE
  5
8C
100
AcDbEntity
  8
0
 62
0
370
-1
 48
1.0
  6
BYLAYER
100
AcDbLine
 10
1.7528654000000188
 20
1.1979799999999159
 30
0.0
 11
1.4648554000000331
 21
1.4653200000000197
 31
0.0
  0
LINE
  5
8D
100
AcDbEntity
  8
0
 62
0
370
-1
 48
1.0
  6
BYLAYER
100
AcDbLine
 10
1.4648554000000331
 20
1.4653200000000197
 30
0.0
 11
1.197515400000043
 21
1.7533300000000054
 31
0.0
  0
LINE
  5
8E
100
AcDbEntity
  8
0
 62
0
370
-1
 48
1.0
  6
BYLAYER
100
AcDbLine
 10
1.197515400000043
 20
1.7533300000000054
 30
0.0
 11
0.9549754000000803
 21
2.0620099999999866
 31
0.0
  0
LINE
  5
8F
100
AcDbEntity
  8
0
 62
0
370
-1
 48
1.0
  6
BYLAYER
100
AcDbLine
 10
0.9549754000000803
 20
2.0620099999999866
 30
0.0
 11
0.735872400000062
 21
2.3885999999999967
 31
0.0
  0
LINE
  5
90
100
AcDbEntity
  8
0
 62
0
370
-1
 48
1.0
  6
BYLAYER
100
AcDbLine
 10
0.735872400000062
 20
2.3885999999999967
 30
0.0
 11
0.5443254000000479
 21
2.7303499999999303
 31
0.0
  0
LINE
  5
91
100
AcDbEntity
  8
0
 62
0
370
-1
 48
1.0
  6
BYLAYER
100
AcDbLine
 10
0.5443254000000479
 20
2.7303499999999303
 30
0.0
 11
0.3803394000000253
 21
3.0872699999999895
 31
0.0
  0
LINE
  5
92
100
AcDbEntity
  8
0
 62
0
370
-1
 48
1.0
  6
BYLAYER
100
AcDbLine
 10
0.3803394000000253
 20
3.0872699999999895
 30
0.0
 11
0.2439134000001104
 21
3.4552199999999402
 31
0.0
  0
LINE
  5
93
100
AcDbEntity
  8
0
 62
0
370
-1
 48
1.0
  6
BYLAYER
100
AcDbLine
 10
0.2439134000001104
 20
3.4552199999999402
 30
0.0
 11
0.1378034000000525
 21
3.8327999999999065
 31
0.0
  0
LINE
  5
94
100
AcDbEntity
  8
0
 62
0
370
-1
 48
1.0
  6
BYLAYER
100
AcDbLine
 10
0.1378034000000525
 20
3.8327999999999065
 30
0.0
 11
0.0620124000000715
 21
4.2186299999999619
 31
0.0
  0
LINE
  5
95
100
AcDbEntity
  8
0
 62
0
370
-1
 48
1.0
  6
BYLAYER
100
AcDbLine
 10
0.0620124000000715
 20
4.2186299999999619
 30
0.0
 11
0.0151584000000184
 21
4.6086299999999483
 31
0.0
  0
LINE
  5
96
100
AcDbEntity
  8
0
 62
0
370
-1
 48
1.0
  6
BYLAYER
100
AcDbLine
 10
0.0151584000000184
 20
4.6086299999999483
 30
0.0
 11
0.0
 21
5.0
 31
0.0
  0
LINE
  5
97
100
AcDbEntity
  8
0
 62
0
370
-1
 48
1.0
  6
BYLAYER
100
AcDbLine
 10
0.0
 20
5.0
 30
0.0
 11
0.0
 21
22.0504699999999048
 31
0.0
  0
LINE
  5
98
100
AcDbEntity
  8
0
 62
0
370
-1
 48
1.0
  6
BYLAYER
100
AcDbLine
 10
0.0
 20
22.0504699999999048
 30
0.0
 11
0.0151584000000184
 21
22.4445699999998851
 31
0.0
  0
LINE
  5
99
100
AcDbEntity
  8
0
 62
0
370
-1
 48
1.0
  6
BYLAYER
100
AcDbLine
 10
0.0151584000000184
 20
22.4445699999998851
 30
0.0
 11
0.0620124000000715
 21
22.8345699999999852
 31
0.0
  0
LINE
  5
9A
100
AcDbEntity
  8
0
 62
0
370
-1
 48
1.0
  6
BYLAYER
100
AcDbLine
 10
0.0620124000000715
 20
22.8345699999999852
 30
0.0
 11
0.1378034000000525
 21
23.2190699999999879
 31
0.0
  0
LINE
  5
9B
100
AcDbEntity
  8
0
 62
0
370
-1
 48
1.0
  6
BYLAYER
100
AcDbLine
 10
0.1378034000000525
 20
23.2190699999999879
 30
0.0
 11
0.2439134000001104
 21
23.5965699999999288
 31
0.0
  0
LINE
  5
9C
100
AcDbEntity
  8
0
 62
0
370
-1
 48
1.0
  6
BYLAYER
100
AcDbLine
 10
0.2439134000001104
 20
23.5965699999999288
 30
0.0
 11
0.3803394000000253
 21
23.9645699999999806
 31
0.0
  0
LINE
  5
9D
100
AcDbEntity
  8
0
 62
0
370
-1
 48
1.0
  6
BYLAYER
100
AcDbLine
 10
0.3803394000000253
 20
23.9645699999999806
 30
0.0
 11
0.5443254000000479
 21
24.3214699999999766
 31
0.0
  0
LINE
  5
9E
100
AcDbEntity
  8
0
 62
0
370
-1
 48
1.0
  6
BYLAYER
100
AcDbLine
 10
0.5443254000000479
 20
24.3214699999999766
 30
0.0
 11
0.735872400000062
 21
24.6645699999999124
 31
0.0
  0
LINE
  5
9F
100
AcDbEntity
  8
0
 62
0
370
-1
 48
1.0
  6
BYLAYER
100
AcDbLine
 10
0.735872400000062
 20
24.6645699999999124
 30
0.0
 11
0.9549754000000803
 21
24.9897699999999077
 31
0.0
  0
LINE
  5
A0
100
AcDbEntity
  8
0
 62
0
370
-1
 48
1.0
  6
BYLAYER
100
AcDbLine
 10
0.9549754000000803
 20
24.9897699999999077
 30
0.0
 11
1.197515400000043
 21
25.2984699999999521
 31
0.0
  0
LINE
  5
A1
100
AcDbEntity
  8
0
 62
0
370
-1
 48
1.0
  6
BYLAYER
100
AcDbLine
 10
1.197515400000043
 20
25.2984699999999521
 30
0.0
 11
1.4648554000000331
 21
25.586469999999963
 31
0.0
  0
LINE
  5
A2
100
AcDbEntity
  8
0
 62
0
370
-1
 48
1.0
  6
BYLAYER
100
AcDbLine
 10
1.4648554000000331
 20
25.586469999999963
 30
0.0
 11
1.7528654000000188
 21
25.8538699999999153
 31
0.0
  0
LINE
  5
A3
100
AcDbEntity
  8
0
 62
0
370
-1
 48
1.0
  6
BYLAYER
100
AcDbLine
 10
1.7528654000000188
 20
25.8538699999999153
 30
0.0
 11
2.0615454000001137
 21
26.096369999999979
 31
0.0
  0
LINE
  5
A4
100
AcDbEntity
  8
0
 62
0
370
-1
 48
1.0
  6
BYLAYER
100
AcDbLine
 10
2.0615454000001137
 20
26.096369999999979
 30
0.0
 11
2.3867654000000584
 21
26.3154700000000048
 31
0.0
  0
LINE
  5
A5
100
AcDbEntity
  8
0
 62
0
370
-1
 48
1.0
  6
BYLAYER
100
AcDbLine
 10
2.3867654000000584
 20
26.3154700000000048
 30
0.0
 11
2.7298954000000322
 21
26.5070699999998851
 31
0.0
  0
LINE
  5
A6
100
AcDbEntity
  8
0
 62
0
370
-1
 48
1.0
  6
BYLAYER
100
AcDbLine
 10
2.7298954000000322
 20
26.5070699999998851
 30
0.0
 11
3.0868054000000029
 21
26.6709699999998975
 31
0.0
  0
LINE
  5
A7
100
AcDbEntity
  8
0
 62
0
370
-1
 48
1.0
  6
BYLAYER
100
AcDbLine
 10
3.0868054000000029
 20
26.6709699999998975
 30
0.0
 11
3.4547454000000926
 21
26.8074699999999666
 31
0.0
  0
LINE
  5
A8
100
AcDbEntity
  8
0
 62
0
370
-1
 48
1.0
  6
BYLAYER
100
AcDbLine
 10
3.4547454000000926
 20
26.8074699999999666
 30
0.0
 11
3.8323154000000841
 21
26.913569999999936
 31
0.0
  0
LINE
  5
A9
100
AcDbEntity
  8
0
 62
0
370
-1
 48
1.0
  6
BYLAYER
100
AcDbLine
 10
3.8323154000000841
 20
26.913569999999936
 30
0.0
 11
4.2168154000000868
 21
26.9893700000000081
 31
0.0
  0
LINE
  5
AA
100
AcDbEntity
  8
0
 62
0
370
-1
 48
1.0
  6
BYLAYER
100
AcDbLine
 10
4.2168154000000868
 20
26.9893700000000081
 30
0.0
 11
4.6067754000000605
 21
27.0361699999999701
 31
0.0
  0
LINE
  5
AB
100
AcDbEntity
  8
0
 62
0
370
-1
 48
1.0
  6
BYLAYER
100
AcDbLine
 10
4.6067754000000605
 20
27.0361699999999701
 30
0.0
 11
5.0008953999999903
 21
27.0513699999999062
 31
0.0
  0
LINE
  5
AC
100
AcDbEntity
  8
0
 62
0
370
-1
 48
1.0
  6
BYLAYER
100
AcDbLine
 10
5.0008953999999903
 20
27.0513699999999062
 30
0.0
 11
322.3259153999999853
 21
27.0513699999999062
 31
0.0
  0
LINE
  5
AD
100
AcDbEntity
  8
0
 62
0
370
-1
 48
1.0
  6
BYLAYER
100
AcDbLine
 10
163.1388153999999986
 20
22.7555699999998922
 30
0.0
 11
162.8604653999999528
 21
22.6136099999999658
 31
0.0
  0
LINE
  5
AE
100
AcDbEntity
  8
0
 62
0
370
-1
 48
1.0
  6
BYLAYER
100
AcDbLine
 10
5.4271253999999658
 20
22.7555699999997501
 30
0.0
 11
5.14877539999992
 21
22.6136099999998237
 31
0.0
  0
LINE
  5
AF
100
AcDbEntity
  8
0
 62
0
370
-1
 48
1.0
  6
BYLAYER
100
AcDbLine
 10
320.4758153999999877
 20
22.7555699999997216
 30
0.0
 11
320.1974653999999418
 21
22.6136099999997953
 31
0.0
  0
LINE
  5
B0
100
AcDbEntity
  8
0
 62
0
370
-1
 48
1.0
  6
BYLAYER
100
AcDbLine
 10
162.8604653999999528
 20
22.6136099999999658
 30
0.0
 11
162.6386053999998467
 21
22.3917499999998597
 31
0.0
  0
LINE
  5
B1
100
AcDbEntity
  8
0
 62
0
370
-1
 48
1.0
  6
BYLAYER
100
AcDbLine
 10
5.14877539999992
 20
22.6136099999998237
 30
0.0
 11
4.9269153999999276
 21
22.3917499999997176
 31
0.0
  0
LINE
  5
B2
100
AcDbEntity
  8
0
 62
0
370
-1
 48
1.0
  6
BYLAYER
100
AcDbLine
 10
320.1974653999999418
 20
22.6136099999997953
 30
0.0
 11
319.9756053999998358
 21
22.3917499999996892
 31
0.0
  0
LINE
  5
B3
100
AcDbEntity
  8
0
 62
0
370
-1
 48
1.0
  6
BYLAYER
100
AcDbLine
 10
162.6386053999998467
 20
22.3917499999998597
 30
0.0
 11
162.4966653999998698
 21
22.1133699999998896
 31
0.0
  0
LINE
  5
B4
100
AcDbEntity
  8
0
 62
0
370
-1
 48
1.0
  6
BYLAYER
100
AcDbLine
 10
4.9269153999999276
 20
22.3917499999997176
 30
0.0
 11
4.7849753999999507
 21
22.1133699999997475
 31
0.0
  0
LINE
  5
B5
100
AcDbEntity
  8
0
 62
0
370
-1
 48
1.0
  6
BYLAYER
100
AcDbLine
 10
319.9756053999998358
 20
22.3917499999996892
 30
0.0
 11
319.8336653999998589
 21
22.1133699999997191
 31
0.0
  0
LINE
  5
B6
100
AcDbEntity
  8
0
 62
0
370
-1
 48
1.0
  6
BYLAYER
100
AcDbLine
 10
162.4966653999998698
 20
22.1133699999998896
 30
0.0
 11
162.4470553999998401
 21
21.8046900000000221
 31
0.0
  0
LINE
  5
B7
100
AcDbEntity
  8
0
 62
0
370
-1
 48
1.0
  6
BYLAYER
100
AcDbLine
 10
4.7849753999999507
 20
22.1133699999997475
 30
0.0
 11
4.735365399999921
 21
21.80468999999988
 31
0.0
  0
LINE
  5
B8
100
AcDbEntity
  8
0
 62
0
370
-1
 48
1.0
  6
BYLAYER
100
AcDbLine
 10
319.8336653999998589
 20
22.1133699999997191
 30
0.0
 11
319.7840553999998292
 21
21.8046899999998516
 31
0.0
  0
LINE
  5
B9
100
AcDbEntity
  8
0
 62
0
370
-1
 48
1.0
  6
BYLAYER
100
AcDbLine
 10
162.4470553999998401
 20
21.8046900000000221
 30
0.0
 11
162.4966653999998698
 21
21.4946300000000008
 31
0.0
  0
LINE
  5
BA
100
AcDbEntity
  8
0
 62
0
370
-1
 48
1.0
  6
BYLAYER
100
AcDbLine
 10
4.735365399999921
 20
21.80468999999988
 30
0.0
 11
4.7849753999999507
 21
21.4946299999998587
 31
0.0
  0
LINE
  5
BB
100
AcDbEntity
  8
0
 62
0
370
-1
 48
1.0
  6
BYLAYER
100
AcDbLine
 10
319.7840553999998292
 20
21.8046899999998516
 30
0.0
 11
319.8336653999998589
 21
21.4946299999998303
 31
0.0
  0
LINE
  5
BC
100
AcDbEntity
  8
0
 62
0
370
-1
 48
1.0
  6
BYLAYER
100
AcDbLine
 10
162.4966653999998698
 20
21.4946300000000008
 30
0.0
 11
162.6386053999998467
 21
21.2162899999999297
 31
0.0
  0
LINE
  5
BD
100
AcDbEntity
  8
0
 62
0
370
-1
 48
1.0
  6
BYLAYER
100
AcDbLine
 10
4.7849753999999507
 20
21.4946299999998587
 30
0.0
 11
4.9269153999999276
 21
21.2162899999997876
 31
0.0
  0
LINE
  5
BE
100
AcDbEntity
  8
0
 62
0
370
-1
 48
1.0
  6
BYLAYER
100
AcDbLine
 10
319.8336653999998589
 20
21.4946299999998303
 30
0.0
 11
319.9756053999998358
 21
21.2162899999997592
 31
0.0
  0
LINE
  5
BF
100
AcDbEntity
  8
0
 62
0
370
-1
 48
1.0
  6
BYLAYER
100
AcDbLine
 10
162.6386053999998467
 20
21.2162899999999297
 30
0.0
 11
162.8604653999999528
 21
20.9944200000000762
 31
0.0
  0
LINE
  5
C0
100
AcDbEntity
  8
0
 62
0
370
-1
 48
1.0
  6
BYLAYER
100
AcDbLine
 10
4.9269153999999276
 20
21.2162899999997876
 30
0.0
 11
5.14877539999992
 21
20.9944199999999341
 31
0.0
  0
LINE
  5
C1
100
AcDbEntity
  8
0
 62
0
370
-1
 48
1.0
  6
BYLAYER
100
AcDbLine
 10
319.9756053999998358
 20
21.2162899999997592
 30
0.0
 11
320.1974653999999418
 21
20.9944199999999057
 31
0.0
  0
LINE
  5
C2
100
AcDbEntity
  8
0
 62
0
370
-1
 48
1.0
  6
BYLAYER
100
AcDbLine
 10
162.8604653999999528
 20
20.9944200000000762
 30
0.0
 11
163.1388153999999986
 21
20.852479999999872
 31
0.0
  0
LINE
  5
C3
100
AcDbEntity
  8
0
 62
0
370
-1
 48
1.0
  6
BYLAYER
100
AcDbLine
 10
5.14877539999992
 20
20.9944199999999341
 30
0.0
 11
5.4271253999999658
 21
20.8524799999997299
 31
0.0
  0
LINE
  5
C4
100
AcDbEntity
  8
0
 62
0
370
-1
 48
1.0
  6
BYLAYER
100
AcDbLine
 10
320.1974653999999418
 20
20.9944199999999057
 30
0.0
 11
320.4758153999999877
 21
20.8524799999997015
 31
0.0
  0
LINE
  5
C5
100
AcDbEntity
  8
0
 62
0
370
-1
 48
1.0
  6
BYLAYER
100
AcDbLine
 10
163.1388153999999986
 20
20.852479999999872
 30
0.0
 11
163.4474953999998661
 21
20.8042499999999961
 31
0.0
  0
LINE
  5
C6
100
AcDbEntity
  8
0
 62
0
370
-1
 48
1.0
  6
BYLAYER
100
AcDbLine
 10
5.4271253999999658
 20
20.8524799999997299
 30
0.0
 11
5.735805399999947
 21
20.804249999999854
 31
0.0
  0
LINE
  5
C7
100
AcDbEntity
  8
0
 62
0
370
-1
 48
1.0
  6
BYLAYER
100
AcDbLine
 10
320.4758153999999877
 20
20.8524799999997015
 30
0.0
 11
320.7844953999998552
 21
20.8042499999998256
 31
0.0
  0
LINE
  5
C8
100
AcDbEntity
  8
0
 62
0
370
-1
 48
1.0
  6
BYLAYER
100
AcDbLine
 10
163.4474953999998661
 20
20.8042499999999961
 30
0.0
 11
163.7575553999998874
 21
20.852479999999872
 31
0.0
  0
LINE
  5
C9
100
AcDbEntity
  8
0
 62
0
370
-1
 48
1.0
  6
BYLAYER
100
AcDbLine
 10
5.735805399999947
 20
20.804249999999854
 30
0.0
 11
6.0458653999999683
 21
20.8524799999997299
 31
0.0
  0
LINE
  5
CA
100
AcDbEntity
  8
0
 62
0
370
-1
 48
1.0
  6
BYLAYER
100
AcDbLine
 10
320.7844953999998552
 20
20.8042499999998256
 30
0.0
 11
321.0945553999998765
 21
20.8524799999997015
 31
0.0
  0
LINE
  5
CB
100
AcDbEntity
  8
0
 62
0
370
-1
 48
1.0
  6
BYLAYER
100
AcDbLine
 10
163.7575553999998874
 20
20.852479999999872
 30
0.0
 11
164.0359353999998575
 21
20.9944200000000762
 31
0.0
  0
LINE
  5
CC
100
AcDbEntity
  8
0
 62
0
370
-1
 48
1.0
  6
BYLAYER
100
AcDbLine
 10
6.0458653999999683
 20
20.8524799999997299
 30
0.0
 11
6.3242453999999384
 21
20.9944199999999341
 31
0.0
  0
LINE
  5
CD
100
AcDbEntity
  8
0
 62
0
370
-1
 48
1.0
  6
BYLAYER
100
AcDbLine
 10
321.0945553999998765
 20
20.8524799999997015
 30
0.0
 11
321.3729353999998466
 21
20.9944199999999057
 31
0.0
  0
LINE
  5
CE
100
AcDbEntity
  8
0
 62
0
370
-1
 48
1.0
  6
BYLAYER
100
AcDbLine
 10
164.0359353999998575
 20
20.9944200000000762
 30
0.0
 11
164.2577953999999636
 21
21.2162899999999297
 31
0.0
  0
LINE
  5
CF
100
AcDbEntity
  8
0
 62
0
370
-1
 48
1.0
  6
BYLAYER
100
AcDbLine
 10
6.3242453999999384
 20
20.9944199999999341
 30
0.0
 11
6.5461053999999308
 21
21.2162899999997876
 31
0.0
  0
LINE
  5
D0
100
AcDbEntity
  8
0
 62
0
370
-1
 48
1.0
  6
BYLAYER
100
AcDbLine
 10
321.3729353999998466
 20
20.9944199999999057
 30
0.0
 11
321.5947953999999527
 21
21.2162899999997592
 31
0.0
  0
LINE
  5
D1
100
AcDbEntity
  8
0
 62
0
370
-1
 48
1.0
  6
BYLAYER
100
AcDbLine
 10
164.2577953999999636
 20
21.2162899999999297
 30
0.0
 11
164.39975539999989
 21
21.4946300000000008
 31
0.0
  0
LINE
  5
D2
100
AcDbEntity
  8
0
 62
0
370
-1
 48
1.0
  6
BYLAYER
100
AcDbLine
 10
6.5461053999999308
 20
21.2162899999997876
 30
0.0
 11
6.6880653999999709
 21
21.4946299999998587
 31
0.0
  0
LINE
  5
D3
100
AcDbEntity
  8
0
 62
0
370
-1
 48
1.0
  6
BYLAYER
100
AcDbLine
 10
321.5947953999999527
 20
21.2162899999997592
 30
0.0
 11
321.736755399999879
 21
21.4946299999998303
 31
0.0
  0
LINE
  5
D4
100
AcDbEntity
  8
0
 62
0
370
-1
 48
1.0
  6
BYLAYER
100
AcDbLine
 10
164.39975539999989
 20
21.4946300000000008
 30
0.0
 11
164.4479754000000185
 21
21.8046900000000221
 31
0.0
  0
LINE
  5
D5
100
AcDbEntity
  8
0
 62
0
370
-1
 48
1.0
  6
BYLAYER
100
AcDbLine
 10
6.6880653999999709
 20
21.4946299999998587
 30
0.0
 11
6.7362853999999857
 21
21.80468999999988
 31
0.0
  0
LINE
  5
D6
100
AcDbEntity
  8
0
 62
0
370
-1
 48
1.0
  6
BYLAYER
100
AcDbLine
 10
321.736755399999879
 20
21.4946299999998303
 30
0.0
 11
321.7849754000000075
 21
21.8046899999998516
 31
0.0
  0
LINE
  5
D7
100
AcDbEntity
  8
0
 62
0
370
-1
 48
1.0
  6
BYLAYER
100
AcDbLine
 10
164.4479754000000185
 20
21.8046900000000221
 30
0.0
 11
164.39975539999989
 21
22.1133699999998896
 31
0.0
  0
LINE
  5
D8
100
AcDbEntity
  8
0
 62
0
370
-1
 48
1.0
  6
BYLAYER
100
AcDbLine
 10
6.7362853999999857
 20
21.80468999999988
 30
0.0
 11
6.6880653999999709
 21
22.1133699999997475
 31
0.0
  0
LINE
  5
D9
100
AcDbEntity
  8
0
 62
0
370
-1
 48
1.0
  6
BYLAYER
100
AcDbLine
 10
321.7849754000000075
 20
21.8046899999998516
 30
0.0
 11
321.736755399999879
 21
22.1133699999997191
 31
0.0
  0
LINE
  5
DA
100
AcDbEntity
  8
0
 62
0
370
-1
 48
1.0
  6
BYLAYER
100
AcDbLine
 10
164.39975539999989
 20
22.1133699999998896
 30
0.0
 11
164.2577953999999636
 21
22.3917499999998597
 31
0.0
  0
LINE
  5
DB
100
AcDbEntity
  8
0
 62
0
370
-1
 48
1.0
  6
BYLAYER
100
AcDbLine
 10
6.6880653999999709
 20
22.1133699999997475
 30
0.0
 11
6.5461053999999308
 21
22.3917499999997176
 31
0.0
  0
LINE
  5
DC
100
AcDbEntity
  8
0
 62
0
370
-1
 48
1.0
  6
BYLAYER
100
AcDbLine
 10
321.736755399999879
 20
22.1133699999997191
 30
0.0
 11
321.5947953999999527
 21
22.3917499999996892
 31
0.0
  0
LINE
  5
DD
100
AcDbEntity
  8
0
 62
0
370
-1
 48
1.0
  6
BYLAYER
100
AcDbLine
 10
164.2577953999999636
 20
22.3917499999998597
 30
0.0
 11
164.0359353999998575
 21
22.6136099999999658
 31
0.0
  0
LINE
  5
DE
100
AcDbEntity
  8
0
 62
0
370
-1
 48
1.0
  6
BYLAYER
100
AcDbLine
 10
6.5461053999999308
 20
22.3917499999997176
 30
0.0
 11
6.3242453999999384
 21
22.6136099999998237
 31
0.0
  0
LINE
  5
DF
100
AcDbEntity
  8
0
 62
0
370
-1
 48
1.0
  6
BYLAYER
100
AcDbLine
 10
321.5947953999999527
 20
22.3917499999996892
 30
0.0
 11
321.3729353999998466
 21
22.6136099999997953
 31
0.0
  0
LINE
  5
E0
100
AcDbEntity
  8
0
 62
0
370
-1
 48
1.0
  6
BYLAYER
100
AcDbLine
 10
164.0359353999998575
 20
22.6136099999999658
 30
0.0
 11
163.7575553999998874
 21
22.7555699999998922
 31
0.0
  0
LINE
  5
E1
100
AcDbEntity
  8
0
 62
0
370
-1
 48
1.0
  6
BYLAYER
100
AcDbLine
 10
6.3242453999999384
 20
22.6136099999998237
 30
0.0
 11
6.0458653999999683
 21
22.7555699999997501
 31
0.0
  0
LINE
  5
E2
100
AcDbEntity
  8
0
 62
0
370
-1
 48
1.0
  6
BYLAYER
100
AcDbLine
 10
321.3729353999998466
 20
22.6136099999997953
 30
0.0
 11
321.0945553999998765
 21
22.7555699999997216
 31
0.0
  0
LINE
  5
E3
100
AcDbEntity
  8
0
 62
0
370
-1
 48
1.0
  6
BYLAYER
100
AcDbLine
 10
163.7575553999998874
 20
22.7555699999998922
 30
0.0
 11
163.4488754000000199
 21
22.8051699999999471
 31
0.0
  0
LINE
  5
E4
100
AcDbEntity
  8
0
 62
0
370
-1
 48
1.0
  6
BYLAYER
100
AcDbLine
 10
6.0458653999999683
 20
22.7555699999997501
 30
0.0
 11
5.7371853999999871
 21
22.805169999999805
 31
0.0
  0
LINE
  5
E5
100
AcDbEntity
  8
0
 62
0
370
-1
 48
1.0
  6
BYLAYER
100
AcDbLine
 10
321.0945553999998765
 20
22.7555699999997216
 30
0.0
 11
320.785875400000009
 21
22.8051699999997766
 31
0.0
  0
LINE
  5
E6
100
AcDbEntity
  8
0
 62
0
370
-1
 48
1.0
  6
BYLAYER
100
AcDbLine
 10
163.4488754000000199
 20
22.8051699999999471
 30
0.0
 11
163.1388153999999986
 21
22.7555699999998922
 31
0.0
  0
LINE
  5
E7
100
AcDbEntity
  8
0
 62
0
370
-1
 48
1.0
  6
BYLAYER
100
AcDbLine
 10
5.7371853999999871
 20
22.805169999999805
 30
0.0
 11
5.4271253999999658
 21
22.7555699999997501
 31
0.0
  0
LINE
  5
E8
100
AcDbEntity
  8
0
 62
0
370
-1
 48
1.0
  6
BYLAYER
100
AcDbLine
 10
320.785875400000009
 20
22.8051699999997766
 30
0.0
 11
320.4758153999999877
 21
22.7555699999997216
 31
0.0
  0
ENDSEC
  0
SECTION
  2
OBJECTS
  0
DICTIONARY
  5
C
100
AcDbDictionary
280
0
281
1
  3
ACAD_GROUP
350
D
  3
ACAD_LAYOUT
350
1A
  3
ACAD_MLINESTYLE
350
17
  3
ACAD_PLOTSETTINGS
350
19
  3
ACAD_PLOTSTYLENAME
350
E
  3
AcDbVariableDictionary
350
E9
  3
QCAD_OBJECTS
350
EA
  0
DICTIONARY
  5
D
100
AcDbDictionary
280
0
281
1
  0
ACDBDICTIONARYWDFLT
  5
E
100
AcDbDictionary
281
1
  3
Normal
350
F
100
AcDbDictionaryWithDefault
340
F
  0
ACDBPLACEHOLDER
  5
F
  0
DICTIONARY
  5
17
100
AcDbDictionary
280
0
281
1
  3
Standard
350
18
  0
MLINESTYLE
  5
18
100
AcDbMlineStyle
  2
STANDARD
 70
0
  3

 62
256
 51
90.0
 52
90.0
 71
2
 49
0.5
 62
256
  6
BYLAYER
 49
-0.5
 62
256
  6
BYLAYER
  0
DICTIONARY
  5
19
100
AcDbDictionary
280
0
281
1
  0
DICTIONARY
  5
1A
100
AcDbDictionary
281
1
  3
Layout1
350
1E
  3
Layout2
350
26
  3
Model
350
22
  0
LAYOUT
  5
1E
100
AcDbPlotSettings
  1

  2
none_device
  4

  6

 40
0.0
 41
0.0
 42
0.0
 43
0.0
 44
0.0
 45
0.0
 46
0.0
 47
0.0
 48
0.0
 49
0.0
140
0.0
141
0.0
142
1.0
143
1.0
 70
688
 72
0
 73
0
 74
5
  7

 75
16
147
1.0
148
0.0
149
0.0
100
AcDbLayout
  1
Layout1
 70
1
 71
1
 10
0.0
 20
0.0
 11
420.0
 21
297.0
 12
0.0
 22
0.0
 32
0.0
 14
100000000000000000000.0
 24
100000000000000000000.0
 34
100000000000000000000.0
 15
-100000000000000000000.0
 25
-100000000000000000000.0
 35
-100000000000000000000.0
146
0.0
 13
0.0
 23
0.0
 33
0.0
 16
1.0
 26
0.0
 36
0.0
 17
0.0
 27
1.0
 37
0.0
 76
0
330
1B
  0
LAYOUT
  5
22
100
AcDbPlotSettings
  1

  2
none_device
  4

  6

 40
0.0
 41
0.0
 42
0.0
 43
0.0
 44
0.0
 45
0.0
 46
0.0
 47
0.0
 48
0.0
 49
0.0
140
0.0
141
0.0
142
1.0
143
1.0
 70
1712
 72
0
 73
0
 74
0
  7

 75
0
147
1.0
148
0.0
149
0.0
100
AcDbLayout
  1
Model
 70
1
 71
0
 10
0.0
 20
0.0
 11
12.0
 21
9.0
 12
0.0
 22
0.0
 32
0.0
 14
0.0
 24
0.0
 34
0.0
 15
0.0
 25
0.0
 35
0.0
146
0.0
 13
0.0
 23
0.0
 33
0.0
 16
1.0
 26
0.0
 36
0.0
 17
0.0
 27
1.0
 37
0.0
 76
0
330
1F
  0
LAYOUT
  5
26
100
AcDbPlotSettings
  1

  2
none_device
  4

  6

 40
0.0
 41
0.0
 42
0.0
 43
0.0
 44
0.0
 45
0.0
 46
0.0
 47
0.0
 48
0.0
 49
0.0
140
0.0
141
0.0
142
1.0
143
1.0
 70
688
 72
0
 73
0
 74
5
  7

 75
16
147
1.0
148
0.0
149
0.0
100
AcDbLayout
  1
Layout2
 70
1
 71
2
 10
0.0
 20
0.0
 11
12.0
 21
9.0
 12
0.0
 22
0.0
 32
0.0
 14
0.0
 24
0.0
 34
0.0
 15
0.0
 25
0.0
 35
0.0
146
0.0
 13
0.0
 23
0.0
 33
0.0
 16
1.0
 26
0.0
 36
0.0
 17
0.0
 27
1.0
 37
0.0
 76
0
330
23
  0
DICTIONARY
  5
E9
100
AcDbDictionary
281
1
  3
DIMASSOC
350
EC
  3
HIDETEXT
350
EB
  0
DICTIONARYVAR
  5
EB
100
DictionaryVariables
280
0
  1
2
  0
DICTIONARYVAR
  5
EC
100
DictionaryVariables
280
0
  1
1
  0
DICTIONARY
  5
EA
100
AcDbDictionary
281
1
  3
ColorSettings/BackgroundColor
350
ED
  3
ColorSettings/ColorMode
350
EE
  3
Grid/DisplayGrid00
350
EF
  3
Grid/DisplayGrid01
350
F0
  3
Grid/DisplayGrid02
350
F1
  3
Grid/DisplayGrid03
350
F2
  3
Grid/GridSpacingX00
350
F3
  3
Grid/GridSpacingX01
350
F4
  3
Grid/GridSpacingX02
350
F5
  3
Grid/GridSpacingX03
350
F6
  3
Grid/GridSpacingY00
350
F7
  3
Grid/GridSpacingY01
350
F8
  3
Grid/GridSpacingY02
350
F9
  3
Grid/GridSpacingY03
350
FA
  3
Grid/IsometricGrid00
350
FB
  3
Grid/IsometricGrid01
350
FC
  3
Grid/IsometricGrid02
350
FD
  3
Grid/IsometricGrid03
350
FE
  3
Grid/IsometricProjection00
350
FF
  3
Grid/IsometricProjection01
350
100
  3
Grid/IsometricProjection02
350
101
  3
Grid/IsometricProjection03
350
102
  3
Grid/MetaGridSpacingX00
350
103
  3
Grid/MetaGridSpacingX01
350
104
  3
Grid/MetaGridSpacingX02
350
105
  3
Grid/MetaGridSpacingX03
350
106
  3
Grid/MetaGridSpacingY00
350
107
  3
Grid/MetaGridSpacingY01
350
108
  3
Grid/MetaGridSpacingY02
350
109
  3
Grid/MetaGridSpacingY03
350
10A
  3
MultiPageSettings/Columns
350
10B
  3
MultiPageSettings/GlueMarginsBottom
350
10C
  3
MultiPageSettings/GlueMarginsLeft
350
10D
  3
MultiPageSettings/GlueMarginsRight
350
10E
  3
MultiPageSettings/GlueMarginsTop
350
10F
  3
MultiPageSettings/PrintCropMarks
350
110
  3
MultiPageSettings/Rows
350
111
  3
PageSettings/OffsetX
350
112
  3
PageSettings/OffsetY
350
113
  3
PageSettings/PageOrientation
350
114
  3
PageSettings/PaperHeight
350
115
  3
PageSettings/PaperWidth
350
116
  3
PageSettings/Scale
350
117
  3
PageSettings/ShowPaperBorders
350
118
  3
PageTagSettings/EnablePageTags
350
119
  3
PageTagSettings/TagAlignment
350
11A
  3
PageTagSettings/TagFont
350
11B
  3
PageTagSettings/TagPosition
350
11C
  3
QCADVersion
350
11D
  3
UnitSettings/PaperUnit
350
11E
  3
ViewportCenter
350
11F
  3
ViewportHeight
350
120
  3
ViewportWidth
350
121
  0
XRECORD
  5
ED
330
EA
100
AcDbXrecord
280
1
1000
White
  0
XRECORD
  5
EE
330
EA
100
AcDbXrecord
280
1
1000
FullColor
  0
XRECORD
  5
EF
330
EA
100
AcDbXrecord
280
1
290
1
  0
XRECORD
  5
F0
330
EA
100
AcDbXrecord
280
1
290
1
  0
XRECORD
  5
F1
330
EA
100
AcDbXrecord
280
1
290
1
  0
XRECORD
  5
F2
330
EA
100
AcDbXrecord
280
1
290
1
  0
XRECORD
  5
F3
330
EA
100
AcDbXrecord
280
1
1000
auto
  0
XRECORD
  5
F4
330
EA
100
AcDbXrecord
280
1
1000
auto
  0
XRECORD
  5
F5
330
EA
100
AcDbXrecord
280
1
1000
auto
  0
XRECORD
  5
F6
330
EA
100
AcDbXrecord
280
1
1000
auto
  0
XRECORD
  5
F7
330
EA
100
AcDbXrecord
280
1
1000
auto
  0
XRECORD
  5
F8
330
EA
100
AcDbXrecord
280
1
1000
auto
  0
XRECORD
  5
F9
330
EA
100
AcDbXrecord
280
1
1000
auto
  0
XRECORD
  5
FA
330
EA
100
AcDbXrecord
280
1
1000
auto
  0
XRECORD
  5
FB
330
EA
100
AcDbXrecord
280
1
290
0
  0
XRECORD
  5
FC
330
EA
100
AcDbXrecord
280
1
290
0
  0
XRECORD
  5
FD
330
EA
100
AcDbXrecord
280
1
290
0
  0
XRECORD
  5
FE
330
EA
100
AcDbXrecord
280
1
290
0
  0
XRECORD
  5
FF
330
EA
100
AcDbXrecord
280
1
 90
65537
  0
XRECORD
  5
100
330
EA
100
AcDbXrecord
280
1
 90
65537
  0
XRECORD
  5
101
330
EA
100
AcDbXrecord
280
1
 90
65537
  0
XRECORD
  5
102
330
EA
100
AcDbXrecord
280
1
 90
65537
  0
XRECORD
  5
103
330
EA
100
AcDbXrecord
280
1
1000
auto
  0
XRECORD
  5
104
330
EA
100
AcDbXrecord
280
1
1000
auto
  0
XRECORD
  5
105
330
EA
100
AcDbXrecord
280
1
1000
auto
  0
XRECORD
  5
106
330
EA
100
AcDbXrecord
280
1
1000
auto
  0
XRECORD
  5
107
330
EA
100
AcDbXrecord
280
1
1000
auto
  0
XRECORD
  5
108
330
EA
100
AcDbXrecord
280
1
1000
auto
  0
XRECORD
  5
109
330
EA
100
AcDbXrecord
280
1
1000
auto
  0
XRECORD
  5
10A
330
EA
100
AcDbXrecord
280
1
1000
auto
  0
XRECORD
  5
10B
330
EA
100
AcDbXrecord
280
1
 90
1
  0
XRECORD
  5
10C
330
EA
100
AcDbXrecord
280
1
 40
0.5
  0
XRECORD
  5
10D
330
EA
100
AcDbXrecord
280
1
 40
0.5
  0
XRECORD
  5
10E
330
EA
100
AcDbXrecord
280
1
 40
0.5
  0
XRECORD
  5
10F
330
EA
100
AcDbXrecord
280
1
 40
0.5
  0
XRECORD
  5
110
330
EA
100
AcDbXrecord
280
1
290
0
  0
XRECORD
  5
111
330
EA
100
AcDbXrecord
280
1
 90
1
  0
XRECORD
  5
112
330
EA
100
AcDbXrecord
280
1
 40
0.0
  0
XRECORD
  5
113
330
EA
100
AcDbXrecord
280
1
 40
0.0
  0
XRECORD
  5
114
330
EA
100
AcDbXrecord
280
1
1000
Portrait
  0
XRECORD
  5
115
330
EA
100
AcDbXrecord
280
1
 40
11.6929133858267722
  0
XRECORD
  5
116
330
EA
100
AcDbXrecord
280
1
 40
8.2677165354330704
  0
XRECORD
  5
117
330
EA
100
AcDbXrecord
280
1
1000
1:1
  0
XRECORD
  5
118
330
EA
100
AcDbXrecord
280
1
290
1
  0
XRECORD
  5
119
330
EA
100
AcDbXrecord
280
1
290
0
  0
XRECORD
  5
11A
330
EA
100
AcDbXrecord
280
1
1000
Inside
  0
XRECORD
  5
11B
330
EA
100
AcDbXrecord
280
1
1000
Arial,10,-1,5,50,0,0,0,0,0
  0
XRECORD
  5
11C
330
EA
100
AcDbXrecord
280
1
1000
TopLeft
  0
XRECORD
  5
11D
330
EA
100
AcDbXrecord
280
1
1000
3.28.1.3
  0
XRECORD
  5
11E
330
EA
100
AcDbXrecord
280
1
 90
1
  0
XRECORD
  5
120
330
EA
100
AcDbXrecord
280
1
 40
246.3875924683610208
  0
XRECORD
  5
121
330
EA
100
AcDbXrecord
280
1
 40
459.5958083948479498
  0
ENDSEC
  0
EOF
