999
dxflib 3.26.4.0
  0
SECTION
  2
HEADER
  9
$ACADVER
  1
AC1015
  9
$HANDSEED
  5
FFFF
  9
$DIMADEC
 70
0
  9
$DIMASZ
 40
0.125
  9
$DIMATFIT
 70
0
  9
$DIMAUNIT
 70
0
  9
$DIMAZIN
 70
2
  9
$DIMBLK
  1
0
  9
$DIMBLK1
  1
0
  9
$DIMBLK2
  1
0
  9
$DIMDEC
 70
4
  9
$DIMDLI
 40
0.25
  9
$DIMDSEP
 70
46
  9
$DIMEXE
 40
0.0625
  9
$DIMEXO
 40
0.03125
  9
$DIMGAP
 40
0.03125
  9
$DIMLFAC
 40
1.0
  9
$DIMLUNIT
 70
3
  9
$DIMSCALE
 40
1.0
  9
$DIMTAD
 70
1
  9
$DIMTIH
 70
0
  9
$DIMTSZ
 40
0.0
  9
$DIMTXT
 40
0.125
  9
$DIMZIN
 70
8
  9
$DWGCODEPAGE
  3
ANSI_1252
  9
$INSUNITS
 70
1
  9
$LTSCALE
 40
1.0
  9
$MAXACTVP
 70
64
  9
$MEASUREMENT
 70
0
  9
$MIRRTEXT
 70
0
  9
$PDMODE
 70
0
  9
$PDSIZE
 40
0.0
  0
ENDSEC
  0
SECTION
  2
TABLES
  0
TABLE
  2
VPORT
  5
8
100
AcDbSymbolTable
 70
1
  0
VPORT
  5
30
100
AcDbSymbolTableRecord
100
AcDbViewportTableRecord
  2
*Active
 70
0
 10
0.0
 20
0.0
 11
1.0
 21
1.0
 12
286.3055555555554861
 22
148.5
 13
0.0
 23
0.0
 14
10.0
 24
10.0
 15
10.0
 25
10.0
 16
0.0
 26
0.0
 36
1.0
 17
0.0
 27
0.0
 37
0.0
 40
297.0
 41
1.92798353909465
 42
50.0
 43
0.0
 44
0.0
 50
0.0
 51
0.0
 71
0
 72
100
 73
1
 74
3
 75
1
 76
1
 77
0
 78
0
281
0
 65
1
110
0.0
120
0.0
130
0.0
111
1.0
121
0.0
131
0.0
112
0.0
122
1.0
132
0.0
 79
0
146
0.0
  0
ENDTAB
  0
TABLE
  2
LTYPE
  5
5
100
AcDbSymbolTable
 70
41
  0
LTYPE
  5
16
100
AcDbSymbolTableRecord
100
AcDbLinetypeTableRecord
  2
Continuous
 70
0
  3
Solid line
 72
65
 73
0
 40
0.0
  0
LTYPE
  5
31
100
AcDbSymbolTableRecord
100
AcDbLinetypeTableRecord
  2
DASHDOTX2
 70
0
  3
Dash dot (2x) ____  .  ____  .  ____  .  ___
 72
65
 73
4
 40
50.7999999999999972
 49
25.3999999999999986
 74
0
 49
-12.6499999999999986
 74
0
 49
0.1
 74
0
 49
-12.6499999999999986
 74
0
  0
LTYPE
  5
32
100
AcDbSymbolTableRecord
100
AcDbLinetypeTableRecord
  2
DASHEDX2
 70
0
  3
Dashed (2x) ____  ____  ____  ____  ____  ___
 72
65
 73
2
 40
38.0999999999999943
 49
25.3999999999999986
 74
0
 49
-12.6999999999999993
 74
0
  0
LTYPE
  5
33
100
AcDbSymbolTableRecord
100
AcDbLinetypeTableRecord
  2
ACAD_ISO04W100
 70
0
  3
ISO long-dash dot ____ . ____ . ____ . ____ . _
 72
65
 73
4
 40
30.0
 49
24.0
 74
0
 49
-2.9500000000000002
 74
0
 49
0.1
 74
0
 49
-2.9500000000000002
 74
0
  0
LTYPE
  5
34
100
AcDbSymbolTableRecord
100
AcDbLinetypeTableRecord
  2
ACAD_ISO08W100
 70
0
  3
ISO long-dash short-dash ____ __ ____ __ ____ _
 72
65
 73
4
 40
36.0
 49
24.0
 74
0
 49
-3.0
 74
0
 49
6.0
 74
0
 49
-3.0
 74
0
  0
LTYPE
  5
15
100
AcDbSymbolTableRecord
100
AcDbLinetypeTableRecord
  2
BYLAYER
 70
0
  3

 72
65
 73
0
 40
0.0
  0
LTYPE
  5
35
100
AcDbSymbolTableRecord
100
AcDbLinetypeTableRecord
  2
ACAD_ISO15W100
 70
0
  3
ISO double-dash triple-dot __ __ . . . __ __ . .
 72
65
 73
10
 40
39.0000000000000071
 49
12.0
 74
0
 49
-3.0
 74
0
 49
12.0
 74
0
 49
-2.9500000000000002
 74
0
 49
0.1
 74
0
 49
-2.9000000000000004
 74
0
 49
0.1
 74
0
 49
-2.9000000000000004
 74
0
 49
0.1
 74
0
 49
-2.9500000000000002
 74
0
  0
LTYPE
  5
36
100
AcDbSymbolTableRecord
100
AcDbLinetypeTableRecord
  2
HIDDEN
 70
0
  3
Hidden __ __ __ __ __ __ __ __ __ __ __ __ __ __
 72
65
 73
2
 40
9.5249999999999986
 49
6.3499999999999996
 74
0
 49
-3.1749999999999998
 74
0
  0
LTYPE
  5
14
100
AcDbSymbolTableRecord
100
AcDbLinetypeTableRecord
  2
BYBLOCK
 70
0
  3

 72
65
 73
0
 40
0.0
  0
LTYPE
  5
37
100
AcDbSymbolTableRecord
100
AcDbLinetypeTableRecord
  2
CENTER2
 70
0
  3
Center (.5x) ___ _ ___ _ ___ _ ___ _ ___ _ ___
 72
65
 73
4
 40
28.5750000000000028
 49
19.0500000000000007
 74
0
 49
-3.1749999999999998
 74
0
 49
3.1749999999999998
 74
0
 49
-3.1749999999999998
 74
0
  0
LTYPE
  5
38
100
AcDbSymbolTableRecord
100
AcDbLinetypeTableRecord
  2
DASHED2
 70
0
  3
Dashed (.5x) _ _ _ _ _ _ _ _ _ _ _ _ _ _ _ _ _ 
 72
65
 73
2
 40
9.5249999999999986
 49
6.3499999999999996
 74
0
 49
-3.1749999999999998
 74
0
  0
LTYPE
  5
39
100
AcDbSymbolTableRecord
100
AcDbLinetypeTableRecord
  2
ACAD_ISO07W100
 70
0
  3
ISO dot . . . . . . . . . . . . . . . . . . . . 
 72
65
 73
2
 40
3.0
 49
0.1
 74
0
 49
-2.8999999999999999
 74
0
  0
LTYPE
  5
3A
100
AcDbSymbolTableRecord
100
AcDbLinetypeTableRecord
  2
HIDDEN2
 70
0
  3
Hidden (.5x) _ _ _ _ _ _ _ _ _ _ _ _ _ _ _ _ _ 
 72
65
 73
2
 40
4.7624999999999993
 49
3.1749999999999998
 74
0
 49
-1.5874999999999999
 74
0
  0
LTYPE
  5
3B
100
AcDbSymbolTableRecord
100
AcDbLinetypeTableRecord
  2
ACAD_ISO03W100
 70
0
  3
ISO dash space __    __    __    __    __    __
 72
65
 73
2
 40
30.0
 49
12.0
 74
0
 49
-18.0
 74
0
  0
LTYPE
  5
3C
100
AcDbSymbolTableRecord
100
AcDbLinetypeTableRecord
  2
BORDERX2
 70
0
  3
Border (2x) ____  ____  .  ____  ____  .  ___
 72
65
 73
6
 40
88.8999999999999773
 49
25.3999999999999986
 74
0
 49
-12.6999999999999993
 74
0
 49
25.3999999999999986
 74
0
 49
-12.6499999999999986
 74
0
 49
0.1
 74
0
 49
-12.6499999999999986
 74
0
  0
LTYPE
  5
3D
100
AcDbSymbolTableRecord
100
AcDbLinetypeTableRecord
  2
PHANTOM
 70
0
  3
Phantom ______  __  __  ______  __  __  ______ 
 72
65
 73
6
 40
63.5000000000000071
 49
31.75
 74
0
 49
-6.3499999999999996
 74
0
 49
6.3499999999999996
 74
0
 49
-6.3499999999999996
 74
0
 49
6.3499999999999996
 74
0
 49
-6.3499999999999996
 74
0
  0
LTYPE
  5
3E
100
AcDbSymbolTableRecord
100
AcDbLinetypeTableRecord
  2
BORDER
 70
0
  3
Border __ __ . __ __ . __ __ . __ __ . __ __ .
 72
65
 73
6
 40
44.4499999999999957
 49
12.6999999999999993
 74
0
 49
-6.3499999999999996
 74
0
 49
12.6999999999999993
 74
0
 49
-6.2999999999999998
 74
0
 49
0.1
 74
0
 49
-6.2999999999999998
 74
0
  0
LTYPE
  5
3F
100
AcDbSymbolTableRecord
100
AcDbLinetypeTableRecord
  2
PHANTOMX2
 70
0
  3
Phantom (2x) ____________    ____    ____   _
 72
65
 73
6
 40
127.0000000000000142
 49
63.5
 74
0
 49
-12.6999999999999993
 74
0
 49
12.6999999999999993
 74
0
 49
-12.6999999999999993
 74
0
 49
12.6999999999999993
 74
0
 49
-12.6999999999999993
 74
0
  0
LTYPE
  5
40
100
AcDbSymbolTableRecord
100
AcDbLinetypeTableRecord
  2
CENTERX2
 70
0
  3
Center (2x) ________  __  ________  __  _____
 72
65
 73
4
 40
101.6000000000000085
 49
63.5
 74
0
 49
-12.6999999999999993
 74
0
 49
12.6999999999999993
 74
0
 49
-12.6999999999999993
 74
0
  0
LTYPE
  5
41
100
AcDbSymbolTableRecord
100
AcDbLinetypeTableRecord
  2
DIVIDE
 70
0
  3
Divide ____ . . ____ . . ____ . . ____ . . ____
 72
65
 73
6
 40
31.7500000000000036
 49
12.6999999999999993
 74
0
 49
-6.2999999999999998
 74
0
 49
0.1
 74
0
 49
-6.25
 74
0
 49
0.1
 74
0
 49
-6.2999999999999998
 74
0
  0
LTYPE
  5
42
100
AcDbSymbolTableRecord
100
AcDbLinetypeTableRecord
  2
ACAD_ISO14W100
 70
0
  3
ISO dash triple-dot __ . . . __ . . . __ . . . _
 72
65
 73
8
 40
24.0000000000000036
 49
12.0
 74
0
 49
-2.9500000000000002
 74
0
 49
0.1
 74
0
 49
-2.9000000000000004
 74
0
 49
0.1
 74
0
 49
-2.9000000000000004
 74
0
 49
0.1
 74
0
 49
-2.9500000000000002
 74
0
  0
LTYPE
  5
43
100
AcDbSymbolTableRecord
100
AcDbLinetypeTableRecord
  2
ACAD_ISO11W100
 70
0
  3
ISO double-dash dot __ __ . __ __ . __ __ . __ _
 72
65
 73
6
 40
33.0
 49
12.0
 74
0
 49
-3.0
 74
0
 49
12.0
 74
0
 49
-2.9500000000000002
 74
0
 49
0.1
 74
0
 49
-2.9500000000000002
 74
0
  0
LTYPE
  5
44
100
AcDbSymbolTableRecord
100
AcDbLinetypeTableRecord
  2
BORDER2
 70
0
  3
Border (.5x) __.__.__.__.__.__.__.__.__.__.__.
 72
65
 73
6
 40
22.2250000000000014
 49
6.3499999999999996
 74
0
 49
-3.1749999999999998
 74
0
 49
6.3499999999999996
 74
0
 49
-3.125
 74
0
 49
0.1
 74
0
 49
-3.125
 74
0
  0
LTYPE
  5
45
100
AcDbSymbolTableRecord
100
AcDbLinetypeTableRecord
  2
DOTX2
 70
0
  3
Dot (2x) .  .  .  .  .  .  .  .  .  .  .  .  .  .
 72
65
 73
2
 40
12.6999999999999993
 49
0.1
 74
0
 49
-12.5999999999999996
 74
0
  0
LTYPE
  5
46
100
AcDbSymbolTableRecord
100
AcDbLinetypeTableRecord
  2
DOT
 70
0
  3
Dot . . . . . . . . . . . . . . . . . . . . . . . .
 72
65
 73
2
 40
6.3499999999999996
 49
0.1
 74
0
 49
-6.25
 74
0
  0
LTYPE
  5
47
100
AcDbSymbolTableRecord
100
AcDbLinetypeTableRecord
  2
PHANTOM2
 70
0
  3
Phantom (.5x) ___ _ _ ___ _ _ ___ _ _ ___ _ _
 72
65
 73
6
 40
31.7500000000000036
 49
15.875
 74
0
 49
-3.1749999999999998
 74
0
 49
3.1749999999999998
 74
0
 49
-3.1749999999999998
 74
0
 49
3.1749999999999998
 74
0
 49
-3.1749999999999998
 74
0
  0
LTYPE
  5
48
100
AcDbSymbolTableRecord
100
AcDbLinetypeTableRecord
  2
ACAD_ISO12W100
 70
0
  3
ISO dash double-dot __ . . __ . . __ . . __ . . 
 72
65
 73
6
 40
21.0
 49
12.0
 74
0
 49
-2.9500000000000002
 74
0
 49
0.1
 74
0
 49
-2.9000000000000004
 74
0
 49
0.1
 74
0
 49
-2.9500000000000002
 74
0
  0
LTYPE
  5
49
100
AcDbSymbolTableRecord
100
AcDbLinetypeTableRecord
  2
ACAD_ISO06W100
 70
0
  3
ISO long-dash triple-dot ____ ... ____ ... ____
 72
65
 73
8
 40
36.0000000000000071
 49
24.0
 74
0
 49
-2.9500000000000002
 74
0
 49
0.1
 74
0
 49
-2.9000000000000004
 74
0
 49
0.1
 74
0
 49
-2.9000000000000004
 74
0
 49
0.1
 74
0
 49
-2.9500000000000002
 74
0
  0
LTYPE
  5
4A
100
AcDbSymbolTableRecord
100
AcDbLinetypeTableRecord
  2
ACAD_ISO05W100
 70
0
  3
ISO long-dash double-dot ____ .. ____ .. ____ . 
 72
65
 73
6
 40
33.0000000000000071
 49
24.0
 74
0
 49
-2.9500000000000002
 74
0
 49
0.1
 74
0
 49
-2.9000000000000004
 74
0
 49
0.1
 74
0
 49
-2.9500000000000002
 74
0
  0
LTYPE
  5
4B
100
AcDbSymbolTableRecord
100
AcDbLinetypeTableRecord
  2
ACAD_ISO10W100
 70
0
  3
ISO dash dot __ . __ . __ . __ . __ . __ . __ . 
 72
65
 73
4
 40
18.0
 49
12.0
 74
0
 49
-2.9500000000000002
 74
0
 49
0.1
 74
0
 49
-2.9500000000000002
 74
0
  0
LTYPE
  5
4C
100
AcDbSymbolTableRecord
100
AcDbLinetypeTableRecord
  2
DIVIDEX2
 70
0
  3
Divide (2x) ________  .  .  ________  .  .  _
 72
65
 73
6
 40
63.5
 49
25.3999999999999986
 74
0
 49
-12.6499999999999986
 74
0
 49
0.1
 74
0
 49
-12.5999999999999979
 74
0
 49
0.1
 74
0
 49
-12.6499999999999986
 74
0
  0
LTYPE
  5
4D
100
AcDbSymbolTableRecord
100
AcDbLinetypeTableRecord
  2
DASHDOT
 70
0
  3
Dash dot __ . __ . __ . __ . __ . __ . __ . __
 72
65
 73
4
 40
25.4000000000000021
 49
12.6999999999999993
 74
0
 49
-6.2999999999999998
 74
0
 49
0.1
 74
0
 49
-6.2999999999999998
 74
0
  0
LTYPE
  5
4E
100
AcDbSymbolTableRecord
100
AcDbLinetypeTableRecord
  2
HIDDENX2
 70
0
  3
Hidden (2x) ____ ____ ____ ____ ____ ____ ____ 
 72
65
 73
2
 40
19.0499999999999972
 49
12.6999999999999993
 74
0
 49
-6.3499999999999996
 74
0
  0
LTYPE
  5
4F
100
AcDbSymbolTableRecord
100
AcDbLinetypeTableRecord
  2
ACAD_ISO09W100
 70
0
  3
ISO long-dash double-short-dash ____ __ __ ____
 72
65
 73
6
 40
45.0
 49
24.0
 74
0
 49
-3.0
 74
0
 49
6.0
 74
0
 49
-3.0
 74
0
 49
6.0
 74
0
 49
-3.0
 74
0
  0
LTYPE
  5
50
100
AcDbSymbolTableRecord
100
AcDbLinetypeTableRecord
  2
DASHED
 70
0
  3
Dashed __ __ __ __ __ __ __ __ __ __ __ __ __ _
 72
65
 73
2
 40
19.0499999999999972
 49
12.6999999999999993
 74
0
 49
-6.3499999999999996
 74
0
  0
LTYPE
  5
51
100
AcDbSymbolTableRecord
100
AcDbLinetypeTableRecord
  2
CENTER
 70
0
  3
Center ____ _ ____ _ ____ _ ____ _ ____ _ ____
 72
65
 73
4
 40
50.8000000000000043
 49
31.75
 74
0
 49
-6.3499999999999996
 74
0
 49
6.3499999999999996
 74
0
 49
-6.3499999999999996
 74
0
  0
LTYPE
  5
52
100
AcDbSymbolTableRecord
100
AcDbLinetypeTableRecord
  2
ACAD_ISO13W100
 70
0
  3
ISO double-dash double-dot __ __ . . __ __ . . _
 72
65
 73
8
 40
36.0000000000000071
 49
12.0
 74
0
 49
-3.0
 74
0
 49
12.0
 74
0
 49
-2.9500000000000002
 74
0
 49
0.1
 74
0
 49
-2.9000000000000004
 74
0
 49
0.1
 74
0
 49
-2.9500000000000002
 74
0
  0
LTYPE
  5
53
100
AcDbSymbolTableRecord
100
AcDbLinetypeTableRecord
  2
DIVIDE2
 70
0
  3
Divide (.5x) __..__..__..__..__..__..__..__.._
 72
65
 73
6
 40
15.8749999999999982
 49
6.3499999999999996
 74
0
 49
-3.125
 74
0
 49
0.1
 74
0
 49
-3.0750000000000002
 74
0
 49
0.1
 74
0
 49
-3.125
 74
0
  0
LTYPE
  5
54
100
AcDbSymbolTableRecord
100
AcDbLinetypeTableRecord
  2
DASHDOT2
 70
0
  3
Dash dot (.5x) _._._._._._._._._._._._._._._.
 72
65
 73
4
 40
12.6999999999999993
 49
6.3499999999999996
 74
0
 49
-3.125
 74
0
 49
0.1
 74
0
 49
-3.125
 74
0
  0
LTYPE
  5
55
100
AcDbSymbolTableRecord
100
AcDbLinetypeTableRecord
  2
ACAD_ISO02W100
 70
0
  3
ISO dash __ __ __ __ __ __ __ __ __ __ __ __ __
 72
65
 73
2
 40
15.0
 49
12.0
 74
0
 49
-3.0
 74
0
  0
LTYPE
  5
56
100
AcDbSymbolTableRecord
100
AcDbLinetypeTableRecord
  2
DOT2
 70
0
  3
Dot (.5x) ........................................
 72
65
 73
2
 40
3.1749999999999998
 49
0.1
 74
0
 49
-3.0749999999999997
 74
0
  0
ENDTAB
  0
TABLE
  2
LAYER
  5
2
100
AcDbSymbolTable
 70
1
  0
LAYER
  5
10
100
AcDbSymbolTableRecord
100
AcDbLayerTableRecord
  2
0
 70
0
 62
7
420
16777215
  6
Continuous
370
25
390
F
  0
ENDTAB
  0
TABLE
  2
STYLE
  5
3
100
AcDbSymbolTable
 70
1
  0
STYLE
  5
57
100
AcDbSymbolTableRecord
100
AcDbTextStyleTableRecord
  2
Standard
 70
0
 40
0.0
 41
1.0
 50
0.0
 71
0
 42
2.5
  3

  4

1001
ACAD
1000
txt
1071
0
  0
ENDTAB
  0
TABLE
  2
VIEW
  5
6
100
AcDbSymbolTable
 70
0
  0
ENDTAB
  0
TABLE
  2
UCS
  5
7
100
AcDbSymbolTable
 70
0
  0
ENDTAB
  0
TABLE
  2
APPID
  5
9
100
AcDbSymbolTable
 70
1
  0
APPID
  5
12
100
AcDbSymbolTableRecord
100
AcDbRegAppTableRecord
  2
ACAD
 70
0
  0
APPID
  5
58
100
AcDbSymbolTableRecord
100
AcDbRegAppTableRecord
  2
QCAD
 70
0
  0
ENDTAB
  0
TABLE
  2
DIMSTYLE
  5
A
100
AcDbSymbolTable
 70
1
100
AcDbDimStyleTable
 71
0
  0
DIMSTYLE
105
27
100
AcDbSymbolTableRecord
100
AcDbDimStyleTableRecord
  2
Standard
 41
0.125
 42
0.03125
 43
3.75
 44
0.0625
 70
0
 73
0
 74
0
 77
1
 78
8
140
0.125
141
2.5
143
0.03937007874016
147
0.03125
171
3
172
1
271
2
272
2
274
3
278
44
283
0
284
8
340
57
  0
ENDTAB
  0
TABLE
  2
BLOCK_RECORD
  5
1
100
AcDbSymbolTable
 70
1
  0
BLOCK_RECORD
  5
1F
100
AcDbSymbolTableRecord
100
AcDbBlockTableRecord
  2
*Model_Space
340
22
  0
BLOCK_RECORD
  5
1B
100
AcDbSymbolTableRecord
100
AcDbBlockTableRecord
  2
*Paper_Space
340
1E
  0
BLOCK_RECORD
  5
23
100
AcDbSymbolTableRecord
100
AcDbBlockTableRecord
  2
*Paper_Space0
340
26
  0
ENDTAB
  0
ENDSEC
  0
SECTION
  2
BLOCKS
  0
BLOCK
  5
20
100
AcDbEntity
  8
0
100
AcDbBlockBegin
  2
*Model_Space
 70
0
 10
0.0
 20
0.0
 30
0.0
  3
*Model_Space
  1

  0
ENDBLK
  5
21
100
AcDbEntity
  8
0
100
AcDbBlockEnd
  0
BLOCK
  5
1C
100
AcDbEntity
 67
1
  8
0
100
AcDbBlockBegin
  2
*Paper_Space
 70
0
 10
0.0
 20
0.0
 30
0.0
  3
*Paper_Space
  1

  0
ENDBLK
  5
1D
100
AcDbEntity
 67
1
  8
0
100
AcDbBlockEnd
  0
BLOCK
  5
24
100
AcDbEntity
  8
0
100
AcDbBlockBegin
  2
*Paper_Space0
 70
0
 10
0.0
 20
0.0
 30
0.0
  3
*Paper_Space0
  1

  0
ENDBLK
  5
25
100
AcDbEntity
  8
0
100
AcDbBlockEnd
  0
ENDSEC
  0
SECTION
  2
ENTITIES
  0
LINE
  5
59
100
AcDbEntity
  8
0
 62
0
370
-1
 48
1.0
  6
BYLAYER
100
AcDbLine
 10
320.3259153999999853
 20
25.0009000000000015
 30
0.0
 11
320.7179154000000381
 21
24.9858000000000402
 31
0.0
  0
LINE
  5
5A
100
AcDbEntity
  8
0
 62
0
370
-1
 48
1.0
  6
BYLAYER
100
AcDbLine
 10
320.7179154000000381
 20
24.9858000000000402
 30
0.0
 11
321.1079154000001381
 21
24.9389000000000465
 31
0.0
  0
LINE
  5
5B
100
AcDbEntity
  8
0
 62
0
370
-1
 48
1.0
  6
BYLAYER
100
AcDbLine
 10
321.1079154000001381
 20
24.9389000000000465
 30
0.0
 11
321.4939154000001054
 21
24.8631000000000313
 31
0.0
  0
LINE
  5
5C
100
AcDbEntity
  8
0
 62
0
370
-1
 48
1.0
  6
BYLAYER
100
AcDbLine
 10
321.4939154000001054
 20
24.8631000000000313
 30
0.0
 11
321.8709154000000581
 21
24.757000000000005
 31
0.0
  0
LINE
  5
5D
100
AcDbEntity
  8
0
 62
0
370
-1
 48
1.0
  6
BYLAYER
100
AcDbLine
 10
321.8709154000000581
 20
24.757000000000005
 30
0.0
 11
322.2389153999999962
 21
24.6206000000000245
 31
0.0
  0
LINE
  5
5E
100
AcDbEntity
  8
0
 62
0
370
-1
 48
1.0
  6
BYLAYER
100
AcDbLine
 10
322.2389153999999962
 20
24.6206000000000245
 30
0.0
 11
322.5959153999999671
 21
24.4566000000000372
 31
0.0
  0
LINE
  5
5F
100
AcDbEntity
  8
0
 62
0
370
-1
 48
1.0
  6
BYLAYER
100
AcDbLine
 10
322.5959153999999671
 20
24.4566000000000372
 30
0.0
 11
322.9379154000000653
 21
24.2650000000000432
 31
0.0
  0
LINE
  5
60
100
AcDbEntity
  8
0
 62
0
370
-1
 48
1.0
  6
BYLAYER
100
AcDbLine
 10
322.9379154000000653
 20
24.2650000000000432
 30
0.0
 11
323.2639154000000872
 21
24.0459000000000174
 31
0.0
  0
LINE
  5
61
100
AcDbEntity
  8
0
 62
0
370
-1
 48
1.0
  6
BYLAYER
100
AcDbLine
 10
323.2639154000000872
 20
24.0459000000000174
 30
0.0
 11
323.5729154000000563
 21
23.8034000000000106
 31
0.0
  0
LINE
  5
62
100
AcDbEntity
  8
0
 62
0
370
-1
 48
1.0
  6
BYLAYER
100
AcDbLine
 10
323.5729154000000563
 20
23.8034000000000106
 30
0.0
 11
323.8609154000000672
 21
23.5361000000000331
 31
0.0
  0
LINE
  5
63
100
AcDbEntity
  8
0
 62
0
370
-1
 48
1.0
  6
BYLAYER
100
AcDbLine
 10
323.8609154000000672
 20
23.5361000000000331
 30
0.0
 11
324.1289154000000963
 21
23.2480000000000473
 31
0.0
  0
LINE
  5
64
100
AcDbEntity
  8
0
 62
0
370
-1
 48
1.0
  6
BYLAYER
100
AcDbLine
 10
324.1289154000000963
 20
23.2480000000000473
 30
0.0
 11
324.3709154000000581
 21
22.9394000000000347
 31
0.0
  0
LINE
  5
65
100
AcDbEntity
  8
0
 62
0
370
-1
 48
1.0
  6
BYLAYER
100
AcDbLine
 10
324.3709154000000581
 20
22.9394000000000347
 30
0.0
 11
324.589915400000109
 21
22.6141000000000076
 31
0.0
  0
LINE
  5
66
100
AcDbEntity
  8
0
 62
0
370
-1
 48
1.0
  6
BYLAYER
100
AcDbLine
 10
324.589915400000109
 20
22.6141000000000076
 30
0.0
 11
324.7819154000001163
 21
22.271000000000015
 31
0.0
  0
LINE
  5
67
100
AcDbEntity
  8
0
 62
0
370
-1
 48
1.0
  6
BYLAYER
100
AcDbLine
 10
324.7819154000001163
 20
22.271000000000015
 30
0.0
 11
324.9459154000001035
 21
21.914100000000019
 31
0.0
  0
LINE
  5
68
100
AcDbEntity
  8
0
 62
0
370
-1
 48
1.0
  6
BYLAYER
100
AcDbLine
 10
324.9459154000001035
 20
21.914100000000019
 30
0.0
 11
325.0819154000000708
 21
21.5461999999999989
 31
0.0
  0
LINE
  5
69
100
AcDbEntity
  8
0
 62
0
370
-1
 48
1.0
  6
BYLAYER
100
AcDbLine
 10
325.0819154000000708
 20
21.5461999999999989
 30
0.0
 11
325.1879154000000653
 21
21.1686000000000263
 31
0.0
  0
LINE
  5
6A
100
AcDbEntity
  8
0
 62
0
370
-1
 48
1.0
  6
BYLAYER
100
AcDbLine
 10
325.1879154000000653
 20
21.1686000000000263
 30
0.0
 11
325.2639154000000872
 21
20.7841000000000236
 31
0.0
  0
LINE
  5
6B
100
AcDbEntity
  8
0
 62
0
370
-1
 48
1.0
  6
BYLAYER
100
AcDbLine
 10
325.2639154000000872
 20
20.7841000000000236
 30
0.0
 11
325.3109154000001126
 21
20.3941000000000372
 31
0.0
  0
LINE
  5
6C
100
AcDbEntity
  8
0
 62
0
370
-1
 48
1.0
  6
BYLAYER
100
AcDbLine
 10
325.3109154000001126
 20
20.3941000000000372
 30
0.0
 11
325.3259153999999853
 21
20.0
 31
0.0
  0
LINE
  5
6D
100
AcDbEntity
  8
0
 62
0
370
-1
 48
1.0
  6
BYLAYER
100
AcDbLine
 10
325.3259153999999853
 20
20.0
 30
0.0
 11
325.3259153999999853
 21
4.9490700000000061
 31
0.0
  0
LINE
  5
6E
100
AcDbEntity
  8
0
 62
0
370
-1
 48
1.0
  6
BYLAYER
100
AcDbLine
 10
325.3259153999999853
 20
4.9490700000000061
 30
0.0
 11
325.3109154000001126
 21
4.5577400000000239
 31
0.0
  0
LINE
  5
6F
100
AcDbEntity
  8
0
 62
0
370
-1
 48
1.0
  6
BYLAYER
100
AcDbLine
 10
325.3109154000001126
 20
4.5577400000000239
 30
0.0
 11
325.2639154000000872
 21
4.1677400000000375
 31
0.0
  0
LINE
  5
70
100
AcDbEntity
  8
0
 62
0
370
-1
 48
1.0
  6
BYLAYER
100
AcDbLine
 10
325.2639154000000872
 20
4.1677400000000375
 30
0.0
 11
325.1879154000000653
 21
3.7818700000000263
 31
0.0
  0
LINE
  5
71
100
AcDbEntity
  8
0
 62
0
370
-1
 48
1.0
  6
BYLAYER
100
AcDbLine
 10
325.1879154000000653
 20
3.7818700000000263
 30
0.0
 11
325.0819154000000708
 21
3.4042900000000031
 31
0.0
  0
LINE
  5
72
100
AcDbEntity
  8
0
 62
0
370
-1
 48
1.0
  6
BYLAYER
100
AcDbLine
 10
325.0819154000000708
 20
3.4042900000000031
 30
0.0
 11
324.9459154000001035
 21
3.0363600000000019
 31
0.0
  0
LINE
  5
73
100
AcDbEntity
  8
0
 62
0
370
-1
 48
1.0
  6
BYLAYER
100
AcDbLine
 10
324.9459154000001035
 20
3.0363600000000019
 30
0.0
 11
324.7819154000001163
 21
2.6808300000000145
 31
0.0
  0
LINE
  5
74
100
AcDbEntity
  8
0
 62
0
370
-1
 48
1.0
  6
BYLAYER
100
AcDbLine
 10
324.7819154000001163
 20
2.6808300000000145
 30
0.0
 11
324.589915400000109
 21
2.3377000000000407
 31
0.0
  0
LINE
  5
75
100
AcDbEntity
  8
0
 62
0
370
-1
 48
1.0
  6
BYLAYER
100
AcDbLine
 10
324.589915400000109
 20
2.3377000000000407
 30
0.0
 11
324.3709154000000581
 21
2.011099999999999
 31
0.0
  0
LINE
  5
76
100
AcDbEntity
  8
0
 62
0
370
-1
 48
1.0
  6
BYLAYER
100
AcDbLine
 10
324.3709154000000581
 20
2.011099999999999
 30
0.0
 11
324.1289154000000963
 21
1.7024200000000178
 31
0.0
  0
LINE
  5
77
100
AcDbEntity
  8
0
 62
0
370
-1
 48
1.0
  6
BYLAYER
100
AcDbLine
 10
324.1289154000000963
 20
1.7024200000000178
 30
0.0
 11
323.8609154000000672
 21
1.4144100000000321
 31
0.0
  0
LINE
  5
78
100
AcDbEntity
  8
0
 62
0
370
-1
 48
1.0
  6
BYLAYER
100
AcDbLine
 10
323.8609154000000672
 20
1.4144100000000321
 30
0.0
 11
323.5729154000000563
 21
1.147070000000042
 31
0.0
  0
LINE
  5
79
100
AcDbEntity
  8
0
 62
0
370
-1
 48
1.0
  6
BYLAYER
100
AcDbLine
 10
323.5729154000000563
 20
1.147070000000042
 30
0.0
 11
323.2639154000000872
 21
0.9045400000000541
 31
0.0
  0
LINE
  5
7A
100
AcDbEntity
  8
0
 62
0
370
-1
 48
1.0
  6
BYLAYER
100
AcDbLine
 10
323.2639154000000872
 20
0.9045400000000541
 30
0.0
 11
322.9379154000000653
 21
0.6868080000000418
 31
0.0
  0
LINE
  5
7B
100
AcDbEntity
  8
0
 62
0
370
-1
 48
1.0
  6
BYLAYER
100
AcDbLine
 10
322.9379154000000653
 20
0.6868080000000418
 30
0.0
 11
322.5959153999999671
 21
0.4938850000000343
 31
0.0
  0
LINE
  5
7C
100
AcDbEntity
  8
0
 62
0
370
-1
 48
1.0
  6
BYLAYER
100
AcDbLine
 10
322.5959153999999671
 20
0.4938850000000343
 30
0.0
 11
322.2389153999999962
 21
0.3298990000000117
 31
0.0
  0
LINE
  5
7D
100
AcDbEntity
  8
0
 62
0
370
-1
 48
1.0
  6
BYLAYER
100
AcDbLine
 10
322.2389153999999962
 20
0.3298990000000117
 30
0.0
 11
321.8709154000000581
 21
0.1948490000000334
 31
0.0
  0
LINE
  5
7E
100
AcDbEntity
  8
0
 62
0
370
-1
 48
1.0
  6
BYLAYER
100
AcDbLine
 10
321.8709154000000581
 20
0.1948490000000334
 30
0.0
 11
321.4939154000001054
 21
0.0887400000000298
 31
0.0
  0
LINE
  5
7F
100
AcDbEntity
  8
0
 62
0
370
-1
 48
1.0
  6
BYLAYER
100
AcDbLine
 10
321.4939154000001054
 20
0.0887400000000298
 30
0.0
 11
321.1079154000001381
 21
0.0115710000000036
 31
0.0
  0
LINE
  5
80
100
AcDbEntity
  8
0
 62
0
370
-1
 48
1.0
  6
BYLAYER
100
AcDbLine
 10
321.1079154000001381
 20
0.0115710000000036
 30
0.0
 11
320.7179154000000381
 21
-0.0339049999999474
 31
0.0
  0
LINE
  5
81
100
AcDbEntity
  8
0
 62
0
370
-1
 48
1.0
  6
BYLAYER
100
AcDbLine
 10
320.7179154000000381
 20
-0.0339049999999474
 30
0.0
 11
320.3259153999999853
 21
-0.050440999999978
 31
0.0
  0
LINE
  5
82
100
AcDbEntity
  8
0
 62
0
370
-1
 48
1.0
  6
BYLAYER
100
AcDbLine
 10
320.3259153999999853
 20
-0.050440999999978
 30
0.0
 11
5.0008953999999903
 21
-0.050440999999978
 31
0.0
  0
LINE
  5
83
100
AcDbEntity
  8
0
 62
0
370
-1
 48
1.0
  6
BYLAYER
100
AcDbLine
 10
5.0008953999999903
 20
-0.050440999999978
 30
0.0
 11
4.6067754000000605
 21
-0.0339049999999474
 31
0.0
  0
LINE
  5
84
100
AcDbEntity
  8
0
 62
0
370
-1
 48
1.0
  6
BYLAYER
100
AcDbLine
 10
4.6067754000000605
 20
-0.0339049999999474
 30
0.0
 11
4.2168154000000868
 21
0.0115710000000036
 31
0.0
  0
LINE
  5
85
100
AcDbEntity
  8
0
 62
0
370
-1
 48
1.0
  6
BYLAYER
100
AcDbLine
 10
4.2168154000000868
 20
0.0115710000000036
 30
0.0
 11
3.8323154000000841
 21
0.0887400000000298
 31
0.0
  0
LINE
  5
86
100
AcDbEntity
  8
0
 62
0
370
-1
 48
1.0
  6
BYLAYER
100
AcDbLine
 10
3.8323154000000841
 20
0.0887400000000298
 30
0.0
 11
3.4547454000000926
 21
0.1948490000000334
 31
0.0
  0
LINE
  5
87
100
AcDbEntity
  8
0
 62
0
370
-1
 48
1.0
  6
BYLAYER
100
AcDbLine
 10
3.4547454000000926
 20
0.1948490000000334
 30
0.0
 11
3.0868054000000029
 21
0.3298990000000117
 31
0.0
  0
LINE
  5
88
100
AcDbEntity
  8
0
 62
0
370
-1
 48
1.0
  6
BYLAYER
100
AcDbLine
 10
3.0868054000000029
 20
0.3298990000000117
 30
0.0
 11
2.7298954000000322
 21
0.4938850000000343
 31
0.0
  0
LINE
  5
89
100
AcDbEntity
  8
0
 62
0
370
-1
 48
1.0
  6
BYLAYER
100
AcDbLine
 10
2.7298954000000322
 20
0.4938850000000343
 30
0.0
 11
2.3867654000000584
 21
0.6868080000000418
 31
0.0
  0
LINE
  5
8A
100
AcDbEntity
  8
0
 62
0
370
-1
 48
1.0
  6
BYLAYER
100
AcDbLine
 10
2.3867654000000584
 20
0.6868080000000418
 30
0.0
 11
2.0615454000001137
 21
0.9045400000000541
 31
0.0
  0
LINE
  5
8B
100
AcDbEntity
  8
0
 62
0
370
-1
 48
1.0
  6
BYLAYER
100
AcDbLine
 10
2.0615454000001137
 20
0.9045400000000541
 30
0.0
 11
1.7528654000000188
 21
1.147070000000042
 31
0.0
  0
LINE
  5
8C
100
AcDbEntity
  8
0
 62
0
370
-1
 48
1.0
  6
BYLAYER
100
AcDbLine
 10
1.7528654000000188
 20
1.147070000000042
 30
0.0
 11
1.4648554000000331
 21
1.4144100000000321
 31
0.0
  0
LINE
  5
8D
100
AcDbEntity
  8
0
 62
0
370
-1
 48
1.0
  6
BYLAYER
100
AcDbLine
 10
1.4648554000000331
 20
1.4144100000000321
 30
0.0
 11
1.197515400000043
 21
1.7024200000000178
 31
0.0
  0
LINE
  5
8E
100
AcDbEntity
  8
0
 62
0
370
-1
 48
1.0
  6
BYLAYER
100
AcDbLine
 10
1.197515400000043
 20
1.7024200000000178
 30
0.0
 11
0.9549754000000803
 21
2.011099999999999
 31
0.0
  0
LINE
  5
8F
100
AcDbEntity
  8
0
 62
0
370
-1
 48
1.0
  6
BYLAYER
100
AcDbLine
 10
0.9549754000000803
 20
2.011099999999999
 30
0.0
 11
0.735872400000062
 21
2.3377000000000407
 31
0.0
  0
LINE
  5
90
100
AcDbEntity
  8
0
 62
0
370
-1
 48
1.0
  6
BYLAYER
100
AcDbLine
 10
0.735872400000062
 20
2.3377000000000407
 30
0.0
 11
0.5443254000000479
 21
2.6808300000000145
 31
0.0
  0
LINE
  5
91
100
AcDbEntity
  8
0
 62
0
370
-1
 48
1.0
  6
BYLAYER
100
AcDbLine
 10
0.5443254000000479
 20
2.6808300000000145
 30
0.0
 11
0.3803394000000253
 21
3.0363600000000019
 31
0.0
  0
LINE
  5
92
100
AcDbEntity
  8
0
 62
0
370
-1
 48
1.0
  6
BYLAYER
100
AcDbLine
 10
0.3803394000000253
 20
3.0363600000000019
 30
0.0
 11
0.2439134000001104
 21
3.4042900000000031
 31
0.0
  0
LINE
  5
93
100
AcDbEntity
  8
0
 62
0
370
-1
 48
1.0
  6
BYLAYER
100
AcDbLine
 10
0.2439134000001104
 20
3.4042900000000031
 30
0.0
 11
0.1378034000000525
 21
3.7818700000000263
 31
0.0
  0
LINE
  5
94
100
AcDbEntity
  8
0
 62
0
370
-1
 48
1.0
  6
BYLAYER
100
AcDbLine
 10
0.1378034000000525
 20
3.7818700000000263
 30
0.0
 11
0.0620124000000715
 21
4.1677400000000375
 31
0.0
  0
LINE
  5
95
100
AcDbEntity
  8
0
 62
0
370
-1
 48
1.0
  6
BYLAYER
100
AcDbLine
 10
0.0620124000000715
 20
4.1677400000000375
 30
0.0
 11
0.0151584000000184
 21
4.5577400000000239
 31
0.0
  0
LINE
  5
96
100
AcDbEntity
  8
0
 62
0
370
-1
 48
1.0
  6
BYLAYER
100
AcDbLine
 10
0.0151584000000184
 20
4.5577400000000239
 30
0.0
 11
0.0
 21
4.9504500000000462
 31
0.0
  0
LINE
  5
97
100
AcDbEntity
  8
0
 62
0
370
-1
 48
1.0
  6
BYLAYER
100
AcDbLine
 10
0.0
 20
4.9504500000000462
 30
0.0
 11
0.0
 21
20.0
 31
0.0
  0
LINE
  5
98
100
AcDbEntity
  8
0
 62
0
370
-1
 48
1.0
  6
BYLAYER
100
AcDbLine
 10
0.0
 20
20.0
 30
0.0
 11
0.0151584000000184
 21
20.3941000000000372
 31
0.0
  0
LINE
  5
99
100
AcDbEntity
  8
0
 62
0
370
-1
 48
1.0
  6
BYLAYER
100
AcDbLine
 10
0.0151584000000184
 20
20.3941000000000372
 30
0.0
 11
0.0620124000000715
 21
20.7841000000000236
 31
0.0
  0
LINE
  5
9A
100
AcDbEntity
  8
0
 62
0
370
-1
 48
1.0
  6
BYLAYER
100
AcDbLine
 10
0.0620124000000715
 20
20.7841000000000236
 30
0.0
 11
0.1378034000000525
 21
21.1686000000000263
 31
0.0
  0
LINE
  5
9B
100
AcDbEntity
  8
0
 62
0
370
-1
 48
1.0
  6
BYLAYER
100
AcDbLine
 10
0.1378034000000525
 20
21.1686000000000263
 30
0.0
 11
0.2439134000001104
 21
21.5461999999999989
 31
0.0
  0
LINE
  5
9C
100
AcDbEntity
  8
0
 62
0
370
-1
 48
1.0
  6
BYLAYER
100
AcDbLine
 10
0.2439134000001104
 20
21.5461999999999989
 30
0.0
 11
0.3803394000000253
 21
21.914100000000019
 31
0.0
  0
LINE
  5
9D
100
AcDbEntity
  8
0
 62
0
370
-1
 48
1.0
  6
BYLAYER
100
AcDbLine
 10
0.3803394000000253
 20
21.914100000000019
 30
0.0
 11
0.5443254000000479
 21
22.271000000000015
 31
0.0
  0
LINE
  5
9E
100
AcDbEntity
  8
0
 62
0
370
-1
 48
1.0
  6
BYLAYER
100
AcDbLine
 10
0.5443254000000479
 20
22.271000000000015
 30
0.0
 11
0.735872400000062
 21
22.6141000000000076
 31
0.0
  0
LINE
  5
9F
100
AcDbEntity
  8
0
 62
0
370
-1
 48
1.0
  6
BYLAYER
100
AcDbLine
 10
0.735872400000062
 20
22.6141000000000076
 30
0.0
 11
0.9549754000000803
 21
22.9394000000000347
 31
0.0
  0
LINE
  5
A0
100
AcDbEntity
  8
0
 62
0
370
-1
 48
1.0
  6
BYLAYER
100
AcDbLine
 10
0.9549754000000803
 20
22.9394000000000347
 30
0.0
 11
1.197515400000043
 21
23.2480000000000473
 31
0.0
  0
LINE
  5
A1
100
AcDbEntity
  8
0
 62
0
370
-1
 48
1.0
  6
BYLAYER
100
AcDbLine
 10
1.197515400000043
 20
23.2480000000000473
 30
0.0
 11
1.4648554000000331
 21
23.5361000000000331
 31
0.0
  0
LINE
  5
A2
100
AcDbEntity
  8
0
 62
0
370
-1
 48
1.0
  6
BYLAYER
100
AcDbLine
 10
1.4648554000000331
 20
23.5361000000000331
 30
0.0
 11
1.7528654000000188
 21
23.8034000000000106
 31
0.0
  0
LINE
  5
A3
100
AcDbEntity
  8
0
 62
0
370
-1
 48
1.0
  6
BYLAYER
100
AcDbLine
 10
1.7528654000000188
 20
23.8034000000000106
 30
0.0
 11
2.0615454000001137
 21
24.0459000000000174
 31
0.0
  0
LINE
  5
A4
100
AcDbEntity
  8
0
 62
0
370
-1
 48
1.0
  6
BYLAYER
100
AcDbLine
 10
2.0615454000001137
 20
24.0459000000000174
 30
0.0
 11
2.3867654000000584
 21
24.2650000000000432
 31
0.0
  0
LINE
  5
A5
100
AcDbEntity
  8
0
 62
0
370
-1
 48
1.0
  6
BYLAYER
100
AcDbLine
 10
2.3867654000000584
 20
24.2650000000000432
 30
0.0
 11
2.7298954000000322
 21
24.4566000000000372
 31
0.0
  0
LINE
  5
A6
100
AcDbEntity
  8
0
 62
0
370
-1
 48
1.0
  6
BYLAYER
100
AcDbLine
 10
2.7298954000000322
 20
24.4566000000000372
 30
0.0
 11
3.0868054000000029
 21
24.6206000000000245
 31
0.0
  0
LINE
  5
A7
100
AcDbEntity
  8
0
 62
0
370
-1
 48
1.0
  6
BYLAYER
100
AcDbLine
 10
3.0868054000000029
 20
24.6206000000000245
 30
0.0
 11
3.4547454000000926
 21
24.757000000000005
 31
0.0
  0
LINE
  5
A8
100
AcDbEntity
  8
0
 62
0
370
-1
 48
1.0
  6
BYLAYER
100
AcDbLine
 10
3.4547454000000926
 20
24.757000000000005
 30
0.0
 11
3.8323154000000841
 21
24.8631000000000313
 31
0.0
  0
LINE
  5
A9
100
AcDbEntity
  8
0
 62
0
370
-1
 48
1.0
  6
BYLAYER
100
AcDbLine
 10
3.8323154000000841
 20
24.8631000000000313
 30
0.0
 11
4.2168154000000868
 21
24.9389000000000465
 31
0.0
  0
LINE
  5
AA
100
AcDbEntity
  8
0
 62
0
370
-1
 48
1.0
  6
BYLAYER
100
AcDbLine
 10
4.2168154000000868
 20
24.9389000000000465
 30
0.0
 11
4.6067754000000605
 21
24.9858000000000402
 31
0.0
  0
LINE
  5
AB
100
AcDbEntity
  8
0
 62
0
370
-1
 48
1.0
  6
BYLAYER
100
AcDbLine
 10
4.6067754000000605
 20
24.9858000000000402
 30
0.0
 11
5.0008953999999903
 21
25.0009000000000015
 31
0.0
  0
LINE
  5
AC
100
AcDbEntity
  8
0
 62
0
370
-1
 48
1.0
  6
BYLAYER
100
AcDbLine
 10
5.0008953999999903
 20
25.0009000000000015
 30
0.0
 11
320.3259153999999853
 21
25.0009000000000015
 31
0.0
  0
LINE
  5
AD
100
AcDbEntity
  8
0
 62
0
370
-1
 48
1.0
  6
BYLAYER
100
AcDbLine
 10
4.3981254000000192
 20
21.8346589999998741
 30
0.0
 11
4.1197753999999733
 21
21.6926989999999478
 31
0.0
  0
LINE
  5
AE
100
AcDbEntity
  8
0
 62
0
370
-1
 48
1.0
  6
BYLAYER
100
AcDbLine
 10
162.109815399999917
 20
21.8346589999998741
 30
0.0
 11
161.8314653999998711
 21
21.6926989999999478
 31
0.0
  0
LINE
  5
AF
100
AcDbEntity
  8
0
 62
0
370
-1
 48
1.0
  6
BYLAYER
100
AcDbLine
 10
319.4468153999998208
 20
21.8346589999998741
 30
0.0
 11
319.1684653999997749
 21
21.6926989999999478
 31
0.0
  0
LINE
  5
B0
100
AcDbEntity
  8
0
 62
0
370
-1
 48
1.0
  6
BYLAYER
100
AcDbLine
 10
4.1197753999999733
 20
21.6926989999999478
 30
0.0
 11
3.8979153999999809
 21
21.4708389999998417
 31
0.0
  0
LINE
  5
B1
100
AcDbEntity
  8
0
 62
0
370
-1
 48
1.0
  6
BYLAYER
100
AcDbLine
 10
161.8314653999998711
 20
21.6926989999999478
 30
0.0
 11
161.6096053999998787
 21
21.4708389999998417
 31
0.0
  0
LINE
  5
B2
100
AcDbEntity
  8
0
 62
0
370
-1
 48
1.0
  6
BYLAYER
100
AcDbLine
 10
319.1684653999997749
 20
21.6926989999999478
 30
0.0
 11
318.9466053999997825
 21
21.4708389999998417
 31
0.0
  0
LINE
  5
B3
100
AcDbEntity
  8
0
 62
0
370
-1
 48
1.0
  6
BYLAYER
100
AcDbLine
 10
3.8979153999999809
 20
21.4708389999998417
 30
0.0
 11
3.7559754000000041
 21
21.1924589999998716
 31
0.0
  0
LINE
  5
B4
100
AcDbEntity
  8
0
 62
0
370
-1
 48
1.0
  6
BYLAYER
100
AcDbLine
 10
161.6096053999998787
 20
21.4708389999998417
 30
0.0
 11
161.4676653999999019
 21
21.1924589999998716
 31
0.0
  0
LINE
  5
B5
100
AcDbEntity
  8
0
 62
0
370
-1
 48
1.0
  6
BYLAYER
100
AcDbLine
 10
318.9466053999997825
 20
21.4708389999998417
 30
0.0
 11
318.8046653999998057
 21
21.1924589999998716
 31
0.0
  0
LINE
  5
B6
100
AcDbEntity
  8
0
 62
0
370
-1
 48
1.0
  6
BYLAYER
100
AcDbLine
 10
3.7559754000000041
 20
21.1924589999998716
 30
0.0
 11
3.7063653999999744
 21
20.8837790000000041
 31
0.0
  0
LINE
  5
B7
100
AcDbEntity
  8
0
 62
0
370
-1
 48
1.0
  6
BYLAYER
100
AcDbLine
 10
161.4676653999999019
 20
21.1924589999998716
 30
0.0
 11
161.4180553999998722
 21
20.8837790000000041
 31
0.0
  0
LINE
  5
B8
100
AcDbEntity
  8
0
 62
0
370
-1
 48
1.0
  6
BYLAYER
100
AcDbLine
 10
318.8046653999998057
 20
21.1924589999998716
 30
0.0
 11
318.755055399999776
 21
20.8837790000000041
 31
0.0
  0
LINE
  5
B9
100
AcDbEntity
  8
0
 62
0
370
-1
 48
1.0
  6
BYLAYER
100
AcDbLine
 10
3.7063653999999744
 20
20.8837790000000041
 30
0.0
 11
3.7559754000000041
 21
20.5737189999999828
 31
0.0
  0
LINE
  5
BA
100
AcDbEntity
  8
0
 62
0
370
-1
 48
1.0
  6
BYLAYER
100
AcDbLine
 10
161.4180553999998722
 20
20.8837790000000041
 30
0.0
 11
161.4676653999999019
 21
20.5737189999999828
 31
0.0
  0
LINE
  5
BB
100
AcDbEntity
  8
0
 62
0
370
-1
 48
1.0
  6
BYLAYER
100
AcDbLine
 10
318.755055399999776
 20
20.8837790000000041
 30
0.0
 11
318.8046653999998057
 21
20.5737189999999828
 31
0.0
  0
LINE
  5
BC
100
AcDbEntity
  8
0
 62
0
370
-1
 48
1.0
  6
BYLAYER
100
AcDbLine
 10
3.7559754000000041
 20
20.5737189999999828
 30
0.0
 11
3.8979153999999809
 21
20.2953789999999117
 31
0.0
  0
LINE
  5
BD
100
AcDbEntity
  8
0
 62
0
370
-1
 48
1.0
  6
BYLAYER
100
AcDbLine
 10
161.4676653999999019
 20
20.5737189999999828
 30
0.0
 11
161.6096053999998787
 21
20.2953789999999117
 31
0.0
  0
LINE
  5
BE
100
AcDbEntity
  8
0
 62
0
370
-1
 48
1.0
  6
BYLAYER
100
AcDbLine
 10
318.8046653999998057
 20
20.5737189999999828
 30
0.0
 11
318.9466053999997825
 21
20.2953789999999117
 31
0.0
  0
LINE
  5
BF
100
AcDbEntity
  8
0
 62
0
370
-1
 48
1.0
  6
BYLAYER
100
AcDbLine
 10
3.8979153999999809
 20
20.2953789999999117
 30
0.0
 11
4.1197753999999733
 21
20.0735090000000582
 31
0.0
  0
LINE
  5
C0
100
AcDbEntity
  8
0
 62
0
370
-1
 48
1.0
  6
BYLAYER
100
AcDbLine
 10
161.6096053999998787
 20
20.2953789999999117
 30
0.0
 11
161.8314653999998711
 21
20.0735090000000582
 31
0.0
  0
LINE
  5
C1
100
AcDbEntity
  8
0
 62
0
370
-1
 48
1.0
  6
BYLAYER
100
AcDbLine
 10
318.9466053999997825
 20
20.2953789999999117
 30
0.0
 11
319.1684653999997749
 21
20.0735090000000582
 31
0.0
  0
LINE
  5
C2
100
AcDbEntity
  8
0
 62
0
370
-1
 48
1.0
  6
BYLAYER
100
AcDbLine
 10
4.1197753999999733
 20
20.0735090000000582
 30
0.0
 11
4.3981254000000192
 21
19.931568999999854
 31
0.0
  0
LINE
  5
C3
100
AcDbEntity
  8
0
 62
0
370
-1
 48
1.0
  6
BYLAYER
100
AcDbLine
 10
161.8314653999998711
 20
20.0735090000000582
 30
0.0
 11
162.109815399999917
 21
19.931568999999854
 31
0.0
  0
LINE
  5
C4
100
AcDbEntity
  8
0
 62
0
370
-1
 48
1.0
  6
BYLAYER
100
AcDbLine
 10
319.1684653999997749
 20
20.0735090000000582
 30
0.0
 11
319.4468153999998208
 21
19.931568999999854
 31
0.0
  0
LINE
  5
C5
100
AcDbEntity
  8
0
 62
0
370
-1
 48
1.0
  6
BYLAYER
100
AcDbLine
 10
4.3981254000000192
 20
19.931568999999854
 30
0.0
 11
4.7068054000000004
 21
19.8833389999999781
 31
0.0
  0
LINE
  5
C6
100
AcDbEntity
  8
0
 62
0
370
-1
 48
1.0
  6
BYLAYER
100
AcDbLine
 10
162.109815399999917
 20
19.931568999999854
 30
0.0
 11
162.4184953999998982
 21
19.8833389999999781
 31
0.0
  0
LINE
  5
C7
100
AcDbEntity
  8
0
 62
0
370
-1
 48
1.0
  6
BYLAYER
100
AcDbLine
 10
319.4468153999998208
 20
19.931568999999854
 30
0.0
 11
319.755495399999802
 21
19.8833389999999781
 31
0.0
  0
LINE
  5
C8
100
AcDbEntity
  8
0
 62
0
370
-1
 48
1.0
  6
BYLAYER
100
AcDbLine
 10
4.7068054000000004
 20
19.8833389999999781
 30
0.0
 11
5.0168654000000217
 21
19.931568999999854
 31
0.0
  0
LINE
  5
C9
100
AcDbEntity
  8
0
 62
0
370
-1
 48
1.0
  6
BYLAYER
100
AcDbLine
 10
162.4184953999998982
 20
19.8833389999999781
 30
0.0
 11
162.7285553999999195
 21
19.931568999999854
 31
0.0
  0
LINE
  5
CA
100
AcDbEntity
  8
0
 62
0
370
-1
 48
1.0
  6
BYLAYER
100
AcDbLine
 10
319.755495399999802
 20
19.8833389999999781
 30
0.0
 11
320.0655553999998233
 21
19.931568999999854
 31
0.0
  0
LINE
  5
CB
100
AcDbEntity
  8
0
 62
0
370
-1
 48
1.0
  6
BYLAYER
100
AcDbLine
 10
5.0168654000000217
 20
19.931568999999854
 30
0.0
 11
5.2952453999999918
 21
20.0735090000000582
 31
0.0
  0
LINE
  5
CC
100
AcDbEntity
  8
0
 62
0
370
-1
 48
1.0
  6
BYLAYER
100
AcDbLine
 10
162.7285553999999195
 20
19.931568999999854
 30
0.0
 11
163.0069353999998896
 21
20.0735090000000582
 31
0.0
  0
LINE
  5
CD
100
AcDbEntity
  8
0
 62
0
370
-1
 48
1.0
  6
BYLAYER
100
AcDbLine
 10
320.0655553999998233
 20
19.931568999999854
 30
0.0
 11
320.3439353999997934
 21
20.0735090000000582
 31
0.0
  0
LINE
  5
CE
100
AcDbEntity
  8
0
 62
0
370
-1
 48
1.0
  6
BYLAYER
100
AcDbLine
 10
5.2952453999999918
 20
20.0735090000000582
 30
0.0
 11
5.5171053999999842
 21
20.2953789999999117
 31
0.0
  0
LINE
  5
CF
100
AcDbEntity
  8
0
 62
0
370
-1
 48
1.0
  6
BYLAYER
100
AcDbLine
 10
163.0069353999998896
 20
20.0735090000000582
 30
0.0
 11
163.228795399999882
 21
20.2953789999999117
 31
0.0
  0
LINE
  5
D0
100
AcDbEntity
  8
0
 62
0
370
-1
 48
1.0
  6
BYLAYER
100
AcDbLine
 10
320.3439353999997934
 20
20.0735090000000582
 30
0.0
 11
320.5657953999997858
 21
20.2953789999999117
 31
0.0
  0
LINE
  5
D1
100
AcDbEntity
  8
0
 62
0
370
-1
 48
1.0
  6
BYLAYER
100
AcDbLine
 10
5.5171053999999842
 20
20.2953789999999117
 30
0.0
 11
5.6590654000000242
 21
20.5737189999999828
 31
0.0
  0
LINE
  5
D2
100
AcDbEntity
  8
0
 62
0
370
-1
 48
1.0
  6
BYLAYER
100
AcDbLine
 10
163.228795399999882
 20
20.2953789999999117
 30
0.0
 11
163.370755399999922
 21
20.5737189999999828
 31
0.0
  0
LINE
  5
D3
100
AcDbEntity
  8
0
 62
0
370
-1
 48
1.0
  6
BYLAYER
100
AcDbLine
 10
320.5657953999997858
 20
20.2953789999999117
 30
0.0
 11
320.7077553999998258
 21
20.5737189999999828
 31
0.0
  0
LINE
  5
D4
100
AcDbEntity
  8
0
 62
0
370
-1
 48
1.0
  6
BYLAYER
100
AcDbLine
 10
5.6590654000000242
 20
20.5737189999999828
 30
0.0
 11
5.707285400000039
 21
20.8837790000000041
 31
0.0
  0
LINE
  5
D5
100
AcDbEntity
  8
0
 62
0
370
-1
 48
1.0
  6
BYLAYER
100
AcDbLine
 10
163.370755399999922
 20
20.5737189999999828
 30
0.0
 11
163.4189753999999368
 21
20.8837790000000041
 31
0.0
  0
LINE
  5
D6
100
AcDbEntity
  8
0
 62
0
370
-1
 48
1.0
  6
BYLAYER
100
AcDbLine
 10
320.7077553999998258
 20
20.5737189999999828
 30
0.0
 11
320.7559753999998406
 21
20.8837790000000041
 31
0.0
  0
LINE
  5
D7
100
AcDbEntity
  8
0
 62
0
370
-1
 48
1.0
  6
BYLAYER
100
AcDbLine
 10
5.707285400000039
 20
20.8837790000000041
 30
0.0
 11
5.6590654000000242
 21
21.1924589999998716
 31
0.0
  0
LINE
  5
D8
100
AcDbEntity
  8
0
 62
0
370
-1
 48
1.0
  6
BYLAYER
100
AcDbLine
 10
163.4189753999999368
 20
20.8837790000000041
 30
0.0
 11
163.370755399999922
 21
21.1924589999998716
 31
0.0
  0
LINE
  5
D9
100
AcDbEntity
  8
0
 62
0
370
-1
 48
1.0
  6
BYLAYER
100
AcDbLine
 10
320.7559753999998406
 20
20.8837790000000041
 30
0.0
 11
320.7077553999998258
 21
21.1924589999998716
 31
0.0
  0
LINE
  5
DA
100
AcDbEntity
  8
0
 62
0
370
-1
 48
1.0
  6
BYLAYER
100
AcDbLine
 10
5.6590654000000242
 20
21.1924589999998716
 30
0.0
 11
5.5171053999999842
 21
21.4708389999998417
 31
0.0
  0
LINE
  5
DB
100
AcDbEntity
  8
0
 62
0
370
-1
 48
1.0
  6
BYLAYER
100
AcDbLine
 10
163.370755399999922
 20
21.1924589999998716
 30
0.0
 11
163.228795399999882
 21
21.4708389999998417
 31
0.0
  0
LINE
  5
DC
100
AcDbEntity
  8
0
 62
0
370
-1
 48
1.0
  6
BYLAYER
100
AcDbLine
 10
320.7077553999998258
 20
21.1924589999998716
 30
0.0
 11
320.5657953999997858
 21
21.4708389999998417
 31
0.0
  0
LINE
  5
DD
100
AcDbEntity
  8
0
 62
0
370
-1
 48
1.0
  6
BYLAYER
100
AcDbLine
 10
5.5171053999999842
 20
21.4708389999998417
 30
0.0
 11
5.2952453999999918
 21
21.6926989999999478
 31
0.0
  0
LINE
  5
DE
100
AcDbEntity
  8
0
 62
0
370
-1
 48
1.0
  6
BYLAYER
100
AcDbLine
 10
163.228795399999882
 20
21.4708389999998417
 30
0.0
 11
163.0069353999998896
 21
21.6926989999999478
 31
0.0
  0
LINE
  5
DF
100
AcDbEntity
  8
0
 62
0
370
-1
 48
1.0
  6
BYLAYER
100
AcDbLine
 10
320.5657953999997858
 20
21.4708389999998417
 30
0.0
 11
320.3439353999997934
 21
21.6926989999999478
 31
0.0
  0
LINE
  5
E0
100
AcDbEntity
  8
0
 62
0
370
-1
 48
1.0
  6
BYLAYER
100
AcDbLine
 10
5.2952453999999918
 20
21.6926989999999478
 30
0.0
 11
5.0168654000000217
 21
21.8346589999998741
 31
0.0
  0
LINE
  5
E1
100
AcDbEntity
  8
0
 62
0
370
-1
 48
1.0
  6
BYLAYER
100
AcDbLine
 10
163.0069353999998896
 20
21.6926989999999478
 30
0.0
 11
162.7285553999999195
 21
21.8346589999998741
 31
0.0
  0
LINE
  5
E2
100
AcDbEntity
  8
0
 62
0
370
-1
 48
1.0
  6
BYLAYER
100
AcDbLine
 10
320.3439353999997934
 20
21.6926989999999478
 30
0.0
 11
320.0655553999998233
 21
21.8346589999998741
 31
0.0
  0
LINE
  5
E3
100
AcDbEntity
  8
0
 62
0
370
-1
 48
1.0
  6
BYLAYER
100
AcDbLine
 10
5.0168654000000217
 20
21.8346589999998741
 30
0.0
 11
4.7081854000000405
 21
21.8842589999999291
 31
0.0
  0
LINE
  5
E4
100
AcDbEntity
  8
0
 62
0
370
-1
 48
1.0
  6
BYLAYER
100
AcDbLine
 10
162.7285553999999195
 20
21.8346589999998741
 30
0.0
 11
162.4198753999999383
 21
21.8842589999999291
 31
0.0
  0
LINE
  5
E5
100
AcDbEntity
  8
0
 62
0
370
-1
 48
1.0
  6
BYLAYER
100
AcDbLine
 10
320.0655553999998233
 20
21.8346589999998741
 30
0.0
 11
319.7568753999998421
 21
21.8842589999999291
 31
0.0
  0
LINE
  5
E6
100
AcDbEntity
  8
0
 62
0
370
-1
 48
1.0
  6
BYLAYER
100
AcDbLine
 10
4.7081854000000405
 20
21.8842589999999291
 30
0.0
 11
4.3981254000000192
 21
21.8346589999998741
 31
0.0
  0
LINE
  5
E7
100
AcDbEntity
  8
0
 62
0
370
-1
 48
1.0
  6
BYLAYER
100
AcDbLine
 10
162.4198753999999383
 20
21.8842589999999291
 30
0.0
 11
162.109815399999917
 21
21.8346589999998741
 31
0.0
  0
LINE
  5
E8
100
AcDbEntity
  8
0
 62
0
370
-1
 48
1.0
  6
BYLAYER
100
AcDbLine
 10
319.7568753999998421
 20
21.8842589999999291
 30
0.0
 11
319.4468153999998208
 21
21.8346589999998741
 31
0.0
  0
ENDSEC
  0
SECTION
  2
OBJECTS
  0
DICTIONARY
  5
C
100
AcDbDictionary
280
0
281
1
  3
ACAD_GROUP
350
D
  3
ACAD_LAYOUT
350
1A
  3
ACAD_MLINESTYLE
350
17
  3
ACAD_PLOTSETTINGS
350
19
  3
ACAD_PLOTSTYLENAME
350
E
  3
AcDbVariableDictionary
350
E9
  3
QCAD_OBJECTS
350
EA
  0
DICTIONARY
  5
D
100
AcDbDictionary
280
0
281
1
  0
ACDBDICTIONARYWDFLT
  5
E
100
AcDbDictionary
281
1
  3
Normal
350
F
100
AcDbDictionaryWithDefault
340
F
  0
ACDBPLACEHOLDER
  5
F
  0
DICTIONARY
  5
17
100
AcDbDictionary
280
0
281
1
  3
Standard
350
18
  0
MLINESTYLE
  5
18
100
AcDbMlineStyle
  2
STANDARD
 70
0
  3

 62
256
 51
90.0
 52
90.0
 71
2
 49
0.5
 62
256
  6
BYLAYER
 49
-0.5
 62
256
  6
BYLAYER
  0
DICTIONARY
  5
19
100
AcDbDictionary
280
0
281
1
  0
DICTIONARY
  5
1A
100
AcDbDictionary
281
1
  3
Layout1
350
1E
  3
Layout2
350
26
  3
Model
350
22
  0
LAYOUT
  5
1E
100
AcDbPlotSettings
  1

  2
none_device
  4

  6

 40
0.0
 41
0.0
 42
0.0
 43
0.0
 44
0.0
 45
0.0
 46
0.0
 47
0.0
 48
0.0
 49
0.0
140
0.0
141
0.0
142
1.0
143
1.0
 70
688
 72
0
 73
0
 74
5
  7

 75
16
147
1.0
148
0.0
149
0.0
100
AcDbLayout
  1
Layout1
 70
1
 71
1
 10
0.0
 20
0.0
 11
420.0
 21
297.0
 12
0.0
 22
0.0
 32
0.0
 14
100000000000000000000.0
 24
100000000000000000000.0
 34
100000000000000000000.0
 15
-100000000000000000000.0
 25
-100000000000000000000.0
 35
-100000000000000000000.0
146
0.0
 13
0.0
 23
0.0
 33
0.0
 16
1.0
 26
0.0
 36
0.0
 17
0.0
 27
1.0
 37
0.0
 76
0
330
1B
  0
LAYOUT
  5
22
100
AcDbPlotSettings
  1

  2
none_device
  4

  6

 40
0.0
 41
0.0
 42
0.0
 43
0.0
 44
0.0
 45
0.0
 46
0.0
 47
0.0
 48
0.0
 49
0.0
140
0.0
141
0.0
142
1.0
143
1.0
 70
1712
 72
0
 73
0
 74
0
  7

 75
0
147
1.0
148
0.0
149
0.0
100
AcDbLayout
  1
Model
 70
1
 71
0
 10
0.0
 20
0.0
 11
12.0
 21
9.0
 12
0.0
 22
0.0
 32
0.0
 14
0.0
 24
0.0
 34
0.0
 15
0.0
 25
0.0
 35
0.0
146
0.0
 13
0.0
 23
0.0
 33
0.0
 16
1.0
 26
0.0
 36
0.0
 17
0.0
 27
1.0
 37
0.0
 76
0
330
1F
  0
LAYOUT
  5
26
100
AcDbPlotSettings
  1

  2
none_device
  4

  6

 40
0.0
 41
0.0
 42
0.0
 43
0.0
 44
0.0
 45
0.0
 46
0.0
 47
0.0
 48
0.0
 49
0.0
140
0.0
141
0.0
142
1.0
143
1.0
 70
688
 72
0
 73
0
 74
5
  7

 75
16
147
1.0
148
0.0
149
0.0
100
AcDbLayout
  1
Layout2
 70
1
 71
2
 10
0.0
 20
0.0
 11
12.0
 21
9.0
 12
0.0
 22
0.0
 32
0.0
 14
0.0
 24
0.0
 34
0.0
 15
0.0
 25
0.0
 35
0.0
146
0.0
 13
0.0
 23
0.0
 33
0.0
 16
1.0
 26
0.0
 36
0.0
 17
0.0
 27
1.0
 37
0.0
 76
0
330
23
  0
DICTIONARY
  5
E9
100
AcDbDictionary
281
1
  3
DIMASSOC
350
EC
  3
HIDETEXT
350
EB
  0
DICTIONARYVAR
  5
EB
100
DictionaryVariables
280
0
  1
2
  0
DICTIONARYVAR
  5
EC
100
DictionaryVariables
280
0
  1
1
  0
DICTIONARY
  5
EA
100
AcDbDictionary
281
1
  3
ColorSettings/BackgroundColor
350
ED
  3
ColorSettings/ColorMode
350
EE
  3
Grid/DisplayGrid00
350
EF
  3
Grid/DisplayGrid01
350
F0
  3
Grid/DisplayGrid02
350
F1
  3
Grid/DisplayGrid03
350
F2
  3
Grid/GridSpacingX00
350
F3
  3
Grid/GridSpacingX01
350
F4
  3
Grid/GridSpacingX02
350
F5
  3
Grid/GridSpacingX03
350
F6
  3
Grid/GridSpacingY00
350
F7
  3
Grid/GridSpacingY01
350
F8
  3
Grid/GridSpacingY02
350
F9
  3
Grid/GridSpacingY03
350
FA
  3
Grid/IsometricGrid00
350
FB
  3
Grid/IsometricGrid01
350
FC
  3
Grid/IsometricGrid02
350
FD
  3
Grid/IsometricGrid03
350
FE
  3
Grid/IsometricProjection00
350
FF
  3
Grid/IsometricProjection01
350
100
  3
Grid/IsometricProjection02
350
101
  3
Grid/IsometricProjection03
350
102
  3
Grid/MetaGridSpacingX00
350
103
  3
Grid/MetaGridSpacingX01
350
104
  3
Grid/MetaGridSpacingX02
350
105
  3
Grid/MetaGridSpacingX03
350
106
  3
Grid/MetaGridSpacingY00
350
107
  3
Grid/MetaGridSpacingY01
350
108
  3
Grid/MetaGridSpacingY02
350
109
  3
Grid/MetaGridSpacingY03
350
10A
  3
MultiPageSettings/Columns
350
10B
  3
MultiPageSettings/GlueMarginsBottom
350
10C
  3
MultiPageSettings/GlueMarginsLeft
350
10D
  3
MultiPageSettings/GlueMarginsRight
350
10E
  3
MultiPageSettings/GlueMarginsTop
350
10F
  3
MultiPageSettings/PrintCropMarks
350
110
  3
MultiPageSettings/Rows
350
111
  3
PageSettings/OffsetX
350
112
  3
PageSettings/OffsetY
350
113
  3
PageSettings/PageOrientation
350
114
  3
PageSettings/PaperHeight
350
115
  3
PageSettings/PaperWidth
350
116
  3
PageSettings/Scale
350
117
  3
PageSettings/ShowPaperBorders
350
118
  3
PageTagSettings/EnablePageTags
350
119
  3
PageTagSettings/TagAlignment
350
11A
  3
PageTagSettings/TagFont
350
11B
  3
PageTagSettings/TagPosition
350
11C
  3
QCADVersion
350
11D
  3
UnitSettings/PaperUnit
350
11E
  3
ViewportCenter
350
11F
  3
ViewportHeight
350
120
  3
ViewportWidth
350
121
  0
XRECORD
  5
ED
330
EA
100
AcDbXrecord
280
1
1000
White
  0
XRECORD
  5
EE
330
EA
100
AcDbXrecord
280
1
1000
FullColor
  0
XRECORD
  5
EF
330
EA
100
AcDbXrecord
280
1
290
1
  0
XRECORD
  5
F0
330
EA
100
AcDbXrecord
280
1
290
1
  0
XRECORD
  5
F1
330
EA
100
AcDbXrecord
280
1
290
1
  0
XRECORD
  5
F2
330
EA
100
AcDbXrecord
280
1
290
1
  0
XRECORD
  5
F3
330
EA
100
AcDbXrecord
280
1
1000
auto
  0
XRECORD
  5
F4
330
EA
100
AcDbXrecord
280
1
1000
auto
  0
XRECORD
  5
F5
330
EA
100
AcDbXrecord
280
1
1000
auto
  0
XRECORD
  5
F6
330
EA
100
AcDbXrecord
280
1
1000
auto
  0
XRECORD
  5
F7
330
EA
100
AcDbXrecord
280
1
1000
auto
  0
XRECORD
  5
F8
330
EA
100
AcDbXrecord
280
1
1000
auto
  0
XRECORD
  5
F9
330
EA
100
AcDbXrecord
280
1
1000
auto
  0
XRECORD
  5
FA
330
EA
100
AcDbXrecord
280
1
1000
auto
  0
XRECORD
  5
FB
330
EA
100
AcDbXrecord
280
1
290
0
  0
XRECORD
  5
FC
330
EA
100
AcDbXrecord
280
1
290
0
  0
XRECORD
  5
FD
330
EA
100
AcDbXrecord
280
1
290
0
  0
XRECORD
  5
FE
330
EA
100
AcDbXrecord
280
1
290
0
  0
XRECORD
  5
FF
330
EA
100
AcDbXrecord
280
1
 90
65537
  0
XRECORD
  5
100
330
EA
100
AcDbXrecord
280
1
 90
65537
  0
XRECORD
  5
101
330
EA
100
AcDbXrecord
280
1
 90
65537
  0
XRECORD
  5
102
330
EA
100
AcDbXrecord
280
1
 90
65537
  0
XRECORD
  5
103
330
EA
100
AcDbXrecord
280
1
1000
auto
  0
XRECORD
  5
104
330
EA
100
AcDbXrecord
280
1
1000
auto
  0
XRECORD
  5
105
330
EA
100
AcDbXrecord
280
1
1000
auto
  0
XRECORD
  5
106
330
EA
100
AcDbXrecord
280
1
1000
auto
  0
XRECORD
  5
107
330
EA
100
AcDbXrecord
280
1
1000
auto
  0
XRECORD
  5
108
330
EA
100
AcDbXrecord
280
1
1000
auto
  0
XRECORD
  5
109
330
EA
100
AcDbXrecord
280
1
1000
auto
  0
XRECORD
  5
10A
330
EA
100
AcDbXrecord
280
1
1000
auto
  0
XRECORD
  5
10B
330
EA
100
AcDbXrecord
280
1
 90
1
  0
XRECORD
  5
10C
330
EA
100
AcDbXrecord
280
1
 40
0.5
  0
XRECORD
  5
10D
330
EA
100
AcDbXrecord
280
1
 40
0.5
  0
XRECORD
  5
10E
330
EA
100
AcDbXrecord
280
1
 40
0.5
  0
XRECORD
  5
10F
330
EA
100
AcDbXrecord
280
1
 40
0.5
  0
XRECORD
  5
110
330
EA
100
AcDbXrecord
280
1
290
0
  0
XRECORD
  5
111
330
EA
100
AcDbXrecord
280
1
 90
1
  0
XRECORD
  5
112
330
EA
100
AcDbXrecord
280
1
 40
0.0
  0
XRECORD
  5
113
330
EA
100
AcDbXrecord
280
1
 40
0.0
  0
XRECORD
  5
114
330
EA
100
AcDbXrecord
280
1
1000
Portrait
  0
XRECORD
  5
115
330
EA
100
AcDbXrecord
280
1
 40
11.6929133858267722
  0
XRECORD
  5
116
330
EA
100
AcDbXrecord
280
1
 40
8.2677165354330704
  0
XRECORD
  5
117
330
EA
100
AcDbXrecord
280
1
1000
1:1
  0
XRECORD
  5
118
330
EA
100
AcDbXrecord
280
1
290
1
  0
XRECORD
  5
119
330
EA
100
AcDbXrecord
280
1
290
0
  0
XRECORD
  5
11A
330
EA
100
AcDbXrecord
280
1
1000
Inside
  0
XRECORD
  5
11B
330
EA
100
AcDbXrecord
280
1
1000
Arial,10,-1,5,50,0,0,0,0,0
  0
XRECORD
  5
11C
330
EA
100
AcDbXrecord
280
1
1000
TopLeft
  0
XRECORD
  5
11D
330
EA
100
AcDbXrecord
280
1
1000
3.28.1.3
  0
XRECORD
  5
11E
330
EA
100
AcDbXrecord
280
1
 90
1
  0
XRECORD
  5
120
330
EA
100
AcDbXrecord
280
1
 40
510.9093117423932995
  0
XRECORD
  5
121
330
EA
100
AcDbXrecord
280
1
 40
953.0178682875566665
  0
ENDSEC
  0
EOF
